<svg width="97" height="22" viewBox="0 0 97 22" fill="none" xmlns="http://www.w3.org/2000/svg">
<path d="M14.8389 11.2908C14.8496 10.477 15.072 9.67911 15.4851 8.9713C15.8983 8.2635 16.4889 7.66881 17.202 7.24256C16.749 6.61353 16.1514 6.09586 15.4566 5.73067C14.7619 5.36548 13.9891 5.16284 13.1997 5.13882C11.5157 4.96697 9.88319 6.11853 9.02508 6.11853C8.15036 6.11853 6.82916 5.15589 5.40645 5.18435C4.4862 5.21325 3.58934 5.47343 2.80326 5.93954C2.01718 6.40565 1.36869 7.06178 0.920971 7.84402C-1.01846 11.1087 0.428181 15.9068 2.28599 18.5457C3.21549 19.8379 4.30182 21.2814 5.72324 21.2302C7.1142 21.1741 7.63369 20.3678 9.31269 20.3678C10.9761 20.3678 11.4635 21.2302 12.9138 21.1976C14.4063 21.1741 15.3467 19.8997 16.2436 18.5952C16.9115 17.6745 17.4254 16.6568 17.7663 15.58C16.8992 15.2234 16.1592 14.6266 15.6386 13.8638C15.118 13.1011 14.8399 12.2062 14.8389 11.2908Z" fill="#5F6368"/>
<path d="M12.0995 3.40335C12.9133 2.4535 13.3143 1.23263 13.2172 0C11.9739 0.126965 10.8254 0.70471 10.0006 1.61812C9.59734 2.06434 9.28847 2.58347 9.09168 3.14582C8.89488 3.70817 8.81401 4.30272 8.85369 4.89547C9.47557 4.9017 10.0908 4.77065 10.653 4.51219C11.2153 4.25373 11.7099 3.8746 12.0995 3.40335Z" fill="#5F6368"/>
<path d="M32.278 13.5959H27.763L26.6787 16.7086H24.7664L29.0429 5.19214H31.0297L35.3063 16.7086H33.3613L32.278 13.5959ZM28.2306 12.1595H31.8095L30.0452 7.10765H29.9958L28.2306 12.1595Z" fill="#5F6368"/>
<path d="M44.542 12.5107C44.542 15.12 43.1057 16.7964 40.9381 16.7964C40.389 16.8243 39.8429 16.7013 39.3623 16.4415C38.8818 16.1817 38.4862 15.7956 38.2209 15.3274H38.1799V19.4862H36.4072V8.31206H38.1231V9.7086H38.1557C38.4332 9.24261 38.8355 8.85849 39.3197 8.5971C39.8039 8.33572 40.3519 8.20685 40.9055 8.2242C43.0972 8.22421 44.542 9.90875 44.542 12.5107ZM42.72 12.5107C42.72 10.8108 41.8165 9.6932 40.4378 9.6932C39.0834 9.6932 38.1724 10.8343 38.1724 12.5107C38.1724 14.2025 39.0834 15.3355 40.4378 15.3355C41.8165 15.3355 42.72 14.2261 42.72 12.5107Z" fill="#5F6368"/>
<path d="M54.0471 12.5107C54.0471 15.12 52.6108 16.7964 50.4432 16.7964C49.8941 16.8243 49.348 16.7013 48.8674 16.4415C48.3869 16.1817 47.9913 15.7956 47.726 15.3273H47.685V19.4862H45.9123V8.31205H47.6281V9.70859H47.6607C47.9383 9.2426 48.3405 8.85848 48.8247 8.5971C49.309 8.33571 49.857 8.20685 50.4105 8.2242C52.6024 8.2242 54.0471 9.90874 54.0471 12.5107ZM52.2251 12.5107C52.2251 10.8108 51.3216 9.6932 49.9429 9.6932C48.5885 9.6932 47.6775 10.8343 47.6775 12.5107C47.6775 14.2025 48.5885 15.3355 49.9429 15.3355C51.3216 15.3355 52.2251 14.2261 52.2251 12.5107H52.2251Z" fill="#5F6368"/>
<path d="M60.3292 13.4997C60.4605 14.6418 61.6016 15.3917 63.1609 15.3917C64.6551 15.3917 65.73 14.6418 65.73 13.612C65.73 12.7181 65.0817 12.1829 63.5466 11.8161L62.0115 11.4565C59.8364 10.9457 58.8267 9.95673 58.8267 8.35188C58.8267 6.36484 60.6077 5 63.1367 5C65.6396 5 67.3555 6.36484 67.4132 8.35188H65.6238C65.5167 7.20259 64.5395 6.50885 63.1115 6.50885C61.6836 6.50885 60.7064 7.21075 60.7064 8.23234C60.7064 9.04653 61.3305 9.52563 62.8572 9.89239L64.1623 10.2039C66.5925 10.7627 67.6023 11.7119 67.6023 13.3964C67.6023 15.551 65.8371 16.9005 63.0296 16.9005C60.4027 16.9005 58.6292 15.5827 58.5146 13.4997L60.3292 13.4997Z" fill="#5F6368"/>
<path d="M71.4279 6.32495V8.31199H73.0701V9.67683H71.4279V14.3057C71.4279 15.0248 71.7567 15.3599 72.4786 15.3599C72.6736 15.3566 72.8682 15.3433 73.0618 15.32V16.6767C72.7372 16.7357 72.4073 16.7624 72.0772 16.7564C70.3288 16.7564 69.6469 16.1179 69.6469 14.4895V9.67683H68.3912V8.31199H69.6469V6.32495H71.4279Z" fill="#5F6368"/>
<path d="M74.0212 12.5107C74.0212 9.86883 75.6215 8.20874 78.117 8.20874C80.6209 8.20874 82.2138 9.86879 82.2138 12.5107C82.2138 15.1597 80.6293 16.8126 78.117 16.8126C75.6057 16.8126 74.0212 15.1597 74.0212 12.5107ZM80.4076 12.5107C80.4076 10.6984 79.5534 9.62883 78.117 9.62883C76.6807 9.62883 75.8274 10.7066 75.8274 12.5107C75.8274 14.3301 76.6807 15.3916 78.117 15.3916C79.5534 15.3916 80.4075 14.3301 80.4075 12.5107H80.4076Z" fill="#5F6368"/>
<path d="M83.6752 8.31222H85.3659V9.74135H85.4069C85.5213 9.29501 85.7902 8.90055 86.1685 8.62429C86.5468 8.34803 87.0114 8.20681 87.4841 8.22436C87.6884 8.22367 87.8921 8.24524 88.0915 8.28867V9.90076C87.8336 9.82414 87.5646 9.78896 87.295 9.79661C87.0375 9.78645 86.7808 9.8306 86.5424 9.92601C86.3041 10.0214 86.0899 10.1659 85.9144 10.3494C85.7389 10.5329 85.6063 10.7512 85.5258 10.9892C85.4453 11.2273 85.4187 11.4794 85.4478 11.7284V16.7087H83.6752L83.6752 8.31222Z" fill="#5F6368"/>
<path d="M96.2645 14.2423C96.026 15.7665 94.4993 16.8126 92.5459 16.8126C90.0337 16.8126 88.4743 15.176 88.4743 12.5505C88.4743 9.91683 90.042 8.20874 92.4714 8.20874C94.8607 8.20874 96.3632 9.80452 96.3632 12.3504V12.9409H90.2638V13.045C90.2356 13.354 90.2754 13.6653 90.3805 13.9582C90.4856 14.2511 90.6536 14.519 90.8733 14.7439C91.093 14.9688 91.3594 15.1458 91.6549 15.2629C91.9503 15.38 92.2681 15.4347 92.5869 15.4233C93.0058 15.4614 93.4262 15.3671 93.7855 15.1543C94.1448 14.9416 94.4239 14.6217 94.5812 14.2423L96.2645 14.2423ZM90.2721 11.7363H94.5896C94.6055 11.4585 94.5622 11.1804 94.4624 10.9196C94.3625 10.6588 94.2083 10.4209 94.0094 10.2208C93.8105 10.0207 93.5712 9.86275 93.3065 9.75682C93.0419 9.6509 92.7575 9.5993 92.4714 9.60528C92.1827 9.60361 91.8966 9.65753 91.6295 9.76394C91.3623 9.87035 91.1195 10.0271 90.9151 10.2253C90.7106 10.4234 90.5485 10.6589 90.4382 10.9183C90.3278 11.1776 90.2714 11.4557 90.2721 11.7363V11.7363Z" fill="#5F6368"/>
</svg>
