<svg width="36" height="25" viewBox="0 0 36 25" fill="none" xmlns="http://www.w3.org/2000/svg">
<path d="M9.34378 14.9636V20.182C9.34378 20.3263 9.40115 20.4646 9.50328 20.5666C9.60542 20.6686 9.74394 20.7259 9.88837 20.7259H34.4554C34.5998 20.7259 34.7383 20.6686 34.8405 20.5666C34.9426 20.4646 35 20.3263 35 20.182V15.1096C35.0007 15.0093 34.975 14.9106 34.9255 14.8233L31.0158 8.18217C30.9683 8.10047 30.9001 8.03264 30.8181 7.98543C30.7362 7.93822 30.6432 7.91328 30.5486 7.91309H9.33804L9.34378 14.9636Z" fill="#F97316" stroke="#171A1C" stroke-miterlimit="10"/>
<path d="M23.4574 1H7.31159C6.78445 1 6.35712 1.42678 6.35712 1.95323V15.5676C6.35712 16.094 6.78445 16.5208 7.31159 16.5208H23.4574C23.9846 16.5208 24.4119 16.094 24.4119 15.5676V1.95323C24.4119 1.42678 23.9846 1 23.4574 1Z" fill="#FDBA74" stroke="#171A1C" stroke-miterlimit="10"/>
<path d="M28.7773 24.3157C30.4584 24.3157 31.8213 22.9546 31.8213 21.2756C31.8213 19.5967 30.4584 18.2356 28.7773 18.2356C27.0961 18.2356 25.7332 19.5967 25.7332 21.2756C25.7332 22.9546 27.0961 24.3157 28.7773 24.3157Z" fill="#F97316" stroke="#171A1C" stroke-miterlimit="10"/>
<path d="M28.7773 22.2917C29.3392 22.2917 29.7948 21.8367 29.7948 21.2755C29.7948 20.7143 29.3392 20.2593 28.7773 20.2593C28.2153 20.2593 27.7597 20.7143 27.7597 21.2755C27.7597 21.8367 28.2153 22.2917 28.7773 22.2917Z" fill="#FDBA74" stroke="#171A1C" stroke-miterlimit="10"/>
<path d="M26.2521 15.4446H26.6878" stroke="#171A1C" stroke-miterlimit="10" stroke-linecap="round"/>
<path d="M26.404 10.2261V13.5495C26.4083 13.6224 26.4405 13.6909 26.4938 13.7409C26.547 13.7909 26.6175 13.8187 26.6906 13.8186H31.7553C31.8021 13.8141 31.8471 13.7982 31.8863 13.7722C31.9255 13.7463 31.9577 13.7111 31.98 13.6698C32.0024 13.6286 32.0143 13.5824 32.0146 13.5355C32.0149 13.4885 32.0036 13.4422 31.9818 13.4006L29.8063 10.0772C29.782 10.0392 29.7485 10.008 29.7089 9.98649C29.6693 9.96497 29.6249 9.95382 29.5798 9.95411H26.6763C26.6052 9.95758 26.5379 9.98734 26.4876 10.0376C26.4372 10.0879 26.4074 10.155 26.404 10.2261Z" fill="#FDBA74" stroke="#171A1C" stroke-miterlimit="10" stroke-linecap="round"/>
<path d="M28.1667 10.2261V13.8186" stroke="#171A1C" stroke-miterlimit="10" stroke-linecap="round"/>
<path d="M8.82785 17.2021H1.23504C1.10523 17.2021 1 17.3072 1 17.4369V24.1839C1 24.3136 1.10523 24.4187 1.23504 24.4187H8.82785C8.95766 24.4187 9.06289 24.3136 9.06289 24.1839V17.4369C9.06289 17.3072 8.95766 17.2021 8.82785 17.2021Z" fill="#F97316" stroke="#171A1C" stroke-miterlimit="10"/>
<path d="M5.94149 17.2021H4.12426C3.99445 17.2021 3.88922 17.3072 3.88922 17.4369V19.2031C3.88922 19.3327 3.99445 19.4378 4.12426 19.4378H5.94149C6.07129 19.4378 6.17652 19.3327 6.17652 19.2031V17.4369C6.17652 17.3072 6.07129 17.2021 5.94149 17.2021Z" fill="#FDBA74" stroke="#171A1C" stroke-miterlimit="10" stroke-linecap="round"/>
<path d="M16.8907 17.2021H9.29793C9.16813 17.2021 9.0629 17.3072 9.0629 17.4369V24.1839C9.0629 24.3136 9.16813 24.4187 9.29793 24.4187H16.8907C17.0206 24.4187 17.1258 24.3136 17.1258 24.1839V17.4369C17.1258 17.3072 17.0206 17.2021 16.8907 17.2021Z" fill="#F97316" stroke="#171A1C" stroke-miterlimit="10"/>
<path d="M14.0044 17.2021H12.1872C12.0573 17.2021 11.9521 17.3072 11.9521 17.4369V19.2031C11.9521 19.3327 12.0573 19.4378 12.1872 19.4378H14.0044C14.1342 19.4378 14.2394 19.3327 14.2394 19.2031V17.4369C14.2394 17.3072 14.1342 17.2021 14.0044 17.2021Z" fill="#FDBA74" stroke="#171A1C" stroke-miterlimit="10" stroke-linecap="round"/>
<path d="M12.8894 9.9541H5.29659C5.16678 9.9541 5.06155 10.0592 5.06155 10.1888V16.9359C5.06155 17.0655 5.16678 17.1706 5.29659 17.1706H12.8894C13.0192 17.1706 13.1244 17.0655 13.1244 16.9359V10.1888C13.1244 10.0592 13.0192 9.9541 12.8894 9.9541Z" fill="#F97316" stroke="#171A1C" stroke-miterlimit="10"/>
<path d="M10.003 9.9541H8.18578C8.05597 9.9541 7.95074 10.0592 7.95074 10.1888V11.955C7.95074 12.0847 8.05597 12.1898 8.18578 12.1898H10.003C10.1328 12.1898 10.238 12.0847 10.238 11.955V10.1888C10.238 10.0592 10.1328 9.9541 10.003 9.9541Z" fill="#FDBA74" stroke="#171A1C" stroke-miterlimit="10" stroke-linecap="round"/>
</svg>
