<svg width="30" height="34" viewBox="0 0 30 34" fill="none" xmlns="http://www.w3.org/2000/svg">
<path d="M10.1717 30.8064H28.8167C28.946 30.8064 29.0701 30.7558 29.1615 30.6658C29.253 30.5759 29.3043 30.4539 29.3043 30.3266V1.47974C29.3043 1.35251 29.253 1.23048 29.1615 1.14051C29.0701 1.05054 28.946 1 28.8167 1H3.96667C3.837 0.999996 3.71259 1.05042 3.62055 1.14029C3.52851 1.23015 3.47631 1.35217 3.47533 1.47974V24.2181L10.1717 30.8064Z" fill="#F97316" stroke="#171A1C" stroke-miterlimit="10"/>
<path d="M20.1326 3.1936H1.48762C1.3583 3.1936 1.23427 3.24415 1.14282 3.33412C1.05137 3.42409 1 3.54611 1 3.67335V32.5202C1 32.6475 1.05137 32.7695 1.14282 32.8594C1.23427 32.9494 1.3583 33 1.48762 33H26.3414C26.4707 33 26.5947 32.9494 26.6862 32.8594C26.7776 32.7695 26.829 32.6475 26.829 32.5202V9.78184L20.1326 3.1936Z" fill="#FDBA74" stroke="#171A1C" stroke-miterlimit="10"/>
<path d="M20.006 3.37305V10.0748H26.829" stroke="#171A1C" stroke-miterlimit="10"/>
<path d="M6.87006 16.9306V15.506C6.09625 15.5036 5.3384 15.2893 4.68135 14.8871L5.0238 13.9459C5.63696 14.3372 6.35143 14.5469 7.08223 14.5502C8.09842 14.5502 8.78332 13.9716 8.78332 13.1696C8.78332 12.3675 8.2287 11.9171 7.16784 11.4959C5.7087 10.932 4.80791 10.2874 4.80791 9.0606C4.80791 7.89603 5.65287 7.00613 6.96684 6.79739V5.37646H7.85647V6.73879C8.50952 6.74494 9.15016 6.91512 9.71762 7.23318L9.34539 8.15971C8.80037 7.84199 8.17727 7.67733 7.5438 7.68363C6.42711 7.68363 6.02882 8.33183 6.02882 8.89214C6.02882 9.62458 6.55739 9.99079 7.80063 10.4962C9.28955 11.0894 10.034 11.8219 10.034 13.0597C10.034 14.1583 9.24488 15.2094 7.77458 15.4511V16.9159L6.87006 16.9306Z" fill="#171A1C"/>
<path d="M4.6739 20.2227H23.4157" stroke="#171A1C" stroke-miterlimit="10" stroke-linecap="round"/>
<path d="M4.6739 23.5186H23.4157" stroke="#171A1C" stroke-miterlimit="10" stroke-linecap="round"/>
<path d="M13.3171 13.2646H23.4157" stroke="#171A1C" stroke-miterlimit="10" stroke-linecap="round"/>
<path d="M13.3171 9.45215H18.1709" stroke="#171A1C" stroke-miterlimit="10" stroke-linecap="round"/>
<path d="M13.3171 16.5605H23.4157" stroke="#171A1C" stroke-miterlimit="10" stroke-linecap="round"/>
<path d="M4.6739 26.8147H23.4157" stroke="#171A1C" stroke-miterlimit="10" stroke-linecap="round"/>
</svg>
