<svg width="29" height="32" viewBox="0 0 29 32" fill="none" xmlns="http://www.w3.org/2000/svg">
<path d="M9.06863 0.230957L6.49725 3.20901L9.33441 3.13216L9.06863 0.230957Z" fill="#F97316"/>
<path d="M6.56772 3.64755V22.8128L10.7914 18.4962L12.0659 18.746L12.5847 19.665L11.9794 22.1915L10.9772 23.3411V25.4514L25.3038 25.3457L25.1053 0.358887H9.2896L9.11668 3.31452H6.56772V3.64755Z" fill="#FDBA74"/>
<path d="M6.52929 16.8152L6.73744 22.3134L10.5385 18.6789H11.5119L12.4662 19.5659L12.0659 22.3134L10.9163 23.1427L10.7306 25.2114L14.0897 25.5348V26.7036L13.334 28.4904L12.4662 28.958L12.2516 31.4653H2.27036V21.4007L4.44145 18.048L6.52929 16.8152Z" fill="#F97316"/>
<path d="M8.64599 28.2375C8.5608 28.2369 8.478 28.2092 8.40966 28.1583C8.34131 28.1075 8.29097 28.0361 8.26597 27.9547C8.24096 27.8733 8.2426 27.786 8.27063 27.7055C8.29866 27.6251 8.35163 27.5556 8.42184 27.5074C9.01862 27.104 9.5819 26.6532 10.1062 26.1592C10.3848 25.8807 10.4873 24.8784 10.3656 23.6519C10.3488 23.4984 10.3738 23.3433 10.4381 23.2029C10.5024 23.0625 10.6035 22.9421 10.7306 22.8546C11.4277 22.3759 11.9102 21.644 12.0756 20.8148C12.21 19.7164 11.9827 19.2393 11.7553 19.0375C11.6131 18.9103 11.4273 18.8426 11.2366 18.8486L5.79282 23.6231C5.75329 23.6578 5.70732 23.6844 5.65752 23.7013C5.60773 23.7182 5.55508 23.7252 5.5026 23.7217C5.39661 23.7148 5.2977 23.6661 5.22763 23.5863C5.15757 23.5064 5.12209 23.402 5.12899 23.2961C5.1359 23.1901 5.18463 23.0911 5.26446 23.0211L10.8875 18.0929L10.9932 18.0705C11.2261 18.0309 11.465 18.0446 11.6918 18.1106C11.9187 18.1766 12.1276 18.2931 12.3029 18.4515C12.8185 18.9287 13.0042 19.7676 12.8569 20.9429C12.6558 21.9832 12.0544 22.9031 11.1821 23.5046C11.174 23.5104 11.1674 23.5181 11.1629 23.527C11.1585 23.536 11.1563 23.5459 11.1565 23.5559C11.2686 24.667 11.2718 26.1176 10.6602 26.7228C10.1058 27.257 9.50816 27.7443 8.87335 28.1798C8.80465 28.2204 8.72573 28.2405 8.64599 28.2375Z" fill="#171A1C"/>
<path d="M12.3862 32H2.882C2.651 32 2.42946 31.9082 2.26611 31.7449C2.10277 31.5815 2.011 31.36 2.011 31.129V22.2813C2.0014 18.6052 6.2091 16.4597 6.40443 16.37C6.45127 16.3465 6.50232 16.3324 6.55463 16.3286C6.60694 16.3249 6.65947 16.3316 6.70919 16.3482C6.75891 16.3649 6.80483 16.3913 6.84431 16.4258C6.88379 16.4603 6.91604 16.5023 6.9392 16.5494C6.98718 16.644 6.99558 16.7539 6.96256 16.8548C6.92953 16.9557 6.85777 17.0393 6.76308 17.0873C6.72145 17.1065 2.81796 19.1015 2.81796 22.2813V31.129C2.81796 31.1477 2.82538 31.1656 2.83859 31.1788C2.8518 31.192 2.86972 31.1995 2.88841 31.1995H12.3862C12.4923 31.1995 12.5941 31.2416 12.6692 31.3167C12.7443 31.3918 12.7864 31.4936 12.7864 31.5997C12.7864 31.7059 12.7443 31.8077 12.6692 31.8828C12.5941 31.9578 12.4923 32 12.3862 32Z" fill="#171A1C"/>
<path d="M12.4662 31.9776C12.4135 31.978 12.3613 31.9679 12.3125 31.948C12.2638 31.928 12.2195 31.8986 12.1822 31.8613C12.145 31.824 12.1155 31.7797 12.0955 31.731C12.0756 31.6822 12.0655 31.63 12.0659 31.5773V28.548L12.3862 28.484C12.4374 28.484 13.7983 28.1221 13.7983 25.4034C13.7983 25.2973 13.8405 25.1955 13.9156 25.1204C13.9906 25.0453 14.0924 25.0032 14.1986 25.0032C14.3048 25.0032 14.4066 25.0453 14.4816 25.1204C14.5567 25.1955 14.5989 25.2973 14.5989 25.4034C14.6021 28.0165 13.4493 28.8842 12.8665 29.1404V31.5645C12.8687 31.6182 12.8599 31.6719 12.8407 31.7221C12.8215 31.7724 12.7923 31.8182 12.7549 31.8568C12.7175 31.8955 12.6726 31.9261 12.6229 31.9468C12.5733 31.9676 12.52 31.9781 12.4662 31.9776Z" fill="#171A1C"/>
<path d="M25.1277 25.8037H11.0796C10.9735 25.8037 10.8717 25.7615 10.7966 25.6864C10.7215 25.6114 10.6794 25.5096 10.6794 25.4034C10.6794 25.2972 10.7215 25.1954 10.7966 25.1204C10.8717 25.0453 10.9735 25.0031 11.0796 25.0031H24.9068V0.800839H9.15831L6.968 3.01036V22.4157C6.968 22.5219 6.92583 22.6237 6.85076 22.6988C6.7757 22.7738 6.67389 22.816 6.56773 22.816C6.46157 22.816 6.35975 22.7738 6.28469 22.6988C6.20962 22.6237 6.16745 22.5219 6.16745 22.4157V2.9207C6.16667 2.84476 6.18098 2.76941 6.20957 2.69905C6.23815 2.62868 6.28044 2.5647 6.33396 2.51082L8.64596 0.173206C8.70093 0.116238 8.76724 0.0714179 8.84059 0.0416351C8.91394 0.0118523 8.99272 -0.00223284 9.07185 0.000287241H25.1277C25.2817 0.00113348 25.4291 0.062909 25.5378 0.172114C25.6464 0.281319 25.7073 0.429074 25.7073 0.583089V25.2401C25.7031 25.391 25.6402 25.5344 25.532 25.6396C25.4238 25.7449 25.2787 25.8037 25.1277 25.8037Z" fill="#171A1C"/>
<path d="M9.17112 3.64766H6.56773C6.46157 3.64766 6.35975 3.60549 6.28469 3.53042C6.20962 3.45536 6.16745 3.35355 6.16745 3.24739C6.16745 3.14123 6.20962 3.03941 6.28469 2.96435C6.35975 2.88928 6.46157 2.84711 6.56773 2.84711H9.02382V0.416633C9.02382 0.310474 9.06599 0.208662 9.14106 0.133596C9.21612 0.0585292 9.31794 0.0163574 9.4241 0.0163574C9.53026 0.0163574 9.63207 0.0585292 9.70713 0.133596C9.7822 0.208662 9.82437 0.310474 9.82437 0.416633V2.9784C9.82834 3.06599 9.81427 3.15345 9.78306 3.23538C9.75184 3.31732 9.70414 3.39196 9.64289 3.45471C9.58165 3.51745 9.50818 3.56695 9.42703 3.60014C9.34588 3.63333 9.25878 3.6495 9.17112 3.64766Z" fill="#171A1C"/>
<path d="M21.0802 8.10383H9.98416C9.77201 8.10383 9.56856 8.06114 9.41855 7.98515C9.26854 7.90917 9.18427 7.80611 9.18427 7.69864C9.18427 7.59118 9.26854 7.48812 9.41855 7.41213C9.56856 7.33615 9.77201 7.29346 9.98416 7.29346H21.0802C21.2924 7.29346 21.4958 7.33615 21.6458 7.41213C21.7958 7.48812 21.8801 7.59118 21.8801 7.69864C21.8801 7.80611 21.7958 7.90917 21.6458 7.98515C21.4958 8.06114 21.2924 8.10383 21.0802 8.10383Z" fill="#171A1C"/>
<path d="M21.3503 12.9659H10.2543C10.0421 12.9659 9.83867 12.9232 9.68866 12.8472C9.53865 12.7712 9.45438 12.6682 9.45438 12.5607C9.45438 12.4532 9.53865 12.3502 9.68866 12.2742C9.83867 12.1982 10.0421 12.1555 10.2543 12.1555H21.3503C21.5625 12.1555 21.7659 12.1982 21.916 12.2742C22.066 12.3502 22.1502 12.4532 22.1502 12.5607C22.1502 12.6682 22.066 12.7712 21.916 12.8472C21.7659 12.9232 21.5625 12.9659 21.3503 12.9659Z" fill="#171A1C"/>
<path d="M21.3503 15.3973H10.2543C10.0421 15.3973 9.83867 15.3546 9.68866 15.2786C9.53865 15.2026 9.45438 15.0996 9.45438 14.9921C9.45438 14.8846 9.53865 14.7816 9.68866 14.7056C9.83867 14.6296 10.0421 14.5869 10.2543 14.5869H21.3503C21.5625 14.5869 21.7659 14.6296 21.916 14.7056C22.066 14.7816 22.1502 14.8846 22.1502 14.9921C22.1502 15.0996 22.066 15.2026 21.916 15.2786C21.7659 15.3546 21.5625 15.3973 21.3503 15.3973Z" fill="#171A1C"/>
<path d="M17.5657 10.535H10.2572C10.0442 10.535 9.84006 10.4923 9.68951 10.4163C9.53895 10.3403 9.45438 10.2373 9.45438 10.1298C9.45438 10.0223 9.53895 9.91927 9.68951 9.84329C9.84006 9.7673 10.0442 9.72461 10.2572 9.72461H17.5657C17.7786 9.72461 17.9828 9.7673 18.1334 9.84329C18.2839 9.91927 18.3685 10.0223 18.3685 10.1298C18.3685 10.2373 18.2839 10.3403 18.1334 10.4163C17.9828 10.4923 17.7786 10.535 17.5657 10.535Z" fill="#171A1C"/>
<path d="M27.6927 31.9776H0.400276C0.294116 31.9776 0.192304 31.9354 0.117238 31.8603C0.0421718 31.7852 0 31.6834 0 31.5773C0 31.4711 0.0421718 31.3693 0.117238 31.2942C0.192304 31.2192 0.294116 31.177 0.400276 31.177H27.6927C27.7989 31.177 27.9007 31.2192 27.9757 31.2942C28.0508 31.3693 28.093 31.4711 28.093 31.5773C28.093 31.6834 28.0508 31.7852 27.9757 31.8603C27.9007 31.9354 27.7989 31.9776 27.6927 31.9776Z" fill="#171A1C"/>
</svg>
