<svg width="29" height="30" viewBox="0 0 29 30" fill="none" xmlns="http://www.w3.org/2000/svg">
<path d="M11.394 17.2261L10.8282 18.6619C10.8282 18.6619 6.82322 18.9106 4.93421 20.4708C3.63459 21.5425 3.16602 22.4485 3.16602 23.6534V28.9764H25.8283V23.7541C25.6468 22.4113 24.9973 21.1767 23.9953 20.2695C22.2949 18.6975 18.8292 18.9106 18.8292 18.9106L17.7978 17.2261H11.394Z" fill="#F97316" stroke="#171A1C" stroke-miterlimit="10"/>
<path d="M16.0944 2.67188H13.0974C10.3907 2.67188 8.19653 4.87614 8.19653 7.59525V13.5548C8.19653 16.2739 10.3907 18.4782 13.0974 18.4782H16.0944C18.8011 18.4782 20.9953 16.2739 20.9953 13.5548V7.59525C20.9953 4.87614 18.8011 2.67188 16.0944 2.67188Z" fill="#FDBA74" stroke="#171A1C" stroke-miterlimit="10"/>
<path d="M11.671 24.1182L13.3066 26.1935H15.8999L17.176 24.2247L14.4176 22.7119L11.671 24.1182Z" fill="#FDBA74" stroke="#171A1C" stroke-miterlimit="10"/>
<path d="M11.1671 17.9959L8.99813 19.2807C8.97353 19.3022 8.95611 19.3308 8.9482 19.3626C8.9403 19.3943 8.94229 19.4278 8.95392 19.4584L11.1023 24.435C11.1104 24.4543 11.1225 24.4717 11.1377 24.486C11.153 24.5004 11.171 24.5114 11.1907 24.5183C11.2103 24.5253 11.2313 24.5281 11.2521 24.5265C11.2729 24.5249 11.2931 24.5189 11.3115 24.509L14.1612 22.9636C14.1935 22.9419 14.216 22.9083 14.2237 22.87C14.2315 22.8318 14.2238 22.792 14.2025 22.7594L11.3734 18.0225C11.3491 17.9922 11.314 17.9725 11.2756 17.9675C11.2371 17.9626 11.1983 17.9727 11.1671 17.9959Z" fill="#F97316" stroke="#171A1C" stroke-miterlimit="10"/>
<path d="M17.7418 18.2918L14.7536 22.6704C14.7313 22.7031 14.7162 22.7402 14.7093 22.7792C14.7024 22.8183 14.7039 22.8583 14.7136 22.8967C14.7234 22.9351 14.7412 22.971 14.7659 23.0019C14.7906 23.0328 14.8215 23.0581 14.8567 23.076L17.6505 24.4586C17.6835 24.4753 17.7197 24.4851 17.7567 24.4873C17.7936 24.4894 17.8307 24.484 17.8655 24.4712C17.9003 24.4585 17.9321 24.4387 17.959 24.4131C17.9858 24.3875 18.0072 24.3566 18.0218 24.3224L20.0081 19.4346C20.0308 19.3819 20.0367 19.3235 20.0251 19.2673C20.0135 19.2112 19.9849 19.16 19.9432 19.1208L18.3813 18.2178C18.3364 18.1761 18.2831 18.1446 18.225 18.1256C18.1669 18.1065 18.1054 18.1003 18.0447 18.1073C17.9839 18.1143 17.9254 18.1344 17.8732 18.1663C17.8209 18.1981 17.7761 18.2409 17.7418 18.2918Z" fill="#F97316" stroke="#171A1C" stroke-miterlimit="10"/>
<path d="M13.3066 26.1934L12.1897 28.9999L16.6986 28.9763L15.7673 26.1934H13.3066Z" fill="#FDBA74" stroke="#171A1C" stroke-miterlimit="10"/>
<path d="M19.4039 26.9248H21.2399" stroke="#171A1C" stroke-miterlimit="10" stroke-linecap="round"/>
<path d="M23.2585 26.9248H23.4413" stroke="#171A1C" stroke-miterlimit="10" stroke-linecap="round"/>
<path d="M13.1239 15.2866C13.5431 15.5513 14.0285 15.6909 14.5237 15.6893C15.0136 15.693 15.4939 15.5531 15.9058 15.2866" fill="#F97316"/>
<path d="M13.1239 15.2866C13.5431 15.5513 14.0285 15.6909 14.5237 15.6893C15.0136 15.693 15.4939 15.5531 15.9058 15.2866" stroke="#171A1C" stroke-miterlimit="10" stroke-linecap="round"/>
<path d="M11.8154 11.6926H11.8773" stroke="#171A1C" stroke-miterlimit="10" stroke-linecap="round"/>
<path d="M17.285 11.6926H17.3469" stroke="#171A1C" stroke-miterlimit="10" stroke-linecap="round"/>
<path d="M8.14055 9.74763C8.14055 9.74763 9.03938 7.67525 10.3744 7.43545C11.7093 7.19564 16.8076 7.93874 17.285 7.00025C17.5797 6.45255 19.1299 7.96835 19.4393 8.37394C19.8775 9.04816 20.2505 9.76293 20.5532 10.5085C20.5825 10.5747 20.6315 10.6301 20.6935 10.6671C20.7554 10.7041 20.8273 10.7208 20.8992 10.7149C20.971 10.7091 21.0393 10.6809 21.0945 10.6344C21.1497 10.5879 21.1892 10.5252 21.2075 10.4552C21.5994 8.95124 22.2065 5.99663 21.4462 4.83018C21.2249 4.45561 20.9317 4.12897 20.5836 3.86926C20.2355 3.60954 19.8395 3.42194 19.4187 3.31734C19.4187 3.31734 17.674 0.641017 13.672 1.04069C9.67004 1.44036 7.60715 4.62294 7.63072 7.23413C7.6543 9.84533 7.87238 10.8164 8.14055 9.74763Z" fill="#F97316" stroke="#171A1C" stroke-miterlimit="10"/>
<path d="M1 28.9792H28.3686" stroke="#171A1C" stroke-miterlimit="10" stroke-linecap="round"/>
</svg>
