<svg width="29" height="34" viewBox="0 0 29 34" fill="none" xmlns="http://www.w3.org/2000/svg">
<path d="M1.87604 29.755L5.68319 26.4683H25.082C25.4426 26.4727 25.8004 26.406 26.135 26.2721C26.4696 26.1383 26.7744 25.9398 27.0317 25.6883C27.289 25.4367 27.4939 25.1369 27.6345 24.8063C27.7752 24.4756 27.8488 24.1205 27.8511 23.7613V9.8887C27.8488 9.53086 27.7756 9.17698 27.636 8.84727C27.4963 8.51757 27.2928 8.21849 27.037 7.96712C26.7813 7.71575 26.4783 7.51701 26.1454 7.38225C25.8126 7.24748 25.4563 7.17934 25.097 7.1817H3.75411C3.3948 7.17934 3.03854 7.24748 2.70567 7.38225C2.3728 7.51701 2.06984 7.71575 1.8141 7.96712C1.55836 8.21849 1.35483 8.51757 1.21515 8.84727C1.07546 9.17698 1.00236 9.53086 1 9.8887V29.3666C1.00135 29.467 1.03156 29.565 1.08707 29.6489C1.14258 29.7328 1.22106 29.7991 1.31322 29.84C1.40538 29.8808 1.50737 29.8945 1.60711 29.8795C1.70685 29.8644 1.80017 29.8212 1.87604 29.755Z" fill="#F97316" stroke="#171A1C" stroke-miterlimit="10" stroke-linecap="round"/>
<path d="M7.33627 31.6644L9.79637 29.2502" stroke="#171A1C" stroke-miterlimit="10" stroke-linecap="round"/>
<path d="M14.4166 32.9999V29.3936" stroke="#171A1C" stroke-miterlimit="10" stroke-linecap="round"/>
<path d="M18.9677 29.2502L21.3888 31.6286" stroke="#171A1C" stroke-miterlimit="10" stroke-linecap="round"/>
<path d="M18.7847 4.60632L21.3138 2.11743" stroke="#171A1C" stroke-miterlimit="10" stroke-linecap="round"/>
<path d="M14.4166 1V4.60635" stroke="#171A1C" stroke-miterlimit="10" stroke-linecap="round"/>
<path d="M7.33627 2.11743L9.92237 4.6601" stroke="#171A1C" stroke-miterlimit="10" stroke-linecap="round"/>
<path d="M14.5636 12.6556V17.717L21.6019 19.6322V11.1736L14.5636 12.6556Z" fill="#FDBA74" stroke="#171A1C" stroke-miterlimit="10"/>
<path d="M7.23125 15.0311C7.23125 12.6677 9.86536 12.6677 9.86536 12.6677H14.5636V17.6993H10.2734C10.2734 17.6993 7.23125 17.9383 7.23125 15.0311Z" fill="#FDBA74" stroke="#171A1C" stroke-miterlimit="10"/>
<path d="M10.1144 12.9246V17.3466" stroke="#171A1C" stroke-miterlimit="10"/>
<path d="M12.6885 17.8098C12.6885 17.8098 15.1246 21.9928 14.4436 22.1362C13.7625 22.2797 12.7665 22.6621 12.4155 22.1362C12.0645 21.6104 10.5824 17.8098 10.5824 17.8098H12.6885Z" fill="#FDBA74" stroke="#171A1C" stroke-miterlimit="10"/>
</svg>
