<svg width="41" height="27" viewBox="0 0 41 27" fill="none" xmlns="http://www.w3.org/2000/svg">
<path d="M38.8284 3.37622H10.8545C10.1594 3.37622 9.59595 3.94474 9.59595 4.64605V20.2563C9.59595 20.9576 10.1594 21.5261 10.8545 21.5261H38.8284C39.5235 21.5261 40.0869 20.9576 40.0869 20.2563V4.64605C40.0869 3.94474 39.5235 3.37622 38.8284 3.37622Z" fill="#FDBA74" stroke="#171A1C" stroke-miterlimit="10"/>
<path d="M36.4803 5.60962H8.5064C7.81133 5.60962 7.24786 6.17814 7.24786 6.87945V22.4897C7.24786 23.191 7.81133 23.7595 8.5064 23.7595H36.4803C37.1754 23.7595 37.7389 23.191 37.7389 22.4897V6.87945C37.7389 6.17814 37.1754 5.60962 36.4803 5.60962Z" fill="#FDBA74" stroke="#171A1C" stroke-miterlimit="10"/>
<path d="M34.1218 7.8501H6.14791C5.45284 7.8501 4.88937 8.41862 4.88937 9.11993V24.7301C4.88937 25.4314 5.45284 26 6.14791 26H34.1218C34.8169 26 35.3804 25.4314 35.3804 24.7301V9.11993C35.3804 8.41862 34.8169 7.8501 34.1218 7.8501Z" fill="#FDBA74" stroke="#171A1C" stroke-miterlimit="10"/>
<path d="M20.1366 24.0831C24.0538 24.0831 27.2292 20.8791 27.2292 16.9268C27.2292 12.9745 24.0538 9.77051 20.1366 9.77051C16.2195 9.77051 13.044 12.9745 13.044 16.9268C13.044 20.8791 16.2195 24.0831 20.1366 24.0831Z" fill="#FDBA74" stroke="#171A1C" stroke-miterlimit="10"/>
<path d="M22.1468 14.314C22.1468 14.314 18.8436 12.6233 18.1264 14.6028C17.4092 16.5823 22.7709 16.8294 22.4847 18.7567C22.1985 20.6841 19.8504 20.9311 17.5265 19.3864" fill="#FDBA74"/>
<path d="M22.1468 14.314C22.1468 14.314 18.8436 12.6233 18.1264 14.6028C17.4092 16.5823 22.7709 16.8294 22.4847 18.7567C22.1985 20.6841 19.8504 20.9311 17.5265 19.3864" stroke="#171A1C" stroke-miterlimit="10" stroke-linecap="round"/>
<path d="M20.1228 12.4563V21.3938" stroke="#171A1C" stroke-miterlimit="10" stroke-linecap="round"/>
<path d="M6.50307 12.1049C9.54233 12.1049 12.0061 9.619 12.0061 6.55246C12.0061 3.48592 9.54233 1 6.50307 1C3.46381 1 1 3.48592 1 6.55246C1 9.619 3.46381 12.1049 6.50307 12.1049Z" fill="#F97316" stroke="#171A1C" stroke-miterlimit="10"/>
<path d="M3.81015 6.32299L5.59968 8.12511L8.89256 4.80615" stroke="#171A1C" stroke-miterlimit="10" stroke-linecap="round"/>
</svg>
