<svg width="167" height="77" viewBox="0 0 167 77" fill="none" xmlns="http://www.w3.org/2000/svg">
<path d="M134.32 74.7101C139.688 74.7101 144.04 69.924 144.04 64.0201C144.04 58.1161 139.688 53.3301 134.32 53.3301C128.952 53.3301 124.6 58.1161 124.6 64.0201C124.6 69.924 128.952 74.7101 134.32 74.7101Z" fill="#171A1C"/>
<path d="M134.32 75.27C128.66 75.27 124.05 70.27 124.05 64.02C124.05 57.77 128.66 52.78 134.32 52.78C139.98 52.78 144.6 57.78 144.6 64.02C144.6 70.26 140 75.27 134.32 75.27ZM134.32 53.89C129.32 53.89 125.16 58.43 125.16 64.02C125.16 69.61 129.27 74.16 134.32 74.16C139.37 74.16 143.48 69.61 143.48 64.02C143.48 58.43 139.37 53.89 134.32 53.89Z" fill="#171A1C"/>
<path d="M136.27 74.7101C141.638 74.7101 145.99 69.924 145.99 64.0201C145.99 58.1161 141.638 53.3301 136.27 53.3301C130.902 53.3301 126.55 58.1161 126.55 64.0201C126.55 69.924 130.902 74.7101 136.27 74.7101Z" fill="#171A1C"/>
<path d="M136.27 75.27C130.6 75.27 125.99 70.27 125.99 64.02C125.99 57.77 130.6 52.78 136.27 52.78C141.94 52.78 146.54 57.78 146.54 64.02C146.54 70.26 141.93 75.27 136.27 75.27ZM136.27 53.89C131.21 53.89 127.1 58.43 127.1 64.02C127.1 69.61 131.21 74.16 136.27 74.16C141.33 74.16 145.43 69.61 145.43 64.02C145.43 58.43 141.32 53.89 136.27 53.89Z" fill="#171A1C"/>
<path d="M62.11 74.7101C67.7764 74.7101 72.37 69.924 72.37 64.0201C72.37 58.1161 67.7764 53.3301 62.11 53.3301C56.4436 53.3301 51.85 58.1161 51.85 64.0201C51.85 69.924 56.4436 74.7101 62.11 74.7101Z" fill="#171A1C"/>
<path d="M62.11 75.27C59.8695 75.3557 57.6545 74.7699 55.7492 73.5879C53.8439 72.4059 52.3353 70.6815 51.417 68.636C50.4986 66.5906 50.2124 64.3173 50.5951 62.1081C50.9778 59.8988 52.0119 57.8543 53.5647 56.2369C55.1175 54.6195 57.1182 53.503 59.3101 53.0307C61.5019 52.5583 63.7849 52.7517 65.8661 53.586C67.9472 54.4203 69.7316 55.8574 70.9903 57.713C72.2489 59.5685 72.9244 61.7578 72.93 64C72.9863 66.9283 71.8787 69.7594 69.8503 71.8722C67.8219 73.985 65.0382 75.207 62.11 75.27ZM62.11 53.89C60.0871 53.8041 58.0848 54.3258 56.361 55.3879C54.6372 56.45 53.2709 58.0038 52.4379 59.8492C51.6049 61.6946 51.3435 63.7472 51.6872 65.7425C52.031 67.7378 52.9642 69.5845 54.3667 71.0448C55.7692 72.5051 57.5768 73.5121 59.5566 73.936C61.5364 74.36 63.5979 74.1816 65.4754 73.4238C67.3529 72.6659 68.9606 71.3634 70.0914 69.6838C71.2221 68.0043 71.8242 66.0247 71.82 64C71.8683 61.3731 70.8735 58.8341 69.0535 56.9391C67.2335 55.0442 64.7367 53.9478 62.11 53.89Z" fill="#171A1C"/>
<path d="M64.17 74.7101C69.8364 74.7101 74.43 69.924 74.43 64.0201C74.43 58.1161 69.8364 53.3301 64.17 53.3301C58.5036 53.3301 53.91 58.1161 53.91 64.0201C53.91 69.924 58.5036 74.7101 64.17 74.7101Z" fill="#171A1C"/>
<path d="M64.17 75.27C61.9298 75.3537 59.7157 74.7662 57.8117 73.5829C55.9077 72.3996 54.4007 70.6744 53.4839 68.6287C52.5671 66.583 52.2823 64.3101 52.6662 62.1014C53.0501 59.8928 54.085 57.8492 55.6383 56.2328C57.1916 54.6164 59.1924 53.5009 61.384 53.0295C63.5756 52.558 65.8581 52.752 67.9386 53.5867C70.0192 54.4213 71.803 55.8585 73.0611 57.7139C74.3193 59.5693 74.9945 61.7583 75 64C75.0292 65.4512 74.7722 66.8939 74.2437 68.2457C73.7151 69.5976 72.9255 70.832 71.9197 71.8786C70.914 72.9252 69.712 73.7633 68.3823 74.3453C67.0525 74.9272 65.6212 75.2414 64.17 75.27ZM64.17 53.89C62.1471 53.8041 60.1448 54.3258 58.421 55.3879C56.6973 56.45 55.3309 58.0038 54.4979 59.8492C53.6649 61.6946 53.4035 63.7472 53.7472 65.7425C54.091 67.7378 55.0242 69.5845 56.4267 71.0448C57.8293 72.5051 59.6368 73.5121 61.6166 73.9361C63.5965 74.36 65.6579 74.1816 67.5354 73.4238C69.4129 72.6659 71.0206 71.3634 72.1514 69.6838C73.2821 68.0043 73.8842 66.0247 73.88 64C73.9283 61.3731 72.9335 58.8341 71.1135 56.9391C69.2935 55.0442 66.7967 53.9478 64.17 53.89Z" fill="#171A1C"/>
<path d="M19 1.67004H120.61C122.024 1.67004 123.379 2.2316 124.379 3.23116C125.378 4.23073 125.94 5.58644 125.94 7.00004V60.82H13.7V7.00004C13.7 5.59162 14.2574 4.24044 15.2505 3.24173C16.2436 2.24302 17.5916 1.67797 19 1.67004Z" fill="white"/>
<path d="M127.61 62.48H12V7.60003C12.0013 6.59982 12.1998 5.60969 12.5841 4.68625C12.9683 3.76281 13.5309 2.92418 14.2395 2.21833C14.9482 1.51247 15.789 0.953235 16.7139 0.572599C17.6389 0.191963 18.6298 -0.00260321 19.63 2.63008e-05H120C122.015 0.00267218 123.946 0.804234 125.371 2.22894C126.796 3.65364 127.597 5.58519 127.6 7.60003L127.61 62.48ZM15.37 59.15H124.27V7.60003C124.27 7.03975 124.159 6.48498 123.945 5.96748C123.73 5.44998 123.415 4.97992 123.019 4.58421C122.622 4.1885 122.151 3.87492 121.633 3.66142C121.115 3.44793 120.56 3.33871 120 3.34003H19.63C18.5002 3.34003 17.4166 3.78885 16.6177 4.58775C15.8188 5.38666 15.37 6.4702 15.37 7.60003V59.15Z" fill="#171A1C"/>
<path d="M86.38 1.67003H120.61C122.024 1.67003 123.379 2.23159 124.379 3.23116C125.378 4.23072 125.94 5.58643 125.94 7.00003V60.82H81V7.00003C81 6.29586 81.1395 5.59866 81.4105 4.94872C81.6814 4.29877 82.0785 3.70896 82.5788 3.21337C83.079 2.71777 83.6725 2.32621 84.3249 2.06132C84.9774 1.79642 85.6759 1.66343 86.38 1.67003Z" fill="white"/>
<path d="M127.61 62.48H79.38V7.60001C79.3813 6.60065 79.5795 5.61133 79.9631 4.68855C80.3468 3.76576 80.9084 2.92758 81.616 2.22185C82.3236 1.51613 83.1632 0.956679 84.087 0.575455C85.0108 0.19423 86.0006 -0.0013075 87 6.57953e-06H120C122.015 0.00265246 123.946 0.804214 125.371 2.22892C126.796 3.65362 127.597 5.58517 127.6 7.60001L127.61 62.48ZM82.71 59.15H124.27V7.60001C124.27 7.03973 124.159 6.48496 123.945 5.96746C123.73 5.44996 123.415 4.9799 123.019 4.58419C122.622 4.18848 122.151 3.8749 121.633 3.66141C121.115 3.44791 120.56 3.33869 120 3.34001H87C86.4384 3.33737 85.8818 3.44555 85.3621 3.65833C84.8424 3.87111 84.3698 4.18433 83.9713 4.58004C83.5728 4.97575 83.2562 5.44618 83.0398 5.96439C82.8234 6.4826 82.7113 7.03842 82.71 7.60001V59.15Z" fill="#171A1C"/>
<path d="M155.07 46.52V61.35H88.8V16.45C88.8 15.7487 88.9381 15.0543 89.2065 14.4065C89.4748 13.7586 89.8682 13.1699 90.3641 12.674C91.3655 11.6726 92.7237 11.11 94.14 11.11H130.65C131.583 11.1103 132.502 11.3449 133.321 11.7921C134.141 12.2394 134.835 12.885 135.34 13.67L150.26 36.76C150.26 36.76 155.07 41.66 155.07 46.52Z" fill="white"/>
<path d="M156.74 63.0001H87.13V16.4501C87.13 14.5936 87.8675 12.8131 89.1803 11.5003C90.493 10.1876 92.2735 9.45009 94.13 9.45009H130.64C131.852 9.44775 133.045 9.75065 134.11 10.3309C135.174 10.9111 136.075 11.7499 136.73 12.7701L151.56 35.7701C152.38 36.6401 156.73 41.4901 156.73 46.5601L156.74 63.0001ZM90.46 59.6801H153.4V46.5201C153.4 42.4201 149.11 37.9801 149.07 37.9301L148.86 37.6701L133.94 14.5701C133.585 14.0203 133.098 13.5683 132.523 13.2555C131.948 12.9428 131.304 12.7793 130.65 12.7801H94.14C93.1657 12.7801 92.2312 13.1664 91.5414 13.8544C90.8515 14.5424 90.4627 15.4758 90.46 16.4501V59.6801Z" fill="#171A1C"/>
<path d="M152.9 52.27L125.84 52.27C125.227 52.27 124.64 52.0266 124.207 51.5934C123.773 51.1602 123.53 50.5727 123.53 49.96V47.85C123.53 47.2374 123.773 46.6498 124.207 46.2166C124.64 45.7834 125.227 45.54 125.84 45.54H153.9C154.247 45.54 154.581 45.678 154.826 45.9237C155.072 46.1694 155.21 46.5026 155.21 46.85V49.95C155.21 50.5627 154.967 51.1502 154.533 51.5834C154.1 52.0166 153.513 52.26 152.9 52.26V52.27Z" fill="#171A1C"/>
<path d="M152.65 52.82H126.11C125.283 52.8147 124.492 52.4826 123.91 51.8962C123.327 51.3098 123 50.5167 123 49.69V48.15C122.997 47.739 123.076 47.3314 123.231 46.9507C123.385 46.5699 123.614 46.2234 123.903 45.9309C124.191 45.6384 124.535 45.4056 124.914 45.2459C125.292 45.0862 125.699 45.0026 126.11 45H153.76C154.29 45 154.799 45.2107 155.174 45.5858C155.549 45.9609 155.76 46.4696 155.76 47V49.65C155.765 50.0627 155.689 50.4724 155.535 50.8555C155.382 51.2385 155.154 51.5874 154.865 51.8821C154.575 52.1767 154.231 52.4112 153.851 52.5722C153.471 52.7332 153.063 52.8174 152.65 52.82ZM126.11 46.14C125.58 46.14 125.071 46.3507 124.696 46.7258C124.321 47.1009 124.11 47.6096 124.11 48.14V49.68C124.11 50.2104 124.321 50.7191 124.696 51.0942C125.071 51.4693 125.58 51.68 126.11 51.68H152.65C153.18 51.68 153.689 51.4693 154.064 51.0942C154.439 50.7191 154.65 50.2104 154.65 49.68V47C154.65 46.7613 154.555 46.5324 154.386 46.3636C154.218 46.1948 153.989 46.1 153.75 46.1L126.11 46.14Z" fill="#171A1C"/>
<path d="M126.97 51.1501C128.202 51.1501 129.2 50.1517 129.2 48.9201C129.2 47.6885 128.202 46.6901 126.97 46.6901C125.738 46.6901 124.74 47.6885 124.74 48.9201C124.74 50.1517 125.738 51.1501 126.97 51.1501Z" fill="white"/>
<path d="M127 51.71C126.448 51.712 125.907 51.55 125.447 51.2447C124.987 50.9393 124.628 50.5042 124.415 49.9946C124.203 49.485 124.146 48.9237 124.252 48.3818C124.359 47.84 124.624 47.3419 125.014 46.9507C125.403 46.5595 125.901 46.2928 126.442 46.1844C126.983 46.0759 127.545 46.1306 128.055 46.3414C128.566 46.5523 129.002 46.9099 129.309 47.3689C129.616 47.8279 129.78 48.3678 129.78 48.92C129.78 49.6582 129.487 50.3663 128.966 50.8893C128.445 51.4122 127.738 51.7073 127 51.71ZM127 47.25C126.67 47.25 126.347 47.3479 126.072 47.5314C125.798 47.7149 125.584 47.9758 125.457 48.2809C125.331 48.5861 125.298 48.9218 125.362 49.2458C125.427 49.5697 125.586 49.8673 125.819 50.1009C126.053 50.3344 126.35 50.4935 126.674 50.5579C126.998 50.6223 127.334 50.5893 127.639 50.4629C127.944 50.3365 128.205 50.1224 128.389 49.8478C128.572 49.5732 128.67 49.2503 128.67 48.92C128.667 48.4779 128.491 48.0546 128.178 47.742C127.865 47.4294 127.442 47.2526 127 47.25Z" fill="#171A1C"/>
<path d="M158.43 62.48H7.22999C7.00049 62.4978 6.76979 62.468 6.55237 62.3924C6.33495 62.3168 6.13551 62.197 5.96657 62.0407C5.79762 61.8843 5.66283 61.6948 5.57064 61.4838C5.47845 61.2729 5.43086 61.0452 5.43086 60.815C5.43086 60.5848 5.47845 60.3571 5.57064 60.1462C5.66283 59.9353 5.79762 59.7457 5.96657 59.5893C6.13551 59.433 6.33495 59.3133 6.55237 59.2377C6.76979 59.1621 7.00049 59.1322 7.22999 59.15H158.43C158.66 59.1322 158.89 59.1621 159.108 59.2377C159.325 59.3133 159.524 59.433 159.693 59.5893C159.862 59.7457 159.997 59.9353 160.089 60.1462C160.182 60.3571 160.229 60.5848 160.229 60.815C160.229 61.0452 160.182 61.2729 160.089 61.4838C159.997 61.6948 159.862 61.8843 159.693 62.0407C159.524 62.197 159.325 62.3168 159.108 62.3924C158.89 62.468 158.66 62.4978 158.43 62.48Z" fill="#171A1C"/>
<path d="M165.1 76.93H1.67C1.4405 76.9478 1.2098 76.9179 0.992376 76.8423C0.774956 76.7667 0.575514 76.647 0.40657 76.4906C0.237626 76.3343 0.102829 76.1447 0.0106406 75.9338C-0.0815473 75.7229 -0.129135 75.4952 -0.129135 75.265C-0.129135 75.0348 -0.0815473 74.8071 0.0106406 74.5962C0.102829 74.3852 0.237626 74.1957 0.40657 74.0393C0.575514 73.883 0.774956 73.7632 0.992376 73.6876C1.2098 73.612 1.4405 73.5822 1.67 73.6H165.1C165.33 73.5822 165.56 73.612 165.778 73.6876C165.995 73.7632 166.194 73.883 166.363 74.0393C166.532 74.1957 166.667 74.3852 166.759 74.5962C166.852 74.8071 166.899 75.0348 166.899 75.265C166.899 75.4952 166.852 75.7229 166.759 75.9338C166.667 76.1447 166.532 76.3343 166.363 76.4906C166.194 76.647 165.995 76.7667 165.778 76.8423C165.56 76.9179 165.33 76.9478 165.1 76.93Z" fill="#171A1C"/>
<path d="M113.14 34.0701L103.84 19.6501C103.631 19.3253 103.344 19.0581 103.005 18.8729C102.666 18.6878 102.286 18.5905 101.9 18.5901H96.72C96.4158 18.5901 96.1146 18.6502 95.8337 18.7669C95.5528 18.8836 95.2977 19.0546 95.083 19.2702C94.8684 19.4858 94.6985 19.7416 94.583 20.023C94.4675 20.3044 94.4087 20.6059 94.41 20.9101V35.5001C94.4086 35.8055 94.4681 36.1081 94.585 36.3903C94.7019 36.6725 94.8738 36.9286 95.0907 37.1436C95.3075 37.3587 95.5651 37.5283 95.8483 37.6428C96.1315 37.7572 96.4346 37.8141 96.74 37.8101L111.22 37.6301C111.633 37.6261 112.037 37.5114 112.391 37.298C112.745 37.0846 113.035 36.7803 113.231 36.4167C113.427 36.0532 113.522 35.6438 113.506 35.231C113.49 34.8183 113.364 34.4174 113.14 34.0701Z" fill="#171A1C"/>
<path d="M96.72 38.37C95.9588 38.37 95.2288 38.0676 94.6906 37.5294C94.1524 36.9912 93.85 36.2612 93.85 35.5V20.91C93.8447 20.5298 93.915 20.1523 94.0569 19.7994C94.1987 19.4466 94.4093 19.1255 94.6763 18.8547C94.9434 18.5839 95.2615 18.369 95.6124 18.2222C95.9632 18.0755 96.3397 18 96.72 18H101.9C102.379 17.9989 102.851 18.1183 103.272 18.3472C103.693 18.5761 104.05 18.9072 104.31 19.31L113.61 33.73C113.887 34.1618 114.043 34.66 114.063 35.1727C114.082 35.6854 113.963 36.1939 113.719 36.6452C113.475 37.0965 113.115 37.4742 112.675 37.7388C112.236 38.0035 111.733 38.1455 111.22 38.15L96.75 38.33L96.72 38.37ZM96.72 19.15C96.2602 19.1605 95.8227 19.3505 95.5013 19.6794C95.1798 20.0084 94.9999 20.4501 95 20.91V35.5C95.0008 35.9691 95.1879 36.4187 95.52 36.75C95.8607 37.0665 96.3051 37.2478 96.77 37.26L111.25 37.08C111.564 37.0792 111.873 36.9932 112.142 36.8312C112.411 36.6692 112.632 36.4373 112.78 36.16C112.934 35.884 113.009 35.5709 112.996 35.2552C112.984 34.9394 112.885 34.6331 112.71 34.37L103.38 20C103.219 19.7543 102.999 19.5526 102.741 19.4129C102.483 19.2733 102.194 19.2001 101.9 19.2L96.72 19.15Z" fill="#171A1C"/>
<path d="M139.09 17.55L112.46 18C112.141 18.0047 111.829 18.0951 111.556 18.2618C111.284 18.4285 111.062 18.6653 110.912 18.9475C110.763 19.2298 110.692 19.5469 110.708 19.8658C110.723 20.1847 110.824 20.4936 111 20.76L120.13 35.3601C120.604 36.1175 121.263 36.7418 122.045 37.1739C122.827 37.6061 123.706 37.8319 124.6 37.8301H151.6" fill="#171A1C"/>
<path d="M151.62 38.39H124.62C123.631 38.3941 122.657 38.1443 121.792 37.6646C120.928 37.1849 120.2 36.4912 119.68 35.65L110.55 21.05C110.333 20.7007 110.212 20.3001 110.2 19.8889C110.187 19.4777 110.284 19.0706 110.48 18.709C110.676 18.3474 110.965 18.0441 111.316 17.83C111.667 17.6159 112.069 17.4986 112.48 17.49L139.11 16.99V18.1L112.48 18.6C112.273 18.6127 112.072 18.6781 111.897 18.7901C111.722 18.9021 111.578 19.057 111.48 19.24C111.37 19.4244 111.312 19.6352 111.312 19.85C111.312 20.0648 111.37 20.2756 111.48 20.46L120.61 35.06C121.032 35.7407 121.621 36.3022 122.321 36.6908C123.021 37.0794 123.809 37.2822 124.61 37.28H151.61L151.62 38.39Z" fill="#171A1C"/>
<path d="M100.62 43.58H92.83C92.5356 43.58 92.2533 43.463 92.0451 43.2549C91.8369 43.0467 91.72 42.7644 91.72 42.47C91.72 42.1756 91.8369 41.8933 92.0451 41.6851C92.2533 41.4769 92.5356 41.36 92.83 41.36H100.62C100.914 41.36 101.197 41.4769 101.405 41.6851C101.613 41.8933 101.73 42.1756 101.73 42.47C101.73 42.7644 101.613 43.0467 101.405 43.2549C101.197 43.463 100.914 43.58 100.62 43.58Z" fill="#171A1C"/>
<path d="M107.1 52.8401C112.82 52.8401 117.48 58.0301 117.76 62.4801H107.29V63.5901H96.45C96.45 63.5901 96.45 63.4701 96.45 63.2401C96.4564 61.855 96.738 60.485 97.2786 59.2097C97.8192 57.9344 98.6079 56.7794 99.5989 55.8116C100.59 54.8439 101.763 54.0829 103.051 53.5727C104.339 53.0626 105.715 52.8135 107.1 52.8401Z" fill="#171A1C"/>
<path d="M34.41 52.8401C40.13 52.8401 44.79 58.0301 45.08 62.4801H36.13V63.5901H23.76C23.76 63.5901 23.76 63.4701 23.76 63.2401C23.7664 61.855 24.048 60.485 24.5886 59.2097C25.1292 57.9344 25.9179 56.7794 26.9089 55.8116C27.8999 54.8439 29.0733 54.0829 30.3611 53.5727C31.6488 53.0626 33.0251 52.8135 34.41 52.8401Z" fill="#171A1C"/>
<path d="M32.68 74.7101C38.5839 74.7101 43.37 69.924 43.37 64.0201C43.37 58.1161 38.5839 53.3301 32.68 53.3301C26.7761 53.3301 21.99 58.1161 21.99 64.0201C21.99 69.924 26.7761 74.7101 32.68 74.7101Z" fill="#333333"/>
<path d="M32.68 75.27C30.4554 75.272 28.2801 74.6144 26.4292 73.3803C24.5783 72.1462 23.1348 70.3911 22.2812 68.3368C21.4276 66.2824 21.2022 64.0211 21.6335 61.8387C22.0648 59.6563 23.1335 57.6508 24.7045 56.0757C26.2754 54.5005 28.2781 53.4265 30.4593 52.9894C32.6406 52.5522 34.9024 52.7716 36.959 53.6197C39.0156 54.4678 40.7746 55.9066 42.0136 57.7543C43.2526 59.6019 43.916 61.7754 43.92 64C43.92 66.9838 42.7368 69.8458 40.6297 71.9585C38.5227 74.0712 35.6638 75.2621 32.68 75.27ZM32.68 53.89C30.6728 53.8881 28.7102 54.4818 27.0407 55.5962C25.3712 56.7105 24.07 58.2952 23.3019 60.1496C22.5338 62.0041 22.3333 64.0447 22.7259 66.0132C23.1184 67.9816 24.0864 69.7893 25.5071 71.2072C26.9278 72.6251 28.7373 73.5894 30.7066 73.9781C32.6758 74.3668 34.716 74.1623 36.5689 73.3905C38.4218 72.6187 40.004 71.3144 41.115 69.6427C42.226 67.971 42.8159 66.0072 42.81 64C42.8021 61.3177 41.7316 58.7477 39.833 56.8529C37.9344 54.958 35.3624 53.8927 32.68 53.89Z" fill="#171A1C"/>
<path d="M33.75 74.7101C39.6539 74.7101 44.44 69.924 44.44 64.0201C44.44 58.1161 39.6539 53.3301 33.75 53.3301C27.8461 53.3301 23.06 58.1161 23.06 64.0201C23.06 69.924 27.8461 74.7101 33.75 74.7101Z" fill="#171A1C"/>
<path d="M33.75 75.27C31.5258 75.27 29.3515 74.6107 27.5019 73.3754C25.6523 72.1402 24.2104 70.3843 23.3583 68.3298C22.5062 66.2753 22.2823 64.0143 22.7147 61.8326C23.1472 59.6509 24.2167 57.6463 25.788 56.0721C27.3593 54.498 29.362 53.425 31.543 52.9886C33.724 52.5523 35.9853 52.7722 38.0413 53.6206C40.0974 54.4691 41.8558 55.9079 43.0943 57.7553C44.3329 59.6027 44.996 61.7758 45 64C45.0013 65.4787 44.7114 66.9432 44.1467 68.3098C43.5821 69.6764 42.7538 70.9185 41.7091 71.965C40.6644 73.0115 39.4239 73.842 38.0583 74.4091C36.6926 74.9762 35.2287 75.2687 33.75 75.27ZM33.75 53.89C31.7428 53.8881 29.7802 54.4818 28.1107 55.5962C26.4412 56.7105 25.14 58.2952 24.3719 60.1496C23.6038 62.0041 23.4033 64.0447 23.7959 66.0132C24.1884 67.9816 25.1564 69.7893 26.5771 71.2072C27.9978 72.6251 29.8073 73.5894 31.7766 73.9781C33.7458 74.3668 35.786 74.1623 37.6389 73.3905C39.4918 72.6187 41.074 71.3144 42.185 69.6427C43.296 67.971 43.8859 66.0072 43.88 64C43.8721 61.3177 42.8016 58.7477 40.903 56.8529C39.0044 54.958 36.4324 53.8927 33.75 53.89Z" fill="#171A1C"/>
<path d="M30 69.6001C32.408 69.6001 34.36 67.1018 34.36 64.0201C34.36 60.9383 32.408 58.4401 30 58.4401C27.592 58.4401 25.64 60.9383 25.64 64.0201C25.64 67.1018 27.592 69.6001 30 69.6001Z" fill="white"/>
<path d="M30 70.16C27.29 70.16 25.08 67.4 25.08 64.02C25.08 60.64 27.29 57.89 30 57.89C32.71 57.89 34.92 60.64 34.92 64.02C34.92 67.4 32.72 70.16 30 70.16ZM30 59C27.9 59 26.19 61.25 26.19 64C26.19 66.75 27.9 69 30 69C32.1 69 33.81 66.75 33.81 64C33.81 61.25 32.1 59 30 59Z" fill="#171A1C"/>
<path d="M104.96 74.7101C110.864 74.7101 115.65 69.924 115.65 64.0201C115.65 58.1161 110.864 53.3301 104.96 53.3301C99.0561 53.3301 94.27 58.1161 94.27 64.0201C94.27 69.924 99.0561 74.7101 104.96 74.7101Z" fill="#171A1C"/>
<path d="M105 75.2701C102.774 75.278 100.596 74.6254 98.7411 73.395C96.8862 72.1645 95.438 70.4114 94.5798 68.3577C93.7216 66.3039 93.492 64.0416 93.9199 61.8573C94.3478 59.6729 95.4141 57.6646 96.9839 56.0865C98.5536 54.5083 100.556 53.4313 102.738 52.9917C104.92 52.5521 107.184 52.7697 109.242 53.6169C111.3 54.4642 113.061 55.903 114.302 57.7512C115.542 59.5995 116.206 61.7742 116.21 64.0001C116.213 66.9795 115.034 69.8385 112.933 71.9509C110.832 74.0633 107.979 75.2568 105 75.2701ZM105 53.8901C102.992 53.8822 101.026 54.4709 99.3526 55.5816C97.6791 56.6923 96.3733 58.2749 95.6005 60.1288C94.8278 61.9827 94.6231 64.0243 95.0122 65.9947C95.4014 67.9651 96.3669 69.7756 97.7864 71.1965C99.206 72.6174 101.015 73.5848 102.985 73.9759C104.956 74.367 106.997 74.1643 108.852 73.3934C110.707 72.6225 112.291 71.3182 113.403 69.6458C114.515 67.9735 115.106 66.0085 115.1 64.0001C115.092 61.3229 114.026 58.7575 112.134 56.8635C110.242 54.9695 107.677 53.9006 105 53.8901Z" fill="#171A1C"/>
<path d="M106.03 74.7101C111.934 74.7101 116.72 69.924 116.72 64.0201C116.72 58.1161 111.934 53.3301 106.03 53.3301C100.126 53.3301 95.34 58.1161 95.34 64.0201C95.34 69.924 100.126 74.7101 106.03 74.7101Z" fill="#171A1C"/>
<path d="M106 75.27C103.777 75.264 101.606 74.5997 99.7601 73.3608C97.9144 72.122 96.4772 70.3641 95.6297 68.309C94.7822 66.254 94.5625 63.994 94.9984 61.8142C95.4342 59.6345 96.5061 57.6327 98.0786 56.0615C99.6511 54.4904 101.654 53.4204 103.834 52.9864C106.014 52.5525 108.274 52.7742 110.328 53.6235C112.383 54.4728 114.139 55.9116 115.376 57.7584C116.614 59.6052 117.276 61.7771 117.28 64C117.281 65.4812 116.99 66.9481 116.424 68.3167C115.857 69.6853 115.026 70.9286 113.978 71.9756C112.931 73.0225 111.687 73.8523 110.317 74.4177C108.948 74.983 107.481 75.2726 106 75.27ZM106 53.89C103.995 53.8959 102.036 54.4964 100.372 55.6156C98.7074 56.7347 97.4124 58.3222 96.6505 60.1773C95.8885 62.0324 95.6937 64.0718 96.0908 66.0376C96.4879 68.0034 97.4589 69.8073 98.8812 71.2212C100.304 72.6351 102.113 73.5955 104.081 73.9809C106.049 74.3663 108.088 74.1595 109.938 73.3866C111.789 72.6136 113.368 71.3093 114.478 69.6385C115.587 67.9677 116.176 66.0055 116.17 64C116.166 62.6684 115.9 61.3506 115.387 60.1219C114.873 58.8931 114.123 57.7775 113.179 56.8387C112.234 55.8999 111.114 55.1563 109.883 54.6504C108.651 54.1444 107.332 53.886 106 53.89Z" fill="#171A1C"/>
<path d="M102.29 69.7201C104.753 69.7201 106.75 67.1681 106.75 64.0201C106.75 60.872 104.753 58.3201 102.29 58.3201C99.8268 58.3201 97.83 60.872 97.83 64.0201C97.83 67.1681 99.8268 69.7201 102.29 69.7201Z" fill="white"/>
<path d="M102.29 70.28C99.52 70.28 97.29 67.47 97.29 64.02C97.29 60.57 99.54 57.77 102.29 57.77C105.04 57.77 107.29 60.57 107.29 64.02C107.29 67.47 105.06 70.28 102.29 70.28ZM102.29 58.88C100.14 58.88 98.39 61.19 98.39 64.02C98.39 66.85 100.14 69.17 102.29 69.17C104.44 69.17 106.2 66.86 106.2 64.02C106.2 61.18 104.44 58.88 102.29 58.88Z" fill="#171A1C"/>
<path d="M153.16 46.86C153.38 46.86 153.43 46.86 153.43 46.97V50.87C153.43 50.94 153.38 50.98 153.16 50.98C152.614 50.98 152.09 50.7629 151.703 50.3766C151.317 49.9903 151.1 49.4663 151.1 48.92C151.1 48.3736 151.317 47.8497 151.703 47.4633C152.09 47.077 152.614 46.86 153.16 46.86Z" fill="white"/>
<path d="M153.16 51.5301C152.468 51.5301 151.804 51.2551 151.314 50.7656C150.825 50.2761 150.55 49.6123 150.55 48.9201C150.55 48.2278 150.825 47.564 151.314 47.0745C151.804 46.585 152.468 46.3101 153.16 46.3101C153.94 46.3101 153.98 46.8601 153.98 46.9701V50.8701C154 51.0001 153.94 51.5301 153.16 51.5301ZM152.87 47.4501C152.531 47.5189 152.226 47.7029 152.007 47.9708C151.788 48.2387 151.669 48.574 151.669 48.9201C151.669 49.2661 151.788 49.6014 152.007 49.8693C152.226 50.1372 152.531 50.3212 152.87 50.3901V47.4501Z" fill="#171A1C"/>
<path d="M96.71 61.35H96.63C96.4846 61.3277 96.3538 61.2492 96.2659 61.1313C96.178 61.0134 96.1399 60.8657 96.16 60.72C96.3286 59.6852 96.7627 58.7119 97.42 57.8951C98.0773 57.0783 98.9352 56.446 99.91 56.06C99.9809 56.0259 100.058 56.0071 100.137 56.0049C100.216 56.0026 100.294 56.017 100.367 56.0471C100.439 56.0771 100.505 56.1222 100.559 56.1793C100.613 56.2364 100.655 56.3043 100.681 56.3785C100.707 56.4528 100.717 56.5317 100.711 56.6101C100.705 56.6886 100.682 56.7648 100.644 56.8338C100.606 56.9028 100.554 56.9631 100.491 57.0107C100.429 57.0583 100.357 57.0921 100.28 57.11C99.5029 57.4348 98.8204 57.9507 98.296 58.6098C97.7715 59.2689 97.422 60.0498 97.28 60.88C97.2582 61.0142 97.1884 61.1358 97.0835 61.2223C96.9786 61.3088 96.8459 61.3542 96.71 61.35Z" fill="white"/>
<path d="M24 61.3501H23.88C23.8089 61.3347 23.7415 61.3054 23.6818 61.2638C23.6221 61.2222 23.5712 61.1691 23.5322 61.1078C23.4931 61.0464 23.4666 60.9778 23.4542 60.9061C23.4418 60.8344 23.4438 60.761 23.46 60.6901C23.7113 59.703 24.1717 58.7815 24.81 57.9879C25.4484 57.1943 26.2498 56.5471 27.16 56.0901C27.2953 56.0292 27.4492 56.0245 27.5879 56.077C27.7266 56.1295 27.8389 56.2349 27.9 56.3701C27.9299 56.4363 27.9464 56.5079 27.9485 56.5805C27.9507 56.6532 27.9383 56.7256 27.9123 56.7935C27.8863 56.8614 27.847 56.9234 27.7968 56.976C27.7467 57.0287 27.6866 57.0708 27.62 57.1001C26.8661 57.487 26.2028 58.0293 25.6736 58.6912C25.1445 59.3531 24.7615 60.1195 24.55 60.9401C24.5153 61.0588 24.4428 61.1631 24.3436 61.2371C24.2444 61.311 24.1238 61.3507 24 61.3501Z" fill="white"/>
</svg>
