<svg width="28" height="28" viewBox="0 0 28 28" fill="none" xmlns="http://www.w3.org/2000/svg">
<circle cx="14" cy="14" r="14" fill="#85BEF2"/>
<path d="M10.3964 9.02703C9.79819 9.02703 9.31532 8.54416 9.31532 7.94595C9.31532 7.22524 10.3964 6 10.3964 6C10.3964 6 11.4775 7.22524 11.4775 7.94595C11.4775 8.54416 10.9946 9.02703 10.3964 9.02703Z" fill="white"/>
<path d="M14 9.02703C13.4018 9.02703 12.9189 8.54416 12.9189 7.94595C12.9189 7.22524 14 6 14 6C14 6 15.0811 7.22524 15.0811 7.94595C15.0811 8.54416 14.5982 9.02703 14 9.02703Z" fill="white"/>
<path d="M9.01263 11.1964C9.16036 10.7711 9.56398 10.4684 10.036 10.4684L17.964 10.4684C18.436 10.4684 18.8397 10.7711 18.9874 11.1964L20.4865 15.5135L20.4865 21.2793C20.4865 21.6757 20.1622 22 19.7658 22L19.0451 22C18.6451 22 18.3244 21.6757 18.3244 21.2793L18.3244 20.5586L9.67573 20.5586L9.67573 21.2793C9.67573 21.6757 9.35141 22 8.95502 22L8.23431 22C7.83431 22 7.51361 21.6757 7.51361 21.2793L7.51361 15.5135L9.01263 11.1964ZM17.964 18.3964C18.5622 18.3964 19.0451 17.9135 19.0451 17.3153C19.0451 16.7171 18.5622 16.2342 17.964 16.2342C17.3658 16.2342 16.8829 16.7171 16.8829 17.3153C16.8829 17.9135 17.3658 18.3964 17.964 18.3964ZM10.0361 18.3964C10.6343 18.3964 11.1172 17.9135 11.1172 17.3153C11.1172 16.7171 10.6343 16.2342 10.0361 16.2342C9.43786 16.2342 8.95499 16.7171 8.95499 17.3153C8.95499 17.9135 9.43786 18.3964 10.0361 18.3964ZM19.0451 14.7928L17.964 11.5496L10.036 11.5496L8.95496 14.7928L19.0451 14.7928Z" fill="white"/>
<path d="M17.6036 9.02703C17.0054 9.02703 16.5226 8.54416 16.5226 7.94595C16.5226 7.22524 17.6036 6 17.6036 6C17.6036 6 18.6847 7.22524 18.6847 7.94595C18.6847 8.54416 18.2018 9.02703 17.6036 9.02703Z" fill="white"/>
</svg>
