<svg width="28" height="28" viewBox="0 0 28 28" fill="none" xmlns="http://www.w3.org/2000/svg">
<circle cx="14" cy="14" r="14" fill="#B28849"/>
<g clip-path="url(#clip0)">
<path d="M22.8968 11.5724C22.8087 11.465 22.6774 11.4023 22.5396 11.4023H20.7878C20.3554 10.2621 19.7922 9.14484 19.1521 8.72311C16.9375 7.26621 11.0635 7.26621 8.8489 8.72311C8.20826 9.1453 7.64736 10.2639 7.21274 11.4023H5.46091C5.32172 11.4023 5.19083 11.465 5.10372 11.5724C5.01615 11.6793 4.98112 11.8208 5.0097 11.9568L5.26918 13.2141C5.31342 13.4284 5.50239 13.5815 5.72039 13.5815H6.23935C5.73836 14.1594 5.49547 14.8872 5.49225 15.6154C5.48902 16.5151 5.83054 17.3281 6.45504 17.9033C6.46196 17.9093 6.46887 17.9135 6.47532 17.9195V19.6787C6.47532 20.0599 6.78504 20.3701 7.16665 20.3701H8.78253C9.16414 20.3701 9.47386 20.0599 9.47386 19.6787V18.9717H18.5262V19.6787C18.5262 20.0599 18.8359 20.3701 19.2175 20.3701H20.8334C21.2141 20.3701 21.5247 20.0599 21.5247 19.6787V17.954C22.1875 17.347 22.5041 16.5119 22.5082 15.6781C22.511 14.925 22.2571 14.1705 21.7266 13.5805H22.2801C22.499 13.5805 22.688 13.4275 22.7313 13.2127L22.9913 11.9559C23.018 11.8208 22.9843 11.6802 22.8968 11.5724ZM9.60798 9.87767C11.3732 8.71574 16.6269 8.71574 18.3911 9.87767C18.734 10.1026 19.1751 11.0119 19.5793 12.1255H8.42073C8.82401 11.0124 9.26508 10.1035 9.60798 9.87767ZM7.54044 15.7887C7.54044 15.0374 8.14973 14.4291 8.90052 14.4291C9.65223 14.4291 10.2606 15.0374 10.2606 15.7887C10.2606 16.54 9.65223 17.1488 8.90052 17.1488C8.14973 17.1488 7.54044 16.54 7.54044 15.7887ZM19.1175 17.1488C18.3667 17.1488 17.7574 16.54 17.7574 15.7887C17.7574 15.0374 18.3667 14.4291 19.1175 14.4291C19.8692 14.4291 20.4776 15.0374 20.4776 15.7887C20.4776 16.54 19.8683 17.1488 19.1175 17.1488Z" fill="white"/>
</g>
<defs>
<clipPath id="clip0">
<rect width="18" height="18" fill="white" transform="translate(5 5)"/>
</clipPath>
</defs>
</svg>
