<svg width="28" height="28" viewBox="0 0 28 28" fill="none" xmlns="http://www.w3.org/2000/svg">
<circle cx="14" cy="14" r="14" fill="#68CC4F"/>
<path d="M20.0842 21H13.572L12.7197 11.5938H11.6562V10.6562H22V11.5938H20.9366L20.0842 21Z" fill="white"/>
<path d="M9.93321 12.5312H11.8637L12.2046 16.2812H5.99999V15.3438C5.99999 13.5827 7.49015 12.5312 9.93321 12.5312Z" fill="white"/>
<path d="M6.93749 17.6875C6.93749 17.4286 7.14737 17.2188 7.40624 17.2188H12.2898L12.375 18.1562H7.40624C7.14737 18.1562 6.93749 17.9464 6.93749 17.6875Z" fill="white"/>
<path d="M12.6308 21H7.40627C6.62961 21 6.00002 20.3392 6.00002 19.5625V19.0938H12.4603L12.6308 21Z" fill="white"/>
<path d="M13.7103 7.84375H16.1623L15.5372 5.9375H12.5938V5H16.2129L17.1502 7.84375H19.946L20.8834 9.71875H12.7729L13.7103 7.84375Z" fill="white"/>
</svg>
