<svg width="28" height="28" viewBox="0 0 28 28" fill="none" xmlns="http://www.w3.org/2000/svg">
<circle cx="14" cy="14" r="14" fill="#E62632"/>
<path d="M20.8489 10.29L20.8606 10.2783L17.9633 7.3889L17.1389 8.21333L18.78 9.85443C18.0489 10.1344 17.5278 10.8383 17.5278 11.6667C17.5278 12.74 18.3989 13.6111 19.4722 13.6111C19.7483 13.6111 20.0128 13.5528 20.25 13.4478V19.0555C20.25 19.4833 19.9 19.8333 19.4722 19.8333C19.0445 19.8333 18.6945 19.4833 18.6945 19.0556V15.5556C18.6945 14.6961 17.9984 14 17.1389 14H16.3611V8.55557C16.3611 7.6961 15.665 7 14.8056 7H10.1389C9.27944 7 8.58334 7.6961 8.58334 8.55557V21H16.3611V15.1667H17.5278V19.0556C17.5278 20.1289 18.3989 21 19.4722 21C20.5455 21 21.4166 20.1289 21.4166 19.0556V11.6667C21.4167 11.13 21.1989 10.6439 20.8489 10.29ZM14.8056 12.4444H10.1389V8.55557H14.8056V12.4444ZM19.4722 12.4444C19.0445 12.4444 18.6945 12.0944 18.6945 11.6667C18.6945 11.2389 19.0445 10.8889 19.4722 10.8889C19.9 10.8889 20.25 11.2389 20.25 11.6667C20.25 12.0944 19.9 12.4444 19.4722 12.4444Z" fill="white"/>
</svg>
