<svg width="88" height="84" viewBox="0 0 88 84" fill="none" xmlns="http://www.w3.org/2000/svg">
<path d="M14.23 41.42L33.08 72.76C33.1959 72.9494 33.3531 73.1101 33.54 73.23L47.36 81.69C47.5826 81.8296 47.8405 81.9028 48.1033 81.9009C48.3661 81.899 48.6228 81.8221 48.8434 81.6792C49.064 81.5364 49.2392 81.3335 49.3484 81.0945C49.4576 80.8555 49.4963 80.5902 49.46 80.33L47.19 63C47.166 62.8038 47.0976 62.6157 46.99 62.45L29.08 33.45C28.9818 33.2938 28.9161 33.1195 28.8868 32.9373C28.8576 32.7552 28.8655 32.569 28.91 32.39L31.21 22.8C31.2563 22.6074 31.2615 22.4073 31.2254 22.2126C31.1892 22.0179 31.1124 21.833 31 21.67L27.94 17.2C27.7389 16.9093 27.4347 16.7062 27.0891 16.6319C26.7436 16.5576 26.3828 16.6177 26.08 16.8L2.17999 31.1C1.86526 31.2891 1.63814 31.595 1.5482 31.951C1.45827 32.307 1.51284 32.6841 1.69999 33L4.08999 37C4.25662 37.2683 4.50574 37.4753 4.79999 37.59L13.53 40.83C13.8233 40.942 14.07 41.1499 14.23 41.42Z" fill="#FF8338" stroke="#171A1C" stroke-width="3" stroke-miterlimit="10"/>
<path d="M31.3 24.04L23.39 52.1" stroke="#171A1C" stroke-width="3" stroke-miterlimit="10" stroke-linecap="round"/>
<path d="M20.14 35.52L17.49 44.92" stroke="#171A1C" stroke-width="3" stroke-miterlimit="10" stroke-linecap="round"/>
<path d="M44.48 58.6602L41.83 68.0602" stroke="#171A1C" stroke-width="3" stroke-miterlimit="10" stroke-linecap="round"/>
<path d="M33.37 43.1602L27.89 62.5902" stroke="#171A1C" stroke-width="3" stroke-miterlimit="10" stroke-linecap="round"/>
<path d="M38.86 50.53L33.37 69.97" stroke="#171A1C" stroke-width="3" stroke-miterlimit="10" stroke-linecap="round"/>
<path d="M64.13 13.5901L50.54 38.1001C50.4545 38.2497 50.4065 38.4179 50.4 38.5901L50.07 51.0001C50.0657 51.2005 50.1179 51.3981 50.2204 51.5703C50.323 51.7425 50.4719 51.8824 50.6501 51.9742C50.8284 52.0659 51.0288 52.1057 51.2285 52.0891C51.4283 52.0724 51.6194 52 51.78 51.8801L62.45 43.7101C62.5699 43.6189 62.6688 43.5029 62.74 43.3701L75.12 20.3701C75.1849 20.2457 75.2741 20.1356 75.3823 20.0463C75.4905 19.957 75.6156 19.8903 75.75 19.8501L83 17.7201C83.1435 17.679 83.2766 17.6078 83.3904 17.5112C83.5042 17.4147 83.5961 17.295 83.66 17.1601L85.45 13.4201C85.5768 13.1718 85.6007 12.8835 85.5165 12.6177C85.4322 12.3519 85.2467 12.13 85 12.0001L66.36 1.63008C66.1119 1.49418 65.82 1.46208 65.5483 1.54078C65.2766 1.61949 65.0471 1.80261 64.91 2.05008L63.18 5.17008C63.0581 5.37809 63.0155 5.62313 63.06 5.86008L64.24 12.8601C64.2885 13.1088 64.2497 13.3667 64.13 13.5901Z" fill="#FFA670" stroke="#171A1C" stroke-width="3" stroke-miterlimit="10"/>
<path d="M82.2 18.27L60.54 23.76" stroke="#171A1C" stroke-width="3" stroke-miterlimit="10" stroke-linecap="round"/>
<path d="M70.31 15.26L63.05 17.09" stroke="#171A1C" stroke-width="3" stroke-miterlimit="10" stroke-linecap="round"/>
<path d="M64.26 40.28L57.01 42.11" stroke="#171A1C" stroke-width="3" stroke-miterlimit="10" stroke-linecap="round"/>
<path d="M70.3 26.96L55.3 30.76" stroke="#171A1C" stroke-width="3" stroke-miterlimit="10" stroke-linecap="round"/>
<path d="M67.5 33.4302L52.5 37.2302" stroke="#171A1C" stroke-width="3" stroke-miterlimit="10" stroke-linecap="round"/>
</svg>
