<svg width="83" height="75" viewBox="0 0 83 75" fill="none" xmlns="http://www.w3.org/2000/svg">
<path d="M17.52 68.1499V69.7899C17.52 70.5431 17.8192 71.2655 18.3518 71.7981C18.8844 72.3307 19.6068 72.6299 20.36 72.6299H22.45C23.2015 72.6273 23.9213 72.3269 24.4517 71.7946C24.9822 71.2622 25.28 70.5414 25.28 69.7899V68.1499H17.52Z" fill="#FF8338" stroke="#171A1C" stroke-width="3" stroke-miterlimit="10"/>
<path d="M57.52 68.1499V69.7899C57.52 70.5431 57.8192 71.2655 58.3518 71.7981C58.8844 72.3307 59.6068 72.6299 60.36 72.6299H62.45C63.2015 72.6273 63.9213 72.3269 64.4517 71.7946C64.9822 71.2622 65.28 70.5414 65.28 69.7899V68.1499H57.52Z" fill="#FF8338" stroke="#171A1C" stroke-width="3" stroke-miterlimit="10"/>
<path d="M60.46 1.5H22.11C16.6369 1.5 12.2 5.93686 12.2 11.41V43.24C12.2 48.7131 16.6369 53.15 22.11 53.15H60.46C65.9331 53.15 70.37 48.7131 70.37 43.24V11.41C70.37 5.93686 65.9331 1.5 60.46 1.5Z" fill="#FF8338" stroke="#171A1C" stroke-width="3" stroke-miterlimit="10"/>
<path d="M16.58 39.2499C16.58 39.2499 25.73 35.6299 41.22 35.6299C56.71 35.6299 66.33 40.2499 66.33 40.2499L68.8 51.2499L44.48 58.4199L14.48 51.7699L16.58 39.2499Z" fill="#FFA670" stroke="#171A1C" stroke-width="3" stroke-miterlimit="10"/>
<path d="M9.14 43.91C9.77067 45.5678 10.0499 47.3385 9.96 49.11V65.11C9.96524 65.9146 10.2872 66.6848 10.8562 67.2538C11.4252 67.8228 12.1954 68.1447 13 68.15H70.4C71.2116 68.15 71.9899 67.8276 72.5637 67.2537C73.1376 66.6799 73.46 65.9015 73.46 65.09V48.2C73.46 48.2 73.2 44.31 74.54 43C76.18 41.36 81.31 38.06 81.31 32.32C81.31 28.47 77.1 25.76 72.97 25.76C71.3579 25.7956 69.8057 26.3782 68.5683 27.4121C67.3309 28.446 66.4817 29.8699 66.16 31.45C65.7 33.7541 65.4855 36.1006 65.52 38.45V47.64C65.52 48.5957 65.141 49.5124 64.4662 50.1891C63.7913 50.8658 62.8757 51.2473 61.92 51.25H21.26C20.3026 51.25 19.3844 50.8696 18.7073 50.1926C18.0303 49.5156 17.65 48.5974 17.65 47.64V38.4C17.65 38.4 19.22 25.72 9.05 25.72C-1.12 25.72 0.240001 38.12 5.79 40.5C6.54803 40.8155 7.23507 41.2799 7.81048 41.8656C8.38589 42.4513 8.83798 43.1465 9.14 43.91Z" fill="#FF8338" stroke="#171A1C" stroke-width="3" stroke-miterlimit="10"/>
<path d="M28.46 14.5V20.11" stroke="#171A1C" stroke-width="3" stroke-miterlimit="10" stroke-linecap="round"/>
<path d="M31.26 17.3101H25.65" stroke="#171A1C" stroke-width="3" stroke-miterlimit="10" stroke-linecap="round"/>
<path d="M54.46 14.5V20.11" stroke="#171A1C" stroke-width="3" stroke-miterlimit="10" stroke-linecap="round"/>
<path d="M57.26 17.3101H51.65" stroke="#171A1C" stroke-width="3" stroke-miterlimit="10" stroke-linecap="round"/>
</svg>
