<svg width="87" height="87" viewBox="0 0 87 87" fill="none" xmlns="http://www.w3.org/2000/svg">
<path d="M74.31 62.8299C73.0844 62.8313 71.8676 63.0375 70.71 63.4399L41.19 33.9199L34.88 40.8199L64 69.9299C63.1572 72.1319 63.0408 74.5458 63.6678 76.8187C64.2949 79.0915 65.6325 81.1043 67.4852 82.5626C69.3378 84.021 71.6084 84.8485 73.965 84.9242C76.3215 85 78.6405 84.3199 80.583 82.9835C82.5255 81.6471 83.9896 79.7244 84.7613 77.4965C85.533 75.2686 85.5718 72.8522 84.8721 70.6007C84.1724 68.3491 82.7708 66.3804 80.8723 64.9823C78.9738 63.5841 76.6778 62.83 74.32 62.8299H74.31ZM74.31 77.2099C73.651 77.2119 73.0062 77.0183 72.4572 76.6536C71.9083 76.2889 71.4799 75.7695 71.2264 75.1612C70.9728 74.5529 70.9054 73.883 71.0328 73.2364C71.1601 72.5898 71.4765 71.9955 71.9418 71.5288C72.4071 71.0621 73.0004 70.744 73.6467 70.6147C74.2929 70.4854 74.963 70.5507 75.572 70.8025C76.1811 71.0542 76.7017 71.481 77.0681 72.0288C77.4344 72.5767 77.63 73.2209 77.63 73.8799C77.63 74.7614 77.2805 75.6069 76.6582 76.2311C76.0359 76.8553 75.1914 77.2073 74.31 77.2099Z" fill="#FFA670" stroke="#171A1C" stroke-width="3" stroke-miterlimit="10"/>
<path d="M49.69 31.51L50.69 32.24C51.1708 32.6867 51.8059 32.9299 52.4621 32.9187C53.1183 32.9075 53.7447 32.6428 54.21 32.18L57.21 29.18C57.6857 28.7037 57.9529 28.0581 57.9529 27.385C57.9529 26.7118 57.6857 26.0662 57.21 25.59L33.81 2.23997C33.3337 1.76427 32.6881 1.49707 32.015 1.49707C31.3419 1.49707 30.6963 1.76427 30.22 2.23997L2.22 30.24C1.7443 30.7162 1.4771 31.3618 1.4771 32.035C1.4771 32.7081 1.7443 33.3537 2.22 33.83L25.79 57.35C26.025 57.5852 26.304 57.7718 26.6111 57.8991C26.9183 58.0265 27.2475 58.092 27.58 58.092C27.9125 58.092 28.2417 58.0265 28.5489 57.8991C28.856 57.7718 29.135 57.5852 29.37 57.35L33.22 53.5C33.4552 53.265 33.6419 52.986 33.7692 52.6788C33.8965 52.3717 33.962 52.0425 33.962 51.71C33.962 51.3775 33.8965 51.0483 33.7692 50.7411C33.6419 50.434 33.4552 50.1549 33.22 49.92L32.05 48.74C31.8148 48.505 31.6281 48.226 31.5008 47.9188C31.3735 47.6117 31.308 47.2825 31.308 46.95C31.308 46.6175 31.3735 46.2883 31.5008 45.9811C31.6281 45.674 31.8148 45.3949 32.05 45.16L45.69 31.51C46.2219 30.9824 46.9408 30.6863 47.69 30.6863C48.4392 30.6863 49.1581 30.9824 49.69 31.51Z" fill="#FF8338" stroke="#171A1C" stroke-width="3" stroke-miterlimit="10"/>
<path d="M5.8 36.97L37.23 5.54004" stroke="#171A1C" stroke-width="3" stroke-miterlimit="10"/>
<path d="M29.94 33.03C32.0939 33.03 33.84 31.2839 33.84 29.13C33.84 26.9761 32.0939 25.23 29.94 25.23C27.7861 25.23 26.04 26.9761 26.04 29.13C26.04 31.2839 27.7861 33.03 29.94 33.03Z" fill="#FFA670" stroke="#171A1C" stroke-width="3" stroke-miterlimit="10"/>
</svg>
