<svg width="91" height="57" viewBox="0 0 91 57" fill="none" xmlns="http://www.w3.org/2000/svg">
<path d="M1.5 14.21C1.49121 14.1224 1.50148 14.0339 1.53011 13.9507C1.55874 13.8674 1.60505 13.7914 1.66585 13.7277C1.72666 13.6641 1.80052 13.6143 1.88236 13.5819C1.96421 13.5495 2.0521 13.5352 2.14 13.54C4.31 13.65 11.03 14.3 14.65 17.91C19 22.27 17.38 29.78 17.38 29.78C17.38 29.78 10.19 29.41 6 25.25C2.64 21.86 1.73 16.19 1.5 14.21Z" fill="#FF8338" stroke="#171A1C" stroke-width="3" stroke-miterlimit="10"/>
<path d="M1.5 45.1598C1.49121 45.2474 1.50148 45.3359 1.53011 45.4191C1.55874 45.5024 1.60505 45.5784 1.66585 45.6421C1.72666 45.7057 1.80052 45.7555 1.88236 45.7879C1.96421 45.8203 2.0521 45.8346 2.14 45.8298C4.31 45.7198 11.03 45.0698 14.65 41.4598C19 37.0998 17.38 29.5898 17.38 29.5898C17.38 29.5898 10.19 29.9998 6 34.1198C2.64 37.5098 1.73 43.1798 1.5 45.1598Z" fill="#FF8338" stroke="#171A1C" stroke-width="3" stroke-miterlimit="10"/>
<path d="M37.06 14.9999V4.8899C37.0677 4.34248 37.2059 3.80481 37.4632 3.32157C37.7205 2.83833 38.0895 2.42348 38.5393 2.1115C38.9892 1.79952 39.5071 1.59942 40.0498 1.52783C40.5926 1.45624 41.1446 1.51523 41.66 1.6999C47.39 3.6999 56.66 7.69989 58.29 12.4799C60.7 19.5299 45.55 18.8099 45.55 18.8099L37.06 14.9999Z" fill="#FF8338" stroke="#171A1C" stroke-width="3" stroke-miterlimit="10"/>
<path d="M34.11 40.22V51.52C34.11 51.52 34.19 60.4 48.36 48.62C62.53 36.84 52.36 44.72 52.36 44.72L34.11 40.22Z" fill="#FF8338" stroke="#171A1C" stroke-width="3" stroke-miterlimit="10"/>
<path d="M17.38 29.78C17.38 29.78 32.65 10 52 10C71.35 10 88.73 25.48 88.73 29.13C88.73 32.78 74.65 49.22 54.56 49.22C34.47 49.22 17.38 29.78 17.38 29.78Z" fill="#FF8338" stroke="#171A1C" stroke-width="3" stroke-miterlimit="10"/>
<path d="M60 29.78C60 22.46 63.48 17 67.7 13.13C62.7054 11.1244 57.3819 10.0631 52 10C32.7 10 17.43 29.82 17.43 29.82C17.43 29.82 34.47 49.22 54.56 49.22C59.1538 49.2012 63.7066 48.3543 68 46.72C65.4961 44.6643 63.4797 42.0785 62.0962 39.1491C60.7128 36.2196 59.9968 33.0197 60 29.78Z" fill="#FFA670" stroke="#171A1C" stroke-width="3" stroke-miterlimit="10"/>
<path d="M75.51 28.6499V30.0099" stroke="#171A1C" stroke-width="3" stroke-miterlimit="10" stroke-linecap="round"/>
<path d="M51.79 21.73C51.79 21.73 49.3 28.73 50.67 33.91C51.3495 36.8024 52.7222 39.4862 54.67 41.73" stroke="#171A1C" stroke-width="3" stroke-miterlimit="10" stroke-linecap="round"/>
</svg>
