<svg width="92" height="72" viewBox="0 0 92 72" fill="none" xmlns="http://www.w3.org/2000/svg">
<path d="M43.35 58.7299L32.17 47.5499C28.031 43.4092 25.35 38.0354 24.5311 32.2383C23.7122 26.4412 24.7998 20.535 27.63 15.4099C28.83 13.2599 22.04 9.1899 26.7 3.9399C31.24 -0.340096 36.18 5.9399 38.44 4.7299C48.65 -0.780096 62.18 0.839904 71.38 8.9999L82.19 19.9999C90.71 28.5199 91.7 41.9399 86.38 52.0599C84.44 55.7499 92.47 59.4999 86.96 65.2999C81.23 70.0899 79.25 62.2999 76.2 63.6699C64.15 68.9199 52.12 67.5099 43.35 58.7299Z" fill="#FF8338" stroke="#171A1C" stroke-width="3" stroke-miterlimit="10"/>
<path d="M35.09 69.61C43.8431 69.6106 52.2507 66.1943 58.5227 60.0886C64.7946 53.9828 68.4355 45.67 68.67 36.92C68.6713 36.8023 68.6493 36.6855 68.6051 36.5764C68.561 36.4672 68.4957 36.3679 68.4129 36.2842C68.3301 36.2005 68.2315 36.1341 68.1229 36.0887C68.0143 36.0434 67.8977 36.02 67.78 36.02H2.39C2.27227 36.02 2.15572 36.0434 2.04708 36.0887C1.93844 36.1341 1.83988 36.2005 1.75711 36.2842C1.67433 36.3679 1.60898 36.4672 1.56485 36.5764C1.52072 36.6855 1.49867 36.8023 1.5 36.92C1.73457 45.6717 5.3768 53.986 11.6509 60.092C17.925 66.198 26.3351 69.6132 35.09 69.61Z" fill="#FF8338" stroke="#171A1C" stroke-width="3" stroke-miterlimit="10"/>
<path d="M35.09 61C49.23 61 60.69 49.81 60.69 36H9.47998C9.47998 49.81 20.94 61 35.09 61Z" fill="#FFA670" stroke="#171A1C" stroke-width="3" stroke-miterlimit="10"/>
<path d="M17.51 53.1L35.5 36.02" stroke="#171A1C" stroke-width="3" stroke-miterlimit="10"/>
<path d="M35.09 60.9998L34.97 35.2898" stroke="#171A1C" stroke-width="3" stroke-miterlimit="10"/>
<path d="M51.7 55.43L34.97 36.02" stroke="#171A1C" stroke-width="3" stroke-miterlimit="10"/>
</svg>
