<svg width="82" height="76" viewBox="0 0 82 76" fill="none" xmlns="http://www.w3.org/2000/svg">
<path d="M43 73.7001C43.767 73.7013 44.5054 73.4087 45.0634 72.8823C45.6214 72.356 45.9565 71.6359 46 70.8701C46.2865 64.4273 47.5475 58.0651 49.74 52.0001C53.65 42.0001 55.12 39.8501 55.12 39.8501C55.12 39.8501 65.12 40.1601 68.12 44.4701C71.12 48.7801 70.48 53.0001 70.48 55.7001C70.48 59.0601 66.54 63.5401 61.78 60.0301C61.6955 59.9683 61.5997 59.924 61.4979 59.8996C61.3962 59.8752 61.2906 59.8713 61.1874 59.8881C61.0841 59.9048 60.9852 59.9419 60.8964 59.9972C60.8076 60.0525 60.7306 60.1248 60.67 60.2101C58.82 62.7301 57.93 64.1601 57.04 65.3201C56.8882 65.5364 56.8282 65.8041 56.8732 66.0646C56.9181 66.3251 57.0644 66.5571 57.28 66.7101C59.8638 68.6896 63.0251 69.7679 66.28 69.7801C73.84 69.7801 79.83 63.2601 79.83 50.1601V24.3901C79.83 24.3901 78.77 15.1301 70.83 10.0101C62 4.28008 55.7 6.20008 55.7 6.20008C55.7 6.20008 53.36 1.40008 43.7 1.50008C34.04 1.60008 31.25 7.27008 31.25 7.27008C31.25 7.27008 19.25 3.65008 7.56999 17.3501C-4.11001 31.0501 3.85999 47.4801 8.05999 55.4001C11.17 61.2501 11.61 68.4001 11.63 71.7801C11.63 72.0331 11.68 72.2835 11.7771 72.5171C11.8742 72.7507 12.0165 72.9628 12.1959 73.1413C12.3752 73.3197 12.5881 73.4609 12.8222 73.5568C13.0563 73.6527 13.307 73.7014 13.56 73.7001H19.33C19.8445 73.7001 20.338 73.4957 20.7018 73.1319C21.0656 72.768 21.27 72.2746 21.27 71.7601V62.9101C21.27 62.5525 21.3407 62.1985 21.4782 61.8684C21.6156 61.5383 21.817 61.2386 22.0708 60.9867C22.3246 60.7348 22.6257 60.5356 22.9568 60.4006C23.2879 60.2656 23.6424 60.1974 24 60.2001H32.56C32.9167 60.1988 33.2702 60.2679 33.6001 60.4035C33.9301 60.5391 34.23 60.7385 34.4827 60.9903C34.7354 61.2421 34.9359 61.5412 35.0728 61.8707C35.2096 62.2001 35.28 62.5534 35.28 62.9101V70.7001C35.28 71.4957 35.5961 72.2588 36.1587 72.8214C36.7213 73.384 37.4843 73.7001 38.28 73.7001H43Z" fill="#FF8338" stroke="#171A1C" stroke-width="3" stroke-miterlimit="10" stroke-linecap="round"/>
<path d="M22.23 60.84C22.23 60.84 31.64 57.84 31.57 49.99L22.23 60.84Z" fill="#FF8338"/>
<path d="M22.23 60.84C22.23 60.84 31.64 57.84 31.57 49.99" stroke="#171A1C" stroke-width="3" stroke-miterlimit="10" stroke-linecap="round"/>
<path d="M31.25 7.27002C31.25 7.27002 26.9 14.35 28.68 22C30.8 31.16 33.6 32.46 39.78 38.07C40.1394 38.4994 40.6459 38.7793 41.2007 38.8552C41.7555 38.931 42.3186 38.7972 42.78 38.48C47.62 34.91 52.28 28.54 50.96 20.87" fill="#FF8338"/>
<path d="M31.25 7.27002C31.25 7.27002 26.9 14.35 28.68 22C30.8 31.16 33.6 32.46 39.78 38.07C40.1394 38.4994 40.6459 38.7793 41.2007 38.8552C41.7555 38.931 42.3186 38.7972 42.78 38.48C47.62 34.91 52.28 28.54 50.96 20.87" stroke="#171A1C" stroke-width="3" stroke-miterlimit="10" stroke-linecap="round"/>
<path d="M66.38 20.8101V21.1701" stroke="#171A1C" stroke-width="3" stroke-miterlimit="10" stroke-linecap="round"/>
</svg>
