<svg width="75" height="89" viewBox="0 0 75 89" fill="none" xmlns="http://www.w3.org/2000/svg">
<path d="M12.37 16.3601V21.7701C12.3688 22.9884 11.9526 24.17 11.19 25.1201L2.69 35.7901C1.92018 36.7485 1.50039 37.9408 1.5 39.1701V68.5001C1.5 71.1284 2.54409 73.6491 4.40257 75.5075C6.26106 77.366 8.7817 78.4101 11.41 78.4101H43.33C45.9566 78.4075 48.4746 77.3622 50.331 75.504C52.1873 73.6458 53.23 71.1267 53.23 68.5001V40.5001C53.2182 39.263 52.7842 38.067 52 37.1101L43.29 26.2701C42.3308 25.0806 41.8084 23.5982 41.81 22.0701V16.3601H12.37Z" fill="#FFA670" stroke="#171A1C" stroke-width="3" stroke-miterlimit="10"/>
<path d="M42.02 1.5H11.88C9.32292 1.5 7.25 3.57292 7.25 6.13V11.59C7.25 14.1471 9.32292 16.22 11.88 16.22H42.02C44.5771 16.22 46.65 14.1471 46.65 11.59V6.13C46.65 3.57292 44.5771 1.5 42.02 1.5Z" fill="#FF8338" stroke="#171A1C" stroke-width="3" stroke-miterlimit="10"/>
<path d="M53.23 40.78H1.5V67.2H53.23V40.78Z" fill="#FF8338" stroke="#171A1C" stroke-width="3" stroke-miterlimit="10"/>
<path d="M26.95 49.1599V58.8599" stroke="#171A1C" stroke-width="3" stroke-miterlimit="10" stroke-linecap="round"/>
<path d="M31.8 54.01H22.1" stroke="#171A1C" stroke-width="3" stroke-miterlimit="10" stroke-linecap="round"/>
<path d="M69.9709 54.8486L69.0729 53.9505C64.5662 49.4439 57.2595 49.4439 52.7528 53.9505L40.6896 66.0138C36.1829 70.5204 36.1829 77.8272 40.6896 82.3338L41.5876 83.2318C46.0943 87.7385 53.401 87.7385 57.9076 83.2318L69.9709 71.1686C74.4775 66.6619 74.4775 59.3552 69.9709 54.8486Z" fill="#FF8338" stroke="#171A1C" stroke-width="3" stroke-miterlimit="10"/>
<path d="M63.63 77.5101L69.52 71.6201C70.6514 70.4898 71.549 69.1476 72.1614 67.6703C72.7738 66.1929 73.089 64.6093 73.089 63.0101C73.089 61.4108 72.7738 59.8272 72.1614 58.3499C71.549 56.8725 70.6514 55.5303 69.52 54.4001C68.3897 53.2686 67.0476 52.3711 65.5702 51.7587C64.0928 51.1463 62.5093 50.8311 60.91 50.8311C59.3107 50.8311 57.7272 51.1463 56.2498 51.7587C54.7724 52.3711 53.4303 53.2686 52.3 54.4001L46.41 60.2901L63.63 77.5101Z" fill="#FFA670" stroke="#171A1C" stroke-width="3" stroke-miterlimit="10" stroke-linecap="round"/>
</svg>
