<svg width="78" height="76" viewBox="0 0 78 76" fill="none" xmlns="http://www.w3.org/2000/svg">
<path d="M66 8.64V1.91C66 1.80126 65.9568 1.69698 65.8799 1.62009C65.803 1.5432 65.6987 1.5 65.59 1.5H9C8.89126 1.5 8.78697 1.5432 8.71008 1.62009C8.63319 1.69698 8.59 1.80126 8.59 1.91V8.64C8.59 8.74874 8.63319 8.85302 8.71008 8.92991C8.78697 9.0068 8.89126 9.05 9 9.05H17.57C17.6814 9.05 17.7882 9.09425 17.867 9.17302C17.9457 9.25178 17.99 9.35861 17.99 9.47V30.2C17.9874 30.3096 17.942 30.4139 17.8635 30.4905C17.785 30.5672 17.6797 30.61 17.57 30.61H9C8.89126 30.61 8.78697 30.6532 8.71008 30.7301C8.63319 30.807 8.59 30.9113 8.59 31.02V37.75C8.59 37.8587 8.63319 37.963 8.71008 38.0399C8.78697 38.1168 8.89126 38.16 9 38.16H65.59C65.6987 38.16 65.803 38.1168 65.8799 38.0399C65.9568 37.963 66 37.8587 66 37.75V31C66 30.8913 65.9568 30.787 65.8799 30.7101C65.803 30.6332 65.6987 30.59 65.59 30.59H57C56.8913 30.59 56.787 30.5468 56.7101 30.4699C56.6332 30.393 56.59 30.2887 56.59 30.18V9.47C56.5887 9.41532 56.5983 9.36093 56.6183 9.31003C56.6383 9.25912 56.6683 9.21274 56.7065 9.1736C56.7447 9.13446 56.7903 9.10336 56.8408 9.08214C56.8912 9.06091 56.9453 9.04998 57 9.05H65.57C65.6255 9.05271 65.681 9.04411 65.733 9.02472C65.7851 9.00534 65.8327 8.97557 65.8729 8.93722C65.9131 8.89888 65.9451 8.85276 65.967 8.80166C65.9888 8.75057 66.0001 8.69557 66 8.64Z" fill="#FFA670" stroke="#171A1C" stroke-width="3" stroke-miterlimit="10"/>
<path d="M71.28 8.64V1.91C71.28 1.80126 71.2368 1.69698 71.1599 1.62009C71.083 1.5432 70.9787 1.5 70.87 1.5H45.35C45.2413 1.5 45.137 1.5432 45.0601 1.62009C44.9832 1.69698 44.94 1.80126 44.94 1.91V8.64C44.94 8.74874 44.9832 8.85302 45.0601 8.92991C45.137 9.0068 45.2413 9.05 45.35 9.05H53.92C53.9747 9.04998 54.0288 9.06091 54.0793 9.08214C54.1297 9.10336 54.1753 9.13446 54.2135 9.1736C54.2517 9.21274 54.2817 9.25912 54.3017 9.31003C54.3217 9.36093 54.3313 9.41532 54.33 9.47V30.2C54.33 30.3087 54.2868 30.413 54.2099 30.4899C54.133 30.5668 54.0287 30.61 53.92 30.61H45.35C45.2413 30.61 45.137 30.6532 45.0601 30.7301C44.9832 30.807 44.94 30.9113 44.94 31.02V37.75C44.94 37.8587 44.9832 37.963 45.0601 38.0399C45.137 38.1168 45.2413 38.16 45.35 38.16H70.87C70.9787 38.16 71.083 38.1168 71.1599 38.0399C71.2368 37.963 71.28 37.8587 71.28 37.75V31C71.28 30.8913 71.2368 30.787 71.1599 30.7101C71.083 30.6332 70.9787 30.59 70.87 30.59H62.3C62.1913 30.59 62.087 30.5468 62.0101 30.4699C61.9332 30.393 61.89 30.2887 61.89 30.18V9.47C61.8887 9.41532 61.8983 9.36093 61.9183 9.31003C61.9383 9.25912 61.9683 9.21274 62.0065 9.1736C62.0447 9.13446 62.0904 9.10336 62.1408 9.08214C62.1912 9.06091 62.2453 9.04998 62.3 9.05H70.87C70.9787 9.05 71.083 9.0068 71.1599 8.92991C71.2368 8.85302 71.28 8.74874 71.28 8.64Z" fill="#FF8338" stroke="#171A1C" stroke-width="3" stroke-miterlimit="10"/>
<path d="M75 44.6301V37.9001C75 37.8454 74.9891 37.7913 74.9679 37.7409C74.9466 37.6905 74.9155 37.6448 74.8764 37.6066C74.8373 37.5684 74.7909 37.5384 74.74 37.5184C74.6891 37.4984 74.6347 37.4888 74.58 37.4901H1.91C1.80126 37.4901 1.69698 37.5333 1.62009 37.6102C1.5432 37.6871 1.5 37.7914 1.5 37.9001V44.6301C1.5 44.7389 1.5432 44.8431 1.62009 44.92C1.69698 44.9969 1.80126 45.0401 1.91 45.0401H10.48C10.5352 45.0401 10.5898 45.051 10.6407 45.0721C10.6917 45.0932 10.738 45.1241 10.777 45.1631C10.816 45.2021 10.8469 45.2484 10.868 45.2994C10.8891 45.3503 10.9 45.405 10.9 45.4601V66.1901C10.8974 66.2998 10.852 66.404 10.7735 66.4806C10.695 66.5573 10.5897 66.6001 10.48 66.6001H1.91C1.80297 66.6001 1.70017 66.6419 1.62357 66.7166C1.54696 66.7914 1.50261 66.8931 1.5 67.0001V73.7301C1.5 73.8389 1.5432 73.9431 1.62009 74.02C1.69698 74.0969 1.80126 74.1401 1.91 74.1401H74.62C74.6747 74.1414 74.7291 74.1318 74.78 74.1118C74.8309 74.0918 74.8773 74.0618 74.9164 74.0236C74.9555 73.9854 74.9866 73.9398 75.0079 73.8894C75.0291 73.8389 75.04 73.7848 75.04 73.7301V67.0001C75.04 66.9454 75.0291 66.8913 75.0079 66.8409C74.9866 66.7905 74.9555 66.7448 74.9164 66.7066C74.8773 66.6684 74.8309 66.6384 74.78 66.6184C74.7291 66.5984 74.6747 66.5888 74.62 66.5901H66.05C65.9413 66.5901 65.837 66.5469 65.7601 66.47C65.6832 66.3931 65.64 66.2888 65.64 66.1801V45.4601C65.6387 45.4054 65.6483 45.351 65.6683 45.3001C65.6883 45.2492 65.7183 45.2028 65.7565 45.1637C65.7947 45.1246 65.8403 45.0935 65.8908 45.0722C65.9412 45.051 65.9953 45.0401 66.05 45.0401H74.62C74.7235 45.0325 74.8202 44.986 74.8907 44.9099C74.9612 44.8338 75.0003 44.7338 75 44.6301Z" fill="#FFA670" stroke="#171A1C" stroke-width="3" stroke-miterlimit="10"/>
<path d="M76.07 44.6301V37.9001C76.07 37.8454 76.0591 37.7913 76.0379 37.7409C76.0166 37.6905 75.9855 37.6448 75.9464 37.6066C75.9073 37.5684 75.8609 37.5384 75.81 37.5184C75.7591 37.4984 75.7047 37.4888 75.65 37.4901H50.13C50.0213 37.4901 49.917 37.5333 49.8401 37.6102C49.7632 37.6871 49.72 37.7914 49.72 37.9001V44.6301C49.72 44.7389 49.7632 44.8431 49.8401 44.92C49.917 44.9969 50.0213 45.0401 50.13 45.0401H58.7C58.7552 45.0401 58.8098 45.051 58.8607 45.0721C58.9117 45.0932 58.958 45.1241 58.997 45.1631C59.036 45.2021 59.0669 45.2484 59.088 45.2994C59.1091 45.3503 59.12 45.405 59.12 45.4601V66.1901C59.1174 66.2998 59.072 66.404 58.9935 66.4806C58.915 66.5573 58.8097 66.6001 58.7 66.6001H50.13C50.0213 66.6001 49.917 66.6433 49.8401 66.7202C49.7632 66.7971 49.72 66.9014 49.72 67.0101V73.7401C49.72 73.8488 49.7632 73.9531 49.8401 74.03C49.917 74.1069 50.0213 74.1501 50.13 74.1501H75.65C75.7047 74.1514 75.7591 74.1418 75.81 74.1218C75.8609 74.1018 75.9073 74.0718 75.9464 74.0336C75.9855 73.9954 76.0166 73.9498 76.0379 73.8994C76.0591 73.8489 76.07 73.7948 76.07 73.7401V67.0001C76.07 66.9454 76.0591 66.8913 76.0379 66.8409C76.0166 66.7905 75.9855 66.7448 75.9464 66.7066C75.9073 66.6684 75.8609 66.6384 75.81 66.6184C75.7591 66.5984 75.7047 66.5888 75.65 66.5901H67.08C66.9721 66.5876 66.8692 66.5436 66.7929 66.4672C66.7166 66.3909 66.6725 66.2881 66.67 66.1801V45.4601C66.67 45.3504 66.7128 45.2451 66.7895 45.1666C66.8661 45.0881 66.9704 45.0427 67.08 45.0401H75.65C75.7047 45.0414 75.7591 45.0318 75.81 45.0118C75.8609 44.9918 75.9073 44.9618 75.9464 44.9236C75.9855 44.8854 76.0166 44.8398 76.0379 44.7894C76.0591 44.7389 76.07 44.6848 76.07 44.6301Z" fill="#FF8338" stroke="#171A1C" stroke-width="3" stroke-miterlimit="10"/>
<path d="M17.33 30.54H54.33" stroke="#171A1C" stroke-width="3" stroke-miterlimit="10"/>
<path d="M14.44 9.02002H51.54" stroke="#171A1C" stroke-width="3" stroke-miterlimit="10"/>
<path d="M2.33 66.5901H58.82" stroke="#171A1C" stroke-width="3" stroke-miterlimit="10"/>
<path d="M1.5 45.01H59.12" stroke="#171A1C" stroke-width="3" stroke-miterlimit="10"/>
</svg>
