<svg width="28" height="28" viewBox="0 0 28 28" fill="none" xmlns="http://www.w3.org/2000/svg">
<circle cx="14" cy="14" r="14" fill="#2D9CDB"/>
<path d="M15.1875 6H10.375C10.0103 6 9.66059 6.14367 9.40273 6.3994C9.14487 6.65513 9 7.00198 9 7.36364V21H11.75V15.5455H15.1875C16.4639 15.5455 17.6879 15.0426 18.5905 14.1476C19.493 13.2525 20 12.0385 20 10.7727C20 9.50692 19.493 8.29296 18.5905 7.3979C17.6879 6.50284 16.4639 6 15.1875 6ZM15.1875 12.8182H11.75V8.72727H15.1875C15.7345 8.72727 16.2591 8.94278 16.6459 9.32637C17.0327 9.70997 17.25 10.2302 17.25 10.7727C17.25 11.3152 17.0327 11.8355 16.6459 12.2191C16.2591 12.6027 15.7345 12.8182 15.1875 12.8182Z" fill="white"/>
</svg>
