<svg width="28" height="28" viewBox="0 0 28 28" fill="none" xmlns="http://www.w3.org/2000/svg">
<circle cx="14" cy="14" r="14" fill="#728C57"/>
<path d="M13.201 8.09246L11.7172 5.83216C11.5189 5.52906 11.6031 5.12303 11.9062 4.92467C12.2093 4.72633 12.6154 4.81053 12.8137 5.11367L13.985 6.90057L14 6.87625L14.0187 6.90431L15.1938 5.11367C15.3921 4.81055 15.7981 4.72635 16.1013 4.92467C16.4044 5.12303 16.4886 5.52906 16.2903 5.83216L14.8027 8.09808L22.1375 19.2742H18.8013C18.6198 19.2742 18.4383 19.2442 18.268 19.1825C15.5811 18.2095 14.5501 15.1971 14.1834 13.6029C14.1385 13.4083 13.8634 13.4083 13.8185 13.6029C13.4537 15.1952 12.4208 18.2077 9.73391 19.1825C9.56364 19.2442 9.38214 19.2742 9.20065 19.2742H5.86447L13.201 8.09246Z" fill="white"/>
<path d="M5.49023 19.8729H22.5098C22.7811 19.8729 23 20.0824 23 20.3406V20.7149C23 20.9731 22.7811 21.1826 22.5098 21.1826H5.49023C5.21892 21.1826 5 20.9731 5 20.7149V20.3406C5 20.0824 5.21892 19.8729 5.49023 19.8729Z" fill="white"/>
</svg>
