<svg width="28" height="28" viewBox="0 0 28 28" fill="none" xmlns="http://www.w3.org/2000/svg">
<circle cx="14" cy="14" r="14" fill="#8153CA"/>
<g clip-path="url(#clip0)">
<path d="M20.976 9.1129C20.954 8.95909 20.847 8.8309 20.6997 8.78166C20.5531 8.732 20.39 8.77083 20.2799 8.88059L19.6999 9.46098C19.3899 9.77101 18.8495 9.77101 18.5395 9.46098C18.2187 9.14019 18.2189 8.62159 18.5395 8.30101L19.1195 7.72102C19.2292 7.61126 19.2677 7.44865 19.2184 7.30124C19.1691 7.15383 19.041 7.04689 18.8872 7.02487C18.1217 6.91673 17.3471 7.17387 16.7995 7.72061C16.1803 8.34025 15.936 9.25109 16.1623 10.0982L10.098 16.1623L10.0976 16.1619C9.25362 15.938 8.33758 16.1823 7.72035 16.7996C7.1764 17.3435 6.91606 18.1242 7.0242 18.8876C7.04624 19.0414 7.15318 19.1696 7.30056 19.2188C7.44677 19.2681 7.61018 19.2296 7.72035 19.1199L8.30033 18.5395C8.61036 18.2295 9.1507 18.2295 9.46072 18.5395C9.78152 18.8602 9.78135 19.3788 9.46072 19.6995L8.88073 20.2795C8.77097 20.3892 8.73253 20.5518 8.7818 20.6992C8.83108 20.8466 8.95924 20.9536 9.11304 20.9756C9.87648 21.0842 10.6447 20.8354 11.2007 20.2799C11.8199 19.6602 12.0643 18.7494 11.838 17.9022L17.9023 11.8382L17.9027 11.8386C18.751 12.0633 19.6626 11.8182 20.2799 11.2009C20.8238 10.657 21.0842 9.87634 20.976 9.1129Z" fill="white"/>
<path d="M18.5391 16.0781C18.3448 16.0781 18.1449 16.1074 17.9102 16.1695L16.3205 14.58L14.58 16.3203L16.1695 17.9099C16.1074 18.145 16.0781 18.3448 16.0781 18.5391C16.0781 19.8961 17.182 21 18.5391 21C19.8961 21 21 19.8961 21 18.5391C21 17.182 19.8961 16.0781 18.5391 16.0781ZM19.8849 18.457L19.641 19.367C19.6029 19.5084 19.4923 19.6189 19.351 19.657L18.4409 19.9009C18.3073 19.9378 18.1528 19.9028 18.0448 19.7948L17.3787 19.1287C17.275 19.0249 17.2345 18.8739 17.2726 18.7325L17.5165 17.8225C17.5546 17.6811 17.6651 17.5706 17.8065 17.5325L18.7165 17.2886C18.8571 17.2493 19.0085 17.291 19.1126 17.3947L19.7787 18.0608C19.8825 18.1646 19.9229 18.3156 19.8849 18.457Z" fill="white"/>
<path d="M11.8378 10.0746C12.0641 9.22742 11.8198 8.31619 11.2006 7.69694C10.2709 6.76769 8.64908 6.76769 7.72024 7.69694C6.76094 8.65665 6.76094 10.2179 7.72024 11.1772C8.33668 11.7937 9.24952 12.0416 10.0979 11.8145L11.6805 13.4198L13.4207 11.6798L11.8378 10.0746ZM10.7652 9.31394L10.5212 10.224C10.4832 10.3654 10.3726 10.4759 10.2312 10.5139L9.32121 10.7579C9.18753 10.7947 9.03307 10.7597 8.92509 10.6517L8.25899 9.98564C8.15525 9.88189 8.11481 9.7309 8.15284 9.58951L8.39678 8.67948C8.43484 8.53809 8.54539 8.42754 8.68676 8.3895L9.59679 8.14557C9.73818 8.10712 9.88917 8.14797 9.99291 8.25171L10.659 8.91781C10.7627 9.02155 10.8032 9.17254 10.7652 9.31394Z" fill="white"/>
</g>
<defs>
<clipPath id="clip0">
<rect width="14" height="14" fill="white" transform="translate(7 7)"/>
</clipPath>
</defs>
</svg>
