<svg width="28" height="28" viewBox="0 0 28 28" fill="none" xmlns="http://www.w3.org/2000/svg">
<circle cx="14" cy="14" r="14" fill="#3C6488"/>
<g clip-path="url(#clip0)">
<path d="M10.1875 17.3439H18.6564C18.8661 17.3439 19.05 17.2052 19.1068 17.0038L20.9819 10.4412C21.0222 10.2997 20.9946 10.1477 20.9059 10.0302C20.817 9.91296 20.6788 9.84375 20.5314 9.84375H9.10535L8.77026 8.33594C8.72266 8.12122 8.53223 7.96875 8.3125 7.96875H5.46875C5.20972 7.96875 5 8.17847 5 8.4375C5 8.69666 5.20972 8.90625 5.46875 8.90625H7.93628L9.62903 16.5234C9.13098 16.74 8.78125 17.2357 8.78125 17.8126C8.78125 18.588 9.41211 19.2189 10.1875 19.2189H18.6564C18.9155 19.2189 19.1251 19.0093 19.1251 18.7501C19.1251 18.4911 18.9155 18.2814 18.6564 18.2814H10.1875C9.92932 18.2814 9.71875 18.0713 9.71875 17.8126C9.71875 17.554 9.92932 17.3439 10.1875 17.3439Z" fill="white"/>
<path d="M9.71878 20.6252C9.71878 21.4007 10.3496 22.0314 11.1252 22.0314C11.9005 22.0314 12.5314 21.4007 12.5314 20.6252C12.5314 19.8498 11.9005 19.2189 11.1252 19.2189C10.3496 19.2189 9.71878 19.8498 9.71878 20.6252Z" fill="white"/>
<path d="M16.3126 20.6252C16.3126 21.4007 16.9435 22.0314 17.7189 22.0314C18.4944 22.0314 19.1251 21.4007 19.1251 20.6252C19.1251 19.8498 18.4944 19.2189 17.7189 19.2189C16.9435 19.2189 16.3126 19.8498 16.3126 20.6252Z" fill="white"/>
</g>
<defs>
<clipPath id="clip0">
<rect width="16" height="16" fill="white" transform="translate(5 7)"/>
</clipPath>
</defs>
</svg>
