<svg width="28" height="28" viewBox="0 0 28 28" fill="none" xmlns="http://www.w3.org/2000/svg">
<circle cx="14" cy="14" r="14" fill="#6B7683"/>
<path d="M14 7.33331C10.3241 7.33331 7.33331 10.3241 7.33331 14C7.33331 17.6759 10.3241 20.6667 14 20.6667C17.6759 20.6667 20.6667 17.6759 20.6667 14C20.6667 10.3241 17.6759 7.33331 14 7.33331ZM17.4107 9.82355C17.4855 9.74015 17.5913 9.69089 17.7036 9.68644C17.8005 9.67546 17.925 9.72265 18.0064 9.79995C18.8706 10.6182 19.4582 11.6599 19.7039 12.8123C19.743 12.9962 19.6543 13.1834 19.4874 13.2696C19.0797 13.4804 18.5955 13.5825 18.1317 13.5825C17.527 13.5825 16.9541 13.4091 16.6221 13.0771C15.9157 12.3712 16.2103 11.155 17.4107 9.82355ZM10.5894 18.2415C10.5145 18.3249 10.4087 18.3746 10.2964 18.3791C10.2915 18.3794 10.2858 18.3794 10.2801 18.3794C10.1735 18.3794 10.071 18.3387 9.99366 18.2655C9.12941 17.4472 8.54183 16.4055 8.29609 15.2528C8.25702 15.0689 8.34573 14.8817 8.51257 14.7955C9.45171 14.3109 10.7912 14.4012 11.378 14.9879C12.0835 15.6939 11.7889 16.9101 10.5894 18.2415ZM11.3779 13.0771C11.0459 13.4092 10.473 13.5825 9.86831 13.5825C9.40444 13.5825 8.92105 13.4804 8.51253 13.2696C8.3457 13.1834 8.25698 12.9962 8.29605 12.8123C8.54183 11.66 9.12937 10.6183 9.99362 9.79999C10.075 9.72269 10.1946 9.67468 10.2964 9.68648C10.4087 9.69097 10.5144 9.74019 10.5893 9.82359C11.7897 11.155 12.0843 12.3712 11.3779 13.0771ZM15.7757 19.5562C15.1987 19.7401 14.6014 19.8334 14 19.8334C13.3986 19.8334 12.8012 19.7402 12.2243 19.5562C12.0412 19.4976 11.9216 19.3219 11.9346 19.1302C12.0387 17.6308 12.9266 16.5 14 16.5C15.0734 16.5 15.9612 17.6308 16.0654 19.1302C16.0784 19.3219 15.9588 19.4976 15.7757 19.5562ZM12.3333 14C12.3333 13.0808 13.0812 12.3333 14 12.3333C14.9188 12.3333 15.6667 13.0808 15.6667 14C15.6667 14.9192 14.9188 15.6667 14 15.6667C13.0812 15.6667 12.3333 14.9192 12.3333 14ZM16.0654 8.90273C15.9612 10.4018 15.0734 11.5325 14 11.5325C12.9266 11.5325 12.0387 10.4018 11.9346 8.90273C11.9216 8.71109 12.0403 8.53531 12.2235 8.4771C13.3774 8.10843 14.6226 8.10843 15.7765 8.4771C15.9596 8.53531 16.0784 8.71109 16.0654 8.90273ZM19.7039 15.1865C19.4581 16.3393 18.8706 17.3809 18.0064 18.1992C17.929 18.2725 17.8265 18.3132 17.7199 18.3132C17.7142 18.3132 17.7085 18.3132 17.7036 18.3128C17.5913 18.3083 17.4855 18.2591 17.4107 18.1757C16.2103 16.8443 15.9157 15.6276 16.6221 14.9217C17.2088 14.3345 18.5475 14.2454 19.4874 14.7292C19.6543 14.8154 19.743 15.0026 19.7039 15.1865Z" fill="white"/>
<path d="M14 4C8.48566 4 4 8.48609 4 14C4 19.5139 8.48566 24 14 24C19.5143 24 24 19.5139 24 14C24 8.48609 19.5143 4 14 4ZM14 21.5C9.86426 21.5 6.5 18.1354 6.5 14C6.5 9.86465 9.86426 6.5 14 6.5C18.1357 6.5 21.5 9.86465 21.5 14C21.5 18.1354 18.1357 21.5 14 21.5Z" fill="white"/>
</svg>
