<svg width="216" height="87" viewBox="0 0 216 87" fill="none" xmlns="http://www.w3.org/2000/svg">
<path d="M138.35 84.17C143.635 84.17 147.92 79.4555 147.92 73.64C147.92 67.8244 143.635 63.11 138.35 63.11C133.065 63.11 128.78 67.8244 128.78 73.64C128.78 79.4555 133.065 84.17 138.35 84.17Z" fill="#171A1C"/>
<path d="M138.35 84.7201C132.76 84.7201 128.22 79.7201 128.22 73.6401C128.22 67.5601 132.76 62.5601 138.35 62.5601C143.94 62.5601 148.47 67.5601 148.47 73.6401C148.47 79.7201 143.93 84.7201 138.35 84.7201ZM138.35 63.7201C133.35 63.7201 129.35 68.1901 129.35 73.7201C129.35 79.2501 133.35 83.7201 138.35 83.7201C143.35 83.7201 147.35 79.2401 147.35 73.7201C147.35 68.2001 143.32 63.6701 138.35 63.6701V63.7201Z" fill="#171A1C"/>
<path d="M140.26 84.17C145.545 84.17 149.83 79.4555 149.83 73.64C149.83 67.8244 145.545 63.11 140.26 63.11C134.975 63.11 130.69 67.8244 130.69 73.64C130.69 79.4555 134.975 84.17 140.26 84.17Z" fill="#171A1C"/>
<path d="M140.26 84.7201C134.68 84.7201 130.14 79.7201 130.14 73.6401C130.14 67.5601 134.68 62.5601 140.26 62.5601C145.84 62.5601 150.38 67.5601 150.38 73.6401C150.38 79.7201 145.84 84.7201 140.26 84.7201ZM140.26 63.7201C135.26 63.7201 131.26 68.1901 131.26 73.7201C131.26 79.2501 135.26 83.7201 140.26 83.7201C145.26 83.7201 149.26 79.2401 149.26 73.7201C149.26 68.2001 145.23 63.6701 140.26 63.6701V63.7201Z" fill="#171A1C"/>
<path d="M81.1 84.17C86.6836 84.17 91.21 79.4555 91.21 73.64C91.21 67.8244 86.6836 63.11 81.1 63.11C75.5164 63.11 70.99 67.8244 70.99 73.64C70.99 79.4555 75.5164 84.17 81.1 84.17Z" fill="#171A1C"/>
<path d="M81.1 84.72C78.8902 84.8038 76.7058 84.225 74.8275 83.058C72.9491 81.891 71.4625 80.189 70.5587 78.1708C69.6548 76.1526 69.375 73.9102 69.7551 71.7318C70.1352 69.5533 71.1579 67.5382 72.6918 65.9454C74.2257 64.3525 76.2008 63.2546 78.3634 62.7926C80.526 62.3307 82.7773 62.5258 84.8282 63.353C86.879 64.1802 88.6358 65.6015 89.8727 67.4346C91.1097 69.2676 91.7704 71.4286 91.77 73.64C91.8209 76.5233 90.7261 79.309 88.7259 81.3861C86.7256 83.4632 83.9831 84.6622 81.1 84.72ZM81.1 63.72C79.1055 63.6302 77.1297 64.1394 75.4271 65.1822C73.7245 66.225 72.373 67.7536 71.5467 69.5711C70.7204 71.3886 70.457 73.4119 70.7905 75.3804C71.124 77.3489 72.0392 79.1725 73.4181 80.6164C74.797 82.0603 76.5766 83.0583 78.5276 83.4821C80.4787 83.9058 82.512 83.7358 84.3656 82.994C86.2192 82.2522 87.8083 80.9724 88.9283 79.3196C90.0484 77.6668 90.648 75.7166 90.65 73.72C90.6859 72.4323 90.4671 71.1501 90.006 69.9472C89.545 68.7443 88.8508 67.6444 87.9634 66.7105C87.076 65.7767 86.0129 65.0273 84.835 64.5055C83.6572 63.9838 82.3879 63.6998 81.1 63.67V63.72Z" fill="#171A1C"/>
<path d="M83.12 84.17C88.7036 84.17 93.23 79.4555 93.23 73.64C93.23 67.8244 88.7036 63.11 83.12 63.11C77.5364 63.11 73.01 67.8244 73.01 73.64C73.01 79.4555 77.5364 84.17 83.12 84.17Z" fill="#171A1C"/>
<path d="M83.12 84.72C80.9102 84.8038 78.7258 84.225 76.8475 83.058C74.9691 81.891 73.4825 80.189 72.5786 78.1708C71.6748 76.1526 71.3949 73.9102 71.775 71.7318C72.1551 69.5533 73.1778 67.5382 74.7118 65.9454C76.2457 64.3525 78.2208 63.2546 80.3834 62.7926C82.546 62.3307 84.7973 62.5258 86.8482 63.353C88.899 64.1802 90.6557 65.6015 91.8927 67.4346C93.1297 69.2676 93.7904 71.4286 93.79 73.64C93.8409 76.5233 92.7461 79.309 90.7458 81.3861C88.7456 83.4632 86.0031 84.6622 83.12 84.72ZM83.12 63.72C81.1258 63.6322 79.1509 64.1432 77.4496 65.1873C75.7483 66.2313 74.3983 67.7607 73.5735 69.5785C72.7488 71.3962 72.4869 73.4193 72.8216 75.3872C73.1563 77.355 74.0723 79.1777 75.4517 80.6206C76.8311 82.0635 78.6107 83.0605 80.5616 83.4834C82.5124 83.9062 84.5452 83.7356 86.3982 82.9934C88.2512 82.2512 89.8397 80.9714 90.9592 79.3187C92.0788 77.6661 92.6781 75.7162 92.68 73.72C92.7159 72.4315 92.4967 71.1485 92.035 69.945C91.5734 68.7414 90.8783 67.641 89.9899 66.707C89.1014 65.773 88.0371 65.0239 86.8581 64.5027C85.6791 63.9815 84.4087 63.6985 83.12 63.67V63.72Z" fill="#171A1C"/>
<path d="M187.26 84.17C192.545 84.17 196.83 79.4555 196.83 73.64C196.83 67.8244 192.545 63.11 187.26 63.11C181.975 63.11 177.69 67.8244 177.69 73.64C177.69 79.4555 181.975 84.17 187.26 84.17Z" fill="#171A1C"/>
<path d="M187.26 84.7201C181.68 84.7201 177.14 79.7201 177.14 73.6401C177.14 67.5601 181.68 62.5601 187.26 62.5601C192.84 62.5601 197.39 67.5601 197.39 73.6401C197.39 79.7201 192.85 84.7201 187.26 84.7201ZM187.26 63.7201C182.26 63.7201 178.26 68.1901 178.26 73.7201C178.26 79.2501 182.31 83.7201 187.26 83.7201C192.21 83.7201 196.26 79.2401 196.26 73.7201C196.26 68.2001 192.23 63.6701 187.26 63.6701V63.7201Z" fill="#171A1C"/>
<path d="M189.18 84.17C194.465 84.17 198.75 79.4555 198.75 73.64C198.75 67.8244 194.465 63.11 189.18 63.11C183.895 63.11 179.61 67.8244 179.61 73.64C179.61 79.4555 183.895 84.17 189.18 84.17Z" fill="#171A1C"/>
<path d="M189.18 84.7201C183.6 84.7201 179.05 79.7201 179.05 73.6401C179.05 67.5601 183.6 62.5601 189.18 62.5601C194.76 62.5601 199.3 67.5601 199.3 73.6401C199.3 79.7201 194.76 84.7201 189.18 84.7201ZM189.18 63.7201C184.18 63.7201 180.18 68.1901 180.18 73.7201C180.18 79.2501 184.18 83.7201 189.18 83.7201C194.18 83.7201 198.18 79.2401 198.18 73.7201C198.18 68.2001 194.15 63.6701 189.18 63.6701V63.7201Z" fill="#171A1C"/>
<path d="M58.87 84.17C64.4536 84.17 68.98 79.4555 68.98 73.64C68.98 67.8244 64.4536 63.11 58.87 63.11C53.2864 63.11 48.76 67.8244 48.76 73.64C48.76 79.4555 53.2864 84.17 58.87 84.17Z" fill="#171A1C"/>
<path d="M58.87 84.72C56.6599 84.8058 54.4746 84.2287 52.5949 83.063C50.7153 81.8972 49.2272 80.1961 48.3218 78.1781C47.4163 76.1601 47.135 73.9175 47.5139 71.7384C47.8929 69.5594 48.9147 67.5433 50.4482 65.9495C51.9816 64.3556 53.9567 63.2566 56.1195 62.7938C58.2823 62.331 60.5341 62.5255 62.5856 63.3523C64.637 64.1791 66.3944 65.6004 67.6318 67.4336C68.8693 69.2669 69.5303 71.4282 69.53 73.64C69.5783 76.5208 68.484 79.3035 66.4864 81.3798C64.4888 83.456 61.7505 84.657 58.87 84.72ZM58.87 63.72C56.8755 63.6302 54.8997 64.1394 53.1971 65.1822C51.4945 66.225 50.143 67.7535 49.3167 69.5711C48.4903 71.3886 48.227 73.4119 48.5605 75.3804C48.894 77.3489 49.8092 79.1725 51.1881 80.6164C52.567 82.0602 54.3466 83.0583 56.2976 83.4821C58.2487 83.9058 60.2819 83.7358 62.1356 82.994C63.9892 82.2521 65.5783 80.9724 66.6983 79.3196C67.8183 77.6668 68.418 75.7166 68.42 73.72C68.4572 72.4319 68.2393 71.1492 67.7787 69.9457C67.3182 68.7422 66.6241 67.6417 65.7364 66.7076C64.8488 65.7735 63.7851 65.0242 62.6067 64.5029C61.4282 63.9815 60.1583 63.6985 58.87 63.67V63.72Z" fill="#171A1C"/>
<path d="M60.89 84.17C66.4736 84.17 71 79.4555 71 73.64C71 67.8244 66.4736 63.11 60.89 63.11C55.3064 63.11 50.78 67.8244 50.78 73.64C50.78 79.4555 55.3064 84.17 60.89 84.17Z" fill="#171A1C"/>
<path d="M60.89 84.72C58.6799 84.8058 56.4946 84.2287 54.615 83.063C52.7353 81.8972 51.2472 80.1961 50.3418 78.1781C49.4364 76.1601 49.155 73.9175 49.534 71.7384C49.9129 69.5594 50.9347 67.5433 52.4682 65.9495C54.0016 64.3556 55.9767 63.2566 58.1395 62.7938C60.3023 62.331 62.5541 62.5255 64.6056 63.3523C66.657 64.1791 68.4144 65.6004 69.6518 67.4336C70.8893 69.2669 71.5503 71.4282 71.55 73.64C71.6009 76.5215 70.5075 79.3058 68.5094 81.3826C66.5113 83.4595 63.7714 84.6596 60.89 84.72ZM60.89 63.72C58.8955 63.6302 56.9197 64.1394 55.2171 65.1822C53.5145 66.225 52.163 67.7535 51.3367 69.5711C50.5104 71.3886 50.247 73.4119 50.5805 75.3804C50.914 77.3489 51.8292 79.1725 53.2081 80.6164C54.587 82.0602 56.3666 83.0583 58.3176 83.4821C60.2687 83.9058 62.302 83.7358 64.1556 82.994C66.0092 82.2521 67.5983 80.9724 68.7183 79.3196C69.8384 77.6668 70.438 75.7166 70.44 73.72C70.4772 72.4319 70.2593 71.1492 69.7988 69.9457C69.3382 68.7422 68.6441 67.6417 67.7564 66.7076C66.8688 65.7735 65.8051 65.0242 64.6267 64.5029C63.4482 63.9815 62.1783 63.6985 60.89 63.67V63.72Z" fill="#171A1C"/>
<path d="M173.8 70.29H12.43V7.87004C12.4326 6.22478 13.0881 4.64781 14.2524 3.48537C15.4167 2.32293 16.9947 1.67004 18.64 1.67004H174.58C176.224 1.67004 177.801 2.32326 178.964 3.48598C180.127 4.64871 180.78 6.2257 180.78 7.87004L173.8 70.29Z" fill="white"/>
<path d="M175.3 72H10.76V7.87C10.7627 5.78183 11.594 3.78009 13.0715 2.30446C14.549 0.828837 16.5518 -1.68145e-06 18.64 0L174.58 0C176.666 0.00264609 178.667 0.832654 180.142 2.30799C181.617 3.78333 182.447 5.78356 182.45 7.87V8.06L175.3 72ZM14.1 68.62H172.31L179.12 7.79C179.096 6.60158 178.608 5.46981 177.759 4.63776C176.91 3.80571 175.769 3.33977 174.58 3.34H18.64C18.0443 3.33868 17.4541 3.45489 16.9034 3.68195C16.3526 3.90902 15.8521 4.24249 15.4303 4.66327C15.0086 5.08405 14.6741 5.58387 14.4458 6.13413C14.2175 6.68439 14.1 7.27427 14.1 7.87V68.62Z" fill="#171A1C"/>
<path d="M138.13 1.66996H175.45C176.864 1.66996 178.219 2.23151 179.219 3.23108C180.218 4.23065 180.78 5.58636 180.78 6.99996V70.29H132.78V6.99996C132.78 6.29833 132.919 5.6036 133.188 4.95563C133.457 4.30765 133.851 3.71919 134.348 3.22399C134.845 2.72879 135.435 2.33661 136.084 2.06993C136.733 1.80325 137.428 1.66733 138.13 1.66996Z" fill="white"/>
<path d="M182.45 72H131.13V7.6C131.13 5.58609 131.929 3.65451 133.352 2.22952C134.776 0.804531 136.706 0.00264989 138.72 0L174.85 0C176.865 0.00264588 178.796 0.804208 180.221 2.22891C181.646 3.65361 182.447 5.58517 182.45 7.6V72ZM134.45 68.67H179.11V7.6C179.107 6.46926 178.656 5.38574 177.856 4.58712C177.055 3.7885 175.971 3.34 174.84 3.34H138.72C137.59 3.34 136.507 3.78882 135.708 4.58773C134.909 5.38663 134.46 6.47018 134.46 7.6L134.45 68.67Z" fill="#171A1C"/>
<path d="M207.69 48.62V71H142.44V19C142.439 18.3084 142.574 17.6233 142.838 16.984C143.101 16.3447 143.489 15.7636 143.977 15.2741C144.466 14.7846 145.046 14.3963 145.685 14.1313C146.324 13.8664 147.008 13.73 147.7 13.73H183.7C184.619 13.7313 185.523 13.9626 186.33 14.4028C187.137 14.8429 187.821 15.4779 188.32 16.25L203 39C203 39 207.69 43.84 207.69 48.62Z" fill="white"/>
<path d="M209.36 72.6699H140.77V18.9999C140.77 17.162 141.5 15.3993 142.8 14.0997C144.099 12.8001 145.862 12.0699 147.7 12.0699H183.64C184.835 12.0711 186.01 12.3719 187.058 12.945C188.106 13.518 188.994 14.3449 189.64 15.3499L204.27 37.9999C205.08 38.8599 209.36 43.6399 209.36 48.6399V72.6699ZM144.1 69.3399H206V48.6199C206 45.2599 202.92 41.3899 201.74 40.1799L201.53 39.9199L186.87 17.1799C186.523 16.6391 186.045 16.1944 185.48 15.8868C184.916 15.5792 184.283 15.4187 183.64 15.4199H147.7C146.745 15.4199 145.83 15.7992 145.154 16.4744C144.479 17.1495 144.1 18.0652 144.1 19.0199V69.3399Z" fill="#171A1C"/>
<path d="M205.48 54.27H178.91C178.306 54.2595 177.73 54.0129 177.306 53.583C176.882 53.153 176.642 52.574 176.64 51.97V49.97C176.64 49.3573 176.883 48.7698 177.317 48.3366C177.75 47.9033 178.337 47.66 178.95 47.66H206.48C206.656 47.6532 206.832 47.6821 206.997 47.745C207.161 47.8078 207.312 47.9032 207.439 48.0255C207.566 48.1478 207.667 48.2945 207.736 48.4568C207.805 48.6191 207.84 48.7936 207.84 48.97V51.97C207.839 52.2767 207.776 52.5802 207.657 52.8626C207.537 53.145 207.362 53.4007 207.142 53.6148C206.923 53.8289 206.662 53.9971 206.377 54.1096C206.092 54.2221 205.787 54.2766 205.48 54.27Z" fill="#171A1C"/>
<path d="M205.27 54.83H179.21C178.382 54.8274 177.588 54.4964 177.003 53.9097C176.418 53.323 176.09 52.5284 176.09 51.7V50.27C176.09 49.4416 176.418 48.647 177.003 48.0603C177.588 47.4736 178.382 47.1427 179.21 47.14H206.38C206.91 47.14 207.419 47.3507 207.794 47.7258C208.169 48.1009 208.38 48.6096 208.38 49.14V51.7C208.38 52.5267 208.053 53.3198 207.47 53.9062C206.888 54.4926 206.097 54.8247 205.27 54.83ZM179.21 48.25C178.68 48.25 178.171 48.4607 177.796 48.8358C177.421 49.2109 177.21 49.7196 177.21 50.25V51.7C177.21 52.2304 177.421 52.7392 177.796 53.1142C178.171 53.4893 178.68 53.7 179.21 53.7H205.27C205.8 53.7 206.309 53.4893 206.684 53.1142C207.059 52.7392 207.27 52.2304 207.27 51.7V49.16C207.271 49.041 207.249 48.9229 207.204 48.8125C207.16 48.7022 207.094 48.6018 207.01 48.5171C206.926 48.4325 206.827 48.3653 206.717 48.3195C206.607 48.2736 206.489 48.25 206.37 48.25H179.21Z" fill="#171A1C"/>
<path d="M180.02 53.18C181.23 53.18 182.21 52.1996 182.21 50.9901C182.21 49.7805 181.23 48.8 180.02 48.8C178.811 48.8 177.83 49.7805 177.83 50.9901C177.83 52.1996 178.811 53.18 180.02 53.18Z" fill="white"/>
<path d="M180 53.74C179.457 53.7361 178.926 53.5712 178.477 53.2662C178.027 52.9612 177.677 52.5297 177.473 52.0263C177.268 51.5229 177.217 50.9701 177.326 50.4377C177.435 49.9053 177.7 49.4172 178.086 49.035C178.472 48.6528 178.963 48.3937 179.497 48.2903C180.031 48.1869 180.583 48.244 181.084 48.4542C181.585 48.6645 182.013 49.0185 182.313 49.4716C182.613 49.9247 182.772 50.4566 182.77 51C182.769 51.362 182.696 51.7202 182.556 52.054C182.416 52.3878 182.211 52.6907 181.954 52.9452C181.697 53.1998 181.392 53.401 181.056 53.5374C180.721 53.6738 180.362 53.7427 180 53.74ZM180 49.35C179.677 49.354 179.362 49.4533 179.095 49.6354C178.829 49.8176 178.622 50.0745 178.5 50.3739C178.379 50.6733 178.349 51.0019 178.413 51.3184C178.478 51.6349 178.635 51.9253 178.864 52.1531C179.093 52.3808 179.384 52.5358 179.701 52.5986C180.018 52.6614 180.347 52.6292 180.645 52.5061C180.944 52.3829 181.2 52.1743 181.38 51.9063C181.561 51.6384 181.658 51.3231 181.66 51C181.661 50.7821 181.619 50.5662 181.536 50.3647C181.453 50.1633 181.331 49.9804 181.176 49.8268C181.022 49.6732 180.838 49.5519 180.636 49.47C180.434 49.3882 180.218 49.3474 180 49.35Z" fill="#171A1C"/>
<path d="M211.79 73.88H4.99999C4.55708 73.88 4.1323 73.7041 3.81912 73.3909C3.50593 73.0777 3.32999 72.6529 3.32999 72.21C3.32999 71.7671 3.50593 71.3424 3.81912 71.0292C4.1323 70.716 4.55708 70.54 4.99999 70.54H211.79C212.233 70.54 212.658 70.716 212.971 71.0292C213.284 71.3424 213.46 71.7671 213.46 72.21C213.46 72.6529 213.284 73.0777 212.971 73.3909C212.658 73.7041 212.233 73.88 211.79 73.88Z" fill="#171A1C"/>
<path d="M214 86.11H1.67C1.22709 86.11 0.802317 85.9341 0.489132 85.6209C0.175946 85.3077 0 84.8829 0 84.44C0 83.9971 0.175946 83.5723 0.489132 83.2592C0.802317 82.946 1.22709 82.77 1.67 82.77H214C214.443 82.77 214.868 82.946 215.181 83.2592C215.494 83.5723 215.67 83.9971 215.67 84.44C215.67 84.8829 215.494 85.3077 215.181 85.6209C214.868 85.9341 214.443 86.11 214 86.11Z" fill="#171A1C"/>
<path d="M166.41 36.36L157.25 22.16C157.039 21.848 156.755 21.5933 156.421 21.4187C156.088 21.2442 155.716 21.1553 155.34 21.16H150.24C149.649 21.1702 149.085 21.4095 148.667 21.8274C148.25 22.2453 148.01 22.8091 148 23.4V37.77C148 38.0711 148.06 38.3692 148.175 38.6471C148.291 38.9251 148.461 39.1773 148.675 39.3893C148.889 39.6013 149.142 39.7688 149.421 39.8822C149.7 39.9956 149.999 40.0526 150.3 40.05L164.55 39.87C164.954 39.8595 165.348 39.7417 165.692 39.5288C166.035 39.3159 166.316 39.0155 166.505 38.6583C166.695 38.3012 166.786 37.9001 166.769 37.4962C166.752 37.0924 166.628 36.7002 166.41 36.36Z" fill="#171A1C"/>
<path d="M150.24 40.5999C149.491 40.6009 148.773 40.3062 148.24 39.7799C147.976 39.5184 147.766 39.2068 147.624 38.8634C147.481 38.52 147.409 38.1517 147.41 37.7799V23.3999C147.41 22.6485 147.708 21.9276 148.238 21.3953C148.769 20.863 149.489 20.5626 150.24 20.5599H155.34C155.814 20.5591 156.281 20.6778 156.697 20.9051C157.113 21.1323 157.465 21.4607 157.72 21.8599L166.87 36.0599C167.146 36.4854 167.303 36.9773 167.323 37.484C167.344 37.9907 167.228 38.4937 166.988 38.9404C166.748 39.3871 166.392 39.761 165.958 40.023C165.524 40.2851 165.027 40.4256 164.52 40.4299L150.26 40.5999H150.24ZM150.24 21.6799C149.784 21.6799 149.346 21.8612 149.024 22.1837C148.701 22.5063 148.52 22.9438 148.52 23.3999V37.7699C148.52 38.2261 148.701 38.6636 149.024 38.9862C149.346 39.3087 149.784 39.4899 150.24 39.4899L164.5 39.3099C164.807 39.3069 165.108 39.2216 165.372 39.0627C165.635 38.9039 165.851 38.6774 165.997 38.4068C166.143 38.1363 166.214 37.8315 166.202 37.5243C166.19 37.217 166.096 36.9186 165.93 36.6599L156.78 22.4599C156.623 22.2191 156.408 22.0214 156.154 21.8852C155.901 21.7489 155.618 21.6783 155.33 21.6799H150.24Z" fill="#171A1C"/>
<path d="M192 20.09L165.78 20.58C165.472 20.5867 165.171 20.6749 164.907 20.8354C164.644 20.996 164.428 21.2233 164.281 21.4944C164.133 21.7654 164.06 22.0705 164.069 22.3788C164.078 22.6871 164.168 22.9877 164.33 23.25L173.33 37.63C173.798 38.3751 174.447 38.9896 175.216 39.4163C175.985 39.843 176.85 40.0678 177.73 40.07H204.34" fill="#171A1C"/>
<path d="M204.29 40.62H177.68C176.704 40.6238 175.743 40.3777 174.889 39.9051C174.034 39.4325 173.315 38.7491 172.8 37.92L163.8 23.55C163.579 23.2022 163.454 22.8014 163.44 22.3893C163.426 21.9772 163.523 21.5689 163.719 21.2066C163.916 20.8444 164.207 20.5414 164.56 20.3293C164.914 20.1171 165.318 20.0034 165.73 20L192 19.54V20.65L165.78 21.14C165.573 21.1459 165.372 21.2063 165.196 21.3152C165.021 21.4241 164.877 21.5776 164.78 21.76C164.675 21.9425 164.619 22.1494 164.619 22.36C164.619 22.5707 164.675 22.7776 164.78 22.96L173.78 37.33C174.193 37.9999 174.772 38.5522 175.46 38.9339C176.148 39.3157 176.923 39.5141 177.71 39.51H204.32L204.29 40.62Z" fill="#171A1C"/>
<path d="M155.09 46.08H148.42C148.126 46.08 147.843 45.963 147.635 45.7549C147.427 45.5467 147.31 45.2644 147.31 44.97C147.31 44.6756 147.427 44.3933 147.635 44.1851C147.843 43.9769 148.126 43.86 148.42 43.86H155.09C155.384 43.86 155.667 43.9769 155.875 44.1851C156.083 44.3933 156.2 44.6756 156.2 44.97C156.2 45.2644 156.083 45.5467 155.875 45.7549C155.667 45.963 155.384 46.08 155.09 46.08Z" fill="#171A1C"/>
<path d="M155.41 63C160.19 63 164.09 67.24 164.33 71.68H156.21V72.8H146.49C146.49 72.8 146.49 72.3 146.49 72.11C146.484 69.7249 147.416 67.4331 149.085 65.7289C150.754 64.0247 153.025 63.0446 155.41 63Z" fill="#171A1C"/>
<path d="M33 63C35.2959 63.0911 37.4769 64.028 39.1236 65.6304C40.7703 67.2328 41.7663 69.3875 41.92 71.68H35V72.8H24C24 72.8 24 72.3 24 72.11C23.9946 69.7112 24.9376 67.4076 26.6234 65.7011C28.3093 63.9947 30.6013 63.0237 33 63Z" fill="#171A1C"/>
<path d="M29.88 84.17C35.6956 84.17 40.41 79.4555 40.41 73.64C40.41 67.8244 35.6956 63.11 29.88 63.11C24.0644 63.11 19.35 67.8244 19.35 73.64C19.35 79.4555 24.0644 84.17 29.88 84.17Z" fill="#333333"/>
<path d="M29.88 84.72C27.6903 84.7121 25.552 84.0555 23.7352 82.8333C21.9184 81.611 20.5045 79.8778 19.672 77.8525C18.8395 75.8272 18.6258 73.6006 19.0578 71.454C19.4898 69.3073 20.5482 67.3368 22.0994 65.7912C23.6505 64.2456 25.6249 63.1943 27.7731 62.7701C29.9213 62.3458 32.147 62.5675 34.1693 63.4073C36.1916 64.2471 37.9197 65.6672 39.1354 67.4884C40.3512 69.3097 41 71.4503 41 73.64C40.9987 75.098 40.7099 76.5415 40.1501 77.8878C39.5903 79.2341 38.7705 80.4568 37.7377 81.486C36.7048 82.5151 35.4792 83.3305 34.1309 83.8854C32.7826 84.4403 31.338 84.7239 29.88 84.72ZM29.88 63.72C27.9022 63.72 25.9688 64.3065 24.3243 65.4053C22.6798 66.5041 21.3981 68.0659 20.6412 69.8932C19.8843 71.7204 19.6863 73.7311 20.0721 75.6709C20.458 77.6107 21.4104 79.3925 22.8089 80.7911C24.2075 82.1896 25.9893 83.142 27.9291 83.5278C29.8689 83.9137 31.8796 83.7157 33.7068 82.9588C35.5341 82.2019 37.0959 80.9202 38.1947 79.2757C39.2935 77.6312 39.88 75.6978 39.88 73.72C39.8866 72.4026 39.6328 71.0968 39.1332 69.8778C38.6336 68.6588 37.898 67.5505 36.9688 66.6166C36.0396 65.6827 34.9349 64.9416 33.7184 64.4359C32.5019 63.9303 31.1974 63.67 29.88 63.67V63.72Z" fill="#171A1C"/>
<path d="M30.93 84.17C36.7456 84.17 41.46 79.4555 41.46 73.64C41.46 67.8244 36.7456 63.11 30.93 63.11C25.1144 63.11 20.4 67.8244 20.4 73.64C20.4 79.4555 25.1144 84.17 30.93 84.17Z" fill="#171A1C"/>
<path d="M30.93 84.7201C28.7382 84.722 26.595 84.0739 24.7716 82.8576C22.9481 81.6413 21.5264 79.9116 20.6863 77.8871C19.8461 75.8627 19.6253 73.6346 20.0517 71.4846C20.4781 69.3346 21.5326 67.3594 23.0817 65.8089C24.6309 64.2583 26.6051 63.202 28.7547 62.7737C30.9043 62.3454 33.1326 62.5642 35.1578 63.4025C37.183 64.2408 38.9141 65.661 40.132 67.4833C41.3499 69.3056 42 71.4482 42 73.6401C41.9974 76.5761 40.8305 79.3913 38.7554 81.4684C36.6802 83.5454 33.8661 84.7148 30.93 84.7201ZM30.93 63.7201C28.9522 63.7201 27.0188 64.3065 25.3743 65.4054C23.7298 66.5042 22.4481 68.066 21.6912 69.8932C20.9343 71.7205 20.7363 73.7312 21.1221 75.671C21.508 77.6108 22.4604 79.3926 23.8589 80.7911C25.2575 82.1897 27.0393 83.1421 28.9791 83.5279C30.9189 83.9138 32.9296 83.7157 34.7568 82.9589C36.5841 82.202 38.1459 80.9203 39.2447 79.2758C40.3435 77.6313 40.93 75.6979 40.93 73.7201C40.9366 72.4026 40.6828 71.0969 40.1832 69.8779C39.6836 68.6588 38.948 67.5505 38.0188 66.6166C37.0896 65.6828 35.9849 64.9417 34.7684 64.436C33.5519 63.9303 32.2474 63.67 30.93 63.6701V63.7201Z" fill="#171A1C"/>
<path d="M27.25 79.13C29.6248 79.13 31.55 76.6721 31.55 73.64C31.55 70.608 29.6248 68.15 27.25 68.15C24.8752 68.15 22.95 70.608 22.95 73.64C22.95 76.6721 24.8752 79.13 27.25 79.13Z" fill="white"/>
<path d="M27.25 79.6801C24.57 79.6801 22.4 76.9701 22.4 73.6801C22.4 70.3901 24.57 67.6801 27.25 67.6801C29.93 67.6801 32.1 70.3901 32.1 73.6801C32.1 76.9701 29.92 79.6801 27.25 79.6801ZM27.25 68.6801C25.19 68.6801 23.51 70.9001 23.51 73.6201C23.51 76.3401 25.19 78.5501 27.25 78.5501C29.31 78.5501 31 76.3601 31 73.6401C31 70.9201 29.31 68.7001 27.25 68.7001V68.6801Z" fill="#171A1C"/>
<path d="M158.36 84.17C164.176 84.17 168.89 79.4555 168.89 73.64C168.89 67.8244 164.176 63.11 158.36 63.11C152.544 63.11 147.83 67.8244 147.83 73.64C147.83 79.4555 152.544 84.17 158.36 84.17Z" fill="#171A1C"/>
<path d="M158.36 84.7199C156.169 84.7199 154.026 84.0701 152.204 82.8526C150.382 81.6351 148.962 79.9047 148.123 77.8801C147.285 75.8555 147.065 73.6277 147.493 71.4783C147.92 69.329 148.976 67.3548 150.525 65.8052C152.075 64.2556 154.049 63.2004 156.198 62.7728C158.348 62.3453 160.576 62.5647 162.6 63.4034C164.625 64.242 166.355 65.6621 167.573 67.4842C168.79 69.3063 169.44 71.4485 169.44 73.6399C169.435 76.5769 168.266 79.3921 166.189 81.4688C164.112 83.5456 161.297 84.7147 158.36 84.7199ZM158.36 63.7199C156.382 63.7199 154.449 64.3064 152.804 65.4052C151.16 66.5041 149.878 68.0658 149.121 69.8931C148.364 71.7204 148.166 73.731 148.552 75.6708C148.938 77.6107 149.89 79.3925 151.289 80.791C152.687 82.1895 154.469 83.1419 156.409 83.5278C158.349 83.9136 160.36 83.7156 162.187 82.9587C164.014 82.2019 165.576 80.9201 166.675 79.2756C167.774 77.6312 168.36 75.6978 168.36 73.7199C168.367 72.4025 168.113 71.0968 167.613 69.8777C167.114 68.6587 166.378 67.5504 165.449 66.6165C164.52 65.6826 163.415 64.9416 162.198 64.4359C160.982 63.9302 159.677 63.6699 158.36 63.6699V63.7199Z" fill="#171A1C"/>
<path d="M159.41 84.17C165.226 84.17 169.94 79.4555 169.94 73.64C169.94 67.8244 165.226 63.11 159.41 63.11C153.594 63.11 148.88 67.8244 148.88 73.64C148.88 79.4555 153.594 84.17 159.41 84.17Z" fill="#171A1C"/>
<path d="M159.41 84.7199C157.219 84.7199 155.076 84.0701 153.254 82.8526C151.432 81.6351 150.012 79.9047 149.173 77.8801C148.335 75.8555 148.115 73.6277 148.543 71.4783C148.97 69.329 150.026 67.3548 151.575 65.8052C153.125 64.2556 155.099 63.2004 157.248 62.7728C159.398 62.3453 161.626 62.5647 163.65 63.4034C165.675 64.242 167.405 65.6621 168.623 67.4842C169.84 69.3063 170.49 71.4485 170.49 73.6399C170.487 76.5777 169.319 79.3944 167.242 81.4718C165.164 83.5491 162.348 84.7173 159.41 84.7199ZM159.41 63.7199C157.432 63.7199 155.499 64.3064 153.854 65.4052C152.21 66.5041 150.928 68.0658 150.171 69.8931C149.414 71.7204 149.216 73.731 149.602 75.6708C149.988 77.6107 150.94 79.3925 152.339 80.791C153.737 82.1895 155.519 83.1419 157.459 83.5278C159.399 83.9136 161.41 83.7156 163.237 82.9587C165.064 82.2019 166.626 80.9201 167.725 79.2756C168.824 77.6312 169.41 75.6978 169.41 73.7199C169.417 72.4025 169.163 71.0968 168.663 69.8777C168.164 68.6587 167.428 67.5504 166.499 66.6165C165.57 65.6826 164.465 64.9416 163.248 64.4359C162.032 63.9302 160.727 63.6699 159.41 63.6699V63.7199Z" fill="#171A1C"/>
<path d="M155.72 79.25C158.145 79.25 160.11 76.7383 160.11 73.64C160.11 70.5417 158.145 68.03 155.72 68.03C153.295 68.03 151.33 70.5417 151.33 73.64C151.33 76.7383 153.295 79.25 155.72 79.25Z" fill="white"/>
<path d="M155.72 79.81C153 79.81 150.78 77.04 150.78 73.64C150.78 70.24 153 67.47 155.72 67.47C158.44 67.47 160.67 70.23 160.67 73.64C160.67 77.05 158.45 79.81 155.72 79.81ZM155.72 68.58C153.61 68.58 151.89 70.85 151.89 73.64C151.89 76.43 153.61 78.64 155.72 78.64C157.83 78.64 159.56 76.38 159.56 73.64C159.56 70.9 157.84 68.58 155.72 68.58Z" fill="#171A1C"/>
<path d="M206.92 49C207.18 49 206.79 49 206.79 49.1V52.95C206.79 53.01 207.18 53.05 206.92 53.05C206.617 53.1249 206.3 53.1297 205.995 53.0642C205.689 52.9987 205.402 52.8645 205.156 52.6718C204.91 52.4791 204.711 52.2329 204.574 51.9519C204.438 51.6709 204.366 51.3625 204.366 51.05C204.366 50.7375 204.438 50.429 204.574 50.1481C204.711 49.8671 204.91 49.6209 205.156 49.4282C205.402 49.2355 205.689 49.1013 205.995 49.0358C206.3 48.9703 206.617 48.9751 206.92 49.05V49Z" fill="white" stroke="#171A1C" stroke-miterlimit="10"/>
<path d="M150.23 71H150.15C150.006 70.9754 149.877 70.8962 149.789 70.7789C149.702 70.6617 149.663 70.5152 149.68 70.37C149.848 69.3493 150.277 68.3894 150.925 67.5834C151.573 66.7775 152.419 66.1528 153.38 65.77C153.449 65.7448 153.522 65.7336 153.595 65.7371C153.669 65.7406 153.74 65.7587 153.807 65.7904C153.873 65.8221 153.932 65.8667 153.981 65.9216C154.029 65.9764 154.066 66.0405 154.09 66.11C154.138 66.2492 154.129 66.4019 154.066 66.5348C154.002 66.6677 153.889 66.7702 153.75 66.82C152.978 67.1322 152.297 67.6356 151.772 68.2827C151.248 68.9299 150.896 69.6997 150.75 70.52C150.732 70.6476 150.67 70.7651 150.575 70.8525C150.481 70.94 150.359 70.9921 150.23 71Z" fill="white"/>
<path d="M106.49 63C111.28 63 115.17 67.24 115.41 71.68H107.29V72.8H97.57C97.57 72.8 97.57 72.3 97.57 72.11C97.5643 69.7249 98.4963 67.4331 100.165 65.7289C101.834 64.0247 104.105 63.0446 106.49 63Z" fill="#171A1C"/>
<path d="M109.44 84.17C115.256 84.17 119.97 79.4555 119.97 73.64C119.97 67.8244 115.256 63.11 109.44 63.11C103.624 63.11 98.91 67.8244 98.91 73.64C98.91 79.4555 103.624 84.17 109.44 84.17Z" fill="#171A1C"/>
<path d="M109.44 84.7199C107.249 84.7199 105.106 84.0701 103.284 82.8526C101.462 81.6351 100.042 79.9047 99.2034 77.8801C98.3648 75.8555 98.1454 73.6277 98.5729 71.4783C99.0004 69.329 100.056 67.3548 101.605 65.8052C103.155 64.2556 105.129 63.2004 107.278 62.7728C109.428 62.3453 111.656 62.5647 113.68 63.4034C115.705 64.242 117.435 65.6621 118.653 67.4842C119.87 69.3063 120.52 71.4485 120.52 73.6399C120.517 76.5777 119.349 79.3944 117.272 81.4718C115.194 83.5491 112.378 84.7173 109.44 84.7199ZM109.44 63.7199C107.462 63.7199 105.529 64.3064 103.884 65.4052C102.24 66.5041 100.958 68.0658 100.201 69.8931C99.4443 71.7204 99.2463 73.731 99.6321 75.6708C100.018 77.6107 100.97 79.3925 102.369 80.791C103.767 82.1895 105.549 83.1419 107.489 83.5278C109.429 83.9136 111.44 83.7156 113.267 82.9587C115.094 82.2019 116.656 80.9201 117.755 79.2756C118.854 77.6312 119.44 75.6978 119.44 73.7199C119.447 72.4025 119.193 71.0968 118.693 69.8777C118.194 68.6587 117.458 67.5504 116.529 66.6165C115.6 65.6826 114.495 64.9416 113.278 64.4359C112.062 63.9302 110.757 63.6699 109.44 63.6699V63.7199Z" fill="#171A1C"/>
<path d="M110.49 84.17C116.306 84.17 121.02 79.4555 121.02 73.64C121.02 67.8244 116.306 63.11 110.49 63.11C104.674 63.11 99.96 67.8244 99.96 73.64C99.96 79.4555 104.674 84.17 110.49 84.17Z" fill="#171A1C"/>
<path d="M110.49 84.7199C108.299 84.7199 106.156 84.0701 104.334 82.8526C102.512 81.6351 101.092 79.9047 100.253 77.8801C99.4148 75.8555 99.1954 73.6277 99.6229 71.4783C100.05 69.329 101.106 67.3548 102.655 65.8052C104.205 64.2556 106.179 63.2004 108.328 62.7728C110.478 62.3453 112.706 62.5647 114.73 63.4034C116.755 64.242 118.485 65.6621 119.703 67.4842C120.92 69.3063 121.57 71.4485 121.57 73.6399C121.567 76.5777 120.399 79.3944 118.322 81.4718C116.244 83.5491 113.428 84.7173 110.49 84.7199ZM110.49 63.7199C108.512 63.7199 106.579 64.3064 104.934 65.4052C103.29 66.5041 102.008 68.0658 101.251 69.8931C100.494 71.7204 100.296 73.731 100.682 75.6708C101.068 77.6107 102.02 79.3925 103.419 80.791C104.817 82.1895 106.599 83.1419 108.539 83.5278C110.479 83.9136 112.49 83.7156 114.317 82.9587C116.144 82.2019 117.706 80.9201 118.805 79.2756C119.904 77.6312 120.49 75.6978 120.49 73.7199C120.497 72.4025 120.243 71.0968 119.743 69.8777C119.244 68.6587 118.508 67.5504 117.579 66.6165C116.65 65.6826 115.545 64.9416 114.328 64.4359C113.112 63.9302 111.807 63.6699 110.49 63.6699V63.7199Z" fill="#171A1C"/>
<path d="M106.81 79.25C109.235 79.25 111.2 76.7383 111.2 73.64C111.2 70.5417 109.235 68.03 106.81 68.03C104.385 68.03 102.42 70.5417 102.42 73.64C102.42 76.7383 104.385 79.25 106.81 79.25Z" fill="white"/>
<path d="M106.81 79.81C104.08 79.81 101.81 77.04 101.81 73.64C101.81 70.24 104.03 67.47 106.81 67.47C109.59 67.47 111.75 70.23 111.75 73.64C111.75 77.05 109.53 79.81 106.81 79.81ZM106.81 68.58C104.69 68.58 102.97 70.85 102.97 73.64C102.97 76.43 104.69 78.64 106.81 78.64C108.93 78.64 110.64 76.38 110.64 73.64C110.64 70.9 108.92 68.58 106.81 68.58Z" fill="#171A1C"/>
<path d="M101.31 71H101.23C101.086 70.9754 100.957 70.8962 100.869 70.7789C100.782 70.6617 100.743 70.5152 100.76 70.37C100.928 69.3493 101.357 68.3894 102.005 67.5834C102.653 66.7775 103.499 66.1528 104.46 65.77C104.529 65.7448 104.602 65.7336 104.675 65.7371C104.749 65.7406 104.82 65.7587 104.887 65.7904C104.953 65.8221 105.012 65.8667 105.061 65.9216C105.109 65.9764 105.146 66.0405 105.17 66.11C105.218 66.2492 105.209 66.4019 105.146 66.5348C105.082 66.6677 104.969 66.7702 104.83 66.82C104.058 67.1322 103.377 67.6356 102.852 68.2827C102.328 68.9299 101.976 69.6997 101.83 70.52C101.814 70.6484 101.753 70.7669 101.657 70.8547C101.562 70.9425 101.439 70.9939 101.31 71Z" fill="white"/>
<path d="M21.36 71H21.24C21.0956 70.9666 20.9702 70.8774 20.8915 70.7518C20.8128 70.6262 20.7871 70.4745 20.82 70.33C21.068 69.3574 21.5223 68.4495 22.1521 67.6679C22.7819 66.8863 23.5724 66.2492 24.47 65.8C24.5356 65.7697 24.6066 65.7527 24.6788 65.7499C24.7511 65.7471 24.8232 65.7586 24.891 65.7837C24.9588 65.8087 25.0209 65.8469 25.074 65.8961C25.127 65.9452 25.1698 66.0043 25.2 66.07C25.2608 66.2053 25.2655 66.3592 25.213 66.4979C25.1605 66.6366 25.0551 66.7489 24.92 66.81C24.1866 67.197 23.5413 67.7318 23.025 68.3806C22.5086 69.0295 22.1324 69.7784 21.92 70.58C21.8899 70.7041 21.8176 70.8139 21.7154 70.8906C21.6132 70.9672 21.4876 71.0059 21.36 71Z" fill="white"/>
<path d="M55.22 63C60 63 63.9 67.24 64.14 71.68H57.26V72.8H46.26C46.26 72.8 46.26 72.3 46.26 72.11C46.2545 69.7181 47.192 67.4204 48.8692 65.715C50.5465 64.0097 52.8283 63.0342 55.22 63Z" fill="#171A1C"/>
<path d="M52.12 84.17C57.9356 84.17 62.65 79.4555 62.65 73.64C62.65 67.8244 57.9356 63.11 52.12 63.11C46.3044 63.11 41.59 67.8244 41.59 73.64C41.59 79.4555 46.3044 84.17 52.12 84.17Z" fill="#333333"/>
<path d="M52.12 84.7199C49.9286 84.7199 47.7864 84.0701 45.9643 82.8526C44.1422 81.6351 42.722 79.9047 41.8834 77.8801C41.0448 75.8555 40.8254 73.6277 41.2529 71.4783C41.6804 69.329 42.7357 67.3548 44.2852 65.8052C45.8348 64.2556 47.8091 63.2004 49.9584 62.7728C52.1077 62.3453 54.3355 62.5647 56.3601 63.4034C58.3847 64.242 60.1152 65.6621 61.3327 67.4842C62.5502 69.3063 63.2 71.4485 63.2 73.6399C63.1947 76.5769 62.0256 79.3921 59.9489 81.4688C57.8721 83.5456 55.057 84.7147 52.12 84.7199ZM52.12 63.7199C50.1422 63.7199 48.2088 64.3064 46.5643 65.4052C44.9198 66.5041 43.6381 68.0658 42.8812 69.8931C42.1243 71.7204 41.9263 73.731 42.3121 75.6708C42.698 77.6107 43.6504 79.3925 45.0489 80.791C46.4474 82.1895 48.2293 83.1419 50.1691 83.5278C52.1089 83.9136 54.1196 83.7156 55.9468 82.9587C57.7741 82.2019 59.3359 80.9201 60.4347 79.2756C61.5335 77.6312 62.12 75.6978 62.12 73.7199C62.1266 72.4025 61.8728 71.0968 61.3732 69.8777C60.8736 68.6587 60.138 67.5504 59.2088 66.6165C58.2795 65.6826 57.1749 64.9416 55.9584 64.4359C54.7419 63.9302 53.4374 63.6699 52.12 63.6699V63.7199Z" fill="#171A1C"/>
<path d="M53.17 84.17C58.9856 84.17 63.7 79.4555 63.7 73.64C63.7 67.8244 58.9856 63.11 53.17 63.11C47.3545 63.11 42.64 67.8244 42.64 73.64C42.64 79.4555 47.3545 84.17 53.17 84.17Z" fill="#171A1C"/>
<path d="M53.17 84.7199C50.9786 84.7199 48.8364 84.0701 47.0143 82.8526C45.1922 81.6351 43.772 79.9047 42.9334 77.8801C42.0948 75.8555 41.8754 73.6277 42.3029 71.4783C42.7304 69.329 43.7857 67.3548 45.3353 65.8052C46.8848 64.2556 48.8591 63.2004 51.0084 62.7728C53.1577 62.3453 55.3855 62.5647 57.4101 63.4034C59.4347 64.242 61.1652 65.6621 62.3827 67.4842C63.6002 69.3063 64.25 71.4485 64.25 73.6399C64.2474 76.5777 63.0792 79.3944 61.0018 81.4718C58.9245 83.5491 56.1078 84.7173 53.17 84.7199ZM53.17 63.7199C51.1922 63.7199 49.2588 64.3064 47.6143 65.4052C45.9698 66.5041 44.6881 68.0658 43.9312 69.8931C43.1743 71.7204 42.9763 73.731 43.3622 75.6708C43.748 77.6107 44.7004 79.3925 46.0989 80.791C47.4975 82.1895 49.2793 83.1419 51.2191 83.5278C53.1589 83.9136 55.1696 83.7156 56.9968 82.9587C58.8241 82.2019 60.3859 80.9201 61.4847 79.2756C62.5835 77.6312 63.17 75.6978 63.17 73.7199C63.1766 72.4025 62.9228 71.0968 62.4232 69.8777C61.9236 68.6587 61.188 67.5504 60.2588 66.6165C59.3296 65.6826 58.2249 64.9416 57.0084 64.4359C55.7919 63.9302 54.4874 63.6699 53.17 63.6699V63.7199Z" fill="#171A1C"/>
<path d="M49.48 79.13C51.8548 79.13 53.78 76.6721 53.78 73.64C53.78 70.608 51.8548 68.15 49.48 68.15C47.1052 68.15 45.18 70.608 45.18 73.64C45.18 76.6721 47.1052 79.13 49.48 79.13Z" fill="white"/>
<path d="M49.48 79.6801C46.81 79.6801 44.63 76.9701 44.63 73.6801C44.63 70.3901 46.81 67.6801 49.48 67.6801C52.15 67.6801 54.34 70.3901 54.34 73.6801C54.34 76.9701 52.16 79.6801 49.48 79.6801ZM49.48 68.6801C47.42 68.6801 45.74 70.9001 45.74 73.6201C45.74 76.3401 47.42 78.5501 49.48 78.5501C51.54 78.5501 53.23 76.3401 53.23 73.6201C53.23 70.9001 51.55 68.7001 49.48 68.7001V68.6801Z" fill="#171A1C"/>
<path d="M43.6 71H43.47C43.3269 70.9644 43.2032 70.8747 43.1249 70.7497C43.0466 70.6248 43.0197 70.4744 43.05 70.33C43.298 69.3574 43.7523 68.4495 44.3821 67.6679C45.0119 66.8863 45.8024 66.2493 46.7 65.8001C46.834 65.7385 46.9869 65.7324 47.1255 65.7829C47.264 65.8335 47.3771 65.9367 47.44 66.07C47.4982 66.2056 47.5015 66.3585 47.4493 66.4965C47.3971 66.6345 47.2934 66.7469 47.16 66.81C46.4217 67.1904 45.7725 67.7232 45.2554 68.3731C44.7382 69.023 44.3649 69.7752 44.16 70.58C44.1299 70.7042 44.0576 70.814 43.9554 70.8906C43.8533 70.9673 43.7276 71.006 43.6 71Z" fill="white"/>
<path d="M206.55 57.27H178.19C177.483 57.27 176.91 57.8431 176.91 58.55V58.84C176.91 59.5469 177.483 60.12 178.19 60.12H206.55C207.257 60.12 207.83 59.5469 207.83 58.84V58.55C207.83 57.8431 207.257 57.27 206.55 57.27Z" fill="#171A1C"/>
<path d="M206.41 60.6801H178.34C177.81 60.6801 177.301 60.4693 176.926 60.0943C176.551 59.7192 176.34 59.2105 176.34 58.6801C176.34 58.1496 176.551 57.6409 176.926 57.2658C177.301 56.8908 177.81 56.6801 178.34 56.6801H206.41C206.94 56.6801 207.449 56.8908 207.824 57.2658C208.199 57.6409 208.41 58.1496 208.41 58.6801C208.41 59.2105 208.199 59.7192 207.824 60.0943C207.449 60.4693 206.94 60.6801 206.41 60.6801ZM178.34 57.8301C178.219 57.817 178.096 57.8296 177.98 57.8671C177.863 57.9046 177.756 57.9662 177.666 58.0478C177.575 58.1294 177.502 58.2292 177.452 58.3407C177.403 58.4522 177.377 58.5729 177.377 58.6951C177.377 58.8172 177.403 58.9379 177.452 59.0494C177.502 59.1609 177.575 59.2607 177.666 59.3423C177.756 59.4239 177.863 59.4855 177.98 59.523C178.096 59.5605 178.219 59.5731 178.34 59.5601H206.41C206.531 59.5731 206.654 59.5605 206.77 59.523C206.887 59.4855 206.994 59.4239 207.084 59.3423C207.175 59.2607 207.248 59.1609 207.298 59.0494C207.347 58.9379 207.373 58.8172 207.373 58.6951C207.373 58.5729 207.347 58.4522 207.298 58.3407C207.248 58.2292 207.175 58.1294 207.084 58.0478C206.994 57.9662 206.887 57.9046 206.77 57.8671C206.654 57.8296 206.531 57.817 206.41 57.8301H178.34Z" fill="#171A1C"/>
<path d="M206.55 62.83H178.19C177.483 62.83 176.91 63.403 176.91 64.11V64.4C176.91 65.1069 177.483 65.68 178.19 65.68H206.55C207.257 65.68 207.83 65.1069 207.83 64.4V64.11C207.83 63.403 207.257 62.83 206.55 62.83Z" fill="#171A1C"/>
<path d="M206.41 66.23H178.34C177.81 66.23 177.301 66.0193 176.926 65.6442C176.551 65.2691 176.34 64.7604 176.34 64.23C176.34 63.6996 176.551 63.1908 176.926 62.8158C177.301 62.4407 177.81 62.23 178.34 62.23H206.41C206.94 62.23 207.449 62.4407 207.824 62.8158C208.199 63.1908 208.41 63.6996 208.41 64.23C208.41 64.7604 208.199 65.2691 207.824 65.6442C207.449 66.0193 206.94 66.23 206.41 66.23ZM178.34 63.39C178.219 63.3769 178.096 63.3895 177.98 63.4271C177.863 63.4646 177.756 63.5261 177.666 63.6077C177.575 63.6893 177.502 63.7891 177.452 63.9006C177.403 64.0121 177.377 64.1329 177.377 64.255C177.377 64.3771 177.403 64.4978 177.452 64.6093C177.502 64.7209 177.575 64.8207 177.666 64.9023C177.756 64.9838 177.863 65.0454 177.98 65.0829C178.096 65.1204 178.219 65.1331 178.34 65.12H206.41C206.531 65.1331 206.654 65.1204 206.77 65.0829C206.887 65.0454 206.994 64.9838 207.084 64.9023C207.175 64.8207 207.248 64.7209 207.298 64.6093C207.347 64.4978 207.373 64.3771 207.373 64.255C207.373 64.1329 207.347 64.0121 207.298 63.9006C207.248 63.7891 207.175 63.6893 207.084 63.6077C206.994 63.5261 206.887 63.4646 206.77 63.4271C206.654 63.3895 206.531 63.3769 206.41 63.39H178.34Z" fill="#171A1C"/>
</svg>
