<svg width="113" height="92" viewBox="0 0 113 92" fill="none" xmlns="http://www.w3.org/2000/svg">
<path d="M47 18.17L46.41 14.5H51.92L53.04 21.4L47.47 34L43.55 32.26L42.48 29.81L47 21.4V18.17Z" fill="#FF8338"/>
<path d="M32.57 24.04L25.32 29L20.86 21L25.26 10.34L33.58 6.61998L41.89 8.96998L46.59 16.02L53.04 15.92L46 4.85998L32.99 0.849976L22.5 5.49998L16.26 14.93V23.5L26.34 41.45L34.11 50.26L43.99 39.79L49.23 31.07L41.99 28.73L38.27 25L37 22.91L37.88 19.34L34.65 15.62L30.64 17L30.05 21.79L32.57 24.04Z" fill="#FF8338"/>
<path d="M32.04 23.81L25.32 29L21.22 21.53L23.76 10.96L32.04 6.84998H38.24L46.33 13.57L47 21.4L43.06 29.48H41.89L40.26 25L36.15 23.5L38.5 20.42L37.59 17L32.57 16.31L30.22 18.53L31.06 21.98L32.04 23.81Z" fill="#FFA670"/>
<path d="M101 39.17L100.41 35.5H105.92L107.04 42.4L101.47 55L97.55 53.26L96.48 50.81L101 42.4V39.17Z" fill="#FF8338"/>
<path d="M86.57 45.04L79.33 50L74.86 42L79.26 31.34L87.58 27.62L95.89 29.97L100.58 37.02L107.04 36.92L100 25.86L86.99 21.85L76.5 26.5L70.26 35.93V44.5L80.33 62.45L88.11 71.25L97.99 60.79L103.23 52.07L95.99 49.73L92.27 46L91 43.91L91.88 40.34L88.65 36.62L84.64 38L84.05 42.79L86.57 45.04Z" fill="#FF8338"/>
<path d="M86.04 44.81L79.33 50L75.22 42.53L77.76 31.96L86.04 27.85H92.24L100.33 34.57L101 42.4L97.06 50.48H95.89L94.26 46L90.15 44.5L92.5 41.42L91.58 38L86.57 37.31L84.22 39.53L85.06 42.98L86.04 44.81Z" fill="#FFA670"/>
<path d="M111.15 83.61H1V89.87H111.15V83.61Z" fill="#FFA670"/>
<path d="M22.5 34.75L34.63 49.86L47.86 34.75L71.34 34L69.97 42.62L82 64.64L88.63 70.8L95.5 63.17L102.5 53.29L111.15 83.22L0.679993 83.85L11.86 35.25L22.5 34.75Z" fill="#FFA670"/>
<path d="M62.24 34.51L55.91 49.25L49.33 57.07L38.43 63.01L9.35 72L2.66 75.25L1 83.29V90.98L55.39 90.72L56.25 79.11L62.92 68.35L78.49 59.25L70.26 44.99L70.45 34.51H62.24Z" fill="#FF8338"/>
<path d="M34.63 51.5C32.33 51.5 23.91 39.69 23.82 39.57C19.73 33.75 14.82 25.57 14.82 19.79C14.82 14.5414 16.905 9.5077 20.6164 5.79636C24.3277 2.08501 29.3614 0 34.61 0C39.8586 0 44.8923 2.08501 48.6036 5.79636C52.315 9.5077 54.4 14.5414 54.4 19.79C54.4 25.59 49.51 33.79 45.4 39.57C45.35 39.69 36.93 51.5 34.63 51.5ZM34.63 2.5C30.046 2.50529 25.6513 4.32861 22.41 7.56997C19.1686 10.8113 17.3453 15.206 17.34 19.79C17.34 28.79 31.48 46.05 34.63 48.79C37.78 46.07 51.92 28.79 51.92 19.79C51.9147 15.206 50.0914 10.8113 46.85 7.56997C43.6087 4.32861 39.214 2.50529 34.63 2.5Z" fill="#171A1C"/>
<path d="M34.25 34C31.4316 34 28.6765 33.1643 26.3331 31.5984C23.9897 30.0326 22.1633 27.8071 21.0847 25.2032C20.0062 22.5994 19.724 19.7342 20.2738 16.97C20.8237 14.2057 22.1808 11.6666 24.1737 9.67373C26.1666 7.68084 28.7057 6.32366 31.47 5.77382C34.2342 5.22398 37.0994 5.50617 39.7032 6.58472C42.3071 7.66327 44.5326 9.48973 46.0984 11.8331C47.6643 14.1765 48.5 16.9316 48.5 19.75C48.4974 23.5285 46.9952 27.1515 44.3234 29.8234C41.6515 32.4952 38.0285 33.9974 34.25 34ZM34.25 8.00001C31.9261 8.00001 29.6543 8.68913 27.7221 9.98024C25.7898 11.2713 24.2838 13.1064 23.3944 15.2535C22.5051 17.4005 22.2724 19.763 22.7258 22.0423C23.1792 24.3216 24.2982 26.4152 25.9415 28.0585C27.5848 29.7018 29.6784 30.8209 31.9577 31.2742C34.237 31.7276 36.5995 31.4949 38.7465 30.6056C40.8936 29.7163 42.7287 28.2102 44.0198 26.278C45.3109 24.3457 46 22.0739 46 19.75C45.9974 16.6345 44.7586 13.6474 42.5556 11.4444C40.3526 9.24145 37.3655 8.00265 34.25 8.00001Z" fill="#171A1C"/>
<path d="M34.25 25C33.2116 25 32.1966 24.6921 31.3333 24.1152C30.4699 23.5383 29.797 22.7184 29.3996 21.7591C29.0023 20.7998 28.8983 19.7442 29.1009 18.7258C29.3035 17.7074 29.8035 16.7719 30.5377 16.0377C31.2719 15.3035 32.2074 14.8035 33.2258 14.6009C34.2442 14.3983 35.2998 14.5023 36.2591 14.8996C37.2184 15.297 38.0383 15.9699 38.6152 16.8333C39.1921 17.6966 39.5 18.7117 39.5 19.75C39.4974 21.1416 38.9434 22.4754 37.9594 23.4594C36.9754 24.4434 35.6416 24.9974 34.25 25ZM34.25 17C33.7061 17 33.1744 17.1613 32.7222 17.4635C32.2699 17.7656 31.9175 18.1951 31.7093 18.6976C31.5012 19.2001 31.4467 19.7531 31.5528 20.2865C31.659 20.8199 31.9209 21.31 32.3055 21.6945C32.6901 22.0791 33.1801 22.3411 33.7135 22.4472C34.247 22.5533 34.7999 22.4988 35.3024 22.2907C35.8049 22.0825 36.2344 21.7301 36.5365 21.2778C36.8387 20.8256 37 20.2939 37 19.75C37 19.0207 36.7103 18.3212 36.1945 17.8055C35.6788 17.2897 34.9793 17 34.25 17Z" fill="#171A1C"/>
<path d="M25.74 31.07C25.6003 31.0712 25.4615 31.0475 25.33 31C25.0172 30.8911 24.7604 30.6625 24.616 30.3644C24.4716 30.0662 24.4515 29.723 24.56 29.41C25.2598 27.4004 26.5676 25.6583 28.3022 24.4256C30.0368 23.1928 32.112 22.5305 34.24 22.5305C36.368 22.5305 38.4433 23.1928 40.1778 24.4256C41.9124 25.6583 43.2203 27.4004 43.92 29.41C43.9808 29.5666 44.0094 29.7338 44.0041 29.9016C43.9988 30.0694 43.9598 30.2345 43.8893 30.3869C43.8188 30.5393 43.7183 30.676 43.5939 30.7887C43.4695 30.9014 43.3236 30.9879 43.165 31.043C43.0063 31.0982 42.8382 31.1207 42.6707 31.1095C42.5032 31.0982 42.3396 31.0533 42.1898 30.9774C42.04 30.9015 41.9071 30.7962 41.7989 30.6678C41.6906 30.5394 41.6094 30.3905 41.56 30.23C41.1797 29.1247 40.5525 28.1206 39.726 27.2941C38.8994 26.4675 37.8953 25.8403 36.79 25.46C34.8484 24.7889 32.7201 24.9139 30.8704 25.8078C29.0208 26.7017 27.6004 28.2917 26.92 30.23C26.8362 30.4761 26.6771 30.6895 26.4654 30.8402C26.2537 30.991 25.9999 31.0714 25.74 31.07Z" fill="#171A1C"/>
<path d="M88.63 72.5C86.33 72.5 77.91 60.69 77.82 60.57C73.73 54.75 68.82 46.57 68.82 40.79C68.82 35.5414 70.905 30.5077 74.6164 26.7964C78.3277 23.085 83.3614 21 88.61 21C93.8586 21 98.8923 23.085 102.604 26.7964C106.315 30.5077 108.4 35.5414 108.4 40.79C108.4 46.59 103.51 54.79 99.4 60.57C99.35 60.69 90.93 72.5 88.63 72.5ZM88.63 23.5C84.046 23.5053 79.6513 25.3286 76.41 28.57C73.1686 31.8113 71.3453 36.206 71.34 40.79C71.34 49.79 85.48 67.05 88.63 69.79C91.78 67.07 105.92 49.79 105.92 40.79C105.915 36.206 104.091 31.8113 100.85 28.57C97.6087 25.3286 93.214 23.5053 88.63 23.5Z" fill="#171A1C"/>
<path d="M88.25 55C85.4316 55 82.6765 54.1643 80.3331 52.5984C77.9897 51.0326 76.1633 48.8071 75.0847 46.2032C74.0062 43.5994 73.724 40.7342 74.2738 37.97C74.8237 35.2057 76.1808 32.6666 78.1737 30.6737C80.1666 28.6808 82.7057 27.3237 85.47 26.7738C88.2342 26.224 91.0994 26.5062 93.7032 27.5847C96.3071 28.6633 98.5326 30.4897 100.098 32.8331C101.664 35.1765 102.5 37.9316 102.5 40.75C102.497 44.5285 100.995 48.1515 98.3234 50.8234C95.6515 53.4952 92.0285 54.9974 88.25 55ZM88.25 29C85.9261 29 83.6543 29.6891 81.7221 30.9802C79.7898 32.2713 78.2838 34.1064 77.3944 36.2535C76.5051 38.4005 76.2724 40.763 76.7258 43.0423C77.1792 45.3216 78.2982 47.4152 79.9415 49.0585C81.5848 50.7018 83.6784 51.8209 85.9577 52.2742C88.237 52.7276 90.5995 52.4949 92.7465 51.6056C94.8936 50.7163 96.7287 49.2102 98.0198 47.278C99.3109 45.3457 100 43.0739 100 40.75C99.9974 37.6345 98.7586 34.6474 96.5556 32.4444C94.3526 30.2414 91.3655 29.0027 88.25 29Z" fill="#171A1C"/>
<path d="M88.25 46C87.2117 46 86.1966 45.6921 85.3333 45.1152C84.4699 44.5383 83.797 43.7184 83.3996 42.7591C83.0023 41.7998 82.8983 40.7442 83.1009 39.7258C83.3035 38.7074 83.8035 37.7719 84.5377 37.0377C85.2719 36.3035 86.2074 35.8035 87.2258 35.6009C88.2442 35.3983 89.2998 35.5023 90.2591 35.8996C91.2184 36.297 92.0383 36.9699 92.6152 37.8333C93.1921 38.6966 93.5 39.7117 93.5 40.75C93.4974 42.1416 92.9434 43.4754 91.9594 44.4594C90.9754 45.4434 89.6416 45.9974 88.25 46ZM88.25 38C87.7061 38 87.1744 38.1613 86.7222 38.4635C86.27 38.7656 85.9175 39.1951 85.7093 39.6976C85.5012 40.2001 85.4467 40.7531 85.5528 41.2865C85.659 41.82 85.9209 42.31 86.3055 42.6945C86.6901 43.0791 87.1801 43.3411 87.7135 43.4472C88.247 43.5533 88.7999 43.4988 89.3024 43.2907C89.8049 43.0825 90.2344 42.7301 90.5365 42.2778C90.8387 41.8256 91 41.2939 91 40.75C91 40.0207 90.7103 39.3212 90.1945 38.8055C89.6788 38.2897 88.9793 38 88.25 38Z" fill="#171A1C"/>
<path d="M79.74 52.07C79.6003 52.0712 79.4615 52.0475 79.33 52C79.0172 51.8911 78.7604 51.6625 78.616 51.3644C78.4716 51.0662 78.4515 50.723 78.56 50.41C79.2598 48.4004 80.5676 46.6583 82.3022 45.4256C84.0368 44.1928 86.112 43.5305 88.24 43.5305C90.368 43.5305 92.4433 44.1928 94.1778 45.4256C95.9124 46.6583 97.2203 48.4004 97.92 50.41C98.0153 50.7195 97.9867 51.0538 97.8404 51.3427C97.6941 51.6315 97.4414 51.8523 97.1356 51.9586C96.8298 52.0648 96.4946 52.0483 96.2007 51.9124C95.9068 51.7765 95.6772 51.5319 95.56 51.23C95.1797 50.1247 94.5525 49.1206 93.726 48.2941C92.8994 47.4675 91.8953 46.8403 90.79 46.46C88.8484 45.7889 86.7201 45.9139 84.8704 46.8078C83.0208 47.7017 81.6004 49.2917 80.92 51.23C80.8362 51.4761 80.6772 51.6895 80.4654 51.8402C80.2537 51.991 79.9999 52.0714 79.74 52.07Z" fill="#171A1C"/>
<path d="M109.66 85H2.77C2.35269 85.0013 1.9419 84.8965 1.57628 84.6953C1.21066 84.4941 0.902228 84.2032 0.680002 83.85C0.332956 83.2999 0.2179 82.6347 0.360002 82L11.25 33.5H20.25C20.5815 33.5 20.8995 33.6317 21.1339 33.8661C21.3683 34.1005 21.5 34.4185 21.5 34.75C21.5 35.0815 21.3683 35.3995 21.1339 35.6339C20.8995 35.8683 20.5815 36 20.25 36H13.25L2.8 82.53H109.66L101.79 53C101.748 52.8411 101.738 52.6755 101.76 52.5126C101.782 52.3497 101.835 52.1927 101.918 52.0507C102.001 51.9086 102.111 51.7842 102.241 51.6846C102.372 51.5849 102.521 51.512 102.68 51.47C102.839 51.428 103.005 51.4177 103.167 51.4396C103.33 51.4616 103.487 51.5155 103.629 51.5981C103.771 51.6808 103.896 51.7906 103.995 51.9213C104.095 52.052 104.168 52.2011 104.21 52.36L112.05 81.91C112.101 82.1195 112.128 82.3343 112.13 82.55C112.125 83.2016 111.862 83.8247 111.4 84.2836C110.937 84.7425 110.312 85 109.66 85Z" fill="#171A1C"/>
<path d="M71.1 36H48.25C47.9185 36 47.6005 35.8683 47.3661 35.6339C47.1317 35.3995 47 35.0815 47 34.75C47 34.4185 47.1317 34.1005 47.3661 33.8661C47.6005 33.6317 47.9185 33.5 48.25 33.5H71.1C71.4315 33.5 71.7495 33.6317 71.9839 33.8661C72.2183 34.1005 72.35 34.4185 72.35 34.75C72.35 35.0815 72.2183 35.3995 71.9839 35.6339C71.7495 35.8683 71.4315 36 71.1 36Z" fill="#171A1C"/>
<path d="M110.81 92H1.69C1.24178 92 0.811926 91.8219 0.49499 91.505C0.178053 91.1881 0 90.7582 0 90.31L0 82.75C0 82.4185 0.131696 82.1005 0.366117 81.8661C0.600537 81.6317 0.918479 81.5 1.25 81.5C1.58152 81.5 1.89946 81.6317 2.13388 81.8661C2.3683 82.1005 2.5 82.4185 2.5 82.75V89.5H110V83.11C110 82.7785 110.132 82.4605 110.366 82.2261C110.601 81.9917 110.918 81.86 111.25 81.86C111.582 81.86 111.899 81.9917 112.134 82.2261C112.368 82.4605 112.5 82.7785 112.5 83.11V90.31C112.5 90.7582 112.322 91.1881 112.005 91.505C111.688 91.8219 111.258 92 110.81 92Z" fill="#171A1C"/>
<path d="M3 77.16C2.74676 77.1668 2.49743 77.0965 2.28505 76.9584C2.07267 76.8203 1.90727 76.6209 1.81076 76.3867C1.71424 76.1525 1.69118 75.8944 1.74462 75.6468C1.79806 75.3992 1.92548 75.1736 2.11 75C4.91 72.17 11.91 70 20.78 67.35C27.87 65.2 35.91 62.77 42.72 59.59C57 53 60.88 34.68 60.92 34.5C60.94 34.328 60.9956 34.1619 61.0832 34.0125C61.1708 33.863 61.2885 33.7334 61.4288 33.6319C61.5692 33.5303 61.7291 33.459 61.8984 33.4226C62.0678 33.3861 62.2428 33.3852 62.4126 33.42C62.5823 33.4548 62.7429 33.5244 62.8842 33.6246C63.0256 33.7247 63.1446 33.8531 63.2337 34.0017C63.3227 34.1503 63.38 34.3157 63.4017 34.4876C63.4235 34.6595 63.4093 34.834 63.36 35C63.2 35.8 59.17 54.7 43.78 61.88C36.78 65.14 28.67 67.6 21.51 69.78C13.66 72.16 6.24 74.41 3.89 76.78C3.77435 76.8994 3.63608 76.9944 3.48326 77.0597C3.33045 77.1249 3.16616 77.159 3 77.16Z" fill="#171A1C"/>
<path d="M55.25 92C54.9185 92 54.6005 91.8683 54.3661 91.6339C54.1317 91.3995 54 91.0815 54 90.75V83.49C54.13 82.89 57.24 68.84 67.66 63.63L77.66 58.63C77.8071 58.5565 77.9672 58.5126 78.1312 58.501C78.2953 58.4893 78.46 58.5101 78.616 58.5621C78.772 58.6141 78.9162 58.6963 79.0404 58.804C79.1647 58.9118 79.2665 59.0429 79.34 59.19C79.4135 59.3371 79.4574 59.4972 79.469 59.6612C79.4807 59.8253 79.4599 59.99 79.4079 60.146C79.3559 60.302 79.2737 60.4462 79.166 60.5704C79.0582 60.6947 78.9271 60.7965 78.78 60.87L68.78 65.87C59.9 70.31 56.78 82.54 56.47 83.87V90.73C56.4754 91.0598 56.3501 91.3784 56.1216 91.6163C55.8931 91.8542 55.5798 91.9921 55.25 92Z" fill="#171A1C"/>
</svg>
