<svg width="93" height="111" viewBox="0 0 93 111" fill="none" xmlns="http://www.w3.org/2000/svg">
<path d="M4.42 97.7399L17.11 86.7399H81.77C82.9718 86.7544 84.1647 86.5312 85.28 86.0832C86.3953 85.6351 87.411 84.971 88.2688 84.129C89.1265 83.2871 89.8094 82.2839 90.2781 81.1771C90.7469 80.0703 90.9922 78.8818 91 77.6799V31.2499C90.9921 30.0522 90.7485 28.8678 90.2829 27.7644C89.8173 26.6609 89.1389 25.6599 88.2864 24.8186C87.434 23.9773 86.4242 23.3121 85.3147 22.8611C84.2051 22.4101 83.0177 22.182 81.82 22.1899H10.68C9.48234 22.182 8.29485 22.4101 7.18533 22.8611C6.07581 23.3121 5.066 23.9773 4.21356 24.8186C3.36111 25.6599 2.68272 26.6609 2.21713 27.7644C1.75153 28.8678 1.50785 30.0522 1.5 31.2499V96.4399C1.50449 96.7761 1.6052 97.104 1.79022 97.3848C1.97524 97.6656 2.23683 97.8875 2.54402 98.0243C2.85121 98.161 3.19115 98.2069 3.52361 98.1565C3.85607 98.1061 4.16714 97.9615 4.42 97.7399Z" fill="#FF8338" stroke="#171A1C" stroke-width="3" stroke-miterlimit="10" stroke-linecap="round"/>
<path d="M22.62 104.13L30.82 96.05" stroke="#171A1C" stroke-width="3" stroke-miterlimit="10" stroke-linecap="round"/>
<path d="M46.22 108.6V96.53" stroke="#171A1C" stroke-width="3" stroke-miterlimit="10" stroke-linecap="round"/>
<path d="M61.39 96.05L69.46 104.01" stroke="#171A1C" stroke-width="3" stroke-miterlimit="10" stroke-linecap="round"/>
<path d="M60.78 13.57L69.21 5.23999" stroke="#171A1C" stroke-width="3" stroke-miterlimit="10" stroke-linecap="round"/>
<path d="M46.22 1.5V13.57" stroke="#171A1C" stroke-width="3" stroke-miterlimit="10" stroke-linecap="round"/>
<path d="M22.62 5.23999L31.24 13.75" stroke="#171A1C" stroke-width="3" stroke-miterlimit="10" stroke-linecap="round"/>
<path d="M46.71 40.51V57.4501L70.17 63.8601V35.55L46.71 40.51Z" fill="#FFA670" stroke="#171A1C" stroke-width="3" stroke-miterlimit="10"/>
<path d="M22.27 48.46C22.27 40.55 31.05 40.55 31.05 40.55H46.71V57.39H32.41C32.41 57.39 22.27 58.19 22.27 48.46Z" fill="#FFA670" stroke="#171A1C" stroke-width="3" stroke-miterlimit="10"/>
<path d="M31.88 41.4099V56.2099" stroke="#171A1C" stroke-width="3" stroke-miterlimit="10"/>
<path d="M40.46 57.76C40.46 57.76 48.58 71.76 46.31 72.24C44.04 72.72 40.72 74 39.55 72.24C38.38 70.48 33.44 57.76 33.44 57.76H40.46Z" fill="#FFA670" stroke="#171A1C" stroke-width="3" stroke-miterlimit="10"/>
</svg>
