<svg width="108" height="88" viewBox="0 0 108 88" fill="none" xmlns="http://www.w3.org/2000/svg">
<path d="M2.01458 52.3996V71.3982C2.01457 71.9215 2.22317 72.4236 2.59477 72.7947C2.96637 73.1657 3.47076 73.3755 3.99767 73.3783H104.433C104.961 73.3783 105.468 73.1697 105.842 72.7983C106.216 72.427 106.426 71.9233 106.426 71.3982V52.9311C106.433 52.5641 106.335 52.2027 106.143 51.889L91.8414 27.7108C91.6673 27.4134 91.4178 27.1665 91.1178 26.9946C90.8177 26.8227 90.4775 26.7319 90.1312 26.7312H1.99359L2.01458 52.3996Z" fill="#FF8338" stroke="#171A1C" stroke-width="3" stroke-miterlimit="10"/>
<path d="M64.1725 1.56299H5.06791C3.13821 1.56299 1.57388 3.11674 1.57388 5.03338V54.5985C1.57388 56.5152 3.13821 58.0689 5.06791 58.0689H64.1725C66.1022 58.0689 67.6666 56.5152 67.6666 54.5985V5.03338C67.6666 3.11674 66.1022 1.56299 64.1725 1.56299Z" fill="#FFA670" stroke="#171A1C" stroke-width="3" stroke-miterlimit="10"/>
<path d="M83.6467 86.447C89.8009 86.447 94.7898 81.4918 94.7898 75.3793C94.7898 69.2667 89.8009 64.3115 83.6467 64.3115C77.4926 64.3115 72.5036 69.2667 72.5036 75.3793C72.5036 81.4918 77.4926 86.447 83.6467 86.447Z" fill="#FF8338" stroke="#171A1C" stroke-width="3" stroke-miterlimit="10"/>
<path d="M83.6467 79.0788C85.7039 79.0788 87.3716 77.4224 87.3716 75.3791C87.3716 73.3358 85.7039 71.6794 83.6467 71.6794C81.5896 71.6794 79.9219 73.3358 79.9219 75.3791C79.9219 77.4224 81.5896 79.0788 83.6467 79.0788Z" fill="#FFA670" stroke="#171A1C" stroke-width="3" stroke-miterlimit="10"/>
<path d="M22.0973 86.447C28.2515 86.447 33.2404 81.4918 33.2404 75.3793C33.2404 69.2667 28.2515 64.3115 22.0973 64.3115C15.9432 64.3115 10.9542 69.2667 10.9542 75.3793C10.9542 81.4918 15.9432 86.447 22.0973 86.447Z" fill="#FF8338" stroke="#171A1C" stroke-width="3" stroke-miterlimit="10"/>
<path d="M22.0974 79.0788C24.1545 79.0788 25.8222 77.4224 25.8222 75.3791C25.8222 73.3358 24.1545 71.6794 22.0974 71.6794C20.0402 71.6794 18.3725 73.3358 18.3725 75.3791C18.3725 77.4224 20.0402 79.0788 22.0974 79.0788Z" fill="#FFA670" stroke="#171A1C" stroke-width="3" stroke-miterlimit="10"/>
<path d="M74.4028 54.1504H75.9977" stroke="#171A1C" stroke-width="3" stroke-miterlimit="10" stroke-linecap="round"/>
<path d="M74.9589 35.1518V47.2513C74.9589 47.5111 75.0628 47.7603 75.2478 47.944C75.4328 48.1277 75.6836 48.2309 75.9452 48.2309H94.4856C94.6646 48.2322 94.8405 48.1851 94.9946 48.0947C95.1487 48.0043 95.2751 47.8739 95.3603 47.7175C95.4455 47.5612 95.4862 47.3847 95.4782 47.2071C95.4701 47.0295 95.4135 46.8575 95.3145 46.7094L87.4241 34.6099C87.3346 34.4723 87.2119 34.3592 87.0671 34.2809C86.9223 34.2027 86.76 34.1617 86.5952 34.1617H75.9452C75.8148 34.1617 75.6857 34.1874 75.5653 34.2373C75.445 34.2872 75.3358 34.3603 75.2441 34.4523C75.1523 34.5444 75.0799 34.6536 75.031 34.7737C74.982 34.8938 74.9575 35.0223 74.9589 35.1518Z" fill="#FFA670" stroke="#171A1C" stroke-width="3" stroke-miterlimit="10" stroke-linecap="round"/>
<path d="M81.4118 35.1517V48.2308" stroke="#171A1C" stroke-width="3" stroke-miterlimit="10" stroke-linecap="round"/>
<path d="M33.914 15.9834C33.1523 15.9834 32.6103 16.5107 32.6103 17.2725V36.5645L32.7275 39.6992L28.3329 34.8799L24.9931 31.5986C24.7734 31.3643 24.4218 31.2471 24.0703 31.2471C23.3378 31.2471 22.8105 31.8037 22.8105 32.5215C22.8105 32.873 22.9423 33.1807 23.2206 33.4736L32.9326 43.2148C33.2109 43.5078 33.5478 43.6543 33.914 43.6543C34.2802 43.6543 34.6171 43.5078 34.8954 43.2148L44.622 33.4736C44.9003 33.1807 45.0175 32.873 45.0175 32.5215C45.0175 31.8037 44.4902 31.2471 43.7578 31.2471C43.4062 31.2471 43.0693 31.3643 42.8349 31.5986L39.4951 34.8799L35.1152 39.6846L35.2177 36.5645V17.2725C35.2177 16.5107 34.6757 15.9834 33.914 15.9834Z" fill="#171A1C"/>
</svg>
