<svg width="78" height="102" viewBox="0 0 78 102" fill="none" xmlns="http://www.w3.org/2000/svg">
<path d="M38.9951 1.47363C31.5721 1.47363 24.3159 3.67112 18.1441 7.78817C11.9723 11.9052 7.1621 17.7569 4.32191 24.6032C1.48172 31.4494 0.739095 38.9827 2.18796 46.2503C3.63682 53.5179 7.21208 60.1934 12.4616 65.4325C17.7111 70.6715 24.399 74.2389 31.6796 75.6833C38.9601 77.1278 46.5063 76.3845 53.3636 73.5474C60.221 70.7103 66.0815 65.9069 70.204 59.7446C74.3266 53.5824 76.526 46.3381 76.524 38.928C76.524 34.0086 75.5532 29.1374 73.6671 24.5926C71.781 20.0477 69.0165 15.9184 65.5315 12.4403C62.0465 8.9622 57.9092 6.20354 53.356 4.32186C48.8029 2.44018 43.923 1.47234 38.9951 1.47363ZM38.9951 58.8093C35.0561 58.8093 31.2056 57.6433 27.9305 55.4587C24.6554 53.2741 22.1027 50.1691 20.5953 46.5363C19.088 42.9034 18.6936 38.9059 19.462 35.0493C20.2305 31.1927 22.1273 27.6502 24.9125 24.8697C27.6978 22.0893 31.2464 20.1958 35.1097 19.4286C38.973 18.6615 42.9774 19.0552 46.6165 20.56C50.2556 22.0648 53.366 24.613 55.5544 27.8825C57.7428 31.152 58.9108 34.9958 58.9108 38.928C58.9108 44.2009 56.8126 49.2578 53.0776 52.9862C49.3427 56.7147 44.2771 58.8093 38.9951 58.8093Z" fill="#FF8338" stroke="#171A1C" stroke-width="3" stroke-miterlimit="10"/>
<path d="M38.9951 14.5479C34.1648 14.5479 29.443 15.9777 25.4267 18.6567C21.4105 21.3356 18.2802 25.1433 16.4318 29.5982C14.5833 34.0531 14.0997 38.9551 15.042 43.6844C15.9843 48.4137 18.3103 52.7578 21.7259 56.1675C25.1414 59.5771 29.493 61.8991 34.2305 62.8398C38.968 63.7805 43.8785 63.2977 48.3411 61.4524C52.8037 59.6071 56.618 56.4823 59.3015 52.473C61.9851 48.4637 63.4174 43.75 63.4174 38.9281C63.4148 32.4628 60.8409 26.2631 56.2614 21.6915C51.6819 17.1199 45.4715 14.5505 38.9951 14.5479ZM38.9951 56.5698C35.4921 56.5698 32.0677 55.5328 29.155 53.59C26.2424 51.6472 23.9722 48.8858 22.6317 45.655C21.2911 42.4242 20.9404 38.8691 21.6238 35.4394C22.3072 32.0096 23.9941 28.8591 26.4711 26.3864C28.9481 23.9136 32.104 22.2297 35.5397 21.5475C38.9754 20.8652 42.5367 21.2154 45.773 22.5536C49.0094 23.8918 51.7756 26.1581 53.7218 29.0657C55.6679 31.9733 56.7067 35.3918 56.7067 38.8888C56.7067 43.5781 54.8407 48.0753 51.5191 51.3912C48.1975 54.707 43.6925 56.5698 38.9951 56.5698Z" fill="#FFA670" stroke="#171A1C" stroke-width="3" stroke-miterlimit="10"/>
<path d="M36.6237 6.16906L38.08 3.04541" stroke="#171A1C" stroke-width="3" stroke-miterlimit="10" stroke-linecap="round"/>
<path d="M60.1113 14.4199L63.5847 12.8286" stroke="#171A1C" stroke-width="3" stroke-miterlimit="10" stroke-linecap="round"/>
<path d="M71.368 36.7573L73.8673 38.2111" stroke="#171A1C" stroke-width="3" stroke-miterlimit="10" stroke-linecap="round"/>
<path d="M62.955 59.8604L63.9291 63.6028" stroke="#171A1C" stroke-width="3" stroke-miterlimit="10" stroke-linecap="round"/>
<path d="M17.1015 62.8369L13.4805 64.7131" stroke="#171A1C" stroke-width="3" stroke-miterlimit="10" stroke-linecap="round"/>
<path d="M6.80913 40.9908L2.50914 38.2109" stroke="#171A1C" stroke-width="3" stroke-miterlimit="10" stroke-linecap="round"/>
<path d="M14.1102 17.5438L12.2309 13.6245" stroke="#171A1C" stroke-width="3" stroke-miterlimit="10" stroke-linecap="round"/>
<path d="M69.4492 72.4336H9.02308C5.43097 72.4336 2.51898 75.3406 2.51898 78.9265V94.0339C2.51898 97.6199 5.43097 100.527 9.02308 100.527H69.4492C73.0413 100.527 75.9533 97.6199 75.9533 94.0339V78.9265C75.9533 75.3406 73.0413 72.4336 69.4492 72.4336Z" fill="#FF8338" stroke="#171A1C" stroke-width="3" stroke-miterlimit="10"/>
<path d="M75.9533 82.8359H2.51898V88.8671H75.9533V82.8359Z" fill="#FF8338" stroke="#171A1C" stroke-width="3" stroke-miterlimit="10"/>
<path d="M13.51 76.3922L14.8286 72.4336" stroke="#171A1C" stroke-width="3" stroke-miterlimit="10" stroke-linecap="round"/>
<path d="M13.1558 96.0181L14.8286 100.252" stroke="#171A1C" stroke-width="3" stroke-miterlimit="10" stroke-linecap="round"/>
<path d="M30.5525 76.3922L31.8711 72.4336" stroke="#171A1C" stroke-width="3" stroke-miterlimit="10" stroke-linecap="round"/>
<path d="M30.2081 96.0181L31.8711 100.252" stroke="#171A1C" stroke-width="3" stroke-miterlimit="10" stroke-linecap="round"/>
<path d="M47.6049 76.3922L48.9234 72.4336" stroke="#171A1C" stroke-width="3" stroke-miterlimit="10" stroke-linecap="round"/>
<path d="M47.2507 96.0181L48.9234 100.252" stroke="#171A1C" stroke-width="3" stroke-miterlimit="10" stroke-linecap="round"/>
<path d="M64.6474 76.3922L65.9659 72.4336" stroke="#171A1C" stroke-width="3" stroke-miterlimit="10" stroke-linecap="round"/>
<path d="M64.303 96.0181L65.9659 100.252" stroke="#171A1C" stroke-width="3" stroke-miterlimit="10" stroke-linecap="round"/>
</svg>
