<svg width="253" height="18" viewBox="0 0 253 18" fill="none" xmlns="http://www.w3.org/2000/svg">
<path fill-rule="evenodd" clip-rule="evenodd" d="M94.2741 8.8421C94.2741 7.76842 94.4639 6.69474 94.875 5.65263C95.2861 4.61053 95.8554 3.66316 96.6144 2.84211C97.3734 2.02105 98.2905 1.32632 99.3657 0.821053C100.441 0.315789 101.674 0.0315789 103.066 0.0315789C104.742 0.0315789 106.165 0.378947 107.398 1.10526C108.632 1.8 109.517 2.74737 110.118 3.91579L106.513 6.56842C106.355 6.12632 106.133 5.77895 105.88 5.49474C105.627 5.21053 105.311 4.98947 104.995 4.83158C104.679 4.67368 104.331 4.54737 103.983 4.48421C103.635 4.42105 103.287 4.38947 102.971 4.38947C102.307 4.38947 101.706 4.51579 101.232 4.8C100.757 5.08421 100.346 5.43158 100.03 5.87368C99.7136 6.31579 99.4922 6.82105 99.3341 7.35789C99.176 7.89474 99.1127 8.46316 99.1127 9.03158C99.1127 9.66316 99.2076 10.2316 99.3657 10.8C99.5239 11.3684 99.8085 11.8737 100.125 12.2842C100.441 12.6947 100.884 13.0737 101.358 13.3263C101.832 13.5789 102.402 13.7053 103.003 13.7053C103.319 13.7053 103.667 13.6737 103.983 13.5789C104.331 13.5158 104.647 13.3895 104.963 13.2C105.28 13.0105 105.564 12.7895 105.817 12.5368C106.07 12.2526 106.26 11.9368 106.418 11.5263L110.276 13.8947C110.023 14.5579 109.612 15.1263 109.106 15.6316C108.569 16.1368 107.999 16.5789 107.304 16.9263C106.639 17.2737 105.912 17.5579 105.153 17.7158C104.394 17.8737 103.635 18 102.908 18C101.643 18 100.473 17.7474 99.3974 17.2105C98.3537 16.6737 97.4366 15.9789 96.6776 15.1263C95.9186 14.2737 95.3177 13.2632 94.9066 12.1895C94.4955 11.0842 94.2741 9.97895 94.2741 8.8421ZM123.496 0.126316H127.797L133.742 17.8421H128.935L127.891 14.3684H123.337L122.325 17.8421H117.518L123.496 0.126316ZM127.164 11.1474L125.646 5.65263L124.033 11.1474H127.164ZM142.534 17.8421V0.126316H150.408C151.262 0.126316 152.021 0.315789 152.717 0.663158C153.413 1.01053 154.045 1.48421 154.551 2.05263C155.057 2.62105 155.468 3.28421 155.753 4.01053C156.038 4.73684 156.196 5.49474 156.196 6.25263C156.196 7.29474 155.974 8.2421 155.532 9.12632C155.089 10.0105 154.488 10.7368 153.729 11.3053L157.366 17.8105H152.053L149.017 12.3789H147.246V17.8105H142.534V17.8421ZM147.278 8.17895H150.25C150.535 8.17895 150.82 8.02105 151.073 7.67368C151.326 7.32632 151.452 6.88421 151.452 6.28421C151.452 5.65263 151.294 5.21053 151.009 4.86316C150.725 4.51579 150.44 4.38947 150.124 4.38947H147.278V8.17895ZM177.701 16.3895C176.467 17.4632 175.076 18 173.463 18C172.356 18 171.281 17.8105 170.269 17.4C169.257 16.9895 168.371 16.3895 167.612 15.6C166.853 14.8105 166.253 13.8632 165.81 12.7263C165.367 11.5895 165.146 10.2947 165.146 8.8421C165.146 7.57895 165.367 6.4421 165.81 5.36842C166.253 4.29474 166.885 3.34737 167.676 2.55789C168.466 1.76842 169.383 1.13684 170.459 0.694737C171.534 0.221053 172.672 0 173.937 0C174.696 0 175.455 0.0947368 176.151 0.252632C176.847 0.410526 177.511 0.694737 178.112 1.04211C178.713 1.38947 179.25 1.8 179.756 2.27368C180.231 2.74737 180.642 3.28421 180.958 3.88421L177.448 6.63158C177.1 5.93684 176.594 5.36842 175.93 4.95789C175.266 4.54737 174.538 4.32632 173.779 4.32632C173.21 4.32632 172.704 4.45263 172.23 4.67368C171.755 4.89474 171.344 5.24211 171.028 5.65263C170.712 6.06316 170.427 6.56842 170.237 7.13684C170.048 7.70526 169.953 8.33684 169.953 9.03158C169.953 9.72632 170.048 10.3579 170.237 10.9263C170.427 11.4947 170.712 11.9684 171.06 12.3789C171.407 12.7895 171.819 13.1053 172.293 13.3263C172.767 13.5474 173.305 13.6737 173.906 13.6737C175.266 13.6737 176.499 13.1053 177.543 11.9368H174.57V8.4H181.622V17.8421H177.732V16.3895H177.701ZM199.048 18C197.751 18 196.549 17.7474 195.474 17.2105C194.399 16.7053 193.482 16.0105 192.754 15.1895C191.995 14.3368 191.394 13.3895 190.983 12.3158C190.572 11.2421 190.351 10.1053 190.351 8.96842C190.351 7.8 190.572 6.69474 191.015 5.58947C191.458 4.51579 192.059 3.56842 192.849 2.71579C193.64 1.89474 194.557 1.23158 195.632 0.757895C196.707 0.252632 197.878 0.0315789 199.143 0.0315789C200.439 0.0315789 201.641 0.28421 202.716 0.821053C203.791 1.35789 204.709 2.02105 205.436 2.87368C206.195 3.72632 206.764 4.67368 207.175 5.77895C207.586 6.88421 207.808 7.95789 207.808 9.09474C207.808 10.2632 207.586 11.3684 207.144 12.4421C206.701 13.5158 206.1 14.4632 205.341 15.2842C204.582 16.1053 203.633 16.7684 202.558 17.2737C201.483 17.7474 200.313 18 199.048 18ZM195.126 9C195.126 9.6 195.221 10.1684 195.379 10.7368C195.537 11.3053 195.79 11.7789 196.107 12.2211C196.423 12.6632 196.834 13.0105 197.34 13.2632C197.846 13.5158 198.415 13.6737 199.079 13.6737C199.743 13.6737 200.344 13.5474 200.85 13.2632C201.356 12.9789 201.767 12.6316 202.084 12.1895C202.4 11.7474 202.621 11.2421 202.779 10.6737C202.938 10.1053 203.001 9.53684 203.001 8.93684C203.001 8.33684 202.906 7.76842 202.748 7.2C202.59 6.63158 202.337 6.15789 202.02 5.71579C201.704 5.30526 201.293 4.95789 200.787 4.70526C200.281 4.45263 199.712 4.32632 199.048 4.32632C198.384 4.32632 197.783 4.45263 197.308 4.73684C196.802 4.98947 196.423 5.36842 196.075 5.81053C195.759 6.25263 195.506 6.75789 195.348 7.29474C195.221 7.86316 195.126 8.43158 195.126 9ZM217.169 17.8421V0.126316H228.965V4.35789H221.913V7.29474H227.668V11.2421H221.913V17.8421H217.169ZM241.647 0.126316L244.714 7.8L247.845 0.126316H253L247.054 12V17.8737H242.374V11.9368L236.555 0.126316H241.647Z" fill="black"/>
<path fill-rule="evenodd" clip-rule="evenodd" d="M64.4518 0H82.1934V18H64.4518V0ZM58.0002 0H61.6371V18H58.0002V0ZM51.5804 0H55.2173V18H51.5804V0ZM45.1289 0H48.7657V18H45.1289V0ZM38.6774 0H42.3143V18H38.6774V0ZM32.2259 0H35.8628V18H32.2259V0ZM25.7744 0H29.4112V18H25.7744V0ZM19.3229 0H22.9597V18H19.3229V0ZM12.903 0H16.5399V18H12.903V0ZM6.4515 0H10.0884V18H6.4515V0ZM0 0H3.63687V18H0V0Z" fill="url(#paint0_linear)"/>
<defs>
<linearGradient id="paint0_linear" x1="0.00325428" y1="9" x2="59.9817" y2="9" gradientUnits="userSpaceOnUse">
<stop stop-color="white"/>
<stop offset="1" stop-color="#FF6000"/>
</linearGradient>
</defs>
</svg>
