<svg width="298" height="156" viewBox="0 0 298 156" fill="none" xmlns="http://www.w3.org/2000/svg">
<path d="M241.5 39.38H86.83C73.3929 39.38 62.5 50.2729 62.5 63.71V78.38C62.5 91.8171 73.3929 102.71 86.83 102.71H241.5C254.937 102.71 265.83 91.8171 265.83 78.38V63.71C265.83 50.2729 254.937 39.38 241.5 39.38Z" fill="white"/>
<path d="M241.5 103.72H86.83C80.1128 103.712 73.6731 101.039 68.9242 96.2887C64.1754 91.538 61.5053 85.0972 61.5 78.38V63.72C61.5053 57.0028 64.1754 50.562 68.9242 45.8113C73.6731 41.0606 80.1128 38.3879 86.83 38.38H241.5C248.217 38.3879 254.657 41.0606 259.406 45.8113C264.155 50.562 266.825 57.0028 266.83 63.72V78.38C266.825 85.0972 264.155 91.538 259.406 96.2887C254.657 101.039 248.217 103.712 241.5 103.72ZM86.83 40.38C80.6432 40.3879 74.7122 42.8498 70.3384 47.2255C65.9646 51.6012 63.5053 57.5332 63.5 63.72V78.38C63.5053 84.5668 65.9646 90.4988 70.3384 94.8745C74.7122 99.2502 80.6432 101.712 86.83 101.72H241.5C247.687 101.712 253.618 99.2502 257.992 94.8745C262.365 90.4988 264.825 84.5668 264.83 78.38V63.72C264.825 57.5332 262.365 51.6012 257.992 47.2255C253.618 42.8498 247.687 40.3879 241.5 40.38H86.83Z" fill="#E6E6E6"/>
<path d="M102.43 56.0001L106.82 64.5301C106.894 64.6764 107.003 64.8021 107.138 64.8963C107.272 64.9905 107.427 65.0501 107.59 65.0701L117.43 66.4401C117.608 66.4707 117.775 66.5489 117.912 66.6664C118.049 66.784 118.152 66.9365 118.209 67.1078C118.266 67.2791 118.276 67.4627 118.238 67.6392C118.199 67.8157 118.114 67.9784 117.99 68.1101L110.88 74.7501C110.764 74.8605 110.676 74.9972 110.624 75.1486C110.572 75.2999 110.557 75.4617 110.58 75.6201L112.26 85.0001C112.284 85.1838 112.256 85.3704 112.179 85.5392C112.103 85.708 111.981 85.8522 111.828 85.9559C111.675 86.0596 111.495 86.1187 111.31 86.1265C111.125 86.1343 110.942 86.0905 110.78 86.0001L102 81.6001C101.846 81.5178 101.674 81.4748 101.5 81.4748C101.326 81.4748 101.154 81.5178 101 81.6001L92.24 86.0001C92.0781 86.0933 91.8934 86.1393 91.7067 86.1329C91.52 86.1265 91.3389 86.0679 91.1838 85.9638C91.0287 85.8597 90.9059 85.7143 90.8292 85.5439C90.7525 85.3736 90.7251 85.1852 90.75 85.0001L92.43 75.6201C92.4546 75.4625 92.4411 75.3013 92.3906 75.1499C92.3402 74.9986 92.2542 74.8615 92.14 74.7501L85 68.1101C84.8762 67.9777 84.7908 67.8142 84.7527 67.637C84.7147 67.4598 84.7255 67.2756 84.7841 67.1041C84.8426 66.9326 84.9467 66.7802 85.0851 66.6633C85.2235 66.5463 85.3911 66.4692 85.57 66.4401L95.4 65.0701C95.5628 65.0501 95.7182 64.9905 95.8524 64.8963C95.9867 64.8021 96.0958 64.6764 96.17 64.5301L100.57 56.0001C100.644 55.8136 100.772 55.6535 100.938 55.5408C101.104 55.428 101.299 55.3677 101.5 55.3677C101.701 55.3677 101.896 55.428 102.062 55.5408C102.228 55.6535 102.356 55.8136 102.43 56.0001Z" fill="white"/>
<path d="M111.26 87.1501C110.937 87.153 110.618 87.0775 110.33 86.9301L101.53 82.5001L92.69 86.9301C92.3479 87.1023 91.9645 87.1758 91.583 87.1423C91.2014 87.1087 90.8368 86.9694 90.53 86.7401C90.2406 86.5194 90.017 86.224 89.883 85.8857C89.7491 85.5474 89.71 85.1789 89.77 84.8201L91.45 75.4401L84.34 68.8401C84.0702 68.5918 83.8763 68.2721 83.7807 67.9182C83.6851 67.5642 83.6918 67.1904 83.8 66.8401C83.9166 66.4786 84.1336 66.1578 84.4258 65.9152C84.718 65.6726 85.0733 65.5182 85.45 65.4701L95.28 64.1001L99.7 55.5601C99.8699 55.2275 100.129 54.9492 100.449 54.7565C100.769 54.5639 101.137 54.4647 101.51 54.4701C101.882 54.4665 102.247 54.5667 102.565 54.7592C102.883 54.9517 103.141 55.2291 103.31 55.5601L107.71 64.0901L117.56 65.4701C117.937 65.5182 118.292 65.6726 118.584 65.9152C118.876 66.1578 119.093 66.4786 119.21 66.8401C119.319 67.1895 119.328 67.5627 119.234 67.9166C119.14 68.2705 118.948 68.5907 118.68 68.8401L111.56 75.4801L113.25 84.8201C113.309 85.1799 113.268 85.5489 113.133 85.8873C112.997 86.2257 112.771 86.5206 112.48 86.7401C112.13 87.0074 111.701 87.1516 111.26 87.1501ZM101.54 56.4501L97.08 65.0001C96.9322 65.2881 96.7166 65.536 96.4519 65.7224C96.1871 65.9088 95.881 66.0281 95.56 66.0701L85.73 67.4401L92.82 74.0001C93.0566 74.2239 93.2349 74.5022 93.3395 74.8107C93.444 75.1191 93.4717 75.4485 93.42 75.7701L91.74 85.1601L100.58 80.6901C100.867 80.5473 101.184 80.4731 101.505 80.4731C101.826 80.4731 102.143 80.5473 102.43 80.6901L111.23 85.1201L109.6 75.8001C109.547 75.4769 109.573 75.1456 109.678 74.8352C109.783 74.5249 109.962 74.2449 110.2 74.0201L117.31 67.3801L107.46 66.0601C107.138 66.0206 106.831 65.9036 106.564 65.7189C106.298 65.5342 106.08 65.2875 105.93 65.0001L101.54 56.4501Z" fill="#E6E6E6"/>
<path d="M146.55 56L150.94 64.53C151.014 64.6763 151.123 64.8021 151.258 64.8962C151.392 64.9904 151.547 65.0501 151.71 65.07L161.55 66.4401C161.728 66.4706 161.895 66.5488 162.032 66.6664C162.169 66.7839 162.272 66.9364 162.329 67.1077C162.386 67.279 162.396 67.4626 162.358 67.6391C162.319 67.8156 162.234 67.9783 162.11 68.1101L155 74.75C154.884 74.8604 154.796 74.9971 154.744 75.1485C154.692 75.2999 154.677 75.4616 154.7 75.6201L156.38 85C156.404 85.1837 156.376 85.3704 156.299 85.5391C156.223 85.7079 156.101 85.8522 155.948 85.9559C155.795 86.0596 155.615 86.1186 155.43 86.1264C155.245 86.1342 155.062 86.0905 154.9 86L146.1 81.57C145.953 81.4961 145.79 81.4577 145.625 81.4577C145.46 81.4577 145.297 81.4961 145.15 81.57L136.36 86C136.198 86.0932 136.013 86.1392 135.827 86.1328C135.64 86.1264 135.459 86.0678 135.304 85.9637C135.149 85.8597 135.026 85.7142 134.949 85.5439C134.873 85.3736 134.845 85.1852 134.87 85L136.55 75.6201C136.575 75.4624 136.561 75.3012 136.511 75.1498C136.46 74.9985 136.374 74.8614 136.26 74.75L129.14 68.1101C129.016 67.9777 128.931 67.8141 128.893 67.637C128.855 67.4598 128.866 67.2756 128.924 67.1041C128.983 66.9326 129.087 66.7802 129.225 66.6632C129.364 66.5463 129.531 66.4691 129.71 66.4401L139.54 65.07C139.703 65.0501 139.858 64.9904 139.992 64.8962C140.127 64.8021 140.236 64.6763 140.31 64.53L144.71 56C144.787 55.8197 144.915 55.6658 145.079 55.5577C145.242 55.4496 145.434 55.392 145.63 55.392C145.826 55.392 146.018 55.4496 146.181 55.5577C146.345 55.6658 146.473 55.8197 146.55 56Z" fill="white"/>
<path d="M155.38 87.1501C155.057 87.153 154.738 87.0775 154.45 86.9301L145.65 82.5001L136.81 86.9301C136.468 87.1023 136.085 87.1758 135.703 87.1423C135.321 87.1087 134.957 86.9694 134.65 86.7401C134.361 86.5194 134.137 86.224 134.003 85.8857C133.869 85.5474 133.83 85.1789 133.89 84.8201L135.57 75.4401L128.46 68.8401C128.19 68.5918 127.996 68.2721 127.901 67.9182C127.805 67.5642 127.812 67.1904 127.92 66.8401C128.037 66.4786 128.254 66.1578 128.546 65.9152C128.838 65.6726 129.193 65.5182 129.57 65.4701L139.4 64.1001L143.82 55.5601C143.99 55.2275 144.249 54.9492 144.569 54.7565C144.889 54.5639 145.257 54.4647 145.63 54.4701C146.002 54.4665 146.367 54.5667 146.685 54.7592C147.003 54.9517 147.261 55.2291 147.43 55.5601L151.83 64.0901L161.68 65.4701C162.057 65.5182 162.412 65.6726 162.704 65.9152C162.996 66.1578 163.213 66.4786 163.33 66.8401C163.439 67.1895 163.448 67.5627 163.354 67.9166C163.26 68.2705 163.068 68.5907 162.8 68.8401L155.68 75.4801L157.37 84.8201C157.429 85.1799 157.388 85.5489 157.253 85.8873C157.117 86.2257 156.891 86.5206 156.6 86.7401C156.25 87.0074 155.821 87.1516 155.38 87.1501ZM145.66 56.4501L141.2 65.0001C141.052 65.2881 140.837 65.536 140.572 65.7224C140.307 65.9088 140.001 66.0281 139.68 66.0701L129.85 67.4401L136.94 74.0001C137.177 74.2239 137.355 74.5022 137.459 74.8107C137.564 75.1191 137.592 75.4485 137.54 75.7701L135.86 85.1601L144.7 80.6901C144.987 80.5473 145.304 80.4731 145.625 80.4731C145.946 80.4731 146.263 80.5473 146.55 80.6901L155.35 85.1201L153.72 75.7801C153.667 75.4569 153.693 75.1256 153.798 74.8152C153.903 74.5049 154.082 74.2249 154.32 74.0001L161.43 67.3601L151.58 66.0401C151.26 66.0027 150.954 65.8887 150.688 65.7076C150.421 65.5265 150.202 65.2838 150.05 65.0001L145.66 56.4501Z" fill="#E6E6E6"/>
<path d="M189.22 56L193.62 64.53C193.694 64.6763 193.803 64.8021 193.938 64.8962C194.072 64.9904 194.227 65.0501 194.39 65.07L204.22 66.4401C204.399 66.4691 204.567 66.5463 204.705 66.6632C204.843 66.7802 204.947 66.9326 205.006 67.1041C205.064 67.2756 205.075 67.4598 205.037 67.637C204.999 67.8141 204.914 67.9777 204.79 68.1101L197.67 74.75C197.556 74.8614 197.47 74.9985 197.419 75.1498C197.369 75.3012 197.355 75.4624 197.38 75.6201L199.06 85C199.085 85.1852 199.057 85.3736 198.981 85.5439C198.904 85.7142 198.781 85.8597 198.626 85.9637C198.471 86.0678 198.29 86.1264 198.103 86.1328C197.917 86.1392 197.732 86.0932 197.57 86L188.78 81.57C188.633 81.4961 188.47 81.4577 188.305 81.4577C188.14 81.4577 187.977 81.4961 187.83 81.57L179 86C178.838 86.0932 178.653 86.1392 178.467 86.1328C178.28 86.1264 178.099 86.0678 177.944 85.9637C177.789 85.8597 177.666 85.7142 177.589 85.5439C177.513 85.3736 177.485 85.1852 177.51 85L179.19 75.6201C179.215 75.4624 179.201 75.3012 179.151 75.1498C179.1 74.9985 179.014 74.8614 178.9 74.75L171.78 68.1101C171.656 67.9777 171.571 67.8141 171.533 67.637C171.495 67.4598 171.506 67.2756 171.564 67.1041C171.623 66.9326 171.727 66.7802 171.865 66.6632C172.004 66.5463 172.171 66.4691 172.35 66.4401L182.19 65.07C182.353 65.0501 182.508 64.9904 182.642 64.8962C182.777 64.8021 182.886 64.6763 182.96 64.53L187.38 56C187.457 55.8197 187.585 55.6658 187.749 55.5577C187.912 55.4496 188.104 55.392 188.3 55.392C188.496 55.392 188.688 55.4496 188.851 55.5577C189.015 55.6658 189.143 55.8197 189.22 56Z" fill="white"/>
<path d="M198.05 87.1501C197.727 87.1499 197.409 87.0746 197.12 86.9301L188.33 82.5001L179.48 86.9301C179.141 87.1073 178.758 87.1837 178.377 87.15C177.996 87.1163 177.633 86.974 177.33 86.7401C177.039 86.5206 176.813 86.2257 176.678 85.8873C176.542 85.5489 176.501 85.1799 176.56 84.8201L178.24 75.4401L171.13 68.8401C170.862 68.5907 170.67 68.2705 170.576 67.9166C170.482 67.5627 170.491 67.1895 170.6 66.8401C170.717 66.4786 170.934 66.1578 171.226 65.9152C171.518 65.6726 171.873 65.5182 172.25 65.4701L182.08 64.1001L186.5 55.5601C186.669 55.2291 186.927 54.9517 187.245 54.7592C187.563 54.5667 187.928 54.4665 188.3 54.4701C188.673 54.4647 189.041 54.5639 189.361 54.7565C189.681 54.9492 189.94 55.2275 190.11 55.5601L194.51 64.0901L204.36 65.4701C204.733 65.5183 205.084 65.6706 205.374 65.9093C205.664 66.1481 205.881 66.4637 206 66.8201C206.108 67.1704 206.115 67.5442 206.019 67.8982C205.924 68.2521 205.73 68.5718 205.46 68.8201L198.35 75.4601L200 84.8201C200.06 85.1789 200.021 85.5474 199.887 85.8857C199.753 86.224 199.529 86.5194 199.24 86.7401C198.896 86.9969 198.48 87.1402 198.05 87.1501ZM188.33 56.4501L183.88 65.0001C183.731 65.2894 183.514 65.5381 183.248 65.7245C182.981 65.911 182.673 66.0296 182.35 66.0701L172.52 67.4401L179.61 74.0001C179.851 74.2207 180.032 74.4986 180.137 74.808C180.242 75.1175 180.267 75.4484 180.21 75.7701L178.53 85.1601L187.38 80.6901C187.667 80.5473 187.984 80.4731 188.305 80.4731C188.626 80.4731 188.943 80.5473 189.23 80.6901L198 85.1401L196.37 75.8001C196.317 75.4713 196.347 75.1345 196.457 74.8201C196.567 74.5058 196.753 74.2239 197 74.0001L204.12 67.3601L194.26 66.0401C193.94 66.0027 193.634 65.8887 193.368 65.7076C193.101 65.5265 192.882 65.2838 192.73 65.0001L188.33 56.4501Z" fill="#E6E6E6"/>
<path d="M231.89 56.0001L236.29 64.5301C236.364 64.6764 236.473 64.8021 236.608 64.8963C236.742 64.9905 236.897 65.0501 237.06 65.0701L246.89 66.4401C247.069 66.4692 247.236 66.5463 247.375 66.6633C247.513 66.7802 247.617 66.9326 247.676 67.1041C247.734 67.2756 247.745 67.4598 247.707 67.637C247.669 67.8142 247.584 67.9777 247.46 68.1101L240.35 74.7501C240.234 74.8605 240.146 74.9972 240.094 75.1485C240.042 75.2999 240.027 75.4617 240.05 75.6201L241.73 85.0001C241.754 85.1838 241.726 85.3704 241.649 85.5392C241.573 85.708 241.451 85.8522 241.298 85.9559C241.145 86.0596 240.965 86.1187 240.78 86.1265C240.595 86.1343 240.412 86.0905 240.25 86.0001L231.45 81.5701C231.303 81.4962 231.14 81.4577 230.975 81.4577C230.81 81.4577 230.647 81.4962 230.5 81.5701L221.7 86.0001C221.538 86.0905 221.355 86.1343 221.17 86.1265C220.985 86.1187 220.805 86.0596 220.652 85.9559C220.499 85.8522 220.377 85.708 220.301 85.5392C220.224 85.3704 220.196 85.1838 220.22 85.0001L221.9 75.6201C221.923 75.4617 221.908 75.2999 221.856 75.1485C221.804 74.9972 221.716 74.8605 221.6 74.7501L214.49 68.1101C214.366 67.9777 214.281 67.8142 214.243 67.637C214.205 67.4598 214.216 67.2756 214.274 67.1041C214.333 66.9326 214.437 66.7802 214.575 66.6633C214.714 66.5463 214.881 66.4692 215.06 66.4401L224.89 65.0701C225.053 65.0501 225.208 64.9905 225.342 64.8963C225.477 64.8021 225.586 64.6764 225.66 64.5301L230.06 56.0001C230.138 55.8227 230.266 55.6718 230.429 55.5659C230.591 55.46 230.781 55.4036 230.975 55.4036C231.169 55.4036 231.359 55.46 231.521 55.5659C231.684 55.6718 231.812 55.8227 231.89 56.0001Z" fill="white"/>
<path d="M240.73 87.15C240.407 87.1529 240.088 87.0774 239.8 86.93L231 82.5L222.15 86.93C221.811 87.1073 221.428 87.1836 221.047 87.1499C220.666 87.1163 220.303 86.974 220 86.74C219.709 86.5206 219.483 86.2257 219.348 85.8873C219.212 85.5489 219.171 85.1798 219.23 84.82L220.91 75.44L213.81 68.84C213.54 68.5917 213.346 68.2721 213.251 67.9181C213.155 67.5641 213.162 67.1903 213.27 66.84C213.387 66.4785 213.604 66.1578 213.896 65.9151C214.188 65.6725 214.543 65.5181 214.92 65.47L224.75 64.1L229.17 55.56C229.333 55.2192 229.589 54.9313 229.908 54.7298C230.227 54.5283 230.597 54.4214 230.975 54.4214C231.353 54.4214 231.723 54.5283 232.042 54.7298C232.362 54.9313 232.617 55.2192 232.78 55.56L237.18 64.09L247 65.45C247.377 65.4981 247.732 65.6525 248.024 65.8951C248.316 66.1378 248.533 66.4586 248.65 66.82C248.758 67.1703 248.765 67.5441 248.669 67.8981C248.574 68.2521 248.38 68.5717 248.11 68.82L241 75.48L242.69 84.82C242.749 85.1798 242.708 85.5489 242.573 85.8873C242.437 86.2257 242.211 86.5206 241.92 86.74C241.578 87.0012 241.16 87.145 240.73 87.15ZM231 56.45L226.55 65C226.398 65.2901 226.177 65.5384 225.907 65.7232C225.637 65.908 225.325 66.0237 225 66.06L215.17 67.43L222.27 74.02C222.509 74.2417 222.689 74.5201 222.792 74.8294C222.895 75.1388 222.918 75.4692 222.86 75.79L221.18 85.18L230.03 80.71C230.317 80.5673 230.634 80.493 230.955 80.493C231.276 80.493 231.593 80.5673 231.88 80.71L240.68 85.14L239.05 75.8C238.995 75.4777 239.021 75.1469 239.123 74.8366C239.226 74.5263 239.404 74.2459 239.64 74.02L246.76 67.38L236.9 66.06C236.583 66.016 236.282 65.8968 236.021 65.7124C235.76 65.528 235.547 65.2837 235.4 65L231 56.45Z" fill="#E6E6E6"/>
<path d="M106.43 110.58L105.28 128.53L89.18 118.36L90.33 101.83L106.43 110.58Z" fill="#9FA8DA"/>
<path d="M106.61 131.15L87.61 119.15L89 99.39L108 109.72L106.61 131.15ZM90.74 117.57L103.94 125.92L104.87 111.44L91.67 104.26L90.74 117.57Z" fill="#171A1C"/>
<path d="M12.75 109.38C12.75 109.38 14.88 128.01 19 131.38C23.12 134.75 30 134.63 31.13 131.76C32.26 128.89 31.38 103.76 31.38 103.76L12.75 109.38Z" fill="#FFA670"/>
<path d="M26.31 135.41C23.3127 135.417 20.4013 134.409 18.05 132.55C13.58 128.89 11.48 111.55 11.26 109.55L11.12 108.31L32.81 101.76L32.87 103.71C33.02 107.95 33.7 129.29 32.52 132.31C32.1837 133.027 31.682 133.654 31.0561 134.139C30.4302 134.624 29.6981 134.953 28.92 135.1C28.0666 135.314 27.1896 135.418 26.31 135.41ZM14.39 110.41C15.3 117.46 17.44 128.12 19.95 130.17C21.0938 131.075 22.4196 131.722 23.8365 132.067C25.2534 132.412 26.7282 132.447 28.16 132.17C28.4787 132.128 28.7843 132.016 29.0554 131.843C29.3266 131.671 29.5568 131.441 29.73 131.17C30.33 129.61 30.3 117.35 29.94 105.72L14.39 110.41Z" fill="#171A1C"/>
<path d="M296.5 155.38H1.5C1.10218 155.38 0.720644 155.222 0.43934 154.941C0.158035 154.659 0 154.278 0 153.88C0 153.482 0.158035 153.101 0.43934 152.819C0.720644 152.538 1.10218 152.38 1.5 152.38H296.5C296.898 152.38 297.279 152.538 297.561 152.819C297.842 153.101 298 153.482 298 153.88C298 154.278 297.842 154.659 297.561 154.941C297.279 155.222 296.898 155.38 296.5 155.38Z" fill="#171A1C"/>
<path d="M30.25 153.88C30.25 153.88 31.78 104.66 31.52 103.59C31.26 102.52 16.66 110 12.68 109.17C8.69999 108.34 6.04999 76.8 20.68 64.06C35.31 51.32 85.15 45.75 97.36 66.18C107.44 83.05 108.47 102.81 108.52 109.18C108.522 109.447 108.469 109.712 108.363 109.958C108.258 110.204 108.102 110.425 107.906 110.607C107.711 110.79 107.48 110.929 107.227 111.018C106.975 111.106 106.707 111.141 106.44 111.12L91.48 110L90 153.06L30.25 153.88Z" fill="#FF8338"/>
<path d="M28.7 155.41L28.75 153.84C29.28 136.84 30 111.91 30.05 105.36C28.98 105.73 27.48 106.36 26.18 106.84C19.94 109.3 14.95 111.15 12.39 110.64C11 110.35 10 108.89 9.19 106C6.56 96.1301 7.81 73.2701 19.65 62.9301C29.76 54.1101 55.32 49.0001 74.37 52.0501C86.12 53.9201 94.5 58.5401 98.61 65.4101C109 82.7601 109.93 103.3 110 109.18C110.006 109.656 109.912 110.128 109.725 110.565C109.537 111.003 109.261 111.396 108.912 111.72C108.564 112.044 108.151 112.291 107.701 112.446C107.251 112.601 106.774 112.661 106.3 112.62L92.95 111.62L91.51 154.62L28.7 155.41ZM31.31 102C31.5992 101.995 31.8848 102.064 32.14 102.2L32.75 102.51L32.97 103.24C33.23 104.24 32.49 130.15 31.8 152.37L88.59 151.59L90 108.34L106.48 109.63C106.54 109.636 106.6 109.63 106.657 109.611C106.714 109.592 106.766 109.561 106.81 109.52C106.854 109.48 106.889 109.43 106.911 109.375C106.934 109.319 106.944 109.26 106.94 109.2C106.94 103.51 105.94 83.6501 95.94 66.9501C91.44 59.2601 81.46 56.2201 73.9 55.0001C55.59 52.0901 31.17 56.8501 21.63 65.1701C13.4 72.3501 10.78 86.2701 11.07 96.9001C11.24 103.35 12.45 107.02 13.07 107.7C15.12 107.95 21.31 105.5 25.07 104.03C28.83 102.56 30.39 102 31.31 102Z" fill="#171A1C"/>
<path d="M14.75 126.1C14.5822 125.378 14.564 124.63 14.6964 123.9C14.8288 123.171 15.1091 122.477 15.52 121.86C18.41 117.42 27.7 105 32 100.06L48.23 81.3101C48.23 81.3101 47.17 73.0001 54.6 71.0001C62.03 69.0001 68.93 67.0001 68.66 69.9401C68.48 72.0001 64.77 74.4601 62.66 75.7301C62.4675 75.8357 62.2976 75.9781 62.1602 76.1494C62.0228 76.3207 61.9205 76.5174 61.8592 76.7282C61.7979 76.9391 61.7788 77.1599 61.803 77.3782C61.8271 77.5964 61.8941 77.8078 62 78.0001C62.8593 79.886 62.991 82.0229 62.37 84.0001C61.7 85.8601 54.45 86.5201 54.45 86.5201C54.45 86.5201 39 123.94 35.5 129.6C33.5 132.8 27.94 138.35 20.77 133.84C16.7 131.28 15.25 128.25 14.75 126.1Z" fill="#FFA670"/>
<path d="M26.16 137C23.9689 136.968 21.8322 136.312 20 135.11C15.48 132.26 13.87 128.83 13.31 126.44C13.1041 125.519 13.0865 124.566 13.2583 123.638C13.4302 122.71 13.7879 121.826 14.31 121.04C17.31 116.5 26.67 103.93 30.88 99.0401C35.45 93.7601 44.67 83.1601 46.73 80.7801C46.53 77.2701 47.83 71.2001 54.26 69.4801L55.26 69.2101C63.14 67.0901 67.35 66.0601 69.26 67.7001C69.5875 67.9799 69.841 68.3362 69.998 68.7374C70.155 69.1386 70.2106 69.5723 70.16 70.0001C69.97 72.0801 67.69 74.4201 63.38 77.0001C63.3573 77.0124 63.3374 77.0295 63.3219 77.0503C63.3064 77.071 63.2955 77.0948 63.29 77.1201C63.2777 77.1414 63.2712 77.1655 63.2712 77.1901C63.2712 77.2147 63.2777 77.2388 63.29 77.2601C64.59 79.4701 64.35 82.8801 63.78 84.4801C63.03 86.5801 59.04 87.4801 55.49 87.9001C53.13 93.5801 39.98 125.11 36.76 130.4C34.9064 133.508 31.9385 135.793 28.46 136.79C27.7038 136.947 26.9321 137.017 26.16 137ZM16.21 125.72C16.63 127.56 17.91 130.23 21.57 132.53C22.4645 133.157 23.4778 133.594 24.5476 133.814C25.6173 134.034 26.7208 134.033 27.79 133.81C30.4795 132.999 32.7713 131.217 34.22 128.81C37.57 123.31 52.93 86.2701 53.08 85.9001L53.43 85.0601L54.33 84.9801C57.27 84.7101 60.39 83.9801 61 83.3601C61.4309 81.836 61.3322 80.2108 60.72 78.7501C60.5064 78.3895 60.3663 77.9902 60.308 77.5752C60.2497 77.1601 60.2743 76.7377 60.3803 76.3322C60.4863 75.9268 60.6717 75.5463 60.9257 75.213C61.1796 74.8796 61.4972 74.5999 61.86 74.3901C65.54 72.2201 66.86 70.6401 67.12 69.9501C65.53 69.5601 59.84 71.1001 56 72.1301L55 72.4001C48.91 74.0301 49.7 80.8201 49.73 81.1101L49.82 81.7701L49.38 82.2801L33.09 101C28.95 105.79 19.69 118.17 16.77 122.64C16.4744 123.089 16.2724 123.594 16.1762 124.123C16.08 124.652 16.0915 125.195 16.21 125.72Z" fill="#171A1C"/>
<path d="M76 93.6C76 93.6 66.36 94.6 65.21 92.6C64.06 90.6 71.4 70.84 71.4 70.84C71.4 70.84 73.08 64.74 76.53 64.74C79.98 64.74 90.68 62.35 90.68 65.45C90.68 68.55 80.52 93.16 76 93.6Z" fill="#171A1C"/>
<path d="M71.12 94.36C68.4 94.36 65.48 94.06 64.79 92.88C63.61 90.88 69.2 75.4 70.94 70.7C71 70.47 72.75 64.27 76.54 64.27C77.42 64.27 78.82 64.1 80.44 63.91C85.35 63.33 89.21 62.99 90.63 64.25C90.8079 64.4013 90.9504 64.59 91.0472 64.8026C91.144 65.0151 91.1927 65.2464 91.19 65.48C91.19 68.9 80.92 93.62 76.05 94.1C75.32 94.17 73.28 94.36 71.12 94.36ZM86.85 64.36C84.742 64.4161 82.6387 64.5897 80.55 64.88C78.91 65.07 77.48 65.24 76.55 65.24C73.55 65.24 71.91 70.92 71.9 70.97C68.32 80.64 65 91.24 65.65 92.37C66.3 93.5 72.08 93.49 75.96 93.1C79.96 92.71 90.19 68.34 90.19 65.48C90.1968 65.3908 90.1832 65.3013 90.1503 65.2181C90.1174 65.135 90.066 65.0604 90 65C89.0371 64.4792 87.9377 64.2663 86.85 64.39V64.36Z" fill="#171A1C"/>
<path d="M101.74 134.9C105.4 132.9 106.34 129.05 106.31 125.47C106.231 121.459 104.972 117.56 102.69 114.26C98.83 108.57 91.17 97.36 89.54 95.46C87.7067 93.1919 85.9943 90.8286 84.41 88.38C84.41 88.38 89.41 80.16 89.41 77.95C89.41 75.74 85.34 74.76 84.41 75.65C83.48 76.54 79.1 68.22 76.89 70C74.68 71.78 75.3 74.68 76.62 76.72C77.94 78.76 71.85 79.55 71.76 82.64C71.67 85.73 75.83 90.16 76.62 92.55C77.41 94.94 85.56 122.18 89.54 129.87C91.16 133 97.54 137.12 101.39 135C105.24 132.88 101.74 134.9 101.74 134.9Z" fill="#FFA670"/>
<path d="M98.94 137.07C97.9796 137.06 97.026 136.909 96.11 136.62C92.88 135.62 89.48 133.02 88.21 130.55C84.79 124 78.46 103.5 76.07 95.8C75.63 94.37 75.33 93.39 75.2 93.01C74.7185 91.954 74.1322 90.9489 73.45 90.01C71.92 87.67 70.19 85.01 70.26 82.61C70.33 80.21 72.46 78.9 74 78C74.36 77.78 74.85 77.48 75.15 77.25C73.56 74.58 73.21 71.05 75.94 68.87C78.43 66.87 81.17 70.21 83.17 72.64C83.55 73.09 84.02 73.64 84.36 74.03C85.519 73.7572 86.735 73.8624 87.83 74.33C88.63 74.5695 89.3414 75.0398 89.8751 75.682C90.4088 76.3242 90.741 77.1097 90.83 77.94C90.92 80.12 87.9 85.48 86.15 88.4C87.5418 90.5182 89.0404 92.5641 90.64 94.53C92.3 96.45 99.64 107.22 103.9 113.47C106.348 117 107.698 121.175 107.78 125.47C107.78 129.47 106.72 132.56 104.58 134.66C104.13 135.215 103.558 135.66 102.91 135.96L102.42 136.24V136.16L102.12 136.33C101.139 136.84 100.045 137.095 98.94 137.07ZM77.69 71.28C75.98 72.85 77.69 75.58 77.88 75.89C78.0692 76.1642 78.2005 76.4742 78.2658 76.8009C78.3311 77.1275 78.3292 77.4641 78.26 77.79C77.97 79.04 76.81 79.79 75.57 80.51C74.57 81.14 73.28 81.92 73.26 82.68C73.26 84.14 74.74 86.47 75.96 88.35C76.8015 89.4993 77.5031 90.7448 78.05 92.06C78.17 92.45 78.49 93.45 78.94 94.91C81.3 102.54 87.58 122.81 90.87 129.17C92.3252 131.357 94.4904 132.974 97 133.75C98.1904 134.203 99.5103 134.174 100.68 133.67C101.15 133.42 101.57 133.19 101.93 133.01C103.93 131.51 104.85 129.01 104.82 125.48C104.748 121.763 103.576 118.15 101.45 115.1C94.3 104.56 89.55 97.76 88.45 96.44C86.5688 94.1246 84.8161 91.7076 83.2 89.2L82.68 88.4L83.18 87.6C85.48 83.85 87.93 79.09 87.91 78C87.91 77.76 87.58 77.51 87.44 77.41C86.8313 77.0051 86.1105 76.8022 85.38 76.83C85.0493 77.0949 84.6332 77.23 84.21 77.21C83.12 77.21 82.34 76.21 80.92 74.49C80.14 73.61 78.48 71.59 77.69 71.28Z" fill="#171A1C"/>
<path d="M47.5 57.63C47.5 57.63 51.29 43.5 49.16 40.31C47.03 37.12 45.32 27.58 49 27.18C52.68 26.78 57.39 16.3 61.1 18.43C64.81 20.56 77 32.62 76.09 36.2C75.18 39.78 72.64 53.45 68.66 56C69.06 61.44 67.87 63.76 65.88 64.29C63.89 64.82 51.09 66.52 47.5 57.63Z" fill="#FFA670"/>
<path d="M61.07 66.2601C55.91 66.2601 48.78 64.8001 46.07 58.1901L45.89 57.7201L46.02 57.2401C47.75 50.7601 48.95 42.7601 47.88 41.1501C46 38.3201 44.43 31.2401 46 27.8501C46.2414 27.2681 46.6337 26.7611 47.1364 26.3814C47.6392 26.0017 48.2342 25.763 48.86 25.6901C49.86 25.5801 51.78 23.3801 53.15 21.7801C55.74 18.7801 58.67 15.3101 61.84 17.1201C65.27 19.1201 78.84 31.6601 77.54 36.5801C77.4 37.1101 77.22 37.8701 77.01 38.7901C75.37 45.9701 73.36 53.7901 70.2 56.6601C70.35 59.3001 70.31 64.6601 66.25 65.6601C64.5528 66.0623 62.8142 66.2637 61.07 66.2601ZM49.07 57.5101C52.38 64.6101 63.39 63.3601 65.47 62.8101C67.32 62.3201 67.32 58.3801 67.15 56.0801L67.08 55.1801L67.84 54.7001C70.7 52.8901 73.15 42.1601 74.08 38.1201C74.3 37.1701 74.48 36.3801 74.62 35.8301C75.07 33.5001 64.62 22.1601 60.34 19.7301C59.34 19.1501 56.98 21.9001 55.42 23.7301C53.35 26.1501 51.42 28.4301 49.17 28.6701C49.07 28.6701 48.9 28.6701 48.71 29.1201C47.71 31.2601 48.88 37.2101 50.39 39.4801C52.63 42.8101 50.12 53.5401 49.09 57.5101H49.07Z" fill="#171A1C"/>
<path d="M58.07 56.94C59.0215 57.8407 60.2237 58.4318 61.5181 58.6353C62.8124 58.8388 64.138 58.6452 65.32 58.08C69.72 55.99 73.72 51.3 73.47 49.65C73.14 47.4 72.4 43.03 66.09 43.16C62.1127 43.3244 58.2477 44.5276 54.88 46.65C54.88 46.65 52.82 42.85 54.01 36.75C55.2 30.65 55.07 25.26 56.59 24.67C58.11 24.08 64.02 30.24 65.35 32.42C66.68 34.6 72.11 38.59 75.35 37.93C78.59 37.27 80.26 32.09 82.25 30.1C84.24 28.11 89.48 27.84 89.35 24.53C89.22 21.22 85.17 15.53 81.12 14.53C77.07 13.53 76.09 1.64002 68.8 1.84002C61.51 2.04002 53.28 5.29002 53.14 7.35002C53 9.41002 48.37 7.08002 46.24 10.73C44.11 14.38 40.24 19.35 42.4 26.52C44.56 33.69 47.17 36.4 47.17 36.4L47.84 30C47.84 30 50.62 26.71 52.02 27.64C53.42 28.57 51.09 37.78 51.09 37.78C51.09 37.78 50.16 44.28 52.21 49.26C53.42 52.2 56.08 55.07 58.07 56.94Z" fill="#171A1C"/>
<path d="M62.52 59.22C60.7336 59.2159 59.0164 58.529 57.72 57.3C55.72 55.38 52.99 52.46 51.72 49.46C49.64 44.46 50.52 37.99 50.56 37.72C51.75 33 52.28 28.51 51.71 28.06C51.14 27.61 49.31 29.06 48.29 30.22L47.53 37.51L46.78 36.75C46.67 36.64 44.02 33.86 41.89 26.66C39.89 20.08 42.89 15.26 45.03 11.74C45.29 11.3 45.55 10.88 45.78 10.48C47.15 8.18999 49.35 7.99999 51 7.89999C52.28 7.79999 52.66 7.70999 52.68 7.31999C52.85 4.77999 61.6 1.53999 68.82 1.31999C73.47 1.17999 75.72 5.62999 77.55 9.19999C78.74 11.53 79.86 13.72 81.29 14.07C85.48 15.07 89.76 20.91 89.9 24.49C90 27 87.61 28 85.55 28.83C84.4863 29.195 83.4947 29.7432 82.62 30.45C81.8724 31.302 81.2218 32.2344 80.68 33.23C79.33 35.44 77.81 37.94 75.46 38.42C72.03 39.12 66.36 35.05 64.92 32.68C63.39 30.16 57.77 24.74 56.78 25.13C56.07 25.41 55.73 28.13 55.41 30.77C55.18 32.59 54.93 34.66 54.5 36.84C53.8326 39.8588 54.0407 43.0054 55.1 45.91C58.4389 43.9278 62.2199 42.8106 66.1 42.66C72.99 42.54 73.68 47.46 73.99 49.58C74.27 51.51 70.07 56.39 65.55 58.58C64.6005 59.0169 63.5651 59.2356 62.52 59.22ZM58.41 56.57C59.2886 57.3999 60.3974 57.9452 61.5911 58.1343C62.7848 58.3234 64.0079 58.1477 65.1 57.63C69.55 55.52 73.16 51 73 49.72C72.68 47.56 72.06 43.57 66.13 43.66C62.2309 43.8224 58.4407 44.9939 55.13 47.06L54.67 47.37L54.41 46.88C54.32 46.72 52.27 42.88 53.49 36.65C53.91 34.5 54.16 32.45 54.39 30.65C54.84 26.94 55.12 24.71 56.39 24.21C58.44 23.42 64.6 30.27 65.76 32.21C66.92 34.15 72.29 38.09 75.24 37.48C77.16 37.09 78.57 34.78 79.8 32.75C80.3797 31.6734 81.081 30.6668 81.89 29.75C82.8499 28.9459 83.9477 28.3225 85.13 27.91C87.08 27.08 88.91 26.3 88.84 24.55C88.71 21.36 84.74 15.98 81 15.06C79.12 14.6 78 12.32 76.6 9.67999C74.81 6.18999 72.75 2.19999 68.79 2.33999C61.11 2.54999 53.72 5.93 53.62 7.33999C53.52 8.74999 52.28 8.79999 51 8.89999C49.45 9.00999 47.71 9.13999 46.64 10.98C46.4 11.39 46.14 11.82 45.87 12.26C43.71 15.81 41.01 20.26 42.87 26.38C43.7069 29.4821 45.03 32.432 46.79 35.12L47.35 29.81L47.45 29.69C47.96 29.08 50.6 26.1 52.28 27.23C53.8 28.23 52.28 35.04 51.56 37.92C51.56 37.92 50.69 44.29 52.67 49.08C53.84 51.91 56.43 54.72 58.4 56.57H58.41Z" fill="#171A1C"/>
<path d="M167.66 152.38C172.68 152.38 176.75 147.903 176.75 142.38C176.75 136.857 172.68 132.38 167.66 132.38C162.64 132.38 158.57 136.857 158.57 142.38C158.57 147.903 162.64 152.38 167.66 152.38Z" fill="#171A1C"/>
<path d="M167.66 152.88C162.37 152.88 158.07 148.17 158.07 142.38C158.07 136.59 162.37 131.88 167.66 131.88C172.95 131.88 177.25 136.59 177.25 142.38C177.25 148.17 173 152.88 167.66 152.88ZM167.66 132.88C162.92 132.88 159.07 137.15 159.07 142.38C159.07 147.61 162.92 151.88 167.66 151.88C172.4 151.88 176.25 147.62 176.25 142.38C176.25 137.14 172.4 132.88 167.66 132.88Z" fill="#171A1C"/>
<path d="M165.84 152.38C170.86 152.38 174.93 147.903 174.93 142.38C174.93 136.857 170.86 132.38 165.84 132.38C160.82 132.38 156.75 136.857 156.75 142.38C156.75 147.903 160.82 152.38 165.84 152.38Z" fill="#171A1C"/>
<path d="M165.84 152.88C160.55 152.88 156.25 148.17 156.25 142.38C156.25 136.59 160.55 131.88 165.84 131.88C171.13 131.88 175.43 136.59 175.43 142.38C175.43 148.17 171.13 152.88 165.84 152.88ZM165.84 132.88C161.1 132.88 157.25 137.15 157.25 142.38C157.25 147.61 161.1 151.88 165.84 151.88C170.58 151.88 174.43 147.62 174.43 142.38C174.43 137.14 170.58 132.88 165.84 132.88Z" fill="#171A1C"/>
<path d="M235.21 152.38C240.512 152.38 244.81 147.903 244.81 142.38C244.81 136.857 240.512 132.38 235.21 132.38C229.908 132.38 225.61 136.857 225.61 142.38C225.61 147.903 229.908 152.38 235.21 152.38Z" fill="#171A1C"/>
<path d="M235.21 152.88C233.115 152.962 231.044 152.415 229.262 151.311C227.481 150.206 226.07 148.594 225.212 146.682C224.353 144.77 224.086 142.644 224.445 140.579C224.804 138.514 225.772 136.603 227.225 135.092C228.679 133.581 230.55 132.54 232.6 132.101C234.65 131.662 236.784 131.846 238.728 132.63C240.673 133.413 242.338 134.76 243.511 136.498C244.684 138.235 245.31 140.284 245.31 142.38C245.358 145.11 244.322 147.749 242.429 149.717C240.536 151.685 237.94 152.822 235.21 152.88ZM235.21 132.88C233.313 132.798 231.436 133.286 229.818 134.28C228.201 135.275 226.919 136.73 226.136 138.46C225.353 140.189 225.106 142.114 225.426 143.985C225.746 145.856 226.619 147.589 227.932 148.96C229.246 150.331 230.939 151.277 232.795 151.677C234.651 152.078 236.584 151.913 238.345 151.206C240.107 150.498 241.616 149.279 242.679 147.706C243.742 146.134 244.31 144.278 244.31 142.38C244.358 139.915 243.428 137.531 241.722 135.75C240.017 133.97 237.675 132.938 235.21 132.88Z" fill="#171A1C"/>
<path d="M233.29 152.38C238.592 152.38 242.89 147.903 242.89 142.38C242.89 136.857 238.592 132.38 233.29 132.38C227.988 132.38 223.69 136.857 223.69 142.38C223.69 147.903 227.988 152.38 233.29 152.38Z" fill="#171A1C"/>
<path d="M233.29 152.88C231.195 152.962 229.124 152.415 227.342 151.311C225.561 150.206 224.15 148.594 223.292 146.682C222.433 144.77 222.166 142.644 222.525 140.579C222.884 138.514 223.852 136.603 225.305 135.092C226.759 133.581 228.63 132.54 230.68 132.101C232.73 131.662 234.864 131.846 236.808 132.63C238.753 133.413 240.418 134.76 241.591 136.498C242.764 138.235 243.39 140.284 243.39 142.38C243.438 145.11 242.402 147.749 240.509 149.717C238.616 151.685 236.02 152.822 233.29 152.88ZM233.29 132.88C231.393 132.798 229.516 133.286 227.898 134.28C226.281 135.275 224.999 136.73 224.216 138.46C223.433 140.189 223.186 142.114 223.506 143.985C223.826 145.856 224.699 147.589 226.012 148.96C227.326 150.331 229.019 151.277 230.875 151.677C232.731 152.078 234.664 151.913 236.425 151.206C238.187 150.498 239.696 149.279 240.759 147.706C241.822 146.134 242.39 144.278 242.39 142.38C242.438 139.915 241.508 137.531 239.802 135.75C238.097 133.97 235.755 132.938 233.29 132.88Z" fill="#171A1C"/>
<path d="M148 139.88V126C148 123.579 148.962 121.256 150.674 119.544C152.386 117.832 154.709 116.87 157.13 116.87H161.5L175.45 95.2701C175.924 94.5337 176.575 93.928 177.344 93.5087C178.113 93.0894 178.974 92.8698 179.85 92.8701H275C276.326 92.8701 277.598 93.3969 278.536 94.3346C279.473 95.2723 280 96.544 280 97.8701V139.87L148 139.88Z" fill="#FF8338"/>
<path d="M281.5 141.38H146.5V126C146.503 123.182 147.623 120.479 149.616 118.486C151.609 116.493 154.312 115.373 157.13 115.37H160.68L174.2 94.46C174.808 93.5137 175.644 92.7356 176.631 92.1973C177.618 91.6591 178.725 91.378 179.85 91.38H275C276.723 91.3827 278.375 92.0683 279.593 93.2867C280.812 94.5052 281.497 96.1569 281.5 97.88V141.38ZM149.5 138.38H278.5V97.88C278.5 96.9518 278.131 96.0615 277.475 95.4051C276.819 94.7488 275.928 94.38 275 94.38H179.85C179.225 94.3802 178.611 94.5368 178.062 94.8355C177.514 95.1342 177.049 95.5655 176.71 96.09L162.32 118.38H157.13C155.109 118.383 153.171 119.186 151.741 120.614C150.311 122.042 149.505 123.979 149.5 126V138.38Z" fill="#171A1C"/>
<path d="M175.44 125.13H149.5C148.224 125.13 147.19 126.164 147.19 127.44V129.07C147.19 130.346 148.224 131.38 149.5 131.38H175.44C176.716 131.38 177.75 130.346 177.75 129.07V127.44C177.75 126.164 176.716 125.13 175.44 125.13Z" fill="#171A1C"/>
<path d="M175.44 131.88H149.5C148.755 131.88 148.04 131.584 147.513 131.057C146.986 130.53 146.69 129.815 146.69 129.07V127.45C146.69 126.704 146.986 125.988 147.512 125.459C148.039 124.931 148.754 124.633 149.5 124.63H175.44C176.186 124.633 176.901 124.931 177.428 125.459C177.954 125.988 178.25 126.704 178.25 127.45V129.07C178.25 129.815 177.954 130.53 177.427 131.057C176.9 131.584 176.185 131.88 175.44 131.88ZM149.5 125.63C149.019 125.633 148.559 125.826 148.22 126.167C147.88 126.508 147.69 126.969 147.69 127.45V129.07C147.69 129.55 147.881 130.01 148.22 130.35C148.56 130.689 149.02 130.88 149.5 130.88H175.44C175.92 130.88 176.38 130.689 176.72 130.35C177.059 130.01 177.25 129.55 177.25 129.07V127.45C177.25 126.969 177.06 126.508 176.72 126.167C176.381 125.826 175.921 125.633 175.44 125.63H149.5Z" fill="#171A1C"/>
<path d="M174.54 130.34C175.689 130.34 176.62 129.409 176.62 128.26C176.62 127.111 175.689 126.18 174.54 126.18C173.391 126.18 172.46 127.111 172.46 128.26C172.46 129.409 173.391 130.34 174.54 130.34Z" fill="white"/>
<path d="M174.54 130.84C174.03 130.838 173.532 130.685 173.109 130.4C172.686 130.116 172.357 129.712 172.164 129.24C171.97 128.769 171.92 128.25 172.021 127.751C172.121 127.251 172.368 126.792 172.729 126.432C173.09 126.072 173.55 125.828 174.05 125.729C174.551 125.63 175.069 125.682 175.54 125.877C176.01 126.073 176.413 126.404 176.696 126.828C176.979 127.252 177.13 127.75 177.13 128.26C177.127 128.945 176.853 129.601 176.368 130.085C175.882 130.569 175.225 130.84 174.54 130.84ZM174.54 126.68C174.228 126.682 173.923 126.776 173.665 126.951C173.406 127.126 173.205 127.373 173.087 127.662C172.969 127.951 172.94 128.269 173.002 128.574C173.064 128.88 173.215 129.161 173.436 129.381C173.658 129.601 173.939 129.75 174.245 129.81C174.552 129.871 174.869 129.839 175.157 129.719C175.445 129.599 175.691 129.396 175.864 129.137C176.038 128.877 176.13 128.572 176.13 128.26C176.13 128.052 176.089 127.845 176.009 127.653C175.929 127.461 175.811 127.286 175.664 127.139C175.516 126.992 175.341 126.876 175.148 126.797C174.955 126.719 174.748 126.679 174.54 126.68Z" fill="#171A1C"/>
<path d="M286.5 141.38H144.5C144.102 141.38 143.721 141.222 143.439 140.941C143.158 140.659 143 140.278 143 139.88C143 139.482 143.158 139.101 143.439 138.819C143.721 138.538 144.102 138.38 144.5 138.38H286.5C286.898 138.38 287.279 138.538 287.561 138.819C287.842 139.101 288 139.482 288 139.88C288 140.278 287.842 140.659 287.561 140.941C287.279 141.222 286.898 141.38 286.5 141.38Z" fill="#171A1C"/>
<path d="M197.47 114.36L206.17 100.87C206.367 100.566 206.636 100.315 206.954 100.141C207.272 99.9661 207.628 99.8732 207.99 99.8701H219.84C220.414 99.8728 220.963 100.103 221.368 100.509C221.773 100.916 222 101.466 222 102.04V115.7C222 115.986 221.944 116.269 221.834 116.533C221.724 116.797 221.563 117.036 221.361 117.238C221.158 117.44 220.918 117.599 220.653 117.708C220.389 117.816 220.106 117.871 219.82 117.87L199.28 117.7C198.892 117.697 198.512 117.59 198.18 117.39C197.847 117.19 197.574 116.905 197.39 116.564C197.205 116.223 197.115 115.839 197.129 115.451C197.143 115.064 197.261 114.687 197.47 114.36Z" fill="#171A1C"/>
<path d="M219.84 118.37L199.3 118.2C198.823 118.195 198.357 118.062 197.949 117.816C197.54 117.57 197.206 117.219 196.979 116.799C196.753 116.38 196.642 115.907 196.66 115.431C196.678 114.954 196.823 114.491 197.08 114.09L205.78 100.6C206.02 100.229 206.349 99.9229 206.736 99.71C207.124 99.497 207.558 99.3837 208 99.38H219.85C220.556 99.3827 221.233 99.6651 221.732 100.166C222.23 100.666 222.51 101.344 222.51 102.05V115.7C222.507 116.406 222.227 117.082 221.729 117.582C221.231 118.081 220.556 118.365 219.85 118.37H219.84ZM197.84 114.63C197.678 114.88 197.588 115.169 197.577 115.467C197.566 115.764 197.637 116.059 197.78 116.32C197.918 116.586 198.126 116.808 198.382 116.963C198.637 117.119 198.931 117.201 199.23 117.2L219.77 117.37C220.211 117.367 220.633 117.19 220.944 116.877C221.255 116.564 221.43 116.141 221.43 115.7V102.05C221.43 101.609 221.255 101.186 220.944 100.873C220.633 100.56 220.211 100.383 219.77 100.38H208C207.721 100.38 207.446 100.451 207.201 100.585C206.957 100.72 206.75 100.914 206.6 101.15L197.9 114.63H197.84Z" fill="#171A1C"/>
<path d="M173.2 98.91L198.11 99.37C198.404 99.3749 198.691 99.4577 198.943 99.6101C199.194 99.7625 199.401 99.979 199.541 100.237C199.682 100.496 199.751 100.787 199.742 101.081C199.733 101.375 199.646 101.661 199.49 101.91L191 115.57C190.557 116.278 189.94 116.862 189.209 117.266C188.478 117.67 187.656 117.882 186.82 117.88H161.48" fill="#171A1C"/>
<path d="M186.77 118.38H161.48V117.38H186.77C187.522 117.381 188.261 117.19 188.919 116.826C189.577 116.463 190.131 115.937 190.53 115.3L199.06 101.65C199.166 101.473 199.222 101.271 199.222 101.065C199.222 100.859 199.166 100.657 199.06 100.48C198.962 100.299 198.818 100.147 198.643 100.04C198.467 99.9323 198.266 99.8738 198.06 99.87L173.15 99.41V98.41L198.06 98.87C198.443 98.8768 198.817 98.9852 199.144 99.1842C199.471 99.3831 199.74 99.6654 199.922 100.002C200.104 100.339 200.193 100.718 200.181 101.101C200.168 101.484 200.054 101.856 199.85 102.18L191.31 115.83C190.83 116.604 190.162 117.244 189.368 117.69C188.574 118.136 187.681 118.373 186.77 118.38Z" fill="#171A1C"/>
<path d="M221.5 122.38H215.5C215.235 122.38 214.98 122.275 214.793 122.087C214.605 121.9 214.5 121.645 214.5 121.38C214.5 121.115 214.605 120.86 214.793 120.673C214.98 120.485 215.235 120.38 215.5 120.38H221.5C221.765 120.38 222.02 120.485 222.207 120.673C222.395 120.86 222.5 121.115 222.5 121.38C222.5 121.645 222.395 121.9 222.207 122.087C222.02 122.275 221.765 122.38 221.5 122.38Z" fill="#171A1C"/>
<path d="M192.13 132.14C189.604 132.133 187.17 133.081 185.315 134.795C183.46 136.509 182.322 138.862 182.13 141.38H191.48V143.38H202.07C202.07 143.38 202.07 142.68 202.07 142.47C202.084 139.793 201.054 137.216 199.198 135.287C197.341 133.357 194.806 132.229 192.13 132.14Z" fill="#171A1C"/>
<path d="M260.13 132.14C257.604 132.133 255.17 133.081 253.315 134.795C251.46 136.509 250.322 138.862 250.13 141.38H259.48V143.38H270.07C270.07 143.38 270.07 142.68 270.07 142.47C270.084 139.793 269.054 137.216 267.198 135.287C265.341 133.357 262.806 132.229 260.13 132.14Z" fill="#171A1C"/>
<path d="M262.75 152.38C268.273 152.38 272.75 147.903 272.75 142.38C272.75 136.857 268.273 132.38 262.75 132.38C257.227 132.38 252.75 136.857 252.75 142.38C252.75 147.903 257.227 152.38 262.75 152.38Z" fill="#333333"/>
<path d="M262.75 152.88C260.673 152.88 258.643 152.264 256.917 151.11C255.19 149.957 253.844 148.317 253.049 146.398C252.255 144.48 252.047 142.368 252.452 140.332C252.857 138.295 253.857 136.424 255.325 134.955C256.794 133.487 258.665 132.487 260.702 132.082C262.738 131.677 264.85 131.885 266.768 132.679C268.687 133.474 270.327 134.82 271.48 136.547C272.634 138.273 273.25 140.303 273.25 142.38C273.247 145.164 272.14 147.833 270.172 149.802C268.203 151.77 265.534 152.877 262.75 152.88ZM262.75 132.88C260.871 132.88 259.034 133.437 257.472 134.481C255.91 135.525 254.692 137.009 253.973 138.745C253.254 140.48 253.066 142.391 253.433 144.233C253.799 146.076 254.704 147.769 256.032 149.098C257.361 150.426 259.054 151.331 260.897 151.697C262.739 152.064 264.65 151.876 266.386 151.157C268.121 150.438 269.605 149.22 270.649 147.658C271.693 146.096 272.25 144.259 272.25 142.38C272.245 139.862 271.242 137.449 269.462 135.668C267.681 133.888 265.268 132.885 262.75 132.88Z" fill="#171A1C"/>
<path d="M261.75 152.38C267.273 152.38 271.75 147.903 271.75 142.38C271.75 136.857 267.273 132.38 261.75 132.38C256.227 132.38 251.75 136.857 251.75 142.38C251.75 147.903 256.227 152.38 261.75 152.38Z" fill="#171A1C"/>
<path d="M261.75 152.88C259.673 152.88 257.643 152.264 255.917 151.11C254.19 149.957 252.844 148.317 252.049 146.398C251.255 144.48 251.047 142.368 251.452 140.332C251.857 138.295 252.857 136.424 254.325 134.955C255.794 133.487 257.665 132.487 259.702 132.082C261.738 131.677 263.85 131.885 265.768 132.679C267.687 133.474 269.327 134.82 270.48 136.547C271.634 138.273 272.25 140.303 272.25 142.38C272.247 145.164 271.14 147.833 269.172 149.802C267.203 151.77 264.534 152.877 261.75 152.88ZM261.75 132.88C259.871 132.88 258.034 133.437 256.472 134.481C254.91 135.525 253.692 137.009 252.973 138.745C252.254 140.48 252.066 142.391 252.433 144.233C252.799 146.076 253.704 147.769 255.032 149.098C256.361 150.426 258.054 151.331 259.897 151.697C261.739 152.064 263.65 151.876 265.386 151.157C267.121 150.438 268.605 149.22 269.649 147.658C270.693 146.096 271.25 144.259 271.25 142.38C271.245 139.862 270.242 137.449 268.462 135.668C266.681 133.888 264.268 132.885 261.75 132.88Z" fill="#171A1C"/>
<path d="M265.25 148.13C267.735 148.13 269.75 145.556 269.75 142.38C269.75 139.204 267.735 136.63 265.25 136.63C262.765 136.63 260.75 139.204 260.75 142.38C260.75 145.556 262.765 148.13 265.25 148.13Z" fill="white"/>
<path d="M265.25 148.63C262.49 148.63 260.25 145.83 260.25 142.38C260.25 138.93 262.49 136.13 265.25 136.13C268.01 136.13 270.25 138.94 270.25 142.38C270.25 145.82 268 148.63 265.25 148.63ZM265.25 137.13C263.04 137.13 261.25 139.49 261.25 142.38C261.25 145.27 263.04 147.63 265.25 147.63C267.46 147.63 269.25 145.28 269.25 142.38C269.25 139.48 267.46 137.13 265.25 137.13Z" fill="#171A1C"/>
<path d="M195.13 152.38C200.653 152.38 205.13 147.903 205.13 142.38C205.13 136.857 200.653 132.38 195.13 132.38C189.607 132.38 185.13 136.857 185.13 142.38C185.13 147.903 189.607 152.38 195.13 152.38Z" fill="#171A1C"/>
<path d="M195.13 152.88C193.053 152.88 191.023 152.264 189.297 151.11C187.57 149.957 186.224 148.317 185.429 146.398C184.635 144.48 184.427 142.368 184.832 140.332C185.237 138.295 186.237 136.424 187.705 134.955C189.174 133.487 191.045 132.487 193.082 132.082C195.118 131.677 197.23 131.885 199.148 132.679C201.067 133.474 202.707 134.82 203.86 136.547C205.014 138.273 205.63 140.303 205.63 142.38C205.627 145.164 204.52 147.833 202.552 149.802C200.583 151.77 197.914 152.877 195.13 152.88ZM195.13 132.88C193.251 132.88 191.414 133.437 189.852 134.481C188.29 135.525 187.072 137.009 186.353 138.745C185.634 140.48 185.446 142.391 185.813 144.233C186.179 146.076 187.084 147.769 188.413 149.098C189.741 150.426 191.434 151.331 193.277 151.697C195.119 152.064 197.03 151.876 198.765 151.157C200.501 150.438 201.985 149.22 203.029 147.658C204.073 146.096 204.63 144.259 204.63 142.38C204.625 139.862 203.622 137.449 201.842 135.668C200.061 133.888 197.648 132.885 195.13 132.88Z" fill="#171A1C"/>
<path d="M194.13 152.38C199.653 152.38 204.13 147.903 204.13 142.38C204.13 136.857 199.653 132.38 194.13 132.38C188.607 132.38 184.13 136.857 184.13 142.38C184.13 147.903 188.607 152.38 194.13 152.38Z" fill="#171A1C"/>
<path d="M194.13 152.88C192.053 152.88 190.023 152.264 188.297 151.11C186.57 149.957 185.224 148.317 184.429 146.398C183.635 144.48 183.427 142.368 183.832 140.332C184.237 138.295 185.237 136.424 186.705 134.955C188.174 133.487 190.045 132.487 192.082 132.082C194.118 131.677 196.23 131.885 198.148 132.679C200.067 133.474 201.707 134.82 202.86 136.547C204.014 138.273 204.63 140.303 204.63 142.38C204.627 145.164 203.52 147.833 201.552 149.802C199.583 151.77 196.914 152.877 194.13 152.88ZM194.13 132.88C192.251 132.88 190.414 133.437 188.852 134.481C187.29 135.525 186.072 137.009 185.353 138.745C184.634 140.48 184.446 142.391 184.813 144.233C185.179 146.076 186.084 147.769 187.413 149.098C188.741 150.426 190.434 151.331 192.277 151.697C194.119 152.064 196.03 151.876 197.765 151.157C199.501 150.438 200.985 149.22 202.029 147.658C203.073 146.096 203.63 144.259 203.63 142.38C203.625 139.862 202.622 137.449 200.842 135.668C199.061 133.888 196.648 132.885 194.13 132.88Z" fill="#171A1C"/>
<path d="M197.63 148.13C200.115 148.13 202.13 145.556 202.13 142.38C202.13 139.204 200.115 136.63 197.63 136.63C195.145 136.63 193.13 139.204 193.13 142.38C193.13 145.556 195.145 148.13 197.63 148.13Z" fill="white"/>
<path d="M197.63 148.63C194.87 148.63 192.63 145.83 192.63 142.38C192.63 138.93 194.87 136.13 197.63 136.13C200.39 136.13 202.63 138.94 202.63 142.38C202.63 145.82 200.38 148.63 197.63 148.63ZM197.63 137.13C195.42 137.13 193.63 139.49 193.63 142.38C193.63 145.27 195.42 147.63 197.63 147.63C199.84 147.63 201.63 145.28 201.63 142.38C201.63 139.48 199.83 137.13 197.63 137.13Z" fill="#171A1C"/>
<path d="M149.63 126.18C149.416 126.182 149.204 126.216 149 126.28V130.28C149.204 130.344 149.416 130.378 149.63 130.38C150.182 130.38 150.711 130.161 151.101 129.771C151.491 129.381 151.71 128.852 151.71 128.3C151.71 127.748 151.491 127.219 151.101 126.829C150.711 126.439 150.182 126.22 149.63 126.22V126.18Z" fill="white"/>
<path d="M149.63 130.84C149.365 130.839 149.101 130.795 148.85 130.71L148.5 130.6V125.92L148.85 125.8C149.103 125.723 149.366 125.682 149.63 125.68C150.314 125.68 150.97 125.952 151.454 126.436C151.938 126.92 152.21 127.576 152.21 128.26C152.21 128.944 151.938 129.601 151.454 130.084C150.97 130.568 150.314 130.84 149.63 130.84ZM149.5 129.84C149.919 129.84 150.321 129.674 150.617 129.377C150.914 129.081 151.08 128.679 151.08 128.26C151.08 127.841 150.914 127.439 150.617 127.143C150.321 126.847 149.919 126.68 149.5 126.68V129.84Z" fill="#171A1C"/>
<path d="M268.39 118.3H233.39C232.388 118.297 231.428 117.898 230.72 117.19C230.012 116.482 229.613 115.522 229.61 114.52V103.13C229.61 102.127 230.008 101.164 230.717 100.454C231.425 99.7432 232.387 99.3427 233.39 99.3401H268.39C269.393 99.3427 270.355 99.7432 271.063 100.454C271.772 101.164 272.17 102.127 272.17 103.13V114.52C272.167 115.522 271.768 116.482 271.06 117.19C270.352 117.898 269.392 118.297 268.39 118.3ZM233.39 100.3C232.652 100.303 231.945 100.598 231.424 101.121C230.903 101.644 230.61 102.352 230.61 103.09V114.48C230.613 115.217 230.906 115.922 231.427 116.443C231.948 116.964 232.653 117.257 233.39 117.26H268.39C269.126 117.257 269.832 116.964 270.353 116.443C270.874 115.922 271.167 115.217 271.17 114.48V103.13C271.17 102.392 270.877 101.684 270.356 101.161C269.835 100.638 269.128 100.343 268.39 100.34L233.39 100.3Z" fill="#171A1C"/>
<path d="M190.25 141C190.184 140.997 190.12 140.982 190.06 140.954C190 140.927 189.947 140.888 189.902 140.84C189.858 140.791 189.823 140.735 189.8 140.673C189.778 140.611 189.767 140.546 189.77 140.48C189.77 140.31 189.98 136.35 193.53 135C193.651 134.963 193.781 134.974 193.894 135.029C194.008 135.084 194.096 135.18 194.142 135.298C194.187 135.416 194.187 135.546 194.14 135.663C194.093 135.781 194.004 135.876 193.89 135.93C190.95 137.05 190.77 140.48 190.77 140.52C190.767 140.586 190.752 140.65 190.724 140.71C190.697 140.77 190.658 140.823 190.61 140.868C190.561 140.912 190.505 140.947 190.443 140.97C190.381 140.992 190.316 141.003 190.25 141Z" fill="white"/>
<path d="M258.25 141C258.184 140.997 258.12 140.982 258.06 140.954C258 140.927 257.947 140.888 257.902 140.84C257.858 140.791 257.823 140.735 257.8 140.673C257.778 140.611 257.767 140.546 257.77 140.48C257.77 140.31 257.98 136.35 261.53 135C261.651 134.963 261.781 134.974 261.894 135.029C262.008 135.084 262.096 135.18 262.142 135.298C262.187 135.416 262.187 135.546 262.14 135.663C262.093 135.781 262.004 135.876 261.89 135.93C258.95 137.05 258.77 140.48 258.77 140.52C258.767 140.586 258.752 140.65 258.724 140.71C258.697 140.77 258.658 140.823 258.61 140.868C258.561 140.912 258.505 140.947 258.443 140.97C258.381 140.992 258.316 141.003 258.25 141Z" fill="white"/>
<path d="M178.67 19.93C177.245 18.4728 176.228 16.6658 175.722 14.691C175.217 12.7162 175.24 10.643 175.79 8.68004C177.79 1.97004 182.46 0.430042 185 1.18004C187.54 1.93004 188.75 10.01 188 12.59C189.67 8.26004 194.34 5.51004 195.17 11.01C196 16.51 191.67 20.01 191.67 20.01" fill="white"/>
<path d="M191.71 21.0001C191.503 21.0009 191.3 20.9373 191.13 20.8179C190.961 20.6985 190.832 20.5293 190.763 20.3337C190.694 20.1381 190.687 19.9259 190.744 19.7263C190.801 19.5268 190.918 19.3499 191.08 19.2201C192.22 18.2468 193.103 17.0078 193.65 15.6126C194.198 14.2174 194.394 12.7088 194.22 11.2201C194.1 10.4301 193.78 9.10005 192.94 9.01005C191.85 8.89005 189.94 10.5701 188.94 13.0101L187.04 12.3901C187.74 9.83005 186.32 2.68005 184.68 2.19005C183.463 1.92165 182.189 2.12917 181.12 2.77005C179.72 3.53005 177.81 5.24005 176.71 9.02005C176.203 10.8046 176.176 12.6915 176.633 14.4897C177.089 16.2879 178.013 17.9335 179.31 19.2601C179.415 19.4459 179.458 19.6604 179.432 19.8723C179.406 20.0841 179.313 20.2822 179.167 20.4375C179.021 20.5928 178.828 20.6972 178.618 20.7355C178.408 20.7737 178.192 20.7438 178 20.6501C176.433 19.0726 175.314 17.1068 174.757 14.9542C174.2 12.8016 174.225 10.5396 174.83 8.40005C176.13 4.00005 178.47 1.90005 180.2 1.00005C181.732 0.0994352 183.557 -0.162759 185.28 0.270052C187.58 0.950052 188.85 5.34005 189.16 8.94005C189.639 8.33866 190.247 7.85288 190.94 7.51876C191.632 7.18464 192.391 7.01077 193.16 7.01005C194.09 7.11005 195.72 7.75005 196.16 10.9101C197.07 16.9101 192.49 20.6401 192.29 20.8001C192.122 20.9258 191.92 20.9958 191.71 21.0001Z" fill="#E6E6E6"/>
<path d="M167.5 21.38H164.5C164.235 21.38 163.98 21.2746 163.793 21.0871C163.605 20.8996 163.5 20.6452 163.5 20.38C163.5 20.1148 163.605 19.8604 163.793 19.6729C163.98 19.4854 164.235 19.38 164.5 19.38H167.5C167.765 19.38 168.02 19.4854 168.207 19.6729C168.395 19.8604 168.5 20.1148 168.5 20.38C168.5 20.6452 168.395 20.8996 168.207 21.0871C168.02 21.2746 167.765 21.38 167.5 21.38Z" fill="#E6E6E6"/>
<path d="M199.5 21.38H170.5C170.235 21.38 169.98 21.2746 169.793 21.0871C169.605 20.8996 169.5 20.6452 169.5 20.38C169.5 20.1148 169.605 19.8604 169.793 19.6729C169.98 19.4854 170.235 19.38 170.5 19.38H199.5C199.765 19.38 200.02 19.4854 200.207 19.6729C200.395 19.8604 200.5 20.1148 200.5 20.38C200.5 20.6452 200.395 20.8996 200.207 21.0871C200.02 21.2746 199.765 21.38 199.5 21.38Z" fill="#E6E6E6"/>
</svg>
