<svg width="298" height="113" viewBox="0 0 298 113" fill="none" xmlns="http://www.w3.org/2000/svg">
<path d="M42.18 34.54H35.94C32.9411 34.54 30.51 36.9689 30.51 39.965C30.51 42.9612 32.9411 45.39 35.94 45.39H42.18C45.1789 45.39 47.61 42.9612 47.61 39.965C47.61 36.9689 45.1789 34.54 42.18 34.54Z" fill="#FF8338"/>
<path d="M42.19 46.34H35.94C35.0816 46.374 34.2251 46.2343 33.422 45.9292C32.6189 45.6242 31.8857 45.16 31.2663 44.5647C30.6469 43.9694 30.1542 43.2551 29.8176 42.4647C29.481 41.6743 29.3075 40.8241 29.3075 39.965C29.3075 39.1059 29.481 38.2556 29.8176 37.4652C30.1542 36.6748 30.6469 35.9605 31.2663 35.3652C31.8857 34.7699 32.6189 34.3058 33.422 34.0007C34.2251 33.6957 35.0816 33.556 35.94 33.59H42.19C43.0484 33.556 43.9049 33.6957 44.708 34.0007C45.5111 34.3058 46.2443 34.7699 46.8637 35.3652C47.4831 35.9605 47.9758 36.6748 48.3124 37.4652C48.649 38.2556 48.8225 39.1059 48.8225 39.965C48.8225 40.8241 48.649 41.6743 48.3124 42.4647C47.9758 43.2551 47.4831 43.9694 46.8637 44.5647C46.2443 45.16 45.5111 45.6242 44.708 45.9292C43.9049 46.2343 43.0484 46.374 42.19 46.34ZM35.94 35.49C34.7897 35.5444 33.7046 36.0396 32.9098 36.8728C32.115 37.7061 31.6716 38.8134 31.6716 39.965C31.6716 41.1165 32.115 42.2238 32.9098 43.0571C33.7046 43.8903 34.7897 44.3856 35.94 44.44H42.19C43.3403 44.3856 44.4254 43.8903 45.2202 43.0571C46.015 42.2238 46.4584 41.1165 46.4584 39.965C46.4584 38.8134 46.015 37.7061 45.2202 36.8728C44.4254 36.0396 43.3403 35.5444 42.19 35.49H35.94Z" fill="#171A1C"/>
<path d="M46.85 110.68C56.1063 110.68 63.61 102.424 63.61 92.24C63.61 82.0559 56.1063 73.8 46.85 73.8C37.5937 73.8 30.09 82.0559 30.09 92.24C30.09 102.424 37.5937 110.68 46.85 110.68Z" fill="#171A1C"/>
<path d="M46.85 111.16C37.34 111.16 29.61 102.67 29.61 92.2401C29.61 81.8101 37.34 73.3201 46.85 73.3201C56.36 73.3201 64.09 81.8101 64.09 92.2401C64.09 102.67 56.35 111.16 46.85 111.16ZM46.85 74.2701C37.85 74.2701 30.56 82.3301 30.56 92.2701C30.56 102.21 37.87 110.27 46.85 110.27C55.83 110.27 63.14 102.21 63.14 92.2701C63.14 82.3301 55.83 74.2701 46.85 74.2701Z" fill="#171A1C"/>
<path d="M43.49 110.68C52.7463 110.68 60.25 102.424 60.25 92.24C60.25 82.0559 52.7463 73.8 43.49 73.8C34.2337 73.8 26.73 82.0559 26.73 92.24C26.73 102.424 34.2337 110.68 43.49 110.68Z" fill="#171A1C"/>
<path d="M43.49 111.16C33.99 111.16 26.25 102.67 26.25 92.2401C26.25 81.8101 34 73.3201 43.49 73.3201C52.98 73.3201 60.74 81.8101 60.74 92.2401C60.74 102.67 53 111.16 43.49 111.16ZM43.49 74.2701C34.49 74.2701 27.21 82.3301 27.21 92.2701C27.21 102.21 34.51 110.27 43.49 110.27C52.47 110.27 59.78 102.21 59.78 92.2701C59.78 82.3301 52.48 74.2701 43.49 74.2701Z" fill="#171A1C"/>
<path d="M171.42 110.68C181.201 110.68 189.13 102.424 189.13 92.24C189.13 82.0559 181.201 73.8 171.42 73.8C161.639 73.8 153.71 82.0559 153.71 92.24C153.71 102.424 161.639 110.68 171.42 110.68Z" fill="#171A1C"/>
<path d="M171.42 111.16C161.42 111.16 153.24 102.67 153.24 92.2401C153.24 81.8101 161.39 73.3201 171.42 73.3201C181.45 73.3201 189.6 81.8101 189.6 92.2401C189.6 102.67 181.45 111.16 171.42 111.16ZM171.42 74.2701C161.92 74.2701 154.19 82.3301 154.19 92.2701C154.19 102.21 161.92 110.27 171.42 110.27C180.92 110.27 188.65 102.21 188.65 92.2701C188.65 82.3301 180.92 74.2701 171.42 74.2701Z" fill="#171A1C"/>
<path d="M167.88 110.68C177.661 110.68 185.59 102.424 185.59 92.24C185.59 82.0559 177.661 73.8 167.88 73.8C158.099 73.8 150.17 82.0559 150.17 92.24C150.17 102.424 158.099 110.68 167.88 110.68Z" fill="#171A1C"/>
<path d="M167.88 111.16C157.88 111.16 149.69 102.67 149.69 92.2401C149.69 81.8101 157.85 73.3201 167.88 73.3201C177.91 73.3201 186.06 81.8101 186.06 92.2401C186.06 102.67 177.91 111.16 167.88 111.16ZM167.88 74.2701C158.38 74.2701 150.65 82.3301 150.65 92.2701C150.65 102.21 158.38 110.27 167.88 110.27C177.38 110.27 185.11 102.21 185.11 92.2701C185.11 82.3301 177.38 74.2701 167.88 74.2701Z" fill="#171A1C"/>
<path d="M10.59 87.6301V62.0001C10.6032 57.5442 12.3819 53.2753 15.5364 50.1282C18.6909 46.9812 22.9641 45.2127 27.42 45.2101H35.49L61.22 5.37007C62.0997 4.02267 63.3026 2.91691 64.7192 2.1536C66.1358 1.3903 67.7209 0.993735 69.33 1.00007H244.8C247.233 1.00532 249.566 1.97217 251.289 3.68989C253.012 5.40761 253.987 7.73691 254 10.1701V87.6301H10.59Z" fill="#FF8338"/>
<path d="M255 88.58H9.64V62C9.65849 57.2939 11.5389 52.7863 14.8705 49.4623C18.202 46.1382 22.7138 44.2679 27.42 44.26H35L60.42 4.85005C61.378 3.35804 62.6965 2.13152 64.2538 1.28383C65.8111 0.436142 67.5569 -0.00538357 69.33 4.95418e-05H244.8C246.138 -0.0025792 247.463 0.258463 248.7 0.768254C249.936 1.27804 251.06 2.02659 252.008 2.97109C252.955 3.91559 253.707 5.03753 254.22 6.27278C254.734 7.50802 254.999 8.83235 255 10.17V88.58ZM11.55 86.67H253.06V10.17C253.057 7.98017 252.186 5.88075 250.638 4.33227C249.089 2.78379 246.99 1.9127 244.8 1.91005H69.33C67.8735 1.90825 66.44 2.27386 65.1623 2.97303C63.8845 3.67221 62.8038 4.68237 62.02 5.91005L36 46.17H27.42C23.2195 46.1753 19.1921 47.8435 16.2181 50.8099C13.2442 53.7764 11.5659 57.7996 11.55 62V86.67Z" fill="#171A1C"/>
<path d="M63.15 60.4299H12.29C11.0142 60.4299 9.98 61.4642 9.98 62.7399V69.6499C9.98 70.9257 11.0142 71.9599 12.29 71.9599H63.15C64.4258 71.9599 65.46 70.9257 65.46 69.6499V62.7399C65.46 61.4642 64.4258 60.4299 63.15 60.4299Z" fill="#171A1C"/>
<path d="M63.25 72.43H12.18C11.8281 72.43 11.4796 72.3607 11.1544 72.226C10.8293 72.0913 10.5338 71.8939 10.285 71.645C10.0361 71.3962 9.83868 71.1007 9.704 70.7756C9.56932 70.4504 9.5 70.1019 9.5 69.75V62.63C9.5131 61.9279 9.80123 61.259 10.3024 60.7672C10.8036 60.2754 11.4778 59.9999 12.18 60H63.25C63.9608 60 64.6424 60.2824 65.145 60.785C65.6476 61.2876 65.93 61.9692 65.93 62.68V69.8C65.9169 70.5021 65.6288 71.171 65.1276 71.6628C64.6264 72.1546 63.9522 72.4301 63.25 72.43ZM12.18 60.9C11.722 60.9026 11.2835 61.0857 10.9596 61.4096C10.6357 61.7335 10.4526 62.172 10.45 62.63V69.75C10.4526 70.208 10.6357 70.6465 10.9596 70.9704C11.2835 71.2943 11.722 71.4774 12.18 71.48H63.25C63.4785 71.4813 63.705 71.4376 63.9166 71.3514C64.1282 71.2652 64.3208 71.1381 64.4833 70.9774C64.6458 70.8168 64.7751 70.6257 64.8637 70.4151C64.9524 70.2045 64.9987 69.9785 65 69.75V62.63C64.9974 62.172 64.8143 61.7335 64.4904 61.4096C64.1665 61.0857 63.728 60.9026 63.27 60.9H12.18Z" fill="#171A1C"/>
<path d="M59.54 70.0301C61.6608 70.0301 63.38 68.3109 63.38 66.1901C63.38 64.0693 61.6608 62.3501 59.54 62.3501C57.4192 62.3501 55.7 64.0693 55.7 66.1901C55.7 68.3109 57.4192 70.0301 59.54 70.0301Z" fill="white"/>
<path d="M59.54 70.5101C58.6856 70.5101 57.8504 70.2568 57.1399 69.7821C56.4295 69.3074 55.8758 68.6327 55.5488 67.8433C55.2219 67.0539 55.1363 66.1853 55.303 65.3473C55.4697 64.5093 55.8811 63.7396 56.4853 63.1354C57.0895 62.5313 57.8592 62.1198 58.6972 61.9531C59.5352 61.7864 60.4038 61.872 61.1932 62.199C61.9826 62.5259 62.6573 63.0796 63.132 63.7901C63.6066 64.5005 63.86 65.3357 63.86 66.1901C63.8574 67.335 63.4014 68.4323 62.5918 69.2419C61.7822 70.0515 60.6849 70.5075 59.54 70.5101ZM59.54 62.8201C58.8731 62.8181 58.2205 63.0141 57.665 63.3832C57.1095 63.7523 56.676 64.2779 56.4194 64.8935C56.1628 65.5091 56.0946 66.187 56.2235 66.8414C56.3524 67.4958 56.6726 68.0972 57.1435 68.5695C57.6144 69.0418 58.2149 69.3638 58.8689 69.4946C59.5228 69.6255 60.201 69.5593 60.8173 69.3045C61.4337 69.0498 61.9606 68.6178 62.3314 68.0634C62.7021 67.509 62.9 66.8571 62.9 66.1901C62.9 65.2981 62.5463 64.4424 61.9165 63.8107C61.2867 63.179 60.432 62.8228 59.54 62.8201Z" fill="#171A1C"/>
<path d="M265.82 90.9101H6.2C5.59415 90.8709 5.02595 90.6025 4.61076 90.1596C4.19557 89.7166 3.96452 89.1323 3.96452 88.5251C3.96452 87.918 4.19557 87.3337 4.61076 86.8907C5.02595 86.4477 5.59415 86.1794 6.2 86.1401H265.82C266.426 86.1794 266.994 86.4477 267.409 86.8907C267.824 87.3337 268.055 87.918 268.055 88.5251C268.055 89.1323 267.824 89.7166 267.409 90.1596C266.994 90.6025 266.426 90.8709 265.82 90.9101Z" fill="#171A1C"/>
<path d="M101.83 40.5601L117.83 15.6901C118.193 15.1287 118.69 14.667 119.277 14.3473C119.864 14.0277 120.522 13.8601 121.19 13.8601H143.03C144.091 13.8601 145.108 14.2815 145.858 15.0317C146.609 15.7818 147.03 16.7992 147.03 17.8601V43.0001C147.03 44.061 146.609 45.0784 145.858 45.8285C145.108 46.5787 144.091 47.0001 143.03 47.0001L105.14 46.6901C104.431 46.6768 103.739 46.4754 103.134 46.1066C102.529 45.7379 102.032 45.2149 101.696 44.5913C101.359 43.9677 101.194 43.2658 101.217 42.5575C101.241 41.8492 101.452 41.1599 101.83 40.5601Z" fill="#171A1C"/>
<path d="M143.07 47.5002L105.19 47.1902C104.39 47.1833 103.607 46.962 102.922 46.5494C102.237 46.1367 101.675 45.5478 101.295 44.844C100.915 44.1402 100.731 43.3473 100.761 42.5481C100.792 41.7489 101.037 40.9726 101.47 40.3002L117.47 15.4302C117.88 14.809 118.438 14.3005 119.095 13.9511C119.752 13.6018 120.486 13.4226 121.23 13.4302H143.07C144.254 13.4302 145.389 13.8997 146.227 14.7359C147.065 15.572 147.537 16.7064 147.54 17.8902V43.0002C147.535 44.1841 147.062 45.318 146.225 46.1551C145.388 46.9923 144.254 47.4649 143.07 47.4702V47.5002ZM121.23 14.3402C120.634 14.3319 120.047 14.4754 119.522 14.7571C118.997 15.0387 118.552 15.4493 118.23 15.9502L102.23 40.8202C101.89 41.3496 101.699 41.9604 101.676 42.589C101.652 43.2176 101.797 43.8409 102.097 44.3943C102.396 44.9476 102.838 45.4106 103.376 45.7353C103.915 46.0599 104.531 46.2343 105.16 46.2402L143.04 46.5502C143.971 46.5527 144.867 46.1943 145.54 45.5502C145.863 45.2201 146.118 44.8293 146.29 44.4002C146.462 43.9711 146.547 43.5123 146.54 43.0502V17.8502C146.54 16.9192 146.17 16.0265 145.512 15.3682C144.854 14.71 143.961 14.3402 143.03 14.3402H121.23Z" fill="#171A1C"/>
<path d="M57.06 12.0601L103 12.9201C103.541 12.9299 104.07 13.0832 104.533 13.3642C104.996 13.6453 105.376 14.0441 105.634 14.5199C105.892 14.9957 106.019 15.5315 106.003 16.0726C105.986 16.6138 105.827 17.1408 105.54 17.6001L89.8 42.7801C88.9807 44.0886 87.8426 45.1677 86.4923 45.9163C85.1421 46.6649 83.6239 47.0584 82.08 47.0601L35.32 45.8001" fill="#171A1C"/>
<path d="M82.08 47.53L35.31 46.28V45.28L82.1 46.5801C83.5551 46.5888 84.9883 46.2259 86.264 45.526C87.5397 44.826 88.6157 43.812 89.39 42.5801L105.14 17.4C105.393 17.0107 105.536 16.5606 105.555 16.0968C105.574 15.633 105.469 15.1726 105.249 14.7637C105.029 14.3549 104.703 14.0126 104.306 13.7727C103.909 13.5328 103.454 13.4041 102.99 13.4L57.05 12.55V11.55L102.99 12.41C103.626 12.4059 104.252 12.5733 104.801 12.8946C105.35 13.216 105.803 13.6794 106.111 14.2361C106.419 14.7928 106.571 15.4223 106.551 16.0583C106.532 16.6942 106.342 17.3132 106 17.85L90.2 43C89.3467 44.3864 88.1523 45.5307 86.7307 46.3238C85.3091 47.1169 83.7079 47.5322 82.08 47.53Z" fill="#171A1C"/>
<path d="M146.31 57.8601H135.19C134.737 57.8849 134.283 57.817 133.857 57.6607C133.431 57.5043 133.041 57.2626 132.711 56.9505C132.381 56.6384 132.119 56.2623 131.939 55.8453C131.76 55.4283 131.667 54.9791 131.667 54.5251C131.667 54.0711 131.76 53.6218 131.939 53.2048C132.119 52.7878 132.381 52.4117 132.711 52.0996C133.041 51.7875 133.431 51.5458 133.857 51.3895C134.283 51.2331 134.737 51.1652 135.19 51.1901H146.31C146.763 51.1652 147.217 51.2331 147.643 51.3895C148.069 51.5458 148.459 51.7875 148.789 52.0996C149.119 52.4117 149.381 52.7878 149.561 53.2048C149.74 53.6218 149.833 54.0711 149.833 54.5251C149.833 54.9791 149.74 55.4283 149.561 55.8453C149.381 56.2623 149.119 56.6384 148.789 56.9505C148.459 57.2626 148.069 57.5043 147.643 57.6607C147.217 57.817 146.763 57.8849 146.31 57.8601Z" fill="#171A1C"/>
<path d="M92 73.4502C87.3261 73.4175 82.8166 75.1735 79.3956 78.3584C75.9746 81.5432 73.9011 85.9158 73.6 90.5802H90.68V93.8802H110.35C110.35 93.8802 110.41 92.7302 110.41 92.3402C110.41 82.1502 102.15 73.4502 92 73.4502Z" fill="#171A1C"/>
<path d="M217.37 73.45C212.701 73.425 208.199 75.1844 204.785 78.3685C201.37 81.5526 199.301 85.9208 199 90.58H216V93.88H235.79C235.79 93.88 235.85 92.73 235.85 92.34C235.81 82.15 227.55 73.45 217.37 73.45Z" fill="#171A1C"/>
<path d="M222.21 110.68C232.394 110.68 240.65 102.424 240.65 92.24C240.65 82.0559 232.394 73.8 222.21 73.8C212.026 73.8 203.77 82.0559 203.77 92.24C203.77 102.424 212.026 110.68 222.21 110.68Z" fill="#333333"/>
<path d="M222.21 111.16C218.468 111.162 214.809 110.054 211.696 107.976C208.583 105.899 206.157 102.944 204.723 99.4874C203.29 96.0304 202.913 92.2259 203.642 88.5551C204.371 84.8843 206.172 81.5122 208.818 78.8652C211.464 76.2181 214.835 74.4152 218.505 73.6844C222.176 72.9535 225.98 73.3276 229.438 74.7593C232.896 76.191 235.851 78.616 237.931 81.7276C240.01 84.8392 241.12 88.4976 241.12 92.2401C241.115 97.2546 239.121 102.062 235.576 105.609C232.031 109.156 227.225 111.152 222.21 111.16ZM222.21 74.2701C218.65 74.2701 215.17 75.3258 212.21 77.3036C209.25 79.2815 206.943 82.0927 205.58 85.3818C204.218 88.6708 203.861 92.29 204.556 95.7817C205.25 99.2734 206.965 102.481 209.482 104.998C211.999 107.515 215.207 109.23 218.698 109.924C222.19 110.619 225.809 110.262 229.098 108.9C232.387 107.538 235.199 105.23 237.176 102.27C239.154 99.3102 240.21 95.8301 240.21 92.2701C240.21 87.4962 238.314 82.9178 234.938 79.5421C231.562 76.1665 226.984 74.2701 222.21 74.2701Z" fill="#171A1C"/>
<path d="M220.36 110.68C230.544 110.68 238.8 102.424 238.8 92.24C238.8 82.0559 230.544 73.8 220.36 73.8C210.176 73.8 201.92 82.0559 201.92 92.24C201.92 102.424 210.176 110.68 220.36 110.68Z" fill="#171A1C"/>
<path d="M220.36 111.16C216.618 111.16 212.96 110.05 209.849 107.971C206.737 105.893 204.312 102.938 202.88 99.4804C201.448 96.0233 201.074 92.2191 201.804 88.549C202.534 84.8788 204.336 81.5076 206.982 78.8616C209.628 76.2156 212.999 74.4137 216.669 73.6836C220.339 72.9536 224.143 73.3283 227.6 74.7603C231.058 76.1923 234.012 78.6173 236.091 81.7287C238.17 84.8401 239.28 88.4981 239.28 92.2401C239.275 97.2563 237.28 102.066 233.733 105.613C230.186 109.16 225.376 111.155 220.36 111.16ZM220.36 74.2701C216.8 74.2701 213.32 75.3258 210.36 77.3036C207.4 79.2815 205.093 82.0927 203.73 85.3818C202.368 88.6708 202.011 92.29 202.706 95.7817C203.4 99.2734 205.115 102.481 207.632 104.998C210.149 107.515 213.357 109.23 216.848 109.924C220.34 110.619 223.959 110.262 227.248 108.9C230.537 107.538 233.349 105.23 235.326 102.27C237.304 99.3103 238.36 95.8301 238.36 92.2701C238.36 87.4962 236.464 82.9178 233.088 79.5422C229.712 76.1665 225.134 74.2701 220.36 74.2701Z" fill="#171A1C"/>
<path d="M226.82 102.84C231.404 102.84 235.12 98.0944 235.12 92.2401C235.12 86.3859 231.404 81.6401 226.82 81.6401C222.236 81.6401 218.52 86.3859 218.52 92.2401C218.52 98.0944 222.236 102.84 226.82 102.84Z" fill="white"/>
<path d="M226.82 103.32C221.98 103.32 218.04 98.3202 218.04 92.2402C218.04 86.1602 221.98 81.1602 226.82 81.1602C231.66 81.1602 235.59 86.1602 235.59 92.2402C235.59 98.3202 231.66 103.32 226.82 103.32ZM226.82 82.1102C222.5 82.1102 219 86.6502 219 92.2402C219 97.8302 222.5 102.36 226.82 102.36C231.14 102.36 234.64 97.8202 234.64 92.2402C234.64 86.6602 231.13 82.1102 226.82 82.1102Z" fill="#171A1C"/>
<path d="M97.5 110.68C107.684 110.68 115.94 102.424 115.94 92.24C115.94 82.0559 107.684 73.8 97.5 73.8C87.3159 73.8 79.06 82.0559 79.06 92.24C79.06 102.424 87.3159 110.68 97.5 110.68Z" fill="#171A1C"/>
<path d="M97.5 111.16C93.758 111.16 90.1 110.05 86.9886 107.971C83.8772 105.893 81.4522 102.938 80.0202 99.4804C78.5882 96.0233 78.2135 92.2191 78.9435 88.549C79.6736 84.8788 81.4755 81.5076 84.1215 78.8616C86.7675 76.2156 90.1388 74.4137 93.8089 73.6836C97.479 72.9536 101.283 73.3283 104.74 74.7603C108.198 76.1923 111.152 78.6173 113.231 81.7287C115.31 84.8401 116.42 88.4981 116.42 92.2401C116.415 97.2563 114.42 102.066 110.873 105.613C107.326 109.16 102.516 111.155 97.5 111.16ZM97.5 74.2701C93.9399 74.2701 90.4598 75.3258 87.4997 77.3036C84.5396 79.2815 82.2325 82.0927 80.8702 85.3818C79.5078 88.6708 79.1513 92.29 79.8459 95.7817C80.5404 99.2734 82.2547 102.481 84.7721 104.998C87.2894 107.515 90.4967 109.23 93.9884 109.924C97.48 110.619 101.099 110.262 104.388 108.9C107.677 107.538 110.489 105.23 112.466 102.27C114.444 99.3103 115.5 95.8301 115.5 92.2701C115.5 87.4962 113.604 82.9178 110.228 79.5422C106.852 76.1665 102.274 74.2701 97.5 74.2701Z" fill="#171A1C"/>
<path d="M95.65 110.68C105.834 110.68 114.09 102.424 114.09 92.24C114.09 82.0559 105.834 73.8 95.65 73.8C85.4659 73.8 77.21 82.0559 77.21 92.24C77.21 102.424 85.4659 110.68 95.65 110.68Z" fill="#171A1C"/>
<path d="M95.65 111.16C91.908 111.16 88.25 110.05 85.1386 107.971C82.0272 105.893 79.6022 102.938 78.1702 99.4804C76.7382 96.0233 76.3635 92.2191 77.0935 88.549C77.8236 84.8788 79.6255 81.5076 82.2715 78.8616C84.9175 76.2156 88.2888 74.4137 91.9589 73.6836C95.629 72.9536 99.4332 73.3283 102.89 74.7603C106.348 76.1923 109.302 78.6173 111.381 81.7287C113.46 84.8401 114.57 88.4981 114.57 92.2401C114.565 97.2563 112.57 102.066 109.023 105.613C105.476 109.16 100.666 111.155 95.65 111.16ZM95.65 74.2701C92.0899 74.2701 88.6098 75.3258 85.6497 77.3036C82.6896 79.2815 80.3825 82.0927 79.0202 85.3818C77.6578 88.6708 77.3013 92.29 77.9959 95.7817C78.6904 99.2734 80.4047 102.481 82.9221 104.998C85.4394 107.515 88.6467 109.23 92.1384 109.924C95.63 110.619 99.2492 110.262 102.538 108.9C105.827 107.538 108.639 105.23 110.616 102.27C112.594 99.3103 113.65 95.8301 113.65 92.2701C113.65 87.4962 111.754 82.9178 108.378 79.5422C105.002 76.1665 100.424 74.2701 95.65 74.2701Z" fill="#171A1C"/>
<path d="M102.11 102.84C106.694 102.84 110.41 98.0944 110.41 92.2401C110.41 86.3859 106.694 81.6401 102.11 81.6401C97.526 81.6401 93.81 86.3859 93.81 92.2401C93.81 98.0944 97.526 102.84 102.11 102.84Z" fill="white"/>
<path d="M102.11 103.32C97.27 103.32 93.33 98.3202 93.33 92.2402C93.33 86.1602 97.27 81.1602 102.11 81.1602C106.95 81.1602 110.88 86.1602 110.88 92.2402C110.88 98.3202 107 103.32 102.11 103.32ZM102.11 82.1102C97.79 82.1102 94.29 86.6502 94.29 92.2402C94.29 97.8302 97.79 102.36 102.11 102.36C106.43 102.36 109.93 97.8202 109.93 92.2402C109.93 86.6602 106.42 82.1102 102.11 82.1102Z" fill="#171A1C"/>
<path d="M12.63 62.3501C12.2 62.3885 11.7726 62.452 11.35 62.5401V69.8401C11.7726 69.9282 12.2 69.9917 12.63 70.0301C13.6484 70.0301 14.6252 69.6255 15.3453 68.9054C16.0654 68.1852 16.47 67.2085 16.47 66.1901C16.47 65.1717 16.0654 64.1949 15.3453 63.4748C14.6252 62.7547 13.6484 62.3501 12.63 62.3501Z" fill="white"/>
<path d="M12.63 70.51C12.4173 70.5119 12.2054 70.485 12 70.43C11.85 70.43 11.64 70.36 11.28 70.31L10.87 70.25V62.13L11.28 62.07C11.64 62.07 11.84 61.98 12 61.95C12.2054 61.8949 12.4173 61.868 12.63 61.87C13.7757 61.87 14.8745 62.3251 15.6847 63.1353C16.4949 63.9454 16.95 65.0442 16.95 66.19C16.95 67.3357 16.4949 68.4345 15.6847 69.2447C14.8745 70.0548 13.7757 70.51 12.63 70.51ZM11.83 69.43L12.19 69.5C12.3361 69.5185 12.4839 69.5185 12.63 69.5C13.0873 69.5249 13.5449 69.4564 13.9749 69.2985C14.4048 69.1407 14.7981 68.8969 15.1307 68.5819C15.4632 68.267 15.7281 67.8876 15.9091 67.4669C16.0901 67.0462 16.1835 66.593 16.1835 66.135C16.1835 65.677 16.0901 65.2238 15.9091 64.803C15.7281 64.3823 15.4632 64.0029 15.1307 63.688C14.7981 63.3731 14.4048 63.1293 13.9749 62.9714C13.5449 62.8136 13.0873 62.745 12.63 62.77C12.4814 62.7715 12.3336 62.7917 12.19 62.83L11.83 62.9V69.43Z" fill="#171A1C"/>
<path d="M235.52 47.8501H165.09C164.553 47.8514 164.022 47.7468 163.526 47.5424C163.029 47.3379 162.578 47.0376 162.199 46.6586C161.819 46.2796 161.517 45.8294 161.312 45.3337C161.106 44.8381 161 44.3067 161 43.7701V16.9201C161 15.838 161.43 14.8002 162.195 14.0351C162.96 13.2699 163.998 12.8401 165.08 12.8401H235.51C236.592 12.8401 237.63 13.2699 238.395 14.0351C239.16 14.8002 239.59 15.838 239.59 16.9201V43.7701C239.59 44.8504 239.162 45.8867 238.399 46.6516C237.636 47.4164 236.6 47.8474 235.52 47.8501ZM165.09 14.7401C164.514 14.7427 163.962 14.9736 163.555 15.3821C163.148 15.7907 162.92 16.3436 162.92 16.9201V43.7701C162.92 44.3456 163.149 44.8976 163.556 45.3045C163.963 45.7115 164.514 45.9401 165.09 45.9401H235.52C236.096 45.9401 236.649 45.7118 237.058 45.3051C237.467 44.8984 237.697 44.3465 237.7 43.7701V16.9201C237.697 16.3427 237.467 15.7898 237.059 15.3815C236.65 14.9732 236.097 14.7427 235.52 14.7401H165.09Z" fill="#171A1C"/>
<path d="M88.51 89.6801C88.3839 89.6763 88.2598 89.6472 88.1452 89.5945C88.0306 89.5418 87.9277 89.4665 87.8428 89.3732C87.7579 89.2799 87.6926 89.1704 87.6509 89.0513C87.6092 88.9323 87.5919 88.806 87.6 88.6801C87.6 88.3701 87.98 81.0501 94.6 78.5501C94.8367 78.472 95.094 78.4851 95.3215 78.5869C95.5491 78.6886 95.7304 78.8716 95.83 79.1001C95.911 79.3381 95.8993 79.5978 95.7974 79.8276C95.6955 80.0574 95.5107 80.2404 95.28 80.3401C89.88 82.3401 89.55 88.7001 89.55 88.7601C89.5295 89.0183 89.4097 89.2584 89.2157 89.43C89.0217 89.6016 88.7687 89.6913 88.51 89.6801Z" fill="white"/>
<path d="M213.91 90.63H213.83C213.322 90.6067 212.845 90.383 212.502 90.0082C212.159 89.6333 211.978 89.1377 212 88.63C212 88.3 212.42 80.37 219.57 77.63C220.043 77.4497 220.569 77.4648 221.031 77.672C221.494 77.8792 221.855 78.2616 222.035 78.735C222.215 79.2084 222.2 79.7341 221.993 80.1964C221.786 80.6586 221.403 81.0197 220.93 81.2C216.11 83.03 215.82 88.71 215.81 88.77C215.8 89.267 215.595 89.74 215.24 90.0877C214.884 90.4355 214.407 90.6301 213.91 90.63Z" fill="white"/>
<path d="M130.57 46.0001C130.57 46.0001 132.39 62.0001 134.64 61.4501C136.89 60.9001 140.05 54.2901 139.45 50.3601C138.85 46.4301 131.41 43.2101 130.57 46.0001Z" fill="#FFA670"/>
<path d="M134.53 62.4302C134.214 62.4274 133.906 62.326 133.65 62.1402C131.43 60.6002 130.01 49.4902 129.65 46.1402V45.9502L129.7 45.7602C130.07 44.5502 131.18 43.9202 132.76 44.0302C135.47 44.2302 139.92 46.8002 140.44 50.2402C141.09 54.5202 137.84 61.6702 134.92 62.4002C134.792 62.4293 134.661 62.4394 134.53 62.4302ZM131.53 46.1602C132.25 52.3102 133.61 59.2502 134.61 60.4602C136.26 59.6302 139.01 53.9002 138.5 50.4602C138.14 48.1302 134.66 46.0102 132.57 45.8702C132.19 45.8902 131.73 45.9102 131.54 46.1602H131.53Z" fill="#171A1C"/>
<path d="M112.11 30.4299C113.322 29.4754 114.854 29.0242 116.39 29.1699C119.01 29.4299 123.09 29.9699 125.39 30.9899C128.86 32.5699 136.02 35.9399 137.92 39.7299C139.82 43.5199 139.5 50.3699 139.5 50.3699L131 50.2999C130.878 49.5557 130.808 48.8039 130.79 48.0499C130.775 47.6586 130.799 47.2667 130.86 46.8799C130.873 46.804 130.869 46.7262 130.849 46.6518C130.829 46.5775 130.793 46.5084 130.744 46.4493C130.694 46.3903 130.633 46.3428 130.563 46.3101C130.493 46.2774 130.417 46.2603 130.34 46.2599H108.89C108.89 46.2599 103.83 40.3599 104.56 38.5699C105.09 37.2799 109.09 32.8299 112.11 30.4299Z" fill="#FF8338"/>
<path d="M140.36 51.3301L130.18 51.2401L130.05 50.4601C129.92 49.6661 129.843 48.8643 129.82 48.0601C129.82 47.7601 129.82 47.4701 129.82 47.2101H108.41L108.13 46.8801C106.49 44.9701 102.78 40.3001 103.64 38.2001C104.29 36.6201 108.54 31.9901 111.49 29.6501C112.903 28.5308 114.697 28.007 116.49 28.1901C119.49 28.4801 123.49 29.0401 125.74 30.0901C130.41 32.2101 136.83 35.4701 138.74 39.2701C140.74 43.2701 140.44 50.0901 140.42 50.3801L140.36 51.3301ZM131.82 49.3301L138.51 49.3901C138.51 47.4401 138.38 42.8701 137.02 40.1401C135.2 36.5001 127.48 32.9901 124.94 31.8401C122.156 30.8576 119.247 30.2718 116.3 30.1001C115.008 29.9726 113.717 30.3528 112.7 31.1601C109.7 33.5401 105.87 37.8701 105.43 38.9401C105.25 39.6401 107.07 42.6201 109.32 45.3101H130.32C130.533 45.3104 130.744 45.357 130.937 45.4468C131.131 45.5366 131.302 45.6674 131.44 45.8301C131.582 45.9907 131.686 46.1809 131.744 46.3867C131.803 46.5926 131.815 46.809 131.78 47.0201C131.737 47.3517 131.717 47.6858 131.72 48.0201C131.74 48.5001 131.78 49.0001 131.82 49.3501V49.3301Z" fill="#171A1C"/>
<path d="M130.85 35.1702C130.85 35.1702 132.29 29.1702 133.72 28.4302C135.15 27.6902 137.72 24.4902 136.41 23.5902C135.1 22.6902 135.5 17.8802 133.7 17.9202C131.9 17.9602 125 20.0002 124.57 21.4902C124.14 22.9802 122.38 28.5702 123.35 30.3002C122.11 32.2302 122.08 33.3002 122.71 33.9302C123.34 34.5602 127.74 37.7402 130.85 35.1702Z" fill="#FFA670"/>
<path d="M128.07 37.59C125.727 37.4573 123.496 36.5457 121.73 35C120.57 33.9 120.59 32.28 121.73 30.17C121.32 28.42 121.87 25.71 122.89 22.07C123 21.7 123.08 21.39 123.14 21.17C123.86 18.27 132.61 16.54 133.62 16.52H133.68C135.82 16.52 136.33 18.89 136.68 20.63C136.786 21.2647 136.964 21.8853 137.21 22.48C137.516 22.7123 137.759 23.0163 137.92 23.3651C138.08 23.7139 138.152 24.0968 138.13 24.48C138.01 26.39 135.77 28.91 134.32 29.68C133.85 30.09 132.82 32.83 132.18 35.49L132.07 35.96L131.7 36.26C130.683 37.1142 129.398 37.5848 128.07 37.59ZM123.74 33C123.74 33 127.21 35.77 129.59 34.35C130.22 31.84 131.43 28.06 133.05 27.2C134.028 26.5461 134.804 25.6317 135.29 24.56C134.541 23.5862 134.093 22.415 134 21.19C133.884 20.5716 133.72 19.9631 133.51 19.37C131.62 19.56 126.82 21.13 125.97 21.99C125.91 22.21 125.84 22.49 125.75 22.81C124.41 27.61 124.41 29.15 124.65 29.6L125.04 30.34L124.6 31.07C123.7 32.48 123.79 32.96 123.79 32.96L123.74 33Z" fill="#171A1C"/>
<path d="M127.08 32.7901C126.549 32.9375 125.986 32.9209 125.465 32.7424C124.944 32.5639 124.489 32.232 124.16 31.7901C122.95 30.1401 122.42 27.6001 122.84 27.0301C123.027 26.6905 123.283 26.3941 123.592 26.1604C123.901 25.9267 124.256 25.7609 124.634 25.6741C125.012 25.5872 125.403 25.5812 125.784 25.6563C126.164 25.7314 126.524 25.8861 126.84 26.1101C128.277 26.9755 129.466 28.1986 130.29 29.6601C131.416 28.7757 132.226 27.5518 132.6 26.1701C133.38 23.6701 134.52 21.7101 134.07 21.1701C133.62 20.6301 130.2 21.7401 129.27 22.2801C128.34 22.8201 125.56 21.1101 124.49 20.2101C123.42 19.3101 123.81 19.1601 123.49 18.0201C123.17 16.8801 125.61 16.0201 126.33 14.8001C127.05 13.5801 128.49 14.1501 130.19 14.5901C131.89 15.0301 131.32 10.1701 133.98 11.7101C136.64 13.2501 139.21 14.7101 138.84 15.4501C138.47 16.1901 140.66 16.3201 140.71 18.0901C140.76 19.8601 141.19 22.4801 138.96 24.7101C137.922 25.8725 136.642 26.794 135.21 27.4101L136.21 24.9101C136.21 24.9101 135.84 23.1301 135.14 23.1901C134.44 23.2501 133.44 27.1401 133.44 27.1401C132.848 28.6625 131.918 30.0303 130.72 31.1401C129.624 31.9188 128.388 32.479 127.08 32.7901Z" fill="#171A1C"/>
<path d="M126.37 33.3601C125.861 33.3581 125.36 33.2334 124.909 32.9967C124.458 32.76 124.071 32.4181 123.78 32.0001C122.53 30.2901 121.84 27.5001 122.46 26.6801C122.679 26.2871 122.978 25.9448 123.339 25.6753C123.699 25.4059 124.112 25.2154 124.55 25.1163C124.989 25.0173 125.444 25.0118 125.885 25.1003C126.326 25.1888 126.743 25.3693 127.11 25.6301C128.463 26.4324 129.607 27.5424 130.45 28.8701C131.256 28.0716 131.85 27.0854 132.18 26.0001C132.47 25.0901 132.79 24.2701 133.08 23.5501C133.382 22.8924 133.604 22.2008 133.74 21.4901C132.281 21.6148 130.859 22.0152 129.55 22.6701C128.19 23.4701 124.95 21.1701 124.22 20.5501C123.936 20.3671 123.699 20.1213 123.525 19.8317C123.352 19.5421 123.247 19.2165 123.22 18.8801C123.193 18.6292 123.143 18.3814 123.07 18.1401C122.78 17.1401 123.72 16.4401 124.64 15.7501C125.161 15.426 125.621 15.0131 126 14.5301C126.83 13.1301 128.39 13.5301 129.9 13.9701L130.39 14.1001C130.67 14.1701 130.85 13.8201 131.2 12.9401C131.55 12.0601 131.85 11.2601 132.65 10.9401C132.93 10.8662 133.222 10.8539 133.507 10.904C133.792 10.954 134.062 11.0653 134.3 11.2301L134.82 11.5301C138.09 13.4201 139.82 14.4701 139.38 15.5301C139.499 15.6308 139.626 15.7211 139.76 15.8001C140.185 16.0021 140.548 16.3131 140.813 16.7013C141.078 17.0895 141.236 17.5411 141.27 18.0101C141.27 18.2001 141.27 18.4101 141.27 18.6201C141.36 20.4101 141.48 22.8501 139.35 24.9801C138.246 26.2072 136.879 27.168 135.35 27.7901L134.35 28.0901L135.72 24.8001C135.636 24.3797 135.466 23.9813 135.22 23.6301C134.646 24.7634 134.236 25.972 134 27.2201C133.39 28.8536 132.404 30.3201 131.12 31.5001C129.95 32.3316 128.628 32.9261 127.23 33.2501C126.949 33.3229 126.66 33.3598 126.37 33.3601ZM125.16 26.0001C124.759 26.0375 124.373 26.1716 124.035 26.3911C123.697 26.6106 123.417 26.9088 123.22 27.2601C123.01 27.6301 123.38 29.8501 124.55 31.4501C124.817 31.8213 125.19 32.1024 125.621 32.256C126.051 32.4096 126.518 32.4285 126.96 32.3101C128.223 32.0164 129.418 31.4834 130.48 30.7401C131.619 29.6789 132.501 28.3726 133.06 26.9201C134.13 22.7601 134.91 22.6901 135.16 22.6701C136.21 22.5601 136.64 24.2501 136.74 24.7601V24.9101L136.15 26.3501C137.048 25.7774 137.88 25.1066 138.63 24.3501C140.46 22.5201 140.35 20.4101 140.26 18.7201C140.26 18.5001 140.26 18.2901 140.26 18.0901C140.26 17.3301 139.7 16.9901 139.19 16.6501C138.68 16.3101 138.1 15.9501 138.43 15.2301C138.34 14.7501 135.9 13.3401 134.29 12.4101L133.76 12.1101C133.64 12.0163 133.501 11.9491 133.353 11.9129C133.204 11.8767 133.05 11.8723 132.9 11.9001C132.52 12.0301 132.26 12.7001 132.02 13.3001C131.69 14.1601 131.23 15.3001 130.09 15.0301L129.59 14.9001C128.08 14.4901 127.19 14.2901 126.76 15.0301C126.33 15.6168 125.798 16.1215 125.19 16.5201C124.57 16.9801 123.86 17.5201 123.96 17.8701C124.052 18.1564 124.116 18.4512 124.15 18.7501C124.15 19.1701 124.22 19.3201 124.83 19.8201C126.15 20.9301 128.53 22.1601 129.06 21.8201C129.59 21.4801 133.64 19.8201 134.47 20.8201C134.94 21.3801 134.57 22.3201 133.95 23.8801C133.67 24.5901 133.36 25.3901 133.08 26.2601C132.683 27.7515 131.804 29.0698 130.58 30.0101L130.14 30.3001L129.89 29.8301C129.112 28.4497 127.989 27.2953 126.63 26.4801C126.189 26.1968 125.683 26.0316 125.16 26.0001Z" fill="#171A1C"/>
<path d="M139.19 22.72L134.44 21C134.44 21 129.95 16.7 128.04 16.7C126.13 16.7 124.66 16.7 124.37 17.5C124.08 18.3 124.31 14.5 127.44 13.87C129.58 10.71 134.44 9.87001 138.29 12.64C142.14 15.41 141.1 19.99 140.92 21.33C140.74 22.67 140.4 23.53 139.19 22.72Z" fill="white"/>
<path d="M140 24.0001C139.563 23.9807 139.14 23.8386 138.78 23.5901L133.95 21.8001L133.8 21.6701C131.8 19.6701 128.99 17.5801 128.04 17.6701C127.103 17.5894 126.159 17.6706 125.25 17.9101C125.174 18.1278 125.025 18.3125 124.828 18.4327C124.631 18.553 124.399 18.6016 124.17 18.5701C123.937 18.5275 123.727 18.4036 123.577 18.2205C123.426 18.0374 123.346 17.8069 123.35 17.5701C123.412 16.5437 123.781 15.5595 124.408 14.7448C125.036 13.9301 125.893 13.3224 126.87 13.0001C128.067 11.4665 129.799 10.4415 131.72 10.1301C132.963 9.92889 134.234 9.97734 135.458 10.2727C136.682 10.568 137.835 11.1042 138.85 11.8501C142.85 14.7501 142.17 19.3701 141.92 21.1101V21.4301C141.79 22.4301 141.55 23.4301 140.68 23.8601C140.466 23.9554 140.234 24.0032 140 24.0001ZM135 20.1501L139.75 21.9401L139.86 22.0001C139.937 21.7352 139.99 21.4642 140.02 21.1901L140.07 20.8301C140.3 19.2701 140.84 15.6101 137.77 13.4001C136.961 12.7909 136.037 12.3525 135.054 12.1118C134.071 11.8712 133.049 11.8331 132.05 12.0001C131.287 12.1184 130.555 12.3892 129.899 12.7963C129.242 13.2035 128.675 13.7388 128.23 14.3701L128.01 14.7001L127.62 14.7801C126.968 14.8985 126.384 15.2549 125.98 15.7801C126.59 15.7801 127.28 15.7801 127.98 15.7801C130.08 15.7201 133.69 18.9401 135 20.1401V20.1501Z" fill="#171A1C"/>
<path d="M133.8 36.0501C133.8 36.0501 128.67 39.8401 127.9 41.2401C127.472 42.0409 126.929 42.7752 126.29 43.4201L116 40.0501C116 40.0501 120 30.1501 120.28 29.5901C120.56 29.0301 117.47 28.8101 117.47 28.8101C117.47 28.8101 112.42 38.6401 111.92 40.4701C111.545 42.3938 111.311 44.3423 111.22 46.3001L129.37 46.0001C129.999 44.4859 130.801 43.0497 131.76 41.7201C133.132 40.216 134.584 38.7872 136.11 37.4401L133.8 36.0501Z" fill="white"/>
<path d="M110.26 47.2601V46.2601C110.354 44.2448 110.598 42.2392 110.99 40.2601C111.5 38.3901 116.09 29.4301 116.61 28.4201L116.9 27.8601H117.53C120.53 28.0701 120.93 28.6801 121.09 28.9701C121.171 29.1242 121.214 29.2958 121.214 29.4701C121.214 29.6444 121.171 29.816 121.09 29.9701C120.9 30.3701 118.8 35.5301 117.22 39.4201L126 42.3201C126.404 41.8433 126.759 41.3274 127.06 40.7801C127.89 39.2701 132.34 35.9301 133.22 35.2801L133.74 34.9001L137.74 37.3101L136.74 38.1601C135.25 39.4732 133.831 40.8652 132.49 42.3301C131.587 43.5875 130.835 44.9468 130.25 46.3801L130 47.0001L110.26 47.2601ZM118.07 29.8201C116.07 33.7501 113.21 39.5101 112.89 40.7201C112.571 42.2392 112.367 43.7803 112.28 45.3301L128.75 45.0701C129.343 43.6732 130.098 42.3508 131 41.1301C132.099 39.8846 133.271 38.7059 134.51 37.6001L133.83 37.1901C131.83 38.7301 129.14 40.9301 128.72 41.7001C128.238 42.5911 127.629 43.4064 126.91 44.1201L126.5 44.5001L114.75 40.6301L115.13 39.6901C115.69 38.3001 118.13 32.2301 119.13 29.9801C118.82 29.9201 118.45 29.8601 118.07 29.8201Z" fill="#171A1C"/>
<path d="M121.72 16.88C121.72 16.88 124.53 16.32 125.93 17.16C127.215 18.0496 128.416 19.0537 129.52 20.16L136.47 21.28C136.47 21.28 134.22 16.37 129.94 14.75C127.41 13.8 126.57 14.05 126.57 14.05C126.57 14.05 121.37 15.62 121.72 16.88Z" fill="white"/>
<path d="M138.07 22.5302L129.07 21.0702L128.85 20.8502C127.803 19.7954 126.666 18.835 125.45 17.9802C124.67 17.5002 122.87 17.6302 121.92 17.8102L121 18.0002L120.76 17.1402C120.36 15.7102 122.21 14.3702 126.25 13.1402C126.52 13.0602 127.61 12.8702 130.25 13.8602C134.85 15.5902 137.25 20.6702 137.31 20.8602L138.07 22.5302ZM130 19.2902L134.66 20.0402C133.47 18.1144 131.728 16.5916 129.66 15.6702C128.776 15.246 127.811 15.0174 126.83 15.0002C126.08 15.2302 125.31 15.5102 124.64 15.7902C125.289 15.84 125.919 16.0275 126.49 16.3402C127.748 17.2139 128.923 18.2014 130 19.2902Z" fill="#171A1C"/>
<path d="M111.75 45.7299C111.75 45.7299 131.69 63.5699 134.64 61.4599C137.59 59.3499 137.31 56.8299 135.48 55.2799C133.65 53.7299 123.69 47.4199 121.72 46.7199C119.75 46.0199 115.12 42.9299 111.75 45.7299Z" fill="#FF8338"/>
<path d="M134.15 62.5201C129.79 62.5201 118.1 52.6901 111.15 46.4401L110.32 45.7101L111.17 45.0001C114.4 42.3101 118.45 44.1801 120.87 45.2901C121.34 45.5101 121.74 45.7001 122.07 45.8201C124.26 46.6001 134.33 53.0401 136.13 54.5501C136.673 54.9739 137.109 55.5178 137.406 56.139C137.703 56.7602 137.851 57.4418 137.84 58.1301C137.759 58.9722 137.48 59.783 137.024 60.4958C136.569 61.2087 135.95 61.8031 135.22 62.2301C134.905 62.4429 134.529 62.5449 134.15 62.5201ZM113.34 45.8701C122.13 53.6301 132.34 61.3101 134.12 60.6701C134.595 60.3957 135.002 60.0175 135.31 59.5638C135.618 59.1102 135.82 58.5927 135.9 58.0501C135.893 57.6632 135.8 57.2827 135.627 56.9366C135.454 56.5905 135.206 56.2876 134.9 56.0501C133.11 54.5301 123.25 48.3001 121.43 47.6501C120.942 47.4589 120.465 47.2419 120 47.0001C118.19 46.1701 115.52 44.9401 113.34 45.8701Z" fill="#171A1C"/>
<path d="M115.95 34.54H109.71C106.711 34.54 104.28 36.9689 104.28 39.965C104.28 42.9612 106.711 45.39 109.71 45.39H115.95C118.949 45.39 121.38 42.9612 121.38 39.965C121.38 36.9689 118.949 34.54 115.95 34.54Z" fill="#FF8338"/>
<path d="M116 46.34H109.7C108.053 46.2747 106.495 45.5745 105.353 44.3861C104.211 43.1977 103.573 41.6133 103.573 39.965C103.573 38.3166 104.211 36.7322 105.353 35.5438C106.495 34.3554 108.053 33.6552 109.7 33.59H116C116.858 33.556 117.715 33.6957 118.518 34.0007C119.321 34.3058 120.054 34.7699 120.674 35.3652C121.293 35.9605 121.786 36.6748 122.122 37.4652C122.459 38.2556 122.633 39.1059 122.633 39.965C122.633 40.8241 122.459 41.6743 122.122 42.4647C121.786 43.2551 121.293 43.9694 120.674 44.5647C120.054 45.16 119.321 45.6242 118.518 45.9292C117.715 46.2343 116.858 46.374 116 46.34ZM109.7 35.49C108.55 35.5444 107.465 36.0396 106.67 36.8728C105.875 37.7061 105.432 38.8134 105.432 39.965C105.432 41.1165 105.875 42.2238 106.67 43.0571C107.465 43.8903 108.55 44.3856 109.7 44.44H116C116.605 44.4686 117.21 44.3741 117.778 44.1621C118.346 43.9501 118.865 43.6251 119.304 43.2067C119.742 42.7884 120.091 42.2854 120.33 41.7282C120.569 41.1709 120.692 40.5711 120.692 39.965C120.692 39.3588 120.569 38.759 120.33 38.2018C120.091 37.6446 119.742 37.1415 119.304 36.7232C118.865 36.3048 118.346 35.9798 117.778 35.7678C117.21 35.5559 116.605 35.4613 116 35.49H109.7Z" fill="#171A1C"/>
<path d="M105.62 39.0001C105.62 39.0001 102.06 40.8001 102.01 42.0001C101.96 43.2001 103.01 45.7101 103.92 45.0001C104.83 44.2901 106.49 43.4001 106.92 42.3701C107.35 41.3401 106.65 38.8701 105.62 39.0001Z" fill="#FF8338"/>
<path d="M103.61 46.1601C103.363 46.1623 103.119 46.104 102.9 45.9901C101.72 45.3701 101.01 43.1901 101.06 41.9901C101.12 40.4301 103.67 38.9101 105.19 38.1401L105.32 38.0701H105.48C105.79 38.0294 106.105 38.0752 106.391 38.2022C106.677 38.3292 106.922 38.5326 107.1 38.7901C107.498 39.3671 107.765 40.0236 107.885 40.7142C108.004 41.4049 107.971 42.1131 107.79 42.7901C107.171 43.8582 106.272 44.7367 105.19 45.3301C104.93 45.5001 104.69 45.6701 104.5 45.8201C104.249 46.0278 103.936 46.1472 103.61 46.1601ZM105.67 40.0701C104.64 40.557 103.728 41.2635 103 42.1401C103.049 42.8531 103.279 43.5416 103.67 44.1401L104.15 43.8001C104.874 43.3717 105.504 42.8 106 42.1201C106.116 41.419 106 40.6992 105.67 40.0701Z" fill="#171A1C"/>
<path d="M116.9 34.6702C117.473 34.9892 117.95 35.4563 118.281 36.0228C118.612 36.5893 118.784 37.2342 118.78 37.8902C118.78 40.2302 118.78 42.9902 118.78 42.9902C118.78 42.9902 118.65 44.8902 117.41 45.3302" fill="#9FA8DA"/>
<path d="M117.89 46.6801L116.89 43.9801C117.146 43.6695 117.29 43.2822 117.3 42.8801C117.3 42.8801 117.35 40.1801 117.3 37.8801C117.317 37.4791 117.225 37.0812 117.033 36.7288C116.84 36.3765 116.556 36.0831 116.21 35.8801L117.47 33.3101C118.281 33.7448 118.959 34.3907 119.432 35.1794C119.906 35.968 120.157 36.8701 120.16 37.7901C120.21 40.1301 120.16 42.7901 120.16 42.9401C120.19 43.3701 120 46.0001 117.89 46.6801Z" fill="#171A1C"/>
<path d="M79.54 13.73L42.46 44.64H55.86L93.25 13.73H79.54Z" fill="white"/>
<path d="M56.37 46.07H38.52L79 12.3H97.23L56.37 46.07ZM46.37 43.21H55.3L89.24 15.21H80.05L46.37 43.21Z" fill="#171A1C"/>
<path d="M74.28 13.73L37.21 44.64H40.4L77.8 13.73H74.28Z" fill="white"/>
<path d="M40.92 46.07H33.26L73.77 12.3H81.78L40.92 46.07Z" fill="#171A1C"/>
<path d="M224.78 23.2H173.69V109.86H224.78V23.2Z" fill="#FFA670"/>
<path d="M225.83 110.92H172.64V22.1501H225.83V110.92ZM174.74 108.82H223.74V24.2501H174.74V108.82Z" fill="#171A1C"/>
<path d="M279.98 63.6799H189.47V109.87H279.98V63.6799Z" fill="#FFA670"/>
<path d="M281 110.92H188.42V62.6301H281V110.92ZM190.48 108.82H278.9V64.7301H190.52L190.48 108.82Z" fill="#171A1C"/>
<path d="M204.31 24.4202H194.86V39.8802H204.31V24.4202Z" fill="white" stroke="#171A1C" stroke-width="2" stroke-miterlimit="10"/>
<path d="M197.64 100.54V105.44" stroke="#171A1C" stroke-width="2" stroke-miterlimit="10" stroke-linecap="round"/>
<path d="M195.54 96.3401H199.74" stroke="#171A1C" stroke-width="2" stroke-miterlimit="10" stroke-linecap="round"/>
<path d="M178.42 97.97L181.09 95.29L183.8 98" stroke="#171A1C" stroke-width="2" stroke-miterlimit="10" stroke-linecap="round"/>
<path d="M181.11 98.74V104.8" stroke="#171A1C" stroke-width="2" stroke-miterlimit="10" stroke-linecap="round"/>
<path d="M200.14 96.3501C200.14 98.4401 199.04 100.12 197.69 100.12C196.34 100.12 195.25 98.4401 195.25 96.3501" stroke="#171A1C" stroke-width="2" stroke-miterlimit="10" stroke-linecap="round"/>
<path d="M195.25 105.98H200.14" stroke="#171A1C" stroke-width="2" stroke-miterlimit="10" stroke-linecap="round"/>
<path d="M1.5 110.78H296.5" stroke="#171A1C" stroke-width="3" stroke-miterlimit="10" stroke-linecap="round"/>
</svg>
