<svg width="298" height="130" viewBox="0 0 298 130" fill="none" xmlns="http://www.w3.org/2000/svg">
<path d="M1.5 127.64H296.5" stroke="#171A1C" stroke-width="3" stroke-miterlimit="10" stroke-linecap="round"/>
<path d="M139.96 126.14C145.715 126.14 150.38 121.009 150.38 114.68C150.38 108.351 145.715 103.22 139.96 103.22C134.205 103.22 129.54 108.351 129.54 114.68C129.54 121.009 134.205 126.14 139.96 126.14Z" fill="#171A1C"/>
<path d="M129.05 114.68C129.05 108.08 133.94 102.68 139.96 102.68C145.98 102.68 150.88 108.04 150.88 114.68C150.88 121.32 145.98 126.68 139.96 126.68C133.94 126.68 129.05 121.27 129.05 114.68ZM130.05 114.68C130.05 120.68 134.49 125.68 139.96 125.68C145.43 125.68 149.88 120.76 149.88 114.68C149.88 108.6 145.43 103.68 139.96 103.68C134.49 103.68 130.05 108.63 130.05 114.68Z" fill="#171A1C"/>
<path d="M142.05 126.14C147.805 126.14 152.47 121.009 152.47 114.68C152.47 108.351 147.805 103.22 142.05 103.22C136.295 103.22 131.63 108.351 131.63 114.68C131.63 121.009 136.295 126.14 142.05 126.14Z" fill="#171A1C"/>
<path d="M131.13 114.68C131.13 108.08 136.03 102.68 142.05 102.68C148.07 102.68 152.96 108.04 152.96 114.68C152.96 121.32 148.07 126.68 142.05 126.68C136.03 126.68 131.13 121.27 131.13 114.68ZM132.13 114.68C132.13 120.68 136.58 125.68 142.05 125.68C147.52 125.68 151.96 120.76 151.96 114.68C151.96 108.6 147.51 103.68 142.05 103.68C136.59 103.68 132.13 108.63 132.13 114.68Z" fill="#171A1C"/>
<path d="M62.56 126.14C68.6351 126.14 73.56 121.009 73.56 114.68C73.56 108.351 68.6351 103.22 62.56 103.22C56.4849 103.22 51.56 108.351 51.56 114.68C51.56 121.009 56.4849 126.14 62.56 126.14Z" fill="#171A1C"/>
<path d="M51.06 114.68C51.156 112.427 51.9121 110.251 53.2342 108.423C54.5563 106.596 56.3862 105.197 58.4966 104.401C60.607 103.605 62.9048 103.446 65.1045 103.945C67.3043 104.444 69.309 105.578 70.8696 107.206C72.4303 108.835 73.4781 110.886 73.8828 113.105C74.2875 115.324 74.0313 117.613 73.146 119.687C72.2608 121.762 70.7855 123.531 68.9035 124.774C67.0214 126.017 64.8156 126.68 62.56 126.68C61.0169 126.648 59.4952 126.311 58.0821 125.691C56.6689 125.07 55.3919 124.177 54.3239 123.063C53.256 121.948 52.4181 120.634 51.858 119.196C51.298 117.758 51.0268 116.223 51.06 114.68ZM52.06 114.68C52.1559 116.736 52.8532 118.718 54.0652 120.381C55.2773 122.044 56.9508 123.314 58.8783 124.035C60.8057 124.755 62.9023 124.894 64.908 124.434C66.9137 123.974 68.7402 122.935 70.161 121.447C71.5819 119.958 72.5345 118.086 72.9007 116.061C73.267 114.036 73.0308 111.948 72.2214 110.056C71.412 108.164 70.0651 106.552 68.3476 105.418C66.6301 104.285 64.6177 103.68 62.56 103.68C61.1482 103.712 59.7566 104.023 58.4647 104.593C57.1728 105.164 56.006 105.983 55.0309 107.005C54.0559 108.026 53.2916 109.23 52.7818 110.547C52.2721 111.864 52.0268 113.268 52.06 114.68Z" fill="#171A1C"/>
<path d="M64.76 126.14C70.8351 126.14 75.76 121.009 75.76 114.68C75.76 108.351 70.8351 103.22 64.76 103.22C58.6849 103.22 53.76 108.351 53.76 114.68C53.76 121.009 58.6849 126.14 64.76 126.14Z" fill="#171A1C"/>
<path d="M53.26 114.68C53.356 112.427 54.1121 110.251 55.4342 108.423C56.7563 106.596 58.5862 105.197 60.6966 104.401C62.807 103.605 65.1048 103.446 67.3045 103.945C69.5043 104.444 71.509 105.578 73.0696 107.206C74.6303 108.835 75.6781 110.886 76.0828 113.105C76.4875 115.324 76.2313 117.613 75.3461 119.687C74.4608 121.762 72.9855 123.531 71.1035 124.774C69.2214 126.017 67.0156 126.68 64.76 126.68C63.2169 126.648 61.6952 126.311 60.2821 125.691C58.8689 125.07 57.5919 124.177 56.5239 123.063C55.456 121.948 54.6181 120.634 54.058 119.196C53.498 117.758 53.2268 116.223 53.26 114.68ZM54.26 114.68C54.3559 116.736 55.0532 118.718 56.2652 120.381C57.4773 122.044 59.1508 123.314 61.0783 124.035C63.0057 124.755 65.1023 124.894 67.108 124.434C69.1137 123.974 70.9402 122.935 72.361 121.447C73.7819 119.958 74.7345 118.086 75.1007 116.061C75.467 114.036 75.2308 111.948 74.4214 110.056C73.612 108.164 72.2651 106.552 70.5476 105.418C68.8302 104.285 66.8177 103.68 64.76 103.68C63.3482 103.712 61.9566 104.023 60.6647 104.593C59.3728 105.164 58.206 105.983 57.2309 107.005C56.2559 108.026 55.4916 109.23 54.9818 110.547C54.4721 111.864 54.2268 113.268 54.26 114.68Z" fill="#171A1C"/>
<path d="M162.49 111.81V95.91C162.49 94.5343 162.218 93.1722 161.691 91.9017C161.163 90.6312 160.39 89.4775 159.415 88.5066C158.441 87.5357 157.284 86.7668 156.011 86.244C154.739 85.7212 153.376 85.4547 152 85.46H147L131 60.7C130.455 59.8718 129.712 59.1917 128.84 58.7206C127.967 58.2494 126.992 58.0018 126 58H17C16.2472 57.9987 15.5015 58.146 14.8057 58.4335C14.1099 58.721 13.4777 59.143 12.9453 59.6753C12.413 60.2077 11.991 60.8399 11.7035 61.5357C11.416 62.2315 11.2687 62.9772 11.27 63.73V111.85L162.49 111.81Z" fill="#FF8338" stroke="#171A1C" stroke-width="3" stroke-miterlimit="10"/>
<path d="M9.74 63.69C9.73999 62.738 9.92799 61.7954 10.2932 60.9163C10.6584 60.0371 11.1937 59.2388 11.8682 58.567C12.5428 57.8952 13.3433 57.3633 14.224 57.0017C15.1046 56.6402 16.048 56.4561 17 56.46H126C127.251 56.4587 128.482 56.7711 129.581 57.3686C130.68 57.966 131.611 58.8295 132.29 59.88L147.84 84H152C155.183 84 158.235 85.2643 160.485 87.5147C162.736 89.7652 164 92.8174 164 96V113.4H9.74V63.69ZM161 95.91C161 93.5231 160.052 91.2339 158.364 89.5461C156.676 87.8582 154.387 86.91 152 86.91H146.2L129.77 61.51C129.358 60.8894 128.797 60.3815 128.138 60.0323C127.48 59.683 126.745 59.5035 126 59.51H17C15.8781 59.51 14.8022 59.9557 14.0089 60.749C13.2157 61.5422 12.77 62.6182 12.77 63.74V110.36H161V95.91Z" fill="#171A1C"/>
<path d="M130.71 102.07H161.11C162.386 102.07 163.42 101.036 163.42 99.7599V97.2199C163.42 95.9442 162.386 94.91 161.11 94.91H130.71C129.434 94.91 128.4 95.9442 128.4 97.2199V99.7599C128.4 101.036 129.434 102.07 130.71 102.07Z" fill="#171A1C"/>
<path d="M127.9 99.76V97.22C127.9 96.4748 128.196 95.76 128.723 95.2331C129.25 94.7061 129.965 94.41 130.71 94.41H161.11C161.855 94.41 162.57 94.7061 163.097 95.2331C163.624 95.76 163.92 96.4748 163.92 97.22V99.76C163.92 100.505 163.624 101.22 163.097 101.747C162.57 102.274 161.855 102.57 161.11 102.57H130.71C129.965 102.57 129.25 102.274 128.723 101.747C128.196 101.22 127.9 100.505 127.9 99.76ZM130.71 95.41C130.23 95.41 129.77 95.6007 129.43 95.9402C129.091 96.2796 128.9 96.74 128.9 97.22V99.76C128.9 100.24 129.091 100.7 129.43 101.04C129.77 101.379 130.23 101.57 130.71 101.57H161.11C161.59 101.57 162.05 101.379 162.39 101.04C162.729 100.7 162.92 100.24 162.92 99.76V97.22C162.92 96.74 162.729 96.2796 162.39 95.9402C162.05 95.6007 161.59 95.41 161.11 95.41H130.71Z" fill="#171A1C"/>
<path d="M132.08 100.88C133.4 100.88 134.47 99.8099 134.47 98.49C134.47 97.17 133.4 96.1 132.08 96.1C130.76 96.1 129.69 97.17 129.69 98.49C129.69 99.8099 130.76 100.88 132.08 100.88Z" fill="white"/>
<path d="M129.19 98.49C129.19 97.9184 129.359 97.3596 129.677 96.8844C129.995 96.4091 130.446 96.0387 130.974 95.82C131.502 95.6012 132.083 95.544 132.644 95.6555C133.204 95.767 133.719 96.0423 134.124 96.4464C134.528 96.8506 134.803 97.3656 134.914 97.9262C135.026 98.4868 134.969 99.0679 134.75 99.5959C134.531 100.124 134.161 100.575 133.686 100.893C133.21 101.21 132.652 101.38 132.08 101.38C131.314 101.38 130.578 101.075 130.036 100.534C129.494 99.9915 129.19 99.2564 129.19 98.49ZM130.19 98.49C130.19 98.8638 130.301 99.2292 130.509 99.54C130.716 99.8508 131.011 100.093 131.357 100.236C131.702 100.379 132.082 100.417 132.449 100.344C132.815 100.271 133.152 100.091 133.416 99.8264C133.681 99.5621 133.861 99.2253 133.934 98.8587C134.007 98.4921 133.969 98.1121 133.826 97.7667C133.683 97.4214 133.441 97.1262 133.13 96.9185C132.819 96.7108 132.454 96.6 132.08 96.6C131.579 96.6 131.098 96.7991 130.744 97.1535C130.389 97.508 130.19 97.9887 130.19 98.49Z" fill="#171A1C"/>
<path d="M3.79 113.31H166.5C166.898 113.31 167.279 113.152 167.561 112.871C167.842 112.589 168 112.208 168 111.81C168 111.412 167.842 111.031 167.561 110.749C167.279 110.468 166.898 110.31 166.5 110.31H3.79C3.39218 110.31 3.01065 110.468 2.72934 110.749C2.44804 111.031 2.29 111.412 2.29 111.81C2.29 112.208 2.44804 112.589 2.72934 112.871C3.01065 113.152 3.39218 113.31 3.79 113.31Z" fill="#171A1C"/>
<path d="M105.8 82.57L95.8 67.11C95.5748 66.7718 95.2703 66.4938 94.9129 66.3003C94.5556 66.1068 94.1563 66.0037 93.75 66H80.18C79.5223 66 78.8915 66.2613 78.4264 66.7264C77.9613 67.1915 77.7 67.8223 77.7 68.48V84.1C77.7 84.4274 77.7648 84.7515 77.8907 85.0537C78.0166 85.3559 78.201 85.6302 78.4334 85.8607C78.6658 86.0913 78.9416 86.2735 79.2448 86.397C79.548 86.5204 79.8726 86.5826 80.2 86.58L103.74 86.39C104.183 86.3852 104.617 86.2619 104.996 86.0328C105.375 85.8037 105.686 85.4772 105.896 85.0873C106.106 84.6973 106.208 84.2582 106.191 83.8155C106.175 83.3728 106.039 82.9428 105.8 82.57Z" fill="#171A1C"/>
<path d="M78.08 86.22C77.5172 85.6579 77.2007 84.8953 77.2 84.1V68.46C77.2 67.6643 77.5161 66.9012 78.0787 66.3386C78.6413 65.776 79.4043 65.46 80.2 65.46H93.75C94.2467 65.462 94.7352 65.5873 95.1715 65.8246C95.6079 66.062 95.9785 66.404 96.25 66.82L106.25 82.27C106.531 82.7195 106.688 83.2355 106.705 83.7654C106.722 84.2953 106.598 84.8202 106.346 85.2867C106.094 85.7532 105.723 86.1445 105.27 86.4209C104.818 86.6972 104.3 86.8487 103.77 86.86L80.23 87.05C79.8341 87.0641 79.4395 86.9979 79.07 86.8552C78.7004 86.7126 78.3637 86.4965 78.08 86.22ZM95.41 67.38C95.2288 67.1048 94.9825 66.8787 94.6929 66.7217C94.4033 66.5647 94.0794 66.4817 93.75 66.48H80.18C79.6496 66.48 79.1409 66.6907 78.7658 67.0658C78.3907 67.4408 78.18 67.9495 78.18 68.48V84.1C78.18 84.6304 78.3907 85.1391 78.7658 85.5142C79.1409 85.8892 79.6496 86.1 80.18 86.1L103.72 85.91C104.064 85.896 104.399 85.7934 104.692 85.6122C104.984 85.431 105.225 85.1772 105.391 84.8754C105.557 84.5737 105.643 84.2342 105.639 83.8899C105.635 83.5456 105.542 83.208 105.37 82.91L95.41 67.38Z" fill="#171A1C"/>
<path d="M133.62 64.86L105.07 65.39C104.733 65.3952 104.404 65.4899 104.115 65.6644C103.827 65.8389 103.59 66.087 103.429 66.3832C103.269 66.6793 103.189 67.0129 103.2 67.3498C103.211 67.6866 103.311 68.0146 103.49 68.3L113.28 84C113.788 84.8121 114.494 85.4815 115.332 85.9451C116.17 86.4087 117.112 86.6513 118.07 86.65H147.07" fill="#171A1C"/>
<path d="M118.07 87.0999H147.07V86.0999H118.07C117.196 86.1033 116.335 85.8827 115.57 85.4591C114.805 85.0354 114.161 84.4229 113.7 83.6799L103.92 67.9999C103.787 67.7898 103.712 67.548 103.703 67.2993C103.694 67.0506 103.752 66.804 103.87 66.585C103.988 66.366 104.163 66.1824 104.375 66.0532C104.588 65.924 104.831 65.8539 105.08 65.8499L133.63 65.3199V64.3199L105.08 64.8499C104.653 64.8553 104.236 64.9743 103.87 65.1947C103.505 65.415 103.205 65.7288 103.001 66.1037C102.798 66.4786 102.697 66.9011 102.711 67.3275C102.725 67.754 102.852 68.169 103.08 68.5299L112.86 84.1699C113.405 85.0637 114.17 85.8025 115.082 86.3156C115.995 86.8286 117.023 87.0987 118.07 87.0999Z" fill="#171A1C"/>
<path d="M78.27 91.61H85.14C85.4052 91.61 85.6596 91.5046 85.8471 91.3171C86.0346 91.1296 86.14 90.8752 86.14 90.61C86.14 90.3448 86.0346 90.0904 85.8471 89.9029C85.6596 89.7153 85.4052 89.61 85.14 89.61H78.27C78.0048 89.61 77.7504 89.7153 77.5629 89.9029C77.3754 90.0904 77.27 90.3448 77.27 90.61C77.27 90.8752 77.3754 91.1296 77.5629 91.3171C77.7504 91.5046 78.0048 91.61 78.27 91.61Z" fill="#171A1C"/>
<path d="M111.93 102.94C114.82 102.937 117.604 104.027 119.724 105.991C121.844 107.955 123.143 110.648 123.36 113.53H112.64V115.82H100.51C100.51 115.82 100.51 115.01 100.51 114.82C100.482 111.74 101.662 108.771 103.797 106.551C105.932 104.33 108.851 103.034 111.93 102.94Z" fill="#171A1C"/>
<path d="M34 102.94C36.8907 102.934 39.6762 104.024 41.7967 105.988C43.9171 107.953 45.2152 110.647 45.43 113.53H34.73V115.82H22.59C22.59 115.82 22.59 115.01 22.59 114.82C22.5624 111.742 23.7409 108.775 25.8734 106.554C28.006 104.334 30.9229 103.037 34 102.94Z" fill="#171A1C"/>
<path d="M31 126.14C37.3292 126.14 42.46 121.009 42.46 114.68C42.46 108.351 37.3292 103.22 31 103.22C24.6708 103.22 19.54 108.351 19.54 114.68C19.54 121.009 24.6708 126.14 31 126.14Z" fill="#333333"/>
<path d="M19 114.68C19 112.307 19.7038 109.986 21.0224 108.013C22.3409 106.04 24.2151 104.502 26.4078 103.593C28.6005 102.685 31.0133 102.447 33.3411 102.911C35.6689 103.374 37.8071 104.516 39.4853 106.195C41.1635 107.873 42.3064 110.011 42.7694 112.339C43.2324 114.667 42.9948 117.079 42.0866 119.272C41.1783 121.465 39.6402 123.339 37.6668 124.658C35.6935 125.976 33.3734 126.68 31 126.68C27.8174 126.68 24.7652 125.416 22.5147 123.165C20.2643 120.915 19 117.863 19 114.68ZM20 114.68C20 116.856 20.6451 118.982 21.8538 120.791C23.0625 122.6 24.7805 124.01 26.7905 124.843C28.8005 125.675 31.0122 125.893 33.146 125.469C35.2798 125.044 37.2398 123.996 38.7782 122.458C40.3166 120.92 41.3642 118.96 41.7886 116.826C42.2131 114.692 41.9952 112.48 41.1627 110.47C40.3301 108.46 38.9202 106.742 37.1113 105.534C35.3023 104.325 33.1756 103.68 31 103.68C28.0826 103.68 25.2847 104.839 23.2218 106.902C21.1589 108.965 20 111.763 20 114.68Z" fill="#171A1C"/>
<path d="M32.15 126.14C38.4792 126.14 43.61 121.009 43.61 114.68C43.61 108.351 38.4792 103.22 32.15 103.22C25.8208 103.22 20.69 108.351 20.69 114.68C20.69 121.009 25.8208 126.14 32.15 126.14Z" fill="#171A1C"/>
<path d="M20.19 114.68C20.19 112.307 20.8938 109.986 22.2124 108.013C23.5309 106.04 25.4051 104.502 27.5978 103.593C29.7905 102.685 32.2033 102.447 34.5311 102.911C36.8589 103.374 38.9971 104.516 40.6753 106.195C42.3535 107.873 43.4964 110.011 43.9594 112.339C44.4224 114.667 44.1848 117.079 43.2766 119.272C42.3683 121.465 40.8302 123.339 38.8568 124.658C36.8835 125.976 34.5634 126.68 32.19 126.68C29.0074 126.68 25.9552 125.416 23.7047 123.165C21.4543 120.915 20.19 117.863 20.19 114.68ZM21.19 114.68C21.19 116.856 21.8351 118.982 23.0438 120.791C24.2525 122.6 25.9705 124.01 27.9805 124.843C29.9905 125.675 32.2022 125.893 34.336 125.469C36.4698 125.044 38.4298 123.996 39.9682 122.458C41.5066 120.92 42.5542 118.96 42.9786 116.826C43.4031 114.692 43.1852 112.48 42.3527 110.47C41.5201 108.46 40.1102 106.742 38.3013 105.534C36.4923 104.325 34.3656 103.68 32.19 103.68C29.2726 103.68 26.4747 104.839 24.4118 106.902C22.3489 108.965 21.19 111.763 21.19 114.68Z" fill="#171A1C"/>
<path d="M28.14 121.27C30.9898 121.27 33.3 118.32 33.3 114.68C33.3 111.04 30.9898 108.09 28.14 108.09C25.2902 108.09 22.98 111.04 22.98 114.68C22.98 118.32 25.2902 121.27 28.14 121.27Z" fill="white"/>
<path d="M22.48 114.68C22.48 110.77 25.02 107.59 28.14 107.59C31.26 107.59 33.79 110.77 33.79 114.68C33.79 118.59 31.26 121.77 28.14 121.77C25.02 121.77 22.48 118.59 22.48 114.68ZM23.48 114.68C23.48 118.03 25.57 120.77 28.14 120.77C30.71 120.77 32.79 118.03 32.79 114.68C32.79 111.33 30.71 108.59 28.14 108.59C25.57 108.59 23.48 111.32 23.48 114.68Z" fill="#171A1C"/>
<path d="M108.49 126.14C114.819 126.14 119.95 121.009 119.95 114.68C119.95 108.351 114.819 103.22 108.49 103.22C102.161 103.22 97.03 108.351 97.03 114.68C97.03 121.009 102.161 126.14 108.49 126.14Z" fill="#171A1C"/>
<path d="M96.53 114.68C96.53 112.307 97.2338 109.986 98.5524 108.013C99.8709 106.04 101.745 104.502 103.938 103.593C106.131 102.685 108.543 102.447 110.871 102.911C113.199 103.374 115.337 104.516 117.015 106.195C118.694 107.873 119.836 110.011 120.299 112.339C120.762 114.667 120.525 117.079 119.617 119.272C118.708 121.465 117.17 123.339 115.197 124.658C113.223 125.976 110.903 126.68 108.53 126.68C105.347 126.68 102.295 125.416 100.045 123.165C97.7943 120.915 96.53 117.863 96.53 114.68ZM97.53 114.68C97.53 116.856 98.1751 118.982 99.3838 120.791C100.593 122.6 102.31 124.01 104.32 124.843C106.33 125.675 108.542 125.893 110.676 125.469C112.81 125.044 114.77 123.996 116.308 122.458C117.847 120.92 118.894 118.96 119.319 116.826C119.743 114.692 119.525 112.48 118.693 110.47C117.86 108.46 116.45 106.742 114.641 105.534C112.832 104.325 110.706 103.68 108.53 103.68C105.613 103.68 102.815 104.839 100.752 106.902C98.6889 108.965 97.53 111.763 97.53 114.68Z" fill="#171A1C"/>
<path d="M109.64 126.14C115.969 126.14 121.1 121.009 121.1 114.68C121.1 108.351 115.969 103.22 109.64 103.22C103.311 103.22 98.18 108.351 98.18 114.68C98.18 121.009 103.311 126.14 109.64 126.14Z" fill="#171A1C"/>
<path d="M97.68 114.68C97.68 112.307 98.3838 109.986 99.7024 108.013C101.021 106.04 102.895 104.502 105.088 103.593C107.281 102.685 109.693 102.447 112.021 102.911C114.349 103.374 116.487 104.516 118.165 106.195C119.844 107.873 120.986 110.011 121.449 112.339C121.912 114.667 121.675 117.079 120.767 119.272C119.858 121.465 118.32 123.339 116.347 124.658C114.373 125.976 112.053 126.68 109.68 126.68C106.497 126.68 103.445 125.416 101.195 123.165C98.9443 120.915 97.68 117.863 97.68 114.68ZM98.68 114.68C98.68 116.856 99.3251 118.982 100.534 120.791C101.743 122.6 103.46 124.01 105.47 124.843C107.48 125.675 109.692 125.893 111.826 125.469C113.96 125.044 115.92 123.996 117.458 122.458C118.997 120.92 120.044 118.96 120.469 116.826C120.893 114.692 120.675 112.48 119.843 110.47C119.01 108.46 117.6 106.742 115.791 105.534C113.982 104.325 111.856 103.68 109.68 103.68C106.763 103.68 103.965 104.839 101.902 106.902C99.8389 108.965 98.68 111.763 98.68 114.68Z" fill="#171A1C"/>
<path d="M105.63 121.27C108.48 121.27 110.79 118.32 110.79 114.68C110.79 111.04 108.48 108.09 105.63 108.09C102.78 108.09 100.47 111.04 100.47 114.68C100.47 118.32 102.78 121.27 105.63 121.27Z" fill="white"/>
<path d="M100 114.68C100 110.77 102.54 107.59 105.66 107.59C108.78 107.59 111.31 110.77 111.31 114.68C111.31 118.59 108.78 121.77 105.66 121.77C102.54 121.77 100 118.59 100 114.68ZM101 114.68C101 118.03 103.09 120.77 105.66 120.77C108.23 120.77 110.31 118.03 110.31 114.68C110.31 111.33 108.22 108.59 105.66 108.59C103.1 108.59 101 111.32 101 114.68Z" fill="#171A1C"/>
<path d="M160.63 96.1C160.872 96.1016 161.113 96.1456 161.34 96.23V100.76C161.111 100.836 160.871 100.877 160.63 100.88C159.996 100.88 159.388 100.628 158.94 100.18C158.492 99.7318 158.24 99.1238 158.24 98.49C158.24 97.8561 158.492 97.2482 158.94 96.8C159.388 96.3518 159.996 96.1 160.63 96.1Z" fill="white"/>
<path d="M157.74 98.49C157.743 97.7243 158.048 96.9908 158.589 96.4493C159.131 95.9079 159.864 95.6026 160.63 95.6C160.923 95.6044 161.213 95.655 161.49 95.75L161.84 95.86V101.12L161.49 101.24C161.211 101.327 160.922 101.374 160.63 101.38C159.864 101.377 159.131 101.072 158.589 100.531C158.048 99.9892 157.743 99.2556 157.74 98.49ZM160.84 96.62H160.63C160.129 96.62 159.648 96.8191 159.294 97.1735C158.939 97.528 158.74 98.0087 158.74 98.51C158.74 99.0112 158.939 99.492 159.294 99.8464C159.648 100.201 160.129 100.4 160.63 100.4H160.84V96.62Z" fill="#171A1C"/>
<path d="M19.79 82.46V70C19.79 68.8648 20.2409 67.7762 21.0436 66.9735C21.8462 66.1709 22.9349 65.72 24.07 65.72H65.15C66.2851 65.72 67.3738 66.1709 68.1764 66.9735C68.9791 67.7762 69.43 68.8648 69.43 70V82.46C69.43 83.596 68.9794 84.6857 68.177 85.4899C67.3747 86.2942 66.2861 86.7473 65.15 86.75H24.07C22.934 86.7473 21.8454 86.2942 21.043 85.4899C20.2406 84.6857 19.79 83.596 19.79 82.46ZM24.07 67.69C23.7684 67.6913 23.4701 67.7521 23.1921 67.8691C22.9141 67.986 22.6619 68.1567 22.4501 68.3713C22.2382 68.5859 22.0709 68.8403 21.9576 69.1198C21.8443 69.3993 21.7874 69.6984 21.79 70V82.46C21.79 83.0656 22.0299 83.6465 22.4572 84.0757C22.8845 84.5049 23.4644 84.7473 24.07 84.75H65.15C65.7556 84.7473 66.3355 84.5049 66.7628 84.0757C67.1901 83.6465 67.43 83.0656 67.43 82.46V70C67.4274 69.3961 67.1863 68.8177 66.7593 68.3907C66.3323 67.9637 65.7539 67.7226 65.15 67.72L24.07 67.69Z" fill="#171A1C"/>
<path d="M114.08 113C114.146 112.997 114.21 112.982 114.27 112.954C114.33 112.927 114.383 112.888 114.428 112.84C114.472 112.791 114.507 112.735 114.53 112.673C114.552 112.611 114.563 112.546 114.56 112.48C114.56 112.29 114.32 107.8 110.3 106.27C110.238 106.246 110.172 106.234 110.106 106.236C110.04 106.237 109.975 106.252 109.914 106.279C109.854 106.306 109.799 106.345 109.754 106.393C109.709 106.441 109.673 106.498 109.65 106.56C109.626 106.621 109.615 106.686 109.616 106.752C109.618 106.817 109.633 106.882 109.66 106.941C109.687 107.001 109.726 107.055 109.774 107.099C109.822 107.143 109.878 107.178 109.94 107.2C113.35 108.51 113.56 112.48 113.56 112.52C113.563 112.586 113.578 112.65 113.606 112.71C113.633 112.77 113.672 112.823 113.72 112.868C113.769 112.912 113.825 112.947 113.887 112.97C113.949 112.992 114.014 113.003 114.08 113Z" fill="white"/>
<path d="M36.16 113C36.2257 112.997 36.2902 112.982 36.3499 112.954C36.4096 112.927 36.4632 112.888 36.5078 112.84C36.5524 112.791 36.587 112.735 36.6097 112.673C36.6324 112.611 36.6427 112.546 36.64 112.48C36.64 112.29 36.4 107.8 32.38 106.27C32.3183 106.246 32.2525 106.234 32.1863 106.236C32.1201 106.237 32.0548 106.252 31.9944 106.279C31.9339 106.306 31.8794 106.345 31.834 106.393C31.7886 106.441 31.7533 106.498 31.73 106.56C31.7061 106.621 31.6946 106.686 31.6963 106.752C31.698 106.817 31.7128 106.882 31.7398 106.941C31.7668 107.001 31.8056 107.055 31.8537 107.099C31.9018 107.143 31.9584 107.178 32.02 107.2C35.43 108.51 35.64 112.48 35.64 112.52C35.6426 112.586 35.6581 112.65 35.6856 112.71C35.7131 112.77 35.7522 112.823 35.8005 112.868C35.8488 112.912 35.9054 112.947 35.9671 112.97C36.0288 112.992 36.0943 113.003 36.16 113Z" fill="white"/>
<path d="M229.63 8.42004C218.491 8.42004 207.808 12.845 199.932 20.7216C192.055 28.5981 187.63 39.281 187.63 50.42C187.63 73.6 229.63 128.02 229.63 126.78C229.63 126.78 271.63 73.6 271.63 50.42C271.63 39.281 267.205 28.5981 259.328 20.7216C251.452 12.845 240.769 8.42004 229.63 8.42004ZM229.63 71.52C225.196 71.52 220.861 70.2051 217.174 67.7416C213.487 65.278 210.614 61.7765 208.917 57.6798C207.22 53.5831 206.776 49.0752 207.641 44.7261C208.506 40.3771 210.641 36.3822 213.777 33.2467C216.912 30.1112 220.907 27.9759 225.256 27.1108C229.605 26.2458 234.113 26.6897 238.21 28.3867C242.306 30.0836 245.808 32.9572 248.272 36.6442C250.735 40.3311 252.05 44.6658 252.05 49.1C252.05 52.0443 251.47 54.9597 250.343 57.6798C249.217 60.3999 247.565 62.8715 245.483 64.9534C243.401 67.0353 240.93 68.6867 238.21 69.8134C235.49 70.9401 232.574 71.52 229.63 71.52Z" fill="#FF8338" stroke="#171A1C" stroke-width="3" stroke-miterlimit="10"/>
<path d="M192.35 0L193.35 1.84C194.139 3.27828 195.322 4.46136 196.76 5.25L198.6 6.25L196.76 7.25C195.319 8.03953 194.135 9.22667 193.35 10.67L192.35 12.5L191.35 10.67C190.564 9.22391 189.376 8.03616 187.93 7.25L186.1 6.25L187.93 5.25C189.373 4.4647 190.56 3.28102 191.35 1.84L192.35 0Z" fill="#E6E6E6"/>
<path d="M261.1 96.3199L262.1 98.1499C262.885 99.5933 264.069 100.78 265.51 101.57L267.35 102.57L265.51 103.57C264.069 104.355 262.885 105.539 262.1 106.98L261.1 108.82L260.1 106.98C259.308 105.541 258.121 104.358 256.68 103.57L254.85 102.57L256.68 101.57C258.122 100.778 259.308 99.5916 260.1 98.1499L261.1 96.3199Z" fill="#E6E6E6"/>
<path d="M174.26 31.51L175.26 33.34C176.046 34.7861 177.234 35.9739 178.68 36.76L180.51 37.76L178.68 38.76C177.237 39.5453 176.05 40.729 175.26 42.17L174.26 44.01L173.26 42.17C172.471 40.7317 171.288 39.5486 169.85 38.76L168.01 37.76L169.85 36.76C171.291 35.9705 172.475 34.7833 173.26 33.34L174.26 31.51Z" fill="#E6E6E6"/>
<path d="M120 21.74C118.576 20.2817 117.562 18.4743 117.058 16.4995C116.554 14.5247 116.579 12.4521 117.13 10.49C119.13 3.79002 123.8 2.24002 126.34 2.99002C128.88 3.74002 130.09 11.83 129.34 14.41C131.01 10.08 135.67 7.33002 136.51 12.83C137.35 18.33 133.01 21.83 133.01 21.83" fill="white"/>
<path d="M120 21.74C118.576 20.2817 117.562 18.4743 117.058 16.4995C116.554 14.5247 116.579 12.4521 117.13 10.49C119.13 3.79002 123.8 2.24002 126.34 2.99002C128.88 3.74002 130.09 11.83 129.34 14.41C131.01 10.08 135.67 7.33002 136.51 12.83C137.35 18.33 133.01 21.83 133.01 21.83" stroke="#E6E6E6" stroke-width="2" stroke-miterlimit="10" stroke-linecap="round"/>
<path d="M108.86 22.2H105.86" stroke="#E6E6E6" stroke-width="2" stroke-miterlimit="10" stroke-linecap="round"/>
<path d="M111.86 22.2H140.86" stroke="#E6E6E6" stroke-width="2" stroke-miterlimit="10" stroke-linecap="round"/>
</svg>
