<svg width="298" height="155" viewBox="0 0 298 155" fill="none" xmlns="http://www.w3.org/2000/svg">
<path d="M106.43 109.24L105.28 127.2L89.18 117.03L90.33 100.49L106.43 109.24Z" fill="#FFA670" stroke="#171A1C" stroke-width="3" stroke-miterlimit="10"/>
<path d="M12.75 108.05C12.75 108.05 14.88 126.67 19 130.05C23.12 133.43 30 133.3 31.13 130.42C32.26 127.54 31.38 102.42 31.38 102.42L12.75 108.05Z" fill="#FFA670" stroke="#171A1C" stroke-width="3" stroke-miterlimit="10"/>
<path d="M26.31 134.08C23.3116 134.083 20.4004 133.072 18.05 131.21C13.58 127.55 11.48 110.21 11.26 108.21L11.12 107L32.81 100.45L32.87 102.45C33.02 106.7 33.7 128.04 32.52 131.05C32.185 131.769 31.6838 132.397 31.0578 132.884C30.4319 133.371 29.6991 133.702 28.92 133.85C28.0632 134.037 27.1862 134.114 26.31 134.08ZM14.39 109.08C15.3 116.08 17.44 126.79 19.95 128.85C21.0945 129.753 22.4202 130.4 23.837 130.745C25.2537 131.09 26.7282 131.126 28.16 130.85C28.4787 130.808 28.7843 130.696 29.0554 130.523C29.3266 130.351 29.5568 130.121 29.73 129.85C30.33 128.29 30.3 116.03 29.94 104.4L14.39 109.08Z" fill="#171A1C"/>
<path d="M1.5 152.55H296.5" stroke="#171A1C" stroke-width="3" stroke-miterlimit="10" stroke-linecap="round"/>
<path d="M30.25 152.55C30.25 152.55 31.78 103.32 31.52 102.26C31.26 101.2 16.66 108.62 12.68 107.83C8.7 107.04 6.05 75.46 20.68 62.72C35.31 49.98 85.15 44.42 97.36 64.85C107.44 81.71 108.47 101.47 108.52 107.85C108.522 108.117 108.469 108.382 108.363 108.628C108.258 108.874 108.102 109.095 107.906 109.277C107.711 109.46 107.48 109.599 107.227 109.688C106.975 109.776 106.707 109.811 106.44 109.79L91.52 108.62L90 151.72L30.25 152.55Z" fill="#FF8338" stroke="#171A1C" stroke-width="3" stroke-miterlimit="10"/>
<path d="M28.7 154.07L28.75 152.5C29.28 135.5 30 110.57 30.05 104.02C28.98 104.39 27.48 105.02 26.18 105.5C19.94 108 15 109.82 12.39 109.3C11 109 10 107.55 9.19 104.68C6.56 94.79 7.81 71.93 19.65 61.59C29.76 52.78 55.33 47.69 74.37 50.72C86.12 52.58 94.5 57.2 98.61 64.08C109 81.42 109.93 102 110 107.84C110.006 108.314 109.913 108.783 109.727 109.219C109.541 109.655 109.266 110.047 108.92 110.37C108.57 110.695 108.156 110.944 107.706 111.103C107.255 111.261 106.776 111.325 106.3 111.29L92.95 110.24L91.51 153.24L28.7 154.07ZM31.31 100.65C31.5992 100.645 31.8848 100.714 32.14 100.85L32.75 101.16L32.97 101.89C33.23 102.89 32.49 128.8 31.8 151.02L88.59 150.24L90 107L106.48 108.29C106.54 108.294 106.601 108.285 106.657 108.264C106.714 108.244 106.766 108.212 106.81 108.17C106.853 108.131 106.888 108.083 106.91 108.03C106.933 107.976 106.943 107.918 106.94 107.86C106.94 102.17 105.94 82.3 95.94 65.61C91.35 57.91 81.37 54.87 73.81 53.67C55.5 50.76 31.08 55.52 21.54 63.84C13.4 71 10.78 85 11.07 95.58C11.24 102.03 12.45 105.7 13.07 106.38C15.13 106.63 21.31 104.18 25.07 102.71C28.83 101.24 30.39 100.65 31.31 100.65Z" fill="#171A1C"/>
<path d="M14.75 124.77C14.582 124.047 14.5636 123.296 14.696 122.566C14.8284 121.835 15.1088 121.139 15.52 120.52C18.41 116.08 27.7 103.64 31.96 98.72L48.23 80C48.23 80 47.17 71.64 54.6 69.65C62.03 67.66 68.93 65.65 68.66 68.59C68.48 70.65 64.77 73.12 62.66 74.38C62.4682 74.4916 62.3003 74.64 62.1662 74.8168C62.0321 74.9936 61.9343 75.1952 61.8785 75.41C61.8227 75.6248 61.81 75.8485 61.8412 76.0682C61.8723 76.2879 61.9467 76.4992 62.06 76.69C62.9193 78.5759 63.051 80.7129 62.43 82.69C61.76 84.55 54.51 85.21 54.51 85.21C54.51 85.21 39 122.6 35.5 128.26C33.5 131.47 27.94 137.01 20.77 132.5C16.7 129.94 15.25 126.91 14.75 124.77Z" fill="#FFA670" stroke="#171A1C" stroke-width="3" stroke-miterlimit="10"/>
<path d="M26.16 135.7C23.9649 135.656 21.8279 134.986 20 133.77C15.48 130.93 13.87 127.49 13.31 125.11C13.1061 124.187 13.0896 123.233 13.2613 122.304C13.4331 121.374 13.7897 120.489 14.31 119.7C17.31 115.16 26.67 102.59 30.88 97.7C35.45 92.42 44.67 81.81 46.73 79.43C46.53 75.92 47.83 69.86 54.26 68.13L55.26 67.86C63.14 65.74 67.35 64.71 69.26 66.35C69.5877 66.6319 69.8411 66.99 69.998 67.3928C70.1549 67.7955 70.2106 68.2307 70.16 68.66C69.97 70.74 67.69 73.07 63.38 75.6C63.3573 75.6123 63.3374 75.6294 63.3219 75.6502C63.3064 75.6709 63.2955 75.6947 63.29 75.72C63.2777 75.7413 63.2712 75.7654 63.2712 75.79C63.2712 75.8146 63.2777 75.8387 63.29 75.86C64.59 78.07 64.35 81.48 63.78 83.09C63.03 85.19 59.04 86.09 55.49 86.5C53.15 92.23 40 123.75 36.78 129C34.9295 132.111 31.9604 134.396 28.48 135.39C27.7211 135.582 26.9427 135.686 26.16 135.7ZM66.48 68.56C64.34 68.56 59.48 69.88 56.01 70.8L55.01 71.07C48.92 72.7 49.71 79.49 49.74 79.78L49.83 80.45L49.39 80.95L33.09 99.7C28.95 104.48 19.69 116.87 16.77 121.34C16.473 121.791 16.2703 122.297 16.1741 122.828C16.0778 123.359 16.0901 123.904 16.21 124.43C16.63 126.26 17.91 128.93 21.57 131.23C22.4645 131.857 23.4778 132.293 24.5476 132.514C25.6173 132.734 26.7208 132.732 27.79 132.51C30.4813 131.702 32.7742 129.919 34.22 127.51C37.57 122.01 52.93 84.97 53.08 84.6L53.43 83.76L54.33 83.68C57.27 83.41 60.39 82.68 61 82.06C61.4309 80.5359 61.3322 78.9107 60.72 77.45C60.5064 77.0894 60.3663 76.6901 60.308 76.2751C60.2497 75.86 60.2743 75.4376 60.3803 75.0321C60.4863 74.6267 60.6717 74.2462 60.9257 73.9129C61.1797 73.5795 61.4972 73.2998 61.86 73.09C65.55 70.92 66.86 69.34 67.12 68.65C66.9107 68.5962 66.696 68.566 66.48 68.56Z" fill="#171A1C"/>
<path d="M76 92.2601C76 92.2601 66.36 93.2601 65.21 91.2601C64.06 89.2601 71.4 69.5001 71.4 69.5001C71.4 69.5001 73.08 63.4001 76.53 63.4001C79.98 63.4001 90.68 61.0101 90.68 64.1101C90.68 67.2101 80.52 91.8201 76 92.2601Z" fill="#171A1C"/>
<path d="M71.12 93C68.4 93 65.48 92.7 64.78 91.53C63.61 89.53 69.2 74.04 70.94 69.34C71 69.12 72.75 62.91 76.54 62.91C77.43 62.91 78.82 62.75 80.44 62.56C85.35 61.97 89.21 61.63 90.63 62.89C90.8064 63.0426 90.9477 63.2315 91.0444 63.4438C91.141 63.6561 91.1907 63.8868 91.19 64.12C91.19 67.54 80.92 92.26 76.05 92.74C75.32 92.84 73.28 93 71.12 93ZM86.85 63C84.7424 63.0578 82.6394 63.228 80.55 63.51C78.91 63.7 77.48 63.87 76.55 63.87C73.55 63.87 71.91 69.55 71.9 69.61C68.32 79.3 65 89.9 65.65 91C66.3 92.1 72.08 92.11 75.96 91.73C79.96 91.33 90.19 66.96 90.19 64.1C90.1931 64.0084 90.1749 63.9173 90.1367 63.834C90.0985 63.7507 90.0414 63.6774 89.97 63.62C89.01 63.1236 87.9227 62.9285 86.85 63.06V63Z" fill="#171A1C"/>
<path d="M101.74 133.57C105.4 131.57 106.34 127.72 106.31 124.13C106.231 120.119 104.972 116.22 102.69 112.92C98.83 107.23 91.17 96.0201 89.54 94.1201C87.703 91.8408 85.9905 89.464 84.41 87.0001C84.41 87.0001 89.41 78.7801 89.41 76.5701C89.41 74.3601 85.34 73.3801 84.41 74.2701C83.48 75.1601 79.1 66.8401 76.89 68.6101C74.68 70.3801 75.3 73.3001 76.62 75.3301C77.94 77.3601 71.85 78.1601 71.76 81.2601C71.67 84.3601 75.83 88.7701 76.62 91.1601C77.41 93.5501 85.56 120.79 89.54 128.48C91.16 131.61 97.54 135.74 101.39 133.61C105.24 131.48 101.74 133.57 101.74 133.57Z" fill="#FFA670" stroke="#171A1C" stroke-width="3" stroke-miterlimit="10"/>
<path d="M47.5 56.29C47.5 56.29 51.29 42.16 49.16 39C47.03 35.84 45.32 26.24 49 25.84C52.68 25.44 57.39 15 61.1 17.09C64.81 19.18 77 31.28 76.09 34.86C75.18 38.44 72.64 52.11 68.66 54.63C69.06 60.07 67.87 62.39 65.88 62.92C63.89 63.45 51.09 65.18 47.5 56.29Z" fill="#FFA670" stroke="#171A1C" stroke-width="3" stroke-miterlimit="10"/>
<path d="M61.07 64.92C55.91 64.92 48.78 63.46 46.07 56.85L45.89 56.39L46.02 55.9C47.75 49.42 48.95 41.43 47.87 39.81C46 37 44.43 29.9 46 26.52C46.2408 25.9368 46.6328 25.4283 47.1355 25.0468C47.6382 24.6654 48.2334 24.4249 48.86 24.35C49.86 24.24 51.78 22.04 53.15 20.44C55.74 17.44 58.67 13.98 61.84 15.78C65.27 17.78 78.84 30.32 77.54 35.24C77.4 35.77 77.22 36.53 77.01 37.45C75.37 44.63 73.36 52.45 70.2 55.32C70.35 57.96 70.31 63.32 66.26 64.37C64.5581 64.7597 62.8157 64.9443 61.07 64.92ZM49.07 56.17C52.38 63.27 63.39 62.03 65.47 61.47C67.32 60.98 67.32 57.04 67.15 54.74L67.08 53.85L67.84 53.36C70.7 51.56 73.15 40.82 74.08 36.78C74.3 35.78 74.48 35.04 74.62 34.49C75.07 32.17 64.62 20.82 60.34 18.39C59.34 17.81 56.98 20.57 55.42 22.39C53.35 24.81 51.42 27.1 49.17 27.33C49.07 27.33 48.91 27.33 48.71 27.79C47.71 29.92 48.88 35.87 50.39 38.14C52.63 41.47 50.12 52.2 49.09 56.17H49.07Z" fill="#171A1C"/>
<path d="M58.07 55.6001C59.0219 56.4999 60.2234 57.0912 61.5171 57.2965C62.8109 57.5017 64.1364 57.3112 65.32 56.7501C69.72 54.6601 73.72 49.9601 73.47 48.3101C73.14 46.0601 72.4 41.6901 66.09 41.8201C62.1127 41.9844 58.2477 43.1877 54.88 45.3101C54.88 45.3101 52.82 41.5101 54.01 35.4101C55.2 29.3101 55.07 23.9301 56.59 23.3301C58.11 22.7301 64 28.9001 65.35 31.0901C66.7 33.2801 72.11 37.2501 75.35 36.5901C78.59 35.9301 80.26 30.7501 82.25 28.7601C84.24 26.7701 89.48 26.5101 89.35 23.1901C89.22 19.8701 85.17 14.1901 81.12 13.1901C77.07 12.1901 76.09 0.310057 68.8 0.500057C61.51 0.690057 53.28 4.00006 53.14 6.00006C53 8.00006 48.37 5.73006 46.24 9.38006C44.11 13.0301 40.24 18.0101 42.4 25.1701C44.56 32.3301 47.17 35.0501 47.17 35.0501L47.84 28.6601C47.84 28.6601 50.62 25.3701 52.02 26.3001C53.42 27.2301 51.09 36.4501 51.09 36.4501C51.09 36.4501 50.16 42.9501 52.21 47.9201C53.42 50.8601 56.08 53.7301 58.07 55.6001Z" fill="#171A1C"/>
<path d="M62.52 57.88C60.7391 57.8868 59.0226 57.2145 57.72 56C55.72 54.08 52.99 51.16 51.72 48.16C49.64 43.16 50.52 36.7 50.56 36.43C51.75 31.7 52.28 27.21 51.71 26.76C51.14 26.31 49.31 27.76 48.29 28.92L47.53 36.22L46.79 35.45C46.67 35.34 44.02 32.56 41.89 25.36C39.89 18.78 42.89 13.96 45.02 10.44C45.29 10.01 45.55 9.59002 45.78 9.18002C47.15 6.85002 49.35 6.68002 51 6.56002C52.28 6.46002 52.66 6.38002 52.68 5.98002C52.81 3.44002 61.56 0.200016 68.78 1.64872e-05C73.42 -0.159984 75.68 4.32002 77.51 7.88002C78.7 10.21 79.82 12.4 81.25 12.76C85.44 13.76 89.72 19.59 89.86 23.17C89.96 25.61 87.61 26.61 85.55 27.49C84.4839 27.8542 83.4916 28.4062 82.62 29.12C81.8764 29.9715 81.226 30.9001 80.68 31.89C79.33 34.1 77.81 36.6 75.46 37.08C72.02 37.78 66.36 33.72 64.92 31.35C63.39 28.82 57.77 23.41 56.78 23.8C56.07 24.07 55.73 26.8 55.41 29.43C55.18 31.25 54.93 33.32 54.5 35.51C53.8337 38.5289 54.0418 41.6752 55.1 44.58C58.4356 42.5888 62.2181 41.4678 66.1 41.32C72.97 41.19 73.68 46.13 73.99 48.24C74.27 50.18 70.08 55.05 65.55 57.24C64.6005 57.6769 63.5651 57.8956 62.52 57.88ZM51.45 25.64C51.7486 25.6379 52.0411 25.7249 52.29 25.89C53.82 26.89 52.29 33.7 51.57 36.58C51.57 36.58 50.7 42.95 52.68 47.74C53.85 50.58 56.44 53.38 58.41 55.23C59.2875 56.0616 60.3958 56.6087 61.5895 56.7996C62.7833 56.9906 64.0069 56.8164 65.1 56.3C69.56 54.18 73.16 49.64 72.98 48.39C72.66 46.22 72.06 42.17 66.1 42.32C62.2218 42.4945 58.4539 43.6655 55.16 45.72L54.7 46L54.44 45.52C54.35 45.35 52.3 41.52 53.52 35.28C53.94 33.13 54.19 31.08 54.42 29.28C54.87 25.58 55.15 23.34 56.42 22.84C58.49 22.05 64.63 28.91 65.79 30.84C67.03 32.9 72.32 36.72 75.27 36.11C77.19 35.72 78.6 33.41 79.83 31.38C80.4125 30.3052 81.1136 29.2989 81.92 28.38C82.8799 27.5759 83.9777 26.9525 85.16 26.54C87.11 25.71 88.94 24.93 88.87 23.18C88.74 19.99 84.77 14.61 81.03 13.7C79.15 13.24 78.03 10.95 76.63 8.31002C74.83 4.85002 72.79 0.880016 68.81 1.00002C61.13 1.21002 53.74 4.60002 53.64 6.00002C53.54 7.40002 52.28 7.46002 51 7.56002C49.45 7.67002 47.71 7.81002 46.64 9.64002C46.4 10.05 46.14 10.48 45.87 10.92C43.71 14.47 41.01 18.92 42.87 25.04C43.7069 28.1421 45.03 31.092 46.79 33.78L47.34 28.47L47.44 28.35C47.89 27.84 49.84 25.64 51.45 25.64Z" fill="#171A1C"/>
<path d="M150.33 151.05C156.085 151.05 160.75 145.919 160.75 139.59C160.75 133.261 156.085 128.13 150.33 128.13C144.575 128.13 139.91 133.261 139.91 139.59C139.91 145.919 144.575 151.05 150.33 151.05Z" fill="#171A1C"/>
<path d="M150.33 151.55C144.33 151.55 139.41 146.18 139.41 139.55C139.41 132.92 144.31 127.55 150.33 127.55C156.35 127.55 161.24 132.91 161.24 139.55C161.24 146.19 156.34 151.55 150.33 151.55ZM150.33 128.63C144.86 128.63 140.41 133.55 140.41 139.63C140.41 145.71 144.86 150.63 150.33 150.63C155.8 150.63 160.24 145.71 160.24 139.63C160.24 133.55 155.79 128.63 150.33 128.63Z" fill="#171A1C"/>
<path d="M148.24 151.05C153.995 151.05 158.66 145.919 158.66 139.59C158.66 133.261 153.995 128.13 148.24 128.13C142.485 128.13 137.82 133.261 137.82 139.59C137.82 145.919 142.485 151.05 148.24 151.05Z" fill="#171A1C"/>
<path d="M148.24 151.55C142.24 151.55 137.32 146.18 137.32 139.55C137.32 132.92 142.22 127.55 148.24 127.55C154.26 127.55 159.16 132.91 159.16 139.55C159.16 146.19 154.26 151.55 148.24 151.55ZM148.24 128.63C142.77 128.63 138.32 133.55 138.32 139.63C138.32 145.71 142.77 150.63 148.24 150.63C153.71 150.63 158.16 145.71 158.16 139.63C158.16 133.55 153.71 128.63 148.24 128.63Z" fill="#171A1C"/>
<path d="M227.73 151.05C233.805 151.05 238.73 145.919 238.73 139.59C238.73 133.261 233.805 128.13 227.73 128.13C221.655 128.13 216.73 133.261 216.73 139.59C216.73 145.919 221.655 151.05 227.73 151.05Z" fill="#171A1C"/>
<path d="M227.73 151.55C225.338 151.65 222.971 151.032 220.932 149.775C218.894 148.519 217.279 146.681 216.293 144.499C215.308 142.317 214.998 139.89 215.403 137.531C215.808 135.171 216.91 132.986 218.566 131.258C220.223 129.529 222.359 128.335 224.699 127.83C227.039 127.325 229.477 127.532 231.699 128.424C233.921 129.315 235.826 130.851 237.168 132.834C238.51 134.817 239.228 137.156 239.23 139.55C239.263 141.093 238.992 142.628 238.432 144.066C237.872 145.504 237.034 146.818 235.966 147.933C234.898 149.047 233.621 149.94 232.208 150.561C230.795 151.181 229.273 151.518 227.73 151.55ZM227.73 128.63C225.536 128.53 223.362 129.089 221.489 130.236C219.615 131.382 218.128 133.063 217.218 135.062C216.308 137.062 216.018 139.287 216.384 141.453C216.75 143.619 217.757 145.625 219.273 147.214C220.79 148.803 222.747 149.901 224.893 150.368C227.04 150.834 229.277 150.648 231.316 149.832C233.355 149.016 235.103 147.608 236.336 145.79C237.568 143.972 238.228 141.826 238.23 139.63C238.263 138.218 238.018 136.814 237.508 135.497C236.998 134.18 236.234 132.976 235.259 131.955C234.284 130.933 233.117 130.114 231.825 129.543C230.533 128.973 229.142 128.662 227.73 128.63Z" fill="#171A1C"/>
<path d="M225.53 151.05C231.605 151.05 236.53 145.919 236.53 139.59C236.53 133.261 231.605 128.13 225.53 128.13C219.455 128.13 214.53 133.261 214.53 139.59C214.53 145.919 219.455 151.05 225.53 151.05Z" fill="#171A1C"/>
<path d="M225.53 151.55C223.138 151.65 220.771 151.032 218.732 149.775C216.694 148.519 215.079 146.681 214.093 144.499C213.108 142.317 212.798 139.89 213.203 137.531C213.608 135.171 214.71 132.986 216.366 131.258C218.023 129.529 220.159 128.335 222.499 127.83C224.839 127.325 227.277 127.532 229.499 128.424C231.721 129.315 233.626 130.851 234.968 132.834C236.31 134.817 237.028 137.156 237.03 139.55C237.063 141.093 236.792 142.628 236.232 144.066C235.672 145.504 234.834 146.818 233.766 147.933C232.698 149.047 231.421 149.94 230.008 150.561C228.595 151.181 227.073 151.518 225.53 151.55ZM225.53 128.63C223.336 128.53 221.162 129.089 219.289 130.236C217.415 131.382 215.928 133.063 215.018 135.062C214.108 137.062 213.818 139.287 214.184 141.453C214.55 143.619 215.557 145.625 217.073 147.214C218.59 148.803 220.547 149.901 222.693 150.368C224.84 150.834 227.077 150.648 229.116 149.832C231.155 149.016 232.903 147.608 234.136 145.79C235.368 143.972 236.028 141.826 236.03 139.63C236.063 138.218 235.818 136.814 235.308 135.497C234.798 134.18 234.034 132.976 233.059 131.955C232.084 130.933 230.917 130.114 229.625 129.543C228.333 128.973 226.942 128.662 225.53 128.63Z" fill="#171A1C"/>
<path d="M127.8 136.72V120.82C127.8 118.048 128.901 115.39 130.861 113.431C132.82 111.471 135.478 110.37 138.25 110.37H143.25L159.25 85.61C159.791 84.7744 160.531 84.0865 161.404 83.6082C162.277 83.1298 163.255 82.8762 164.25 82.87H273.25C274.003 82.8687 274.749 83.016 275.444 83.3035C276.14 83.591 276.772 84.013 277.305 84.5453C277.837 85.0777 278.259 85.7099 278.547 86.4057C278.834 87.1015 278.981 87.8472 278.98 88.6V136.72H127.8Z" fill="#FF8338" stroke="#171A1C" stroke-width="3" stroke-miterlimit="10"/>
<path d="M280.55 138.22H126.3V120.82C126.313 117.646 127.583 114.607 129.832 112.367C132.081 110.127 135.126 108.87 138.3 108.87H142.5L158 84.8C158.676 83.7457 159.606 82.8788 160.706 82.2793C161.805 81.6798 163.038 81.367 164.29 81.37H273.29C275.208 81.37 277.046 82.1317 278.402 83.4876C279.758 84.8435 280.52 86.6825 280.52 88.6L280.55 138.22ZM129.3 135.22H277.55V88.6C277.547 87.479 277.101 86.4046 276.308 85.6119C275.515 84.8192 274.441 84.3727 273.32 84.37H164.32C163.575 84.3635 162.84 84.543 162.182 84.8923C161.523 85.2415 160.962 85.7494 160.55 86.37L144.11 111.82H138.28C135.91 111.833 133.642 112.78 131.966 114.456C130.29 116.132 129.343 118.4 129.33 120.77L129.3 135.22Z" fill="#171A1C"/>
<path d="M159.58 119.82H129.18C127.904 119.82 126.87 120.854 126.87 122.13V124.67C126.87 125.946 127.904 126.98 129.18 126.98H159.58C160.856 126.98 161.89 125.946 161.89 124.67V122.13C161.89 120.854 160.856 119.82 159.58 119.82Z" fill="#171A1C"/>
<path d="M159.58 127.48H129.18C128.435 127.48 127.72 127.184 127.193 126.657C126.666 126.13 126.37 125.415 126.37 124.67V122.13C126.37 121.385 126.666 120.67 127.193 120.143C127.72 119.616 128.435 119.32 129.18 119.32H159.58C160.325 119.32 161.04 119.616 161.567 120.143C162.094 120.67 162.39 121.385 162.39 122.13V124.67C162.39 125.415 162.094 126.13 161.567 126.657C161.04 127.184 160.325 127.48 159.58 127.48ZM129.18 120.32C128.701 120.323 128.242 120.514 127.903 120.853C127.564 121.192 127.373 121.651 127.37 122.13V124.67C127.37 125.15 127.561 125.61 127.9 125.95C128.24 126.289 128.7 126.48 129.18 126.48H159.58C160.059 126.477 160.518 126.286 160.857 125.947C161.196 125.608 161.387 125.149 161.39 124.67V122.13C161.387 121.651 161.196 121.192 160.857 120.853C160.518 120.514 160.059 120.323 159.58 120.32H129.18Z" fill="#171A1C"/>
<path d="M158.21 125.79C159.53 125.79 160.6 124.72 160.6 123.4C160.6 122.08 159.53 121.01 158.21 121.01C156.89 121.01 155.82 122.08 155.82 123.4C155.82 124.72 156.89 125.79 158.21 125.79Z" fill="white"/>
<path d="M158.21 126.29C157.638 126.29 157.08 126.121 156.604 125.803C156.129 125.485 155.759 125.034 155.54 124.506C155.321 123.978 155.264 123.397 155.376 122.836C155.487 122.276 155.762 121.761 156.166 121.356C156.571 120.952 157.086 120.677 157.646 120.566C158.207 120.454 158.788 120.511 159.316 120.73C159.844 120.949 160.295 121.319 160.613 121.794C160.931 122.27 161.1 122.828 161.1 123.4C161.097 124.166 160.792 124.899 160.251 125.441C159.709 125.982 158.976 126.287 158.21 126.29ZM158.21 121.52C157.836 121.52 157.47 121.631 157.159 121.839C156.848 122.047 156.606 122.343 156.463 122.689C156.32 123.035 156.283 123.416 156.357 123.782C156.431 124.149 156.612 124.486 156.877 124.75C157.142 125.014 157.48 125.193 157.847 125.265C158.215 125.337 158.595 125.298 158.94 125.153C159.285 125.009 159.58 124.765 159.786 124.453C159.993 124.141 160.102 123.774 160.1 123.4C160.097 122.9 159.897 122.422 159.543 122.07C159.189 121.718 158.71 121.52 158.21 121.52Z" fill="#171A1C"/>
<path d="M286.5 138.22H123.79C123.392 138.22 123.011 138.062 122.729 137.781C122.448 137.499 122.29 137.118 122.29 136.72C122.29 136.322 122.448 135.941 122.729 135.659C123.011 135.378 123.392 135.22 123.79 135.22H286.5C286.898 135.22 287.279 135.378 287.561 135.659C287.842 135.941 288 136.322 288 136.72C288 137.118 287.842 137.499 287.561 137.781C287.279 138.062 286.898 138.22 286.5 138.22Z" fill="#171A1C"/>
<path d="M184.49 107.48L194.49 92.02C194.715 91.6732 195.023 91.3882 195.386 91.1908C195.75 90.9935 196.157 90.8901 196.57 90.89H210.14C210.466 90.89 210.788 90.9542 211.089 91.0788C211.39 91.2034 211.663 91.3861 211.894 91.6164C212.124 91.8467 212.307 92.1201 212.431 92.421C212.556 92.7218 212.62 93.0443 212.62 93.37V109C212.62 109.327 212.555 109.652 212.429 109.954C212.303 110.256 212.119 110.53 211.887 110.761C211.654 110.991 211.378 111.174 211.075 111.297C210.772 111.42 210.447 111.483 210.12 111.48L186.58 111.29C186.136 111.289 185.7 111.17 185.318 110.943C184.937 110.717 184.622 110.392 184.409 110.003C184.195 109.613 184.09 109.174 184.104 108.73C184.119 108.287 184.252 107.855 184.49 107.48Z" fill="#171A1C"/>
<path d="M210.11 112L186.57 111.81C186.04 111.799 185.522 111.647 185.07 111.371C184.617 111.095 184.246 110.703 183.994 110.237C183.742 109.77 183.618 109.245 183.635 108.715C183.652 108.186 183.809 107.67 184.09 107.22L194.09 91.76C194.362 91.3441 194.732 91.0021 195.168 90.7647C195.605 90.5273 196.093 90.402 196.59 90.4H210.16C210.956 90.4 211.719 90.7161 212.281 91.2787C212.844 91.8413 213.16 92.6044 213.16 93.4V109C213.16 109.796 212.844 110.559 212.281 111.121C211.719 111.684 210.956 112 210.16 112H210.11ZM184.91 107.76C184.738 108.058 184.645 108.396 184.641 108.74C184.637 109.084 184.723 109.424 184.889 109.726C185.055 110.027 185.296 110.281 185.588 110.462C185.881 110.643 186.216 110.746 186.56 110.76L210.1 110.95C210.63 110.95 211.139 110.739 211.514 110.364C211.889 109.989 212.1 109.48 212.1 108.95V93.37C212.1 92.8396 211.889 92.3309 211.514 91.9558C211.139 91.5807 210.63 91.37 210.1 91.37H196.54C196.211 91.3717 195.887 91.4548 195.597 91.6118C195.307 91.7688 195.061 91.9949 194.88 92.27L184.91 107.76Z" fill="#171A1C"/>
<path d="M156.67 89.77L185.22 90.3C185.557 90.3052 185.887 90.3999 186.175 90.5744C186.463 90.749 186.7 90.997 186.861 91.2932C187.021 91.5894 187.101 91.923 187.09 92.2598C187.079 92.5967 186.979 92.9246 186.8 93.21L177 108.86C176.492 109.672 175.786 110.341 174.948 110.805C174.11 111.269 173.168 111.511 172.21 111.51H143.21" fill="#171A1C"/>
<path d="M172.22 112H143.22V111H172.22C173.094 111.003 173.955 110.783 174.72 110.359C175.485 109.936 176.129 109.323 176.59 108.58L186.37 93.0001C186.495 92.7842 186.56 92.5393 186.56 92.2901C186.56 92.0408 186.495 91.7959 186.37 91.5801C186.251 91.362 186.076 91.1795 185.864 91.0512C185.651 90.9229 185.408 90.8535 185.16 90.8501L156.61 90.3201V89.3201L185.16 89.8501C185.587 89.8554 186.004 89.9744 186.37 90.1948C186.735 90.4152 187.035 90.729 187.239 91.1039C187.442 91.4787 187.543 91.9012 187.529 92.3276C187.515 92.7541 187.388 93.1692 187.16 93.5301L177.38 109.17C176.826 110.036 176.063 110.749 175.161 111.244C174.26 111.738 173.248 111.998 172.22 112Z" fill="#171A1C"/>
<path d="M212 116.52H205.12C204.855 116.52 204.6 116.415 204.413 116.227C204.225 116.04 204.12 115.785 204.12 115.52C204.12 115.255 204.225 115 204.413 114.813C204.6 114.625 204.855 114.52 205.12 114.52H212C212.265 114.52 212.52 114.625 212.707 114.813C212.895 115 213 115.255 213 115.52C213 115.785 212.895 116.04 212.707 116.227C212.52 116.415 212.265 116.52 212 116.52Z" fill="#171A1C"/>
<path d="M178.36 127.85C175.469 127.845 172.684 128.934 170.563 130.898C168.443 132.863 167.145 135.557 166.93 138.44H177.64V140.73H189.78C189.78 140.73 189.78 139.92 189.78 139.73C189.808 136.65 188.628 133.681 186.493 131.461C184.358 129.24 181.439 127.944 178.36 127.85Z" fill="#171A1C"/>
<path d="M256.28 127.85C253.389 127.845 250.604 128.934 248.483 130.898C246.363 132.863 245.065 135.557 244.85 138.44H255.56V140.73H267.7C267.7 140.73 267.7 139.92 267.7 139.73C267.728 136.65 266.548 133.681 264.413 131.461C262.278 129.24 259.359 127.944 256.28 127.85Z" fill="#171A1C"/>
<path d="M259.29 151.05C265.619 151.05 270.75 145.919 270.75 139.59C270.75 133.261 265.619 128.13 259.29 128.13C252.961 128.13 247.83 133.261 247.83 139.59C247.83 145.919 252.961 151.05 259.29 151.05Z" fill="#333333"/>
<path d="M259.29 151.55C256.915 151.56 254.59 150.864 252.61 149.552C250.63 148.239 249.084 146.369 248.168 144.177C247.252 141.985 247.007 139.571 247.465 137.24C247.922 134.909 249.061 132.766 250.737 131.083C252.413 129.399 254.551 128.251 256.88 127.784C259.21 127.317 261.625 127.552 263.821 128.459C266.016 129.365 267.893 130.903 269.214 132.878C270.535 134.852 271.24 137.174 271.24 139.55C271.24 142.724 269.983 145.769 267.743 148.018C265.503 150.267 262.464 151.537 259.29 151.55ZM259.29 128.63C257.112 128.62 254.981 129.257 253.165 130.459C251.35 131.662 249.932 133.377 249.092 135.386C248.252 137.395 248.027 139.608 248.445 141.745C248.864 143.882 249.908 145.847 251.444 147.39C252.98 148.934 254.94 149.986 257.076 150.415C259.211 150.843 261.425 150.628 263.438 149.797C265.451 148.966 267.172 147.556 268.383 145.746C269.594 143.936 270.24 141.808 270.24 139.63C270.24 136.721 269.088 133.931 267.036 131.869C264.984 129.808 262.199 128.643 259.29 128.63Z" fill="#171A1C"/>
<path d="M258.14 151.05C264.469 151.05 269.6 145.919 269.6 139.59C269.6 133.261 264.469 128.13 258.14 128.13C251.811 128.13 246.68 133.261 246.68 139.59C246.68 145.919 251.811 151.05 258.14 151.05Z" fill="#171A1C"/>
<path d="M258.14 151.55C255.767 151.55 253.447 150.846 251.473 149.528C249.5 148.209 247.962 146.335 247.053 144.142C246.145 141.95 245.908 139.537 246.371 137.209C246.834 134.881 247.977 132.743 249.655 131.065C251.333 129.387 253.471 128.244 255.799 127.781C258.127 127.318 260.54 127.555 262.732 128.463C264.925 129.372 266.799 130.91 268.118 132.883C269.436 134.857 270.14 137.177 270.14 139.55C270.14 142.733 268.876 145.785 266.625 148.035C264.375 150.286 261.323 151.55 258.14 151.55ZM258.14 128.63C255.964 128.63 253.838 129.275 252.029 130.484C250.22 131.693 248.81 133.411 247.977 135.421C247.145 137.431 246.927 139.642 247.351 141.776C247.776 143.91 248.823 145.87 250.362 147.408C251.9 148.947 253.86 149.994 255.994 150.419C258.128 150.843 260.34 150.625 262.35 149.793C264.36 148.96 266.077 147.55 267.286 145.741C268.495 143.932 269.14 141.806 269.14 139.63C269.14 136.713 267.981 133.915 265.918 131.852C263.855 129.789 261.057 128.63 258.14 128.63Z" fill="#171A1C"/>
<path d="M262.15 146.18C265 146.18 267.31 143.23 267.31 139.59C267.31 135.95 265 133 262.15 133C259.3 133 256.99 135.95 256.99 139.59C256.99 143.23 259.3 146.18 262.15 146.18Z" fill="white"/>
<path d="M262.15 146.68C259.03 146.68 256.49 143.5 256.49 139.59C256.49 135.68 259.03 132.5 262.15 132.5C265.27 132.5 267.81 135.68 267.81 139.59C267.81 143.5 265.27 146.68 262.15 146.68ZM262.15 133.5C259.58 133.5 257.49 136.23 257.49 139.59C257.49 142.95 259.58 145.68 262.15 145.68C264.72 145.68 266.81 142.94 266.81 139.59C266.81 136.24 264.72 133.5 262.15 133.5Z" fill="#171A1C"/>
<path d="M181.8 151.05C188.129 151.05 193.26 145.919 193.26 139.59C193.26 133.261 188.129 128.13 181.8 128.13C175.471 128.13 170.34 133.261 170.34 139.59C170.34 145.919 175.471 151.05 181.8 151.05Z" fill="#171A1C"/>
<path d="M181.8 151.55C179.427 151.55 177.107 150.846 175.133 149.528C173.16 148.209 171.622 146.335 170.713 144.142C169.805 141.95 169.568 139.537 170.031 137.209C170.494 134.881 171.636 132.743 173.315 131.065C174.993 129.387 177.131 128.244 179.459 127.781C181.787 127.318 184.199 127.555 186.392 128.463C188.585 129.372 190.459 130.91 191.778 132.883C193.096 134.857 193.8 137.177 193.8 139.55C193.8 142.733 192.536 145.785 190.285 148.035C188.035 150.286 184.983 151.55 181.8 151.55ZM181.8 128.63C179.624 128.63 177.498 129.275 175.689 130.484C173.88 131.693 172.47 133.411 171.637 135.421C170.805 137.431 170.587 139.642 171.011 141.776C171.436 143.91 172.483 145.87 174.022 147.408C175.56 148.947 177.52 149.994 179.654 150.419C181.788 150.843 184 150.625 186.01 149.793C188.02 148.96 189.737 147.55 190.946 145.741C192.155 143.932 192.8 141.806 192.8 139.63C192.8 136.713 191.641 133.915 189.578 131.852C187.515 129.789 184.717 128.63 181.8 128.63Z" fill="#171A1C"/>
<path d="M180.65 151.05C186.979 151.05 192.11 145.919 192.11 139.59C192.11 133.261 186.979 128.13 180.65 128.13C174.321 128.13 169.19 133.261 169.19 139.59C169.19 145.919 174.321 151.05 180.65 151.05Z" fill="#171A1C"/>
<path d="M180.65 151.55C178.277 151.55 175.957 150.846 173.983 149.528C172.01 148.209 170.472 146.335 169.563 144.142C168.655 141.95 168.418 139.537 168.881 137.209C169.344 134.881 170.486 132.743 172.165 131.065C173.843 129.387 175.981 128.244 178.309 127.781C180.637 127.318 183.049 127.555 185.242 128.463C187.435 129.372 189.309 130.91 190.628 132.883C191.946 134.857 192.65 137.177 192.65 139.55C192.65 142.733 191.386 145.785 189.135 148.035C186.885 150.286 183.833 151.55 180.65 151.55ZM180.65 128.63C178.474 128.63 176.348 129.275 174.539 130.484C172.73 131.693 171.32 133.411 170.487 135.421C169.655 137.431 169.437 139.642 169.861 141.776C170.286 143.91 171.333 145.87 172.872 147.408C174.41 148.947 176.37 149.994 178.504 150.419C180.638 150.843 182.85 150.625 184.86 149.793C186.87 148.96 188.587 147.55 189.796 145.741C191.005 143.932 191.65 141.806 191.65 139.63C191.65 136.713 190.491 133.915 188.428 131.852C186.365 129.789 183.567 128.63 180.65 128.63Z" fill="#171A1C"/>
<path d="M184.66 146.18C187.51 146.18 189.82 143.23 189.82 139.59C189.82 135.95 187.51 133 184.66 133C181.81 133 179.5 135.95 179.5 139.59C179.5 143.23 181.81 146.18 184.66 146.18Z" fill="white"/>
<path d="M184.66 146.68C181.54 146.68 179.01 143.5 179.01 139.59C179.01 135.68 181.54 132.5 184.66 132.5C187.78 132.5 190.32 135.68 190.32 139.59C190.32 143.5 187.78 146.68 184.66 146.68ZM184.66 133.5C182.09 133.5 180.01 136.23 180.01 139.59C180.01 142.95 182.09 145.68 184.66 145.68C187.23 145.68 189.32 142.94 189.32 139.59C189.32 136.24 187.23 133.5 184.66 133.5Z" fill="#171A1C"/>
<path d="M129.66 121C129.414 121.002 129.171 121.046 128.94 121.13V125.66C129.173 125.735 129.415 125.776 129.66 125.78C130.294 125.78 130.902 125.528 131.35 125.08C131.798 124.632 132.05 124.024 132.05 123.39C132.05 122.756 131.798 122.148 131.35 121.7C130.902 121.252 130.294 121 129.66 121Z" fill="white"/>
<path d="M129.66 126.29C129.365 126.284 129.072 126.237 128.79 126.15L128.44 126.04V120.77L128.79 120.66C129.071 120.568 129.364 120.521 129.66 120.52C130.053 120.497 130.447 120.554 130.817 120.689C131.187 120.823 131.526 121.032 131.812 121.302C132.099 121.572 132.327 121.898 132.483 122.26C132.639 122.622 132.72 123.011 132.72 123.405C132.72 123.799 132.639 124.189 132.483 124.55C132.327 124.912 132.099 125.238 131.812 125.508C131.526 125.778 131.187 125.987 130.817 126.121C130.447 126.256 130.053 126.313 129.66 126.29ZM129.44 125.29H129.66C129.919 125.309 130.179 125.274 130.424 125.188C130.669 125.102 130.894 124.966 131.084 124.789C131.275 124.612 131.426 124.398 131.53 124.16C131.634 123.922 131.687 123.665 131.687 123.405C131.687 123.145 131.634 122.888 131.53 122.65C131.426 122.412 131.275 122.198 131.084 122.021C130.894 121.844 130.669 121.708 130.424 121.622C130.179 121.536 129.919 121.501 129.66 121.52H129.44V125.29Z" fill="#171A1C"/>
<path d="M266.22 111.66H225.14C224.004 111.66 222.914 111.209 222.11 110.407C221.306 109.605 220.853 108.516 220.85 107.38V94.88C220.853 93.7439 221.306 92.6553 222.11 91.853C222.914 91.0506 224.004 90.6 225.14 90.6H266.22C267.355 90.6 268.444 91.0509 269.246 91.8536C270.049 92.6562 270.5 93.7448 270.5 94.88V107.38C270.5 108.515 270.049 109.604 269.246 110.406C268.444 111.209 267.355 111.66 266.22 111.66ZM225.14 92.6C224.534 92.6 223.953 92.8399 223.524 93.2672C223.095 93.6945 222.853 94.2744 222.85 94.88V107.38C222.853 107.986 223.095 108.565 223.524 108.993C223.953 109.42 224.534 109.66 225.14 109.66H266.22C266.824 109.657 267.402 109.416 267.829 108.989C268.256 108.562 268.497 107.984 268.5 107.38V94.88C268.497 94.2761 268.256 93.6977 267.829 93.2707C267.402 92.8437 266.824 92.6026 266.22 92.6H225.14Z" fill="#171A1C"/>
<path d="M176.21 137.9C176.144 137.897 176.08 137.882 176.02 137.854C175.96 137.827 175.907 137.788 175.862 137.74C175.818 137.691 175.783 137.635 175.76 137.573C175.738 137.511 175.727 137.446 175.73 137.38C175.73 137.19 175.97 132.7 179.99 131.17C180.052 131.146 180.118 131.134 180.184 131.136C180.25 131.137 180.315 131.152 180.376 131.179C180.436 131.206 180.491 131.245 180.536 131.293C180.581 131.341 180.617 131.398 180.64 131.46C180.664 131.521 180.675 131.586 180.674 131.652C180.672 131.717 180.657 131.782 180.63 131.841C180.603 131.901 180.564 131.955 180.516 131.999C180.468 132.043 180.412 132.078 180.35 132.1C176.94 133.41 176.73 137.38 176.73 137.42C176.727 137.486 176.712 137.55 176.684 137.61C176.657 137.67 176.618 137.723 176.57 137.768C176.521 137.812 176.465 137.847 176.403 137.87C176.341 137.892 176.276 137.903 176.21 137.9Z" fill="white"/>
<path d="M254.13 137.9C254.064 137.897 254 137.882 253.94 137.854C253.88 137.827 253.827 137.788 253.782 137.739C253.738 137.691 253.703 137.635 253.68 137.573C253.658 137.511 253.647 137.446 253.65 137.38C253.65 137.19 253.89 132.7 257.91 131.17C257.972 131.14 258.04 131.124 258.108 131.122C258.177 131.12 258.246 131.132 258.31 131.157C258.373 131.183 258.431 131.221 258.48 131.27C258.528 131.319 258.566 131.377 258.591 131.441C258.616 131.505 258.627 131.574 258.624 131.643C258.621 131.711 258.604 131.779 258.574 131.841C258.544 131.902 258.501 131.957 258.449 132.002C258.397 132.047 258.336 132.08 258.27 132.1C254.85 133.41 254.65 137.38 254.65 137.42C254.647 137.486 254.632 137.55 254.604 137.61C254.577 137.67 254.538 137.723 254.49 137.768C254.441 137.812 254.385 137.847 254.323 137.87C254.261 137.892 254.196 137.903 254.13 137.9Z" fill="white"/>
<path d="M97.47 48.61C97.47 48.61 105.36 49.69 107.67 56.3" stroke="#E6E6E6" stroke-width="2" stroke-miterlimit="10" stroke-linecap="round"/>
<path d="M95.59 37.0601C95.59 37.0601 114.71 38.4901 120.42 54.2801" stroke="#E6E6E6" stroke-width="2" stroke-miterlimit="10" stroke-linecap="round"/>
<path d="M115.45 19.51C125.78 24.61 137.01 33.89 140.89 50.67" stroke="#E6E6E6" stroke-width="2" stroke-miterlimit="10" stroke-linecap="round"/>
<path d="M95.42 13.48C100.208 14.0699 104.908 15.2315 109.42 16.94" stroke="#E6E6E6" stroke-width="2" stroke-miterlimit="10" stroke-linecap="round"/>
</svg>