<svg width="363" height="135" viewBox="0 0 363 135" fill="none" xmlns="http://www.w3.org/2000/svg">
<path d="M121.68 21.5H67.35C64.1674 21.5 61.1152 22.7643 58.8647 25.0147C56.6143 27.2652 55.35 30.3174 55.35 33.5V41.2C55.35 44.3826 56.6143 47.4348 58.8647 49.6853C61.1152 51.9357 64.1674 53.2 67.35 53.2H86.24L94.29 61.2L102.29 53.2H121.63C124.813 53.2 127.865 51.9357 130.115 49.6853C132.366 47.4348 133.63 44.3826 133.63 41.2V33.5C133.63 30.326 132.373 27.2814 130.133 25.0323C127.893 22.7833 124.854 21.5132 121.68 21.5Z" fill="white" stroke="#CCCCCC" stroke-width="2" stroke-miterlimit="10"/>
<path d="M68.94 43.35C67.9863 43.3876 67.0371 43.2009 66.1687 42.8049C65.3003 42.4089 64.537 41.8147 63.94 41.07L65.53 39.59C65.9368 40.1239 66.4618 40.5563 67.0639 40.853C67.666 41.1497 68.3288 41.3027 69 41.3C69.5858 41.3194 70.1585 41.1238 70.61 40.75C70.8138 40.5689 70.9751 40.345 71.0822 40.0943C71.1894 39.8437 71.2399 39.5724 71.23 39.3C71.2399 39.0059 71.1709 38.7145 71.0302 38.456C70.8895 38.1975 70.6823 37.9814 70.43 37.83C69.7729 37.4477 69.0193 37.2636 68.26 37.3H67.18L66.81 35.88L70.31 32.16H64.7V30.16H73.27V31.86L69.66 35.56C70.6698 35.6692 71.6274 36.0648 72.42 36.7C72.7665 37.0212 73.0363 37.4163 73.2094 37.856C73.3825 38.2957 73.4545 38.7687 73.42 39.24C73.447 39.7927 73.3517 40.3446 73.1408 40.8563C72.9299 41.368 72.6087 41.8268 72.2 42.2C71.302 42.9889 70.1342 43.4009 68.94 43.35Z" fill="#CCCCCC"/>
<path d="M80.24 43.35C79.3545 43.3528 78.4775 43.1772 77.6614 42.8336C76.8453 42.49 76.1068 41.9854 75.49 41.35L76.89 39.7C77.7573 40.63 78.9503 41.1889 80.22 41.26C80.8986 41.2923 81.5651 41.0713 82.09 40.64C82.322 40.4321 82.505 40.1754 82.6261 39.8884C82.7471 39.6014 82.8031 39.2912 82.79 38.98C82.7986 38.68 82.7361 38.3822 82.6074 38.1111C82.4788 37.8399 82.2878 37.6031 82.05 37.42C81.4875 37.0128 80.8036 36.8083 80.11 36.84C79.2843 36.8522 78.4716 37.0468 77.73 37.41L76.36 36.5L76.73 30.16H84.46V32.16H78.69L78.48 35.16C79.1394 34.9157 79.8368 34.7904 80.54 34.79C81.7047 34.7262 82.8538 35.0809 83.78 35.79C84.2217 36.1912 84.5624 36.6911 84.7744 37.2489C84.9864 37.8067 85.0637 38.4067 85 39C85.0245 39.5956 84.9191 40.1894 84.6912 40.7403C84.4632 41.2911 84.1182 41.7858 83.68 42.19C82.7192 42.994 81.4915 43.4079 80.24 43.35Z" fill="#CCCCCC"/>
<path d="M92.8 43.35C92.0187 43.3703 91.2436 43.2072 90.5368 42.8738C89.83 42.5403 89.2112 42.0458 88.73 41.43C87.6686 40.0678 87.1199 38.3758 87.18 36.65C87.1288 34.9267 87.6885 33.2407 88.76 31.89C89.2544 31.289 89.8758 30.8049 90.5795 30.4725C91.2832 30.1402 92.0518 29.9678 92.83 29.9678C93.6082 29.9678 94.3768 30.1402 95.0805 30.4725C95.7842 30.8049 96.4056 31.289 96.9 31.89C97.9658 33.2465 98.5183 34.9358 98.46 36.66C98.5179 38.3874 97.9577 40.0788 96.88 41.43C96.3978 42.0472 95.7774 42.5425 95.0687 42.876C94.36 43.2095 93.5829 43.3719 92.8 43.35ZM90.44 40C90.69 40.4097 91.0412 40.7482 91.4597 40.983C91.8782 41.2179 92.3501 41.3413 92.83 41.3413C93.3099 41.3413 93.7818 41.2179 94.2003 40.983C94.6188 40.7482 94.97 40.4097 95.22 40C95.8424 39.0074 96.1525 37.8508 96.11 36.68C96.1522 35.5113 95.8308 34.3583 95.19 33.38C94.9447 32.9631 94.5957 32.6169 94.1768 32.3751C93.758 32.1332 93.2836 32.004 92.8 32C92.3244 31.9954 91.8557 32.1147 91.4402 32.3461C91.0246 32.5776 90.6765 32.9132 90.43 33.32C89.7994 34.3094 89.4855 35.4676 89.53 36.64C89.4755 37.8275 89.7937 39.0023 90.44 40Z" fill="#CCCCCC"/>
<path d="M106.2 43.35C105.419 43.3703 104.644 43.2072 103.937 42.8738C103.23 42.5404 102.611 42.0459 102.13 41.43C101.061 40.0713 100.508 38.3777 100.57 36.65C100.519 34.9267 101.078 33.2407 102.15 31.89C102.635 31.2783 103.257 30.7887 103.966 30.4605C104.674 30.1323 105.45 29.9746 106.23 30C107.01 29.9813 107.783 30.1452 108.488 30.4785C109.193 30.8119 109.81 31.3056 110.29 31.92C111.363 33.2731 111.92 34.964 111.86 36.69C111.914 38.4168 111.354 40.1067 110.28 41.46C109.795 42.0718 109.173 42.5613 108.464 42.8895C107.756 43.2177 106.98 43.3755 106.2 43.35ZM103.84 40C104.089 40.4098 104.439 40.7486 104.857 40.9837C105.274 41.2188 105.746 41.3423 106.225 41.3423C106.704 41.3423 107.176 41.2188 107.593 40.9837C108.011 40.7486 108.361 40.4098 108.61 40C109.241 39.0106 109.555 37.8525 109.51 36.68C109.549 35.5103 109.224 34.3571 108.58 33.38C108.336 32.964 107.989 32.6181 107.572 32.3763C107.155 32.1344 106.682 32.0048 106.2 32C105.723 31.9947 105.253 32.1135 104.835 32.345C104.418 32.5764 104.068 32.9124 103.82 33.32C103.189 34.3095 102.875 35.4676 102.92 36.64C102.869 37.8286 103.19 39.0035 103.84 40Z" fill="#CCCCCC"/>
<path d="M113.41 45.81L113.17 44.87C114.23 44.66 114.76 44.15 114.76 43.33C114.764 43.2968 114.764 43.2632 114.76 43.23C114.76 43.23 114.76 43.15 114.76 43.13H113.82V40.59H116.28V42.74C116.345 43.5461 116.094 44.346 115.58 44.97C114.988 45.5124 114.213 45.8123 113.41 45.81Z" fill="#CCCCCC"/>
<path d="M118.92 38.52V36.39H126.62V38.52H118.92Z" fill="#CCCCCC"/>
<path d="M205.42 12H134.35C127.723 12 122.35 17.3726 122.35 24V38.48C122.35 45.1074 127.723 50.48 134.35 50.48H205.42C212.047 50.48 217.42 45.1074 217.42 38.48V24C217.42 17.3726 212.047 12 205.42 12Z" fill="#FFA670"/>
<path d="M136.6 38.25V36.07L142.01 31.47C142.869 30.7982 143.644 30.026 144.32 29.17C144.73 28.6055 144.953 27.9274 144.96 27.23C144.976 26.8974 144.92 26.5652 144.796 26.2563C144.672 25.9473 144.482 25.6689 144.24 25.44C143.741 24.9939 143.089 24.7575 142.42 24.78C141.76 24.7722 141.114 24.9677 140.57 25.34C139.883 25.8433 139.279 26.4506 138.78 27.14L136.83 25.61C137.49 24.6196 138.34 23.7699 139.33 23.11C140.331 22.5428 141.47 22.2657 142.62 22.31C143.99 22.2486 145.332 22.7137 146.37 23.61C146.846 24.0443 147.221 24.577 147.47 25.1711C147.718 25.7652 147.834 26.4064 147.81 27.05C147.816 27.6084 147.738 28.1645 147.58 28.7C147.404 29.2353 147.137 29.7361 146.79 30.18C146.413 30.6687 145.999 31.1268 145.55 31.55C145.11 31.96 144.5 32.49 143.72 33.13L140.49 35.83H148V38.25H136.6Z" fill="white"/>
<path d="M156.34 38.48C154.807 38.5425 153.297 38.0998 152.04 37.22C151.508 36.8557 151.075 36.3657 150.778 35.7934C150.482 35.2212 150.331 34.5845 150.34 33.94C150.337 33.0809 150.61 32.2436 151.12 31.552C151.63 30.8604 152.348 30.3513 153.17 30.1C152.484 29.7959 151.901 29.2978 151.495 28.6671C151.088 28.0364 150.874 27.3005 150.88 26.55C150.883 25.9631 151.026 25.3854 151.295 24.864C151.564 24.3426 151.953 23.8923 152.43 23.55C153.581 22.7614 154.944 22.3395 156.34 22.3395C157.736 22.3395 159.099 22.7614 160.25 23.55C160.735 23.9031 161.128 24.3667 161.398 24.9024C161.667 25.4381 161.805 26.0303 161.8 26.63C161.801 27.3731 161.585 28.1004 161.178 28.7223C160.771 29.3442 160.191 29.8335 159.51 30.13C161.39 31 162.34 32.27 162.34 33.95C162.354 34.5985 162.207 35.2403 161.912 35.818C161.617 36.3957 161.184 36.8911 160.65 37.26C159.384 38.1237 157.871 38.5519 156.34 38.48ZM153.94 35.48C154.662 35.9241 155.493 36.1592 156.34 36.1592C157.187 36.1592 158.018 35.9241 158.74 35.48C159.018 35.2875 159.245 35.0304 159.402 34.7308C159.559 34.4312 159.64 34.0981 159.64 33.76C159.651 33.41 159.57 33.0633 159.405 32.7544C159.24 32.4455 158.997 32.1854 158.7 32C157.991 31.5722 157.178 31.3461 156.35 31.3461C155.522 31.3461 154.709 31.5722 154 32C153.706 32.1906 153.465 32.4532 153.3 32.763C153.136 33.0727 153.053 33.4193 153.06 33.77C153.051 34.106 153.127 34.4388 153.281 34.7377C153.435 35.0366 153.661 35.2919 153.94 35.48ZM154.33 28.53C154.9 28.9738 155.608 29.2038 156.33 29.18C157.055 29.2089 157.765 28.9745 158.33 28.52C158.585 28.3172 158.79 28.0583 158.929 27.7634C159.067 27.4686 159.136 27.1458 159.13 26.82C159.13 26.5163 159.058 26.2169 158.921 25.9459C158.784 25.675 158.585 25.44 158.34 25.26C157.753 24.8527 157.055 24.6344 156.34 24.6344C155.625 24.6344 154.927 24.8527 154.34 25.26C154.095 25.4463 153.896 25.6867 153.759 25.9625C153.622 26.2383 153.55 26.542 153.55 26.85C153.541 27.1712 153.607 27.4901 153.743 27.7816C153.878 28.0731 154.079 28.3292 154.33 28.53Z" fill="white"/>
<path d="M165.57 38.25L172.62 25H164.72V22.53H175.72V24.62L168.63 38.25H165.57Z" fill="white"/>
<path d="M184.52 38.52C183.573 38.5466 182.632 38.3506 181.774 37.9476C180.916 37.5447 180.165 36.9461 179.58 36.2C178.289 34.5453 177.623 32.4877 177.7 30.39C177.635 28.2968 178.316 26.2484 179.62 24.61C180.218 23.8779 180.972 23.2879 181.826 22.8828C182.681 22.4776 183.614 22.2675 184.56 22.2675C185.506 22.2675 186.439 22.4776 187.294 22.8828C188.148 23.2879 188.902 23.8779 189.5 24.61C190.79 26.2585 191.459 28.3081 191.39 30.4C191.456 32.4965 190.775 34.5481 189.47 36.19C188.883 36.9364 188.13 37.5356 187.27 37.94C186.411 38.3445 185.469 38.5431 184.52 38.52ZM181.66 34.4C181.966 34.8953 182.394 35.303 182.904 35.5834C183.414 35.8637 183.988 36.0073 184.57 36C185.148 36.004 185.718 35.8577 186.223 35.5755C186.728 35.2933 187.15 34.8848 187.45 34.39C188.209 33.1973 188.589 31.8028 188.54 30.39C188.586 28.9734 188.195 27.5769 187.42 26.39C187.116 25.8945 186.689 25.4854 186.181 25.2018C185.674 24.9181 185.102 24.7695 184.52 24.77C183.942 24.762 183.372 24.9055 182.867 25.1863C182.362 25.467 181.939 25.8751 181.64 26.37C180.881 27.5627 180.501 28.9572 180.55 30.37C180.497 31.7955 180.885 33.2027 181.66 34.4Z" fill="white"/>
<path d="M193.28 41.51L193 40.36C194.29 40.11 194.93 39.49 194.93 38.5C194.934 38.4601 194.934 38.4199 194.93 38.38C194.926 38.3367 194.926 38.2932 194.93 38.25H193.78V35.18H196.78V37.78C196.857 38.7608 196.548 39.733 195.92 40.49C195.2 41.1511 194.257 41.5155 193.28 41.51Z" fill="white"/>
<path d="M200 32.66V30.08H209.34V32.66H200Z" fill="white"/>
<path d="M155.37 46L169.62 60.25L184.41 45.46C184.41 45.46 155.17 45.8 155.37 46Z" fill="#FFA670"/>
<path d="M52.16 132.75C57.1803 132.75 61.25 128.273 61.25 122.75C61.25 117.227 57.1803 112.75 52.16 112.75C47.1397 112.75 43.07 117.227 43.07 122.75C43.07 128.273 47.1397 132.75 52.16 132.75Z" fill="#171A1C" stroke="#171A1C" stroke-miterlimit="10"/>
<path d="M50.34 132.75C55.3603 132.75 59.43 128.273 59.43 122.75C59.43 117.227 55.3603 112.75 50.34 112.75C45.3197 112.75 41.25 117.227 41.25 122.75C41.25 128.273 45.3197 132.75 50.34 132.75Z" fill="#171A1C" stroke="#171A1C" stroke-miterlimit="10"/>
<path d="M119.71 132.75C125.012 132.75 129.31 128.273 129.31 122.75C129.31 117.227 125.012 112.75 119.71 112.75C114.408 112.75 110.11 117.227 110.11 122.75C110.11 128.273 114.408 132.75 119.71 132.75Z" fill="#171A1C" stroke="#171A1C" stroke-miterlimit="10"/>
<path d="M117.79 132.75C123.092 132.75 127.39 128.273 127.39 122.75C127.39 117.227 123.092 112.75 117.79 112.75C112.488 112.75 108.19 117.227 108.19 122.75C108.19 128.273 112.488 132.75 117.79 132.75Z" fill="#171A1C" stroke="#171A1C" stroke-miterlimit="10"/>
<path d="M32.5 120.25V106.38C32.5 103.959 33.4619 101.636 35.1741 99.9241C36.8863 98.2119 39.2086 97.25 41.63 97.25H46L60 75.64C60.4764 74.9067 61.1283 74.304 61.8967 73.8867C62.6651 73.4693 63.5256 73.2504 64.4 73.25H159.5C160.826 73.25 162.098 73.7768 163.036 74.7145C163.973 75.6521 164.5 76.9239 164.5 78.25V120.25H32.5Z" fill="white" stroke="#171A1C" stroke-width="3" stroke-miterlimit="10"/>
<path d="M59.94 105.5H34C32.7242 105.5 31.69 106.534 31.69 107.81V109.44C31.69 110.716 32.7242 111.75 34 111.75H59.94C61.2158 111.75 62.25 110.716 62.25 109.44V107.81C62.25 106.534 61.2158 105.5 59.94 105.5Z" fill="#171A1C" stroke="#171A1C" stroke-miterlimit="10"/>
<path d="M59.04 110.71C60.1887 110.71 61.12 109.779 61.12 108.63C61.12 107.481 60.1887 106.55 59.04 106.55C57.8912 106.55 56.96 107.481 56.96 108.63C56.96 109.779 57.8912 110.71 59.04 110.71Z" fill="white" stroke="#171A1C" stroke-miterlimit="10"/>
<path d="M29 120.25H171" stroke="#171A1C" stroke-width="3" stroke-miterlimit="10" stroke-linecap="round"/>
<path d="M82 94.73L90.7 81.24C90.8956 80.9345 91.1647 80.6828 91.4826 80.5081C91.8005 80.3335 92.1572 80.2413 92.52 80.24H104.37C104.943 80.24 105.492 80.4676 105.897 80.8726C106.302 81.2777 106.53 81.8271 106.53 82.4V96.07C106.53 96.3553 106.473 96.6379 106.364 96.9012C106.254 97.1646 106.093 97.4036 105.89 97.6045C105.688 97.8053 105.447 97.964 105.183 98.0714C104.918 98.1787 104.635 98.2326 104.35 98.23L83.81 98.06C83.4224 98.059 83.0422 97.9537 82.7093 97.7551C82.3763 97.5566 82.103 97.2721 81.9179 96.9315C81.7328 96.591 81.6427 96.2069 81.6572 95.8195C81.6716 95.4322 81.79 95.0558 82 94.73Z" fill="#171A1C" stroke="#171A1C" stroke-miterlimit="10"/>
<path d="M57.7 79.27L82.61 79.74C82.9048 79.7431 83.1935 79.8247 83.4464 79.9764C83.6993 80.1281 83.9072 80.3444 84.0487 80.603C84.1903 80.8617 84.2604 81.1534 84.2518 81.4481C84.2432 81.7429 84.1563 82.03 84 82.28L75.45 95.93C75.0072 96.6395 74.3913 97.2247 73.66 97.6306C72.9288 98.0364 72.1063 98.2496 71.27 98.25H46" fill="#171A1C"/>
<path d="M57.7 79.27L82.61 79.74C82.9048 79.7431 83.1935 79.8247 83.4464 79.9764C83.6993 80.1281 83.9072 80.3444 84.0487 80.603C84.1903 80.8617 84.2604 81.1534 84.2518 81.4481C84.2432 81.7429 84.1563 82.03 84 82.28L75.45 95.93C75.0072 96.6395 74.3913 97.2247 73.66 97.6306C72.9288 98.0364 72.1063 98.2496 71.27 98.25H46" stroke="#171A1C" stroke-miterlimit="10"/>
<path d="M100 101.75H106" stroke="#171A1C" stroke-width="2" stroke-miterlimit="10" stroke-linecap="round"/>
<path d="M76.63 112.51C74.1044 112.503 71.6696 113.451 69.8146 115.165C67.9597 116.879 66.8219 119.232 66.63 121.75H76V123.75H86.59C86.59 123.75 86.59 123.04 86.59 122.83C86.6017 120.151 85.5673 117.574 83.707 115.646C81.8467 113.719 79.3075 112.593 76.63 112.51Z" fill="#171A1C"/>
<path d="M144.63 112.51C142.104 112.503 139.67 113.451 137.815 115.165C135.96 116.879 134.822 119.232 134.63 121.75H144V123.75H154.59C154.59 123.75 154.59 123.04 154.59 122.83C154.602 120.151 153.567 117.574 151.707 115.646C149.847 113.719 147.308 112.593 144.63 112.51Z" fill="#171A1C"/>
<path d="M147.25 132.75C152.773 132.75 157.25 128.273 157.25 122.75C157.25 117.227 152.773 112.75 147.25 112.75C141.727 112.75 137.25 117.227 137.25 122.75C137.25 128.273 141.727 132.75 147.25 132.75Z" fill="#333333" stroke="#171A1C" stroke-miterlimit="10"/>
<path d="M146.25 132.75C151.773 132.75 156.25 128.273 156.25 122.75C156.25 117.227 151.773 112.75 146.25 112.75C140.727 112.75 136.25 117.227 136.25 122.75C136.25 128.273 140.727 132.75 146.25 132.75Z" fill="#171A1C" stroke="#171A1C" stroke-miterlimit="10"/>
<path d="M149.75 128.5C152.235 128.5 154.25 125.926 154.25 122.75C154.25 119.574 152.235 117 149.75 117C147.265 117 145.25 119.574 145.25 122.75C145.25 125.926 147.265 128.5 149.75 128.5Z" fill="white" stroke="#171A1C" stroke-miterlimit="10"/>
<path d="M79.63 132.75C85.1529 132.75 89.63 128.273 89.63 122.75C89.63 117.227 85.1529 112.75 79.63 112.75C74.1072 112.75 69.63 117.227 69.63 122.75C69.63 128.273 74.1072 132.75 79.63 132.75Z" fill="#171A1C" stroke="#171A1C" stroke-miterlimit="10"/>
<path d="M78.63 132.75C84.1529 132.75 88.63 128.273 88.63 122.75C88.63 117.227 84.1529 112.75 78.63 112.75C73.1072 112.75 68.63 117.227 68.63 122.75C68.63 128.273 73.1072 132.75 78.63 132.75Z" fill="#171A1C" stroke="#171A1C" stroke-miterlimit="10"/>
<path d="M82.13 128.5C84.6153 128.5 86.63 125.926 86.63 122.75C86.63 119.574 84.6153 117 82.13 117C79.6447 117 77.63 119.574 77.63 122.75C77.63 125.926 79.6447 128.5 82.13 128.5Z" fill="white" stroke="#171A1C" stroke-miterlimit="10"/>
<path d="M34.13 106.54C33.9153 106.541 33.7023 106.578 33.5 106.65V110.6C33.7023 110.672 33.9153 110.709 34.13 110.71C34.658 110.673 35.1525 110.438 35.5136 110.051C35.8747 109.664 36.0755 109.154 36.0755 108.625C36.0755 108.096 35.8747 107.586 35.5136 107.199C35.1525 106.812 34.658 106.577 34.13 106.54Z" fill="white" stroke="#171A1C" stroke-miterlimit="10"/>
<path d="M152.88 80.21H117.86C116.049 80.21 114.58 81.6785 114.58 83.49V94.88C114.58 96.6915 116.049 98.16 117.86 98.16H152.88C154.691 98.16 156.16 96.6915 156.16 94.88V83.49C156.16 81.6785 154.691 80.21 152.88 80.21Z" stroke="#171A1C" stroke-miterlimit="10"/>
<path d="M74.75 120.84C74.75 120.84 74.91 117.06 78.19 115.84" stroke="white" stroke-miterlimit="10" stroke-linecap="round"/>
<path d="M142.75 120.84C142.75 120.84 142.91 117.06 146.19 115.84" stroke="white" stroke-miterlimit="10" stroke-linecap="round"/>
<path d="M119.16 132.75C124.18 132.75 128.25 128.273 128.25 122.75C128.25 117.227 124.18 112.75 119.16 112.75C114.14 112.75 110.07 117.227 110.07 122.75C110.07 128.273 114.14 132.75 119.16 132.75Z" fill="#171A1C" stroke="#171A1C" stroke-miterlimit="10"/>
<path d="M117.34 132.75C122.36 132.75 126.43 128.273 126.43 122.75C126.43 117.227 122.36 112.75 117.34 112.75C112.32 112.75 108.25 117.227 108.25 122.75C108.25 128.273 112.32 132.75 117.34 132.75Z" fill="#171A1C" stroke="#171A1C" stroke-miterlimit="10"/>
<path d="M99.5 120.25V106.38C99.5 103.959 100.462 101.636 102.174 99.9241C103.886 98.2119 106.209 97.25 108.63 97.25H113L127 75.64C127.476 74.9067 128.128 74.304 128.897 73.8867C129.665 73.4693 130.526 73.2504 131.4 73.25H226.5C227.826 73.25 229.098 73.7768 230.036 74.7145C230.973 75.6521 231.5 76.9239 231.5 78.25V120.25H99.5Z" fill="#FFA670"/>
<path d="M233 121.75H98V106.38C98.0026 103.562 99.1234 100.859 101.116 98.8664C103.109 96.8735 105.812 95.7527 108.63 95.75H112.18L125.69 74.83C126.299 73.8829 127.137 73.1044 128.126 72.5661C129.115 72.0279 130.224 71.7472 131.35 71.75H226.5C228.223 71.7527 229.875 72.4383 231.093 73.6568C232.312 74.8752 232.997 76.5269 233 78.25V121.75ZM101 118.75H230V78.25C230 77.3218 229.631 76.4315 228.975 75.7751C228.318 75.1188 227.428 74.75 226.5 74.75H131.35C130.725 74.7493 130.11 74.9055 129.562 75.2043C129.013 75.5031 128.548 75.9348 128.21 76.46L113.82 98.75H108.63C106.607 98.7527 104.668 99.5574 103.238 100.988C101.807 102.418 101.003 104.357 101 106.38V118.75Z" fill="#171A1C"/>
<path d="M126.94 105.5H101C99.7242 105.5 98.69 106.534 98.69 107.81V109.44C98.69 110.716 99.7242 111.75 101 111.75H126.94C128.216 111.75 129.25 110.716 129.25 109.44V107.81C129.25 106.534 128.216 105.5 126.94 105.5Z" fill="#171A1C" stroke="#171A1C" stroke-miterlimit="10"/>
<path d="M126.04 110.71C127.189 110.71 128.12 109.779 128.12 108.63C128.12 107.481 127.189 106.55 126.04 106.55C124.891 106.55 123.96 107.481 123.96 108.63C123.96 109.779 124.891 110.71 126.04 110.71Z" fill="white" stroke="#171A1C" stroke-miterlimit="10"/>
<path d="M96 120.25H238" stroke="#171A1C" stroke-width="3" stroke-miterlimit="10" stroke-linecap="round"/>
<path d="M149 94.73L157.7 81.24C157.896 80.9345 158.165 80.6828 158.483 80.5081C158.801 80.3335 159.157 80.2413 159.52 80.24H171.37C171.943 80.24 172.492 80.4676 172.897 80.8726C173.302 81.2777 173.53 81.8271 173.53 82.4V96.07C173.53 96.3553 173.473 96.6379 173.364 96.9012C173.254 97.1646 173.093 97.4036 172.89 97.6045C172.688 97.8053 172.447 97.964 172.183 98.0714C171.918 98.1787 171.635 98.2326 171.35 98.23L150.81 98.06C150.422 98.059 150.042 97.9537 149.709 97.7551C149.376 97.5566 149.103 97.2721 148.918 96.9315C148.733 96.591 148.643 96.2069 148.657 95.8195C148.672 95.4322 148.79 95.0558 149 94.73Z" fill="#171A1C" stroke="#171A1C" stroke-miterlimit="10"/>
<path d="M124.7 79.27L149.61 79.74C149.905 79.7431 150.194 79.8247 150.446 79.9764C150.699 80.1281 150.907 80.3444 151.049 80.603C151.19 80.8617 151.26 81.1534 151.252 81.4481C151.243 81.7429 151.156 82.03 151 82.28L142.46 95.93C142.017 96.6395 141.401 97.2247 140.67 97.6306C139.939 98.0364 139.116 98.2496 138.28 98.25H113" fill="#171A1C"/>
<path d="M124.7 79.27L149.61 79.74C149.905 79.7431 150.194 79.8247 150.446 79.9764C150.699 80.1281 150.907 80.3444 151.049 80.603C151.19 80.8617 151.26 81.1534 151.252 81.4481C151.243 81.7429 151.156 82.03 151 82.28L142.46 95.93C142.017 96.6395 141.401 97.2247 140.67 97.6306C139.939 98.0364 139.116 98.2496 138.28 98.25H113" stroke="#171A1C" stroke-miterlimit="10"/>
<path d="M167 101.75H173" stroke="#171A1C" stroke-width="2" stroke-miterlimit="10" stroke-linecap="round"/>
<path d="M143.63 112.51C141.104 112.503 138.67 113.451 136.815 115.165C134.96 116.879 133.822 119.232 133.63 121.75H143V123.75H153.59C153.59 123.75 153.59 123.04 153.59 122.83C153.602 120.151 152.567 117.574 150.707 115.646C148.847 113.719 146.308 112.593 143.63 112.51Z" fill="#171A1C"/>
<path d="M146.63 132.75C152.153 132.75 156.63 128.273 156.63 122.75C156.63 117.227 152.153 112.75 146.63 112.75C141.107 112.75 136.63 117.227 136.63 122.75C136.63 128.273 141.107 132.75 146.63 132.75Z" fill="#171A1C" stroke="#171A1C" stroke-miterlimit="10"/>
<path d="M145.63 132.75C151.153 132.75 155.63 128.273 155.63 122.75C155.63 117.227 151.153 112.75 145.63 112.75C140.107 112.75 135.63 117.227 135.63 122.75C135.63 128.273 140.107 132.75 145.63 132.75Z" fill="#171A1C" stroke="#171A1C" stroke-miterlimit="10"/>
<path d="M149.13 128.5C151.615 128.5 153.63 125.926 153.63 122.75C153.63 119.574 151.615 117 149.13 117C146.645 117 144.63 119.574 144.63 122.75C144.63 125.926 146.645 128.5 149.13 128.5Z" fill="white" stroke="#171A1C" stroke-miterlimit="10"/>
<path d="M101.13 106.54C100.915 106.541 100.702 106.578 100.5 106.65V110.6C100.702 110.672 100.915 110.709 101.13 110.71C101.658 110.673 102.153 110.438 102.514 110.051C102.875 109.664 103.076 109.154 103.076 108.625C103.076 108.096 102.875 107.586 102.514 107.199C102.153 106.812 101.658 106.577 101.13 106.54Z" fill="white" stroke="#171A1C" stroke-miterlimit="10"/>
<path d="M219.88 80.21H184.86C183.049 80.21 181.58 81.6785 181.58 83.49V94.88C181.58 96.6915 183.049 98.16 184.86 98.16H219.88C221.692 98.16 223.16 96.6915 223.16 94.88V83.49C223.16 81.6785 221.692 80.21 219.88 80.21Z" stroke="#171A1C" stroke-miterlimit="10"/>
<path d="M141.75 120.84C141.75 120.84 141.91 117.06 145.19 115.84" stroke="white" stroke-miterlimit="10" stroke-linecap="round"/>
<path d="M209.75 120.84C209.75 120.84 209.91 117.06 213.19 115.84" stroke="white" stroke-miterlimit="10" stroke-linecap="round"/>
<path d="M195.16 132.75C200.18 132.75 204.25 128.273 204.25 122.75C204.25 117.227 200.18 112.75 195.16 112.75C190.14 112.75 186.07 117.227 186.07 122.75C186.07 128.273 190.14 132.75 195.16 132.75Z" fill="#171A1C" stroke="#171A1C" stroke-miterlimit="10"/>
<path d="M193.34 132.75C198.36 132.75 202.43 128.273 202.43 122.75C202.43 117.227 198.36 112.75 193.34 112.75C188.32 112.75 184.25 117.227 184.25 122.75C184.25 128.273 188.32 132.75 193.34 132.75Z" fill="#171A1C" stroke="#171A1C" stroke-miterlimit="10"/>
<path d="M262.71 132.75C268.012 132.75 272.31 128.273 272.31 122.75C272.31 117.227 268.012 112.75 262.71 112.75C257.408 112.75 253.11 117.227 253.11 122.75C253.11 128.273 257.408 132.75 262.71 132.75Z" fill="#171A1C" stroke="#171A1C" stroke-miterlimit="10"/>
<path d="M260.79 132.75C266.092 132.75 270.39 128.273 270.39 122.75C270.39 117.227 266.092 112.75 260.79 112.75C255.488 112.75 251.19 117.227 251.19 122.75C251.19 128.273 255.488 132.75 260.79 132.75Z" fill="#171A1C" stroke="#171A1C" stroke-miterlimit="10"/>
<path d="M175.5 120.25V106.38C175.5 103.959 176.462 101.636 178.174 99.9241C179.886 98.2119 182.209 97.25 184.63 97.25H189L203 75.64C203.476 74.9067 204.128 74.304 204.897 73.8867C205.665 73.4693 206.526 73.2504 207.4 73.25H302.5C303.826 73.25 305.098 73.7768 306.036 74.7145C306.973 75.6521 307.5 76.9239 307.5 78.25V120.25H175.5Z" fill="#FF8338"/>
<path d="M309 121.75H174V106.38C174.003 103.562 175.123 100.859 177.116 98.8664C179.109 96.8735 181.812 95.7527 184.63 95.75H188.18L201.69 74.83C202.299 73.8829 203.137 73.1044 204.126 72.5661C205.115 72.0279 206.224 71.7472 207.35 71.75H302.5C304.223 71.7527 305.875 72.4383 307.093 73.6568C308.312 74.8752 308.997 76.5269 309 78.25V121.75ZM177 118.75H306V78.25C306 77.3218 305.631 76.4315 304.975 75.7751C304.319 75.1188 303.428 74.75 302.5 74.75H207.35C206.725 74.7493 206.11 74.9055 205.562 75.2043C205.013 75.5031 204.548 75.9348 204.21 76.46L189.82 98.75H184.63C182.607 98.7527 180.668 99.5574 179.238 100.988C177.807 102.418 177.003 104.357 177 106.38V118.75Z" fill="#171A1C"/>
<path d="M202.94 105.5H177C175.724 105.5 174.69 106.534 174.69 107.81V109.44C174.69 110.716 175.724 111.75 177 111.75H202.94C204.216 111.75 205.25 110.716 205.25 109.44V107.81C205.25 106.534 204.216 105.5 202.94 105.5Z" fill="#171A1C" stroke="#171A1C" stroke-miterlimit="10"/>
<path d="M202.04 110.71C203.189 110.71 204.12 109.779 204.12 108.63C204.12 107.481 203.189 106.55 202.04 106.55C200.891 106.55 199.96 107.481 199.96 108.63C199.96 109.779 200.891 110.71 202.04 110.71Z" fill="white" stroke="#171A1C" stroke-miterlimit="10"/>
<path d="M172 120.25H314" stroke="#171A1C" stroke-width="3" stroke-miterlimit="10" stroke-linecap="round"/>
<path d="M225 94.73L233.7 81.24C233.896 80.9345 234.165 80.6828 234.483 80.5081C234.801 80.3335 235.157 80.2413 235.52 80.24H247.37C247.943 80.24 248.492 80.4676 248.897 80.8726C249.302 81.2777 249.53 81.8271 249.53 82.4V96.07C249.53 96.3553 249.474 96.6379 249.364 96.9012C249.254 97.1646 249.093 97.4036 248.89 97.6045C248.688 97.8053 248.447 97.964 248.183 98.0714C247.918 98.1787 247.635 98.2326 247.35 98.23L226.81 98.06C226.422 98.059 226.042 97.9537 225.709 97.7551C225.376 97.5566 225.103 97.2721 224.918 96.9315C224.733 96.591 224.643 96.2069 224.657 95.8195C224.672 95.4322 224.79 95.0558 225 94.73Z" fill="#171A1C" stroke="#171A1C" stroke-miterlimit="10"/>
<path d="M200.7 79.27L225.61 79.74C225.905 79.7431 226.194 79.8247 226.446 79.9764C226.699 80.1281 226.907 80.3444 227.049 80.603C227.19 80.8617 227.26 81.1534 227.252 81.4481C227.243 81.7429 227.156 82.03 227 82.28L218.46 95.93C218.017 96.6395 217.401 97.2247 216.67 97.6306C215.939 98.0364 215.116 98.2496 214.28 98.25H189" fill="#171A1C"/>
<path d="M200.7 79.27L225.61 79.74C225.905 79.7431 226.194 79.8247 226.446 79.9764C226.699 80.1281 226.907 80.3444 227.049 80.603C227.19 80.8617 227.26 81.1534 227.252 81.4481C227.243 81.7429 227.156 82.03 227 82.28L218.46 95.93C218.017 96.6395 217.401 97.2247 216.67 97.6306C215.939 98.0364 215.116 98.2496 214.28 98.25H189" stroke="#171A1C" stroke-miterlimit="10"/>
<path d="M243 101.75H249" stroke="#171A1C" stroke-width="2" stroke-miterlimit="10" stroke-linecap="round"/>
<path d="M219.63 112.51C217.104 112.503 214.67 113.451 212.815 115.165C210.96 116.879 209.822 119.232 209.63 121.75H219V123.75H229.59C229.59 123.75 229.59 123.04 229.59 122.83C229.602 120.151 228.567 117.574 226.707 115.646C224.847 113.719 222.308 112.593 219.63 112.51Z" fill="#171A1C"/>
<path d="M287.63 112.51C285.104 112.503 282.67 113.451 280.815 115.165C278.96 116.879 277.822 119.232 277.63 121.75H287V123.75H297.59C297.59 123.75 297.59 123.04 297.59 122.83C297.602 120.151 296.567 117.574 294.707 115.646C292.847 113.719 290.308 112.593 287.63 112.51Z" fill="#171A1C"/>
<path d="M290.25 132.75C295.773 132.75 300.25 128.273 300.25 122.75C300.25 117.227 295.773 112.75 290.25 112.75C284.727 112.75 280.25 117.227 280.25 122.75C280.25 128.273 284.727 132.75 290.25 132.75Z" fill="#333333" stroke="#171A1C" stroke-miterlimit="10"/>
<path d="M289.25 132.75C294.773 132.75 299.25 128.273 299.25 122.75C299.25 117.227 294.773 112.75 289.25 112.75C283.727 112.75 279.25 117.227 279.25 122.75C279.25 128.273 283.727 132.75 289.25 132.75Z" fill="#171A1C" stroke="#171A1C" stroke-miterlimit="10"/>
<path d="M292.75 128.5C295.235 128.5 297.25 125.926 297.25 122.75C297.25 119.574 295.235 117 292.75 117C290.265 117 288.25 119.574 288.25 122.75C288.25 125.926 290.265 128.5 292.75 128.5Z" fill="white" stroke="#171A1C" stroke-miterlimit="10"/>
<path d="M222.63 132.75C228.153 132.75 232.63 128.273 232.63 122.75C232.63 117.227 228.153 112.75 222.63 112.75C217.107 112.75 212.63 117.227 212.63 122.75C212.63 128.273 217.107 132.75 222.63 132.75Z" fill="#171A1C" stroke="#171A1C" stroke-miterlimit="10"/>
<path d="M221.63 132.75C227.153 132.75 231.63 128.273 231.63 122.75C231.63 117.227 227.153 112.75 221.63 112.75C216.107 112.75 211.63 117.227 211.63 122.75C211.63 128.273 216.107 132.75 221.63 132.75Z" fill="#171A1C" stroke="#171A1C" stroke-miterlimit="10"/>
<path d="M225.13 128.5C227.615 128.5 229.63 125.926 229.63 122.75C229.63 119.574 227.615 117 225.13 117C222.645 117 220.63 119.574 220.63 122.75C220.63 125.926 222.645 128.5 225.13 128.5Z" fill="white" stroke="#171A1C" stroke-miterlimit="10"/>
<path d="M177.13 106.54C176.915 106.541 176.702 106.578 176.5 106.65V110.6C176.702 110.672 176.915 110.709 177.13 110.71C177.658 110.673 178.152 110.438 178.514 110.051C178.875 109.664 179.076 109.154 179.076 108.625C179.076 108.096 178.875 107.586 178.514 107.199C178.152 106.812 177.658 106.577 177.13 106.54Z" fill="white" stroke="#171A1C" stroke-miterlimit="10"/>
<path d="M295.88 80.21H260.86C259.048 80.21 257.58 81.6785 257.58 83.49V94.88C257.58 96.6915 259.048 98.16 260.86 98.16H295.88C297.691 98.16 299.16 96.6915 299.16 94.88V83.49C299.16 81.6785 297.691 80.21 295.88 80.21Z" stroke="#171A1C" stroke-miterlimit="10"/>
<path d="M217.75 120.84C217.75 120.84 217.91 117.06 221.19 115.84" stroke="white" stroke-miterlimit="10" stroke-linecap="round"/>
<path d="M285.75 120.84C285.75 120.84 285.91 117.06 289.19 115.84" stroke="white" stroke-miterlimit="10" stroke-linecap="round"/>
<path d="M308.1 0H215.35C208.723 0 203.35 5.37258 203.35 12V35.25C203.35 41.8774 208.723 47.25 215.35 47.25H308.1C314.727 47.25 320.1 41.8774 320.1 35.25V12C320.1 5.37258 314.727 0 308.1 0Z" fill="#FF8338"/>
<path d="M224.41 32.24V16.24L220.93 17.24L220.22 14.48L225.4 12.83H227.77V32.24H224.41Z" fill="white"/>
<path d="M238.66 32.57C236.39 32.5686 234.198 31.7443 232.49 30.25L234.34 27.66C235.542 28.7793 237.108 29.4258 238.75 29.48C239.4 29.4979 240.044 29.3548 240.625 29.0634C241.206 28.772 241.706 28.3414 242.08 27.81C242.966 26.5155 243.431 24.9787 243.41 23.41C242.858 24.0672 242.162 24.5891 241.377 24.9358C240.592 25.2825 239.738 25.4447 238.88 25.41C237.06 25.5067 235.272 24.9058 233.88 23.73C233.258 23.1645 232.768 22.4692 232.445 21.6932C232.122 20.9173 231.973 20.0797 232.01 19.24C231.987 18.3486 232.153 17.4625 232.498 16.6403C232.843 15.818 233.358 15.0783 234.01 14.47C235.484 13.2135 237.363 12.5341 239.299 12.558C241.236 12.582 243.098 13.3075 244.54 14.6C246.1 16.17 246.89 18.6 246.89 22.02C247.021 24.7334 246.239 27.4125 244.67 29.63C243.979 30.5679 243.072 31.3251 242.026 31.837C240.979 32.3489 239.825 32.6003 238.66 32.57ZM236.51 21.65C237.307 22.3325 238.332 22.6895 239.38 22.65C239.898 22.68 240.416 22.6071 240.905 22.4355C241.394 22.2638 241.845 21.9968 242.23 21.65C242.574 21.3247 242.849 20.9325 243.036 20.4975C243.224 20.0625 243.321 19.5937 243.321 19.12C243.321 18.6462 243.224 18.1775 243.036 17.7425C242.849 17.3074 242.574 16.9153 242.23 16.59C241.421 15.8945 240.376 15.5365 239.31 15.59C238.8 15.5587 238.289 15.6312 237.808 15.8031C237.326 15.975 236.885 16.2427 236.51 16.59C236.174 16.934 235.913 17.343 235.741 17.7918C235.569 18.2406 235.49 18.7198 235.51 19.2C235.492 19.6561 235.571 20.1109 235.744 20.5336C235.916 20.9562 236.178 21.3369 236.51 21.65Z" fill="white"/>
<path d="M256.75 32.57C254.48 32.5686 252.288 31.7443 250.58 30.25L252.42 27.66C253.624 28.7762 255.189 29.4222 256.83 29.48C257.481 29.4943 258.125 29.3497 258.707 29.0587C259.289 28.7676 259.791 28.339 260.17 27.81C261.056 26.5155 261.521 24.9787 261.5 23.41C260.948 24.0672 260.252 24.5891 259.467 24.9358C258.682 25.2825 257.828 25.4447 256.97 25.41C255.15 25.5077 253.362 24.9067 251.97 23.73C251.347 23.165 250.855 22.47 250.53 21.6941C250.206 20.9182 250.055 20.0804 250.09 19.24C250.067 18.3487 250.234 17.4628 250.579 16.6406C250.924 15.8184 251.439 15.0786 252.09 14.47C253.564 13.2135 255.443 12.5341 257.379 12.558C259.316 12.582 261.178 13.3075 262.62 14.6C264.18 16.17 264.97 18.6 264.97 22.02C265.101 24.7334 264.319 27.4125 262.75 29.63C262.06 30.5665 261.155 31.3228 260.11 31.8347C259.065 32.3465 257.913 32.5987 256.75 32.57ZM254.6 21.65C255.396 22.3342 256.421 22.6915 257.47 22.65C257.988 22.6795 258.506 22.6063 258.995 22.4347C259.484 22.2631 259.934 21.9964 260.32 21.65C260.662 21.3232 260.934 20.9305 261.12 20.4957C261.306 20.0609 261.402 19.5929 261.402 19.12C261.402 18.6471 261.306 18.1791 261.12 17.7442C260.934 17.3094 260.662 16.9167 260.32 16.59C259.511 15.8945 258.466 15.5365 257.4 15.59C256.89 15.5587 256.379 15.6312 255.898 15.8031C255.416 15.975 254.975 16.2427 254.6 16.59C254.264 16.934 254.003 17.343 253.831 17.7918C253.659 18.2406 253.58 18.7198 253.6 19.2C253.58 19.6564 253.659 20.1117 253.831 20.5347C254.004 20.9577 254.266 21.3382 254.6 21.65Z" fill="white"/>
<path d="M276.55 32.57C275.385 32.6021 274.229 32.3599 273.174 31.8632C272.12 31.3664 271.197 30.6289 270.48 29.71C268.897 27.6821 268.079 25.1611 268.17 22.59C268.085 20.0176 268.922 17.4994 270.53 15.49C271.264 14.5907 272.19 13.8659 273.238 13.3682C274.287 12.8705 275.434 12.6122 276.595 12.6122C277.756 12.6122 278.903 12.8705 279.952 13.3682C281.001 13.8659 281.926 14.5907 282.66 15.49C284.245 17.5109 285.073 20.0227 285 22.59C285.079 25.1615 284.243 27.6776 282.64 29.69C281.92 30.6117 280.994 31.3522 279.937 31.8522C278.879 32.3523 277.719 32.5981 276.55 32.57ZM273 27.51C273.372 28.1228 273.897 28.6289 274.522 28.9793C275.148 29.3297 275.853 29.5125 276.57 29.51C277.283 29.5132 277.985 29.3305 278.605 28.9797C279.226 28.629 279.745 28.1224 280.11 27.51C281.046 26.0331 281.513 24.3074 281.45 22.56C281.508 20.8138 281.026 19.0922 280.07 17.63C279.698 17.0194 279.175 16.5147 278.552 16.1644C277.928 15.8142 277.225 15.6302 276.51 15.63C275.797 15.6248 275.094 15.8067 274.473 16.1576C273.852 16.5086 273.334 17.0162 272.97 17.63C272.032 19.1059 271.564 20.8323 271.63 22.58C271.57 24.325 272.048 26.0461 273 27.51Z" fill="white"/>
<path d="M287.31 36.24L287 34.83C288.58 34.52 289.37 33.75 289.37 32.54C289.374 32.4901 289.374 32.44 289.37 32.39C289.37 32.32 289.37 32.27 289.37 32.24H287.96V28.46H291.63V31.66C291.71 32.879 291.303 34.0799 290.5 35C289.628 35.7962 288.491 36.2384 287.31 36.24Z" fill="white"/>
<path d="M295.52 25.37V22.2H307V25.37H295.52Z" fill="white"/>
<path d="M243.9 41.75L261.4 59.25L279.56 41.08C279.56 41.08 243.65 41.5 243.9 41.75Z" fill="#FF8338"/>
<path d="M1 67.75H4" stroke="#E6E6E6" stroke-width="2" stroke-miterlimit="10" stroke-linecap="round"/>
<path d="M8 67.75H16.17C16.2369 67.7492 16.3021 67.7294 16.358 67.6927C16.414 67.6561 16.4582 67.6042 16.4856 67.5432C16.5129 67.4821 16.5222 67.4146 16.5124 67.3484C16.5025 67.2823 16.4739 67.2204 16.43 67.17C14.98 65.62 11.54 61.33 14.88 58.5C18.22 55.67 21.19 59.08 22.13 60.4C22.1586 60.4393 22.1976 60.4699 22.2427 60.4881C22.2877 60.5064 22.337 60.5117 22.3849 60.5034C22.4328 60.495 22.4775 60.4734 22.5137 60.441C22.55 60.4086 22.5764 60.3667 22.59 60.32C23.26 57.97 26.22 49.07 31.5 51.84C36.78 54.61 31 64.58 29.33 67.14C29.2926 67.2005 29.2721 67.27 29.2705 67.3411C29.269 67.4123 29.2864 67.4826 29.321 67.5447C29.3557 67.6069 29.4063 67.6587 29.4676 67.6947C29.529 67.7308 29.5988 67.7499 29.67 67.75H39" fill="white"/>
<path d="M8 67.75H16.17C16.2369 67.7492 16.3021 67.7294 16.358 67.6927C16.414 67.6561 16.4582 67.6042 16.4856 67.5432C16.5129 67.4821 16.5222 67.4146 16.5124 67.3484C16.5025 67.2823 16.4739 67.2204 16.43 67.17C14.98 65.62 11.54 61.33 14.88 58.5C18.22 55.67 21.19 59.08 22.13 60.4C22.1586 60.4393 22.1976 60.4699 22.2427 60.4881C22.2877 60.5064 22.337 60.5117 22.3849 60.5034C22.4328 60.495 22.4775 60.4734 22.5137 60.441C22.55 60.4086 22.5764 60.3667 22.59 60.32C23.26 57.97 26.22 49.07 31.5 51.84C36.78 54.61 31 64.58 29.33 67.14C29.2926 67.2005 29.2721 67.27 29.2705 67.3411C29.269 67.4123 29.2864 67.4826 29.321 67.5447C29.3557 67.6069 29.4063 67.6587 29.4676 67.6947C29.529 67.7308 29.5988 67.7499 29.67 67.75H39" stroke="#E6E6E6" stroke-width="2" stroke-miterlimit="10" stroke-linecap="round"/>
<path d="M341.17 69.29C339.737 67.8294 338.715 66.0156 338.21 64.0328C337.704 62.05 337.732 59.9686 338.29 58C340.29 51.29 344.96 49.75 347.5 50.5C350.04 51.25 351.25 59.33 350.5 61.92C352.17 57.58 356.84 54.83 357.67 60.33C358.5 65.83 354.17 69.33 354.17 69.33" fill="white"/>
<path d="M341.17 69.29C339.737 67.8294 338.715 66.0156 338.21 64.0328C337.704 62.05 337.732 59.9686 338.29 58C340.29 51.29 344.96 49.75 347.5 50.5C350.04 51.25 351.25 59.33 350.5 61.92C352.17 57.58 356.84 54.83 357.67 60.33C358.5 65.83 354.17 69.33 354.17 69.33" stroke="#E6E6E6" stroke-width="2" stroke-miterlimit="10" stroke-linecap="round"/>
<path d="M330 69.75H327" stroke="#E6E6E6" stroke-width="2" stroke-miterlimit="10" stroke-linecap="round"/>
<path d="M333 69.75H362" stroke="#E6E6E6" stroke-width="2" stroke-miterlimit="10" stroke-linecap="round"/>
<path d="M25 133.25H320" stroke="#171A1C" stroke-width="3" stroke-miterlimit="10" stroke-linecap="round"/>
</svg>
