<svg width="79" height="21" viewBox="0 0 79 21" fill="none" xmlns="http://www.w3.org/2000/svg">
<path d="M19.5281 20.9422C18.1607 20.7402 16.9571 20.1458 16.0417 19.2225C15.2789 18.4492 14.7816 17.6009 14.42 16.4352C13.8493 14.6174 13.8493 12.2802 14.42 10.5028C14.9737 8.77731 16.2112 7.2769 17.7369 6.49784C19.8446 5.41869 22.8055 5.48794 24.7549 6.65942C26.5123 7.71548 27.5746 9.59099 27.8684 12.1475C27.9588 12.9323 27.9023 14.5827 27.7554 15.2637C27.1734 18.0568 25.4782 20.0015 22.9919 20.7402C22.7264 20.821 22.3082 20.9133 22.0709 20.948C21.568 21.0172 20.0197 21.0172 19.5281 20.9422ZM21.5793 19.8226C21.9805 19.7015 22.4721 19.2283 22.7377 18.7146C23.2801 17.6528 23.5231 16.0832 23.5287 13.5902C23.5344 10.4682 23.0541 8.47722 22.0426 7.43848C21.6188 6.9999 21.3137 6.86717 20.7713 6.86717C19.5677 6.86717 18.7992 8.15406 18.4997 10.6874C18.3584 11.8532 18.3584 14.6231 18.4997 15.6388C18.9292 18.7897 20.031 20.2901 21.5793 19.8226ZM43.7975 20.9422C43.2381 20.8845 41.5259 20.5902 40.927 20.4517L40.5145 20.3536L40.5484 18.0972C40.6275 12.6611 40.6331 9.69487 40.5879 6.80946C40.5371 3.98176 40.5258 3.68168 40.4184 3.26618C40.2828 2.73527 40.0907 2.36593 39.8534 2.19858C39.763 2.1351 39.5143 2.037 39.3053 1.99083C38.5989 1.82925 38.6385 1.8581 38.6215 1.52917C38.6102 1.33873 38.6328 1.21754 38.678 1.17715C38.7289 1.11944 44.4982 -0.00587077 44.6846 -9.99515e-05C44.7355 -9.99515e-05 44.7468 0.755876 44.7185 3.34697C44.7016 5.18786 44.6959 6.69404 44.7129 6.69404C44.7298 6.69404 44.9389 6.60171 45.1819 6.48629C45.9108 6.14005 46.5832 5.99578 47.5551 5.96115C48.205 5.93807 48.5044 5.95538 48.8378 6.02463C51.0133 6.48629 52.6237 8.3041 53.1888 10.9414C53.3357 11.6281 53.3922 13.3362 53.2905 14.1903C53.2058 14.9175 52.9684 15.9043 52.7254 16.5391C51.7931 18.9455 49.7984 20.5151 47.1483 20.9249C46.538 21.0172 44.6168 21.0287 43.7975 20.9422ZM46.0634 19.7938C46.4759 19.713 46.7923 19.5456 47.137 19.234C47.9959 18.4434 48.6401 16.8218 48.8943 14.802C48.996 13.9826 48.9847 12.1128 48.8717 11.4261C48.561 9.57368 47.8942 8.35604 46.9223 7.86552C46.5211 7.66354 46.4589 7.64623 45.9786 7.64623C45.6396 7.64623 45.3401 7.68085 45.0915 7.76164L44.7185 7.87706L44.6903 9.98341C44.6564 12.6841 44.7411 19.4475 44.8146 19.6437C44.8598 19.7649 44.9107 19.7938 45.1423 19.8111C45.6735 19.8515 45.7639 19.8515 46.0634 19.7938ZM60.043 20.9133C57.2403 20.3997 55.2343 18.3684 54.5789 15.3791C54.4941 14.9925 54.4545 14.5654 54.4376 13.7344C54.4037 12.4187 54.511 11.605 54.8388 10.5893C55.4773 8.63881 56.6187 7.25958 58.28 6.43436C60.0317 5.56296 62.4332 5.50526 63.9815 6.29586C65.7275 7.19033 66.7559 8.97351 67.0158 11.5704C67.0498 11.9224 67.0723 12.3379 67.0611 12.4937L67.0441 12.7823L62.8626 12.7996L58.6812 12.8169L58.6982 13.3189C58.7377 14.4904 58.9807 15.5234 59.4384 16.4179C59.6474 16.8276 59.8113 17.0469 60.2125 17.4624C61.1166 18.3915 62.0151 18.755 63.4334 18.755C64.4618 18.755 65.202 18.5473 65.9761 18.0337C66.1909 17.8894 66.4112 17.774 66.4621 17.774C66.5807 17.774 66.852 18.1318 66.852 18.2876C66.852 18.5415 66.0439 19.361 65.2529 19.9092C64.603 20.3536 63.5803 20.7633 62.6875 20.9191C62.0603 21.0287 60.6589 21.0287 60.043 20.9133ZM61.8173 11.5069L62.8005 11.4723L62.7666 10.7567C62.6423 8.24062 62.0377 6.86717 61.0601 6.86717C59.9978 6.86717 59.1502 8.2637 58.7942 10.5893C58.749 10.8721 58.7151 11.2126 58.7151 11.3395V11.5704L59.7774 11.5531C60.3538 11.5473 61.2748 11.5242 61.8173 11.5069ZM71.3442 20.971C70.3384 20.8614 68.7336 20.5036 68.2025 20.267L67.9425 20.1516L67.9086 18.8358C67.8917 18.1087 67.8691 17.1392 67.8578 16.6833L67.8408 15.8466L67.9991 15.7715C68.0838 15.7311 68.259 15.6907 68.3833 15.685L68.615 15.6734L68.8127 16.1639C69.5756 18.0799 70.4684 19.1071 71.6324 19.4245C72.0788 19.5456 72.9094 19.5456 73.2428 19.4245C74.1639 19.0898 74.6724 18.3799 74.6781 17.4047C74.6837 16.2505 74.0621 15.6965 71.7171 14.7616C70.2649 14.1788 69.7564 13.8845 69.1518 13.2497C68.502 12.5687 68.1855 11.7954 68.129 10.7163C68.0556 9.4121 68.4567 8.30987 69.3439 7.375C70.2367 6.43436 71.3951 5.92075 72.9716 5.77648C74.3616 5.64953 76.4919 5.94961 77.6051 6.42859L77.8085 6.51515L77.8424 7.69239C77.865 8.33873 77.882 9.20435 77.8876 9.61985L77.8989 10.3701L77.6277 10.4739C77.1926 10.6355 77.1643 10.6182 76.927 9.96609C76.2546 8.14252 75.4692 7.2769 74.2486 7.01144C73.5027 6.84986 72.8812 7.02298 72.4291 7.51927C72.0788 7.90591 71.9375 8.24639 71.9036 8.8177C71.8697 9.44095 71.9771 9.77566 72.35 10.1912C72.8077 10.7048 73.5592 11.1433 75.0567 11.7839C76.8875 12.5687 77.7633 13.2324 78.238 14.2019C78.5487 14.8309 78.6335 15.333 78.6052 16.3024C78.5826 17.0296 78.56 17.1796 78.3962 17.6644C77.8707 19.2571 76.6784 20.3016 74.8363 20.7979C74.2147 20.9653 74.1243 20.971 72.8812 20.9883C72.1523 20.9883 71.4685 20.9826 71.3442 20.971ZM0.0730674 20.6248C0.0278625 20.6075 -0.00039052 20.4632 -0.00039052 20.1977C-0.00039052 19.7188 -0.0286436 19.7419 0.875454 19.5687C1.57048 19.436 1.81911 19.3033 2.12424 18.8935C2.71755 18.0972 2.84752 16.5621 2.84752 10.2489C2.84752 4.32224 2.7345 3.06997 2.12424 2.15818C1.85301 1.75423 1.38966 1.52917 0.621177 1.43683L0.0335131 1.35604L0.0165613 0.882834L-0.00039052 0.409628L0.18608 0.375003C0.287791 0.35769 3.88158 0.346149 8.17039 0.35769L15.9682 0.375003L16.0021 0.605835C16.0247 0.732793 16.053 2.037 16.0756 3.49701L16.1152 6.15736L15.7083 6.29009C15.1037 6.48052 15.1093 6.48052 14.8325 5.74186C14.1657 3.93559 13.3972 2.89685 12.3462 2.36593C11.6229 2.00237 11.2895 1.96198 9.24401 1.96198H7.46407L7.43581 2.26783C7.37931 2.83337 7.2889 6.49206 7.2889 8.21177V9.93147L7.8144 9.9257C8.10258 9.9257 8.66765 9.90262 9.07449 9.87953C9.68476 9.84491 9.86557 9.81028 10.1199 9.6891C10.7471 9.39478 11.1709 8.74268 11.4308 7.68085L11.5664 7.13263L12.0298 7.11531L12.4931 7.098V10.5605V14.0287L12.0298 14.0114L11.5664 13.9941L11.4364 13.4459C11.1878 12.4187 10.7188 11.68 10.1312 11.4146C9.85992 11.2934 9.19315 11.2241 7.89916 11.1837L7.2889 11.1664V12.4649C7.2889 13.8845 7.36801 15.8062 7.46407 16.8449C7.59968 18.2991 7.96132 19.1013 8.61679 19.3898C8.7411 19.4475 9.13665 19.5341 9.49263 19.5918C9.84862 19.6437 10.1877 19.713 10.2442 19.7419C10.3798 19.8169 10.3911 20.5671 10.2555 20.619C10.1481 20.6652 0.174778 20.6652 0.0730674 20.6248ZM27.9306 20.6132C27.8797 20.5786 27.8628 20.4459 27.8741 20.1689L27.891 19.7707L28.0888 19.7303C28.1962 19.7072 28.4335 19.6611 28.6086 19.6264C29.1568 19.5226 29.4675 19.2167 29.6484 18.6223C29.7953 18.1376 29.8574 16.591 29.8574 13.4805C29.8631 9.67755 29.784 8.78308 29.4054 8.26948C29.202 7.99248 29.055 7.91746 28.5578 7.81935C28.3148 7.77319 28.0549 7.72125 27.9871 7.70394C27.8741 7.68085 27.8571 7.64046 27.8571 7.35769C27.8571 7.08069 27.8741 7.03452 27.9871 6.98835C28.1566 6.91911 33.7564 5.77648 33.9315 5.77648H34.0728L34.0445 6.63056C34.0276 7.098 34.005 7.77896 33.9937 8.14252L33.9654 8.80616L34.1688 8.43106C34.8187 7.2365 35.5476 6.49206 36.5139 6.04194C37.045 5.7938 37.401 5.71878 38.0565 5.71878C38.8363 5.71878 39.616 5.97846 39.616 6.23815C39.616 6.41127 38.2429 10.1161 38.1695 10.145C38.1299 10.1623 37.8643 10.0527 37.5762 9.91416C36.9715 9.61985 36.4008 9.4698 35.8527 9.47558C35.1634 9.47558 34.4005 9.73526 34.0954 10.07C33.9654 10.2142 33.9654 10.22 33.9315 12.3379C33.8976 14.4385 33.9654 17.0007 34.0841 18.0279C34.1801 18.9051 34.4118 19.3379 34.8808 19.5399C35.039 19.6091 36.0336 19.7476 36.3556 19.7476C36.3782 19.7476 36.3952 19.9496 36.3839 20.1977L36.3669 20.6479L32.1855 20.6594C29.8857 20.6536 27.9701 20.6363 27.9306 20.6132Z" fill="#94A3B8"/>
</svg>
