<svg width="59" height="20" viewBox="0 0 59 20" fill="none" xmlns="http://www.w3.org/2000/svg">
<g clip-path="url(#clip0_2112_2511)">
<path d="M0 4.60526H2.56877V15.3684H0V19.6316H13.7443V15.3684H11.149V4.60526H13.7443V0H0V4.60526Z" fill="#94A3B8"/>
<path d="M34.9037 15.3684V9.71054C34.9037 6.10528 32.2555 4.78949 28.9717 4.78949C26.6413 4.78949 24.867 5.42107 23.331 7.18422C23.2251 7.3158 23.0927 7.4737 22.9338 7.60528V4.63159H14.4595V8.92107H16.3927V15.3684H14.4595V19.6579H25.2113V15.3684H23.1721V11.6579C23.1721 10.079 24.3638 8.92107 25.9528 8.92107C27.1974 8.92107 28.1773 9.52633 28.1773 10.8684V15.3421H26.1911V19.6316H36.7045V15.4211C36.7045 15.3947 36.678 15.3684 36.678 15.3421H34.9037V15.3684Z" fill="#94A3B8"/>
<path d="M53.8117 14.1053H48.2239H48.0385C48.0385 15.6842 46.8733 16.4211 45.5757 16.4211C43.0864 16.4211 42.8745 14.3421 42.8745 12.3684V12.3158C42.8745 10.3421 43.0599 8.26315 45.5757 8.26315C47.5354 8.26315 47.8797 9.94736 47.9326 11.5526L53.7322 10.921C53.1231 5.05263 47.2971 4.6842 45.8405 4.6842C45.6287 4.6842 45.5227 4.6842 45.5227 4.6842C40.7295 4.6842 36.0156 7.02631 36.0156 12.3421C36.0156 13.4737 36.2275 14.4737 36.6247 15.3421H36.6512V15.421C38.0812 18.5789 41.7887 20 45.5227 20C48.5682 20 52.8318 19.2632 53.7852 14.6053L53.8117 14.1053Z" fill="#94A3B8"/>
<path d="M55.7982 19.7105C57.1437 19.7105 58.2345 18.6266 58.2345 17.2895C58.2345 15.9524 57.1437 14.8684 55.7982 14.8684C54.4526 14.8684 53.3618 15.9524 53.3618 17.2895C53.3618 18.6266 54.4526 19.7105 55.7982 19.7105Z" fill="#94A3B8"/>
</g>
<defs>
<clipPath id="clip0_2112_2511">
<rect width="58.2609" height="20" fill="white"/>
</clipPath>
</defs>
</svg>
