<svg width="151" height="30" viewBox="0 0 151 30" fill="none" xmlns="http://www.w3.org/2000/svg">
<g clip-path="url(#clip0_2112_2519)">
<path d="M3.97633 3.86775H7.248C10.268 3.86775 11.5767 4.8099 11.5767 6.6942C11.5767 8.33056 10.268 9.47106 7.60033 9.47106H3.97633V3.86775ZM0 22.5124H8.05333C12.2813 22.5124 16.5093 21.0248 16.5093 16.2149C16.5093 13.3884 14.496 11.2066 11.6773 10.9091V10.8595C13.9927 10.1653 15.553 8.52891 15.553 6.04957C15.553 2.03304 12.08 0.49585 8.70767 0.49585H0V22.5124ZM3.97633 12.843H7.80167C11.023 12.843 12.533 13.6363 12.533 15.9669C12.533 18.843 9.664 19.1901 7.65067 19.1901H3.97633V12.843Z" fill="#94A3B8"/>
<path d="M22.9015 0H19.1265V22.5124H22.9015V0Z" fill="#94A3B8"/>
<path d="M29.1935 15.0743C29.1935 12.7438 30.8545 10.6115 33.6228 10.6115C36.3911 10.6115 38.0521 12.7438 38.0521 15.0743C38.0521 17.4049 36.3911 19.5371 33.6228 19.5371C30.8545 19.5371 29.1935 17.4049 29.1935 15.0743ZM25.4185 15.0743C25.4185 19.7851 29.0928 22.909 33.6731 22.909C38.2535 22.909 41.9278 19.7851 41.9278 15.0743C41.9278 10.3636 38.2535 7.23962 33.6731 7.23962C29.0928 7.23962 25.4185 10.3636 25.4185 15.0743Z" fill="#94A3B8"/>
<path d="M47.3639 15.0743C47.3639 12.7438 49.0249 10.6115 51.7932 10.6115C54.5615 10.6115 56.2225 12.7438 56.2225 15.0743C56.2225 17.4049 54.5615 19.5371 51.7932 19.5371C49.0249 19.5371 47.3639 17.4049 47.3639 15.0743ZM43.5889 15.0743C43.5889 19.7851 47.2632 22.909 51.8435 22.909C56.4239 22.909 60.0982 19.7851 60.0982 15.0743C60.0982 10.3636 56.4239 7.23962 51.8435 7.23962C47.2632 7.23962 43.5889 10.3636 43.5889 15.0743Z" fill="#94A3B8"/>
<path d="M62.3628 7.58676H65.9365V9.91734H65.9868C66.6411 8.52891 68.1008 7.19006 70.6175 7.19006C72.9328 7.19006 74.5435 8.08263 75.3488 9.96692C76.4561 8.08263 78.0668 7.19006 80.3318 7.19006C84.3585 7.19006 85.7678 10.0165 85.7678 13.5868V22.4628H82.0431V14.033C82.0431 12.1487 81.4894 10.562 79.2244 10.562C76.8588 10.562 75.9528 12.4958 75.9528 14.4297V22.5124H72.1778V13.6363C72.1778 11.8016 71.4228 10.6116 69.6108 10.6116C67.1445 10.6116 66.1378 12.3967 66.1378 14.3801V22.5124H62.3628V7.58676Z" fill="#94A3B8"/>
<path d="M101.472 15.0744C101.472 17.405 99.811 19.5372 97.0427 19.5372C94.2743 19.5372 92.6133 17.405 92.6133 15.0744C92.6133 12.7438 94.2743 10.6116 97.0427 10.6116C99.811 10.562 101.472 12.7438 101.472 15.0744ZM88.8887 22.5124H92.4623V20.281H92.5127C93.62 22.0661 95.583 22.9091 97.7473 22.9091C102.428 22.9091 105.247 19.4876 105.247 15.0744C105.247 10.6612 102.227 7.23967 97.9487 7.23967C95.13 7.23967 93.5697 8.52892 92.8147 9.52066H92.714V0H88.939L88.8887 22.5124Z" fill="#94A3B8"/>
<path d="M110.733 13.5868C111.035 11.4545 112.394 10.0661 114.659 10.0661C117.025 10.0661 118.485 11.4545 118.535 13.5868H110.733ZM122.31 16.3636V15.3223C122.31 10.1157 119.441 7.19006 115.213 7.19006C110.633 7.19006 106.958 10.314 106.958 15.0248C106.958 19.7355 110.633 22.8595 115.213 22.8595C117.629 22.8595 119.844 22.0165 121.606 19.8843L118.887 17.8512C117.931 18.9917 116.723 19.8843 114.811 19.8843C112.697 19.8843 110.985 18.5454 110.733 16.3636H122.31Z" fill="#94A3B8"/>
<path d="M124.776 7.58673H128.551V9.9669H128.602C129.407 8.28095 131.068 7.23962 133.081 7.23962C133.534 7.23962 133.987 7.3388 134.44 7.43797V11.0578C133.836 10.909 133.232 10.7603 132.628 10.7603C129.055 10.7603 128.551 13.7355 128.551 14.5289V22.5124H124.776V7.58673Z" fill="#94A3B8"/>
<path d="M142.947 10.6116C145.665 10.6116 147.426 12.3967 147.426 14.9752C147.426 17.4545 145.715 19.3388 142.896 19.3388C140.329 19.3388 138.467 17.4049 138.467 15.0248C138.467 12.3967 140.279 10.6116 142.947 10.6116ZM147.426 7.58676V9.81816H147.376C146.269 8.03304 144.255 7.19006 142.141 7.19006C137.46 7.19006 134.642 10.6116 134.642 15.0248C134.642 19.2396 137.662 22.6611 142.192 22.6611C144.104 22.6611 146.017 21.9669 147.175 20.4793H147.225V21.5702C147.225 24.4958 146.118 26.5785 142.443 26.5785C140.329 26.5785 138.769 25.7851 137.259 24.4463L134.994 27.5206C137.108 29.4049 139.675 30 142.494 30C148.383 30 151.05 26.5785 151.05 21.2231V7.58676H147.426Z" fill="#94A3B8"/>
</g>
<defs>
<clipPath id="clip0_2112_2519">
<rect width="151" height="30" fill="white"/>
</clipPath>
</defs>
</svg>
