<svg width="113" height="21" viewBox="0 0 113 21" fill="none" xmlns="http://www.w3.org/2000/svg">
<g clip-path="url(#clip0_2112_2531)">
<path d="M26.3347 18.6375C26.3347 19.2675 26.215 19.95 25.7602 20.475H37.3475V14.0962C36.5335 14.49 35.5519 14.7 34.5943 14.7H32.0805V12.6H33.3972C34.1155 12.6 34.7379 12.6787 35.4322 12.9937V7.48125C34.7379 7.79625 34.1155 7.875 33.3972 7.875H32.0805V5.5125H34.5943C35.5519 5.5125 36.5335 5.7225 37.3475 6.11625V0H25.7362C26.1911 0.42 26.3347 1.2075 26.3347 1.8375V18.6375ZM16.2797 7.875V5.775H16.5191C17.1655 5.775 17.9316 5.88 18.4343 6.16875V0H10.2945V20.475H16.8782C16.4233 20.055 16.2797 19.2675 16.2797 18.6375V12.8625H19.3919V18.6375C19.3919 19.2675 19.2483 20.055 18.7934 20.475H25.3771V0H19.3919V7.875H16.2797ZM1.9392 5.775H3.35169V18.6375C3.35169 19.2675 3.20805 20.055 2.75318 20.475H9.33686V0H0V6.16875C0.526695 5.88 1.2928 5.775 1.9392 5.775ZM101.03 7.875H93.8714C93.5123 7.875 93.0814 7.84875 92.6744 7.69125V12.7837C93.1053 12.6525 93.5123 12.6 93.8714 12.6H95.7867V14.175C95.5472 14.4112 95.0445 14.5425 94.5178 14.5425C92.3392 14.5425 90.7352 12.6525 90.7352 10.3687C90.7352 8.085 92.2913 6.0375 94.4699 6.0375C95.7867 6.0375 97.271 6.51 98.8989 7.35V0H94.1108C88.9396 0 84.8218 4.38375 84.8218 10.3162C84.8218 16.1175 88.9636 21 94.3502 21C97.3189 21 100.072 19.6875 101.532 18.06C101.245 17.4825 101.054 16.905 101.054 16.2225V7.875H101.03ZM110.247 5.5125C111.204 5.5125 112.186 5.7225 113 6.11625V0H101.389C101.844 0.42 101.987 1.2075 101.987 1.8375V18.6375C101.987 19.2675 101.868 19.95 101.413 20.475H113V14.0962C112.186 14.49 111.204 14.7 110.247 14.7H107.733V12.6H109.05C109.768 12.6 110.39 12.6787 111.085 12.9937V7.48125C110.39 7.79625 109.768 7.875 109.05 7.875H107.733V5.5125H110.247ZM82.4756 11.235C83.4811 10.0275 84.0797 8.4525 84.0797 6.825C84.0797 2.1 80.8716 0 77.4481 0H70.0265C70.4814 0.42 70.625 1.2075 70.625 1.8375V18.6375C70.625 19.2675 70.4814 19.95 70.0265 20.475H77.1608C76.7059 19.95 76.6102 19.2412 76.6102 18.6375V14.4637C78.6451 14.8837 80.0098 16.9837 80.0098 18.6375C80.0098 19.2675 79.8661 19.95 79.4352 20.475H86.5455C86.0907 19.95 85.971 19.215 85.947 18.585C85.7076 14.9625 84.5824 12.4162 82.4756 11.235ZM76.6102 9.21375V5.48625C77.5678 5.48625 78.7888 5.775 78.7888 7.35C78.7888 8.925 77.5678 9.21375 76.6102 9.21375ZM50.5148 11.2875L48.5996 5.5125H51.4725L53.3877 0H39.9809C40.4119 0.4725 40.7949 0.97125 41.0822 1.60125L48.5038 20.475H52.5498L58.6547 4.725V18.6375C58.6547 19.2937 58.511 20.055 58.0561 20.475H69.6674V14.0962C68.8773 14.49 67.8718 14.9625 66.9142 14.9625H64.4004V12.6H65.7172C66.4354 12.6 67.0578 12.6787 67.7521 12.9937V7.48125C67.0578 7.79625 66.4354 7.875 65.7172 7.875H64.4004V5.775H66.9142C67.8718 5.775 68.8773 5.985 69.6674 6.37875V0H54.3453L50.5148 11.2875Z" fill="#94A3B8"/>
</g>
<defs>
<clipPath id="clip0_2112_2531">
<rect width="113" height="21" fill="white"/>
</clipPath>
</defs>
</svg>
