<svg width="31" height="23" viewBox="0 0 31 23" fill="none" xmlns="http://www.w3.org/2000/svg">
  <g clip-path="url(#clip0_2419_6996)">
    <g clip-path="url(#clip1_2419_6996)">
      <rect width="31" height="23" rx="2" fill="white"/>
      <path fill-rule="evenodd" clip-rule="evenodd" d="M0 0H13.2857V10.7333H0V0Z" fill="#1A47B8"/>
      <path fill-rule="evenodd" clip-rule="evenodd" d="M13.2857 0V1.53333H31V0H13.2857ZM13.2857 3.06667V4.6H31V3.06667H13.2857ZM13.2857 6.13333V7.66667H31V6.13333H13.2857ZM13.2857 9.2V10.7333H31V9.2H13.2857ZM0 12.2667V13.8H31V12.2667H0ZM0 15.3333V16.8667H31V15.3333H0ZM0 18.4V19.9333H31V18.4H0ZM0 21.4667V23H31V21.4667H0Z" fill="#EF4444"/>
      <path fill-rule="evenodd" clip-rule="evenodd" d="M1.47607 1.53333V3.06666H2.95226V1.53333H1.47607ZM4.42846 1.53333V3.06666H5.90465V1.53333H4.42846ZM7.38084 1.53333V3.06666H8.85703V1.53333H7.38084ZM10.3332 1.53333V3.06666H11.8094V1.53333H10.3332ZM8.85703 3.06666V4.59999H10.3332V3.06666H8.85703ZM5.90465 3.06666V4.59999H7.38084V3.06666H5.90465ZM2.95226 3.06666V4.59999H4.42846V3.06666H2.95226ZM1.47607 4.59999V6.13333H2.95226V4.59999H1.47607ZM4.42846 4.59999V6.13333H5.90465V4.59999H4.42846ZM7.38084 4.59999V6.13333H8.85703V4.59999H7.38084ZM10.3332 4.59999V6.13333H11.8094V4.59999H10.3332ZM1.47607 7.66666V9.19999H2.95226V7.66666H1.47607ZM4.42846 7.66666V9.19999H5.90465V7.66666H4.42846ZM7.38084 7.66666V9.19999H8.85703V7.66666H7.38084ZM10.3332 7.66666V9.19999H11.8094V7.66666H10.3332ZM8.85703 6.13333V7.66666H10.3332V6.13333H8.85703ZM5.90465 6.13333V7.66666H7.38084V6.13333H5.90465ZM2.95226 6.13333V7.66666H4.42846V6.13333H2.95226Z" fill="white"/>
    </g>
  </g>
  <defs>
    <clipPath id="clip0_2419_6996">
      <rect width="31" height="23" fill="white"/>
    </clipPath>
    <clipPath id="clip1_2419_6996">
      <rect width="31" height="23" rx="2" fill="white"/>
    </clipPath>
  </defs>
</svg>
