<svg width="23" height="16" viewBox="0 0 23 16" fill="none" xmlns="http://www.w3.org/2000/svg">
<g clip-path="url(#clip0_970_718)">
<path d="M8.38223 2.12256H14.5949V13.3613H8.38223V2.12256Z" fill="#FF5F00"/>
<path d="M8.77675 7.7421C8.77675 5.45863 9.84175 3.43323 11.4787 2.12266C10.2757 1.16957 8.75707 0.59375 7.10035 0.59375C3.17535 0.59375 0 3.7906 0 7.7421C0 11.6935 3.17535 14.8905 7.10026 14.8905C8.75698 14.8905 10.2756 14.3146 11.4787 13.3614C9.84175 12.0708 8.77675 10.0256 8.77675 7.7421Z" fill="#EB001B"/>
<path d="M22.9772 7.7421C22.9772 11.6935 19.8018 14.8905 15.8769 14.8905C14.2202 14.8905 12.7016 14.3146 11.4985 13.3614C13.1552 12.051 14.2005 10.0256 14.2005 7.7421C14.2005 5.45863 13.1354 3.43323 11.4985 2.12266C12.7015 1.16957 14.2202 0.59375 15.8769 0.59375C19.8018 0.59375 22.9773 3.8105 22.9773 7.7421H22.9772Z" fill="#F79E1B"/>
</g>
<defs>
<clipPath id="clip0_970_718">
<rect width="23" height="15" fill="white" transform="translate(0 0.59375)"/>
</clipPath>
</defs>
</svg>
