<svg width="38" height="13" viewBox="0 0 38 13" fill="none" xmlns="http://www.w3.org/2000/svg">
<path d="M14.1082 0.305669L9.24316 11.9116H6.06931L3.6752 2.64897C3.53005 2.07984 3.40392 1.87039 2.96222 1.62973C2.24025 1.23753 1.04798 0.870739 0 0.642563L0.0706881 0.305669H5.18055C5.83083 0.305669 6.41636 0.738652 6.56529 1.48835L7.83027 8.20489L10.9533 0.305669H14.1082ZM18.3988 0.305669L15.9163 11.9116H12.9134L15.3962 0.305669H18.3988ZM26.544 8.1223C26.5565 5.05977 22.3094 4.8898 22.3372 3.52147C22.3473 3.10547 22.7436 2.66262 23.611 2.5494C24.0406 2.49381 25.2277 2.44954 26.5722 3.06904L27.0982 0.60642C26.3758 0.34515 25.4461 0.09375 24.2897 0.09375C21.3214 0.09375 19.2334 1.67037 19.2167 3.92978C19.1973 5.60104 20.7081 6.53247 21.8444 7.08912C23.0147 7.65753 23.4072 8.02287 23.4018 8.53089C23.3934 9.30962 22.4671 9.65436 21.6059 9.66713C20.0958 9.69108 19.2204 9.25897 18.522 8.93369L17.977 11.4779C18.6795 11.7998 19.9743 12.0795 21.3153 12.0937C24.4709 12.0937 26.5348 10.5351 26.544 8.1223ZM34.3822 11.9116H37.1584L34.733 0.305669H32.1715C31.5938 0.305669 31.1083 0.640966 30.8929 1.15639L26.3874 11.9116H29.5405L30.166 10.1779H34.0183L34.3822 11.9116ZM31.0306 7.79963L32.6116 3.4412L33.5198 7.79963H31.0305H31.0306Z" fill="#1A1F71"/>
</svg>
