<svg width="24" height="24" viewBox="0 0 24 24" fill="none" xmlns="http://www.w3.org/2000/svg">
    <path
        d="M12 0C5.36842 0 0 5.36842 0 12C0 18.6316 5.36842 24 12 24C18.6316 24 24 18.6316 24 12C24 5.36842 18.6316 0 12 0ZM9 17.3368H6.78947V10.0737H9V17.3368ZM7.76843 9.44211C6.9158 9.44211 6.41054 8.81053 6.41054 8.11579C6.41054 7.42106 6.94737 6.82106 7.8 6.82106C8.62106 6.82106 9.15789 7.42106 9.15789 8.11579C9.15789 8.84211 8.62106 9.44211 7.76843 9.44211ZM18.1579 17.3368H15.3158V13.6421C15.3158 12.6632 15 12 14.1158 12C13.4526 12 13.0421 12.4421 12.8842 12.8842C12.8211 13.0421 12.8211 13.2632 12.8211 13.4842V17.3368H10.3895C10.3895 17.3368 10.4211 10.7053 10.3895 10.0737H12.8211V11.3053C13.1369 10.8 13.8947 10.1053 15.1895 10.1053C16.8 10.1053 18.1895 11.1474 18.1895 13.3579V17.3368H18.1579Z" />
</svg>