<svg width="24" height="24" viewBox="0 0 24 24" fill="none" xmlns="http://www.w3.org/2000/svg">
    <path
        d="M12 0C5.36842 0 0 5.36842 0 12C0 18.6316 5.36842 24 12 24C18.6316 24 24 18.6316 24 12C24 5.36842 18.6316 0 12 0ZM16.5789 9.44211C16.5789 9.53685 16.5789 9.66317 16.5789 9.7579C16.5789 13.0421 14.1474 16.8316 9.66317 16.8316C8.30527 16.8316 7.01054 16.421 5.93686 15.7263C6.12633 15.7579 6.3158 15.7579 6.50527 15.7579C7.64212 15.7579 8.68422 15.3474 9.50527 14.6842C8.43159 14.6526 7.54738 13.9579 7.23159 12.9474C7.38948 12.9789 7.54738 12.979 7.6737 12.979C7.89475 12.979 8.14738 12.9474 8.33685 12.8842C7.23159 12.6632 6.41054 11.6526 6.41054 10.4526V10.4842C6.72633 10.6737 7.07369 10.7684 7.48421 10.8C6.82106 10.3579 6.37895 9.60001 6.37895 8.7158C6.37895 8.27369 6.50527 7.83159 6.69474 7.45264C7.89474 8.96843 9.66316 9.94736 11.6842 10.0421C11.6526 9.85263 11.6211 9.66316 11.6211 9.47368C11.6211 8.11579 12.6947 6.97896 14.0526 6.97896C14.7474 6.97896 15.379 7.29475 15.8211 7.76843C16.3895 7.64212 16.8947 7.45264 17.3684 7.16842C17.1789 7.73685 16.8 8.24212 16.2947 8.55791C16.8 8.49475 17.2421 8.36843 17.6842 8.17896C17.4632 8.65264 17.0526 9.09474 16.5789 9.44211Z" />
</svg>