<svg width="24" height="24" viewBox="0 0 24 24" fill="none" xmlns="http://www.w3.org/2000/svg">
    <path
        d="M10.1053 11.9683C10.1053 10.7368 11.1158 9.75781 12.3158 9.75781C13.5474 9.75781 14.5579 10.7368 14.5579 11.9683C14.5579 13.1999 13.5474 14.1789 12.3158 14.1789C11.0842 14.2104 10.1053 13.1999 10.1053 11.9683Z" />
    <path
        d="M16.5789 9.063C16.5789 9.25247 16.4211 9.44195 16.2316 9.44195H15.0632C14.8737 9.44195 14.6842 9.28405 14.6842 9.063V7.89458C14.6842 7.7051 14.8421 7.51562 15.0632 7.51562H16.2316C16.4211 7.51562 16.5789 7.67352 16.5789 7.89458V9.063Z" />
    <path
        d="M15.5684 11.021H16.8947V16.2947C16.8947 16.4842 16.8632 16.7052 16.6421 16.7052H7.9579C7.76843 16.7052 7.73685 16.5157 7.73685 16.2947V11.021H9.06317C8.87369 11.021 8.81054 11.7157 8.81054 12.0631C8.81054 13.9894 10.3895 15.5368 12.3474 15.5368C14.3053 15.5368 15.8842 14.021 15.8842 12.0631C15.8527 11.7473 15.7895 11.021 15.5684 11.021Z" />
    <path
        d="M12 0C5.36842 0 0 5.36842 0 12C0 18.6316 5.36842 24 12 24C18.6316 24 24 18.6316 24 12C24 5.36842 18.6316 0 12 0ZM18.1579 16.3895C18.1579 17.1474 17.4947 17.6526 16.7368 17.6526H7.89474C7.13684 17.6526 6.47368 17.1474 6.47368 16.3895V7.54738C6.47368 6.78948 7.13684 6.28422 7.89474 6.28422H16.7368C17.4947 6.28422 18.1579 6.78948 18.1579 7.54738V16.3895Z" />
</svg>