<svg width="229" height="16" viewBox="0 0 229 16" fill="none" xmlns="http://www.w3.org/2000/svg">
    <rect width="228.114" height="16" transform="translate(0.861084)" fill="white" />
    <path fill-rule="evenodd" clip-rule="evenodd" d="M58.9443 0H74.9328V16H58.9443V0ZM53.1302 0H56.4078V16H53.1302V0ZM47.3447 0H50.6222V16H47.3447V0ZM41.5307 0H44.8082V16H41.5307V0ZM35.7167 0H38.9942V16H35.7167V0ZM29.9027 0H33.1802V16H29.9027V0ZM24.0887 0H27.3662V16H24.0887V0ZM18.2746 0H21.5521V16H18.2746V0ZM12.4891 0H15.7666V16H12.4891V0ZM6.6751 0H9.95261V16H6.6751V0ZM0.861084 0H4.13859V16H0.861084V0Z" fill="url(#paint0_linear_2020_441)" />
    <path fill-rule="evenodd" clip-rule="evenodd" d="M85.9328 7.85965C85.9328 6.90526 86.1038 5.95088 86.4743 5.02456C86.8448 4.09825 87.3578 3.25614 88.0418 2.52632C88.7258 1.79649 89.5523 1.17895 90.5213 0.729825C91.4903 0.280702 92.6018 0.0280702 93.8558 0.0280702C95.3663 0.0280702 96.6488 0.336842 97.7603 0.982456C98.8718 1.6 99.6698 2.44211 100.211 3.4807L96.9623 5.8386C96.8198 5.44561 96.6203 5.13684 96.3923 4.88421C96.1643 4.63158 95.8793 4.43509 95.5943 4.29474C95.3093 4.15439 94.9958 4.04211 94.6823 3.98596C94.3688 3.92982 94.0553 3.90175 93.7703 3.90175C93.1718 3.90175 92.6303 4.01404 92.2028 4.26667C91.7753 4.5193 91.4048 4.82807 91.1198 5.22105C90.8348 5.61404 90.6353 6.06316 90.4928 6.54035C90.3503 7.01754 90.2933 7.52281 90.2933 8.02807C90.2933 8.58947 90.3788 9.09474 90.5213 9.6C90.6638 10.1053 90.9203 10.5544 91.2053 10.9193C91.4903 11.2842 91.8893 11.6211 92.3168 11.8456C92.7443 12.0702 93.2573 12.1825 93.7988 12.1825C94.0838 12.1825 94.3973 12.1544 94.6823 12.0702C94.9958 12.014 95.2808 11.9018 95.5658 11.7333C95.8508 11.5649 96.1073 11.3684 96.3353 11.1439C96.5633 10.8912 96.7343 10.6105 96.8768 10.2456L100.354 12.3509C100.126 12.9404 99.7553 13.4456 99.2993 13.8947C98.8148 14.3439 98.3018 14.7368 97.6748 15.0456C97.0763 15.3544 96.4208 15.607 95.7368 15.7474C95.0528 15.8877 94.3688 16 93.7133 16C92.5733 16 91.5188 15.7754 90.5498 15.2982C89.6093 14.8211 88.7828 14.2035 88.0988 13.4456C87.4148 12.6877 86.8733 11.7895 86.5028 10.8351C86.1323 9.85263 85.9328 8.87018 85.9328 7.85965ZM112.267 0.112281H116.143L121.501 15.8596H117.169L116.228 12.7719H112.124L111.212 15.8596H106.88L112.267 0.112281ZM115.573 9.90877L114.205 5.02456L112.751 9.90877H115.573ZM129.424 15.8596V0.112281H136.52C137.29 0.112281 137.974 0.280702 138.601 0.589474C139.228 0.898246 139.798 1.3193 140.254 1.82456C140.71 2.32982 141.08 2.9193 141.337 3.56491C141.593 4.21053 141.736 4.88421 141.736 5.55789C141.736 6.48421 141.536 7.32632 141.137 8.11228C140.738 8.89825 140.197 9.54386 139.513 10.0491L142.79 15.8316H138.002L135.266 11.0035H133.67V15.8316H129.424V15.8596ZM133.699 7.27018H136.378C136.634 7.27018 136.891 7.12982 137.119 6.82105C137.347 6.51228 137.461 6.1193 137.461 5.58596C137.461 5.02456 137.318 4.63158 137.062 4.32281C136.805 4.01404 136.549 3.90175 136.264 3.90175H133.699V7.27018ZM161.116 14.5684C160.005 15.5228 158.751 16 157.297 16C156.3 16 155.331 15.8316 154.419 15.4667C153.507 15.1018 152.709 14.5684 152.025 13.8667C151.34 13.1649 150.799 12.3228 150.4 11.3123C150.001 10.3018 149.802 9.15088 149.802 7.85965C149.802 6.73684 150.001 5.72632 150.4 4.77193C150.799 3.81754 151.369 2.97544 152.082 2.27368C152.794 1.57193 153.621 1.01053 154.59 0.617544C155.559 0.196491 156.585 0 157.725 0C158.409 0 159.093 0.0842105 159.72 0.224561C160.347 0.364912 160.945 0.617544 161.487 0.926316C162.028 1.23509 162.513 1.6 162.969 2.02105C163.396 2.44211 163.767 2.9193 164.052 3.45263L160.888 5.89474C160.575 5.27719 160.119 4.77193 159.52 4.40702C158.922 4.04211 158.266 3.84561 157.582 3.84561C157.069 3.84561 156.613 3.95789 156.186 4.15439C155.758 4.35088 155.388 4.65965 155.103 5.02456C154.818 5.38947 154.561 5.8386 154.39 6.34386C154.219 6.84912 154.134 7.41053 154.134 8.02807C154.134 8.64561 154.219 9.20702 154.39 9.71228C154.561 10.2175 154.818 10.6386 155.131 11.0035C155.445 11.3684 155.815 11.6491 156.243 11.8456C156.67 12.0421 157.155 12.1544 157.696 12.1544C158.922 12.1544 160.033 11.6491 160.974 10.6105H158.295V7.46667H164.65V15.8596H161.145V14.5684H161.116ZM180.354 16C179.185 16 178.102 15.7754 177.133 15.2982C176.164 14.8491 175.338 14.2316 174.682 13.5018C173.998 12.7439 173.457 11.9018 173.086 10.9474C172.716 9.99298 172.516 8.98246 172.516 7.97193C172.516 6.93333 172.716 5.95088 173.115 4.96842C173.514 4.01404 174.055 3.17193 174.768 2.41404C175.48 1.68421 176.307 1.09474 177.276 0.673684C178.245 0.224561 179.299 0.0280702 180.439 0.0280702C181.608 0.0280702 182.691 0.252632 183.66 0.729825C184.629 1.20702 185.455 1.79649 186.111 2.55439C186.795 3.31228 187.308 4.15439 187.678 5.13684C188.049 6.1193 188.248 7.07368 188.248 8.08421C188.248 9.12281 188.049 10.1053 187.65 11.0596C187.251 12.014 186.709 12.8561 186.025 13.586C185.341 14.3158 184.486 14.9053 183.517 15.3544C182.548 15.7754 181.494 16 180.354 16ZM176.82 8C176.82 8.53333 176.905 9.0386 177.048 9.54386C177.19 10.0491 177.418 10.4702 177.703 10.8632C177.988 11.2561 178.359 11.5649 178.815 11.7895C179.271 12.014 179.784 12.1544 180.382 12.1544C180.981 12.1544 181.522 12.0421 181.978 11.7895C182.434 11.5368 182.805 11.2281 183.09 10.8351C183.375 10.4421 183.574 9.99298 183.717 9.48772C183.859 8.98246 183.916 8.47719 183.916 7.94386C183.916 7.41053 183.831 6.90526 183.688 6.4C183.546 5.89474 183.318 5.47368 183.033 5.0807C182.748 4.71579 182.377 4.40702 181.921 4.18246C181.465 3.95789 180.952 3.84561 180.354 3.84561C179.755 3.84561 179.214 3.95789 178.786 4.21053C178.33 4.43509 177.988 4.77193 177.675 5.16491C177.39 5.55789 177.162 6.00702 177.019 6.48421C176.905 6.98947 176.82 7.49474 176.82 8ZM196.684 15.8596V0.112281H207.315V3.87368H200.959V6.48421H206.146V9.99298H200.959V15.8596H196.684ZM218.743 0.112281L221.508 6.93333L224.329 0.112281H228.975L223.617 10.6667V15.8877H219.399V10.6105L214.155 0.112281H218.743Z" fill="black" />
    <defs>
        <linearGradient id="paint0_linear_2020_441" x1="0.864017" y1="8" x2="54.9159" y2="8" gradientUnits="userSpaceOnUse">
            <stop stop-color="white" />
            <stop offset="1" stop-color="#FF6000" />
        </linearGradient>
    </defs>
</svg>