<svg width="133" height="32" viewBox="0 0 133 32" fill="none" xmlns="http://www.w3.org/2000/svg">
  <path d="M1.672 15.208C1.816 15.0053 2.01333 14.8373 2.264 14.704C2.52 14.5653 2.81067 14.496 3.136 14.496C3.51467 14.496 3.856 14.5893 4.16 14.776C4.46933 14.9627 4.712 15.2293 4.888 15.576C5.06933 15.9173 5.16 16.3147 5.16 16.768C5.16 17.2213 5.06933 17.624 4.888 17.976C4.712 18.3227 4.46933 18.592 4.16 18.784C3.856 18.976 3.51467 19.072 3.136 19.072C2.81067 19.072 2.52267 19.0053 2.272 18.872C2.02667 18.7387 1.82667 18.5707 1.672 18.368V21.112H0.552V14.568H1.672V15.208ZM4.016 16.768C4.016 16.5013 3.96 16.272 3.848 16.08C3.74133 15.8827 3.59733 15.7333 3.416 15.632C3.24 15.5307 3.048 15.48 2.84 15.48C2.63733 15.48 2.44533 15.5333 2.264 15.64C2.088 15.7413 1.944 15.8907 1.832 16.088C1.72533 16.2853 1.672 16.5173 1.672 16.784C1.672 17.0507 1.72533 17.2827 1.832 17.48C1.944 17.6773 2.088 17.8293 2.264 17.936C2.44533 18.0373 2.63733 18.088 2.84 18.088C3.048 18.088 3.24 18.0347 3.416 17.928C3.59733 17.8213 3.74133 17.6693 3.848 17.472C3.96 17.2747 4.016 17.04 4.016 16.768ZM7.94188 19.072C7.51521 19.072 7.13121 18.9787 6.78988 18.792C6.44854 18.6 6.17921 18.3307 5.98188 17.984C5.78988 17.6373 5.69388 17.2373 5.69388 16.784C5.69388 16.3307 5.79254 15.9307 5.98988 15.584C6.19254 15.2373 6.46721 14.9707 6.81388 14.784C7.16054 14.592 7.54721 14.496 7.97388 14.496C8.40054 14.496 8.78721 14.592 9.13388 14.784C9.48054 14.9707 9.75254 15.2373 9.94988 15.584C10.1525 15.9307 10.2539 16.3307 10.2539 16.784C10.2539 17.2373 10.1499 17.6373 9.94187 17.984C9.73921 18.3307 9.46188 18.6 9.10988 18.792C8.76321 18.9787 8.37388 19.072 7.94188 19.072ZM7.94188 18.096C8.14454 18.096 8.33388 18.048 8.50988 17.952C8.69121 17.8507 8.83521 17.7013 8.94188 17.504C9.04854 17.3067 9.10188 17.0667 9.10188 16.784C9.10188 16.3627 8.98988 16.04 8.76588 15.816C8.54721 15.5867 8.27788 15.472 7.95788 15.472C7.63788 15.472 7.36854 15.5867 7.14988 15.816C6.93654 16.04 6.82988 16.3627 6.82988 16.784C6.82988 17.2053 6.93388 17.5307 7.14188 17.76C7.35521 17.984 7.62188 18.096 7.94188 18.096ZM17.2194 14.568L15.9234 19H14.7154L13.9074 15.904L13.0994 19H11.8834L10.5794 14.568H11.7154L12.4994 17.944L13.3474 14.568H14.5314L15.3634 17.936L16.1474 14.568H17.2194ZM21.9454 16.688C21.9454 16.848 21.9348 16.992 21.9134 17.12H18.6734C18.7001 17.44 18.8121 17.6907 19.0094 17.872C19.2068 18.0533 19.4494 18.144 19.7374 18.144C20.1534 18.144 20.4494 17.9653 20.6254 17.608H21.8334C21.7054 18.0347 21.4601 18.3867 21.0974 18.664C20.7348 18.936 20.2894 19.072 19.7614 19.072C19.3348 19.072 18.9508 18.9787 18.6094 18.792C18.2734 18.6 18.0094 18.3307 17.8174 17.984C17.6308 17.6373 17.5374 17.2373 17.5374 16.784C17.5374 16.3253 17.6308 15.9227 17.8174 15.576C18.0041 15.2293 18.2654 14.9627 18.6014 14.776C18.9374 14.5893 19.3241 14.496 19.7614 14.496C20.1828 14.496 20.5588 14.5867 20.8894 14.768C21.2254 14.9493 21.4841 15.208 21.6654 15.544C21.8521 15.8747 21.9454 16.256 21.9454 16.688ZM20.7854 16.368C20.7801 16.08 20.6761 15.8507 20.4734 15.68C20.2708 15.504 20.0228 15.416 19.7294 15.416C19.4521 15.416 19.2174 15.5013 19.0254 15.672C18.8388 15.8373 18.7241 16.0693 18.6814 16.368H20.7854ZM23.8829 15.256C24.0269 15.0213 24.2136 14.8373 24.4429 14.704C24.6776 14.5707 24.9443 14.504 25.2429 14.504V15.68H24.9469C24.5949 15.68 24.3283 15.7627 24.1469 15.928C23.9709 16.0933 23.8829 16.3813 23.8829 16.792V19H22.7629V14.568H23.8829V15.256ZM30.1173 16.688C30.1173 16.848 30.1066 16.992 30.0853 17.12H26.8453C26.872 17.44 26.984 17.6907 27.1813 17.872C27.3786 18.0533 27.6213 18.144 27.9093 18.144C28.3253 18.144 28.6213 17.9653 28.7973 17.608H30.0053C29.8773 18.0347 29.632 18.3867 29.2693 18.664C28.9066 18.936 28.4613 19.072 27.9333 19.072C27.5066 19.072 27.1226 18.9787 26.7813 18.792C26.4453 18.6 26.1813 18.3307 25.9893 17.984C25.8026 17.6373 25.7093 17.2373 25.7093 16.784C25.7093 16.3253 25.8026 15.9227 25.9893 15.576C26.176 15.2293 26.4373 14.9627 26.7733 14.776C27.1093 14.5893 27.496 14.496 27.9333 14.496C28.3546 14.496 28.7306 14.5867 29.0613 14.768C29.3973 14.9493 29.656 15.208 29.8373 15.544C30.024 15.8747 30.1173 16.256 30.1173 16.688ZM28.9573 16.368C28.952 16.08 28.848 15.8507 28.6453 15.68C28.4426 15.504 28.1946 15.416 27.9013 15.416C27.624 15.416 27.3893 15.5013 27.1973 15.672C27.0106 15.8373 26.896 16.0693 26.8533 16.368H28.9573ZM30.6468 16.768C30.6468 16.32 30.7348 15.9227 30.9108 15.576C31.0921 15.2293 31.3375 14.9627 31.6468 14.776C31.9561 14.5893 32.3001 14.496 32.6788 14.496C32.9668 14.496 33.2415 14.56 33.5028 14.688C33.7641 14.8107 33.9721 14.976 34.1268 15.184V13.08H35.2628V19H34.1268V18.344C33.9881 18.5627 33.7935 18.7387 33.5428 18.872C33.2921 19.0053 33.0015 19.072 32.6708 19.072C32.2975 19.072 31.9561 18.976 31.6468 18.784C31.3375 18.592 31.0921 18.3227 30.9108 17.976C30.7348 17.624 30.6468 17.2213 30.6468 16.768ZM34.1348 16.784C34.1348 16.512 34.0815 16.28 33.9748 16.088C33.8681 15.8907 33.7241 15.7413 33.5428 15.64C33.3615 15.5333 33.1668 15.48 32.9588 15.48C32.7508 15.48 32.5588 15.5307 32.3828 15.632C32.2068 15.7333 32.0628 15.8827 31.9508 16.08C31.8441 16.272 31.7908 16.5013 31.7908 16.768C31.7908 17.0347 31.8441 17.2693 31.9508 17.472C32.0628 17.6693 32.2068 17.8213 32.3828 17.928C32.5641 18.0347 32.7561 18.088 32.9588 18.088C33.1668 18.088 33.3615 18.0373 33.5428 17.936C33.7241 17.8293 33.8681 17.68 33.9748 17.488C34.0815 17.2907 34.1348 17.056 34.1348 16.784ZM39.3829 15.216C39.5269 15.0027 39.7243 14.8293 39.9749 14.696C40.2309 14.5627 40.5216 14.496 40.8469 14.496C41.2256 14.496 41.5669 14.5893 41.8709 14.776C42.1803 14.9627 42.4229 15.2293 42.5989 15.576C42.7803 15.9173 42.8709 16.3147 42.8709 16.768C42.8709 17.2213 42.7803 17.624 42.5989 17.976C42.4229 18.3227 42.1803 18.592 41.8709 18.784C41.5669 18.976 41.2256 19.072 40.8469 19.072C40.5163 19.072 40.2256 19.008 39.9749 18.88C39.7296 18.7467 39.5323 18.576 39.3829 18.368V19H38.2629V13.08H39.3829V15.216ZM41.7269 16.768C41.7269 16.5013 41.6709 16.272 41.5589 16.08C41.4523 15.8827 41.3083 15.7333 41.1269 15.632C40.9509 15.5307 40.7589 15.48 40.5509 15.48C40.3483 15.48 40.1563 15.5333 39.9749 15.64C39.7989 15.7413 39.6549 15.8907 39.5429 16.088C39.4363 16.2853 39.3829 16.5173 39.3829 16.784C39.3829 17.0507 39.4363 17.2827 39.5429 17.48C39.6549 17.6773 39.7989 17.8293 39.9749 17.936C40.1563 18.0373 40.3483 18.088 40.5509 18.088C40.7589 18.088 40.9509 18.0347 41.1269 17.928C41.3083 17.8213 41.4523 17.6693 41.5589 17.472C41.6709 17.2747 41.7269 17.04 41.7269 16.768ZM47.9248 14.568L45.1808 21.096H43.9888L44.9488 18.888L43.1728 14.568H44.4288L45.5728 17.664L46.7328 14.568H47.9248Z" fill="black"/>
  <g clip-path="url(#clip0_2410_4015)">
    <path d="M131.5 19.75C132.19 19.75 132.75 19.1904 132.75 18.5C132.75 17.8096 132.19 17.25 131.5 17.25C130.81 17.25 130.25 17.8096 130.25 18.5C130.25 19.1904 130.81 19.75 131.5 19.75Z" stroke="#535FE1" stroke-width="0.3" stroke-linecap="round" stroke-linejoin="round"/>
    <path d="M131.763 18.2685L131.862 18.381L132.087 18.1825L131.988 18.07L131.763 18.2685ZM131.988 18.93L132.087 18.8175L131.862 18.619L131.763 18.7315L131.988 18.93ZM131.988 18.07C131.9 17.971 131.785 17.9009 131.657 17.8691L131.584 18.1603C131.654 18.1774 131.716 18.2152 131.763 18.2685L131.988 18.07ZM131.657 17.8691C131.529 17.8373 131.394 17.8453 131.27 17.892L131.376 18.1726C131.443 18.1475 131.515 18.1432 131.584 18.1603L131.657 17.8691ZM131.27 17.892C131.147 17.9387 131.04 18.0218 130.965 18.1305L131.212 18.301C131.253 18.2426 131.31 18.1978 131.376 18.1726L131.27 17.892ZM130.965 18.1305C130.89 18.2391 130.85 18.368 130.85 18.5H131.15C131.15 18.4289 131.172 18.3595 131.212 18.301L130.965 18.1305ZM130.85 18.5C130.85 18.632 130.89 18.7609 130.965 18.8695L131.212 18.699C131.172 18.6405 131.15 18.5711 131.15 18.5H130.85ZM130.965 18.8695C131.04 18.9782 131.147 19.0613 131.27 19.108L131.376 18.8274C131.31 18.8022 131.253 18.7574 131.212 18.699L130.965 18.8695ZM131.27 19.108C131.394 19.1547 131.529 19.1627 131.657 19.1309L131.584 18.8397C131.515 18.8568 131.443 18.8525 131.376 18.8274L131.27 19.108ZM131.657 19.1309C131.785 19.0991 131.9 19.029 131.988 18.93L131.763 18.7315C131.716 18.7848 131.654 18.8226 131.584 18.8397L131.657 19.1309Z" fill="#535FE1"/>
  </g>
  <path d="M65.429 16.399C65.429 15.6537 65.5807 15.0037 65.884 14.449C66.1873 13.8857 66.6077 13.4523 67.145 13.149C67.6823 12.837 68.2977 12.681 68.991 12.681C69.8837 12.681 70.6203 12.9063 71.201 13.357C71.7903 13.799 72.1847 14.423 72.384 15.229H70.421C70.317 14.917 70.1393 14.6743 69.888 14.501C69.6453 14.319 69.342 14.228 68.978 14.228C68.458 14.228 68.0463 14.4187 67.743 14.8C67.4397 15.1727 67.288 15.7057 67.288 16.399C67.288 17.0837 67.4397 17.6167 67.743 17.998C68.0463 18.3707 68.458 18.557 68.978 18.557C69.7147 18.557 70.1957 18.2277 70.421 17.569H72.384C72.1847 18.349 71.7903 18.9687 71.201 19.428C70.6117 19.8873 69.875 20.117 68.991 20.117C68.2977 20.117 67.6823 19.9653 67.145 19.662C66.6077 19.35 66.1873 18.9167 65.884 18.362C65.5807 17.7987 65.429 17.1443 65.429 16.399ZM73.2493 16.373C73.2493 15.645 73.3923 14.9993 73.6783 14.436C73.973 13.8727 74.3673 13.4393 74.8613 13.136C75.364 12.8327 75.923 12.681 76.5383 12.681C77.0756 12.681 77.5436 12.7893 77.9423 13.006C78.3496 13.2227 78.6746 13.4957 78.9173 13.825V12.798H80.7503V20H78.9173V18.947C78.6833 19.285 78.3583 19.5667 77.9423 19.792C77.535 20.0087 77.0626 20.117 76.5253 20.117C75.9186 20.117 75.364 19.961 74.8613 19.649C74.3673 19.337 73.973 18.8993 73.6783 18.336C73.3923 17.764 73.2493 17.1097 73.2493 16.373ZM78.9173 16.399C78.9173 15.957 78.8306 15.58 78.6573 15.268C78.484 14.9473 78.25 14.7047 77.9553 14.54C77.6606 14.3667 77.3443 14.28 77.0063 14.28C76.6683 14.28 76.3563 14.3623 76.0703 14.527C75.7843 14.6917 75.5503 14.9343 75.3683 15.255C75.195 15.567 75.1083 15.9397 75.1083 16.373C75.1083 16.8063 75.195 17.1877 75.3683 17.517C75.5503 17.8377 75.7843 18.0847 76.0703 18.258C76.365 18.4313 76.677 18.518 77.0063 18.518C77.3443 18.518 77.6606 18.4357 77.9553 18.271C78.25 18.0977 78.484 17.855 78.6573 17.543C78.8306 17.2223 78.9173 16.841 78.9173 16.399ZM84.3479 13.916C84.5819 13.5347 84.8852 13.2357 85.2579 13.019C85.6392 12.8023 86.0725 12.694 86.5579 12.694V14.605H86.0769C85.5049 14.605 85.0715 14.7393 84.7769 15.008C84.4909 15.2767 84.3479 15.7447 84.3479 16.412V20H82.5279V12.798H84.3479V13.916ZM90.6047 12.681C91.1421 12.681 91.6144 12.7893 92.0217 13.006C92.4291 13.214 92.7497 13.487 92.9837 13.825V12.798H94.8167V20.052C94.8167 20.7193 94.6824 21.313 94.4137 21.833C94.1451 22.3617 93.7421 22.7777 93.2047 23.081C92.6674 23.393 92.0174 23.549 91.2547 23.549C90.2321 23.549 89.3914 23.3107 88.7327 22.834C88.0827 22.3573 87.7144 21.7073 87.6277 20.884H89.4347C89.5301 21.2133 89.7337 21.4733 90.0457 21.664C90.3664 21.8633 90.7521 21.963 91.2027 21.963C91.7314 21.963 92.1604 21.8027 92.4897 21.482C92.8191 21.17 92.9837 20.6933 92.9837 20.052V18.934C92.7497 19.272 92.4247 19.5537 92.0087 19.779C91.6014 20.0043 91.1334 20.117 90.6047 20.117C89.9981 20.117 89.4434 19.961 88.9407 19.649C88.4381 19.337 88.0394 18.8993 87.7447 18.336C87.4587 17.764 87.3157 17.1097 87.3157 16.373C87.3157 15.645 87.4587 14.9993 87.7447 14.436C88.0394 13.8727 88.4337 13.4393 88.9277 13.136C89.4304 12.8327 89.9894 12.681 90.6047 12.681ZM92.9837 16.399C92.9837 15.957 92.8971 15.58 92.7237 15.268C92.5504 14.9473 92.3164 14.7047 92.0217 14.54C91.7271 14.3667 91.4107 14.28 91.0727 14.28C90.7347 14.28 90.4227 14.3623 90.1367 14.527C89.8507 14.6917 89.6167 14.9343 89.4347 15.255C89.2614 15.567 89.1747 15.9397 89.1747 16.373C89.1747 16.8063 89.2614 17.1877 89.4347 17.517C89.6167 17.8377 89.8507 18.0847 90.1367 18.258C90.4314 18.4313 90.7434 18.518 91.0727 18.518C91.4107 18.518 91.7271 18.4357 92.0217 18.271C92.3164 18.0977 92.5504 17.855 92.7237 17.543C92.8971 17.2223 92.9837 16.841 92.9837 16.399ZM99.7923 20.117C99.0989 20.117 98.4749 19.9653 97.9203 19.662C97.3656 19.35 96.9279 18.9123 96.6073 18.349C96.2953 17.7857 96.1393 17.1357 96.1393 16.399C96.1393 15.6623 96.2996 15.0123 96.6203 14.449C96.9496 13.8857 97.3959 13.4523 97.9593 13.149C98.5226 12.837 99.1509 12.681 99.8443 12.681C100.538 12.681 101.166 12.837 101.729 13.149C102.293 13.4523 102.735 13.8857 103.055 14.449C103.385 15.0123 103.549 15.6623 103.549 16.399C103.549 17.1357 103.38 17.7857 103.042 18.349C102.713 18.9123 102.262 19.35 101.69 19.662C101.127 19.9653 100.494 20.117 99.7923 20.117ZM99.7923 18.531C100.122 18.531 100.429 18.453 100.715 18.297C101.01 18.1323 101.244 17.8897 101.417 17.569C101.591 17.2483 101.677 16.8583 101.677 16.399C101.677 15.7143 101.495 15.19 101.131 14.826C100.776 14.4533 100.338 14.267 99.8183 14.267C99.2983 14.267 98.8606 14.4533 98.5053 14.826C98.1586 15.19 97.9853 15.7143 97.9853 16.399C97.9853 17.0837 98.1543 17.6123 98.4923 17.985C98.8389 18.349 99.2723 18.531 99.7923 18.531ZM108.94 12.694C109.486 12.694 109.972 12.8153 110.396 13.058C110.821 13.292 111.15 13.643 111.384 14.111C111.627 14.5703 111.748 15.125 111.748 15.775V20H109.928V16.022C109.928 15.45 109.785 15.0123 109.499 14.709C109.213 14.397 108.823 14.241 108.329 14.241C107.827 14.241 107.428 14.397 107.133 14.709C106.847 15.0123 106.704 15.45 106.704 16.022V20H104.884V10.38H106.704V13.695C106.938 13.383 107.25 13.1403 107.64 12.967C108.03 12.785 108.464 12.694 108.94 12.694ZM120.278 12.798V20H118.445V19.09C118.211 19.402 117.903 19.649 117.522 19.831C117.149 20.0043 116.742 20.091 116.3 20.091C115.737 20.091 115.238 19.974 114.805 19.74C114.372 19.4973 114.029 19.1463 113.778 18.687C113.535 18.219 113.414 17.6643 113.414 17.023V12.798H115.234V16.763C115.234 17.335 115.377 17.777 115.663 18.089C115.949 18.3923 116.339 18.544 116.833 18.544C117.336 18.544 117.73 18.3923 118.016 18.089C118.302 17.777 118.445 17.335 118.445 16.763V12.798H120.278ZM123.894 13.851C124.128 13.5043 124.448 13.2227 124.856 13.006C125.272 12.7893 125.744 12.681 126.273 12.681C126.888 12.681 127.443 12.8327 127.937 13.136C128.439 13.4393 128.834 13.8727 129.12 14.436C129.414 14.9907 129.562 15.6363 129.562 16.373C129.562 17.1097 129.414 17.764 129.12 18.336C128.834 18.8993 128.439 19.337 127.937 19.649C127.443 19.961 126.888 20.117 126.273 20.117C125.735 20.117 125.263 20.013 124.856 19.805C124.457 19.5883 124.136 19.311 123.894 18.973V20H122.074V10.38H123.894V13.851ZM127.703 16.373C127.703 15.9397 127.612 15.567 127.43 15.255C127.256 14.9343 127.022 14.6917 126.728 14.527C126.442 14.3623 126.13 14.28 125.792 14.28C125.462 14.28 125.15 14.3667 124.856 14.54C124.57 14.7047 124.336 14.9473 124.154 15.268C123.98 15.5887 123.894 15.9657 123.894 16.399C123.894 16.8323 123.98 17.2093 124.154 17.53C124.336 17.8507 124.57 18.0977 124.856 18.271C125.15 18.4357 125.462 18.518 125.792 18.518C126.13 18.518 126.442 18.4313 126.728 18.258C127.022 18.0847 127.256 17.8377 127.43 17.517C127.612 17.1963 127.703 16.815 127.703 16.373Z" fill="#535FE1"/>
  <rect x="58.25" y="11" width="3.75" height="3.75" fill="#333DA8"/>
  <rect x="58.25" y="16.625" width="3.75" height="4.375" fill="#333DA8"/>
  <path d="M56.6875 20.375C55.4443 20.375 54.252 19.8811 53.3729 19.0021C52.4939 18.123 52 16.9307 52 15.6875C52 14.4443 52.4939 13.252 53.3729 12.3729C54.252 11.4939 55.4443 11 56.6875 11L56.6875 15.6875L56.6875 20.375Z" fill="#333DA8"/>
  <defs>
    <clipPath id="clip0_2410_4015">
      <rect width="3" height="3" fill="white" transform="translate(130 17)"/>
    </clipPath>
  </defs>
</svg>
