<svg id="Layer_1" data-name="Layer 1" xmlns="http://www.w3.org/2000/svg" viewBox="0 0 1389 286"><defs><style>.cls-1{fill:#171a1c;fill-rule:evenodd;}</style></defs><title>logo</title><path class="cls-1" d="M126.66,823.95c-16.24,8.84-30.26,15.89-39.53,20.43,7.69,7.12,13.61,17.11,13.61,29.3C100.75,898.11,82,910,60.17,910,39.12,910,23,898.5,23,878.64c0-24.58,23.56-33.9,44.42-40.51,5.24-2.53,11.24-5.35,18.11-8.51a247.21,247.21,0,0,0,47.21-28.18c9.46-9.62,16.2-22.25,16.2-40.41,0-39.33-33.69-69.49-88.81-69.49C4.67,691.54-24,724.76-24,757.22-24,780.35-12.9,795.16.08,805c12.88-5.71,28.37-12.67,40.64-18.5a34.5,34.5,0,0,1-9.64-24.31c0-16.42,11.48-30.55,32.54-30.55,18,0,30.24,11.84,30.24,27.49,0,19.68-14.68,28.65-32.17,34.42,0,.26,0,.41,0,.41s-26.47,10-48.26,19.48v.68c-26,10.31-45.55,28.64-45.55,59.95,0,42.77,31.77,75.6,95.32,75.6,60.1,0,92.26-29,92.26-70.26C155.49,855.18,144.1,836,126.66,823.95ZM-308.92,685c-10.72,10.69-16.46,27.11-16.46,49.64v13H-349.5v47.73h24.12v155h58.19v-155h46.32V748H-268v-8c0-15.27,7.66-22.15,21.05-22.15a73.86,73.86,0,0,1,26.41,5V674.69c-10.72-3.44-23-5.73-41.34-5.73Q-292.84,669-308.92,685Zm178,102V745.71h-58.19V950.38h58.19v-75.6c0-48.88,23.73-72.17,62.4-72.17h3.06V741.89C-99.93,740.37-119.07,758.7-130.94,787ZM195.15,950.38h58.19V671.64H195.15ZM309.21,723.18h61.25V671.64H309.21ZM977.49,826.66c-22.2-7.64-41.73-13-41.73-24.44,0-8.78,7.27-14.89,21.44-14.89,14.93,0,35.22,7.25,55.51,19.09l22.2-40.09c-22.2-14.89-50.53-23.67-76.56-23.67-41.34,0-75,23.29-75,64.91,0,40.47,32.54,53.84,61.25,62.24,22.59,6.87,42.49,11.07,42.49,23.67,0,9.93-7.66,16-24.5,16-19.14,0-42.49-8.4-64.69-24.44L873,923.27a144,144,0,0,0,88,30.93c44.41,0,78.48-20.62,78.48-66.06C1039.5,850,1006.2,836.21,977.49,826.66ZM745.93,741.89c-59.72,0-101.44,48.11-101.44,106.53C644.48,911.81,690,955,751.67,955c37.13,0,64.69-14.51,83.83-38.18l-33.3-29.4c-16.08,14.89-30.24,21-49.76,21-26,0-44.41-13.75-50.15-40.09H845.07c.38-5.35.77-10.69.77-15.27C845.84,795,814.45,741.89,745.93,741.89ZM701.52,832c4.59-26.35,20.29-43.53,44.41-43.53,24.5,0,39.81,17.56,43.26,43.53ZM310.74,950.38h58.19V745.71H310.74ZM541.93,741.89c-29.48,0-46.7,15.66-60.1,32.84v-29H423.64V950.38h58.19V836.21c0-27.49,14.16-41.62,36.37-41.62s35.22,14.13,35.22,41.62V950.38H611.6V817.88C611.6,770.91,586,741.89,541.93,741.89Z" transform="translate(349.5 -668.96)"/></svg>
