<svg width="152" height="59" viewBox="0 0 152 59" fill="none" xmlns="http://www.w3.org/2000/svg">
<g clip-path="url(#clip0_1023_1308)">
<path d="M30.1899 57.4245C25.5413 57.4245 21.7728 53.2219 21.7728 48.0377C21.7728 42.8535 25.5413 38.6509 30.1899 38.6509C34.8385 38.6509 38.6069 42.8535 38.6069 48.0377C38.6069 53.2219 34.8385 57.4245 30.1899 57.4245Z" fill="#171A1C"/>
<path d="M30.162 57.9528C35.0913 57.9528 39.0999 53.5 39.0999 48.0377C39.0999 42.5755 35.0913 38.1227 30.162 38.1227C25.2326 38.1227 21.2334 42.5755 21.2334 48.0377C21.2334 53.5 25.2605 57.9528 30.162 57.9528ZM30.162 39.1793C34.5239 39.1793 38.0582 43.151 38.0582 48.0377C38.0582 52.9245 34.5239 56.8962 30.162 56.8962C25.8 56.8962 22.275 52.9245 22.275 48.0377C22.275 43.151 25.8279 39.1793 30.162 39.1793Z" fill="#171A1C"/>
<path d="M28.5063 57.4245C23.8577 57.4245 20.0892 53.2219 20.0892 48.0377C20.0892 42.8535 23.8577 38.6509 28.5063 38.6509C33.1549 38.6509 36.9233 42.8535 36.9233 48.0377C36.9233 53.2219 33.1549 57.4245 28.5063 57.4245Z" fill="#171A1C"/>
<path d="M28.5065 57.9528C33.4265 57.9528 37.4351 53.5 37.4351 48.0377C37.4351 42.5755 33.4265 38.1227 28.5065 38.1227C23.5864 38.1227 19.5686 42.5755 19.5686 48.0377C19.5686 53.5 23.5771 57.9528 28.5065 57.9528ZM28.5065 39.1793C32.8592 39.1793 36.4027 43.151 36.4027 48.0377C36.4027 52.9245 32.8592 56.8962 28.5065 56.8962C24.1538 56.8962 20.6102 52.9245 20.6102 48.0377C20.6102 43.151 24.1445 39.1793 28.5065 39.1793Z" fill="#171A1C"/>
<path d="M92.6992 57.4245C87.7938 57.4245 83.8171 53.2219 83.8171 48.0377C83.8171 42.8535 87.7938 38.6509 92.6992 38.6509C97.6047 38.6509 101.581 42.8535 101.581 48.0377C101.581 53.2219 97.6047 57.4245 92.6992 57.4245Z" fill="#171A1C"/>
<path d="M92.6992 57.9528C94.6492 58.03 96.5773 57.5139 98.2359 56.4709C99.8945 55.4279 101.208 53.9057 102.007 52.0998C102.806 50.2939 103.054 48.2869 102.72 46.3367C102.386 44.3864 101.485 42.5821 100.132 41.1556C98.779 39.729 97.0365 38.7454 95.1282 38.3311C93.22 37.9168 91.2332 38.0908 89.4232 38.8307C87.6132 39.5706 86.0627 40.8426 84.9709 42.4833C83.8791 44.1239 83.2959 46.0583 83.2962 48.0377C83.2514 50.616 84.2158 53.1073 85.9782 54.9657C87.7407 56.8242 90.1575 57.8983 92.6992 57.9528ZM92.6992 39.1792C94.4426 39.1039 96.1684 39.5595 97.6544 40.4875C99.1404 41.4154 100.319 42.7732 101.038 44.3861C101.756 45.9989 101.983 47.7931 101.688 49.5377C101.393 51.2823 100.59 52.8975 99.3828 54.1753C98.1753 55.4532 96.6185 56.3353 94.9126 56.7081C93.2067 57.0809 91.4299 56.9274 89.8107 56.2673C88.1916 55.6072 86.8043 54.4707 85.8273 53.004C84.8503 51.5374 84.3283 49.8078 84.3286 48.0377C84.2837 45.738 85.1396 43.5141 86.7088 41.8535C88.2779 40.1929 90.4321 39.2312 92.6992 39.1792Z" fill="#171A1C"/>
<path d="M90.9228 57.4245C86.0174 57.4245 82.0407 53.2219 82.0407 48.0377C82.0407 42.8535 86.0174 38.6509 90.9228 38.6509C95.8283 38.6509 99.8049 42.8535 99.8049 48.0377C99.8049 53.2219 95.8283 57.4245 90.9228 57.4245Z" fill="#171A1C"/>
<path d="M90.9228 57.9528C92.8728 58.03 94.801 57.5139 96.4596 56.4709C98.1181 55.4279 99.4314 53.9057 100.23 52.0998C101.03 50.2939 101.278 48.2869 100.944 46.3367C100.61 44.3864 99.7084 42.5821 98.3555 41.1556C97.0026 39.729 95.2601 38.7454 93.3519 38.3311C91.4436 37.9168 89.4568 38.0908 87.6468 38.8307C85.8368 39.5706 84.2863 40.8426 83.1945 42.4833C82.1027 44.1239 81.5195 46.0583 81.5199 48.0377C81.475 50.616 82.4394 53.1073 84.2019 54.9657C85.9643 56.8242 88.3811 57.8983 90.9228 57.9528ZM90.9228 39.1792C92.6662 39.1039 94.392 39.5595 95.878 40.4875C97.3641 41.4154 98.5423 42.7732 99.2612 44.3861C99.98 45.9989 100.207 47.7931 99.9117 49.5377C99.6168 51.2823 98.8139 52.8975 97.6064 54.1753C96.399 55.4532 94.8421 56.3353 93.1362 56.7081C91.4303 57.0809 89.6535 56.9274 88.0344 56.2673C86.4152 55.6072 85.0279 54.4707 84.0509 53.004C83.0739 51.5374 82.552 49.8078 82.5522 48.0377C82.5073 45.738 83.3633 43.5141 84.9324 41.8535C86.5015 40.1929 88.6557 39.2312 90.9228 39.1792Z" fill="#171A1C"/>
<path d="M12.2211 45.6887V32.6698C12.2211 30.398 13.1108 28.2192 14.6946 26.6127C16.2783 25.0063 18.4263 24.1038 20.666 24.1038H24.7211L37.6025 3.82075C38.0409 3.13173 38.6427 2.5652 39.3527 2.17297C40.0627 1.78073 40.8584 1.5753 41.6669 1.57547H129.753C130.986 1.57547 132.169 2.07244 133.041 2.95704C133.913 3.84165 134.403 5.04143 134.403 6.29245V45.6887H12.2211Z" fill="#FFA670"/>
<path d="M10.6305 47.2642H135.928V6.26415C135.926 4.60356 135.275 3.0117 134.117 1.83749C132.959 0.663271 131.39 0.00249791 129.753 2.65634e-06H41.6946C40.6272 -0.000978192 39.5766 0.269688 38.6391 0.787214C37.7015 1.30474 36.907 2.05259 36.3281 2.96227L23.8746 22.5283H20.6659C19.3501 22.5246 18.0466 22.7841 16.8298 23.292C15.613 23.7998 14.5069 24.5461 13.5748 25.4881C12.6427 26.4301 11.9028 27.5492 11.3976 28.7816C10.8924 30.0139 10.6318 31.3352 10.6305 32.6698V47.2642ZM132.822 44.1132H13.7742V32.6698C13.7766 30.8166 14.5035 29.0399 15.7954 27.7295C17.0873 26.419 18.8389 25.6817 20.6659 25.6792H25.5115L38.9323 4.71698C39.2341 4.24633 39.6479 3.86043 40.1356 3.59496C40.6233 3.32948 41.1691 3.19299 41.7225 3.19812H129.753C130.567 3.19812 131.348 3.52611 131.923 4.10995C132.499 4.69379 132.822 5.48565 132.822 6.31132V44.1132Z" fill="#171A1C"/>
<path d="M13.6346 38.2358H37.128C37.9 38.2358 38.6405 37.9247 39.1864 37.371C39.7324 36.8172 40.0391 36.0661 40.0391 35.283V34.2736C40.0391 33.4904 39.7324 32.7394 39.1864 32.1856C38.6405 31.6318 37.9 31.3207 37.128 31.3207H13.6346C12.8625 31.3207 12.1221 31.6318 11.5761 32.1856C11.0302 32.7394 10.7235 33.4904 10.7235 34.2736V35.283C10.7235 36.0661 11.0302 36.8172 11.5761 37.371C12.1221 37.9247 12.8625 38.2358 13.6346 38.2358ZM37.128 32.3679C37.6213 32.3679 38.0944 32.5667 38.4433 32.9205C38.7921 33.2744 38.9881 33.7543 38.9881 34.2547V35.283C38.9881 35.7834 38.7921 36.2633 38.4433 36.6172C38.0944 36.971 37.6213 37.1698 37.128 37.1698H13.6346C13.1413 37.1698 12.6681 36.971 12.3193 36.6172C11.9705 36.2633 11.7745 35.7834 11.7745 35.283V34.2736C11.7745 33.7732 11.9705 33.2932 12.3193 32.9394C12.6681 32.5856 13.1413 32.3868 13.6346 32.3868L37.128 32.3679Z" fill="#171A1C"/>
<path d="M37.3698 37.7076H13.3835C12.197 37.7076 11.2351 36.7319 11.2351 35.5283V34.0189C11.2351 32.8153 12.197 31.8396 13.3835 31.8396L37.3698 31.8396C38.5564 31.8396 39.5183 32.8153 39.5183 34.0189V35.5283C39.5183 36.7319 38.5564 37.7076 37.3698 37.7076Z" fill="#171A1C"/>
<path d="M13.988 37.2215C14.4641 37.2422 14.9412 37.1941 15.3898 37.0801C15.8385 36.9662 16.2492 36.7888 16.5967 36.5589C16.9443 36.329 17.2212 36.0515 17.4105 35.7435C17.5998 35.4355 17.6975 35.1034 17.6975 34.7678C17.6975 34.4322 17.5998 34.1002 17.4105 33.7922C17.2212 33.4841 16.9443 33.2066 16.5967 32.9768C16.2492 32.7469 15.8385 32.5695 15.3898 32.4556C14.9412 32.3416 14.4641 32.2935 13.988 32.3142C12.8587 32.3142 12.8056 32.8283 12.8056 32.9311V36.6046C12.8056 36.7074 12.8587 37.2215 13.988 37.2215ZM14.2803 33.3611C14.753 33.4156 15.1827 33.5865 15.4928 33.8433C15.8029 34.1001 15.9732 34.4262 15.9732 34.7632C15.9732 35.1002 15.8029 35.4262 15.4928 35.683C15.1827 35.9398 14.753 36.1108 14.2803 36.1653V33.3611Z" fill="#171A1C"/>
<path d="M36.5513 36.7359C35.4881 36.7359 34.6261 35.8615 34.6261 34.783C34.6261 33.7045 35.4881 32.8302 36.5513 32.8302C37.6146 32.8302 38.4766 33.7045 38.4766 34.783C38.4766 35.8615 37.6146 36.7359 36.5513 36.7359Z" fill="#FF8338"/>
<path d="M36.5515 37.2547C37.0357 37.2547 37.509 37.109 37.9114 36.8359C38.3139 36.5629 38.6274 36.1748 38.8123 35.7209C38.9971 35.267 39.045 34.7676 38.9499 34.2861C38.8547 33.8045 38.6208 33.3624 38.2778 33.0158C37.9348 32.6692 37.4981 32.4336 37.023 32.339C36.5479 32.2443 36.0558 32.2948 35.609 32.484C35.1622 32.6733 34.7808 32.9928 34.5132 33.402C34.2455 33.8113 34.1036 34.2919 34.1055 34.783C34.1054 35.1084 34.1688 35.4306 34.2918 35.7311C34.4149 36.0316 34.5952 36.3045 34.8224 36.5341C35.0497 36.7638 35.3194 36.9456 35.6161 37.0693C35.9129 37.1929 36.2307 37.256 36.5515 37.2547ZM36.5515 33.3491C36.8315 33.3472 37.1057 33.4297 37.3394 33.5861C37.5731 33.7425 37.7558 33.9658 37.8642 34.2277C37.9726 34.4895 38.002 34.7782 37.9485 35.0569C37.895 35.3357 37.7611 35.5921 37.5637 35.7936C37.3664 35.9951 37.1145 36.1326 36.8401 36.1887C36.5656 36.2448 36.2808 36.217 36.022 36.1087C35.7631 36.0005 35.5418 35.8167 35.386 35.5807C35.2303 35.3446 35.1471 35.067 35.1471 34.783C35.1471 34.4043 35.2948 34.041 35.5579 33.7724C35.821 33.5037 36.1782 33.3515 36.5515 33.3491Z" fill="#171A1C"/>
<path d="M8.77046 47.4623H140.105C140.516 47.4623 140.912 47.2963 141.203 47.0008C141.494 46.7053 141.658 46.3046 141.658 45.8868C141.658 45.4689 141.494 45.0682 141.203 44.7728C140.912 44.4773 140.516 44.3113 140.105 44.3113H8.77046C8.35854 44.3113 7.96347 44.4773 7.6722 44.7728C7.38091 45.0682 7.21727 45.4689 7.21727 45.8868C7.21727 46.3046 7.38091 46.7053 7.6722 47.0008C7.96347 47.2963 8.35854 47.4623 8.77046 47.4623Z" fill="#171A1C"/>
<path d="M1.55321 59H150.447C150.859 59 151.254 58.834 151.545 58.5386C151.836 58.2431 152 57.8424 152 57.4245C152 57.0067 151.836 56.606 151.545 56.3105C151.254 56.015 150.859 55.8491 150.447 55.8491H1.55321C1.14127 55.8491 0.746201 56.015 0.45491 56.3105C0.163635 56.606 0 57.0067 0 57.4245C0 57.8424 0.163635 58.2431 0.45491 58.5386C0.746201 58.834 1.14127 59 1.55321 59Z" fill="#171A1C"/>
<path d="M57.7755 21.6981L65.8298 9.07548C66.0083 8.78616 66.2565 8.54772 66.5511 8.38267C66.8456 8.21761 67.1767 8.13137 67.5132 8.13208H78.4693C79.0005 8.13458 79.5091 8.35037 79.8839 8.73225C80.2586 9.11413 80.469 9.63101 80.469 10.1698V22.9906C80.4702 23.2589 80.4188 23.5248 80.3175 23.7727C80.2163 24.0206 80.0674 24.2455 79.8795 24.4344C79.6916 24.6232 79.4685 24.7722 79.2231 24.8725C78.9778 24.9729 78.7152 25.0226 78.4507 25.0189L59.4403 24.8679C59.077 24.8669 58.7207 24.766 58.4095 24.5758C58.0982 24.3857 57.8436 24.1136 57.6728 23.7883C57.502 23.4631 57.4213 23.0969 57.4394 22.7288C57.4575 22.3608 57.5736 22.0045 57.7755 21.6981Z" fill="#171A1C"/>
<path d="M78.4693 25.5472C78.8006 25.5484 79.1289 25.4832 79.4353 25.3551C79.7416 25.2271 80.0199 25.0388 80.2542 24.8012C80.4885 24.5635 80.6741 24.2812 80.8004 23.9704C80.9266 23.6597 80.991 23.3267 80.9897 22.9906V10.1793C80.9897 9.50121 80.7242 8.85092 80.2515 8.37147C79.7788 7.89201 79.1377 7.62266 78.4693 7.62266H67.5131C67.0911 7.62039 66.6753 7.72646 66.3046 7.931C65.9338 8.13553 65.6201 8.43188 65.3926 8.79247L57.3383 21.4528C57.0956 21.8377 56.9591 22.2814 56.9428 22.7378C56.9265 23.1943 57.0311 23.6469 57.2457 24.0485C57.4602 24.4501 57.777 24.786 58.1629 25.0214C58.5488 25.2567 58.9899 25.3829 59.4402 25.3868L78.4507 25.5472H78.4693ZM78.4693 8.66982C78.8639 8.66982 79.2424 8.82885 79.5215 9.11193C79.8006 9.395 79.9574 9.77893 79.9574 10.1793V22.9906C79.9586 23.1892 79.9209 23.386 79.8466 23.5697C79.7723 23.7534 79.6627 23.9203 79.5243 24.0607C79.3858 24.2011 79.2213 24.3123 79.0402 24.3877C78.8591 24.4631 78.665 24.5013 78.4693 24.5L59.4588 24.3396C59.1948 24.345 58.9342 24.2777 58.7049 24.1448C58.4756 24.0119 58.2862 23.8184 58.1567 23.5849C58.026 23.3498 57.9621 23.0825 57.9719 22.8128C57.9818 22.543 58.0651 22.2813 58.2125 22.0566L66.2575 9.3585C66.3932 9.14618 66.5792 8.97183 66.7986 8.8515C67.018 8.73116 67.2637 8.66869 67.5131 8.66982H78.4693Z" fill="#171A1C"/>
<path d="M34.3843 7.31131L57.4406 7.74527C57.7118 7.75247 57.9763 7.83203 58.2076 7.97596C58.4388 8.11988 58.6286 8.32307 58.7578 8.56507C58.887 8.80707 58.9511 9.07933 58.9435 9.35443C58.9359 9.62953 58.857 9.89774 58.7147 10.1321L50.8092 22.9528C50.3988 23.6178 49.8283 24.1659 49.1515 24.5455C48.4746 24.9251 47.7136 25.1237 46.9402 25.1226H23.5398" fill="#171A1C"/>
<path d="M23.5399 25.6509H46.903C47.7655 25.655 48.6145 25.4342 49.3686 25.0096C50.1226 24.5851 50.7565 23.971 51.2092 23.2264L59.1519 10.3773C59.3443 10.0648 59.4516 9.70602 59.4629 9.33768C59.4741 8.96934 59.3889 8.60456 59.2159 8.28049C59.043 7.95642 58.7884 7.68465 58.4782 7.49286C58.1679 7.30107 57.8131 7.1961 57.4499 7.18867L34.3937 6.74527V7.80187L57.4499 8.23584C57.6298 8.23787 57.8058 8.28884 57.9595 8.38343C58.1133 8.47802 58.2393 8.61276 58.3242 8.77357C58.4157 8.93244 58.4639 9.11315 58.4639 9.29716C58.4639 9.48117 58.4157 9.66187 58.3242 9.82074L50.3722 22.6415C50.0047 23.2253 49.497 23.7048 48.8966 24.0349C48.2963 24.3649 47.6231 24.5347 46.9402 24.5283H23.5399V25.6509Z" fill="#171A1C"/>
<path d="M74.963 29.6321H79.1018C79.3599 29.6072 79.5996 29.4857 79.774 29.2912C79.9485 29.0967 80.0452 28.8431 80.0452 28.5802C80.0452 28.3172 79.9485 28.0637 79.774 27.8692C79.5996 27.6747 79.3599 27.5531 79.1018 27.5283H74.963C74.705 27.5531 74.4653 27.6747 74.2908 27.8692C74.1164 28.0637 74.0197 28.3172 74.0197 28.5802C74.0197 28.8431 74.1164 29.0967 74.2908 29.2912C74.4653 29.4857 74.705 29.6072 74.963 29.6321Z" fill="#171A1C"/>
<path d="M53.7483 38.0849C48.8004 38.0849 44.764 42.217 44.5221 46.4151H53.2461V48.5094H62.9746C62.9746 48.5094 62.9746 47.9057 62.9746 47.7075C62.9826 45.1984 62.0213 42.7859 60.2966 40.9872C58.572 39.1884 56.2213 38.1466 53.7483 38.0849Z" fill="#171A1C"/>
<path d="M116.658 38.0849C111.71 38.0849 107.673 42.217 107.432 46.4151H116.323V48.5094H125.903C125.903 48.5094 125.903 47.9057 125.903 47.7075C125.91 45.1952 124.947 42.78 123.218 40.9807C121.489 39.1814 119.134 38.1417 116.658 38.0849Z" fill="#171A1C"/>
<path d="M118.183 57.4245C113.072 57.4245 108.929 53.2219 108.929 48.0377C108.929 42.8535 113.072 38.6509 118.183 38.6509C123.294 38.6509 127.437 42.8535 127.437 48.0377C127.437 53.2219 123.294 57.4245 118.183 57.4245Z" fill="#333333"/>
<path d="M118.183 57.9528C120.116 57.9528 122.006 57.3713 123.614 56.2818C125.221 55.1924 126.474 53.6438 127.214 51.8321C127.954 50.0203 128.147 48.0268 127.77 46.1034C127.393 44.1801 126.462 42.4134 125.095 41.0267C123.728 39.6401 121.986 38.6957 120.09 38.3132C118.194 37.9306 116.228 38.1269 114.442 38.8774C112.656 39.6278 111.13 40.8987 110.055 42.5292C108.981 44.1597 108.408 46.0767 108.408 48.0377C108.413 50.6659 109.444 53.1849 111.277 55.0433C113.109 56.9016 115.592 57.9479 118.183 57.9528ZM118.183 39.1793C119.91 39.1793 121.599 39.6988 123.035 40.6722C124.471 41.6456 125.591 43.0291 126.252 44.6478C126.913 46.2664 127.086 48.0476 126.749 49.766C126.412 51.4843 125.58 53.0628 124.358 54.3016C123.137 55.5405 121.581 56.3842 119.887 56.726C118.193 57.0678 116.437 56.8924 114.841 56.2219C113.245 55.5515 111.881 54.416 110.922 52.9593C109.962 51.5025 109.45 49.7898 109.45 48.0377C109.452 45.6891 110.373 43.4374 112.01 41.7766C113.648 40.1159 115.868 39.1818 118.183 39.1793Z" fill="#171A1C"/>
<path d="M117.262 57.4245C112.151 57.4245 108.008 53.2219 108.008 48.0377C108.008 42.8535 112.151 38.6509 117.262 38.6509C122.373 38.6509 126.516 42.8535 126.516 48.0377C126.516 53.2219 122.373 57.4245 117.262 57.4245Z" fill="#171A1C"/>
<path d="M117.262 57.9528C119.195 57.9528 121.085 57.3713 122.693 56.2818C124.3 55.1924 125.553 53.6438 126.293 51.8321C127.033 50.0203 127.226 48.0268 126.849 46.1034C126.472 44.1801 125.541 42.4134 124.174 41.0267C122.807 39.6401 121.065 38.6957 119.169 38.3132C117.273 37.9306 115.308 38.1269 113.521 38.8774C111.735 39.6278 110.209 40.8987 109.135 42.5292C108.06 44.1597 107.487 46.0767 107.487 48.0377C107.49 50.6666 108.52 53.1871 110.353 55.046C112.186 56.9049 114.67 57.9503 117.262 57.9528ZM117.262 39.1793C118.989 39.1811 120.677 39.7023 122.112 40.6768C123.547 41.6513 124.664 43.0354 125.324 44.6543C125.984 46.2731 126.155 48.054 125.817 49.7717C125.479 51.4895 124.647 53.067 123.425 54.305C122.203 55.5429 120.647 56.3857 118.953 56.7267C117.259 57.0678 115.504 56.8918 113.909 56.221C112.313 55.5503 110.95 54.4148 109.991 52.9583C109.032 51.5017 108.52 49.7894 108.52 48.0377C108.522 45.6875 109.444 43.4343 111.084 41.7733C112.723 40.1123 114.945 39.1793 117.262 39.1793Z" fill="#171A1C"/>
<path d="M120.499 52.934C118.413 52.934 116.723 50.7418 116.723 48.0377C116.723 45.3336 118.413 43.1415 120.499 43.1415C122.584 43.1415 124.275 45.3336 124.275 48.0377C124.275 50.7418 122.584 52.934 120.499 52.934Z" fill="#FFA670"/>
<path d="M120.499 53.4623C122.861 53.4623 124.796 51.0283 124.796 48.0377C124.796 45.0472 122.861 42.6132 120.499 42.6132C118.136 42.6132 116.202 45.0472 116.202 48.0377C116.202 51.0283 118.127 53.4623 120.499 53.4623ZM120.499 43.6604C122.294 43.6604 123.763 45.6227 123.763 48.0377C123.763 50.4528 122.294 52.4151 120.499 52.4151C118.704 52.4151 117.234 50.4528 117.234 48.0377C117.234 45.6227 118.694 43.6604 120.499 43.6604Z" fill="#171A1C"/>
<path d="M55.5992 57.4245C50.4882 57.4245 46.345 53.2219 46.345 48.0377C46.345 42.8535 50.4882 38.6509 55.5992 38.6509C60.7101 38.6509 64.8533 42.8535 64.8533 48.0377C64.8533 53.2219 60.7101 57.4245 55.5992 57.4245Z" fill="#171A1C"/>
<path d="M55.599 57.9528C57.5327 57.9547 59.4235 57.3748 61.0322 56.2864C62.641 55.1981 63.8953 53.6502 64.6365 51.8386C65.3778 50.027 65.5727 48.0332 65.1966 46.1092C64.8205 44.1852 63.8902 42.4177 62.5236 41.0301C61.1569 39.6425 59.4152 38.6972 57.5188 38.3139C55.6224 37.9305 53.6565 38.1263 51.8698 38.8765C50.0831 39.6267 48.5559 40.8975 47.4814 42.5282C46.4069 44.159 45.8334 46.0763 45.8334 48.0377C45.8358 50.665 46.8652 53.1841 48.6958 55.0427C50.5265 56.9013 53.0089 57.9478 55.599 57.9528ZM55.599 39.1793C57.3279 39.1718 59.02 39.685 60.4611 40.6538C61.9022 41.6226 63.0273 43.0035 63.694 44.6215C64.3607 46.2395 64.539 48.0218 64.2062 49.7427C63.8735 51.4636 63.0447 53.0455 61.8248 54.2882C60.6049 55.5308 59.0488 56.3783 57.3538 56.7232C55.6587 57.068 53.9008 56.8948 52.3028 56.2255C50.7048 55.5561 49.3387 54.4207 48.3774 52.9632C47.4161 51.5056 46.903 49.7914 46.903 48.0377C46.9078 45.6964 47.8244 43.4517 49.4531 41.7926C51.0818 40.1335 53.2908 39.1942 55.599 39.1793Z" fill="#171A1C"/>
<path d="M54.6783 57.4245C49.5674 57.4245 45.4241 53.2219 45.4241 48.0377C45.4241 42.8535 49.5674 38.6509 54.6783 38.6509C59.7892 38.6509 63.9324 42.8535 63.9324 48.0377C63.9324 53.2219 59.7892 57.4245 54.6783 57.4245Z" fill="#171A1C"/>
<path d="M54.6784 57.9528C56.6117 57.9528 58.5016 57.3713 60.1091 56.2818C61.7166 55.1924 62.9695 53.6438 63.7093 51.8321C64.4491 50.0203 64.6427 48.0268 64.2655 46.1034C63.8884 44.1801 62.9574 42.4134 61.5903 41.0267C60.2233 39.6401 58.4816 38.6957 56.5854 38.3132C54.6893 37.9306 52.7238 38.1269 50.9377 38.8774C49.1516 39.6278 47.6249 40.8987 46.5508 42.5292C45.4768 44.1597 44.9035 46.0767 44.9035 48.0377C44.9059 50.6666 45.9366 53.1871 47.7692 55.046C49.6018 56.9049 52.0867 57.9503 54.6784 57.9528ZM54.6784 39.1793C56.4053 39.1811 58.0929 39.7023 59.5278 40.6768C60.9628 41.6513 62.0807 43.0354 62.7403 44.6543C63.3999 46.2731 63.5715 48.054 63.2334 49.7717C62.8954 51.4895 62.0629 53.067 60.8412 54.305C59.6194 55.5429 58.0633 56.3857 56.3695 56.7267C54.6756 57.0678 52.9201 56.8918 51.3249 56.221C49.7296 55.5503 48.3662 54.4148 47.407 52.9583C46.4478 51.5017 45.9358 49.7894 45.9358 48.0377C45.9383 45.6875 46.8605 43.4343 48.4998 41.7733C50.139 40.1123 52.3613 39.1793 54.6784 39.1793Z" fill="#171A1C"/>
<path d="M57.9149 53.0472C55.7832 53.0472 54.0551 50.8044 54.0551 48.0378C54.0551 45.2711 55.7832 43.0283 57.9149 43.0283C60.0466 43.0283 61.7747 45.2711 61.7747 48.0378C61.7747 50.8044 60.0466 53.0472 57.9149 53.0472Z" fill="#FFA670"/>
<path d="M57.9151 53.566C60.3332 53.566 62.2957 51.0849 62.2957 48.0377C62.2957 44.9906 60.3332 42.5094 57.9151 42.5094C55.4969 42.5094 53.5345 44.9906 53.5345 48.0377C53.5345 51.0849 55.4969 53.566 57.9151 53.566ZM57.9151 43.5566C59.7752 43.5566 61.2633 45.566 61.2633 48.0377C61.2633 50.5094 59.7566 52.5189 57.9151 52.5189C56.0735 52.5189 54.5668 50.5094 54.5668 48.0377C54.5668 45.566 56.0735 43.5566 57.9151 43.5566Z" fill="#171A1C"/>
<path d="M13.7556 32.8208C13.551 32.8208 13.4394 32.8679 13.4394 32.9245V36.6321C13.4394 36.6981 13.551 36.7358 13.7556 36.7358C14.0203 36.7545 14.286 36.7177 14.5361 36.6278C14.7862 36.5379 15.0154 36.3967 15.2094 36.2131C15.4034 36.0295 15.5581 35.8074 15.6639 35.5605C15.7696 35.3137 15.8242 35.0474 15.8242 34.7783C15.8242 34.5092 15.7696 34.2429 15.6639 33.9961C15.5581 33.7492 15.4034 33.5271 15.2094 33.3435C15.0154 33.1599 14.7862 33.0187 14.5361 32.9288C14.286 32.8389 14.0203 32.8021 13.7556 32.8208Z" fill="#FF8338"/>
<path d="M91.3507 10.2075C90.9996 10.2075 90.6627 10.3484 90.4135 10.5993C90.1644 10.8503 90.0231 11.191 90.0207 11.5472V21.5189C90.0231 21.875 90.1644 22.2157 90.4135 22.4667C90.6627 22.7176 90.9996 22.8585 91.3507 22.8585H123.038C123.389 22.8585 123.726 22.7176 123.975 22.4667C124.224 22.2157 124.365 21.875 124.368 21.5189V11.5472C124.365 11.191 124.224 10.8503 123.975 10.5993C123.726 10.3484 123.389 10.2075 123.038 10.2075H91.3507ZM91.3507 8.10376H123.038C123.938 8.10376 124.802 8.46655 125.438 9.11231C126.075 9.75807 126.433 10.6339 126.433 11.5472V21.5189C126.433 22.4321 126.075 23.3079 125.438 23.9537C124.802 24.5995 123.938 24.9622 123.038 24.9622H91.3507C90.9049 24.9622 90.4634 24.8732 90.0516 24.7001C89.6397 24.5271 89.2655 24.2735 88.9502 23.9537C88.635 23.634 88.385 23.2544 88.2144 22.8366C88.0438 22.4188 87.956 21.971 87.956 21.5189V11.5472C87.956 11.095 88.0438 10.6472 88.2144 10.2294C88.385 9.81165 88.635 9.43206 88.9502 9.11231C89.2655 8.79256 89.6397 8.53892 90.0516 8.36587C90.4634 8.19283 90.9049 8.10376 91.3507 8.10376Z" fill="#171A1C"/>
<path d="M62.714 45.7264H62.7884C62.8564 45.7185 62.9221 45.6965 62.9815 45.6618C63.0408 45.6272 63.0925 45.5806 63.1335 45.525C63.1744 45.4693 63.2037 45.4057 63.2195 45.3382C63.2354 45.2706 63.2374 45.2005 63.2256 45.1321C63.0785 44.2175 62.7005 43.3572 62.1285 42.6347C61.5564 41.9123 60.8097 41.3524 59.961 41.0094C59.8509 41.0046 59.742 41.0353 59.6502 41.0972C59.5584 41.1591 59.4883 41.249 59.45 41.3539C59.4117 41.4588 59.4073 41.5733 59.4373 41.681C59.4673 41.7886 59.5302 41.8838 59.6169 41.9528C60.2999 42.2303 60.9 42.6832 61.3582 43.2671C61.8164 43.8509 62.117 44.5457 62.2304 45.283C62.2508 45.401 62.3095 45.5087 62.3971 45.589C62.4847 45.6694 62.5962 45.7177 62.714 45.7264Z" fill="white"/>
<path d="M125.67 45.7264H125.791C125.857 45.7119 125.92 45.6842 125.975 45.645C126.031 45.6057 126.078 45.5557 126.114 45.4978C126.151 45.4399 126.175 45.3752 126.187 45.3076C126.198 45.24 126.197 45.1707 126.182 45.1038C125.962 44.231 125.561 43.4162 125.004 42.7147C124.447 42.0131 123.748 41.4412 122.954 41.0377C122.893 41.0095 122.826 40.9939 122.758 40.9919C122.691 40.9899 122.624 41.0015 122.56 41.0261C122.497 41.0507 122.44 41.0877 122.391 41.135C122.342 41.1824 122.302 41.2391 122.275 41.3019C122.247 41.3644 122.232 41.4319 122.23 41.5004C122.228 41.569 122.24 41.6373 122.264 41.7013C122.288 41.7654 122.325 41.8239 122.371 41.8735C122.418 41.9232 122.474 41.963 122.536 41.9905C123.175 42.3243 123.74 42.7894 124.193 43.3562C124.646 43.923 124.978 44.5791 125.168 45.283C125.187 45.4048 125.248 45.5157 125.34 45.5967C125.432 45.6777 125.548 45.7236 125.67 45.7264Z" fill="white"/>
</g>
<defs>
<clipPath id="clip0_1023_1308">
<rect width="152" height="59" fill="white" transform="matrix(-1 0 0 1 152 0)"/>
</clipPath>
</defs>
</svg>
