<svg width="63" height="23" viewBox="0 0 63 23" fill="none" xmlns="http://www.w3.org/2000/svg">
<path d="M52.6366 19.6163L52.4445 19.7977C52.1673 20.0631 51.8806 20.3453 51.5373 20.2042C51.4896 20.176 51.4486 20.1365 51.4174 20.0887C51.3863 20.041 51.3659 19.9862 51.3577 19.9287C51.3577 19.1729 51.6727 18.4708 51.9877 17.7888L52.0665 17.6108C52.9579 16.0252 53.9943 14.1574 55.5126 12.8608C55.6193 12.7477 55.752 12.6665 55.8974 12.6252C56.0428 12.584 56.1957 12.5841 56.341 12.6256C56.4235 12.7032 56.4752 12.8112 56.4859 12.9279C56.4798 12.9854 56.4638 13.0412 56.4387 13.0925C56.0134 13.8249 55.6102 14.5941 55.2165 15.3298C54.4735 16.8313 53.6159 18.2649 52.6524 19.6163H52.6366ZM44.4151 15.8774C44.1048 15.8033 43.8201 15.6382 43.593 15.4008C43.366 15.1634 43.2056 14.8631 43.1299 14.5337C42.963 13.6603 43.5268 12.9783 44.0749 12.6357C44.1935 12.5391 44.3318 12.4739 44.4785 12.4453C44.6252 12.4167 44.7762 12.4255 44.9191 12.4711C45.0313 12.5668 45.119 12.6913 45.174 12.8328C45.2291 12.9743 45.2498 13.1284 45.2341 13.2807C45.23 13.4819 45.2142 13.6828 45.1869 13.882V13.9256C45.0161 14.6071 44.763 15.2621 44.434 15.874L44.4151 15.8774ZM40.4776 20.0026C40.3814 19.8399 40.3321 19.6507 40.3359 19.4584C40.3138 18.2524 41.5297 16.0991 42.3897 14.92C42.7544 15.6446 43.3433 16.212 44.056 16.5257C43.4449 17.987 41.3533 21.0843 40.4776 20.0026ZM55.3015 20.2176C55.0968 20.3621 54.8101 20.2512 54.9172 19.9119C55.185 19.0519 56.2402 17.2984 56.2402 17.2984L59.1855 11.7287H57.1695C57.0718 11.8966 56.8545 12.283 56.8545 12.283C56.7251 12.0561 56.5672 11.8493 56.3851 11.6682C55.8906 11.3323 55.1692 11.4935 54.6684 11.7925C52.5012 13.1362 50.9199 15.8236 49.6693 17.8997C49.6693 17.8997 48.3558 20.2176 47.6281 20.3889C47.058 20.4393 47.1178 19.6196 47.143 19.4315C47.3959 18.0876 47.8143 16.7852 48.3873 15.5583C49.5659 14.6854 50.6791 13.7162 51.7168 12.6592C54.073 10.2607 56.0701 7.53292 56.3505 6.92153C56.124 6.96813 55.8944 6.99509 55.6638 7.00215C53.8651 9.69966 50.1387 13.62 49.0141 14.2045C49.5118 12.9279 52.7311 6.81403 55.4716 3.90488L55.9032 3.46146C56.571 2.76944 57.2608 2.05391 57.7932 1.9397C57.8499 1.9397 57.9255 1.9397 57.9885 2.08079C57.9857 2.57334 57.856 3.05561 57.6136 3.47489L57.2986 4.14675C57.5387 4.09801 57.7763 4.03634 58.0105 3.96199C58.3255 3.29013 58.7035 2.56452 58.5681 1.68775C58.5494 1.5549 58.4938 1.43108 58.4084 1.33227C58.3231 1.23347 58.2119 1.16422 58.0893 1.13347C57.2734 0.968861 56.382 1.61385 55.6638 2.14125L55.6354 2.16141C51.9499 5.22172 48.8251 9.66943 46.1193 15.7296C45.9208 15.8908 45.1743 16.0655 45.0294 15.9883C45.3729 15.2769 45.6331 14.5233 45.8043 13.7442C45.8388 13.4984 45.8578 13.2504 45.861 13.0018C45.883 12.7412 45.8428 12.4789 45.7442 12.2393C45.6456 11.9996 45.4919 11.7905 45.2971 11.6313C45.042 11.5205 44.7678 11.4686 44.4925 11.479C44.2173 11.4894 43.9472 11.5619 43.7001 11.6917C41.7534 12.5517 40.3012 14.6781 39.2523 16.4317C38.6884 17.5436 38.1246 18.7362 37.9702 20.1C37.86 21.1683 38.0836 21.8569 38.6538 22.2029C39.2239 22.549 39.9768 22.2029 40.2666 22.0283C42.2385 20.9231 43.615 18.7059 44.6986 16.6769C45.0632 16.6612 45.4257 16.6117 45.7822 16.5291C45.7883 16.5265 45.7951 16.5265 45.8011 16.5291C45.7759 16.6198 45.546 17.3588 45.546 17.3588C44.8561 19.5088 44.538 20.9734 45.1869 21.8401C46.1319 23.0629 47.6533 21.7965 48.9039 20.1235C48.6361 22.1391 49.6095 22.4415 50.3529 22.2869C51.2034 22.0417 52.1547 21.0709 52.5957 20.5737C52.4539 21.1582 52.4917 22.2029 53.2666 22.3071C53.799 22.4112 54.2116 22.1022 54.6589 21.8368C56.3095 20.8794 58.2846 17.6847 58.798 16.7609H58.1271C57.3963 17.9366 56.467 19.4786 55.2921 20.2109L55.3015 20.2176ZM29.8621 8.2854H31.7521L32.8168 6.43779H30.9268L29.8621 8.2854ZM60.0517 3.37747C58.609 4.25089 57.1159 4.81525 55.3078 4.61705C54.8101 5.22172 54.3187 5.83983 53.8651 6.48146C56.404 7.17011 59.0941 5.63828 60.5935 4.18034C61.5834 3.24177 62.3997 2.11375 63.0001 0.854645C62.1409 1.84586 61.147 2.694 60.0517 3.37075V3.37747ZM44.16 2.91053C43.845 6.5856 41.1801 8.74226 40.5154 8.91359C40.1154 9.00093 39.4287 8.80945 40.0398 7.26753C40.9501 5.18813 42.481 3.4245 44.1316 2.53429C44.1655 2.66084 44.1751 2.79336 44.16 2.92397V2.91053ZM38.9373 12.1721C38.8347 11.9482 38.6714 11.7623 38.4687 11.6384C38.266 11.5144 38.0331 11.4581 37.8001 11.4767C36.2251 11.6313 34.6816 13.0153 33.8689 15.0006C33.4416 16.0141 33.1734 17.0957 33.0751 18.202C33.8062 17.3098 34.6987 16.5842 35.6991 16.0689C35.8368 15.1932 36.16 14.3625 36.6441 13.6401C36.9591 13.1664 37.5387 12.4039 38.2191 12.6088C38.8018 12.8171 38.5971 14.5438 37.819 16.2167C37.2308 17.4609 36.4357 18.5809 35.4723 19.5222C34.6848 20.2344 33.5193 21.0944 32.5018 20.4326C31.8718 20.0261 31.5316 19.1796 31.6009 18.0811C31.9159 14.9771 33.2326 12.3333 35.1289 9.32342C37.0819 6.52513 39.2239 3.65629 42.1408 2.12446C42.3808 1.97036 42.649 1.87319 42.9273 1.83956C43.2056 1.80594 43.4875 1.83666 43.7536 1.92962C43.7536 1.92962 41.01 3.54208 39.7122 6.48818C39.3972 7.2373 38.9215 8.25181 39.3972 9.14874C39.5005 9.32983 39.6535 9.4727 39.8355 9.55801C40.0175 9.64333 40.2197 9.66698 40.4146 9.62576C42.0054 9.23272 43.0354 7.64713 43.8796 6.19928C44.3647 5.09743 44.7994 4.0023 44.7994 2.78624C44.7994 2.63843 44.7994 2.45031 44.7805 2.29578C45.5397 1.86579 47.1021 2.63171 47.1021 2.63171C48.3211 3.06506 50.9167 5.18477 51.7924 5.59125C52.2177 5.06048 52.9201 4.24753 53.3139 3.86121L52.7437 3.48833C51.8271 2.89038 50.8537 2.32601 49.9087 1.76501C49.1873 1.31173 48.3807 1.03447 47.5469 0.953156C46.713 0.87184 45.8726 0.988486 45.0861 1.29471C44.7364 1.42908 44.412 1.54666 44.412 1.54666C43.7284 0.763944 42.6385 0.854645 41.8353 1.04612C38.9436 1.93298 36.2598 4.08964 33.3807 7.83189C31.2639 10.7646 29.9535 13.284 29.2542 15.7968C28.7124 17.4764 28.5486 19.9589 29.8653 21.4269C30.9835 22.6766 32.4672 22.4045 33.5161 21.9577C35.7873 20.7652 37.8253 18.1953 38.8428 15.2391C39.0885 14.359 39.3625 13.1194 38.9373 12.1721ZM13.7751 9.32006L13.3908 10.2607C13.3341 10.3077 13.2459 10.2842 13.1482 10.2607L12.975 10.2304C12.734 10.1667 12.5111 10.0417 12.3251 9.86625C12.1392 9.69077 11.9958 9.46996 11.9071 9.22264C11.7339 8.33579 12.4426 7.64041 12.7545 7.38847C13.0663 7.13652 13.5199 7.05254 13.7908 7.28097C13.9527 7.50031 14.0344 7.77486 14.0208 8.05361C14.0013 8.48684 13.9184 8.91416 13.7751 9.32006ZM12.9561 11.0971C12.9561 11.0971 12.9372 11.1509 12.9277 11.171L12.0615 12.676C11.5386 13.4184 10.8865 14.3556 10.0707 14.8024C9.82814 14.8898 9.49424 14.9435 9.32414 14.7151C8.96504 14.2549 9.15089 13.6166 9.30209 13.0993L9.35564 12.9145C9.8148 11.7093 10.416 10.5715 11.1448 9.52834H11.1795C11.1795 9.52834 11.1795 9.52834 11.1795 9.54849C11.3732 9.90554 11.6322 10.2174 11.9412 10.4656C12.2502 10.7137 12.6029 10.8931 12.9781 10.993C12.9781 10.993 12.9781 10.993 12.9781 11.0098C12.9727 11.0449 12.9621 11.079 12.9466 11.1106L12.9561 11.0971ZM23.7826 10.1061C24.3404 9.28978 24.9376 8.50488 25.5718 7.75463C26.4948 6.88793 26.8665 7.26753 26.898 7.53964C26.0349 9.18569 25.008 11.0736 24.063 12.7701L23.7637 13.2538C23.392 13.9449 22.8607 14.5232 22.2202 14.9334C22.1595 14.9551 22.0951 14.9625 22.0315 14.9549C21.9678 14.9474 21.9065 14.9251 21.8517 14.8898C21.7907 14.8465 21.7427 14.7856 21.7131 14.7142C21.6835 14.6428 21.6737 14.5638 21.6847 14.4867C21.7351 13.9559 22.2265 12.3434 23.7826 10.1061ZM14.1751 6.3706C12.9781 5.53414 10.5778 7.13316 8.65634 9.87434C6.89549 12.33 6.13634 15.1887 6.96479 16.5123C8.19329 18.0643 10.4739 15.8035 11.4472 14.5941L11.5701 14.4531C12.206 13.6707 12.7635 12.8195 13.2333 11.9134L13.7089 11.077C14.0457 11.0091 14.379 10.9228 14.7075 10.8183C14.7075 10.8385 13.2522 13.4386 13.4002 14.7285C13.4475 15.1216 13.4002 16.5593 14.7295 16.996C16.4841 17.3085 17.8795 15.8606 19.1206 14.5673L19.4356 14.2313C19.4041 14.359 19.3663 14.5303 19.3663 14.5303C18.8497 16.4384 19.5427 16.8382 19.9774 16.9826C21.2847 17.3891 22.8502 15.3601 22.8565 15.3601C22.8156 16.0017 22.6959 16.5291 23.329 16.9524C23.9244 17.1808 24.526 16.8348 24.9859 16.5089C26.6365 15.266 27.969 13.3243 29.0431 11.6447H28.3848C28.3848 11.6447 26.6932 14.2448 25.6002 14.8125C25.6002 14.8125 25.3986 14.92 25.2852 14.836C25.1718 14.752 25.2001 14.4363 25.2852 14.2481L29.5062 6.43779H27.5185C27.5185 6.43779 27.3012 6.81067 27.2823 6.83754C27.2634 6.86442 27.2382 6.76028 27.2161 6.73005C25.9813 4.90931 23.1904 7.7076 21.0862 10.9527C20.2503 12.2908 19.2749 13.5237 18.1788 14.6277C18.1788 14.6277 16.6038 16.173 15.9171 15.0611C15.715 14.5532 15.7037 13.9819 15.8856 13.4654C16.6731 11.0669 18.0307 8.89679 19.5742 7.57323C20.0121 7.21042 20.4846 7.10629 20.7208 7.26081C20.8256 7.3429 20.8963 7.46518 20.918 7.60183C20.9398 7.73849 20.9109 7.8788 20.8374 7.99314C20.6747 7.9806 20.5114 8.00629 20.359 8.06839C20.2066 8.1305 20.0688 8.22751 19.9554 8.35258C19.4955 8.86992 19.3254 9.36037 19.4829 9.83403C20.1948 10.9157 21.6154 8.77921 21.5461 7.48253C21.5381 7.25678 21.4789 7.03648 21.3736 6.84048C21.2683 6.64449 21.1199 6.47864 20.9413 6.35716C20.6553 6.2131 20.3424 6.13978 20.026 6.14269C19.7097 6.1456 19.398 6.22465 19.1143 6.37396C18.4276 6.65278 17.3409 7.6169 16.7046 8.36602C15.9045 9.30662 14.5342 10.3514 14.1058 10.2338C14.2476 9.83403 15.4036 7.3112 14.1877 6.36388L14.1751 6.3706ZM24.1921 20.0463C21.8485 18.4338 18.667 18.1516 13.5451 19.6667C8.07674 21.0373 6.25289 21.9174 3.85574 20.1538C2.93594 19.2871 2.59574 17.8896 2.85404 15.8808C3.41474 12.6122 4.95824 9.45443 7.70189 5.95741C9.23279 4.14003 10.6534 2.57796 12.5277 1.94977C13.9641 1.55674 13.8286 2.76272 13.6554 2.93405C13.3961 2.92475 13.1396 2.99343 12.9151 3.13225C12.7097 3.29472 12.5374 3.49997 12.4085 3.73556C12.2796 3.97114 12.1969 4.23217 12.1654 4.50284C12.1213 5.56437 13.1545 5.34266 13.5987 4.7615C14.0806 4.08964 14.7894 2.84335 14.2287 1.66759C14.1059 1.45423 13.9417 1.27131 13.7473 1.13111C13.5528 0.990901 13.3324 0.896642 13.101 0.854645C11.3842 0.757226 9.78404 1.63064 8.30984 2.59476C5.12412 4.9347 2.60783 8.16928 1.03964 11.9403C0.198589 14.1138 -0.563711 17.248 0.579739 19.8011C1.46174 21.568 3.29504 22.5086 5.48429 22.3138C7.04778 22.0795 8.5963 21.7429 10.1211 21.306C11.3811 20.9701 17.7535 18.6455 19.8546 22.7203C20.1066 22.2697 20.4641 21.8968 20.8922 21.6383C21.3202 21.3797 21.8039 21.2444 22.2958 21.2455C23.7291 21.1045 25.7986 21.689 27.3043 22.8681C26.8035 22.0619 25.3797 20.876 24.1921 20.0597V20.0463Z" fill="#8C9AA3"/>
</svg>
