<svg width="34" height="32" viewBox="0 0 34 32" fill="none" xmlns="http://www.w3.org/2000/svg">
<g clip-path="url(#clip0_179_483)">
<path d="M15.6536 11.7839L20.3438 10.8991L21.7862 11.7839L21.2654 14.0663L18.7199 15.6616L17.2604 16.2783L22.8037 19.8308H25.1026L33.5512 6.50533L32.5439 4.93349L24.575 0.472656L22.3892 0.898295L15.6536 11.7839Z" fill="#FFA670"/>
<path d="M3.92281 18.8354L16.2565 25.763L12.8716 31.4572L0.301483 24.1878L3.92281 18.8354Z" fill="#FFA670"/>
<path d="M4.99518 19.2037L9.61005 12.2125L12.7689 8.86775L17.812 7.78857L15.6536 11.7835L19.9087 10.9959L21.2654 11.6193L21.7862 13.228L20.6796 15.0077L17 16.2377V16.7672L20.7481 18.8016L18.3327 21.9821L15.8797 23.3897L14.9821 23.621L14.4168 24.6935L4.99518 19.2037Z" fill="#FF8338"/>
<path d="M13.4198 19.4853C13.0142 19.4836 12.6091 19.4567 12.207 19.4049C12.0943 19.3884 11.9929 19.3289 11.9251 19.2393C11.8574 19.1497 11.8287 19.0375 11.8455 18.9273C11.8623 18.817 11.9232 18.7179 12.0148 18.6516C12.1063 18.5853 12.2211 18.5572 12.3337 18.5737C13.8652 18.7681 15.0129 18.5737 15.7598 18.0274C16.0041 17.8287 16.2057 17.5844 16.3527 17.3088C16.4998 17.0332 16.5894 16.7318 16.6163 16.422C16.6431 16.193 16.7529 15.9809 16.9257 15.8241C17.0985 15.6674 17.3229 15.5763 17.5584 15.5674C18.0826 15.5674 19.4256 15.3831 20.82 14.0458C21.3202 13.0404 21.4401 12.2896 21.1626 11.8506C21.046 11.7032 20.8972 11.583 20.7271 11.499C20.557 11.4149 20.3699 11.369 20.1794 11.3646L12.3543 13.0404C12.2448 13.061 12.1314 13.039 12.0382 12.9791C11.945 12.9192 11.8793 12.826 11.8552 12.7195C11.8311 12.613 11.8505 12.5015 11.9091 12.4087C11.9678 12.3159 12.0611 12.2491 12.1693 12.2226L20.1417 10.5469C20.1896 10.5469 21.3374 10.5469 21.889 11.4283C22.3412 12.1455 22.2316 13.1811 21.5464 14.505L21.5155 14.5653L21.4641 14.6122C19.8436 16.1874 18.2128 16.3952 17.5859 16.422C17.5554 16.4242 17.5267 16.4369 17.5047 16.4577C17.4828 16.4785 17.4691 16.5062 17.4659 16.536C17.4231 16.9582 17.294 17.3678 17.0863 17.7403C16.8785 18.1128 16.5963 18.4406 16.2565 18.7044C15.4264 19.2668 14.4279 19.5416 13.4198 19.4853Z" fill="#171A1C"/>
<path d="M12.8065 31.9998C12.6618 32.0001 12.5197 31.9619 12.3954 31.8892L0.40429 24.9081C0.309668 24.8544 0.227161 24.7825 0.161762 24.6967C0.0963638 24.611 0.0494332 24.5131 0.0238106 24.4091C-0.00181194 24.3051 -0.00559369 24.1971 0.0126942 24.0916C0.0309822 23.9861 0.0709595 23.8853 0.130207 23.7954L3.51513 18.6776C3.62035 18.514 3.7873 18.3976 3.97974 18.3537C4.17218 18.3097 4.37457 18.3419 4.54294 18.443L16.3114 25.1728C16.3971 25.2211 16.4721 25.2854 16.5323 25.3621C16.5925 25.4388 16.6366 25.5264 16.662 25.6198C16.6875 25.7133 16.6939 25.8107 16.6807 25.9065C16.6676 26.0024 16.6352 26.0947 16.5855 26.1783L13.502 31.5943C13.4512 31.6856 13.3823 31.7661 13.2994 31.8311C13.2164 31.8961 13.1211 31.9443 13.019 31.973C12.9495 31.9901 12.8782 31.9991 12.8065 31.9998ZM0.873657 24.2143L12.7894 31.1452L15.7906 25.8465L4.17978 19.2172L0.873657 24.2143Z" fill="#171A1C"/>
<path d="M5.36859 19.8304C5.29531 19.8309 5.2232 19.8124 5.15961 19.7768C5.11014 19.7499 5.06662 19.7137 5.03154 19.6703C4.99646 19.6269 4.97053 19.5771 4.95524 19.5238C4.93995 19.4705 4.9356 19.4148 4.94245 19.3598C4.9493 19.3049 4.96722 19.2518 4.99516 19.2037C5.45767 18.4027 9.55179 11.331 10.5933 10.3155C10.7166 10.1915 10.8434 10.0541 10.977 9.90665C11.95 8.83082 13.4301 7.202 18.1169 7.51034C18.1731 7.51386 18.2281 7.52818 18.2787 7.55249C18.3293 7.5768 18.3745 7.61061 18.4117 7.652C18.4489 7.69339 18.4774 7.74155 18.4956 7.79373C18.5138 7.8459 18.5213 7.90107 18.5177 7.95609C18.5141 8.0111 18.4995 8.06489 18.4746 8.11437C18.4498 8.16385 18.4152 8.20805 18.3729 8.24447C18.3306 8.28088 18.2814 8.30878 18.228 8.32658C18.1747 8.34438 18.1183 8.35173 18.0621 8.34821C13.7864 8.07004 12.5324 9.45085 11.6177 10.463C11.4704 10.6205 11.3333 10.7713 11.1963 10.9054C10.3877 11.6997 6.98568 17.4643 5.74203 19.6193C5.70472 19.6839 5.65041 19.7375 5.58474 19.7746C5.51907 19.8118 5.44444 19.831 5.36859 19.8304Z" fill="#171A1C"/>
<path d="M24.3591 20.5948C24.0359 20.5956 23.7173 20.5197 23.4307 20.3736L16.8629 17.0221C16.7621 16.9706 16.6863 16.8819 16.6522 16.7757C16.6182 16.6695 16.6287 16.5544 16.6814 16.4557C16.7341 16.3571 16.8247 16.2829 16.9333 16.2496C17.0418 16.2163 17.1595 16.2265 17.2604 16.2781L23.8281 19.6296C24.0884 19.762 24.3904 19.7931 24.6732 19.7166C24.956 19.6401 25.1988 19.4618 25.3527 19.2173L32.9756 7.05815C33.0549 6.92863 33.1073 6.78506 33.1298 6.63567C33.1522 6.48629 33.1443 6.33404 33.1064 6.18767C33.0685 6.0413 33.0014 5.90369 32.909 5.78275C32.8166 5.66182 32.7007 5.55993 32.5679 5.48295L24.6675 1.00536C24.4135 0.85414 24.1097 0.804584 23.8193 0.867015C23.5289 0.929447 23.2744 1.09905 23.1086 1.34051L15.9379 12.1457C15.8761 12.239 15.779 12.3045 15.6678 12.3278C15.5567 12.351 15.4406 12.3302 15.3452 12.2697C15.2498 12.2093 15.1828 12.1142 15.1591 12.0055C15.1353 11.8968 15.1567 11.7832 15.2184 11.6899L22.3891 0.898115C22.6708 0.47365 23.1087 0.171461 23.6119 0.0541617C24.1151 -0.063138 24.6452 0.0134422 25.0923 0.268035L32.9996 4.75903C33.458 5.02155 33.7919 5.45056 33.9286 5.9527C34.0652 6.45484 33.9936 6.98947 33.7293 7.44022L33.3388 7.26594L33.7053 7.48379L26.0824 19.6564C25.901 19.9438 25.6474 20.1809 25.3457 20.3452C25.044 20.5094 24.7044 20.5954 24.3591 20.5948Z" fill="#171A1C"/>
<path d="M14.6635 24.7706C14.5839 24.7706 14.506 24.7489 14.4383 24.708C14.3707 24.6671 14.316 24.6086 14.2804 24.539C14.2448 24.4694 14.2298 24.3915 14.2369 24.314C14.2441 24.2365 14.2731 24.1625 14.3209 24.1003L14.8964 23.3093C15.0499 23.1189 15.2457 22.965 15.4688 22.8594C15.6919 22.7537 15.9367 22.699 16.1846 22.6993C16.7568 22.6993 18.3293 22.2771 20.4672 18.3793C20.5285 18.2996 20.617 18.2439 20.7166 18.2223C20.8162 18.2007 20.9203 18.2146 21.0104 18.2615C21.1004 18.3084 21.1704 18.3852 21.2078 18.478C21.2451 18.5709 21.2473 18.6737 21.214 18.768C19.0591 22.7161 17.2844 23.5439 16.1743 23.5439C16.0591 23.5409 15.9447 23.5645 15.8405 23.6129C15.7364 23.6612 15.6453 23.7329 15.5748 23.8221L15.0129 24.5929C14.9736 24.6479 14.9213 24.6928 14.8605 24.7238C14.7996 24.7547 14.732 24.7707 14.6635 24.7706Z" fill="#171A1C"/>
<path d="M8.15396 7.34275H5.07053C4.95695 7.34275 4.84802 7.29862 4.76771 7.22005C4.68739 7.14149 4.64227 7.03493 4.64227 6.92382C4.64227 6.81271 4.68739 6.70615 4.76771 6.62759C4.84802 6.54902 4.95695 6.50488 5.07053 6.50488H8.15396C8.26754 6.50488 8.37647 6.54902 8.45678 6.62759C8.5371 6.70615 8.58222 6.81271 8.58222 6.92382C8.58222 7.03493 8.5371 7.14149 8.45678 7.22005C8.37647 7.29862 8.26754 7.34275 8.15396 7.34275Z" fill="#171A1C"/>
<path d="M9.18179 5.33216C9.12557 5.33257 9.06985 5.32179 9.01802 5.30047C8.96619 5.27916 8.91933 5.24775 8.8803 5.20816L6.13947 2.52697C6.09988 2.48824 6.06847 2.44226 6.04704 2.39165C6.02562 2.34105 6.01459 2.28681 6.01459 2.23204C6.01459 2.17726 6.02562 2.12303 6.04704 2.07242C6.06847 2.02182 6.09988 1.97584 6.13947 1.93711C6.17906 1.89837 6.22606 1.86765 6.27779 1.84669C6.32952 1.82573 6.38497 1.81494 6.44096 1.81494C6.49695 1.81494 6.5524 1.82573 6.60413 1.84669C6.65586 1.86765 6.70286 1.89837 6.74245 1.93711L9.48328 4.6183C9.52306 4.65692 9.55463 4.70287 9.57617 4.75349C9.59772 4.80411 9.60881 4.8584 9.60881 4.91323C9.60881 4.96806 9.59772 5.02234 9.57617 5.07296C9.55463 5.12358 9.52306 5.16953 9.48328 5.20816C9.44425 5.24775 9.3974 5.27916 9.34557 5.30047C9.29374 5.32179 9.23801 5.33257 9.18179 5.33216Z" fill="#171A1C"/>
<path d="M11.58 3.99172C11.4664 3.99172 11.3575 3.94758 11.2772 3.86901C11.1969 3.79045 11.1518 3.68389 11.1518 3.57278V0.891592C11.1518 0.780483 11.1969 0.673925 11.2772 0.59536C11.3575 0.516794 11.4664 0.472656 11.58 0.472656C11.6936 0.472656 11.8025 0.516794 11.8828 0.59536C11.9632 0.673925 12.0083 0.780483 12.0083 0.891592V3.57278C12.0083 3.68389 11.9632 3.79045 11.8828 3.86901C11.8025 3.94758 11.6936 3.99172 11.58 3.99172Z" fill="#171A1C"/>
</g>
<defs>
<clipPath id="clip0_179_483">
<rect width="34" height="32" fill="white"/>
</clipPath>
</defs>
</svg>
