<svg width="28" height="33" viewBox="0 0 28 33" fill="none" xmlns="http://www.w3.org/2000/svg">
<path d="M13.4697 0.67334L6.8138 3.7007L0.723083 4.26585V12.7144L2.09457 20.8857L11.2522 30.1478L14.2436 31.944L20.6547 27.0844L25.6907 21.3429L26.4826 12.1888L26.7094 4.37024L18.9268 2.96276L13.4697 0.67334Z" fill="#FF8338"/>
<path d="M8.63166 14.1252L6.95779 15.6874L12.7173 21.9329L21.3566 10.6586L19.3372 8.72559L12.5301 17.3649L8.63166 14.1252Z" fill="#FFA670"/>
<path d="M14.2148 32.5018C13.9553 32.5036 13.7023 32.4202 13.4949 32.2642C11.335 30.6443 4.13561 25.0648 1.94698 21.3031C-0.302837 17.419 -0.0508575 7.4586 0.0823319 4.49964C0.0861153 4.28862 0.17285 4.08758 0.323761 3.94004C0.474672 3.7925 0.677618 3.71032 0.888667 3.7113V3.7113C2.64173 3.7113 8.70364 3.50252 13.2213 0.176386L13.4661 0L13.7216 0.151188C18.898 3.20374 24.816 3.62851 26.5078 3.6897C26.7096 3.69625 26.901 3.78105 27.0414 3.92616C27.1818 4.07127 27.2603 4.26532 27.2602 4.46724C27.2602 4.58603 27.2602 16.4759 26.5402 20.4248C25.8851 24.0245 17.4869 30.3996 14.9275 32.2678C14.7216 32.421 14.4715 32.5031 14.2148 32.5018ZM0.97506 4.61123C0.877868 6.88985 0.571892 17.1346 2.73532 20.8531C4.83395 24.478 11.9218 29.9496 14.0384 31.5443C14.0882 31.5803 14.148 31.5997 14.2094 31.5997C14.2708 31.5997 14.3306 31.5803 14.3804 31.5443C19.2796 27.9662 25.1795 22.869 25.6439 20.2664C26.3098 16.6091 26.3638 5.83873 26.3638 4.58603C24.4992 4.50684 18.718 4.03168 13.5201 1.07991C8.88003 4.34485 2.87931 4.61123 0.97506 4.61123Z" fill="#171A1C"/>
<path d="M12.8361 22.4301L6.35662 16.3466C6.26927 16.265 6.21792 16.152 6.21387 16.0325C6.20982 15.913 6.2534 15.7968 6.33503 15.7095C6.41665 15.6221 6.52964 15.5708 6.64913 15.5667C6.76862 15.5627 6.88482 15.6063 6.97218 15.6879L12.7317 21.0874L21.2378 10.0003C21.2738 9.95306 21.3186 9.91333 21.3699 9.8834C21.4212 9.85348 21.4779 9.83395 21.5367 9.82592C21.5955 9.8179 21.6554 9.82154 21.7128 9.83665C21.7702 9.85175 21.8241 9.87801 21.8714 9.91394C21.9187 9.94987 21.9584 9.99475 21.9883 10.046C22.0182 10.0973 22.0378 10.154 22.0458 10.2128C22.0538 10.2717 22.0502 10.3315 22.0351 10.3889C22.02 10.4463 21.9937 10.5002 21.9578 10.5475L12.8361 22.4301Z" fill="#171A1C"/>
<path d="M12.5518 18.3585L8.2321 14.3196C8.18884 14.2792 8.15397 14.2306 8.12948 14.1768C8.10498 14.1229 8.09135 14.0647 8.08934 14.0055C8.08733 13.9463 8.097 13.8874 8.11779 13.8319C8.13858 13.7765 8.17008 13.7257 8.2105 13.6825C8.25092 13.6392 8.29946 13.6043 8.35335 13.5798C8.40724 13.5553 8.46543 13.5417 8.5246 13.5397C8.58376 13.5377 8.64275 13.5474 8.69817 13.5681C8.7536 13.5889 8.80439 13.6204 8.84765 13.6609L12.4474 17.023L18.9556 8.49887C19.0282 8.4034 19.1357 8.34066 19.2545 8.32446C19.3733 8.30826 19.4937 8.33992 19.5892 8.41248C19.6847 8.48503 19.7474 8.59254 19.7636 8.71136C19.7798 8.83017 19.7481 8.95055 19.6756 9.04603L12.5518 18.3585Z" fill="#171A1C"/>
<path d="M21.3566 10.6588L19.1104 9.05332C19.0516 9.02453 18.9998 8.98325 18.9586 8.93235C18.9173 8.88146 18.8877 8.82218 18.8718 8.75866C18.8559 8.69514 18.854 8.62891 18.8663 8.56459C18.8786 8.50027 18.9048 8.43941 18.9431 8.38627C18.9813 8.33312 19.0307 8.28897 19.0878 8.25689C19.1449 8.22481 19.2083 8.20559 19.2736 8.20055C19.3389 8.19552 19.4045 8.20479 19.4659 8.22773C19.5272 8.25068 19.5828 8.28673 19.6288 8.33338L21.875 9.93885C21.9495 10.0145 21.9949 10.1141 22.0031 10.2201C22.0113 10.326 21.9817 10.4314 21.9196 10.5176C21.8576 10.6038 21.767 10.6652 21.6639 10.6911C21.5609 10.7169 21.452 10.7055 21.3566 10.6588Z" fill="#171A1C"/>
<path d="M6.32423 15.7093L8.21768 13.7006C8.25809 13.6574 8.30663 13.6225 8.36053 13.598C8.41442 13.5735 8.47261 13.5599 8.53178 13.5579C8.59094 13.5559 8.64992 13.5655 8.70535 13.5863C8.76078 13.6071 8.81157 13.6386 8.85482 13.679C8.89808 13.7195 8.93295 13.768 8.95744 13.8219C8.98194 13.8758 8.99558 13.934 8.99758 13.9931C8.99959 14.0523 8.98992 14.1113 8.96913 14.1667C8.94834 14.2221 8.91684 14.2729 8.87642 14.3162L6.97937 16.3248C6.8963 16.4054 6.78539 16.4508 6.66968 16.4518C6.55396 16.4527 6.44235 16.409 6.35801 16.3297C6.27368 16.2505 6.22311 16.1418 6.21682 16.0263C6.21053 15.9107 6.249 15.7972 6.32423 15.7093Z" fill="#171A1C"/>
</svg>
