<svg width="26" height="34" viewBox="0 0 26 34" fill="none" xmlns="http://www.w3.org/2000/svg">
<path d="M12.9584 1C10.5931 1 8.28097 1.70022 6.31435 3.0121C4.34774 4.32397 2.815 6.18858 1.90999 8.37011C1.00497 10.5516 0.76834 12.9521 1.23001 15.2679C1.69168 17.5837 2.83092 19.7108 4.50365 21.3802C6.17638 23.0496 8.30746 24.1863 10.6274 24.6466C12.9473 25.1068 15.3518 24.87 17.5369 23.9659C19.7219 23.0619 21.5894 21.5313 22.903 19.5678C24.2166 17.6042 24.9175 15.2958 24.9168 12.9346C24.9168 11.3671 24.6075 9.81491 24.0065 8.36673C23.4055 6.91855 22.5246 5.60275 21.4141 4.49447C20.3036 3.38619 18.9853 2.50716 17.5345 1.90757C16.0836 1.30798 14.5287 0.999589 12.9584 1ZM12.9584 19.2697C11.7033 19.2697 10.4763 18.8982 9.43274 18.2021C8.38914 17.506 7.57575 16.5166 7.09544 15.359C6.61512 14.2014 6.48944 12.9276 6.73431 11.6987C6.97917 10.4698 7.58358 9.34104 8.47109 8.45506C9.3586 7.56908 10.4894 6.96572 11.7204 6.72128C12.9514 6.47684 14.2274 6.60229 15.3869 7.08178C16.5465 7.56127 17.5377 8.37325 18.235 9.41506C18.9323 10.4569 19.3045 11.6817 19.3045 12.9346C19.3045 14.6148 18.6359 16.2262 17.4458 17.4142C16.2556 18.6023 14.6415 19.2697 12.9584 19.2697Z" fill="#FF8338" stroke="#171A1C" stroke-miterlimit="10"/>
<path d="M12.9584 5.1665C11.4193 5.1665 9.91469 5.62213 8.63494 6.47575C7.35519 7.32938 6.35774 8.54268 5.76874 9.96221C5.17973 11.3817 5.02562 12.9438 5.32589 14.4507C5.62616 15.9577 6.36733 17.3419 7.45567 18.4284C8.54402 19.5149 9.93065 20.2547 11.4402 20.5545C12.9498 20.8543 14.5145 20.7004 15.9365 20.1124C17.3585 19.5244 18.5739 18.5287 19.429 17.2512C20.2841 15.9736 20.7405 14.4716 20.7405 12.9351C20.7397 10.875 19.9195 8.89952 18.4603 7.4428C17.001 5.98608 15.0221 5.16733 12.9584 5.1665ZM12.9584 18.5566C11.8422 18.5566 10.751 18.2262 9.82294 17.6071C8.89484 16.988 8.17147 16.1081 7.74431 15.0786C7.31715 14.0492 7.20538 12.9164 7.42315 11.8235C7.64091 10.7306 8.17842 9.72672 8.96771 8.93879C9.757 8.15086 10.7626 7.61428 11.8574 7.39689C12.9522 7.1795 14.0869 7.29107 15.1182 7.7175C16.1494 8.14392 17.0309 8.86604 17.651 9.79254C18.2711 10.719 18.6021 11.8083 18.6021 12.9226C18.6021 14.4168 18.0075 15.8499 16.9491 16.9064C15.8907 17.963 14.4552 18.5566 12.9584 18.5566Z" fill="#FFA670" stroke="#171A1C" stroke-miterlimit="10"/>
<path d="M12.2028 2.49631L12.6668 1.50098" stroke="#171A1C" stroke-miterlimit="10" stroke-linecap="round"/>
<path d="M19.687 5.12571L20.7938 4.61865" stroke="#171A1C" stroke-miterlimit="10" stroke-linecap="round"/>
<path d="M23.2739 12.2432L24.0703 12.7064" stroke="#171A1C" stroke-miterlimit="10" stroke-linecap="round"/>
<path d="M20.5931 19.605L20.9035 20.7975" stroke="#171A1C" stroke-miterlimit="10" stroke-linecap="round"/>
<path d="M5.98216 20.5532L4.82833 21.151" stroke="#171A1C" stroke-miterlimit="10" stroke-linecap="round"/>
<path d="M2.70253 13.5918L1.33236 12.7061" stroke="#171A1C" stroke-miterlimit="10" stroke-linecap="round"/>
<path d="M5.029 6.12045L4.43014 4.87158" stroke="#171A1C" stroke-miterlimit="10" stroke-linecap="round"/>
<path d="M22.6625 23.6108H3.40799C2.26338 23.6108 1.33549 24.5371 1.33549 25.6798V30.4937C1.33549 31.6363 2.26338 32.5626 3.40799 32.5626H22.6625C23.8071 32.5626 24.735 31.6363 24.735 30.4937V25.6798C24.735 24.5371 23.8071 23.6108 22.6625 23.6108Z" fill="#FF8338" stroke="#171A1C" stroke-miterlimit="10"/>
<path d="M24.735 26.9258H1.33549V28.8476H24.735V26.9258Z" fill="#FF8338" stroke="#171A1C" stroke-miterlimit="10"/>
<path d="M4.83774 24.8722L5.25788 23.6108" stroke="#171A1C" stroke-miterlimit="10" stroke-linecap="round"/>
<path d="M4.72486 31.126L5.25788 32.475" stroke="#171A1C" stroke-miterlimit="10" stroke-linecap="round"/>
<path d="M10.2682 24.8722L10.6884 23.6108" stroke="#171A1C" stroke-miterlimit="10" stroke-linecap="round"/>
<path d="M10.1585 31.126L10.6884 32.475" stroke="#171A1C" stroke-miterlimit="10" stroke-linecap="round"/>
<path d="M15.7019 24.8722L16.122 23.6108" stroke="#171A1C" stroke-miterlimit="10" stroke-linecap="round"/>
<path d="M15.589 31.126L16.122 32.475" stroke="#171A1C" stroke-miterlimit="10" stroke-linecap="round"/>
<path d="M21.1324 24.8722L21.5526 23.6108" stroke="#171A1C" stroke-miterlimit="10" stroke-linecap="round"/>
<path d="M21.0227 31.126L21.5526 32.475" stroke="#171A1C" stroke-miterlimit="10" stroke-linecap="round"/>
</svg>
