<svg width="41" height="33" viewBox="0 0 41 33" fill="none" xmlns="http://www.w3.org/2000/svg">
<path d="M1.16275 19.7757V26.7927C1.16275 26.9859 1.23979 27.1714 1.37704 27.3084C1.51429 27.4455 1.70057 27.523 1.89518 27.524H38.9897C39.1849 27.524 39.3722 27.4469 39.5103 27.3098C39.6484 27.1726 39.726 26.9866 39.726 26.7927V19.972C39.7285 19.8365 39.6922 19.703 39.6213 19.5871L34.3393 10.6572C34.275 10.5474 34.1828 10.4562 34.072 10.3927C33.9612 10.3292 33.8355 10.2957 33.7076 10.2954H1.155L1.16275 19.7757Z" fill="#FF8338" stroke="#171A1C" stroke-miterlimit="10"/>
<path d="M24.1201 1H2.29048C1.57777 1 1 1.57386 1 2.28175V20.5881C1 21.296 1.57777 21.8698 2.29048 21.8698H24.1201C24.8328 21.8698 25.4106 21.296 25.4106 20.5881V2.28175C25.4106 1.57386 24.8328 1 24.1201 1Z" fill="#FFA670" stroke="#171A1C" stroke-miterlimit="10"/>
<path d="M31.3127 32.3508C33.5856 32.3508 35.4282 30.5206 35.4282 28.263C35.4282 26.0054 33.5856 24.1753 31.3127 24.1753C29.0397 24.1753 27.1971 26.0054 27.1971 28.263C27.1971 30.5206 29.0397 32.3508 31.3127 32.3508Z" fill="#FF8338" stroke="#171A1C" stroke-miterlimit="10"/>
<path d="M31.3127 29.6298C32.0725 29.6298 32.6884 29.0181 32.6884 28.2634C32.6884 27.5087 32.0725 26.897 31.3127 26.897C30.5529 26.897 29.937 27.5087 29.937 28.2634C29.937 29.0181 30.5529 29.6298 31.3127 29.6298Z" fill="#FFA670" stroke="#171A1C" stroke-miterlimit="10"/>
<path d="M8.58012 32.3508C10.8531 32.3508 12.6957 30.5206 12.6957 28.263C12.6957 26.0054 10.8531 24.1753 8.58012 24.1753C6.30715 24.1753 4.46454 26.0054 4.46454 28.263C4.46454 30.5206 6.30715 32.3508 8.58012 32.3508Z" fill="#FF8338" stroke="#171A1C" stroke-miterlimit="10"/>
<path d="M8.58011 29.6298C9.33991 29.6298 9.95585 29.0181 9.95585 28.2634C9.95585 27.5087 9.33991 26.897 8.58011 26.897C7.82031 26.897 7.20438 27.5087 7.20438 28.2634C7.20438 29.0181 7.82031 29.6298 8.58011 29.6298Z" fill="#FFA670" stroke="#171A1C" stroke-miterlimit="10"/>
<path d="M27.8985 20.4224H28.4876" stroke="#171A1C" stroke-miterlimit="10" stroke-linecap="round"/>
<path d="M28.1039 13.4057V17.8745C28.1039 17.9705 28.1423 18.0625 28.2106 18.1304C28.2789 18.1982 28.3716 18.2363 28.4682 18.2363H35.3159C35.382 18.2368 35.447 18.2194 35.5039 18.186C35.5608 18.1526 35.6075 18.1045 35.639 18.0467C35.6704 17.989 35.6855 17.9238 35.6825 17.8582C35.6795 17.7926 35.6586 17.7291 35.622 17.6744L32.7078 13.2056C32.6748 13.1547 32.6294 13.113 32.5759 13.0841C32.5225 13.0552 32.4625 13.04 32.4016 13.04H28.4682C28.42 13.04 28.3724 13.0495 28.3279 13.0679C28.2835 13.0864 28.2431 13.1134 28.2092 13.1474C28.1754 13.1814 28.1486 13.2217 28.1305 13.2661C28.1125 13.3104 28.1034 13.3579 28.1039 13.4057Z" fill="#FFA670" stroke="#171A1C" stroke-miterlimit="10" stroke-linecap="round"/>
<path d="M30.4872 13.4058V18.2364" stroke="#171A1C" stroke-miterlimit="10" stroke-linecap="round"/>
<path d="M17.5592 5.11865L7.89417 16.9739" stroke="#171A1C" stroke-miterlimit="10" stroke-linecap="round"/>
<path d="M9.88221 9.64906C11.0957 9.64906 12.0795 8.67195 12.0795 7.46662C12.0795 6.26129 11.0957 5.28418 9.88221 5.28418C8.66867 5.28418 7.68491 6.26129 7.68491 7.46662C7.68491 8.67195 8.66867 9.64906 9.88221 9.64906Z" fill="#FFA670" stroke="#171A1C" stroke-miterlimit="10" stroke-linecap="round"/>
<path d="M15.5053 17.1315C16.7188 17.1315 17.7026 16.1544 17.7026 14.949C17.7026 13.7437 16.7188 12.7666 15.5053 12.7666C14.2917 12.7666 13.308 13.7437 13.308 14.949C13.308 16.1544 14.2917 17.1315 15.5053 17.1315Z" fill="#FFA670" stroke="#171A1C" stroke-miterlimit="10" stroke-linecap="round"/>
</svg>
