<svg width="426" height="124" viewBox="0 0 426 124" fill="none" xmlns="http://www.w3.org/2000/svg">
    <g clip-path="url(#clip0_0_1)">
        <path
            d="M52.2363 120.303C44.193 120.303 37.6726 113.109 37.6726 104.234C37.6726 95.3593 44.193 88.165 52.2363 88.165C60.2796 88.165 66.8 95.3593 66.8 104.234C66.8 113.109 60.2796 120.303 52.2363 120.303Z"
            fill="#171A1C" />
        <path
            d="M52.188 121.207C60.717 121.207 67.6529 113.585 67.6529 104.234C67.6529 94.8834 60.717 87.2607 52.188 87.2607C43.659 87.2607 36.7392 94.8834 36.7392 104.234C36.7392 113.585 43.7073 121.207 52.188 121.207ZM52.188 89.0695C59.7354 89.0695 65.8506 95.8685 65.8506 104.234C65.8506 112.6 59.7354 119.399 52.188 119.399C44.6406 119.399 38.5416 112.6 38.5416 104.234C38.5416 95.8685 44.6889 89.0695 52.188 89.0695Z"
            fill="#171A1C" />
        <path
            d="M49.3235 120.303C41.2802 120.303 34.7598 113.109 34.7598 104.234C34.7598 95.3593 41.2802 88.165 49.3235 88.165C57.3669 88.165 63.8873 95.3593 63.8873 104.234C63.8873 113.109 57.3669 120.303 49.3235 120.303Z"
            fill="#171A1C" />
        <path
            d="M49.3236 121.207C57.8365 121.207 64.7724 113.585 64.7724 104.234C64.7724 94.8834 57.8365 87.2607 49.3236 87.2607C40.8106 87.2607 33.8586 94.8834 33.8586 104.234C33.8586 113.585 40.7945 121.207 49.3236 121.207ZM49.3236 89.0695C56.8549 89.0695 62.9861 95.8685 62.9861 104.234C62.9861 112.6 56.8549 119.399 49.3236 119.399C41.7923 119.399 35.661 112.6 35.661 104.234C35.661 95.8685 41.7762 89.0695 49.3236 89.0695Z"
            fill="#171A1C" />
        <path
            d="M160.394 120.303C151.906 120.303 145.026 113.109 145.026 104.234C145.026 95.3593 151.906 88.165 160.394 88.165C168.882 88.165 175.762 95.3593 175.762 104.234C175.762 113.109 168.882 120.303 160.394 120.303Z"
            fill="#171A1C" />
        <path
            d="M160.394 121.207C163.768 121.339 167.104 120.456 169.974 118.67C172.844 116.885 175.116 114.279 176.499 111.188C177.881 108.096 178.311 104.66 177.733 101.322C177.155 97.9834 175.596 94.8947 173.255 92.4526C170.914 90.0105 167.899 88.3267 164.597 87.6175C161.295 86.9083 157.858 87.2061 154.726 88.4728C151.594 89.7394 148.911 91.9169 147.022 94.7255C145.133 97.534 144.124 100.845 144.125 104.234C144.047 108.648 145.716 112.912 148.765 116.094C151.815 119.275 155.996 121.114 160.394 121.207ZM160.394 89.0694C163.411 88.9404 166.397 89.7204 168.968 91.3089C171.539 92.8974 173.578 95.2217 174.822 97.9827C176.065 100.744 176.457 103.815 175.947 106.802C175.437 109.788 174.048 112.553 171.959 114.741C169.869 116.928 167.176 118.438 164.224 119.076C161.272 119.715 158.198 119.452 155.396 118.322C152.595 117.192 150.194 115.246 148.504 112.736C146.813 110.225 145.91 107.264 145.911 104.234C145.833 100.297 147.314 96.4901 150.029 93.6474C152.744 90.8047 156.471 89.1584 160.394 89.0694Z"
            fill="#171A1C" />
        <path
            d="M157.32 120.303C148.833 120.303 141.952 113.109 141.952 104.234C141.952 95.3593 148.833 88.165 157.32 88.165C165.808 88.165 172.689 95.3593 172.689 104.234C172.689 113.109 165.808 120.303 157.32 120.303Z"
            fill="#171A1C" />
        <path
            d="M157.32 121.207C160.694 121.339 164.031 120.456 166.9 118.67C169.77 116.885 172.042 114.279 173.425 111.188C174.808 108.096 175.238 104.66 174.66 101.322C174.081 97.9834 172.522 94.8947 170.181 92.4526C167.84 90.0105 164.825 88.3267 161.523 87.6175C158.222 86.9083 154.784 87.2061 151.652 88.4728C148.52 89.7394 145.838 91.9169 143.948 94.7255C142.059 97.534 141.05 100.845 141.051 104.234C140.973 108.648 142.642 112.912 145.691 116.094C148.741 119.275 152.923 121.114 157.32 121.207ZM157.32 89.0694C160.337 88.9404 163.323 89.7204 165.894 91.3089C168.465 92.8974 170.504 95.2217 171.748 97.9827C172.992 100.744 173.384 103.815 172.874 106.802C172.363 109.788 170.974 112.553 168.885 114.741C166.796 116.928 164.102 118.438 161.15 119.076C158.199 119.715 155.124 119.452 152.323 118.322C149.521 117.192 147.121 115.246 145.43 112.736C143.74 110.225 142.837 107.264 142.837 104.234C142.759 100.297 144.24 96.4901 146.955 93.6474C149.67 90.8047 153.398 89.1584 157.32 89.0694Z"
            fill="#171A1C" />
        <path
            d="M21.1456 100.213V77.9261C21.1456 74.037 22.685 70.3071 25.4253 67.5571C28.1656 64.8071 31.8822 63.2622 35.7575 63.2622H42.7739L65.062 28.5404C65.8207 27.3609 66.8618 26.3911 68.0904 25.7196C69.3189 25.0482 70.6956 24.6965 72.0945 24.6968H224.507C226.641 24.6968 228.687 25.5475 230.196 27.0618C231.705 28.5762 232.553 30.63 232.553 32.7716V100.213H21.1456Z"
            fill="#FFA670" />
        <path
            d="M18.3938 102.91H235.192V32.7234C235.188 29.8807 234.061 27.1556 232.058 25.1455C230.055 23.1354 227.339 22.0043 224.507 22H72.1428C70.2959 21.9983 68.4781 22.4617 66.8559 23.3476C65.2337 24.2335 63.8589 25.5137 62.8574 27.071L41.3095 60.5654H35.7576C33.481 60.559 31.2254 61.0033 29.1201 61.8727C27.0148 62.7421 25.1009 64.0196 23.4881 65.6322C21.8753 67.2447 20.5952 69.1606 19.721 71.2701C18.8469 73.3797 18.3959 75.6416 18.3938 77.9263V102.91ZM229.817 97.5158H23.833V77.9263C23.8373 74.7538 25.095 71.7124 27.3304 69.4691C29.5657 67.2258 32.5963 65.9637 35.7576 65.9594H44.1418L67.3633 30.0748C67.8854 29.2691 68.6014 28.6085 69.4452 28.1541C70.289 27.6996 71.2334 27.466 72.1911 27.4747H224.507C225.915 27.4747 227.266 28.0362 228.262 29.0357C229.258 30.0351 229.817 31.3907 229.817 32.8041V97.5158Z"
            fill="#171A1C" />
        <path
            d="M23.5916 87.4544H64.2413C65.5772 87.4544 66.8584 86.9218 67.803 85.9739C68.7476 85.0259 69.2783 83.7402 69.2783 82.3996V80.6715C69.2783 79.3309 68.7476 78.0452 67.803 77.0972C66.8584 76.1493 65.5772 75.6167 64.2413 75.6167H23.5916C22.2557 75.6167 20.9746 76.1493 20.03 77.0972C19.0853 78.0452 18.5547 79.3309 18.5547 80.6715V82.3996C18.5547 83.7402 19.0853 85.0259 20.03 85.9739C20.9746 86.9218 22.2557 87.4544 23.5916 87.4544ZM64.2413 77.4093C65.0949 77.4093 65.9136 77.7496 66.5172 78.3553C67.1207 78.9611 67.4598 79.7826 67.4598 80.6392V82.3996C67.4598 83.2562 67.1207 84.0777 66.5172 84.6835C65.9136 85.2892 65.0949 85.6295 64.2413 85.6295H23.5916C22.738 85.6295 21.9194 85.2892 21.3158 84.6835C20.7122 84.0777 20.3731 83.2562 20.3731 82.3996V80.6715C20.3731 79.8149 20.7122 78.9934 21.3158 78.3876C21.9194 77.7819 22.738 77.4416 23.5916 77.4416L64.2413 77.4093Z"
            fill="#171A1C" />
        <path
            d="M64.6597 86.5503H23.1571C21.1041 86.5503 19.4397 84.8801 19.4397 82.8197V80.2358C19.4397 78.1754 21.1041 76.5052 23.1571 76.5052H64.6597C66.7128 76.5052 68.3771 78.1754 68.3771 80.2358V82.8197C68.3771 84.8801 66.7128 86.5503 64.6597 86.5503Z"
            fill="#171A1C" />
        <path
            d="M24.2028 85.7182C25.0266 85.7536 25.852 85.6713 26.6283 85.4762C27.4046 85.2811 28.1153 84.9775 28.7166 84.584C29.3179 84.1905 29.7972 83.7154 30.1247 83.1881C30.4523 82.6608 30.6213 82.0924 30.6213 81.5179C30.6213 80.9434 30.4523 80.375 30.1247 79.8477C29.7972 79.3204 29.3179 78.8453 28.7166 78.4518C28.1153 78.0583 27.4046 77.7547 26.6283 77.5596C25.852 77.3645 25.0266 77.2822 24.2028 77.3176C22.2488 77.3176 22.1569 78.1976 22.1569 78.3737V84.6622C22.1569 84.8382 22.2488 85.7182 24.2028 85.7182ZM24.7086 79.1097C25.5264 79.203 26.27 79.4956 26.8066 79.9352C27.3432 80.3749 27.6377 80.933 27.6377 81.5099C27.6377 82.0868 27.3432 82.6449 26.8066 83.0846C26.27 83.5242 25.5264 83.8168 24.7086 83.9101V79.1097Z"
            fill="#171A1C" />
        <path
            d="M63.2436 84.8866C61.4038 84.8866 59.9124 83.3899 59.9124 81.5437C59.9124 79.6974 61.4038 78.2007 63.2436 78.2007C65.0833 78.2007 66.5747 79.6974 66.5747 81.5437C66.5747 83.3899 65.0833 84.8866 63.2436 84.8866Z"
            fill="#FF8338" />
        <path
            d="M63.2436 85.775C64.0813 85.775 64.9003 85.5255 65.5966 85.0581C66.2929 84.5906 66.8354 83.9263 67.1553 83.1493C67.4751 82.3722 67.558 81.5174 67.3934 80.6931C67.2288 79.8687 66.8241 79.1119 66.2306 78.5186C65.637 77.9252 64.8814 77.522 64.0594 77.3599C63.2373 77.1979 62.3858 77.2843 61.6128 77.6082C60.8397 77.9322 60.1798 78.4791 59.7167 79.1797C59.2536 79.8803 59.0081 80.7031 59.0112 81.5438C59.0112 82.1008 59.1208 82.6523 59.3337 83.1667C59.5466 83.6812 59.8586 84.1483 60.2518 84.5414C60.6451 84.9345 61.1117 85.2459 61.6251 85.4576C62.1385 85.6693 62.6885 85.7771 63.2436 85.775ZM63.2436 79.089C63.728 79.0858 64.2025 79.2271 64.6069 79.4949C65.0113 79.7626 65.3273 80.1449 65.5149 80.5931C65.7025 81.0414 65.7532 81.5355 65.6607 82.0127C65.5681 82.4899 65.3364 82.9288 64.995 83.2738C64.6536 83.6187 64.2177 83.8541 63.7428 83.9501C63.2679 84.0462 62.7752 83.9985 62.3274 83.8132C61.8795 83.6279 61.4965 83.3133 61.227 82.9092C60.9575 82.5052 60.8136 82.03 60.8136 81.5438C60.8136 80.8955 61.0691 80.2736 61.5243 79.8137C61.9796 79.3538 62.5976 79.0933 63.2436 79.089Z"
            fill="#171A1C" />
        <path
            d="M15.1752 103.249H242.418C243.13 103.249 243.814 102.965 244.318 102.459C244.822 101.953 245.105 101.267 245.105 100.552C245.105 99.8367 244.822 99.1507 244.318 98.6449C243.814 98.1391 243.13 97.855 242.418 97.855H15.1752C14.4625 97.855 13.7789 98.1391 13.2749 98.6449C12.7709 99.1507 12.4878 99.8367 12.4878 100.552C12.4878 101.267 12.7709 101.953 13.2749 102.459C13.7789 102.965 14.4625 103.249 15.1752 103.249Z"
            fill="#171A1C" />
        <path
            d="M2.68744 123H260.313C261.025 123 261.709 122.716 262.213 122.21C262.717 121.704 263 121.018 263 120.303C263 119.588 262.717 118.902 262.213 118.396C261.709 117.89 261.025 117.606 260.313 117.606H2.68744C1.9747 117.606 1.29111 117.89 0.787109 118.396C0.283112 118.902 0 119.588 0 120.303C0 121.018 0.283112 121.704 0.787109 122.21C1.29111 122.716 1.9747 123 2.68744 123Z"
            fill="#171A1C" />
        <path
            d="M99.9667 59.1441L113.903 37.5359C114.212 37.0406 114.641 36.6324 115.151 36.3499C115.66 36.0673 116.233 35.9197 116.816 35.9209H135.773C136.692 35.9252 137.572 36.2946 138.22 36.9483C138.868 37.602 139.232 38.4869 139.232 39.4092V61.3566C139.235 61.8159 139.146 62.2711 138.97 62.6955C138.795 63.1198 138.538 63.5049 138.213 63.8282C137.887 64.1515 137.501 64.4065 137.077 64.5783C136.652 64.7501 136.198 64.8352 135.74 64.8288L102.847 64.5704C102.219 64.5687 101.602 64.3959 101.064 64.0704C100.525 63.7449 100.085 63.279 99.7891 62.7222C99.4935 62.1654 99.354 61.5386 99.3852 60.9086C99.4165 60.2785 99.6175 59.6687 99.9667 59.1441Z"
            fill="#171A1C" />
        <path
            d="M135.773 65.7333C136.346 65.7354 136.914 65.6236 137.444 65.4045C137.974 65.1853 138.456 64.863 138.861 64.4562C139.266 64.0493 139.588 63.566 139.806 63.0341C140.024 62.5021 140.136 61.932 140.134 61.3567V39.4254C140.134 38.2647 139.674 37.1515 138.856 36.3308C138.038 35.51 136.929 35.0489 135.773 35.0489H116.816C116.085 35.045 115.366 35.2266 114.724 35.5767C114.083 35.9269 113.54 36.4342 113.146 37.0514L99.2104 58.7243C98.7905 59.383 98.5543 60.1426 98.5261 60.9241C98.4979 61.7055 98.6789 62.4802 99.0501 63.1677C99.4214 63.8551 99.9694 64.4302 100.637 64.8331C101.305 65.2361 102.068 65.4521 102.847 65.4587L135.74 65.7333H135.773ZM135.773 36.8415C136.455 36.8415 137.11 37.1137 137.593 37.5983C138.076 38.0829 138.347 38.7401 138.347 39.4254V61.3567C138.349 61.6966 138.284 62.0336 138.156 62.3481C138.027 62.6625 137.837 62.9482 137.598 63.1886C137.358 63.429 137.074 63.6192 136.76 63.7483C136.447 63.8774 136.111 63.9428 135.773 63.9406L102.879 63.6661C102.423 63.6753 101.972 63.5601 101.575 63.3325C101.178 63.105 100.851 62.7738 100.626 62.3741C100.4 61.9716 100.29 61.5141 100.307 61.0523C100.324 60.5906 100.468 60.1425 100.723 59.7579L114.643 38.0204C114.878 37.657 115.2 37.3585 115.579 37.1525C115.959 36.9465 116.384 36.8396 116.816 36.8415H135.773Z"
            fill="#171A1C" />
        <path
            d="M59.494 34.5161L99.3874 35.259C99.8567 35.2713 100.314 35.4075 100.715 35.6539C101.115 35.9003 101.443 36.2481 101.667 36.6624C101.89 37.0767 102.001 37.5427 101.988 38.0137C101.975 38.4846 101.838 38.9437 101.592 39.3449L87.9134 61.2923C87.2033 62.4306 86.2162 63.3689 85.045 64.0187C83.8739 64.6685 82.5572 65.0085 81.2189 65.0067H40.7302"
            fill="#171A1C" />
        <path
            d="M40.7301 65.9108H81.1545C82.6468 65.9178 84.1158 65.5398 85.4206 64.813C86.7253 64.0862 87.822 63.035 88.6054 61.7603L102.348 39.7645C102.681 39.2294 102.867 38.6153 102.886 37.9847C102.906 37.3542 102.758 36.7297 102.459 36.175C102.16 35.6202 101.719 35.155 101.183 34.8266C100.646 34.4983 100.032 34.3186 99.4035 34.3059L59.5101 33.5469V35.3556L99.4035 36.0985C99.7146 36.102 100.019 36.1893 100.285 36.3512C100.551 36.5131 100.769 36.7438 100.916 37.0191C101.075 37.291 101.158 37.6004 101.158 37.9154C101.158 38.2304 101.075 38.5397 100.916 38.8117L87.1571 60.7591C86.5213 61.7585 85.6428 62.5793 84.604 63.1443C83.5653 63.7093 82.4004 64 81.2189 63.989H40.7301V65.9108Z"
            fill="#171A1C" />
        <path
            d="M129.706 72.7259H136.867C137.313 72.6834 137.728 72.4753 138.03 72.1423C138.332 71.8093 138.499 71.3754 138.499 70.9252C138.499 70.475 138.332 70.0411 138.03 69.7081C137.728 69.3751 137.313 69.167 136.867 69.1245H129.706C129.259 69.167 128.844 69.3751 128.543 69.7081C128.241 70.0411 128.073 70.475 128.073 70.9252C128.073 71.3754 128.241 71.8093 128.543 72.1423C128.844 72.4753 129.259 72.6834 129.706 72.7259Z"
            fill="#171A1C" />
        <path
            d="M92.9987 87.1963C84.4374 87.1963 77.4533 94.2698 77.0349 101.456H92.1297V105.042H108.962C108.962 105.042 108.962 104.008 108.962 103.669C108.976 99.3737 107.313 95.2438 104.329 92.1646C101.345 89.0854 97.2775 87.3019 92.9987 87.1963Z"
            fill="#171A1C" />
        <path
            d="M201.848 87.1963C193.287 87.1963 186.303 94.2698 185.885 101.456H201.269V105.042H217.844C217.844 105.042 217.844 104.008 217.844 103.669C217.858 99.3682 216.19 95.2336 213.199 92.1535C210.208 89.0734 206.133 87.2935 201.848 87.1963Z"
            fill="#171A1C" />
        <path
            d="M204.488 120.303C195.644 120.303 188.476 113.109 188.476 104.234C188.476 95.3593 195.644 88.165 204.488 88.165C213.331 88.165 220.5 95.3593 220.5 104.234C220.5 113.109 213.331 120.303 204.488 120.303Z"
            fill="#333333" />
        <path
            d="M204.488 121.207C207.833 121.207 211.103 120.212 213.884 118.347C216.665 116.482 218.833 113.831 220.113 110.729C221.394 107.628 221.728 104.215 221.076 100.923C220.423 97.6302 218.812 94.6059 216.447 92.2321C214.082 89.8584 211.068 88.2418 207.787 87.5869C204.506 86.932 201.106 87.2681 198.015 88.5528C194.925 89.8374 192.283 92.0129 190.425 94.8042C188.566 97.5954 187.574 100.877 187.574 104.234C187.583 108.733 189.368 113.045 192.538 116.227C195.708 119.408 200.005 121.199 204.488 121.207ZM204.488 89.0695C207.476 89.0695 210.398 89.9589 212.883 91.6252C215.368 93.2915 217.305 95.6599 218.448 98.4308C219.592 101.202 219.891 104.251 219.308 107.193C218.725 110.134 217.286 112.836 215.173 114.957C213.059 117.078 210.367 118.522 207.436 119.107C204.504 119.692 201.466 119.392 198.705 118.244C195.944 117.096 193.584 115.153 191.923 112.659C190.263 110.165 189.377 107.233 189.377 104.234C189.381 100.213 190.974 96.3588 193.807 93.5158C196.64 90.6728 200.481 89.0738 204.488 89.0695Z"
            fill="#171A1C" />
        <path
            d="M202.894 120.303C194.051 120.303 186.882 113.109 186.882 104.234C186.882 95.3593 194.051 88.165 202.894 88.165C211.738 88.165 218.906 95.3593 218.906 104.234C218.906 113.109 211.738 120.303 202.894 120.303Z"
            fill="#171A1C" />
        <path
            d="M202.894 121.207C206.24 121.207 209.51 120.212 212.291 118.347C215.072 116.482 217.24 113.831 218.52 110.729C219.8 107.628 220.135 104.215 219.483 100.923C218.83 97.6302 217.219 94.6059 214.854 92.2321C212.489 89.8584 209.475 88.2418 206.194 87.5869C202.913 86.932 199.513 87.2681 196.422 88.5528C193.332 89.8374 190.69 92.0129 188.832 94.8042C186.973 97.5954 185.981 100.877 185.981 104.234C185.985 108.734 187.769 113.049 190.94 116.231C194.111 119.413 198.41 121.203 202.894 121.207ZM202.894 89.0695C205.882 89.0727 208.802 89.9648 211.285 91.633C213.768 93.3013 215.702 95.6708 216.844 98.442C217.985 101.213 218.282 104.262 217.697 107.202C217.112 110.143 215.672 112.844 213.558 114.963C211.444 117.082 208.751 118.525 205.82 119.108C202.89 119.692 199.852 119.391 197.092 118.243C194.332 117.094 191.973 115.151 190.313 112.657C188.653 110.164 187.767 107.233 187.767 104.234C187.772 100.211 189.367 96.3536 192.204 93.5101C195.04 90.6667 198.885 89.0695 202.894 89.0695Z"
            fill="#171A1C" />
        <path
            d="M208.495 112.616C204.886 112.616 201.961 108.863 201.961 104.234C201.961 99.6051 204.886 95.8525 208.495 95.8525C212.103 95.8525 215.028 99.6051 215.028 104.234C215.028 108.863 212.103 112.616 208.495 112.616Z"
            fill="#FF8338" />
        <path
            d="M208.495 113.52C212.582 113.52 215.929 109.354 215.929 104.234C215.929 99.1149 212.582 94.9482 208.495 94.9482C204.407 94.9482 201.06 99.1149 201.06 104.234C201.06 109.354 204.391 113.52 208.495 113.52ZM208.495 96.7409C211.6 96.7409 214.143 100.1 214.143 104.234C214.143 108.369 211.6 111.728 208.495 111.728C205.389 111.728 202.846 108.369 202.846 104.234C202.846 100.1 205.373 96.7409 208.495 96.7409Z"
            fill="#171A1C" />
        <path
            d="M96.2011 120.303C87.3578 120.303 80.189 113.109 80.189 104.234C80.189 95.3593 87.3578 88.165 96.2011 88.165C105.044 88.165 112.213 95.3593 112.213 104.234C112.213 113.109 105.044 120.303 96.2011 120.303Z"
            fill="#171A1C" />
        <path
            d="M96.201 121.207C99.5468 121.211 102.818 120.218 105.602 118.355C108.385 116.492 110.556 113.842 111.838 110.741C113.121 107.639 113.458 104.226 112.807 100.933C112.157 97.6391 110.547 94.6132 108.182 92.2378C105.818 89.8625 102.804 88.2443 99.5227 87.5881C96.2414 86.9318 92.8399 87.267 89.7484 88.5512C86.657 89.8354 84.0146 92.0109 82.1554 94.8025C80.2962 97.5941 79.3039 100.876 79.3039 104.234C79.3081 108.732 81.0892 113.044 84.2567 116.226C87.4241 119.407 91.7195 121.199 96.201 121.207ZM96.201 89.0695C99.1924 89.0567 102.12 89.9352 104.614 91.5937C107.107 93.2522 109.054 95.6161 110.207 98.3859C111.361 101.156 111.669 104.207 111.094 107.153C110.518 110.099 109.084 112.807 106.973 114.934C104.862 117.061 102.17 118.512 99.2371 119.102C96.3042 119.693 93.2626 119.396 90.4977 118.25C87.7328 117.104 85.369 115.161 83.7057 112.666C82.0424 110.17 81.1546 107.236 81.1545 104.234C81.1629 100.226 82.7489 96.3834 85.567 93.5432C88.3851 90.703 92.2072 89.095 96.201 89.0695Z"
            fill="#171A1C" />
        <path
            d="M94.6079 120.303C85.7647 120.303 78.5959 113.109 78.5959 104.234C78.5959 95.3593 85.7647 88.165 94.6079 88.165C103.451 88.165 110.62 95.3593 110.62 104.234C110.62 113.109 103.451 120.303 94.6079 120.303Z"
            fill="#171A1C" />
        <path
            d="M94.6079 121.207C97.953 121.207 101.223 120.212 104.004 118.347C106.786 116.482 108.954 113.831 110.234 110.729C111.514 107.628 111.849 104.215 111.196 100.923C110.544 97.6302 108.933 94.6059 106.567 92.2321C104.202 89.8584 101.188 88.2418 97.9075 87.5869C94.6267 86.932 91.226 87.2681 88.1355 88.5528C85.045 89.8374 82.4035 92.0129 80.545 94.8042C78.6866 97.5954 77.6947 100.877 77.6947 104.234C77.6989 108.734 79.4822 113.049 82.6531 116.231C85.8241 119.413 90.1235 121.203 94.6079 121.207ZM94.6079 89.0695C97.5959 89.0727 100.516 89.9648 102.999 91.633C105.481 93.3013 107.416 95.6708 108.557 98.442C109.698 101.213 109.995 104.262 109.41 107.202C108.825 110.143 107.385 112.844 105.271 114.963C103.157 117.082 100.465 118.525 97.5339 119.108C94.6031 119.692 91.5656 119.391 88.8054 118.243C86.0452 117.094 83.6861 115.151 82.0265 112.657C80.3668 110.164 79.4809 107.233 79.4809 104.234C79.4852 100.211 81.0808 96.3536 83.9172 93.5101C86.7536 90.6667 90.5988 89.0695 94.6079 89.0695Z"
            fill="#171A1C" />
        <path
            d="M100.208 112.81C96.5197 112.81 93.5297 108.97 93.5297 104.234C93.5297 99.4981 96.5197 95.6587 100.208 95.6587C103.896 95.6587 106.886 99.4981 106.886 104.234C106.886 108.97 103.896 112.81 100.208 112.81Z"
            fill="white" />
        <path
            d="M100.208 113.698C104.392 113.698 107.788 109.451 107.788 104.234C107.788 99.0179 104.392 94.7705 100.208 94.7705C96.024 94.7705 92.6285 99.0179 92.6285 104.234C92.6285 109.451 96.024 113.698 100.208 113.698ZM100.208 96.5631C103.427 96.5631 106.001 100.003 106.001 104.234C106.001 108.465 103.394 111.905 100.208 111.905C97.0218 111.905 94.4148 108.465 94.4148 104.234C94.4148 100.003 97.0218 96.5631 100.208 96.5631Z"
            fill="#171A1C" />
        <path
            d="M23.8008 78.1848C23.4468 78.1848 23.2537 78.2656 23.2537 78.3625V84.7093C23.2537 84.8223 23.4468 84.8869 23.8008 84.8869C24.2588 84.9189 24.7185 84.8559 25.1512 84.702C25.5839 84.548 25.9805 84.3064 26.3162 83.9921C26.6519 83.6778 26.9195 83.2975 27.1025 82.875C27.2856 82.4524 27.38 81.9966 27.38 81.5359C27.38 81.0752 27.2856 80.6193 27.1025 80.1968C26.9195 79.7743 26.6519 79.394 26.3162 79.0797C25.9805 78.7654 25.5839 78.5238 25.1512 78.3698C24.7185 78.2159 24.2588 78.1529 23.8008 78.1848Z"
            fill="#FF8338" />
        <path
            d="M158.061 39.4739C157.453 39.4739 156.87 39.715 156.439 40.1446C156.008 40.5742 155.764 41.1575 155.759 41.7672V58.8374C155.764 59.4471 156.008 60.0303 156.439 60.4599C156.87 60.8896 157.453 61.1306 158.061 61.1306H212.888C213.495 61.1306 214.078 60.8896 214.509 60.4599C214.941 60.0303 215.185 59.4471 215.189 58.8374V41.7672C215.185 41.1575 214.941 40.5742 214.509 40.1446C214.078 39.715 213.495 39.4739 212.888 39.4739H158.061ZM158.061 35.8726H212.888C214.446 35.8726 215.94 36.4936 217.041 37.5991C218.143 38.7045 218.762 40.2038 218.762 41.7672V58.8374C218.762 60.4007 218.143 61.9001 217.041 63.0055C215.94 64.111 214.446 64.732 212.888 64.732H158.061C157.289 64.732 156.526 64.5795 155.813 64.2833C155.1 63.9871 154.453 63.5529 153.907 63.0055C153.362 62.4581 152.929 61.8083 152.634 61.0932C152.339 60.378 152.187 59.6115 152.187 58.8374V41.7672C152.187 40.9931 152.339 40.2266 152.634 39.5114C152.929 38.7962 153.362 38.1464 153.907 37.5991C154.453 37.0517 155.1 36.6175 155.813 36.3213C156.526 36.025 157.289 35.8726 158.061 35.8726Z"
            fill="#171A1C" />
        <path
            d="M108.512 100.277H108.641C108.758 100.264 108.872 100.226 108.975 100.167C109.077 100.107 109.167 100.028 109.238 99.9325C109.308 99.8372 109.359 99.7284 109.386 99.6127C109.414 99.4971 109.417 99.377 109.397 99.2599C109.142 97.6943 108.489 96.2215 107.499 94.9848C106.509 93.7481 105.217 92.7896 103.748 92.2025C103.558 92.1942 103.37 92.2468 103.211 92.3528C103.052 92.4588 102.93 92.6126 102.864 92.7922C102.798 92.9718 102.79 93.1678 102.842 93.3521C102.894 93.5363 103.003 93.6993 103.153 93.8175C104.335 94.2925 105.373 95.0678 106.166 96.0673C106.959 97.0668 107.479 98.2561 107.675 99.5183C107.71 99.7203 107.812 99.9047 107.963 100.042C108.115 100.18 108.308 100.262 108.512 100.277Z"
            fill="white" />
        <path
            d="M217.442 100.278H217.651C217.766 100.253 217.874 100.205 217.97 100.138C218.066 100.071 218.148 99.9854 218.211 99.8862C218.274 99.7871 218.316 99.6764 218.336 99.5606C218.356 99.4448 218.353 99.3262 218.327 99.2117C217.948 97.7176 217.253 96.3228 216.29 95.1219C215.326 93.9209 214.117 92.9419 212.743 92.2511C212.636 92.2028 212.521 92.1761 212.404 92.1727C212.287 92.1693 212.171 92.1892 212.062 92.2313C211.952 92.2733 211.853 92.3367 211.768 92.4177C211.683 92.4988 211.615 92.5958 211.568 92.7033C211.52 92.8103 211.494 92.9259 211.49 93.0433C211.487 93.1606 211.507 93.2775 211.549 93.3871C211.59 93.4968 211.654 93.597 211.734 93.682C211.815 93.767 211.912 93.835 212.019 93.8823C213.126 94.4536 214.102 95.2497 214.886 96.22C215.67 97.1903 216.245 98.3136 216.573 99.5185C216.607 99.7269 216.712 99.9169 216.871 100.056C217.03 100.194 217.232 100.273 217.442 100.278Z"
            fill="#FF8338" />
    </g>
    <g clip-path="url(#clip1_0_1)">
        <path
            d="M204.672 121.206C197.071 121.206 190.91 114.417 190.91 106.043C190.91 97.6683 197.071 90.8794 204.672 90.8794C212.273 90.8794 218.434 97.6683 218.434 106.043C218.434 114.417 212.273 121.206 204.672 121.206Z"
            fill="#171A1C" />
        <path
            d="M204.672 121.998C212.696 121.998 219.225 114.798 219.225 106.043C219.225 97.2875 212.696 90.0874 204.672 90.0874C196.648 90.0874 190.162 97.2443 190.162 106.043C190.162 114.841 196.648 121.998 204.672 121.998ZM204.672 91.7578C211.862 91.7578 217.614 98.1947 217.614 106.158C217.614 114.121 211.862 120.558 204.672 120.558C197.482 120.558 191.73 114.107 191.73 106.158C191.73 98.2091 197.525 91.6858 204.672 91.6858V91.7578Z"
            fill="#171A1C" />
        <path
            d="M201.911 121.206C194.31 121.206 188.149 114.417 188.149 106.043C188.149 97.6683 194.31 90.8794 201.911 90.8794C209.512 90.8794 215.673 97.6683 215.673 106.043C215.673 114.417 209.512 121.206 201.911 121.206Z"
            fill="#171A1C" />
        <path
            d="M201.911 121.998C209.95 121.998 216.478 114.798 216.478 106.043C216.478 97.2875 209.95 90.0874 201.911 90.0874C193.872 90.0874 187.286 97.2443 187.286 106.043C187.286 114.841 193.887 121.998 201.911 121.998ZM201.911 91.7578C209.101 91.7578 214.853 98.1947 214.853 106.158C214.853 114.121 209.029 120.558 201.911 120.558C194.793 120.558 188.969 114.107 188.969 106.158C188.969 98.2091 194.778 91.6858 201.911 91.6858V91.7578Z"
            fill="#171A1C" />
        <path
            d="M334.958 121.206C326.929 121.206 320.419 114.417 320.419 106.043C320.419 97.6683 326.929 90.8794 334.958 90.8794C342.987 90.8794 349.497 97.6683 349.497 106.043C349.497 114.417 342.987 121.206 334.958 121.206Z"
            fill="#171A1C" />
        <path
            d="M334.958 121.999C338.135 122.113 341.273 121.275 343.971 119.591C346.668 117.907 348.802 115.454 350.097 112.547C351.392 109.64 351.79 106.411 351.24 103.276C350.69 100.141 349.217 97.2417 347.01 94.9509C344.803 92.66 341.963 91.082 338.853 90.4193C335.744 89.7565 332.508 90.0394 329.561 91.2316C326.613 92.4237 324.089 94.4708 322.311 97.1099C320.534 99.7491 319.585 102.86 319.585 106.043C319.512 110.2 321.09 114.216 323.973 117.208C326.856 120.2 330.807 121.923 334.958 121.999ZM334.958 91.7582C337.826 91.6317 340.666 92.3675 343.112 93.871C345.559 95.3745 347.5 97.5768 348.686 100.194C349.872 102.812 350.249 105.725 349.767 108.559C349.286 111.393 347.969 114.018 345.985 116.095C344.002 118.173 341.442 119.609 338.637 120.218C335.832 120.827 332.909 120.581 330.244 119.512C327.579 118.443 325.295 116.6 323.685 114.221C322.075 111.841 321.213 109.033 321.21 106.158C321.159 104.303 321.474 102.455 322.138 100.722C322.802 98.9891 323.801 97.4045 325.079 96.0595C326.356 94.7146 327.887 93.6358 329.582 92.8853C331.278 92.1347 333.105 91.7272 334.958 91.6862V91.7582Z"
            fill="#171A1C" />
        <path
            d="M332.039 121.206C324.009 121.206 317.5 114.417 317.5 106.043C317.5 97.6683 324.009 90.8794 332.039 90.8794C340.068 90.8794 346.577 97.6683 346.577 106.043C346.577 114.417 340.068 121.206 332.039 121.206Z"
            fill="#171A1C" />
        <path
            d="M332.039 121.998C335.217 122.122 338.36 121.291 341.063 119.612C343.766 117.934 345.905 115.484 347.208 112.578C348.51 109.672 348.914 106.443 348.369 103.305C347.824 100.167 346.355 97.2637 344.15 94.9685C341.944 92.6733 339.104 91.0908 335.994 90.4243C332.884 89.7579 329.646 90.038 326.696 91.2285C323.746 92.4191 321.218 94.4659 319.439 97.1057C317.659 99.7456 316.709 102.858 316.709 106.043C316.64 110.191 318.214 114.199 321.086 117.188C323.959 120.178 327.897 121.908 332.039 121.998ZM332.039 91.758C334.907 91.6286 337.748 92.362 340.197 93.8636C342.645 95.3652 344.588 97.5664 345.777 100.184C346.965 102.801 347.344 105.714 346.864 108.549C346.385 111.384 345.069 114.01 343.086 116.089C341.103 118.168 338.544 119.606 335.738 120.216C332.932 120.826 330.008 120.581 327.343 119.513C324.677 118.445 322.392 116.602 320.781 114.222C319.171 111.842 318.308 109.033 318.306 106.158C318.254 104.304 318.569 102.458 319.232 100.725C319.895 98.9931 320.893 97.4091 322.169 96.0644C323.445 94.7196 324.974 93.6406 326.668 92.8892C328.361 92.1378 330.187 91.7289 332.039 91.686V91.758Z"
            fill="#171A1C" />
        <path
            d="M224.028 101.219H404.933V11.3329C404.929 8.96369 403.986 6.69283 402.312 5.01889C400.638 3.34496 398.369 2.40478 396.003 2.40479H222.906C220.543 2.40859 218.277 3.35045 216.606 5.02398C214.935 6.6975 213.994 8.96619 213.99 11.3329L224.028 101.219Z"
            fill="#FFA670" />
        <path
            d="M221.885 103.681H407.306V11.3329C407.302 8.33092 406.11 5.45273 403.992 3.32863C401.873 1.20452 399 0.00761695 396.003 0L222.906 0C219.906 0.00381042 217.03 1.19904 214.908 3.32355C212.786 5.44807 211.593 8.32843 211.589 11.3329V11.6066L221.885 103.681ZM402.531 98.8141H226.113L216.334 11.2177C216.365 9.5077 217.064 7.87793 218.283 6.67938C219.501 5.48083 221.141 4.80939 222.849 4.80966H396.003C397.732 4.80966 399.39 5.49647 400.614 6.71941C401.838 7.94235 402.527 9.60154 402.531 11.3329V98.8141Z"
            fill="#171A1C" />
        <path
            d="M275.337 2.4048H221.655C219.622 2.4048 217.673 3.21344 216.235 4.65284C214.798 6.09224 213.99 8.04448 213.99 10.0801V101.219H283.016V10.0801C283.016 9.07095 282.817 8.07171 282.431 7.13956C282.045 6.20741 281.479 5.36065 280.766 4.64774C280.053 3.93484 279.206 3.36978 278.275 2.98491C277.343 2.60004 276.345 2.40291 275.337 2.4048Z"
            fill="#FFA670" />
        <path
            d="M211.589 103.681H285.403V10.9441C285.4 8.04274 284.247 5.26127 282.198 3.20967C280.149 1.15807 277.372 0.00381011 274.474 0L222.518 0C219.621 0.00381011 216.843 1.15807 214.794 3.20967C212.745 5.26127 211.593 8.04274 211.589 10.9441V103.681ZM280.615 98.8861H216.406V10.9441C216.406 9.31718 217.052 7.75685 218.201 6.60641C219.35 5.45597 220.908 4.80966 222.532 4.80966H274.474C276.099 4.80966 277.657 5.45597 278.806 6.60641C279.955 7.75685 280.6 9.31718 280.6 10.9441L280.615 98.8861Z"
            fill="#171A1C" />
        <path
            d="M175.293 81.2171V102.241H269.139V38.5926C269.139 37.5967 268.943 36.6105 268.562 35.6906C268.181 34.7707 267.622 33.935 266.919 33.2315C266.215 32.528 265.379 31.9703 264.46 31.5905C263.54 31.2107 262.555 31.0162 261.561 31.0181H209.878C208.555 31.0161 207.252 31.3458 206.089 31.9771C204.926 32.6085 203.94 33.5214 203.22 34.6325L182.109 67.3929C182.109 67.3929 175.293 74.3338 175.293 81.2171Z"
            fill="#FF8338" />
        <path
            d="M172.906 104.646H271.555V38.5926C271.551 35.9446 270.498 33.4064 268.627 31.5353C266.756 29.6642 264.219 28.6133 261.575 28.6133H209.892C208.174 28.6149 206.484 29.0481 204.977 29.8733C203.469 30.6985 202.193 31.8893 201.264 33.3365L180.269 65.8954C179.104 67.1338 172.949 74.0315 172.949 81.2172L172.906 104.646ZM266.752 99.851H177.709V81.2172C177.709 76.3787 182.124 70.8058 183.835 69.0634L184.137 68.689L205.233 36.0006C205.732 35.2217 206.42 34.5813 207.232 34.1384C208.043 33.6955 208.953 33.4643 209.878 33.4661H261.561C262.934 33.4661 264.25 34.0123 265.221 34.9845C266.192 35.9567 266.738 37.2753 266.738 38.6502L266.752 99.851Z"
            fill="#171A1C" />
        <path
            d="M178.399 89.3677H216.608C217.489 89.3677 218.334 89.0172 218.957 88.3934C219.58 87.7696 219.93 86.9235 219.93 86.0412V83.1612C219.93 82.279 219.58 81.4329 218.957 80.809C218.334 80.1852 217.489 79.8348 216.608 79.8348H176.961C176.714 79.8348 176.469 79.8835 176.24 79.9783C176.012 80.0731 175.804 80.2121 175.629 80.3873C175.454 80.5624 175.315 80.7704 175.221 80.9993C175.126 81.2281 175.077 81.4734 175.077 81.7212V86.0412C175.077 86.9235 175.427 87.7696 176.05 88.3934C176.673 89.0172 177.518 89.3677 178.399 89.3677Z"
            fill="#171A1C" />
        <path
            d="M178.773 90.1597H216.248C217.439 90.1597 218.582 89.6868 219.426 88.8446C220.27 88.0025 220.745 86.8597 220.749 85.6668V83.5932C220.745 82.399 220.27 81.2547 219.427 80.4103C218.583 79.5658 217.441 79.0897 216.248 79.0859H177.22C176.457 79.0859 175.726 79.3894 175.186 79.9295C174.647 80.4696 174.344 81.2021 174.344 81.966V85.638C174.336 86.8247 174.798 87.9662 175.627 88.8133C176.457 89.6605 177.588 90.1445 178.773 90.1597ZM216.248 80.6412C217.011 80.6412 217.743 80.9446 218.282 81.4847C218.821 82.0248 219.124 82.7574 219.124 83.5212V85.5948C219.124 86.3587 218.821 87.0912 218.282 87.6313C217.743 88.1714 217.011 88.4749 216.248 88.4749H178.773C178.01 88.4749 177.279 88.1714 176.739 87.6313C176.2 87.0912 175.897 86.3587 175.897 85.5948V81.9948C175.897 81.6511 176.033 81.3214 176.276 81.0784C176.519 80.8353 176.848 80.6988 177.191 80.6988L216.248 80.6412Z"
            fill="#171A1C" />
        <path
            d="M215.083 87.7834C213.344 87.7834 211.934 86.3714 211.934 84.6297C211.934 82.888 213.344 81.4761 215.083 81.4761C216.823 81.4761 218.233 82.888 218.233 84.6297C218.233 86.3714 216.823 87.7834 215.083 87.7834Z"
            fill="#FF8338" />
        <path
            d="M215.083 88.59C215.866 88.59 216.63 88.3578 217.28 87.9226C217.931 87.4875 218.438 86.869 218.737 86.1454C219.036 85.4218 219.115 84.6256 218.962 83.8574C218.809 83.0892 218.433 82.3836 217.88 81.8298C217.327 81.276 216.622 80.8988 215.855 80.746C215.088 80.5932 214.293 80.6716 213.57 80.9714C212.847 81.2711 212.23 81.7787 211.795 82.4299C211.361 83.0811 211.129 83.8468 211.129 84.63C211.129 85.6802 211.545 86.6875 212.287 87.4302C213.029 88.1728 214.035 88.59 215.083 88.59ZM215.083 82.2683C215.55 82.2655 216.008 82.4016 216.398 82.6593C216.787 82.9171 217.092 83.2849 217.272 83.7162C217.453 84.1475 217.502 84.6228 217.413 85.0818C217.323 85.5409 217.1 85.963 216.77 86.2947C216.441 86.6265 216.021 86.8528 215.563 86.9451C215.105 87.0374 214.63 86.9915 214.199 86.8132C213.767 86.6349 213.398 86.3322 213.138 85.9435C212.878 85.5548 212.739 85.0977 212.739 84.63C212.739 84.0061 212.986 83.4076 213.425 82.9651C213.864 82.5226 214.46 82.2721 215.083 82.2683Z"
            fill="#171A1C" />
        <path
            d="M169.397 106.389H412.411C413.047 106.389 413.658 106.135 414.109 105.684C414.559 105.233 414.812 104.622 414.812 103.984C414.812 103.346 414.559 102.734 414.109 102.283C413.658 101.832 413.047 101.579 412.411 101.579H169.383C168.746 101.579 168.135 101.832 167.684 102.283C167.234 102.734 166.981 103.346 166.981 103.984C166.981 104.622 167.234 105.233 167.684 105.684C168.135 106.135 168.746 106.389 169.383 106.389H169.397Z"
            fill="#171A1C" />
        <path
            d="M161.402 124H423.598C424.235 124 424.846 123.747 425.297 123.296C425.747 122.845 426 122.233 426 121.595C426 120.957 425.747 120.346 425.297 119.895C424.846 119.444 424.235 119.19 423.598 119.19H161.402C160.765 119.19 160.154 119.444 159.703 119.895C159.253 120.346 159 120.957 159 121.595C159 122.233 159.253 122.845 159.703 123.296C160.154 123.747 160.765 124 161.402 124Z"
            fill="#171A1C" />
        <path
            d="M234.669 63.5626L247.827 43.2007C248.113 42.7278 248.513 42.3346 248.991 42.0577C249.468 41.7808 250.008 41.6291 250.56 41.6167H257.894C258.763 41.6167 259.597 41.9626 260.212 42.5783C260.827 43.1941 261.172 44.0292 261.172 44.8999V65.593C261.174 66.0259 261.09 66.4549 260.925 66.8551C260.76 67.2552 260.518 67.6186 260.211 67.924C259.905 68.2295 259.541 68.4709 259.141 68.6344C258.74 68.7979 258.312 68.8801 257.879 68.8763L237.373 68.6171C236.787 68.6115 236.214 68.4485 235.713 68.1449C235.213 67.8414 234.802 67.4085 234.526 66.8917C234.25 66.3749 234.117 65.7932 234.142 65.2075C234.168 64.6218 234.35 64.0536 234.669 63.5626Z"
            fill="#171A1C" />
        <path
            d="M257.908 69.6827C258.99 69.6789 260.027 69.2468 260.792 68.4807C261.557 67.7145 261.988 66.6765 261.992 65.593V44.9C261.988 43.8178 261.556 42.7813 260.791 42.0174C260.025 41.2536 258.989 40.8247 257.908 40.8247H250.56C249.88 40.8246 249.211 40.9945 248.613 41.3189C248.016 41.6433 247.508 42.1119 247.137 42.6823L233.979 63.1306C233.587 63.7453 233.365 64.454 233.338 65.1831C233.312 65.9123 233.48 66.6354 233.826 67.2774C234.172 67.9194 234.684 68.457 235.308 68.8344C235.931 69.2117 236.644 69.4151 237.373 69.4235L257.865 69.6827H257.908ZM257.908 42.4231C258.565 42.4231 259.196 42.6836 259.662 43.1477C260.128 43.6118 260.392 44.2417 260.396 44.9V65.593C260.392 66.2568 260.129 66.8928 259.662 67.3642C259.181 67.8123 258.551 68.064 257.894 68.0699L237.402 67.8251C236.956 67.8201 236.52 67.696 236.138 67.4656C235.756 67.2352 235.443 66.9069 235.23 66.5146C235.02 66.1241 234.919 65.6841 234.936 65.2408C234.954 64.7975 235.09 64.3671 235.331 63.9946L248.503 43.5607C248.724 43.2114 249.03 42.9238 249.392 42.7249C249.754 42.526 250.161 42.4221 250.574 42.4231H257.908Z"
            fill="#171A1C" />
        <path
            d="M197.913 40.1333L235.619 40.8389C236.055 40.853 236.481 40.9808 236.854 41.2097C237.226 41.4386 237.533 41.7608 237.743 42.1445C237.954 42.5281 238.061 42.9601 238.054 43.3978C238.047 43.8355 237.926 44.2638 237.704 44.6406L224.761 65.3336C224.088 66.4096 223.153 67.2966 222.044 67.9112C220.935 68.5259 219.687 68.848 218.42 68.8473H180.154"
            fill="#171A1C" />
        <path
            d="M180.182 69.6969H218.448C219.853 69.7051 221.236 69.3519 222.464 68.671C223.693 67.9902 224.727 67.0046 225.466 65.8089L238.408 45.1158C238.721 44.6184 238.895 44.0464 238.913 43.4591C238.93 42.8717 238.791 42.2903 238.509 41.7749C238.232 41.2523 237.817 40.8152 237.311 40.5107C236.804 40.2062 236.224 40.0459 235.633 40.0469L197.928 39.3413V40.9397L235.633 41.6453C235.929 41.6566 236.218 41.7448 236.47 41.9013C236.722 42.0578 236.929 42.2773 237.071 42.5382C237.227 42.7993 237.309 43.0979 237.309 43.4022C237.309 43.7064 237.227 44.005 237.071 44.2662L224.129 64.9592C223.53 65.923 222.695 66.7174 221.703 67.2669C220.712 67.8163 219.596 68.1026 218.463 68.0985H180.197L180.182 69.6969Z"
            fill="#171A1C" />
        <path
            d="M252.53 77.574H262.064C262.463 77.5361 262.834 77.3506 263.103 77.0537C263.373 76.7568 263.523 76.3698 263.523 75.9684C263.523 75.567 263.373 75.1801 263.103 74.8831C262.834 74.5862 262.463 74.4007 262.064 74.3628H252.472C252.073 74.4007 251.703 74.5862 251.433 74.8831C251.163 75.1801 251.014 75.567 251.014 75.9684C251.014 76.3698 251.163 76.7568 251.433 77.0537C251.703 77.3506 252.073 77.5361 252.472 77.574H252.53Z"
            fill="#171A1C" />
        <path
            d="M250.488 90.7212C247.188 90.8473 244.05 92.1878 241.675 94.486C239.3 96.7843 237.856 99.8789 237.617 103.177H249.309V104.79H263.272C263.293 104.459 263.293 104.127 263.272 103.797C263.273 100.376 261.935 97.0907 259.545 94.6463C257.155 92.2019 253.903 90.7928 250.488 90.7212Z"
            fill="#171A1C" />
        <path
            d="M381.766 90.7212C374.892 90.7212 369.284 96.8269 368.939 103.221H378.832V104.833H394.651C394.651 104.833 394.651 104.113 394.651 103.84C394.659 100.395 393.311 97.0866 390.899 94.6309C388.487 92.1752 385.205 90.7704 381.766 90.7212Z"
            fill="#171A1C" />
        <path
            d="M376.632 121.206C368.269 121.206 361.49 114.417 361.49 106.043C361.49 97.6683 368.269 90.8794 376.632 90.8794C384.995 90.8794 391.775 97.6683 391.775 106.043C391.775 114.417 384.995 121.206 376.632 121.206Z"
            fill="#333333" />
        <path
            d="M376.632 121.998C379.784 121.998 382.864 121.062 385.484 119.309C388.105 117.556 390.147 115.064 391.353 112.149C392.559 109.233 392.874 106.025 392.26 102.93C391.645 99.835 390.127 96.992 387.899 94.7606C385.671 92.5292 382.831 91.0096 379.741 90.394C376.65 89.7783 373.446 90.0943 370.535 91.3019C367.623 92.5096 365.135 94.5546 363.384 97.1785C361.633 99.8023 360.699 102.887 360.699 106.043C360.703 110.273 362.383 114.329 365.37 117.321C368.357 120.312 372.408 121.994 376.632 121.998ZM376.632 91.7578C379.476 91.7578 382.257 92.6024 384.622 94.1847C386.986 95.767 388.83 98.016 389.918 100.647C391.006 103.279 391.291 106.174 390.736 108.967C390.181 111.761 388.812 114.327 386.801 116.34C384.79 118.354 382.227 119.726 379.438 120.282C376.648 120.837 373.757 120.552 371.129 119.462C368.501 118.372 366.256 116.526 364.675 114.158C363.095 111.79 362.252 109.006 362.252 106.158C362.242 104.261 362.607 102.381 363.326 100.625C364.044 98.8698 365.102 97.2738 366.438 95.929C367.775 94.5841 369.363 93.517 371.112 92.7888C372.862 92.0606 374.738 91.6858 376.632 91.6858V91.7578Z"
            fill="#171A1C" />
        <path
            d="M375.122 121.206C366.759 121.206 359.98 114.417 359.98 106.043C359.98 97.6683 366.759 90.8794 375.122 90.8794C383.485 90.8794 390.265 97.6683 390.265 106.043C390.265 114.417 383.485 121.206 375.122 121.206Z"
            fill="#171A1C" />
        <path
            d="M375.122 121.998C378.274 121.998 381.354 121.062 383.974 119.309C386.595 117.556 388.637 115.064 389.843 112.149C391.049 109.233 391.364 106.025 390.75 102.93C390.135 99.835 388.617 96.992 386.389 94.7606C384.161 92.5292 381.322 91.0096 378.231 90.394C375.14 89.7783 371.936 90.0943 369.025 91.3019C366.113 92.5096 363.625 94.5546 361.874 97.1785C360.123 99.8023 359.189 102.887 359.189 106.043C359.193 110.273 360.873 114.329 363.86 117.321C366.847 120.312 370.898 121.994 375.122 121.998ZM375.122 91.7578C377.966 91.7578 380.747 92.6024 383.112 94.1847C385.476 95.767 387.32 98.016 388.408 100.647C389.496 103.279 389.781 106.174 389.226 108.967C388.671 111.761 387.302 114.327 385.291 116.34C383.28 118.354 380.717 119.726 377.928 120.282C375.138 120.837 372.247 120.552 369.619 119.462C366.992 118.372 364.746 116.526 363.165 114.158C361.585 111.79 360.742 109.006 360.742 106.158C360.732 104.261 361.097 102.381 361.816 100.625C362.534 98.8698 363.592 97.2738 364.928 95.929C366.265 94.5841 367.853 93.517 369.603 92.7888C371.352 92.0606 373.228 91.6858 375.122 91.6858V91.7578Z"
            fill="#171A1C" />
        <path
            d="M380.414 113.949C376.999 113.949 374.231 110.409 374.231 106.043C374.231 101.677 376.999 98.1372 380.414 98.1372C383.829 98.1372 386.598 101.677 386.598 106.043C386.598 110.409 383.829 113.949 380.414 113.949Z"
            fill="white" />
        <path
            d="M380.414 114.741C384.268 114.741 387.403 110.838 387.403 106.101C387.403 101.363 384.268 97.4604 380.414 97.4604C376.56 97.4604 373.44 101.363 373.44 106.101C373.44 110.838 376.575 114.741 380.414 114.741ZM380.414 98.9005C383.391 98.9005 385.807 102.097 385.807 106.014C385.807 109.931 383.391 113.113 380.414 113.113C377.438 113.113 375.036 109.931 375.036 106.014C375.036 102.097 377.452 98.9293 380.414 98.9293V98.9005Z"
            fill="#171A1C" />
        <path
            d="M246.246 121.206C237.883 121.206 231.103 114.417 231.103 106.043C231.103 97.6683 237.883 90.8794 246.246 90.8794C254.609 90.8794 261.388 97.6683 261.388 106.043C261.388 114.417 254.609 121.206 246.246 121.206Z"
            fill="#171A1C" />
        <path
            d="M246.246 121.998C249.397 121.998 252.477 121.062 255.098 119.309C257.718 117.556 259.76 115.064 260.966 112.149C262.172 109.233 262.488 106.025 261.873 102.93C261.258 99.835 259.741 96.992 257.512 94.7606C255.284 92.5292 252.445 91.0096 249.354 90.394C246.263 89.7783 243.06 90.0943 240.148 91.3019C237.237 92.5096 234.748 94.5546 232.997 97.1785C231.247 99.8023 230.312 102.887 230.312 106.043C230.316 110.273 231.996 114.329 234.983 117.321C237.97 120.312 242.021 121.994 246.246 121.998ZM246.246 91.7578C249.09 91.7578 251.87 92.6024 254.235 94.1847C256.6 95.767 258.443 98.016 259.531 100.647C260.62 103.279 260.904 106.174 260.35 108.967C259.795 111.761 258.425 114.327 256.414 116.34C254.403 118.354 251.841 119.726 249.051 120.282C246.262 120.837 243.37 120.552 240.742 119.462C238.115 118.372 235.869 116.526 234.289 114.158C232.709 111.79 231.865 109.006 231.865 106.158C231.856 104.261 232.221 102.381 232.939 100.625C233.658 98.8698 234.715 97.2738 236.052 95.929C237.388 94.5841 238.976 93.517 240.726 92.7888C242.475 92.0606 244.351 91.6858 246.246 91.6858V91.7578Z"
            fill="#171A1C" />
        <path
            d="M244.721 121.206C236.358 121.206 229.579 114.417 229.579 106.043C229.579 97.6683 236.358 90.8794 244.721 90.8794C253.084 90.8794 259.864 97.6683 259.864 106.043C259.864 114.417 253.084 121.206 244.721 121.206Z"
            fill="#171A1C" />
        <path
            d="M244.721 121.998C247.873 121.998 250.953 121.062 253.573 119.309C256.194 117.556 258.236 115.064 259.442 112.149C260.648 109.233 260.963 106.025 260.349 102.93C259.734 99.835 258.216 96.992 255.988 94.7606C253.76 92.5292 250.921 91.0096 247.83 90.394C244.739 89.7783 241.535 90.0943 238.624 91.3019C235.712 92.5096 233.224 94.5546 231.473 97.1785C229.722 99.8023 228.788 102.887 228.788 106.043C228.792 110.273 230.472 114.329 233.459 117.321C236.446 120.312 240.497 121.994 244.721 121.998ZM244.721 91.7578C247.565 91.7578 250.346 92.6024 252.711 94.1847C255.075 95.767 256.919 98.016 258.007 100.647C259.095 103.279 259.38 106.174 258.825 108.967C258.27 111.761 256.901 114.327 254.89 116.34C252.879 118.354 250.316 119.726 247.527 120.282C244.737 120.837 241.846 120.552 239.218 119.462C236.59 118.372 234.345 116.526 232.764 114.158C231.184 111.79 230.341 109.006 230.341 106.158C230.331 104.261 230.696 102.381 231.415 100.625C232.133 98.8698 233.191 97.2738 234.527 95.929C235.864 94.5841 237.452 93.517 239.202 92.7888C240.951 92.0606 242.827 91.6858 244.721 91.6858V91.7578Z"
            fill="#171A1C" />
        <path
            d="M250.028 114.121C246.541 114.121 243.715 110.504 243.715 106.043C243.715 101.581 246.541 97.9644 250.028 97.9644C253.514 97.9644 256.341 101.581 256.341 106.043C256.341 110.504 253.514 114.121 250.028 114.121Z"
            fill="white" />
        <path
            d="M250.028 114.928C253.953 114.928 257.218 110.939 257.218 106.043C257.218 101.147 254.025 97.1582 250.028 97.1582C246.03 97.1582 242.909 101.133 242.909 106.043C242.909 110.954 246.102 114.928 250.028 114.928ZM250.028 98.7566C253.062 98.7566 255.55 102.025 255.55 106.043C255.55 110.061 253.062 113.243 250.028 113.243C246.993 113.243 244.506 109.989 244.506 106.043C244.506 102.097 246.979 98.7566 250.028 98.7566Z"
            fill="#171A1C" />
        <path
            d="M178.27 81.7065C177.968 81.7065 178.183 81.7065 178.183 81.8505V87.3946C178.183 87.481 177.968 87.5386 178.27 87.5386C179.032 87.5386 179.764 87.2352 180.303 86.6951C180.843 86.155 181.146 85.4224 181.146 84.6586C181.146 83.8947 180.843 83.1622 180.303 82.6221C179.764 82.082 179.032 81.7785 178.27 81.7785V81.7065Z"
            fill="#FF8338" />
        <path
            d="M178.27 88.3449C179.254 88.3449 180.197 87.9535 180.893 87.2567C181.589 86.56 181.98 85.615 181.98 84.6297C181.98 83.6443 181.589 82.6993 180.893 82.0026C180.197 81.3058 179.254 80.9144 178.27 80.9144C178.087 80.8944 177.903 80.9322 177.743 81.0227C177.583 81.1131 177.455 81.2515 177.378 81.4184L177.177 81.908L177.392 82.1384V87.1065L177.206 87.2937L177.378 87.8265C177.451 87.9975 177.577 88.1403 177.738 88.2337C177.899 88.3271 178.085 88.3661 178.27 88.3449ZM178.989 82.5848C179.4 82.7313 179.756 83.0016 180.007 83.3587C180.259 83.7158 180.394 84.1422 180.394 84.5793C180.394 85.0163 180.259 85.4427 180.007 85.7998C179.756 86.1569 179.4 86.4272 178.989 86.5737V82.5848Z"
            fill="#171A1C" />
        <path
            d="M257.922 102.242H258.037C258.247 102.209 258.435 102.096 258.561 101.927C258.688 101.757 258.742 101.544 258.713 101.334C258.472 99.8646 257.855 98.4823 256.923 97.3217C255.991 96.161 254.774 95.2614 253.393 94.7102C253.222 94.7028 253.054 94.7498 252.912 94.8443C252.77 94.9388 252.662 95.0759 252.603 95.2361C252.543 95.3962 252.536 95.571 252.583 95.7352C252.629 95.8995 252.726 96.0448 252.861 96.1502C253.973 96.5976 254.953 97.3217 255.708 98.254C256.463 99.1863 256.967 100.296 257.175 101.478C257.185 101.675 257.266 101.861 257.404 102.002C257.542 102.142 257.726 102.228 257.922 102.242Z"
            fill="white" />
        <path
            d="M388.884 102.241H389.071C389.276 102.19 389.453 102.06 389.563 101.88C389.674 101.699 389.709 101.483 389.661 101.276C389.306 99.8772 388.655 98.5706 387.752 97.4452C386.848 96.3198 385.715 95.4017 384.426 94.7532C384.236 94.6653 384.018 94.657 383.821 94.7299C383.624 94.8028 383.464 94.951 383.377 95.142C383.289 95.3329 383.281 95.551 383.353 95.7481C383.426 95.9453 383.574 96.1054 383.765 96.1932C384.82 96.7505 385.747 97.5206 386.49 98.455C387.233 99.3894 387.774 100.468 388.079 101.622C388.119 101.804 388.222 101.965 388.369 102.078C388.517 102.191 388.699 102.249 388.884 102.241Z"
            fill="white" />
    </g>
    <defs>
        <clipPath id="clip0_0_1">
            <rect width="263" height="101" fill="white" transform="matrix(-1 0 0 1 263 22)" />
        </clipPath>
        <clipPath id="clip1_0_1">
            <rect width="267" height="124" fill="white" transform="matrix(-1 0 0 1 426 0)" />
        </clipPath>
    </defs>
</svg>