<svg width="412" height="153" viewBox="0 0 412 153" fill="none" xmlns="http://www.w3.org/2000/svg">
<path d="M138.06 24.4275H76.3559C72.7414 24.4275 69.2748 25.8639 66.7189 28.4208C64.163 30.9777 62.7271 34.4455 62.7271 38.0615V46.8099C62.7271 50.4259 64.163 53.8937 66.7189 56.4506C69.2748 59.0075 72.7414 60.4439 76.3559 60.4439H97.81L106.953 69.5332L116.038 60.4439H138.004C141.618 60.4439 145.085 59.0075 147.641 56.4506C150.197 53.8937 151.632 50.4259 151.632 46.8099V38.0615C151.632 34.4553 150.204 30.9961 147.661 28.4408C145.117 25.8856 141.665 24.4425 138.06 24.4275Z" fill="white" stroke="#CCCCCC" stroke-width="2" stroke-miterlimit="10"/>
<path d="M78.1618 49.2526C77.0786 49.2953 76.0006 49.0832 75.0143 48.6333C74.028 48.1834 73.1611 47.5083 72.4831 46.6622L74.2889 44.9806C74.7509 45.5873 75.3472 46.0785 76.0311 46.4156C76.7149 46.7527 77.4676 46.9266 78.2299 46.9235C78.8952 46.9455 79.5457 46.7233 80.0584 46.2986C80.2899 46.0928 80.473 45.8385 80.5948 45.5537C80.7165 45.2689 80.7738 44.9607 80.7626 44.6511C80.7738 44.317 80.6954 43.9859 80.5357 43.6923C80.3759 43.3986 80.1406 43.153 79.854 42.981C79.1078 42.5466 78.2519 42.3375 77.3895 42.3788H76.1629L75.7426 40.7655L79.7177 36.5389H73.3462V34.2666H83.0795V36.1981L78.9795 40.4019C80.1264 40.526 81.214 40.9754 82.1141 41.6971C82.5077 42.0621 82.8141 42.511 83.0107 43.0106C83.2073 43.5101 83.289 44.0475 83.2499 44.583C83.2805 45.211 83.1723 45.8381 82.9327 46.4194C82.6932 47.0007 82.3284 47.522 81.8643 47.946C80.8444 48.8424 79.5181 49.3104 78.1618 49.2526Z" fill="#CCCCCC"/>
<path d="M90.9956 49.2526C89.9899 49.2559 88.9938 49.0563 88.0669 48.6659C87.14 48.2755 86.3013 47.7022 85.6008 46.9803L87.1909 45.1056C88.1758 46.1623 89.5309 46.7973 90.9729 46.878C91.7436 46.9148 92.5005 46.6637 93.0967 46.1736C93.3601 45.9374 93.5681 45.6458 93.7055 45.3197C93.843 44.9936 93.9065 44.6412 93.8917 44.2876C93.9015 43.9467 93.8304 43.6084 93.6843 43.3003C93.5383 42.9923 93.3213 42.7232 93.0512 42.5152C92.4124 42.0525 91.6357 41.8203 90.8479 41.8562C89.9102 41.87 88.9871 42.0912 88.1449 42.5038L86.5889 41.4699L87.0091 34.2666H95.7884V36.5389H89.2352L88.9967 39.9474C89.7455 39.6699 90.5377 39.5275 91.3363 39.527C92.6591 39.4546 93.9642 39.8576 95.0161 40.6632C95.5177 41.1191 95.9047 41.687 96.1455 42.3208C96.3862 42.9545 96.474 43.6362 96.4017 44.3103C96.4295 44.987 96.3098 45.6617 96.0509 46.2876C95.792 46.9134 95.4002 47.4754 94.9025 47.9347C93.8112 48.8481 92.4169 49.3185 90.9956 49.2526Z" fill="#CCCCCC"/>
<path d="M105.26 49.2527C104.373 49.2758 103.493 49.0904 102.69 48.7116C101.887 48.3328 101.184 47.7709 100.638 47.0712C99.4324 45.5236 98.8093 43.6012 98.8776 41.6404C98.8195 39.6824 99.4551 37.7668 100.672 36.2322C101.234 35.5494 101.939 34.9994 102.738 34.6218C103.538 34.2442 104.411 34.0483 105.294 34.0483C106.178 34.0483 107.051 34.2442 107.85 34.6218C108.65 34.9994 109.355 35.5494 109.917 36.2322C111.127 37.7734 111.755 39.6928 111.689 41.6517C111.754 43.6143 111.118 45.536 109.894 47.0712C109.347 47.7725 108.642 48.3353 107.837 48.7142C107.032 49.0931 106.15 49.2776 105.26 49.2527ZM102.58 45.4465C102.864 45.912 103.263 46.2966 103.738 46.5634C104.213 46.8303 104.749 46.9704 105.294 46.9704C105.84 46.9704 106.375 46.8303 106.851 46.5634C107.326 46.2966 107.725 45.912 108.009 45.4465C108.716 44.3188 109.068 43.0047 109.02 41.6745C109.068 40.3466 108.703 39.0366 107.975 37.9251C107.696 37.4515 107.3 37.0582 106.824 36.7834C106.348 36.5086 105.81 36.3618 105.26 36.3572C104.72 36.352 104.188 36.4875 103.716 36.7505C103.244 37.0134 102.849 37.3947 102.569 37.857C101.853 38.9811 101.496 40.2969 101.547 41.629C101.485 42.9782 101.846 44.313 102.58 45.4465Z" fill="#CCCCCC"/>
<path d="M120.479 49.2526C119.592 49.2757 118.712 49.0904 117.909 48.7115C117.106 48.3327 116.403 47.7709 115.857 47.0712C114.643 45.5274 114.015 43.6032 114.085 41.6403C114.027 39.6823 114.663 37.7668 115.88 36.2321C116.431 35.5371 117.137 34.9809 117.941 34.608C118.746 34.2351 119.627 34.0559 120.513 34.0848C121.399 34.0635 122.277 34.2497 123.077 34.6285C123.878 35.0072 124.579 35.5681 125.124 36.2662C126.343 37.8035 126.975 39.7247 126.907 41.6857C126.968 43.6476 126.333 45.5676 125.113 47.1052C124.562 47.8003 123.856 48.3565 123.051 48.7294C122.246 49.1023 121.366 49.2815 120.479 49.2526ZM117.799 45.4464C118.081 45.912 118.479 46.2969 118.954 46.5641C119.428 46.8312 119.963 46.9715 120.508 46.9715C121.052 46.9715 121.587 46.8312 122.062 46.5641C122.536 46.2969 122.934 45.912 123.216 45.4464C123.933 44.3223 124.289 43.0065 124.239 41.6744C124.283 40.3453 123.914 39.0352 123.182 37.925C122.906 37.4523 122.511 37.0594 122.037 36.7846C121.564 36.5098 121.027 36.3625 120.479 36.3571C119.937 36.351 119.403 36.4861 118.929 36.749C118.455 37.012 118.058 37.3938 117.776 37.8569C117.06 38.981 116.703 40.2969 116.754 41.6289C116.696 42.9793 117.061 44.3142 117.799 45.4464Z" fill="#CCCCCC"/>
<path d="M128.668 52.0477L128.395 50.9797C129.599 50.7411 130.201 50.1617 130.201 49.23C130.206 49.1923 130.206 49.1541 130.201 49.1164C130.201 49.1164 130.201 49.0255 130.201 49.0028H129.134V46.1169H131.927V48.5597C132.002 49.4755 131.717 50.3843 131.132 51.0933C130.46 51.7096 129.58 52.0503 128.668 52.0477Z" fill="#CCCCCC"/>
<path d="M134.926 43.765V41.345H143.671V43.765H134.926Z" fill="#CCCCCC"/>
<path d="M233.167 13.634H152.45C144.923 13.634 138.821 19.7382 138.821 27.268V43.7197C138.821 51.2495 144.923 57.3536 152.45 57.3536H233.167C240.694 57.3536 246.796 51.2495 246.796 43.7197V27.268C246.796 19.7382 240.694 13.634 233.167 13.634Z" fill="#FFA670"/>
<path d="M155.006 43.4584V40.9815L161.15 35.7552C162.125 34.9919 163.006 34.1146 163.773 33.142C164.239 32.5006 164.493 31.7302 164.5 30.9379C164.519 30.5599 164.455 30.1825 164.314 29.8315C164.173 29.4805 163.957 29.1641 163.683 28.9041C163.116 28.3973 162.375 28.1287 161.616 28.1543C160.866 28.1453 160.133 28.3675 159.514 28.7905C158.735 29.3624 158.049 30.0523 157.481 30.8356L155.267 29.0973C156.016 27.972 156.981 27.0066 158.106 26.2569C159.243 25.6124 160.537 25.2976 161.843 25.3479C163.399 25.2781 164.923 25.8066 166.102 26.8249C166.642 27.3183 167.068 27.9236 167.351 28.5986C167.633 29.2736 167.765 30.0021 167.737 30.7333C167.744 31.3677 167.656 31.9996 167.476 32.608C167.276 33.2162 166.973 33.7852 166.579 34.2895C166.151 34.8448 165.68 35.3652 165.17 35.8461C164.671 36.3119 163.978 36.9141 163.092 37.6412L159.424 40.7089H167.953V43.4584H155.006Z" fill="white"/>
<path d="M177.425 43.7199C175.684 43.7909 173.968 43.2879 172.541 42.2883C171.937 41.8745 171.445 41.3177 171.108 40.6675C170.771 40.0173 170.6 39.2939 170.61 38.5617C170.607 37.5856 170.917 36.6343 171.496 35.8485C172.075 35.0627 172.892 34.4843 173.825 34.1988C173.045 33.8533 172.384 33.2874 171.922 32.5708C171.46 31.8542 171.217 31.0182 171.224 30.1654C171.228 29.4986 171.389 28.8422 171.695 28.2498C172.001 27.6574 172.443 27.1459 172.984 26.7569C174.292 25.861 175.84 25.3816 177.425 25.3816C179.01 25.3816 180.558 25.861 181.866 26.7569C182.416 27.1581 182.863 27.6849 183.169 28.2935C183.475 28.9021 183.632 29.575 183.626 30.2563C183.627 31.1007 183.382 31.927 182.92 32.6335C182.458 33.3401 181.799 33.896 181.025 34.2329C183.16 35.2214 184.239 36.6643 184.239 38.573C184.255 39.3098 184.088 40.0391 183.753 40.6954C183.418 41.3518 182.926 41.9147 182.32 42.3337C180.882 43.3151 179.164 43.8016 177.425 43.7199ZM174.699 40.3114C175.519 40.8159 176.462 41.083 177.425 41.083C178.387 41.083 179.331 40.8159 180.151 40.3114C180.466 40.0926 180.724 39.8006 180.902 39.4602C181.08 39.1198 181.173 38.7413 181.173 38.3572C181.185 37.9595 181.093 37.5656 180.906 37.2146C180.719 36.8637 180.443 36.5682 180.105 36.3575C179.3 35.8715 178.377 35.6146 177.436 35.6146C176.496 35.6146 175.573 35.8715 174.767 36.3575C174.433 36.5741 174.159 36.8725 173.973 37.2244C173.786 37.5763 173.692 37.9701 173.7 38.3685C173.69 38.7503 173.776 39.1284 173.951 39.468C174.125 39.8076 174.383 40.0976 174.699 40.3114ZM175.142 32.415C175.79 32.9193 176.593 33.1806 177.414 33.1535C178.236 33.1864 179.043 32.92 179.685 32.4037C179.975 32.1732 180.207 31.8791 180.365 31.5441C180.522 31.2091 180.601 30.8423 180.594 30.4722C180.593 30.1271 180.512 29.787 180.356 29.4791C180.2 29.1713 179.974 28.9043 179.696 28.6998C179.029 28.237 178.237 27.9891 177.425 27.9891C176.613 27.9891 175.821 28.237 175.153 28.6998C174.875 28.9115 174.649 29.1846 174.493 29.498C174.338 29.8113 174.257 30.1564 174.256 30.5063C174.246 30.8713 174.321 31.2336 174.475 31.5647C174.629 31.8959 174.857 32.187 175.142 32.415Z" fill="white"/>
<path d="M187.908 43.4584L195.915 28.4042H186.942V25.5979H199.435V27.9725L191.383 43.4584H187.908Z" fill="white"/>
<path d="M209.43 43.7649C208.354 43.7951 207.286 43.5724 206.311 43.1146C205.337 42.6568 204.483 41.9767 203.819 41.129C202.353 39.2489 201.596 36.9112 201.684 34.5279C201.611 32.1496 202.383 29.8224 203.865 27.9609C204.544 27.129 205.4 26.4587 206.371 25.9984C207.341 25.5381 208.401 25.2993 209.475 25.2993C210.549 25.2993 211.61 25.5381 212.58 25.9984C213.55 26.4587 214.406 27.129 215.086 27.9609C216.551 29.8338 217.311 32.1624 217.232 34.5393C217.307 36.9211 216.534 39.2522 215.052 41.1176C214.385 41.9656 213.53 42.6464 212.554 43.1059C211.578 43.5654 210.508 43.7911 209.43 43.7649ZM206.182 39.0839C206.529 39.6466 207.016 40.1098 207.595 40.4284C208.174 40.7469 208.826 40.91 209.487 40.9018C210.144 40.9063 210.79 40.7401 211.364 40.4194C211.937 40.0988 212.417 39.6347 212.758 39.0725C213.62 37.7175 214.051 36.1331 213.996 34.5279C214.048 32.9184 213.603 31.3318 212.724 29.9832C212.378 29.4203 211.893 28.9554 211.317 28.6332C210.74 28.3109 210.09 28.142 209.43 28.1427C208.774 28.1336 208.126 28.2966 207.552 28.6156C206.978 28.9345 206.498 29.3982 206.159 29.9605C205.297 31.3156 204.866 32.9 204.921 34.5052C204.861 36.1248 205.301 37.7235 206.182 39.0839Z" fill="white"/>
<path d="M219.379 47.1621L219.061 45.8555C220.526 45.5715 221.253 44.8671 221.253 43.7423C221.258 43.697 221.258 43.6513 221.253 43.6059C221.248 43.5568 221.248 43.5074 221.253 43.4582H219.947V39.9702H223.354V42.9242C223.441 44.0386 223.091 45.1432 222.377 46.0033C221.56 46.7544 220.489 47.1684 219.379 47.1621Z" fill="white"/>
<path d="M227.011 37.1071V34.1758H237.619V37.1071H227.011Z" fill="white"/>
<path d="M176.323 52.2637L192.507 68.454L209.305 51.6501C209.305 51.6501 176.096 52.0364 176.323 52.2637Z" fill="#FFA670"/>
<path d="M59.1041 150.826C64.8058 150.826 69.428 145.739 69.428 139.464C69.428 133.189 64.8058 128.103 59.1041 128.103C53.4024 128.103 48.7803 133.189 48.7803 139.464C48.7803 145.739 53.4024 150.826 59.1041 150.826Z" fill="#171A1C" stroke="#171A1C" stroke-miterlimit="10"/>
<path d="M57.0371 150.826C62.7388 150.826 67.3609 145.739 67.3609 139.464C67.3609 133.189 62.7388 128.103 57.0371 128.103C51.3354 128.103 46.7133 133.189 46.7133 139.464C46.7133 145.739 51.3354 150.826 57.0371 150.826Z" fill="#171A1C" stroke="#171A1C" stroke-miterlimit="10"/>
<path d="M135.823 150.826C141.845 150.826 146.726 145.739 146.726 139.464C146.726 133.189 141.845 128.103 135.823 128.103C129.801 128.103 124.92 133.189 124.92 139.464C124.92 145.739 129.801 150.826 135.823 150.826Z" fill="#171A1C" stroke="#171A1C" stroke-miterlimit="10"/>
<path d="M133.642 150.826C139.664 150.826 144.545 145.739 144.545 139.464C144.545 133.189 139.664 128.103 133.642 128.103C127.621 128.103 122.739 133.189 122.739 139.464C122.739 145.739 127.621 150.826 133.642 150.826Z" fill="#171A1C" stroke="#171A1C" stroke-miterlimit="10"/>
<path d="M36.7756 136.624V120.865C36.7756 118.114 37.8681 115.475 39.8127 113.53C41.7573 111.585 44.3948 110.492 47.1449 110.492H52.108L68.0083 85.9393C68.5493 85.1062 69.2898 84.4214 70.1625 83.9472C71.0352 83.473 72.0124 83.2244 73.0056 83.2239H181.014C182.52 83.2239 183.964 83.8224 185.029 84.8877C186.094 85.9531 186.693 87.3981 186.693 88.9047V136.624H36.7756Z" fill="white" stroke="#171A1C" stroke-width="3" stroke-miterlimit="10"/>
<path d="M67.9401 119.865H38.4792C37.0303 119.865 35.8557 121.04 35.8557 122.49V124.342C35.8557 125.791 37.0303 126.966 38.4792 126.966H67.9401C69.3891 126.966 70.5637 125.791 70.5637 124.342V122.49C70.5637 121.04 69.3891 119.865 67.9401 119.865Z" fill="#171A1C" stroke="#171A1C" stroke-miterlimit="10"/>
<path d="M66.918 125.785C68.2227 125.785 69.2803 124.727 69.2803 123.422C69.2803 122.116 68.2227 121.058 66.918 121.058C65.6133 121.058 64.5557 122.116 64.5557 123.422C64.5557 124.727 65.6133 125.785 66.918 125.785Z" fill="white" stroke="#171A1C" stroke-miterlimit="10"/>
<path d="M32.8006 136.624H194.075" stroke="#171A1C" stroke-width="3" stroke-miterlimit="10" stroke-linecap="round"/>
<path d="M92.9944 107.629L102.875 92.3019C103.097 91.9548 103.403 91.6689 103.764 91.4704C104.125 91.272 104.53 91.1672 104.942 91.1658H118.401C119.051 91.1658 119.675 91.4243 120.135 91.8846C120.596 92.3448 120.854 92.969 120.854 93.6199V109.151C120.854 109.475 120.79 109.796 120.665 110.096C120.54 110.395 120.358 110.666 120.127 110.895C119.897 111.123 119.624 111.303 119.324 111.425C119.024 111.547 118.702 111.608 118.378 111.605L95.0501 111.412C94.6099 111.411 94.1781 111.291 93.8 111.066C93.4219 110.84 93.1114 110.517 92.9012 110.13C92.691 109.743 92.5887 109.307 92.6051 108.867C92.6215 108.427 92.756 107.999 92.9944 107.629Z" fill="#171A1C" stroke="#171A1C" stroke-miterlimit="10"/>
<path d="M65.3961 90.0637L93.6873 90.5977C94.0221 90.6013 94.35 90.6939 94.6372 90.8663C94.9244 91.0386 95.1605 91.2844 95.3212 91.5782C95.482 91.8721 95.5616 92.2035 95.5519 92.5384C95.5422 92.8733 95.4435 93.1995 95.2659 93.4836L85.5554 108.992C85.0525 109.798 84.353 110.463 83.5225 110.924C82.692 111.385 81.7579 111.628 80.808 111.628H52.108" fill="#171A1C"/>
<path d="M65.3961 90.0637L93.6873 90.5977C94.0221 90.6013 94.35 90.6939 94.6372 90.8663C94.9244 91.0386 95.1605 91.2844 95.3212 91.5782C95.482 91.8721 95.5616 92.2035 95.5519 92.5384C95.5422 92.8733 95.4435 93.1995 95.2659 93.4836L85.5554 108.992C85.0525 109.798 84.353 110.463 83.5225 110.924C82.692 111.385 81.7579 111.628 80.808 111.628H52.108" stroke="#171A1C" stroke-miterlimit="10"/>
<path d="M113.438 115.605H120.252" stroke="#171A1C" stroke-width="2" stroke-miterlimit="10" stroke-linecap="round"/>
<path d="M86.8956 127.83C84.0272 127.822 81.2619 128.899 79.1551 130.847C77.0484 132.794 75.7562 135.467 75.5382 138.328H86.1801V140.6H98.2075C98.2075 140.6 98.2075 139.794 98.2075 139.555C98.2208 136.512 97.046 133.583 94.9332 131.393C92.8204 129.203 89.9365 127.925 86.8956 127.83Z" fill="#171A1C"/>
<path d="M164.125 127.83C161.257 127.822 158.492 128.899 156.385 130.847C154.278 132.794 152.986 135.467 152.768 138.328H163.41V140.6H175.437C175.437 140.6 175.437 139.794 175.437 139.555C175.451 136.512 174.276 133.583 172.163 131.393C170.05 129.203 167.166 127.925 164.125 127.83Z" fill="#171A1C"/>
<path d="M167.101 150.826C173.374 150.826 178.458 145.739 178.458 139.464C178.458 133.189 173.374 128.103 167.101 128.103C160.829 128.103 155.744 133.189 155.744 139.464C155.744 145.739 160.829 150.826 167.101 150.826Z" fill="#333333" stroke="#171A1C" stroke-miterlimit="10"/>
<path d="M165.965 150.826C172.238 150.826 177.323 145.739 177.323 139.464C177.323 133.189 172.238 128.103 165.965 128.103C159.693 128.103 154.608 133.189 154.608 139.464C154.608 145.739 159.693 150.826 165.965 150.826Z" fill="#171A1C" stroke="#171A1C" stroke-miterlimit="10"/>
<path d="M169.94 145.997C172.763 145.997 175.051 143.072 175.051 139.464C175.051 135.856 172.763 132.931 169.94 132.931C167.118 132.931 164.83 135.856 164.83 139.464C164.83 143.072 167.118 145.997 169.94 145.997Z" fill="white" stroke="#171A1C" stroke-miterlimit="10"/>
<path d="M90.3028 150.826C96.5753 150.826 101.66 145.739 101.66 139.464C101.66 133.189 96.5753 128.103 90.3028 128.103C84.0303 128.103 78.9454 133.189 78.9454 139.464C78.9454 145.739 84.0303 150.826 90.3028 150.826Z" fill="#171A1C" stroke="#171A1C" stroke-miterlimit="10"/>
<path d="M89.167 150.826C95.4395 150.826 100.524 145.739 100.524 139.464C100.524 133.189 95.4395 128.103 89.167 128.103C82.8945 128.103 77.8097 133.189 77.8097 139.464C77.8097 145.739 82.8945 150.826 89.167 150.826Z" fill="#171A1C" stroke="#171A1C" stroke-miterlimit="10"/>
<path d="M93.1421 145.997C95.9647 145.997 98.2529 143.072 98.2529 139.464C98.2529 135.856 95.9647 132.931 93.1421 132.931C90.3195 132.931 88.0313 135.856 88.0313 139.464C88.0313 143.072 90.3195 145.997 93.1421 145.997Z" fill="white" stroke="#171A1C" stroke-miterlimit="10"/>
<path d="M38.6269 121.047C38.383 121.048 38.1411 121.09 37.9113 121.172V125.66C38.1411 125.742 38.383 125.784 38.6269 125.785C39.2266 125.743 39.7881 125.475 40.1983 125.036C40.6084 124.596 40.8365 124.017 40.8365 123.416C40.8365 122.814 40.6084 122.235 40.1983 121.796C39.7881 121.356 39.2266 121.088 38.6269 121.047Z" fill="white" stroke="#171A1C" stroke-miterlimit="10"/>
<path d="M173.495 91.1318H133.722C131.664 91.1318 129.997 92.8003 129.997 94.8585V107.799C129.997 109.858 131.664 111.526 133.722 111.526H173.495C175.553 111.526 177.221 109.858 177.221 107.799V94.8585C177.221 92.8003 175.553 91.1318 173.495 91.1318Z" stroke="#171A1C" stroke-miterlimit="10"/>
<path d="M84.7604 137.294C84.7604 137.294 84.9421 133 88.6673 131.614" stroke="white" stroke-miterlimit="10" stroke-linecap="round"/>
<path d="M161.99 137.294C161.99 137.294 162.172 133 165.897 131.614" stroke="white" stroke-miterlimit="10" stroke-linecap="round"/>
<path d="M135.198 150.826C140.9 150.826 145.522 145.739 145.522 139.464C145.522 133.189 140.9 128.103 135.198 128.103C129.497 128.103 124.875 133.189 124.875 139.464C124.875 145.739 129.497 150.826 135.198 150.826Z" fill="#171A1C" stroke="#171A1C" stroke-miterlimit="10"/>
<path d="M133.131 150.826C138.833 150.826 143.455 145.739 143.455 139.464C143.455 133.189 138.833 128.103 133.131 128.103C127.43 128.103 122.807 133.189 122.807 139.464C122.807 145.739 127.43 150.826 133.131 150.826Z" fill="#171A1C" stroke="#171A1C" stroke-miterlimit="10"/>
<path d="M112.87 136.624V120.865C112.87 118.114 113.962 115.475 115.907 113.53C117.852 111.585 120.489 110.492 123.239 110.492H128.202L144.103 85.9393C144.644 85.1062 145.384 84.4214 146.257 83.9472C147.129 83.473 148.107 83.2244 149.1 83.2239H257.108C258.614 83.2239 260.059 83.8224 261.123 84.8877C262.188 85.9531 262.787 87.3981 262.787 88.9047V136.624H112.87Z" fill="white"/>
<path d="M264.49 138.328H111.166V120.865C111.169 117.663 112.442 114.593 114.706 112.328C116.969 110.064 120.038 108.791 123.239 108.788H127.271L142.615 85.0192C143.307 83.9431 144.258 83.0586 145.381 82.447C146.505 81.8355 147.764 81.5166 149.043 81.5198H257.108C259.065 81.5228 260.941 82.3018 262.325 83.6862C263.709 85.0705 264.487 86.9471 264.49 88.9049V138.328ZM114.573 134.92H261.083V88.9049C261.083 87.8502 260.664 86.8388 259.919 86.093C259.173 85.3472 258.162 84.9283 257.108 84.9283H149.043C148.333 84.9275 147.635 85.1049 147.012 85.4444C146.389 85.7839 145.861 86.2744 145.477 86.8711L129.133 112.196H123.239C120.942 112.199 118.739 113.114 117.115 114.739C115.49 116.364 114.576 118.567 114.573 120.865V134.92Z" fill="#171A1C"/>
<path d="M144.034 119.865H114.573C113.124 119.865 111.95 121.04 111.95 122.49V124.342C111.95 125.791 113.124 126.966 114.573 126.966H144.034C145.483 126.966 146.658 125.791 146.658 124.342V122.49C146.658 121.04 145.483 119.865 144.034 119.865Z" fill="#171A1C" stroke="#171A1C" stroke-miterlimit="10"/>
<path d="M143.012 125.785C144.317 125.785 145.374 124.727 145.374 123.422C145.374 122.116 144.317 121.058 143.012 121.058C141.707 121.058 140.65 122.116 140.65 123.422C140.65 124.727 141.707 125.785 143.012 125.785Z" fill="white" stroke="#171A1C" stroke-miterlimit="10"/>
<path d="M108.895 136.624H270.169" stroke="#171A1C" stroke-width="3" stroke-miterlimit="10" stroke-linecap="round"/>
<path d="M169.089 107.629L178.97 92.3019C179.192 91.9548 179.497 91.6689 179.858 91.4704C180.219 91.272 180.625 91.1672 181.037 91.1658H194.495C195.146 91.1658 195.77 91.4243 196.23 91.8846C196.69 92.3448 196.948 92.969 196.948 93.6199V109.151C196.948 109.475 196.884 109.796 196.759 110.096C196.635 110.395 196.452 110.666 196.222 110.895C195.991 111.123 195.718 111.303 195.418 111.425C195.118 111.547 194.796 111.608 194.472 111.605L171.144 111.412C170.704 111.411 170.272 111.291 169.894 111.066C169.516 110.84 169.206 110.517 168.995 110.13C168.785 109.743 168.683 109.307 168.699 108.867C168.716 108.427 168.85 107.999 169.089 107.629Z" fill="#171A1C" stroke="#171A1C" stroke-miterlimit="10"/>
<path d="M141.49 90.0637L169.781 90.5977C170.116 90.6013 170.444 90.6939 170.731 90.8663C171.019 91.0386 171.255 91.2844 171.415 91.5782C171.576 91.8721 171.656 92.2035 171.646 92.5384C171.636 92.8733 171.538 93.1995 171.36 93.4836L161.661 108.992C161.158 109.798 160.459 110.463 159.628 110.924C158.798 111.385 157.863 111.628 156.914 111.628H128.202" fill="#171A1C"/>
<path d="M141.49 90.0637L169.781 90.5977C170.116 90.6013 170.444 90.6939 170.731 90.8663C171.019 91.0386 171.255 91.2844 171.415 91.5782C171.576 91.8721 171.656 92.2035 171.646 92.5384C171.636 92.8733 171.538 93.1995 171.36 93.4836L161.661 108.992C161.158 109.798 160.459 110.463 159.628 110.924C158.798 111.385 157.863 111.628 156.914 111.628H128.202" stroke="#171A1C" stroke-miterlimit="10"/>
<path d="M189.532 115.605H196.346" stroke="#171A1C" stroke-width="2" stroke-miterlimit="10" stroke-linecap="round"/>
<path d="M162.99 127.83C160.121 127.822 157.356 128.899 155.249 130.847C153.143 132.794 151.85 135.467 151.632 138.328H162.274V140.6H174.302C174.302 140.6 174.302 139.794 174.302 139.555C174.315 136.512 173.14 133.583 171.027 131.393C168.915 129.203 166.031 127.925 162.99 127.83Z" fill="#171A1C"/>
<path d="M166.397 150.826C172.669 150.826 177.754 145.739 177.754 139.464C177.754 133.189 172.669 128.103 166.397 128.103C160.124 128.103 155.04 133.189 155.04 139.464C155.04 145.739 160.124 150.826 166.397 150.826Z" fill="#171A1C" stroke="#171A1C" stroke-miterlimit="10"/>
<path d="M165.261 150.826C171.534 150.826 176.619 145.739 176.619 139.464C176.619 133.189 171.534 128.103 165.261 128.103C158.989 128.103 153.904 133.189 153.904 139.464C153.904 145.739 158.989 150.826 165.261 150.826Z" fill="#171A1C" stroke="#171A1C" stroke-miterlimit="10"/>
<path d="M169.236 145.997C172.059 145.997 174.347 143.072 174.347 139.464C174.347 135.856 172.059 132.931 169.236 132.931C166.414 132.931 164.125 135.856 164.125 139.464C164.125 143.072 166.414 145.997 169.236 145.997Z" fill="white" stroke="#171A1C" stroke-miterlimit="10"/>
<path d="M114.721 121.047C114.477 121.048 114.235 121.09 114.006 121.172V125.66C114.235 125.742 114.477 125.784 114.721 125.785C115.321 125.743 115.882 125.475 116.292 125.036C116.703 124.596 116.931 124.017 116.931 123.416C116.931 122.814 116.703 122.235 116.292 121.796C115.882 121.356 115.321 121.088 114.721 121.047Z" fill="white" stroke="#171A1C" stroke-miterlimit="10"/>
<path d="M249.59 91.1318H209.816C207.759 91.1318 206.091 92.8003 206.091 94.8585V107.799C206.091 109.858 207.759 111.526 209.816 111.526H249.59C251.647 111.526 253.315 109.858 253.315 107.799V94.8585C253.315 92.8003 251.647 91.1318 249.59 91.1318Z" stroke="#171A1C" stroke-miterlimit="10"/>
<path d="M160.855 137.294C160.855 137.294 161.036 133 164.762 131.614" stroke="white" stroke-miterlimit="10" stroke-linecap="round"/>
<path d="M238.084 137.294C238.084 137.294 238.266 133 241.991 131.614" stroke="white" stroke-miterlimit="10" stroke-linecap="round"/>
<path d="M221.514 150.826C227.216 150.826 231.838 145.739 231.838 139.464C231.838 133.189 227.216 128.103 221.514 128.103C215.812 128.103 211.19 133.189 211.19 139.464C211.19 145.739 215.812 150.826 221.514 150.826Z" fill="#171A1C" stroke="#171A1C" stroke-miterlimit="10"/>
<path d="M219.447 150.826C225.149 150.826 229.771 145.739 229.771 139.464C229.771 133.189 225.149 128.103 219.447 128.103C213.745 128.103 209.123 133.189 209.123 139.464C209.123 145.739 213.745 150.826 219.447 150.826Z" fill="#171A1C" stroke="#171A1C" stroke-miterlimit="10"/>
<path d="M298.233 150.826C304.255 150.826 309.136 145.739 309.136 139.464C309.136 133.189 304.255 128.103 298.233 128.103C292.211 128.103 287.33 133.189 287.33 139.464C287.33 145.739 292.211 150.826 298.233 150.826Z" fill="#171A1C" stroke="#171A1C" stroke-miterlimit="10"/>
<path d="M296.052 150.826C302.074 150.826 306.955 145.739 306.955 139.464C306.955 133.189 302.074 128.103 296.052 128.103C290.031 128.103 285.149 133.189 285.149 139.464C285.149 145.739 290.031 150.826 296.052 150.826Z" fill="#171A1C" stroke="#171A1C" stroke-miterlimit="10"/>
<path d="M199.186 136.624V120.865C199.186 118.114 200.278 115.475 202.223 113.53C204.167 111.585 206.805 110.492 209.555 110.492H214.518L230.418 85.9393C230.959 85.1062 231.7 84.4214 232.572 83.9472C233.445 83.473 234.422 83.2244 235.416 83.2239H343.424C344.93 83.2239 346.374 83.8224 347.439 84.8877C348.504 85.9531 349.103 87.3981 349.103 88.9047V136.624H199.186Z" fill="white"/>
<path d="M350.806 138.328H197.482V120.865C197.485 117.663 198.758 114.593 201.021 112.328C203.285 110.064 206.354 108.791 209.555 108.788H213.587L228.93 85.0192C229.622 83.9431 230.574 83.0586 231.697 82.447C232.821 81.8355 234.08 81.5166 235.359 81.5198H343.424C345.381 81.5228 347.257 82.3018 348.641 83.6862C350.024 85.0705 350.803 86.9471 350.806 88.9049V138.328ZM200.889 134.92H347.399V88.9049C347.399 87.8502 346.98 86.8388 346.235 86.093C345.489 85.3472 344.478 84.9283 343.424 84.9283H235.359C234.649 84.9275 233.951 85.1049 233.328 85.4444C232.705 85.7839 232.177 86.2744 231.793 86.8711L215.449 112.196H209.555C207.258 112.199 205.055 113.114 203.431 114.739C201.806 116.364 200.892 118.567 200.889 120.865V134.92Z" fill="#171A1C"/>
<path d="M230.35 119.865H200.889C199.44 119.865 198.266 121.04 198.266 122.49V124.342C198.266 125.791 199.44 126.966 200.889 126.966H230.35C231.799 126.966 232.974 125.791 232.974 124.342V122.49C232.974 121.04 231.799 119.865 230.35 119.865Z" fill="#171A1C" stroke="#171A1C" stroke-miterlimit="10"/>
<path d="M229.328 125.785C230.633 125.785 231.69 124.727 231.69 123.422C231.69 122.116 230.633 121.058 229.328 121.058C228.023 121.058 226.966 122.116 226.966 123.422C226.966 124.727 228.023 125.785 229.328 125.785Z" fill="white" stroke="#171A1C" stroke-miterlimit="10"/>
<path d="M195.211 136.624H356.485" stroke="#171A1C" stroke-width="3" stroke-miterlimit="10" stroke-linecap="round"/>
<path d="M255.404 107.629L265.285 92.3019C265.507 91.9548 265.813 91.6689 266.174 91.4704C266.535 91.272 266.94 91.1672 267.352 91.1658H280.811C281.461 91.1658 282.085 91.4243 282.546 91.8846C283.006 92.3448 283.264 92.969 283.264 93.6199V109.151C283.264 109.475 283.2 109.796 283.075 110.096C282.95 110.395 282.768 110.666 282.537 110.895C282.307 111.123 282.034 111.303 281.734 111.425C281.434 111.547 281.112 111.608 280.788 111.605L257.46 111.412C257.02 111.411 256.588 111.291 256.21 111.066C255.832 110.84 255.521 110.517 255.311 110.13C255.101 109.743 254.999 109.307 255.015 108.867C255.031 108.427 255.166 107.999 255.404 107.629Z" fill="#171A1C" stroke="#171A1C" stroke-miterlimit="10"/>
<path d="M227.806 90.0637L256.097 90.5977C256.432 90.6013 256.76 90.6939 257.047 90.8663C257.334 91.0386 257.57 91.2844 257.731 91.5782C257.892 91.8721 257.972 92.2035 257.962 92.5384C257.952 92.8733 257.853 93.1995 257.676 93.4836L247.977 108.992C247.474 109.798 246.774 110.463 245.944 110.924C245.113 111.385 244.179 111.628 243.229 111.628H214.518" fill="#171A1C"/>
<path d="M227.806 90.0637L256.097 90.5977C256.432 90.6013 256.76 90.6939 257.047 90.8663C257.334 91.0386 257.57 91.2844 257.731 91.5782C257.892 91.8721 257.972 92.2035 257.962 92.5384C257.952 92.8733 257.853 93.1995 257.676 93.4836L247.977 108.992C247.474 109.798 246.774 110.463 245.944 110.924C245.113 111.385 244.179 111.628 243.229 111.628H214.518" stroke="#171A1C" stroke-miterlimit="10"/>
<path d="M275.848 115.605H282.662" stroke="#171A1C" stroke-width="2" stroke-miterlimit="10" stroke-linecap="round"/>
<path d="M249.306 127.83C246.437 127.822 243.672 128.899 241.565 130.847C239.458 132.794 238.166 135.467 237.948 138.328H248.59V140.6H260.617C260.617 140.6 260.617 139.794 260.617 139.555C260.631 136.512 259.456 133.583 257.343 131.393C255.23 129.203 252.346 127.925 249.306 127.83Z" fill="#171A1C"/>
<path d="M326.535 127.83C323.667 127.822 320.902 128.899 318.795 130.847C316.688 132.794 315.396 135.467 315.178 138.328H325.82V140.6H337.847C337.847 140.6 337.847 139.794 337.847 139.555C337.861 136.512 336.686 133.583 334.573 131.393C332.46 129.203 329.576 127.925 326.535 127.83Z" fill="#171A1C"/>
<path d="M329.511 150.826C335.784 150.826 340.868 145.739 340.868 139.464C340.868 133.189 335.784 128.103 329.511 128.103C323.239 128.103 318.154 133.189 318.154 139.464C318.154 145.739 323.239 150.826 329.511 150.826Z" fill="#333333" stroke="#171A1C" stroke-miterlimit="10"/>
<path d="M328.375 150.826C334.648 150.826 339.733 145.739 339.733 139.464C339.733 133.189 334.648 128.103 328.375 128.103C322.103 128.103 317.018 133.189 317.018 139.464C317.018 145.739 322.103 150.826 328.375 150.826Z" fill="#171A1C" stroke="#171A1C" stroke-miterlimit="10"/>
<path d="M332.35 145.997C335.173 145.997 337.461 143.072 337.461 139.464C337.461 135.856 335.173 132.931 332.35 132.931C329.528 132.931 327.24 135.856 327.24 139.464C327.24 143.072 329.528 145.997 332.35 145.997Z" fill="white" stroke="#171A1C" stroke-miterlimit="10"/>
<path d="M252.713 150.826C258.985 150.826 264.07 145.739 264.07 139.464C264.07 133.189 258.985 128.103 252.713 128.103C246.44 128.103 241.355 133.189 241.355 139.464C241.355 145.739 246.44 150.826 252.713 150.826Z" fill="#171A1C" stroke="#171A1C" stroke-miterlimit="10"/>
<path d="M251.577 150.826C257.85 150.826 262.934 145.739 262.934 139.464C262.934 133.189 257.85 128.103 251.577 128.103C245.305 128.103 240.22 133.189 240.22 139.464C240.22 145.739 245.305 150.826 251.577 150.826Z" fill="#171A1C" stroke="#171A1C" stroke-miterlimit="10"/>
<path d="M255.552 145.997C258.375 145.997 260.663 143.072 260.663 139.464C260.663 135.856 258.375 132.931 255.552 132.931C252.729 132.931 250.441 135.856 250.441 139.464C250.441 143.072 252.729 145.997 255.552 145.997Z" fill="white" stroke="#171A1C" stroke-miterlimit="10"/>
<path d="M201.037 121.047C200.793 121.048 200.551 121.09 200.321 121.172V125.66C200.551 125.742 200.793 125.784 201.037 125.785C201.637 125.743 202.198 125.475 202.608 125.036C203.018 124.596 203.246 124.017 203.246 123.416C203.246 122.814 203.018 122.235 202.608 121.796C202.198 121.356 201.637 121.088 201.037 121.047Z" fill="white" stroke="#171A1C" stroke-miterlimit="10"/>
<path d="M335.905 91.1318H296.132C294.074 91.1318 292.407 92.8003 292.407 94.8585V107.799C292.407 109.858 294.074 111.526 296.132 111.526H335.905C337.963 111.526 339.63 109.858 339.63 107.799V94.8585C339.63 92.8003 337.963 91.1318 335.905 91.1318Z" stroke="#171A1C" stroke-miterlimit="10"/>
<path d="M247.17 137.294C247.17 137.294 247.352 133 251.077 131.614" stroke="white" stroke-miterlimit="10" stroke-linecap="round"/>
<path d="M324.4 137.294C324.4 137.294 324.582 133 328.307 131.614" stroke="white" stroke-miterlimit="10" stroke-linecap="round"/>
<path d="M349.784 0H244.445C236.918 0 230.816 6.10414 230.816 13.634V40.0498C230.816 47.5796 236.918 53.6838 244.445 53.6838H349.784C357.311 53.6838 363.413 47.5796 363.413 40.0498V13.634C363.413 6.10414 357.311 0 349.784 0Z" fill="#FF8338"/>
<path d="M254.734 36.6301V18.4515L250.782 19.5876L249.976 16.4518L255.859 14.5771H258.55V36.6301H254.734Z" fill="white"/>
<path d="M270.919 37.0049C268.341 37.0033 265.851 36.0668 263.911 34.369L266.012 31.4263C267.377 32.6981 269.156 33.4326 271.021 33.4941C271.759 33.5145 272.49 33.3519 273.15 33.0208C273.81 32.6898 274.378 32.2005 274.803 31.5967C275.809 30.126 276.337 28.3799 276.313 26.5976C275.686 27.3443 274.896 27.9373 274.004 28.3312C273.113 28.7251 272.142 28.9094 271.168 28.8699C269.102 28.9798 267.071 28.2972 265.49 26.9612C264.783 26.3187 264.227 25.5287 263.86 24.6471C263.493 23.7655 263.324 22.8139 263.366 21.8598C263.34 20.8471 263.528 19.8403 263.92 18.9061C264.312 17.9719 264.897 17.1314 265.637 16.4403C267.311 15.0127 269.445 14.2409 271.645 14.268C273.844 14.2952 275.959 15.1195 277.597 16.588C279.368 18.3718 280.266 21.1327 280.266 25.0183C280.414 28.1012 279.527 31.1451 277.744 33.6645C276.96 34.7302 275.929 35.5905 274.741 36.1721C273.552 36.7537 272.241 37.0394 270.919 37.0049ZM268.477 24.598C269.382 25.3734 270.546 25.7791 271.736 25.7341C272.324 25.7683 272.913 25.6854 273.468 25.4904C274.024 25.2954 274.535 24.9921 274.973 24.598C275.364 24.2284 275.676 23.7828 275.889 23.2885C276.102 22.7943 276.212 22.2617 276.212 21.7235C276.212 21.1852 276.102 20.6527 275.889 20.1584C275.676 19.6641 275.364 19.2185 274.973 18.849C274.054 18.0588 272.867 17.6521 271.657 17.7128C271.077 17.6773 270.497 17.7597 269.95 17.955C269.404 18.1502 268.902 18.4544 268.477 18.849C268.096 19.2399 267.798 19.7045 267.603 20.2144C267.408 20.7243 267.318 21.2688 267.341 21.8144C267.32 22.3326 267.411 22.8493 267.607 23.3295C267.803 23.8097 268.099 24.2423 268.477 24.598Z" fill="white"/>
<path d="M291.464 37.0049C288.886 37.0033 286.397 36.0668 284.456 34.369L286.546 31.4263C287.914 32.6946 289.691 33.4285 291.555 33.4941C292.294 33.5104 293.025 33.3461 293.686 33.0154C294.347 32.6848 294.918 32.1978 295.348 31.5967C296.355 30.1259 296.882 28.3799 296.859 26.5976C296.232 27.3443 295.442 27.9373 294.55 28.3312C293.658 28.7251 292.688 28.9094 291.714 28.8699C289.647 28.9809 287.616 28.2982 286.035 26.9612C285.327 26.3193 284.769 25.5297 284.4 24.6481C284.031 23.7666 283.86 22.8147 283.9 21.8598C283.874 20.8472 284.064 19.8407 284.455 18.9065C284.847 17.9724 285.432 17.1318 286.171 16.4403C287.845 15.0127 289.98 14.2409 292.179 14.268C294.378 14.2952 296.493 15.1195 298.131 16.588C299.902 18.3718 300.8 21.1327 300.8 25.0183C300.948 28.1012 300.061 31.1451 298.278 33.6645C297.495 34.7286 296.466 35.5879 295.28 36.1694C294.094 36.7509 292.785 37.0375 291.464 37.0049ZM289.022 24.598C289.926 25.3754 291.091 25.7813 292.282 25.7341C292.869 25.7676 293.458 25.6845 294.014 25.4895C294.569 25.2945 295.081 24.9915 295.519 24.598C295.907 24.2267 296.216 23.7806 296.427 23.2865C296.638 22.7925 296.747 22.2608 296.747 21.7235C296.747 21.1862 296.638 20.6544 296.427 20.1604C296.216 19.6664 295.907 19.2202 295.519 18.849C294.6 18.0588 293.412 17.6521 292.202 17.7128C291.623 17.6773 291.042 17.7597 290.496 17.955C289.949 18.1502 289.448 18.4544 289.022 18.849C288.641 19.2399 288.344 19.7045 288.148 20.2144C287.953 20.7243 287.864 21.2688 287.886 21.8144C287.863 22.3329 287.953 22.8503 288.149 23.3308C288.345 23.8114 288.643 24.2437 289.022 24.598Z" fill="white"/>
<path d="M313.951 37.0049C312.628 37.0413 311.315 36.7662 310.118 36.2018C308.92 35.6374 307.872 34.7994 307.058 33.7555C305.259 31.4514 304.331 28.5872 304.434 25.666C304.337 22.7433 305.288 19.8823 307.114 17.5992C307.948 16.5774 308.999 15.7539 310.19 15.1885C311.382 14.623 312.684 14.3296 314.003 14.3296C315.321 14.3296 316.623 14.623 317.815 15.1885C319.006 15.7539 320.057 16.5774 320.891 17.5992C322.691 19.8953 323.631 22.7491 323.548 25.666C323.638 28.5876 322.689 31.4463 320.868 33.7327C320.05 34.7799 318.999 35.6212 317.798 36.1894C316.597 36.7575 315.28 37.0368 313.951 37.0049ZM309.92 31.2559C310.342 31.9521 310.938 32.5271 311.648 32.9253C312.359 33.3234 313.16 33.5311 313.974 33.5282C314.784 33.5319 315.581 33.3242 316.286 32.9257C316.991 32.5272 317.58 31.9517 317.995 31.2559C319.058 29.5779 319.589 27.6173 319.517 25.6319C319.583 23.6479 319.035 21.6919 317.949 20.0306C317.527 19.3368 316.933 18.7634 316.225 18.3655C315.517 17.9675 314.718 17.7584 313.906 17.7583C313.096 17.7523 312.298 17.959 311.593 18.3577C310.887 18.7564 310.299 19.3332 309.886 20.0306C308.82 21.7074 308.289 23.6689 308.364 25.6546C308.296 27.6372 308.839 29.5927 309.92 31.2559Z" fill="white"/>
<path d="M326.172 41.1748L325.82 39.5728C327.614 39.2206 328.512 38.3458 328.512 36.971C328.516 36.9143 328.516 36.8573 328.512 36.8006C328.512 36.721 328.512 36.6642 328.512 36.6302H326.91V32.3354H331.078V35.9712C331.169 37.3561 330.707 38.7205 329.795 39.766C328.805 40.6706 327.513 41.173 326.172 41.1748Z" fill="white"/>
<path d="M335.496 28.8245V25.2229H348.535V28.8245H335.496Z" fill="white"/>
<path d="M276.87 47.4348L296.745 67.3177L317.37 46.6736C317.37 46.6736 276.586 47.1508 276.87 47.4348Z" fill="#FF8338"/>
<path d="M1 76.9751H4.4072" stroke="#E6E6E6" stroke-width="2" stroke-miterlimit="10" stroke-linecap="round"/>
<path d="M8.95013 76.9753H18.2291C18.305 76.9745 18.3791 76.9519 18.4426 76.9102C18.5062 76.8686 18.5564 76.8096 18.5875 76.7403C18.6186 76.671 18.6291 76.5942 18.6179 76.5191C18.6067 76.4439 18.5743 76.3736 18.5244 76.3163C16.8776 74.5553 12.9706 69.6811 16.764 66.4658C20.5573 63.2504 23.9305 67.1247 24.9981 68.6245C25.0305 68.6692 25.0748 68.7039 25.126 68.7247C25.1772 68.7454 25.2332 68.7514 25.2876 68.7419C25.342 68.7325 25.3927 68.7079 25.4338 68.6711C25.475 68.6343 25.505 68.5866 25.5205 68.5336C26.2814 65.8636 29.6432 55.7517 35.6399 58.8989C41.6366 62.0461 35.072 73.3736 33.1753 76.2822C33.1329 76.351 33.1096 76.4299 33.1078 76.5108C33.106 76.5916 33.1258 76.6715 33.1652 76.7421C33.2045 76.8127 33.262 76.8715 33.3317 76.9125C33.4013 76.9535 33.4807 76.9752 33.5615 76.9753H44.1579" fill="white"/>
<path d="M8.95013 76.9753H18.2291C18.305 76.9745 18.3791 76.9519 18.4426 76.9102C18.5062 76.8686 18.5564 76.8096 18.5875 76.7403C18.6186 76.671 18.6291 76.5942 18.6179 76.5191C18.6067 76.4439 18.5743 76.3736 18.5244 76.3163C16.8776 74.5553 12.9706 69.6811 16.764 66.4658C20.5573 63.2504 23.9305 67.1247 24.9981 68.6245C25.0305 68.6692 25.0748 68.7039 25.126 68.7247C25.1772 68.7454 25.2332 68.7514 25.2876 68.7419C25.342 68.7325 25.3927 68.7079 25.4338 68.6711C25.475 68.6343 25.505 68.5866 25.5205 68.5336C26.2814 65.8636 29.6432 55.7517 35.6399 58.8989C41.6366 62.0461 35.072 73.3736 33.1753 76.2822C33.1329 76.351 33.1096 76.4299 33.1078 76.5108C33.106 76.5916 33.1258 76.6715 33.1652 76.7421C33.2045 76.8127 33.262 76.8715 33.3317 76.9125C33.4013 76.9535 33.4807 76.9752 33.5615 76.9753H44.1579" stroke="#E6E6E6" stroke-width="2" stroke-miterlimit="10" stroke-linecap="round"/>
<path d="M387.343 78.725C385.715 77.0655 384.555 75.0048 383.98 72.752C383.406 70.4992 383.438 68.1344 384.072 65.8977C386.343 58.274 391.647 56.5244 394.532 57.3765C397.417 58.2286 398.791 67.4088 397.939 70.3515C399.836 65.4205 405.14 62.2961 406.082 68.545C407.025 74.7939 402.107 78.7705 402.107 78.7705" fill="white"/>
<path d="M387.343 78.725C385.715 77.0655 384.555 75.0048 383.98 72.752C383.406 70.4992 383.438 68.1344 384.072 65.8977C386.343 58.274 391.647 56.5244 394.532 57.3765C397.417 58.2286 398.791 67.4088 397.939 70.3515C399.836 65.4205 405.14 62.2961 406.082 68.545C407.025 74.7939 402.107 78.7705 402.107 78.7705" stroke="#E6E6E6" stroke-width="2" stroke-miterlimit="10" stroke-linecap="round"/>
<path d="M374.656 79.2476H371.249" stroke="#E6E6E6" stroke-width="2" stroke-miterlimit="10" stroke-linecap="round"/>
<path d="M378.064 79.2476H411" stroke="#E6E6E6" stroke-width="2" stroke-miterlimit="10" stroke-linecap="round"/>
<path d="M28.2576 151.394H363.299" stroke="#171A1C" stroke-width="3" stroke-miterlimit="10" stroke-linecap="round"/>
</svg>
