<svg width="80" height="77" viewBox="0 0 80 77" fill="none" xmlns="http://www.w3.org/2000/svg">
<path d="M71.1054 26.971L79.5424 18.5341C79.8903 18.1868 80.0538 17.6954 79.9843 17.209C79.9153 16.7225 79.6205 16.2965 79.1896 16.0597L69.0467 10.4902C68.2905 10.0752 67.3408 10.3517 66.9251 11.1079C66.5101 11.8647 66.786 12.8144 67.5428 13.2295L75.8607 17.7968L68.6201 25.0368L42.5781 10.7368L49.8181 3.49678L57.1369 7.51596C57.8931 7.931 58.8434 7.65512 59.2585 6.89828C59.6741 6.14205 59.3976 5.19173 58.6408 4.77669L50.2942 0.192936C49.6851 -0.141538 48.9283 -0.0335056 48.4375 0.457829L40 8.89536L31.5625 0.457829C31.0711 -0.0335056 30.3143 -0.140928 29.7058 0.192936L0.81042 16.0597C0.379511 16.2965 0.0847098 16.7219 0.0157397 17.209C-0.0538405 17.6954 0.109734 18.1868 0.457636 18.5341L8.89455 26.971L0.457636 35.4073C0.109734 35.7552 -0.0538405 36.2459 0.0157397 36.733C0.0847098 37.2194 0.379511 37.6454 0.81042 37.8817L9.54214 42.6766V58.7033C9.54214 59.2739 9.85281 59.7988 10.3527 60.0735L39.248 75.9396C39.4824 76.0684 39.7412 76.1325 40 76.1325C40.2588 76.1325 40.5176 76.0684 40.752 75.9396L69.6473 60.0735C70.1472 59.7988 70.4579 59.2739 70.4579 58.7033V42.6766L79.1896 37.8823C79.6205 37.6454 79.9153 37.2194 79.9843 36.733C80.0538 36.2465 79.8903 35.7552 79.5424 35.4079L71.1054 26.971ZM40 41.0543L14.3511 26.9704L40 12.8858L65.6489 26.9704L40 41.0543ZM30.1825 3.49678L37.4219 10.7368L11.3799 25.0368L4.1399 17.7968L30.1825 3.49678ZM11.3811 28.9046L37.4231 43.2045L30.1825 50.4452L4.1399 36.1452L11.3811 28.9046ZM67.3329 57.7792L41.5625 71.9296V55.9573C41.5625 55.0942 40.863 54.3948 40 54.3948C39.137 54.3948 38.4375 55.0942 38.4375 55.9573V71.9296L12.6671 57.7792V44.3929L29.7058 53.749C29.942 53.8784 30.2008 53.9419 30.4571 53.9419C30.8618 53.9419 31.2622 53.7844 31.5625 53.4841L40 45.0466L48.4375 53.4841C48.7378 53.785 49.1382 53.9419 49.5429 53.9419C49.7992 53.9419 50.058 53.8784 50.2942 53.749L67.3329 44.3929V57.7792ZM49.8181 50.4452L42.5775 43.2039L68.6195 28.9046L75.8607 36.1446L49.8181 50.4452Z" fill="#CBD5E1"/>
</svg>
