<svg width="315" height="509" viewBox="0 0 315 509" fill="none" xmlns="http://www.w3.org/2000/svg">
    <g clip-path="url(#clip0_0_1)">
        <path
            d="M44.5862 427.3H37.9903C34.8203 427.3 32.2505 429.852 32.2505 433.001C32.2505 436.15 34.8203 438.702 37.9903 438.702H44.5862C47.7562 438.702 50.326 436.15 50.326 433.001C50.326 429.852 47.7562 427.3 44.5862 427.3Z"
            fill="#FF8338" />
        <path
            d="M44.5969 439.701H37.9904C37.083 439.737 36.1777 439.59 35.3288 439.269C34.4799 438.948 33.7048 438.461 33.0501 437.835C32.3954 437.209 31.8745 436.459 31.5187 435.628C31.1629 434.797 30.9795 433.904 30.9795 433.001C30.9795 432.098 31.1629 431.205 31.5187 430.374C31.8745 429.543 32.3954 428.793 33.0501 428.167C33.7048 427.541 34.4799 427.054 35.3288 426.733C36.1777 426.412 37.083 426.265 37.9904 426.301H44.5969C45.5043 426.265 46.4096 426.412 47.2586 426.733C48.1075 427.054 48.8825 427.541 49.5373 428.167C50.192 428.793 50.7128 429.543 51.0686 430.374C51.4244 431.205 51.6078 432.098 51.6078 433.001C51.6078 433.904 51.4244 434.797 51.0686 435.628C50.7128 436.459 50.192 437.209 49.5373 437.835C48.8825 438.461 48.1075 438.948 47.2586 439.269C46.4096 439.59 45.5043 439.737 44.5969 439.701ZM37.9904 428.298C36.7745 428.355 35.6275 428.876 34.7873 429.751C33.9472 430.627 33.4785 431.791 33.4785 433.001C33.4785 434.211 33.9472 435.375 34.7873 436.251C35.6275 437.126 36.7745 437.647 37.9904 437.704H44.5969C45.8128 437.647 46.9599 437.126 47.8 436.251C48.6401 435.375 49.1088 434.211 49.1088 433.001C49.1088 431.791 48.6401 430.627 47.8 429.751C46.9599 428.876 45.8128 428.355 44.5969 428.298H37.9904Z"
            fill="#171A1C" />
        <path
            d="M49.5227 507.318C59.3071 507.318 67.2388 498.642 67.2388 487.939C67.2388 477.236 59.3071 468.56 49.5227 468.56C39.7384 468.56 31.8066 477.236 31.8066 487.939C31.8066 498.642 39.7384 507.318 49.5227 507.318Z"
            fill="#171A1C" />
        <path
            d="M49.5228 507.823C39.4703 507.823 31.2993 498.9 31.2993 487.939C31.2993 476.978 39.4703 468.055 49.5228 468.055C59.5753 468.055 67.7463 476.978 67.7463 487.939C67.7463 498.9 59.5647 507.823 49.5228 507.823ZM49.5228 469.054C40.0094 469.054 32.3035 477.524 32.3035 487.971C32.3035 498.417 40.0305 506.888 49.5228 506.888C59.0151 506.888 66.7421 498.417 66.7421 487.971C66.7421 477.524 59.0151 469.054 49.5228 469.054Z"
            fill="#171A1C" />
        <path
            d="M45.971 507.318C55.7553 507.318 63.6871 498.642 63.6871 487.939C63.6871 477.236 55.7553 468.56 45.971 468.56C36.1867 468.56 28.2549 477.236 28.2549 487.939C28.2549 498.642 36.1867 507.318 45.971 507.318Z"
            fill="#171A1C" />
        <path
            d="M45.9711 507.823C35.9291 507.823 27.7476 498.9 27.7476 487.939C27.7476 476.978 35.9397 468.055 45.9711 468.055C56.0024 468.055 64.2051 476.978 64.2051 487.939C64.2051 498.9 56.0236 507.823 45.9711 507.823ZM45.9711 469.054C36.4576 469.054 28.7623 477.524 28.7623 487.971C28.7623 498.417 36.4788 506.888 45.9711 506.888C55.4633 506.888 63.1903 498.417 63.1903 487.971C63.1903 477.524 55.4739 469.054 45.9711 469.054Z"
            fill="#171A1C" />
        <path
            d="M181.199 507.318C191.538 507.318 199.919 498.642 199.919 487.939C199.919 477.236 191.538 468.56 181.199 468.56C170.86 468.56 162.479 477.236 162.479 487.939C162.479 498.642 170.86 507.318 181.199 507.318Z"
            fill="#171A1C" />
        <path
            d="M181.199 507.823C170.629 507.823 161.982 498.9 161.982 487.939C161.982 476.978 170.597 468.055 181.199 468.055C191.801 468.055 200.416 476.978 200.416 487.939C200.416 498.9 191.801 507.823 181.199 507.823ZM181.199 469.054C171.157 469.054 162.986 477.524 162.986 487.971C162.986 498.417 171.157 506.888 181.199 506.888C191.241 506.888 199.412 498.417 199.412 487.971C199.412 477.524 191.241 469.054 181.199 469.054Z"
            fill="#171A1C" />
        <path
            d="M177.457 507.318C187.796 507.318 196.177 498.642 196.177 487.939C196.177 477.236 187.796 468.56 177.457 468.56C167.118 468.56 158.737 477.236 158.737 487.939C158.737 498.642 167.118 507.318 177.457 507.318Z"
            fill="#171A1C" />
        <path
            d="M177.457 507.823C166.887 507.823 158.229 498.9 158.229 487.939C158.229 476.978 166.855 468.055 177.457 468.055C188.059 468.055 196.674 476.978 196.674 487.939C196.674 498.9 188.059 507.823 177.457 507.823ZM177.457 469.054C167.415 469.054 159.244 477.524 159.244 487.971C159.244 498.417 167.415 506.888 177.457 506.888C187.499 506.888 195.67 498.417 195.67 487.971C195.67 477.524 187.499 469.054 177.457 469.054Z"
            fill="#171A1C" />
        <path
            d="M11.1941 483.094V456.159C11.2081 451.476 13.0882 446.989 16.4227 443.682C19.7572 440.375 24.2741 438.516 28.9842 438.513H37.5146L64.7124 396.644C65.6422 395.228 66.9138 394.065 68.4112 393.263C69.9086 392.461 71.5841 392.044 73.285 392.051H258.765C261.337 392.056 263.803 393.073 265.624 394.878C267.446 396.683 268.476 399.131 268.49 401.688V483.094H11.1941Z"
            fill="#FF8338" />
        <path
            d="M269.547 484.093H10.1899V456.159C10.2095 451.213 12.1972 446.475 15.7188 442.982C19.2404 439.489 24.0096 437.523 28.9842 437.515H36.9967L63.8668 396.097C64.8794 394.529 66.2732 393.24 67.9193 392.349C69.5654 391.458 71.4109 390.994 73.2851 391H258.765C260.179 390.997 261.58 391.272 262.887 391.807C264.194 392.343 265.383 393.13 266.384 394.122C267.385 395.115 268.18 396.294 268.723 397.592C269.266 398.89 269.546 400.282 269.547 401.688V484.093ZM12.2089 482.085H267.496V401.688C267.494 399.387 266.573 397.18 264.936 395.553C263.299 393.926 261.08 393.01 258.765 393.007H73.2851C71.7455 393.005 70.2302 393.39 68.8796 394.124C67.529 394.859 66.3865 395.921 65.5581 397.211L38.0537 439.522H28.9842C24.5442 439.528 20.2869 441.281 17.1434 444.398C13.9998 447.516 12.2257 451.744 12.2089 456.159V482.085Z"
            fill="#171A1C" />
        <path
            d="M66.7525 454.509H12.9911C11.6425 454.509 10.5493 455.595 10.5493 456.936V464.198C10.5493 465.539 11.6425 466.626 12.9911 466.626H66.7525C68.1011 466.626 69.1943 465.539 69.1943 464.198V456.936C69.1943 455.595 68.1011 454.509 66.7525 454.509Z"
            fill="#171A1C" />
        <path
            d="M66.8583 467.12H12.8749C12.5029 467.12 12.1345 467.047 11.7908 466.905C11.4471 466.764 11.1348 466.556 10.8717 466.295C10.6087 466.033 10.4 465.723 10.2576 465.381C10.1153 465.039 10.042 464.673 10.042 464.303V456.821C10.0558 456.083 10.3604 455.38 10.8902 454.863C11.42 454.346 12.1326 454.057 12.8749 454.057H66.8583C67.6096 454.057 68.3301 454.353 68.8614 454.882C69.3927 455.41 69.6911 456.126 69.6911 456.873V464.356C69.6773 465.094 69.3727 465.797 68.843 466.314C68.3132 466.83 67.6005 467.12 66.8583 467.12ZM12.8749 455.002C12.3907 455.005 11.9272 455.198 11.5849 455.538C11.2425 455.878 11.049 456.339 11.0462 456.821V464.303C11.049 464.785 11.2425 465.246 11.5849 465.586C11.9272 465.926 12.3907 466.119 12.8749 466.121H66.8583C67.0998 466.123 67.3392 466.077 67.5629 465.986C67.7866 465.896 67.9902 465.762 68.1619 465.593C68.3337 465.424 68.4703 465.224 68.5641 465.002C68.6578 464.781 68.7067 464.543 68.7081 464.303V456.821C68.7053 456.339 68.5118 455.878 68.1694 455.538C67.8271 455.198 67.3635 455.005 66.8794 455.002H12.8749Z"
            fill="#171A1C" />
        <path
            d="M62.9367 464.598C65.1785 464.598 66.9958 462.791 66.9958 460.562C66.9958 458.333 65.1785 456.526 62.9367 456.526C60.695 456.526 58.8777 458.333 58.8777 460.562C58.8777 462.791 60.695 464.598 62.9367 464.598Z"
            fill="white" />
        <path
            d="M62.9366 465.102C62.0334 465.102 61.1505 464.836 60.3996 464.337C59.6486 463.838 59.0633 463.129 58.7177 462.299C58.3721 461.47 58.2817 460.557 58.4579 459.676C58.6341 458.796 59.069 457.987 59.7076 457.352C60.3462 456.717 61.1599 456.284 62.0457 456.109C62.9315 455.934 63.8497 456.024 64.6841 456.367C65.5185 456.711 66.2317 457.293 66.7334 458.04C67.2352 458.786 67.503 459.664 67.503 460.562C67.5002 461.765 67.0182 462.918 66.1624 463.769C65.3067 464.62 64.1468 465.099 62.9366 465.102ZM62.9366 457.02C62.2316 457.018 61.5418 457.224 60.9546 457.612C60.3674 458 59.9092 458.552 59.6379 459.199C59.3667 459.846 59.2947 460.559 59.4309 461.246C59.5672 461.934 59.9056 462.566 60.4034 463.063C60.9011 463.559 61.5358 463.897 62.2271 464.035C62.9184 464.172 63.6352 464.103 64.2867 463.835C64.9383 463.567 65.4953 463.113 65.8871 462.531C66.279 461.948 66.4882 461.263 66.4882 460.562C66.4882 459.624 66.1144 458.725 65.4486 458.061C64.7829 457.397 63.8795 457.023 62.9366 457.02Z"
            fill="#171A1C" />
        <path
            d="M280.984 486.541H6.55369C5.91327 486.5 5.31266 486.218 4.87378 485.753C4.43491 485.287 4.19067 484.673 4.19067 484.035C4.19067 483.397 4.43491 482.783 4.87378 482.317C5.31266 481.852 5.91327 481.57 6.55369 481.528H280.984C281.625 481.57 282.225 481.852 282.664 482.317C283.103 482.783 283.347 483.397 283.347 484.035C283.347 484.673 283.103 485.287 282.664 485.753C282.225 486.218 281.625 486.5 280.984 486.541Z"
            fill="#171A1C" />
        <path
            d="M107.639 433.626L124.552 407.489C124.935 406.899 125.461 406.414 126.081 406.078C126.702 405.742 127.397 405.566 128.103 405.566H151.189C152.311 405.566 153.386 406.009 154.179 406.797C154.972 407.586 155.418 408.655 155.418 409.77V436.191C155.418 437.306 154.972 438.375 154.179 439.163C153.386 439.952 152.311 440.394 151.189 440.394L111.138 440.069C110.389 440.055 109.657 439.843 109.017 439.455C108.378 439.068 107.853 438.518 107.497 437.863C107.141 437.208 106.967 436.47 106.992 435.726C107.017 434.981 107.24 434.257 107.639 433.626Z"
            fill="#171A1C" />
        <path
            d="M151.232 440.92L111.191 440.594C110.345 440.587 109.517 440.354 108.793 439.921C108.069 439.487 107.475 438.868 107.073 438.128C106.672 437.389 106.477 436.555 106.51 435.716C106.542 434.876 106.801 434.06 107.259 433.353L124.171 407.216C124.604 406.563 125.195 406.029 125.889 405.662C126.584 405.295 127.359 405.106 128.146 405.114H151.232C152.483 405.114 153.683 405.608 154.569 406.486C155.455 407.365 155.954 408.557 155.957 409.801V436.191C155.951 437.435 155.452 438.626 154.567 439.506C153.682 440.386 152.483 440.883 151.232 440.888V440.92ZM128.146 406.071C127.516 406.062 126.895 406.213 126.34 406.509C125.785 406.805 125.315 407.236 124.975 407.763L108.062 433.9C107.703 434.456 107.501 435.098 107.476 435.758C107.451 436.419 107.605 437.074 107.921 437.656C108.237 438.237 108.704 438.724 109.274 439.065C109.843 439.406 110.494 439.589 111.159 439.596L151.2 439.921C152.184 439.924 153.132 439.547 153.843 438.871C154.185 438.524 154.454 438.113 154.635 437.662C154.817 437.211 154.907 436.729 154.9 436.243V409.759C154.9 408.781 154.509 407.843 153.813 407.151C153.117 406.459 152.173 406.071 151.189 406.071H128.146Z"
            fill="#171A1C" />
        <path
            d="M60.3152 403.674L108.876 404.578C109.448 404.589 110.007 404.75 110.496 405.045C110.985 405.34 111.387 405.76 111.66 406.26C111.933 406.76 112.068 407.323 112.05 407.891C112.033 408.46 111.864 409.014 111.561 409.497L94.9229 435.959C94.0568 437.335 92.8538 438.469 91.4265 439.255C89.9992 440.042 88.3944 440.456 86.7625 440.457L37.335 439.133"
            fill="#171A1C" />
        <path
            d="M86.7626 440.951L37.3245 439.638V438.587L86.7837 439.953C88.3218 439.962 89.8368 439.581 91.1853 438.845C92.5337 438.11 93.6711 437.044 94.4896 435.749L111.138 409.286C111.405 408.877 111.557 408.404 111.577 407.917C111.597 407.429 111.485 406.946 111.253 406.516C111.021 406.086 110.677 405.726 110.257 405.474C109.837 405.222 109.356 405.087 108.865 405.083L60.3047 404.189V403.138L108.865 404.042C109.538 404.038 110.199 404.214 110.78 404.551C111.36 404.889 111.838 405.376 112.164 405.961C112.49 406.546 112.651 407.208 112.63 407.876C112.609 408.545 112.408 409.195 112.047 409.759L95.3458 436.191C94.4438 437.648 93.1812 438.85 91.6785 439.684C90.1758 440.517 88.4833 440.954 86.7626 440.951Z"
            fill="#171A1C" />
        <path
            d="M154.657 451.808H142.902C142.423 451.834 141.944 451.762 141.493 451.598C141.043 451.434 140.631 451.18 140.282 450.852C139.934 450.524 139.656 450.129 139.466 449.69C139.277 449.252 139.179 448.78 139.179 448.303C139.179 447.826 139.277 447.353 139.466 446.915C139.656 446.477 139.934 446.082 140.282 445.754C140.631 445.426 141.043 445.172 141.493 445.007C141.944 444.843 142.423 444.772 142.902 444.798H154.657C155.136 444.772 155.615 444.843 156.066 445.007C156.516 445.172 156.929 445.426 157.277 445.754C157.626 446.082 157.903 446.477 158.093 446.915C158.283 447.353 158.38 447.826 158.38 448.303C158.38 448.78 158.283 449.252 158.093 449.69C157.903 450.129 157.626 450.524 157.277 450.852C156.929 451.18 156.516 451.434 156.066 451.598C155.615 451.762 155.136 451.834 154.657 451.808Z"
            fill="#171A1C" />
        <path
            d="M97.2485 468.192C92.3079 468.157 87.5412 470.003 83.9251 473.35C80.3089 476.697 78.1171 481.293 77.7988 486.195H95.8532V489.663H116.645C116.645 489.663 116.709 488.454 116.709 488.044C116.709 477.335 107.978 468.192 97.2485 468.192Z"
            fill="#171A1C" />
        <path
            d="M229.77 468.192C224.835 468.166 220.076 470.015 216.467 473.361C212.858 476.707 210.67 481.298 210.352 486.195H228.322V489.663H249.241C249.241 489.663 249.305 488.454 249.305 488.044C249.262 477.335 240.531 468.192 229.77 468.192Z"
            fill="#171A1C" />
        <path
            d="M234.886 507.318C245.652 507.318 254.378 498.642 254.378 487.939C254.378 477.236 245.652 468.56 234.886 468.56C224.121 468.56 215.395 477.236 215.395 487.939C215.395 498.642 224.121 507.318 234.886 507.318Z"
            fill="#333333" />
        <path
            d="M234.886 507.823C230.93 507.825 227.063 506.661 223.772 504.477C220.482 502.293 217.917 499.189 216.402 495.556C214.887 491.923 214.489 487.924 215.259 484.066C216.03 480.209 217.934 476.665 220.73 473.883C223.527 471.101 227.09 469.206 230.97 468.438C234.85 467.67 238.872 468.063 242.527 469.568C246.182 471.072 249.306 473.621 251.504 476.891C253.702 480.161 254.875 484.006 254.875 487.939C254.87 493.209 252.762 498.262 249.015 501.989C245.268 505.717 240.187 507.815 234.886 507.823ZM234.886 469.054C231.123 469.054 227.445 470.163 224.316 472.242C221.187 474.32 218.748 477.275 217.308 480.731C215.868 484.188 215.491 487.992 216.225 491.661C216.959 495.331 218.771 498.701 221.432 501.347C224.093 503.993 227.484 505.794 231.174 506.524C234.865 507.254 238.691 506.879 242.168 505.448C245.644 504.016 248.616 501.591 250.707 498.48C252.797 495.369 253.913 491.712 253.913 487.971C253.913 482.954 251.909 478.142 248.34 474.594C244.772 471.047 239.933 469.054 234.886 469.054Z"
            fill="#171A1C" />
        <path
            d="M232.931 507.318C243.696 507.318 252.423 498.642 252.423 487.939C252.423 477.236 243.696 468.56 232.931 468.56C222.166 468.56 213.439 477.236 213.439 487.939C213.439 498.642 222.166 507.318 232.931 507.318Z"
            fill="#171A1C" />
        <path
            d="M232.931 507.823C228.975 507.823 225.109 506.657 221.82 504.472C218.531 502.287 215.968 499.182 214.454 495.548C212.94 491.915 212.544 487.917 213.316 484.06C214.088 480.203 215.992 476.66 218.789 473.879C221.586 471.098 225.15 469.205 229.029 468.437C232.909 467.67 236.93 468.064 240.584 469.569C244.239 471.074 247.362 473.622 249.56 476.892C251.757 480.162 252.93 484.006 252.93 487.939C252.925 493.211 250.816 498.265 247.066 501.993C243.317 505.721 238.233 507.817 232.931 507.823ZM232.931 469.054C229.168 469.054 225.489 470.163 222.36 472.242C219.231 474.32 216.793 477.275 215.352 480.731C213.912 484.188 213.536 487.992 214.27 491.661C215.004 495.331 216.816 498.701 219.477 501.347C222.138 503.993 225.528 505.794 229.219 506.524C232.91 507.254 236.736 506.879 240.212 505.448C243.689 504.016 246.661 501.591 248.751 498.48C250.842 495.369 251.958 491.712 251.958 487.971C251.958 482.954 249.953 478.142 246.385 474.594C242.817 471.047 237.977 469.054 232.931 469.054Z"
            fill="#171A1C" />
        <path
            d="M239.76 499.079C244.605 499.079 248.533 494.092 248.533 487.939C248.533 481.787 244.605 476.799 239.76 476.799C234.914 476.799 230.986 481.787 230.986 487.939C230.986 494.092 234.914 499.079 239.76 499.079Z"
            fill="white" />
        <path
            d="M239.759 499.584C234.643 499.584 230.479 494.329 230.479 487.939C230.479 481.549 234.643 476.295 239.759 476.295C244.876 476.295 249.03 481.549 249.03 487.939C249.03 494.329 244.876 499.584 239.759 499.584ZM239.759 477.293C235.193 477.293 231.493 482.064 231.493 487.939C231.493 493.814 235.193 498.575 239.759 498.575C244.326 498.575 248.025 493.803 248.025 487.939C248.025 482.075 244.315 477.293 239.759 477.293Z"
            fill="#171A1C" />
        <path
            d="M103.062 507.318C113.827 507.318 122.554 498.642 122.554 487.939C122.554 477.236 113.827 468.56 103.062 468.56C92.2972 468.56 83.5703 477.236 83.5703 487.939C83.5703 498.642 92.2972 507.318 103.062 507.318Z"
            fill="#171A1C" />
        <path
            d="M103.062 507.823C99.1066 507.823 95.2399 506.657 91.951 504.472C88.6622 502.287 86.0988 499.182 84.5851 495.548C83.0714 491.915 82.6754 487.917 83.447 484.06C84.2187 480.203 86.1235 476.66 88.9204 473.879C91.7174 471.098 95.2809 469.205 99.1604 468.437C103.04 467.67 107.061 468.064 110.715 469.569C114.37 471.074 117.493 473.622 119.691 476.892C121.888 480.162 123.061 484.006 123.061 487.939C123.056 493.211 120.947 498.265 117.198 501.993C113.448 505.721 108.365 507.817 103.062 507.823ZM103.062 469.054C99.2989 469.054 95.6203 470.163 92.4913 472.242C89.3624 474.32 86.9237 477.275 85.4836 480.731C84.0435 484.188 83.6667 487.992 84.4008 491.661C85.135 495.331 86.9471 498.701 89.6081 501.347C92.269 503.993 95.6593 505.794 99.3501 506.524C103.041 507.254 106.867 506.879 110.343 505.448C113.82 504.016 116.792 501.591 118.882 498.48C120.973 495.369 122.089 491.712 122.089 487.971C122.089 482.954 120.084 478.142 116.516 474.594C112.948 471.047 108.108 469.054 103.062 469.054Z"
            fill="#171A1C" />
        <path
            d="M101.107 507.318C111.872 507.318 120.599 498.642 120.599 487.939C120.599 477.236 111.872 468.56 101.107 468.56C90.3416 468.56 81.6147 477.236 81.6147 487.939C81.6147 498.642 90.3416 507.318 101.107 507.318Z"
            fill="#171A1C" />
        <path
            d="M101.107 507.823C97.151 507.823 93.2844 506.657 89.9955 504.472C86.7066 502.287 84.1432 499.182 82.6295 495.548C81.1158 491.915 80.7198 487.917 81.4915 484.06C82.2631 480.203 84.1679 476.66 86.9649 473.879C89.7618 471.098 93.3254 469.205 97.2048 468.437C101.084 467.67 105.106 468.064 108.76 469.569C112.414 471.074 115.538 473.622 117.735 476.892C119.933 480.162 121.106 484.006 121.106 487.939C121.1 493.211 118.991 498.265 115.242 501.993C111.493 505.721 106.409 507.817 101.107 507.823ZM101.107 469.054C97.3434 469.054 93.6647 470.163 90.5358 472.242C87.4068 474.32 84.9681 477.275 83.528 480.731C82.0879 484.188 81.7111 487.992 82.4453 491.661C83.1794 495.331 84.9916 498.701 87.6525 501.347C90.3135 503.993 93.7037 505.794 97.3946 506.524C101.085 507.254 104.911 506.879 108.388 505.448C111.864 504.016 114.836 501.591 116.927 498.48C119.017 495.369 120.133 491.712 120.133 487.971C120.133 482.954 118.129 478.142 114.561 474.594C110.992 471.047 106.153 469.054 101.107 469.054Z"
            fill="#171A1C" />
        <path
            d="M107.935 499.079C112.781 499.079 116.709 494.092 116.709 487.939C116.709 481.787 112.781 476.799 107.935 476.799C103.09 476.799 99.1616 481.787 99.1616 487.939C99.1616 494.092 103.09 499.079 107.935 499.079Z"
            fill="white" />
        <path
            d="M107.935 499.584C102.819 499.584 98.6543 494.329 98.6543 487.939C98.6543 481.549 102.819 476.295 107.935 476.295C113.051 476.295 117.205 481.549 117.205 487.939C117.205 494.329 113.104 499.584 107.935 499.584ZM107.935 477.293C103.369 477.293 99.6691 482.064 99.6691 487.939C99.6691 493.814 103.369 498.575 107.935 498.575C112.502 498.575 116.201 493.803 116.201 487.939C116.201 482.075 112.491 477.293 107.935 477.293Z"
            fill="#171A1C" />
        <path
            d="M13.3506 456.526C12.8961 456.567 12.4443 456.633 11.9976 456.726V464.398C12.4443 464.491 12.8961 464.557 13.3506 464.598C14.4271 464.598 15.4595 464.172 16.2208 463.416C16.982 462.659 17.4096 461.632 17.4096 460.562C17.4096 459.492 16.982 458.465 16.2208 457.708C15.4595 456.952 14.4271 456.526 13.3506 456.526Z"
            fill="white" />
        <path
            d="M13.3506 465.102C13.1259 465.104 12.9018 465.076 12.6847 465.018C12.5261 465.018 12.3042 464.944 11.9236 464.892L11.4902 464.829V456.295L11.9236 456.232C12.3042 456.232 12.5156 456.138 12.6847 456.106C12.9018 456.048 13.1259 456.02 13.3506 456.022C14.5617 456.022 15.7232 456.5 16.5796 457.352C17.436 458.203 17.9171 459.358 17.9171 460.562C17.9171 461.766 17.436 462.921 16.5796 463.772C15.7232 464.624 14.5617 465.102 13.3506 465.102ZM12.505 463.967L12.8855 464.041C13.04 464.06 13.1962 464.06 13.3506 464.041C13.8341 464.067 14.3178 463.995 14.7723 463.829C15.2267 463.663 15.6424 463.407 15.994 463.076C16.3455 462.745 16.6255 462.346 16.8168 461.904C17.0082 461.462 17.1069 460.986 17.1069 460.504C17.1069 460.023 17.0082 459.547 16.8168 459.104C16.6255 458.662 16.3455 458.264 15.994 457.933C15.6424 457.602 15.2267 457.345 14.7723 457.179C14.3178 457.014 13.8341 456.942 13.3506 456.968C13.1936 456.969 13.0373 456.991 12.8855 457.031L12.505 457.104V463.967Z"
            fill="#171A1C" />
        <path
            d="M248.956 441.288H174.508C173.941 441.289 173.379 441.179 172.854 440.964C172.33 440.749 171.853 440.434 171.451 440.036C171.05 439.637 170.731 439.164 170.514 438.643C170.296 438.122 170.185 437.564 170.185 437V408.782C170.185 407.645 170.639 406.554 171.448 405.75C172.257 404.946 173.354 404.494 174.497 404.494H248.945C250.089 404.494 251.186 404.946 251.995 405.75C252.803 406.554 253.258 407.645 253.258 408.782V437C253.258 438.135 252.805 439.224 251.998 440.028C251.192 440.832 250.098 441.285 248.956 441.288ZM174.508 406.491C173.899 406.494 173.315 406.736 172.885 407.166C172.455 407.595 172.214 408.176 172.214 408.782V437C172.214 437.605 172.456 438.185 172.886 438.612C173.316 439.04 173.9 439.28 174.508 439.28H248.956C249.565 439.28 250.15 439.04 250.581 438.613C251.013 438.186 251.257 437.606 251.26 437V408.782C251.257 408.175 251.014 407.594 250.582 407.165C250.151 406.736 249.566 406.494 248.956 406.491H174.508Z"
            fill="#171A1C" />
        <path
            d="M93.5592 485.249C93.4259 485.245 93.2947 485.214 93.1736 485.159C93.0524 485.103 92.9437 485.024 92.854 484.926C92.7642 484.828 92.6952 484.713 92.6511 484.588C92.607 484.463 92.5887 484.33 92.5973 484.198C92.5973 483.872 92.9989 476.179 99.9966 473.552C100.247 473.47 100.519 473.483 100.759 473.59C101 473.697 101.191 473.89 101.297 474.13C101.382 474.38 101.37 474.653 101.262 474.894C101.155 475.136 100.959 475.328 100.715 475.433C95.0073 477.535 94.6585 484.219 94.6585 484.282C94.6369 484.553 94.5102 484.806 94.3051 484.986C94.1001 485.166 93.8327 485.26 93.5592 485.249Z"
            fill="white" />
        <path
            d="M226.113 486.247H226.029C225.492 486.223 224.987 485.988 224.625 485.594C224.262 485.2 224.071 484.679 224.094 484.145C224.094 483.798 224.538 475.464 232.096 472.585C232.596 472.395 233.152 472.411 233.641 472.629C234.129 472.847 234.511 473.249 234.702 473.746C234.892 474.244 234.876 474.796 234.657 475.282C234.438 475.768 234.034 476.147 233.534 476.337C228.439 478.26 228.132 484.229 228.121 484.292C228.11 484.815 227.894 485.312 227.519 485.677C227.143 486.043 226.639 486.247 226.113 486.247Z"
            fill="white" />
        <path
            d="M138.019 439.343C138.019 439.343 139.943 456.159 142.321 455.581C144.699 455.003 148.04 448.056 147.405 443.926C146.771 439.795 138.907 436.411 138.019 439.343Z"
            fill="#FFA670" />
        <path
            d="M142.205 456.61C141.87 456.608 141.545 456.501 141.274 456.306C138.928 454.687 137.427 443.011 137.046 439.491V439.291L137.099 439.091C137.49 437.82 138.663 437.157 140.334 437.273C143.198 437.483 147.902 440.184 148.452 443.799C149.139 448.297 145.703 455.812 142.617 456.579C142.482 456.61 142.343 456.62 142.205 456.61ZM139.033 439.512C139.794 445.975 141.232 453.268 142.289 454.54C144.033 453.668 146.94 447.646 146.401 444.031C146.02 441.582 142.342 439.354 140.133 439.207C139.731 439.228 139.245 439.249 139.044 439.512H139.033Z"
            fill="#171A1C" />
        <path
            d="M118.506 422.98C119.786 421.977 121.407 421.503 123.03 421.656C125.799 421.929 130.112 422.497 132.543 423.569C136.211 425.229 143.78 428.771 145.788 432.754C147.796 436.737 147.458 443.936 147.458 443.936L138.473 443.862C138.344 443.08 138.27 442.29 138.251 441.498C138.235 441.087 138.26 440.675 138.325 440.268C138.339 440.189 138.335 440.107 138.314 440.029C138.293 439.95 138.255 439.878 138.202 439.816C138.15 439.754 138.085 439.704 138.011 439.669C137.937 439.635 137.857 439.617 137.776 439.617H115.102C115.102 439.617 109.753 433.416 110.525 431.535C111.085 430.179 115.313 425.503 118.506 422.98Z"
            fill="#FF8338" />
        <path
            d="M148.367 444.945L137.606 444.85L137.469 444.031C137.331 443.196 137.25 442.354 137.226 441.508C137.226 441.193 137.226 440.888 137.226 440.615H114.594L114.298 440.268C112.565 438.261 108.643 433.353 109.552 431.146C110.239 429.486 114.732 424.62 117.85 422.16C119.344 420.984 121.24 420.434 123.135 420.626C126.307 420.931 130.535 421.519 132.913 422.623C137.849 424.851 144.636 428.277 146.655 432.271C148.769 436.474 148.452 443.642 148.431 443.947L148.367 444.945ZM139.34 442.843L146.412 442.906C146.412 440.857 146.274 436.054 144.837 433.185C142.913 429.359 134.752 425.671 132.067 424.462C129.125 423.429 126.05 422.814 122.935 422.633C121.569 422.499 120.204 422.899 119.129 423.747C115.958 426.249 111.91 430.799 111.444 431.924C111.254 432.659 113.178 435.791 115.556 438.618H137.754C137.98 438.619 138.202 438.668 138.407 438.762C138.611 438.856 138.793 438.994 138.938 439.165C139.088 439.334 139.198 439.533 139.26 439.75C139.322 439.966 139.335 440.193 139.298 440.415C139.253 440.764 139.231 441.115 139.234 441.466C139.255 441.971 139.298 442.496 139.34 442.864V442.843Z"
            fill="#171A1C" />
        <path
            d="M138.315 427.962C138.315 427.962 139.837 421.656 141.349 420.878C142.86 420.101 145.577 416.738 144.192 415.792C142.807 414.846 143.23 409.791 141.327 409.833C139.425 409.875 132.131 412.019 131.677 413.585C131.222 415.151 129.362 421.025 130.387 422.844C129.076 424.872 129.044 425.996 129.71 426.659C130.376 427.321 135.027 430.663 138.315 427.962Z"
            fill="#FFA670" />
        <path
            d="M135.376 430.505C132.9 430.365 130.541 429.407 128.674 427.783C127.448 426.627 127.469 424.924 128.674 422.707C128.241 420.868 128.822 418.02 129.901 414.194C130.017 413.805 130.101 413.48 130.165 413.248C130.926 410.201 140.175 408.383 141.243 408.362H141.306C143.568 408.362 144.107 410.852 144.477 412.681C144.59 413.348 144.778 414 145.038 414.625C145.361 414.869 145.618 415.189 145.788 415.555C145.957 415.922 146.034 416.324 146.01 416.727C145.883 418.734 143.515 421.383 141.983 422.192C141.486 422.623 140.397 425.502 139.721 428.298L139.604 428.792L139.213 429.107C138.138 430.005 136.78 430.499 135.376 430.505ZM130.799 425.681C130.799 425.681 134.467 428.592 136.983 427.1C137.649 424.462 138.928 420.489 140.64 419.586C141.674 418.898 142.494 417.937 143.008 416.811C142.216 415.788 141.742 414.557 141.644 413.27C141.522 412.62 141.348 411.98 141.126 411.357C139.129 411.556 134.055 413.206 133.156 414.11C133.093 414.341 133.019 414.636 132.924 414.972C131.507 420.017 131.507 421.635 131.761 422.108L132.173 422.886L131.708 423.653C130.757 425.135 130.852 425.639 130.852 425.639L130.799 425.681Z"
            fill="#171A1C" />
        <path
            d="M134.33 425.46C133.769 425.615 133.173 425.598 132.623 425.41C132.072 425.223 131.591 424.874 131.243 424.41C129.964 422.675 129.404 420.006 129.848 419.407C130.045 419.05 130.316 418.739 130.643 418.493C130.969 418.247 131.345 418.073 131.744 417.982C132.143 417.891 132.557 417.884 132.959 417.963C133.361 418.042 133.742 418.205 134.076 418.44C135.595 419.35 136.852 420.635 137.723 422.171C138.912 421.242 139.769 419.955 140.165 418.503C140.989 415.876 142.194 413.816 141.718 413.248C141.243 412.681 137.628 413.848 136.645 414.415C135.661 414.983 132.723 413.185 131.592 412.24C130.461 411.294 130.873 411.136 130.535 409.938C130.197 408.74 132.776 407.836 133.537 406.554C134.298 405.272 135.82 405.871 137.617 406.333C139.414 406.796 138.811 401.688 141.623 403.307C144.435 404.925 147.152 406.459 146.76 407.237C146.369 408.015 148.684 408.151 148.737 410.012C148.79 411.872 149.245 414.625 146.887 416.969C145.79 418.19 144.437 419.159 142.923 419.806L143.98 417.179C143.98 417.179 143.589 415.308 142.849 415.371C142.109 415.434 141.052 419.523 141.052 419.523C140.427 421.122 139.444 422.56 138.177 423.726C137.019 424.545 135.712 425.133 134.33 425.46Z"
            fill="#171A1C" />
        <path
            d="M133.579 426.06C133.041 426.057 132.511 425.926 132.034 425.678C131.558 425.429 131.149 425.07 130.841 424.63C129.52 422.833 128.791 419.901 129.446 419.039C129.677 418.626 129.994 418.266 130.375 417.983C130.755 417.7 131.192 417.5 131.656 417.396C132.12 417.292 132.6 417.286 133.066 417.379C133.533 417.472 133.974 417.662 134.361 417.936C135.791 418.779 137.001 419.946 137.892 421.341C138.744 420.502 139.372 419.465 139.721 418.325C140.027 417.368 140.365 416.506 140.672 415.75C140.991 415.059 141.225 414.332 141.37 413.585C139.828 413.716 138.325 414.137 136.941 414.825C135.503 415.666 132.078 413.249 131.306 412.597C131.007 412.405 130.755 412.146 130.572 411.842C130.389 411.538 130.278 411.195 130.249 410.842C130.221 410.578 130.168 410.318 130.091 410.064C129.784 409.013 130.778 408.278 131.75 407.552C132.301 407.212 132.788 406.778 133.188 406.27C134.065 404.799 135.714 405.219 137.31 405.682L137.828 405.818C138.124 405.892 138.315 405.524 138.685 404.599C139.055 403.674 139.372 402.834 140.217 402.497C140.513 402.42 140.822 402.407 141.123 402.459C141.424 402.512 141.71 402.629 141.961 402.802L142.511 403.117C145.968 405.104 147.796 406.207 147.331 407.321C147.457 407.427 147.591 407.522 147.733 407.605C148.182 407.817 148.566 408.144 148.846 408.552C149.127 408.96 149.293 409.435 149.329 409.928C149.329 410.127 149.329 410.348 149.329 410.569C149.424 412.45 149.551 415.014 147.3 417.253C146.133 418.542 144.687 419.552 143.071 420.206L142.014 420.521L143.462 417.063C143.374 416.622 143.194 416.203 142.934 415.834C142.328 417.025 141.894 418.295 141.644 419.607C141 421.324 139.957 422.865 138.6 424.105C137.363 424.979 135.966 425.603 134.488 425.944C134.191 426.02 133.886 426.059 133.579 426.06ZM132.3 418.325C131.876 418.364 131.468 418.505 131.111 418.736C130.753 418.966 130.458 419.28 130.249 419.649C130.027 420.038 130.419 422.371 131.655 424.052C131.937 424.442 132.332 424.738 132.787 424.899C133.242 425.061 133.736 425.08 134.203 424.956C135.538 424.647 136.801 424.087 137.924 423.306C139.127 422.191 140.06 420.818 140.651 419.291C141.782 414.92 142.606 414.846 142.871 414.825C143.98 414.709 144.435 416.485 144.541 417.021V417.179L143.917 418.692C144.866 418.091 145.746 417.386 146.538 416.591C148.473 414.667 148.357 412.45 148.261 410.674C148.261 410.442 148.261 410.222 148.261 410.012C148.261 409.213 147.67 408.856 147.13 408.498C146.591 408.141 145.978 407.763 146.327 407.006C146.232 406.501 143.653 405.02 141.951 404.042L141.391 403.727C141.263 403.628 141.117 403.558 140.96 403.52C140.803 403.482 140.64 403.477 140.482 403.506C140.08 403.643 139.805 404.347 139.551 404.978C139.203 405.881 138.716 407.079 137.511 406.796L136.983 406.659C135.387 406.228 134.446 406.018 133.991 406.796C133.537 407.412 132.975 407.943 132.332 408.362C131.676 408.845 130.926 409.413 131.032 409.78C131.129 410.081 131.196 410.391 131.232 410.705C131.232 411.147 131.306 411.304 131.951 411.83C133.347 412.996 135.862 414.289 136.423 413.932C136.983 413.574 141.264 411.83 142.141 412.881C142.638 413.469 142.247 414.457 141.592 416.097C141.296 416.843 140.968 417.683 140.672 418.598C140.252 420.165 139.323 421.551 138.029 422.539L137.564 422.844L137.3 422.35C136.478 420.899 135.29 419.686 133.854 418.829C133.388 418.531 132.853 418.358 132.3 418.325Z"
            fill="#171A1C" />
        <path
            d="M147.13 414.877L142.109 413.07C142.109 413.07 137.363 408.551 135.344 408.551C133.325 408.551 131.771 408.551 131.465 409.392C131.158 410.232 131.401 406.239 134.71 405.577C136.972 402.256 142.109 401.373 146.179 404.284C150.249 407.195 149.149 412.008 148.959 413.417C148.769 414.825 148.409 415.729 147.13 414.877Z"
            fill="white" />
        <path
            d="M147.987 416.223C147.525 416.202 147.078 416.053 146.697 415.792L141.592 413.911L141.433 413.774C139.319 411.672 136.349 409.476 135.344 409.57C134.354 409.485 133.356 409.571 132.395 409.822C132.315 410.051 132.157 410.245 131.949 410.372C131.741 410.498 131.495 410.549 131.254 410.516C131.007 410.471 130.785 410.341 130.626 410.149C130.468 409.956 130.383 409.714 130.387 409.465C130.453 408.386 130.842 407.352 131.506 406.496C132.169 405.64 133.075 405.001 134.108 404.662C135.373 403.05 137.204 401.973 139.234 401.646C140.548 401.435 141.892 401.485 143.186 401.796C144.48 402.106 145.699 402.67 146.771 403.454C150.999 406.501 150.28 411.357 150.016 413.185V413.522C149.879 414.573 149.625 415.624 148.705 416.076C148.479 416.176 148.234 416.226 147.987 416.223ZM142.701 412.177L147.722 414.058L147.839 414.121C147.92 413.842 147.976 413.558 148.008 413.27L148.061 412.891C148.304 411.252 148.875 407.405 145.629 405.083C144.775 404.442 143.798 403.982 142.759 403.729C141.719 403.476 140.639 403.436 139.583 403.611C138.776 403.736 138.003 404.02 137.309 404.448C136.615 404.876 136.016 405.439 135.545 406.102L135.313 406.449L134.9 406.533C134.211 406.657 133.594 407.032 133.167 407.584C133.812 407.584 134.541 407.584 135.281 407.584C137.501 407.521 141.317 410.905 142.701 412.166V412.177Z"
            fill="#171A1C" />
        <path
            d="M141.433 428.887C141.433 428.887 136.01 432.87 135.196 434.341C134.744 435.183 134.171 435.954 133.495 436.632L122.618 433.09C122.618 433.09 126.846 422.686 127.142 422.097C127.438 421.509 124.171 421.278 124.171 421.278C124.171 421.278 118.833 431.608 118.305 433.532C117.909 435.553 117.661 437.601 117.565 439.659L136.75 439.343C137.415 437.752 138.263 436.243 139.277 434.845C140.727 433.265 142.262 431.763 143.875 430.347L141.433 428.887Z"
            fill="white" />
        <path
            d="M116.55 440.668V439.617C116.649 437.499 116.907 435.391 117.322 433.311C117.861 431.346 122.713 421.929 123.262 420.868L123.569 420.279H124.235C127.406 420.5 127.829 421.141 127.998 421.446C128.084 421.608 128.129 421.788 128.129 421.971C128.129 422.155 128.084 422.335 127.998 422.497C127.797 422.917 125.577 428.34 123.907 432.428L133.188 435.476C133.615 434.975 133.99 434.433 134.308 433.858C135.186 432.271 139.89 428.76 140.82 428.077L141.37 427.678L145.598 430.211L144.541 431.104C142.966 432.484 141.466 433.947 140.048 435.487C139.094 436.808 138.299 438.237 137.68 439.743L137.416 440.394L116.55 440.668ZM124.806 422.339C122.691 426.469 119.668 432.523 119.33 433.794C118.993 435.391 118.777 437.011 118.685 438.639L136.095 438.366C136.722 436.898 137.52 435.508 138.473 434.225C139.635 432.916 140.874 431.678 142.183 430.516L141.465 430.085C139.351 431.703 136.507 434.015 136.063 434.824C135.554 435.761 134.909 436.618 134.15 437.368L133.716 437.767L121.296 433.7L121.698 432.712C122.29 431.251 124.869 424.872 125.926 422.507C125.598 422.444 125.207 422.381 124.806 422.339Z"
            fill="#171A1C" />
        <path
            d="M128.664 408.74C128.664 408.74 131.634 408.151 133.114 409.034C134.472 409.969 135.742 411.024 136.909 412.187L144.255 413.364C144.255 413.364 141.877 408.204 137.353 406.501C134.678 405.503 133.791 405.766 133.791 405.766C133.791 405.766 128.294 407.416 128.664 408.74Z"
            fill="white" />
        <path
            d="M145.946 414.678L136.433 413.143L136.2 412.912C135.094 411.804 133.891 410.794 132.606 409.896C131.782 409.392 129.879 409.528 128.875 409.717L127.903 409.917L127.649 409.013C127.226 407.51 129.182 406.102 133.452 404.809C133.738 404.725 134.89 404.526 137.68 405.566C142.543 407.384 145.08 412.723 145.143 412.923L145.946 414.678ZM137.416 411.273L142.342 412.061C141.084 410.037 139.242 408.437 137.057 407.468C136.122 407.022 135.102 406.782 134.065 406.764C133.272 407.006 132.459 407.3 131.75 407.594C132.436 407.647 133.103 407.844 133.706 408.172C135.035 409.091 136.277 410.128 137.416 411.273Z"
            fill="#171A1C" />
        <path
            d="M118.125 439.06C118.125 439.06 139.203 457.809 142.321 455.591C145.439 453.374 145.143 450.725 143.209 449.096C141.274 447.467 130.746 440.836 128.664 440.1C126.581 439.364 121.687 436.117 118.125 439.06Z"
            fill="#FF8338" />
        <path
            d="M141.803 456.705C137.194 456.705 124.837 446.374 117.491 439.806L116.614 439.039L117.512 438.293C120.926 435.465 125.207 437.431 127.765 438.597C128.262 438.828 128.685 439.028 129.034 439.154C131.349 439.974 141.993 446.742 143.896 448.329C144.469 448.774 144.931 449.346 145.245 449.999C145.558 450.652 145.715 451.368 145.703 452.091C145.618 452.976 145.323 453.829 144.841 454.578C144.36 455.327 143.706 455.951 142.934 456.4C142.601 456.624 142.204 456.731 141.803 456.705ZM119.806 439.207C129.097 447.362 139.89 455.433 141.771 454.761C142.273 454.472 142.703 454.075 143.029 453.598C143.355 453.121 143.568 452.578 143.653 452.007C143.646 451.601 143.547 451.201 143.364 450.837C143.181 450.473 142.919 450.155 142.596 449.905C140.704 448.308 130.281 441.761 128.357 441.078C127.842 440.877 127.337 440.649 126.846 440.394C124.932 439.522 122.11 438.229 119.806 439.207Z"
            fill="#171A1C" />
        <path
            d="M122.565 427.3H115.969C112.799 427.3 110.229 429.852 110.229 433.001C110.229 436.15 112.799 438.702 115.969 438.702H122.565C125.735 438.702 128.305 436.15 128.305 433.001C128.305 429.852 125.735 427.3 122.565 427.3Z"
            fill="#FF8338" />
        <path
            d="M122.618 439.701H115.958C114.217 439.632 112.57 438.896 111.363 437.647C110.156 436.398 109.481 434.733 109.481 433.001C109.481 431.269 110.156 429.604 111.363 428.355C112.57 427.106 114.217 426.37 115.958 426.301H122.618C123.525 426.265 124.43 426.412 125.279 426.733C126.128 427.054 126.903 427.541 127.558 428.167C128.213 428.793 128.734 429.543 129.089 430.374C129.445 431.205 129.629 432.098 129.629 433.001C129.629 433.904 129.445 434.797 129.089 435.628C128.734 436.459 128.213 437.209 127.558 437.835C126.903 438.461 126.128 438.948 125.279 439.269C124.43 439.59 123.525 439.737 122.618 439.701ZM115.958 428.298C114.742 428.355 113.595 428.876 112.755 429.751C111.915 430.627 111.446 431.791 111.446 433.001C111.446 434.211 111.915 435.375 112.755 436.251C113.595 437.126 114.742 437.647 115.958 437.704H122.618C123.258 437.734 123.897 437.635 124.497 437.412C125.098 437.189 125.646 436.848 126.11 436.408C126.573 435.968 126.942 435.44 127.195 434.854C127.447 434.268 127.577 433.638 127.577 433.001C127.577 432.364 127.447 431.734 127.195 431.148C126.942 430.562 126.573 430.034 126.11 429.594C125.646 429.154 125.098 428.813 124.497 428.59C123.897 428.367 123.258 428.268 122.618 428.298H115.958Z"
            fill="#171A1C" />
        <path
            d="M111.645 431.987C111.645 431.987 107.882 433.879 107.829 435.14C107.777 436.401 108.886 439.039 109.848 438.292C110.81 437.546 112.565 436.611 113.02 435.529C113.474 434.446 112.734 431.85 111.645 431.987Z"
            fill="#FF8338" />
        <path
            d="M109.521 439.512C109.259 439.514 109.002 439.453 108.77 439.333C107.523 438.681 106.772 436.39 106.825 435.129C106.889 433.49 109.584 431.892 111.191 431.083L111.328 431.009H111.497C111.825 430.967 112.158 431.015 112.461 431.148C112.763 431.282 113.022 431.496 113.21 431.766C113.63 432.373 113.913 433.063 114.039 433.788C114.165 434.514 114.131 435.258 113.939 435.97C113.285 437.092 112.335 438.016 111.191 438.639C110.916 438.818 110.662 438.997 110.461 439.154C110.196 439.373 109.865 439.498 109.521 439.512ZM111.698 433.111C110.609 433.623 109.646 434.366 108.876 435.287C108.927 436.036 109.171 436.76 109.584 437.389L110.091 437.031C110.857 436.581 111.523 435.98 112.047 435.266C112.17 434.529 112.047 433.772 111.698 433.111Z"
            fill="#171A1C" />
        <path
            d="M123.569 427.436C124.175 427.771 124.679 428.262 125.028 428.858C125.378 429.453 125.56 430.131 125.556 430.82C125.556 433.279 125.556 436.18 125.556 436.18C125.556 436.18 125.419 438.177 124.108 438.639"
            fill="#9FA8DA" />
        <path
            d="M124.615 440.058L123.558 437.221C123.829 436.894 123.981 436.487 123.992 436.065C123.992 436.065 124.045 433.227 123.992 430.81C124.01 430.388 123.912 429.97 123.709 429.6C123.506 429.23 123.205 428.921 122.84 428.708L124.171 426.007C125.028 426.464 125.745 427.143 126.246 427.971C126.746 428.8 127.012 429.748 127.015 430.715C127.068 433.174 127.015 435.97 127.015 436.128C127.047 436.579 126.846 439.343 124.615 440.058Z"
            fill="#171A1C" />
        <path d="M84.0776 405.429L44.8823 437.914H59.0468L98.5697 405.429H84.0776Z" fill="white" />
        <path
            d="M59.5858 439.417H40.7175L83.5068 403.927H102.777L59.5858 439.417ZM49.0153 436.411H58.4548L94.331 406.985H84.6167L49.0153 436.411Z"
            fill="#171A1C" />
        <path d="M78.5175 405.429L39.3328 437.914H42.7047L82.2383 405.429H78.5175Z" fill="white" />
        <path d="M43.2545 439.417H35.1575L77.9784 403.927H86.4454L43.2545 439.417Z" fill="#171A1C" />
        <path d="M237.603 415.382H183.599V506.457H237.603V415.382Z" fill="#FFA670" />
        <path
            d="M238.713 507.571H182.489V414.278H238.713V507.571ZM184.709 505.364H236.504V416.485H184.709V505.364Z"
            fill="#171A1C" />
        <path d="M295.952 457.924H200.279V506.467H295.952V457.924Z" fill="#FFA670" />
        <path
            d="M297.03 507.571H199.169V456.821H297.03V507.571ZM201.346 505.364H294.811V459.028H201.389L201.346 505.364Z"
            fill="#171A1C" />
        <path d="M215.965 416.664H205.976V432.912H215.965V416.664Z" fill="white" stroke="#171A1C"
            stroke-width="2" stroke-miterlimit="10" />
        <path d="M208.915 496.662V501.812" stroke="#171A1C" stroke-width="2" stroke-miterlimit="10"
            stroke-linecap="round" />
        <path d="M206.695 492.248H211.135" stroke="#171A1C" stroke-width="2" stroke-miterlimit="10"
            stroke-linecap="round" />
        <path d="M188.598 493.961L191.421 491.144L194.285 493.993" stroke="#171A1C" stroke-width="2"
            stroke-miterlimit="10" stroke-linecap="round" />
        <path d="M191.442 494.77V501.139" stroke="#171A1C" stroke-width="2" stroke-miterlimit="10"
            stroke-linecap="round" />
        <path
            d="M211.557 492.258C211.557 494.455 210.395 496.221 208.968 496.221C207.541 496.221 206.388 494.455 206.388 492.258"
            stroke="#171A1C" stroke-width="2" stroke-miterlimit="10" stroke-linecap="round" />
        <path d="M206.388 502.379H211.558" stroke="#171A1C" stroke-width="2" stroke-miterlimit="10"
            stroke-linecap="round" />
    </g>
    <path
        d="M149.7 362.232C149.7 363.629 150.665 364.841 152.026 365.155L199.741 376.153C201.621 376.586 203.415 375.159 203.415 373.23V330.297C203.415 329.95 203.82 329.76 204.088 329.982L280.958 163.49L289.005 146.27C289.934 144.281 288.482 142 286.287 142H68.7103C66.5155 142 65.0636 144.28 65.9917 146.269L149.419 325.067C149.604 325.464 149.7 325.897 149.7 326.336V362.232Z"
        fill="#FFA670" />
    <path
        d="M89.1668 163.49H280.958M280.958 163.49L289.005 146.27C289.934 144.281 288.482 142 286.287 142H68.7103C66.5155 142 65.0636 144.28 65.9917 146.269L149.419 325.067C149.604 325.464 149.7 325.897 149.7 326.336V362.232C149.7 363.629 150.665 364.841 152.026 365.155L199.741 376.153C201.621 376.586 203.415 375.159 203.415 373.23V330.297C203.415 329.95 203.82 329.76 204.088 329.982V329.982M280.958 163.49L204.088 329.982M162.672 329.982H204.088"
        stroke="black" stroke-width="3" />
    <path d="M249.886 76.3456H195.125V121.987H249.886V76.3456Z" fill="#FFA670" />
    <path
        d="M251.011 121.753H194V75H251.011V121.753ZM197.17 119.854H247.851V77.5702H197.17V119.854Z"
        fill="#171A1C" />
    <path d="M227.869 76.8804H217.741V90.9828H227.869V76.8804Z" fill="white" stroke="#171A1C"
        stroke-width="2" stroke-miterlimit="10" />
    <path d="M204.886 1.34595H150.125V46.9877H204.886V1.34595Z" fill="white" />
    <path d="M206.011 46.7532H149V0H206.011V46.7532ZM152.17 44.8545H202.851V2.57024H152.17V44.8545Z"
        fill="#171A1C" />
    <path d="M182.869 1.88065H172.741V15.9832H182.869V1.88065Z" fill="white" stroke="#171A1C"
        stroke-width="2" stroke-miterlimit="10" />
    <path d="M161.964 67.6529H97.3284V121.526H161.964V67.6529Z" fill="#FF8338" />
    <path
        d="M163.292 122.184H96V67H163.292V122.184ZM98.6568 120.086H160.648V69.0981H98.6568V120.086Z"
        fill="#171A1C" />
    <path d="M135.977 68.2838H124.023V84.9295H135.977V68.2838Z" fill="white" stroke="#171A1C"
        stroke-width="2" stroke-miterlimit="10" />
    <path d="M158 34.0629L161.082 32L164.21 34.0859" stroke="#171A1C" stroke-width="2"
        stroke-miterlimit="10" stroke-linecap="round" />
    <path d="M161.105 34.6555V39.3204" stroke="#171A1C" stroke-width="2" stroke-miterlimit="10"
        stroke-linecap="round" />
    <defs>
        <clipPath id="clip0_0_1">
            <rect width="315" height="118" fill="white" transform="translate(0 391)" />
        </clipPath>
    </defs>
</svg>