<svg width="31" height="22" viewBox="0 0 31 22" fill="none" xmlns="http://www.w3.org/2000/svg">
<path fill-rule="evenodd" clip-rule="evenodd" d="M3.47296 5.42128C1.58615 7.87345 0.643372 10.5168 0.643372 13.3511C0.643372 15.7606 1.40934 17.7875 2.9411 19.4312C4.47287 21.0755 6.18881 21.8971 8.08959 21.8971C9.64929 21.8971 10.9543 21.4081 12.0042 20.4303C13.0532 19.4523 13.5784 18.2831 13.5784 16.9226C13.5784 15.6756 13.1456 14.6198 12.2806 13.7549C11.415 12.8906 10.4012 12.4583 9.23837 12.4583C8.72782 12.4583 8.16 12.5643 7.53643 12.7769C6.91214 12.9895 6.41546 13.0958 6.04714 13.0958C5.67812 13.0958 5.36641 12.898 5.11113 12.5008C4.82722 12.1326 4.68555 11.4521 4.68555 10.4601C4.68555 8.78762 5.22414 7.2428 6.30251 5.82508C7.3802 4.4082 9.16727 3.04777 11.6637 1.74345V0C8.08959 1.16297 5.35908 2.96997 3.47296 5.42128ZM20.8732 5.33635C18.9725 7.78823 18.0223 10.5023 18.0223 13.4785C18.0223 15.8879 18.7736 17.9004 20.2775 19.5162C21.7807 21.132 23.4687 21.9395 25.341 21.9395C26.9292 21.9395 28.2695 21.4294 29.3618 20.409C30.4535 19.3888 31 18.1842 31 16.795C31 15.5768 30.5672 14.5488 29.7022 13.7125C28.8366 12.8769 27.8227 12.4583 26.6599 12.4583C26.0357 12.4583 25.4114 12.5717 24.7878 12.798C24.1635 13.0254 23.6955 13.1383 23.3836 13.1383C23.0433 13.1383 22.7168 12.9402 22.405 12.5433C22.0926 12.1466 21.9369 11.5513 21.9369 10.7573C21.9369 9.00023 22.3903 7.46965 23.2985 6.16533C24.206 4.86188 26.0921 3.38772 28.9577 1.74345V0.127675C25.4685 1.14815 22.7733 2.88475 20.8732 5.33635Z" fill="#FF6000"/>
</svg>
