<svg width="94" height="23" viewBox="0 0 94 23" fill="none" xmlns="http://www.w3.org/2000/svg">
<g clip-path="url(#clip0_2030_4016)">
<path d="M24.9123 8.21338H34.3181V9.96746H30.6197V19.828H28.5861V9.96746H24.9041V8.21338H24.9123H24.9123ZM33.9163 11.4183H35.6547V13.0412H35.6875C35.7449 12.8117 35.8515 12.5904 36.0074 12.3773C36.1632 12.1642 36.3518 11.9592 36.5732 11.7871C36.7946 11.6068 37.0406 11.4674 37.3112 11.3527C37.5818 11.2461 37.8606 11.1888 38.1394 11.1888C38.3526 11.1888 38.5084 11.197 38.5904 11.2052C38.6725 11.2133 38.7545 11.2297 38.8447 11.2379V13.0248C38.7135 13.0002 38.5822 12.9838 38.4428 12.9674C38.3034 12.951 38.1722 12.9428 38.041 12.9428C37.7294 12.9428 37.4342 13.0084 37.1554 13.1314C36.8766 13.2543 36.6388 13.4428 36.4338 13.6805C36.2288 13.9264 36.0648 14.2215 35.9417 14.5822C35.8187 14.9428 35.7613 15.3527 35.7613 15.8199V19.8198H33.9081V11.4183H33.9163V11.4183ZM47.3648 19.828H45.5443V18.6559H45.5115C45.2819 19.0821 44.9457 19.4182 44.4947 19.6723C44.0437 19.9264 43.5844 20.0575 43.117 20.0575C42.01 20.0575 41.2064 19.787 40.7143 19.2379C40.2223 18.6887 39.9763 17.8608 39.9763 16.7543V11.4183H41.8296V16.574C41.8296 17.3116 41.969 17.8362 42.256 18.1395C42.5348 18.4428 42.9366 18.5985 43.445 18.5985C43.8387 18.5985 44.1585 18.5411 44.4209 18.4182C44.6833 18.2952 44.8965 18.1395 45.0523 17.9346C45.2163 17.7379 45.3311 17.492 45.4049 17.2133C45.4787 16.9346 45.5115 16.6313 45.5115 16.3035V11.4265H47.3648V19.828V19.828ZM50.5219 17.1313C50.5793 17.6723 50.7843 18.0493 51.1369 18.2707C51.4977 18.4838 51.9242 18.5985 52.4244 18.5985C52.5966 18.5985 52.7934 18.5821 53.0148 18.5575C53.2362 18.5329 53.4494 18.4756 53.638 18.4018C53.8348 18.328 53.9906 18.2133 54.1218 18.0657C54.2448 17.9182 54.3022 17.7297 54.2941 17.492C54.2859 17.2543 54.1956 17.0576 54.0316 16.91C53.8676 16.7543 53.6626 16.6395 53.4084 16.5412C53.1542 16.451 52.8672 16.369 52.5392 16.3035C52.2112 16.2379 51.8832 16.1641 51.5469 16.0904C51.2025 16.0166 50.8663 15.9182 50.5465 15.8117C50.2267 15.7051 49.9397 15.5576 49.6855 15.369C49.4313 15.1887 49.2263 14.951 49.0787 14.6641C48.9228 14.3773 48.849 14.0248 48.849 13.5986C48.849 13.1396 48.9638 12.7625 49.1853 12.451C49.4067 12.1396 49.6937 11.8937 50.0299 11.7051C50.3743 11.5166 50.7515 11.3855 51.1697 11.3035C51.5879 11.2297 51.9898 11.1888 52.367 11.1888C52.8016 11.1888 53.2198 11.2379 53.6134 11.3281C54.007 11.4183 54.3678 11.5658 54.6877 11.7789C55.0075 11.9838 55.2699 12.2543 55.4831 12.5822C55.6963 12.9101 55.8275 13.3117 55.8849 13.7789H53.9496C53.8594 13.3363 53.6626 13.033 53.3428 12.8855C53.023 12.7297 52.654 12.656 52.244 12.656C52.1128 12.656 51.957 12.6642 51.7766 12.6887C51.5961 12.7133 51.4321 12.7543 51.2681 12.8117C51.1123 12.8691 50.9811 12.9592 50.8663 13.074C50.7597 13.1887 50.7023 13.3363 50.7023 13.5248C50.7023 13.7543 50.7843 13.9346 50.9401 14.074C51.0959 14.2133 51.3009 14.3281 51.5551 14.4264C51.8094 14.5166 52.0964 14.5986 52.4244 14.6641C52.7524 14.7297 53.0886 14.8035 53.433 14.8772C53.7692 14.951 54.0972 15.0494 54.4253 15.1559C54.7533 15.2625 55.0403 15.41 55.2945 15.5986C55.5487 15.7871 55.7537 16.0166 55.9095 16.2953C56.0653 16.574 56.1473 16.9264 56.1473 17.3362C56.1473 17.8362 56.0325 18.2543 55.8029 18.6067C55.5733 18.951 55.2781 19.2379 54.9173 19.451C54.5565 19.6641 54.1464 19.828 53.7036 19.9264C53.2608 20.0247 52.818 20.0739 52.3834 20.0739C51.8504 20.0739 51.3583 20.0165 50.9073 19.8936C50.4563 19.7706 50.0627 19.5903 49.7347 19.3526C49.4067 19.1067 49.1443 18.8034 48.9556 18.4428C48.767 18.0821 48.6686 17.6477 48.6522 17.1477H50.5219V17.1313ZM56.6393 11.4183H58.0416V8.8937H59.8949V11.4183H61.5677V12.8035H59.8949V17.2953C59.8949 17.492 59.9031 17.6559 59.9195 17.8034C59.9359 17.9428 59.9769 18.0657 60.0343 18.1641C60.0917 18.2625 60.1819 18.3362 60.3049 18.3854C60.4279 18.4346 60.5837 18.4592 60.7969 18.4592C60.9281 18.4592 61.0593 18.4592 61.1905 18.451C61.3217 18.4428 61.4529 18.4264 61.5841 18.3936V19.828C61.3791 19.8526 61.1741 19.869 60.9855 19.8936C60.7887 19.9182 60.5919 19.9264 60.3869 19.9264C59.8949 19.9264 59.5012 19.8772 59.206 19.787C58.9108 19.6969 58.673 19.5575 58.509 19.3772C58.3368 19.1969 58.2302 18.9756 58.1646 18.7051C58.1072 18.4346 58.0662 18.1231 58.058 17.7789V12.8199H56.6557V11.4183H56.6393ZM62.8798 11.4183H64.6346V12.5576H64.6674C64.9299 12.0658 65.2907 11.7215 65.7581 11.5084C66.2255 11.2953 66.7257 11.1888 67.2751 11.1888C67.9394 11.1888 68.5134 11.3035 69.0054 11.5412C69.4974 11.7707 69.9074 12.0904 70.2355 12.5002C70.5635 12.9101 70.8013 13.3855 70.9653 13.9264C71.1293 14.4674 71.2113 15.0494 71.2113 15.6641C71.2113 16.2297 71.1375 16.7789 70.9899 17.3035C70.8423 17.8362 70.6209 18.3034 70.3257 18.7133C70.0304 19.1231 69.6532 19.4428 69.194 19.6887C68.7348 19.9346 68.2018 20.0575 67.5786 20.0575C67.3079 20.0575 67.0373 20.0329 66.7667 19.9838C66.4961 19.9346 66.2337 19.8526 65.9877 19.746C65.7417 19.6395 65.5039 19.5002 65.2989 19.328C65.0857 19.1559 64.9135 18.9592 64.7659 18.7379H64.733V22.9345H62.8798V11.4183V11.4183ZM69.358 15.6313C69.358 15.2543 69.3088 14.8854 69.2104 14.5248C69.112 14.1641 68.9644 13.8527 68.7676 13.574C68.5708 13.2953 68.3248 13.074 68.0378 12.9101C67.7426 12.7461 67.4064 12.656 67.0291 12.656C66.2501 12.656 65.6597 12.9264 65.2661 13.4674C64.8725 14.0084 64.6756 14.7297 64.6756 15.6313C64.6756 16.0576 64.7248 16.451 64.8315 16.8117C64.9381 17.1723 65.0857 17.4838 65.2989 17.7461C65.5039 18.0084 65.7499 18.2133 66.0369 18.3608C66.3239 18.5166 66.6601 18.5903 67.0373 18.5903C67.4638 18.5903 67.8164 18.5002 68.1116 18.328C68.4068 18.1559 68.6446 17.9264 68.8332 17.6559C69.0218 17.3772 69.1612 17.0658 69.2432 16.7133C69.317 16.3608 69.358 16.0002 69.358 15.6313ZM72.63 8.21338H74.4832V9.96746H72.63V8.21338V8.21338ZM72.63 11.4183H74.4832V19.828H72.63V11.4183ZM76.1397 8.21338H77.993V19.828H76.1397V8.21338V8.21338ZM83.6758 20.0575C83.0033 20.0575 82.4047 19.9428 81.8799 19.7215C81.3551 19.5002 80.9123 19.1887 80.5433 18.8034C80.1824 18.41 79.9036 17.9428 79.715 17.4018C79.5264 16.8608 79.428 16.2625 79.428 15.6149C79.428 14.9756 79.5264 14.3854 79.715 13.8445C79.9036 13.3035 80.1824 12.8363 80.5432 12.4428C80.9041 12.0494 81.3551 11.7461 81.8799 11.5248C82.4047 11.3035 83.0033 11.1888 83.6758 11.1888C84.3482 11.1888 84.9468 11.3035 85.4716 11.5248C85.9965 11.7461 86.4393 12.0576 86.8083 12.4428C87.1691 12.8363 87.4479 13.3035 87.6365 13.8445C87.8251 14.3854 87.9235 14.9756 87.9235 15.6149C87.9235 16.2625 87.8251 16.8608 87.6365 17.4018C87.4479 17.9428 87.1691 18.41 86.8083 18.8034C86.4475 19.1969 85.9965 19.5002 85.4716 19.7215C84.9468 19.9428 84.3482 20.0575 83.6758 20.0575ZM83.6758 18.5903C84.0858 18.5903 84.4466 18.5002 84.75 18.328C85.0534 18.1559 85.2994 17.9264 85.4962 17.6477C85.693 17.369 85.8325 17.0494 85.9309 16.6969C86.0211 16.3444 86.0703 15.9838 86.0703 15.6149C86.0703 15.2543 86.0211 14.9018 85.9309 14.5412C85.8407 14.1805 85.693 13.8691 85.4962 13.5904C85.2994 13.3117 85.0534 13.0904 84.75 12.9183C84.4466 12.7461 84.0858 12.656 83.6758 12.656C83.2658 12.656 82.9049 12.7461 82.6015 12.9183C82.2981 13.0904 82.0521 13.3199 81.8553 13.5904C81.6585 13.8691 81.5191 14.1805 81.4207 14.5412C81.3305 14.9018 81.2813 15.2543 81.2813 15.6149C81.2813 15.9838 81.3305 16.3444 81.4207 16.6969C81.5109 17.0494 81.6585 17.369 81.8553 17.6477C82.0521 17.9264 82.2981 18.1559 82.6015 18.328C82.9049 18.5084 83.2658 18.5903 83.6758 18.5903ZM88.4647 11.4183H89.867V8.8937H91.7203V11.4183H93.3931V12.8035H91.7203V17.2953C91.7203 17.492 91.7285 17.6559 91.7449 17.8034C91.7613 17.9428 91.8023 18.0657 91.8597 18.1641C91.9171 18.2625 92.0073 18.3362 92.1303 18.3854C92.2533 18.4346 92.4091 18.4592 92.6223 18.4592C92.7535 18.4592 92.8847 18.4592 93.0159 18.451C93.1471 18.4428 93.2783 18.4264 93.4095 18.3936V19.828C93.2045 19.8526 92.9995 19.869 92.8109 19.8936C92.6141 19.9182 92.4173 19.9264 92.2123 19.9264C91.7203 19.9264 91.3267 19.8772 91.0314 19.787C90.7362 19.6969 90.4984 19.5575 90.3344 19.3772C90.1622 19.1969 90.0556 18.9756 89.99 18.7051C89.9326 18.4346 89.8916 18.1231 89.8834 17.7789V12.8199H88.4812V11.4183H88.4647V11.4183Z" fill="#191919"/>
<path d="M22.7474 8.21323H14.2519L11.6278 0.131348L8.99552 8.21323L0.5 8.20504L7.38006 13.205L4.74776 21.2787L11.6278 16.2869L18.4997 21.2787L15.8756 13.205L22.7474 8.21323Z" fill="#00B67A"/>
<path d="M16.466 15.0329L15.8756 13.2051L11.6278 16.287L16.466 15.0329Z" fill="#005128"/>
</g>
<defs>
<clipPath id="clip0_2030_4016">
<rect width="93" height="23" fill="white" transform="translate(0.5)"/>
</clipPath>
</defs>
</svg>
