<svg width="32" height="28" viewBox="0 0 32 28" fill="none" xmlns="http://www.w3.org/2000/svg">
<path d="M16.3726 2.63834L24.1433 5.50366L25.2369 6.92911L24.9916 9.13653L19.1398 25.1281L19.815 25.3965L20.9865 24.8886L31.3888 12.4058V11.0525L30.7684 9.2635L20.2478 0.644439L18.5165 0.39917L17.0305 1.64283L16.3726 2.63834Z" fill="#FFA670"/>
<path d="M16.7852 4.21957L14.3094 4.04067L7.50244 3.82426L8.89326 1.6428L10.6621 0.644409L23.8056 5.50363L25.4244 7.06181L20.3055 21.9107L18.932 25.6821L18.1414 25.6648L18.0663 5.17757L16.7852 4.21957Z" fill="#FFA670"/>
<path d="M0.300049 24.7529L0.721335 25.9187L1.73127 26.7843L15.9021 27.0469L17.2006 26.666L18.2163 25.3531V5.86428L17.4256 4.57734L15.9021 3.82422L1.73127 4.1272L0.721335 4.80241L0.300049 5.86428V24.7529Z" fill="#FF8338"/>
<path d="M16.0464 27.3875H2.56523C2.22798 27.3871 1.89411 27.3203 1.58268 27.1909C1.27124 27.0615 0.988348 26.872 0.750144 26.6333C0.511941 26.3945 0.323093 26.1112 0.194383 25.7995C0.0656734 25.4877 -0.000377522 25.1537 1.62305e-06 24.8165V6.14714C0.00076536 5.46703 0.271275 4.815 0.752184 4.33409C1.23309 3.85318 1.88513 3.58267 2.56523 3.58191H16.0464C16.7265 3.58267 17.3785 3.85318 17.8594 4.33409C18.3404 4.815 18.6109 5.46703 18.6116 6.14714V24.8165C18.612 25.1537 18.546 25.4877 18.4172 25.7995C18.2885 26.1112 18.0997 26.3945 17.8615 26.6333C17.6233 26.872 17.3404 27.0615 17.029 27.1909C16.7175 27.3203 16.3836 27.3871 16.0464 27.3875ZM2.56523 4.30329C2.07645 4.30405 1.6079 4.49856 1.26228 4.84418C0.916653 5.18981 0.722146 5.65835 0.721382 6.14714V24.8165C0.722146 25.3053 0.916653 25.7738 1.26228 26.1194C1.6079 26.4651 2.07645 26.6596 2.56523 26.6603H16.0464C16.5352 26.6596 17.0037 26.4651 17.3494 26.1194C17.695 25.7738 17.8895 25.3053 17.8902 24.8165V6.14714C17.8895 5.65835 17.695 5.18981 17.3494 4.84418C17.0037 4.49856 16.5352 4.30405 16.0464 4.30329H2.56523Z" fill="#171A1C"/>
<path d="M18.124 26.3832C18.016 26.3837 17.9088 26.3661 17.8066 26.3313C17.7187 26.2997 17.6464 26.2352 17.6051 26.1515C17.5637 26.0677 17.5565 25.9711 17.5849 25.8821C17.6134 25.7931 17.6752 25.7186 17.7574 25.6743C17.8397 25.63 17.9359 25.6193 18.0259 25.6445C18.3952 25.7657 18.7559 25.0674 18.8338 24.877L24.8934 8.18424C24.9762 7.95669 25.0134 7.71506 25.0028 7.47315C24.9922 7.23123 24.9341 6.99377 24.8318 6.77432C24.7294 6.55487 24.5848 6.35774 24.4063 6.19416C24.2277 6.03059 24.0187 5.90379 23.7912 5.821L11.1122 1.23302C10.6526 1.06658 10.1457 1.08915 9.70276 1.29577C9.25978 1.50239 8.91677 1.8762 8.74893 2.33529L8.07083 4.0666C8.05359 4.11075 8.02783 4.15106 7.995 4.18525C7.96218 4.21944 7.92295 4.24682 7.87954 4.26585C7.83613 4.28487 7.7894 4.29516 7.74202 4.29613C7.69464 4.29709 7.64753 4.28871 7.60338 4.27147C7.55923 4.25423 7.51892 4.22846 7.48473 4.19564C7.45054 4.16282 7.42316 4.12358 7.40413 4.08017C7.38511 4.03677 7.37482 3.99004 7.37385 3.94266C7.37289 3.89527 7.38127 3.84816 7.39851 3.80402L8.07661 2.0727C8.31174 1.43671 8.78938 0.919857 9.40488 0.635365C10.0204 0.350873 10.7235 0.321945 11.3603 0.554918L24.0336 5.1429C24.6724 5.37579 25.1926 5.85279 25.4799 6.46907C25.7672 7.08534 25.7981 7.79048 25.5658 8.42951L19.5062 25.1338C19.3042 25.6417 18.8136 26.3832 18.124 26.3832Z" fill="#171A1C"/>
<path d="M19.7773 25.7485C19.4396 25.7435 19.117 25.608 18.877 25.3704C18.8074 25.3046 18.7667 25.2138 18.764 25.1181C18.7613 25.0223 18.7968 24.9293 18.8626 24.8597C18.9284 24.7901 19.0192 24.7494 19.115 24.7467C19.2107 24.744 19.3037 24.7795 19.3733 24.8453C19.4287 24.9042 19.4958 24.9509 19.5704 24.9822C19.645 25.0135 19.7253 25.0288 19.8061 25.0271C20.0871 24.9724 20.3402 24.8213 20.5218 24.6L30.8462 12.5183C31.1622 12.1463 31.318 11.6642 31.2796 11.1776C31.2413 10.6909 31.0117 10.2393 30.6413 9.92136L20.389 1.15514C20.0166 0.83984 19.5348 0.684457 19.0484 0.72283C18.5619 0.761203 18.1104 0.990223 17.7921 1.36001L16.5484 2.92973C16.519 2.96763 16.4825 2.99936 16.4408 3.02313C16.3992 3.0469 16.3533 3.06224 16.3057 3.06827C16.2582 3.0743 16.2099 3.0709 16.1637 3.05827C16.1174 3.04564 16.0741 3.02402 16.0362 2.99466C15.9983 2.96529 15.9666 2.92875 15.9428 2.88711C15.919 2.84548 15.9037 2.79957 15.8977 2.75201C15.8916 2.70445 15.895 2.65617 15.9077 2.60992C15.9203 2.56368 15.9419 2.52037 15.9713 2.48248L17.2236 0.904095C17.4424 0.646872 17.7098 0.435333 18.0105 0.281586C18.3112 0.127839 18.6392 0.0349038 18.9759 0.00810132C19.3125 -0.0187012 19.6511 0.021155 19.9723 0.125388C20.2936 0.229621 20.5911 0.396185 20.8478 0.615543L31.1001 9.37311C31.617 9.8148 31.9377 10.4435 31.9918 11.1212C32.0459 11.799 31.829 12.4706 31.3886 12.9887L21.0642 25.0646C20.7578 25.4359 20.3233 25.6789 19.8465 25.7456L19.7773 25.7485Z" fill="#171A1C"/>
<path d="M7.86298 9.13653L4.65139 9.40488C4.62954 9.4074 4.60882 9.41597 4.59157 9.42961C4.57431 9.44325 4.5612 9.46143 4.55371 9.48211C4.54621 9.50279 4.54463 9.52515 4.54915 9.54668C4.55366 9.56821 4.56408 9.58805 4.57925 9.60399L6.70877 11.7335L6.17206 14.9566C6.16795 14.9876 6.17627 15.019 6.19519 15.0438C6.21411 15.0687 6.2421 15.0851 6.27305 15.0894C6.29559 15.0965 6.31976 15.0965 6.3423 15.0894L9.30574 13.4735L12.2461 15.0778C12.2612 15.0852 12.2779 15.0892 12.2947 15.0895C12.3116 15.0898 12.3283 15.0863 12.3437 15.0795C12.3591 15.0726 12.3728 15.0624 12.3839 15.0497C12.3949 15.0369 12.4031 15.0219 12.4077 15.0057C12.4177 14.9797 12.4177 14.9509 12.4077 14.9249L11.6055 11.722L14.2602 9.59821C14.2778 9.58326 14.2906 9.56348 14.2971 9.54131C14.3036 9.51914 14.3035 9.49556 14.2967 9.47347C14.29 9.45137 14.2769 9.43174 14.2591 9.41699C14.2414 9.40224 14.2197 9.39301 14.1967 9.39046L10.7341 9.12499L9.40673 5.9336C9.39351 5.90542 9.36995 5.88341 9.34094 5.87213C9.31193 5.86085 9.2797 5.86116 9.25091 5.873C9.22416 5.88537 9.20268 5.90685 9.19032 5.9336L7.86298 9.13653Z" fill="#FFA670"/>
<path d="M6.28757 15.4529H6.22697C6.1645 15.445 6.1042 15.4249 6.04955 15.3936C5.99491 15.3623 5.94702 15.3205 5.90864 15.2706C5.87027 15.2207 5.84217 15.1637 5.82599 15.1028C5.8098 15.042 5.80584 14.9785 5.81434 14.9162L6.32219 11.8633L4.3283 9.86072C4.25166 9.78271 4.20383 9.68095 4.19268 9.57216C4.1805 9.44651 4.21812 9.3211 4.29744 9.22289C4.37676 9.12469 4.49145 9.06153 4.61685 9.047L7.62068 8.79596L8.86434 5.79501C8.91209 5.68279 9.00084 5.59301 9.1125 5.54397C9.16988 5.5186 9.23171 5.50481 9.29444 5.50341C9.35717 5.50202 9.41956 5.51303 9.47801 5.53582C9.53647 5.55862 9.58984 5.59274 9.63507 5.63623C9.6803 5.67972 9.71648 5.73172 9.74154 5.78924L10.9967 8.79307L14.2401 9.04411C14.3336 9.05283 14.4225 9.08887 14.4958 9.14775C14.569 9.20662 14.6233 9.28573 14.6519 9.37523C14.6805 9.46473 14.6821 9.56066 14.6566 9.65109C14.6311 9.74151 14.5796 9.82244 14.5084 9.8838L12.0269 11.8719L12.7713 14.8498C12.7928 14.9391 12.7881 15.0327 12.7578 15.1194C12.7275 15.2062 12.6729 15.2824 12.6005 15.3389C12.5281 15.3955 12.441 15.43 12.3495 15.4385C12.2581 15.4469 12.1661 15.4289 12.0846 15.3865L9.3116 13.8745L6.5213 15.3951C6.44918 15.4329 6.36899 15.4527 6.28757 15.4529ZM5.19396 9.72221L7.08397 11.6093L6.61075 14.5208L9.30583 13.0521L11.9317 14.4949L11.2074 11.6093L13.562 9.71355L10.4947 9.47983L9.30005 6.6145L8.11122 9.47694L5.19396 9.72221Z" fill="#171A1C"/>
<path d="M16.5195 17.8652H2.09189C1.99623 17.8652 1.90449 17.8272 1.83684 17.7595C1.7692 17.6919 1.7312 17.6002 1.7312 17.5045C1.7312 17.4088 1.7692 17.3171 1.83684 17.2494C1.90449 17.1818 1.99623 17.1438 2.09189 17.1438H16.5195C16.6152 17.1438 16.7069 17.1818 16.7746 17.2494C16.8422 17.3171 16.8802 17.4088 16.8802 17.5045C16.8802 17.6002 16.8422 17.6919 16.7746 17.7595C16.7069 17.8272 16.6152 17.8652 16.5195 17.8652Z" fill="#171A1C"/>
<path d="M6.99746 20.4622H4.40049C4.30482 20.4622 4.21308 20.4242 4.14544 20.3566C4.0778 20.2889 4.03979 20.1972 4.03979 20.1015C4.03979 20.0059 4.0778 19.9141 4.14544 19.8465C4.21308 19.7788 4.30482 19.7408 4.40049 19.7408H6.99746C7.09312 19.7408 7.18486 19.7788 7.2525 19.8465C7.32015 19.9141 7.35815 20.0059 7.35815 20.1015C7.35815 20.1972 7.32015 20.2889 7.2525 20.3566C7.18486 20.4242 7.09312 20.4622 6.99746 20.4622Z" fill="#171A1C"/>
<path d="M14.2113 20.4622H8.15171C8.05604 20.4622 7.9643 20.4242 7.89666 20.3566C7.82902 20.2889 7.79102 20.1972 7.79102 20.1015C7.79102 20.0059 7.82902 19.9141 7.89666 19.8465C7.9643 19.7788 8.05604 19.7408 8.15171 19.7408H14.2113C14.307 19.7408 14.3987 19.7788 14.4664 19.8465C14.534 19.9141 14.572 20.0059 14.572 20.1015C14.572 20.1972 14.534 20.2889 14.4664 20.3566C14.3987 20.4242 14.307 20.4622 14.2113 20.4622Z" fill="#171A1C"/>
<path d="M14.2113 22.482H4.40049C4.30482 22.482 4.21308 22.444 4.14544 22.3764C4.0778 22.3087 4.03979 22.217 4.03979 22.1213C4.03979 22.0256 4.0778 21.9339 4.14544 21.8663C4.21308 21.7986 4.30482 21.7606 4.40049 21.7606H14.2113C14.3069 21.7606 14.3987 21.7986 14.4663 21.8663C14.534 21.9339 14.572 22.0256 14.572 22.1213C14.572 22.217 14.534 22.3087 14.4663 22.3764C14.3987 22.444 14.3069 22.482 14.2113 22.482Z" fill="#171A1C"/>
<path d="M14.2113 24.2133H4.40049C4.30482 24.2133 4.21308 24.1753 4.14544 24.1077C4.0778 24.04 4.03979 23.9483 4.03979 23.8526C4.03979 23.757 4.0778 23.6652 4.14544 23.5976C4.21308 23.5299 4.30482 23.4919 4.40049 23.4919H14.2113C14.3069 23.4919 14.3987 23.5299 14.4663 23.5976C14.534 23.6652 14.572 23.757 14.572 23.8526C14.572 23.9483 14.534 24.04 14.4663 24.1077C14.3987 24.1753 14.3069 24.2133 14.2113 24.2133Z" fill="#171A1C"/>
</svg>
