<svg width="32" height="39" viewBox="0 0 32 39" fill="none" xmlns="http://www.w3.org/2000/svg">
<path d="M11.5214 9.73603L13.3917 10.856L13.6911 13.8943L12.1498 18.0194L14.1236 21.7378L13.8353 26.7537H26.5985L27.5743 26.0329L27.7333 25.168L26.7648 23.2829V22.211L28.0955 20.8655L26.4174 18.4851L28.0955 16.2082L26.4174 13.8943L28.0955 11.8318L26.3841 9.73603L27.6335 8.31667L27.4671 3.51521L26.0478 0.839105L20.3333 0.443604L13.3917 0.657987L11.1592 2.97555L11.5214 9.73603Z" fill="#FFA670"/>
<path d="M23.1388 5.10083H16.7036V11.1036H23.1388V5.10083Z" fill="#FF8338"/>
<path d="M23.1388 15.0808H16.7036V21.0836H23.1388V15.0808Z" fill="#FF8338"/>
<path d="M26.384 9.73598L29.3115 6.8418H30.5756L31.4812 7.74738L31.0783 9.04847L29.8511 10.5085L31.4812 12.157V13.1329L29.8511 14.944L31.4812 16.4632L31.2631 17.9195L29.8548 19.5976L31.3001 20.6991L31.4812 21.8117L28.465 24.765L26.384 22.7543L28.0954 20.8655L26.4173 18.4851L28.0954 16.4632L26.384 14.1124L28.3726 12.0277L26.384 9.73598Z" fill="#FF8338"/>
<path d="M4.53178 23.8152L14.4526 33.6473L10.6048 37.7464L0.0629883 27.4856L4.53178 23.8152Z" fill="#FFA670"/>
<path d="M5.92896 24.765L13.6431 32.7822L14.5598 31.6253L17.0067 31.1891L21.2611 30.1763L22.9799 28.0066V26.8497L13.8353 26.7536L14.4526 22.355L12.1498 18.0193L13.7872 13.484L12.8706 10.2017L11.0372 9.61768L10.0651 11.1036L7.90646 16.2451L7.50726 18.9508V23.2828L5.92896 24.765Z" fill="#FF8338"/>
<path d="M10.5124 38.2711C10.3638 38.272 10.2166 38.243 10.0794 38.1858C9.94226 38.1287 9.81799 38.0446 9.71399 37.9385L0.262615 28.4612C0.177332 28.3776 0.110057 28.2774 0.0649254 28.1668C0.0197944 28.0562 -0.00223905 27.9375 0.000179592 27.8181C-0.00039496 27.7 0.0225104 27.583 0.0675637 27.4738C0.112617 27.3647 0.178919 27.2656 0.262615 27.1823L3.89605 23.5489C3.97948 23.4653 4.07858 23.399 4.18767 23.3537C4.29676 23.3084 4.41371 23.2852 4.53181 23.2852C4.64992 23.2852 4.76686 23.3084 4.87595 23.3537C4.98504 23.399 5.08414 23.4653 5.16757 23.5489L13.5877 31.9653L14.5044 31.0486H14.6966C14.7298 31.0486 18.3115 31.0486 20.4036 29.9878C22.4957 28.9269 22.736 28.3171 22.736 27.0751C22.736 26.9526 22.7846 26.8351 22.8713 26.7484C22.9579 26.6618 23.0755 26.6131 23.198 26.6131C23.3205 26.6131 23.438 26.6618 23.5247 26.7484C23.6113 26.8351 23.66 26.9526 23.66 27.0751C23.66 28.8752 23.0206 29.7106 20.8139 30.8157C18.7957 31.8248 15.6983 31.9542 14.8999 31.969L14.216 32.6528L14.7853 33.2257C14.953 33.3941 15.0471 33.622 15.0471 33.8596C15.0471 34.0973 14.953 34.3252 14.7853 34.4935L11.3219 37.9422C11.2154 38.0478 11.089 38.1312 10.9501 38.1877C10.8111 38.2441 10.6624 38.2725 10.5124 38.2711ZM4.51333 24.1994L0.916855 27.8329L10.3682 37.2879C10.4062 37.3252 10.4573 37.346 10.5105 37.346C10.5637 37.346 10.6148 37.3252 10.6528 37.2879L14.1015 33.8578L5.11952 24.813C5.10403 24.7987 5.09038 24.7826 5.07886 24.7649L4.51333 24.1994Z" fill="#171A1C"/>
<path d="M13.5691 28.6462H13.4656C13.4063 28.6326 13.3503 28.6076 13.3007 28.5724C13.2512 28.5372 13.2091 28.4925 13.1768 28.441C13.1445 28.3895 13.1227 28.3322 13.1126 28.2722C13.1026 28.2123 13.1044 28.1509 13.1181 28.0917C13.1181 28.0585 13.8574 24.7872 13.8574 22.6471C13.8574 21.2351 12.815 19.9414 12.1903 19.1689C11.8207 18.7106 11.6396 18.4814 11.6396 18.2116C11.6976 17.8779 11.8234 17.5596 12.0092 17.2764C12.5859 16.0825 13.9387 13.2844 13.1773 11.7653C12.6265 10.7747 12.0388 10.2091 11.5324 10.187C11.366 10.1985 11.2041 10.2462 11.0579 10.3266C10.9117 10.407 10.7848 10.5183 10.686 10.6527C10.1814 12.2951 9.56387 13.9006 8.83783 15.4579C7.70307 18.0157 7.92485 21.261 8.0764 22.5362C8.09657 22.7457 8.06575 22.957 7.98659 23.152C7.90742 23.347 7.78225 23.52 7.62176 23.6562L6.14325 25.1901C6.0574 25.2719 5.94341 25.3175 5.82485 25.3176C5.7063 25.3177 5.59225 25.2722 5.50631 25.1905C5.42037 25.1088 5.36911 24.9973 5.36314 24.8789C5.35716 24.7605 5.39693 24.6443 5.47422 24.5544L7.02296 22.9576C7.07012 22.9162 7.10652 22.8639 7.12905 22.8053C7.15158 22.7468 7.15957 22.6836 7.15233 22.6212C6.99709 21.2721 6.76052 17.8161 7.98769 15.0587C8.70255 13.5349 9.30541 11.961 9.79147 10.3496L9.81365 10.272L9.858 10.2055C10.0439 9.92236 10.2943 9.68734 10.5885 9.51965C10.8828 9.35196 11.2126 9.25637 11.5509 9.24072C12.4121 9.27769 13.229 9.97998 13.972 11.3106C14.9441 13.2586 13.5099 16.2267 12.8187 17.6571C12.7337 17.8383 12.6376 18.0268 12.5822 18.1598C12.6561 18.2633 12.7891 18.4297 12.9 18.5664C13.5543 19.3759 14.7703 20.8877 14.7703 22.6323C14.7703 24.876 14.0311 28.1398 14.0311 28.2765C14.0088 28.3821 13.9506 28.4767 13.8663 28.5441C13.782 28.6116 13.677 28.6476 13.5691 28.6462Z" fill="#171A1C"/>
<path d="M26.3768 27.297C26.2622 27.297 26.1772 27.297 26.1255 27.297H13.8575C13.735 27.297 13.6175 27.2483 13.5308 27.1617C13.4442 27.075 13.3955 26.9575 13.3955 26.835C13.3955 26.7124 13.4442 26.5949 13.5308 26.5083C13.6175 26.4216 13.735 26.3729 13.8575 26.3729H26.2142C26.572 26.4129 26.9321 26.3209 27.227 26.1142C27.3402 25.9993 27.4269 25.861 27.4812 25.7091C27.5355 25.5571 27.5559 25.3952 27.5411 25.2345C27.5411 25.112 27.5898 24.9944 27.6765 24.9078C27.7631 24.8211 27.8806 24.7725 28.0032 24.7725C28.1257 24.7725 28.2432 24.8211 28.3299 24.9078C28.4165 24.9944 28.4652 25.112 28.4652 25.2345C28.4826 25.5282 28.4346 25.8222 28.3247 26.0951C28.2147 26.368 28.0456 26.6131 27.8295 26.8128C27.4181 27.1415 26.9032 27.3132 26.3768 27.297Z" fill="#171A1C"/>
<path d="M11.2738 10.2017C11.1513 10.2017 11.0337 10.153 10.9471 10.0664C10.8604 9.97974 10.8118 9.86222 10.8118 9.73968V3.75541C10.8127 2.75972 11.2087 1.80508 11.9128 1.10102C12.6168 0.396951 13.5715 0.000978573 14.5672 0L24.3401 0C25.3352 0.00195637 26.2889 0.398361 26.9921 1.10232C27.6954 1.80628 28.0909 2.76036 28.0918 3.75541V7.85458C28.0918 7.97712 28.0432 8.09464 27.9565 8.18129C27.8699 8.26794 27.7523 8.31662 27.6298 8.31662C27.5073 8.31662 27.3898 8.26794 27.3031 8.18129C27.2165 8.09464 27.1678 7.97712 27.1678 7.85458V3.75541C27.1668 3.00543 26.8687 2.2864 26.3387 1.75573C25.8088 1.22507 25.0901 0.926023 24.3401 0.924068H14.5672C13.8166 0.925046 13.097 1.22366 12.5662 1.75443C12.0354 2.2852 11.7368 3.00479 11.7358 3.75541V9.73968C11.7358 9.86222 11.6872 9.97974 11.6005 10.0664C11.5139 10.153 11.3963 10.2017 11.2738 10.2017Z" fill="#171A1C"/>
<path d="M28.3728 25.3343C28.0247 25.3385 27.6888 25.2058 27.4376 24.9646L26.436 23.9593C26.1938 23.7088 26.0609 23.3725 26.0663 23.0241C26.0615 22.6748 26.1943 22.3375 26.436 22.0852L28.6204 19.9044C28.7818 19.7429 28.9734 19.6148 29.1843 19.5274C29.3951 19.44 29.6212 19.395 29.8495 19.395C30.0777 19.395 30.3038 19.44 30.5147 19.5274C30.7255 19.6148 30.9171 19.7429 31.0785 19.9044L31.4925 20.3221C31.8175 20.6478 32 21.0891 32 21.5493C32 22.0094 31.8175 22.4507 31.4925 22.7764L29.308 24.9609C29.0581 25.2044 28.7217 25.3387 28.3728 25.3343ZM27.0902 23.2865L28.0919 24.2956C28.1666 24.3696 28.2676 24.4112 28.3728 24.4112C28.478 24.4112 28.579 24.3696 28.6537 24.2956L30.8382 22.1148C30.9145 22.0394 30.975 21.9496 31.0162 21.8506C31.0574 21.7516 31.0786 21.6454 31.0785 21.5382C31.079 21.4315 31.0579 21.3257 31.0166 21.2273C30.9754 21.1288 30.9147 21.0397 30.8382 20.9653L30.4242 20.5439C30.2708 20.3933 30.0644 20.309 29.8495 20.309C29.6345 20.309 29.4281 20.3933 29.2747 20.5439L27.0902 22.7284C27.0524 22.7655 27.0225 22.8098 27.0022 22.8587C26.9819 22.9076 26.9716 22.9601 26.9719 23.013C26.9705 23.0655 26.9804 23.1178 27.0007 23.1662C27.0211 23.2147 27.0516 23.2582 27.0902 23.2939L26.7649 23.6229L27.0902 23.2865Z" fill="#171A1C"/>
<path d="M28.3728 20.8987C28.0247 20.903 27.6888 20.7702 27.4376 20.5291L26.436 19.5237C26.1938 19.2732 26.0609 18.9369 26.0663 18.5885C26.0615 18.2392 26.1943 17.902 26.436 17.6497L28.6204 15.4689C28.7818 15.3074 28.9734 15.1793 29.1843 15.0919C29.3951 15.0045 29.6212 14.9595 29.8495 14.9595C30.0777 14.9595 30.3038 15.0045 30.5147 15.0919C30.7255 15.1793 30.9171 15.3074 31.0785 15.4689L31.4925 15.8866C31.8175 16.2123 32 16.6536 32 17.1137C32 17.5739 31.8175 18.0152 31.4925 18.3409L29.308 20.5254C29.0581 20.7689 28.7217 20.9032 28.3728 20.8987ZM27.0902 18.851L28.0919 19.8601C28.1666 19.9341 28.2676 19.9756 28.3728 19.9756C28.478 19.9756 28.579 19.9341 28.6537 19.8601L30.8382 17.6793C30.9145 17.6039 30.975 17.5141 31.0162 17.4151C31.0574 17.3161 31.0786 17.2099 31.0785 17.1026C31.079 16.9959 31.0579 16.8902 31.0166 16.7917C30.9754 16.6933 30.9147 16.6042 30.8382 16.5297L30.4242 16.1083C30.2708 15.9578 30.0644 15.8734 29.8495 15.8734C29.6345 15.8734 29.4281 15.9578 29.2747 16.1083L27.0902 18.2928C27.0524 18.33 27.0225 18.3743 27.0022 18.4232C26.9819 18.472 26.9716 18.5245 26.9719 18.5775C26.9705 18.63 26.9804 18.6822 27.0007 18.7307C27.0211 18.7791 27.0516 18.8227 27.0902 18.8584L26.7649 19.1873L27.0902 18.851Z" fill="#171A1C"/>
<path d="M28.3728 16.4632C28.0247 16.4674 27.6888 16.3347 27.4376 16.0935L26.436 15.0882C26.1938 14.8377 26.0609 14.5014 26.0663 14.153C26.0615 13.8037 26.1943 13.4664 26.436 13.2141L28.6204 11.0333C28.7818 10.8718 28.9734 10.7437 29.1843 10.6563C29.3951 10.5689 29.6212 10.5239 29.8495 10.5239C30.0777 10.5239 30.3038 10.5689 30.5147 10.6563C30.7255 10.7437 30.9171 10.8718 31.0785 11.0333L31.4925 11.451C31.8175 11.7767 32 12.2181 32 12.6782C32 13.1383 31.8175 13.5797 31.4925 13.9053L29.308 16.0898C29.0581 16.3333 28.7217 16.4676 28.3728 16.4632ZM27.0902 14.4154L28.0919 15.4245C28.1666 15.4986 28.2676 15.5401 28.3728 15.5401C28.478 15.5401 28.579 15.4986 28.6537 15.4245L30.8382 13.2437C30.9145 13.1683 30.975 13.0785 31.0162 12.9795C31.0574 12.8805 31.0786 12.7743 31.0785 12.6671C31.079 12.5604 31.0579 12.4546 31.0166 12.3562C30.9754 12.2578 30.9147 12.1686 30.8382 12.0942L30.4242 11.6728C30.2708 11.5222 30.0644 11.4379 29.8495 11.4379C29.6345 11.4379 29.4281 11.5222 29.2747 11.6728L27.0902 13.8573C27.0524 13.8944 27.0225 13.9387 27.0022 13.9876C26.9819 14.0365 26.9716 14.089 26.9719 14.1419C26.9705 14.1945 26.9804 14.2467 27.0007 14.2951C27.0211 14.3436 27.0516 14.3871 27.0902 14.4228L26.7649 14.7518L27.0902 14.4154Z" fill="#171A1C"/>
<path d="M28.3728 12.0276C28.0247 12.0319 27.6888 11.8991 27.4376 11.658L26.436 10.6526C26.1938 10.4021 26.0609 10.0658 26.0663 9.71745C26.0615 9.36811 26.1943 9.03089 26.436 8.7786L28.6204 6.5978C28.7818 6.4363 28.9734 6.30819 29.1843 6.22078C29.3951 6.13337 29.6212 6.08838 29.8495 6.08838C30.0777 6.08838 30.3038 6.13337 30.5147 6.22078C30.7255 6.30819 30.9171 6.4363 31.0785 6.5978L31.4925 7.01548C31.8175 7.34117 32 7.78251 32 8.24264C32 8.70277 31.8175 9.14411 31.4925 9.4698L29.308 11.6543C29.0581 11.8978 28.7217 12.0321 28.3728 12.0276ZM27.0902 9.97989L28.0919 10.989C28.1666 11.063 28.2676 11.1045 28.3728 11.1045C28.478 11.1045 28.579 11.063 28.6537 10.989L30.8382 8.80817C30.9145 8.73276 30.975 8.64296 31.0162 8.54397C31.0574 8.44498 31.0786 8.33879 31.0785 8.23155C31.079 8.12481 31.0579 8.01907 31.0166 7.92064C30.9754 7.82221 30.9147 7.7331 30.8382 7.65863L30.4242 7.23725C30.2708 7.08668 30.0644 7.00232 29.8495 7.00232C29.6345 7.00232 29.4281 7.08668 29.2747 7.23725L27.0902 9.42175C27.0524 9.45886 27.0225 9.50317 27.0022 9.55206C26.9819 9.60095 26.9716 9.65342 26.9719 9.70636C26.9705 9.75891 26.9804 9.81114 27.0007 9.85958C27.0211 9.90802 27.0516 9.95156 27.0902 9.98728L26.7649 10.3162L27.0902 9.97989Z" fill="#171A1C"/>
<path d="M20.2409 9.61041L17.6941 7.06368C17.6474 7.02166 17.6097 6.97054 17.5834 6.91346C17.5571 6.85638 17.5427 6.79453 17.5412 6.73171C17.5396 6.66888 17.5508 6.60639 17.5742 6.54806C17.5976 6.48973 17.6327 6.43679 17.6773 6.39247C17.7218 6.34816 17.775 6.3134 17.8334 6.29033C17.8919 6.26726 17.9544 6.25636 18.0173 6.25829C18.0801 6.26022 18.1418 6.27495 18.1988 6.30158C18.2557 6.3282 18.3066 6.36616 18.3484 6.41313L20.2409 8.30193L23.6082 4.93462C23.696 4.85568 23.8107 4.81334 23.9287 4.81631C24.0467 4.81927 24.1591 4.86731 24.2429 4.95056C24.3266 5.03382 24.3753 5.14596 24.3789 5.26398C24.3825 5.38199 24.3409 5.49692 24.2624 5.58517L20.2409 9.61041Z" fill="#171A1C"/>
<path d="M22.9171 11.6433H16.833C16.6369 11.6433 16.4489 11.5654 16.3103 11.4268C16.1716 11.2881 16.0938 11.1001 16.0938 10.904V5.1748C16.0938 4.97874 16.1716 4.79071 16.3103 4.65207C16.4489 4.51343 16.6369 4.43555 16.833 4.43555H22.9171C23.1131 4.43555 23.3012 4.51343 23.4398 4.65207C23.5784 4.79071 23.6563 4.97874 23.6563 5.1748V10.8929C23.6578 10.9909 23.6398 11.0883 23.6033 11.1792C23.5668 11.2702 23.5126 11.353 23.4438 11.4229C23.375 11.4927 23.293 11.5481 23.2026 11.586C23.1121 11.6238 23.0151 11.6433 22.9171 11.6433ZM17.003 10.7192H22.7433V5.35962H17.003V10.7192Z" fill="#171A1C"/>
<path d="M20.2409 19.5901L17.6941 17.0434C17.6474 17.0014 17.6097 16.9503 17.5834 16.8932C17.5571 16.8361 17.5427 16.7743 17.5412 16.7114C17.5396 16.6486 17.5508 16.5861 17.5742 16.5278C17.5976 16.4695 17.6327 16.4165 17.6773 16.3722C17.7218 16.3279 17.775 16.2931 17.8334 16.2701C17.8919 16.247 17.9544 16.2361 18.0173 16.238C18.0801 16.24 18.1418 16.2547 18.1988 16.2813C18.2557 16.3079 18.3066 16.3459 18.3484 16.3929L20.2409 18.2817L23.6082 14.9144C23.696 14.8354 23.8107 14.7931 23.9287 14.796C24.0467 14.799 24.1591 14.847 24.2429 14.9303C24.3266 15.0136 24.3753 15.1257 24.3789 15.2437C24.3825 15.3617 24.3409 15.4767 24.2624 15.5649L20.2409 19.5901Z" fill="#171A1C"/>
<path d="M22.9171 21.6233H16.833C16.6369 21.6233 16.4489 21.5454 16.3103 21.4067C16.1716 21.2681 16.0938 21.0801 16.0938 20.884V15.1548C16.0938 14.9587 16.1716 14.7707 16.3103 14.632C16.4489 14.4934 16.6369 14.4155 16.833 14.4155H22.9762C23.1576 14.4184 23.3306 14.4925 23.4578 14.6219C23.5851 14.7512 23.6563 14.9253 23.6563 15.1067V20.8729C23.6578 20.9709 23.6398 21.0682 23.6033 21.1592C23.5668 21.2502 23.5126 21.333 23.4438 21.4028C23.375 21.4727 23.293 21.5281 23.2026 21.5659C23.1121 21.6038 23.0151 21.6233 22.9171 21.6233ZM17.003 20.6992H22.7433V15.3396H17.003V20.6992Z" fill="#171A1C"/>
<path d="M19.8712 25.6892H19.132C19.0094 25.6892 18.8919 25.6405 18.8052 25.5539C18.7186 25.4672 18.6699 25.3497 18.6699 25.2272C18.6699 25.1046 18.7186 24.9871 18.8052 24.9005C18.8919 24.8138 19.0094 24.7651 19.132 24.7651H19.8712C19.9937 24.7651 20.1113 24.8138 20.1979 24.9005C20.2846 24.9871 20.3332 25.1046 20.3332 25.2272C20.3332 25.3497 20.2846 25.4672 20.1979 25.5539C20.1113 25.6405 19.9937 25.6892 19.8712 25.6892Z" fill="#171A1C"/>
</svg>
