<svg width="32" height="33" viewBox="0 0 32 33" fill="none" xmlns="http://www.w3.org/2000/svg">
<path d="M0.124756 12.6819L14.8119 26.2991L0.256038 26.1252L0.124756 12.6819Z" fill="#FFA670"/>
<path d="M31.534 20.6047L25.6689 26.4205L31.534 26.2564V20.6047Z" fill="#FFA670"/>
<path d="M12.6653 8.73364H0.255859L0.633295 12.8132L14.4967 25.9546L25.6688 26.4206L31.9999 20.3652L31.5338 8.81898L22.2292 18.2483L12.6653 8.73364Z" fill="#FF8338"/>
<path d="M12.6653 8.73361L18.8093 8.69751L22.0716 12.4489L25.1765 8.69751L31.1367 8.81895V9.56069L22.0716 18.2483L12.6653 8.73361Z" fill="#FFA670"/>
<path d="M20.1518 26.542H12.1206V31.918H20.1518V26.542Z" fill="#FFA670"/>
<path d="M31.5341 5.16919H0.633545V8.81883H31.5341V5.16919Z" fill="#FFA670"/>
<path d="M22.0717 12.4489L18.8093 8.69751L17.4768 4.59495L18.8421 1.69361L22.2292 0.249512L25.4227 1.75597L26.6666 4.59495V5.67474L23.7324 10.7783L22.0717 12.4489Z" fill="#FF8338"/>
<path d="M21.9141 6.88905C22.8639 6.88905 23.6339 6.11907 23.6339 5.16926C23.6339 4.21944 22.8639 3.44946 21.9141 3.44946C20.9643 3.44946 20.1943 4.21944 20.1943 5.16926C20.1943 6.11907 20.9643 6.88905 21.9141 6.88905Z" fill="#FFA670"/>
<path d="M31.15 26.7488H0.850051C0.738421 26.7488 0.627884 26.7268 0.524751 26.6841C0.421618 26.6414 0.327909 26.5788 0.248974 26.4998C0.17004 26.4209 0.107425 26.3272 0.0647063 26.2241C0.0219872 26.1209 0 26.0104 0 25.8988L0 5.44502C0 5.21957 0.0895587 5.00336 0.248974 4.84395C0.40839 4.68453 0.624604 4.59497 0.850051 4.59497H17.4769C17.5857 4.59497 17.6901 4.63819 17.767 4.71513C17.844 4.79207 17.8872 4.89642 17.8872 5.00523C17.8872 5.11403 17.844 5.21838 17.767 5.29532C17.6901 5.37226 17.5857 5.41548 17.4769 5.41548H0.850051C0.842217 5.41548 0.834704 5.4186 0.829164 5.42413C0.823625 5.42967 0.820513 5.43719 0.820513 5.44502V25.8988C0.820513 25.9066 0.823625 25.9141 0.829164 25.9197C0.834704 25.9252 0.842217 25.9283 0.850051 25.9283H31.15C31.1578 25.9283 31.1653 25.9252 31.1708 25.9197C31.1764 25.9141 31.1795 25.9066 31.1795 25.8988V5.44502C31.1795 5.43719 31.1764 5.42967 31.1708 5.42413C31.1653 5.4186 31.1578 5.41548 31.15 5.41548H26.6667C26.5579 5.41548 26.4535 5.37226 26.3766 5.29532C26.2996 5.21838 26.2564 5.11403 26.2564 5.00523C26.2564 4.89642 26.2996 4.79207 26.3766 4.71513C26.4535 4.63819 26.5579 4.59497 26.6667 4.59497H31.15C31.3754 4.59497 31.5916 4.68453 31.751 4.84395C31.9104 5.00336 32 5.21957 32 5.44502V25.8988C32 26.0104 31.978 26.1209 31.9353 26.2241C31.8926 26.3272 31.83 26.4209 31.751 26.4998C31.6721 26.5788 31.5784 26.6414 31.4753 26.6841C31.3721 26.7268 31.2616 26.7488 31.15 26.7488Z" fill="#171A1C"/>
<path d="M21.9078 7.38463C21.4696 7.38463 21.0413 7.2547 20.677 7.01127C20.3126 6.76784 20.0287 6.42184 19.861 6.01703C19.6933 5.61223 19.6495 5.16679 19.735 4.73704C19.8204 4.3073 20.0314 3.91256 20.3413 3.60273C20.6511 3.2929 21.0458 3.08191 21.4756 2.99643C21.9053 2.91095 22.3508 2.95482 22.7556 3.12249C23.1604 3.29017 23.5064 3.57412 23.7498 3.93844C23.9932 4.30276 24.1232 4.73108 24.1232 5.16924C24.1223 5.75653 23.8886 6.31952 23.4733 6.7348C23.058 7.15007 22.4951 7.38376 21.9078 7.38463ZM21.9078 3.77437C21.6319 3.77437 21.3622 3.85618 21.1328 4.00945C20.9034 4.16272 20.7246 4.38057 20.6191 4.63545C20.5135 4.89033 20.4859 5.17079 20.5397 5.44137C20.5935 5.71195 20.7264 5.96049 20.9214 6.15557C21.1165 6.35064 21.3651 6.48349 21.6356 6.53731C21.9062 6.59113 22.1867 6.56351 22.4416 6.45794C22.6964 6.35236 22.9143 6.17358 23.0676 5.94419C23.2208 5.71481 23.3026 5.44512 23.3026 5.16924C23.3018 4.79957 23.1545 4.44528 22.8931 4.18388C22.6317 3.92248 22.2774 3.77524 21.9078 3.77437Z" fill="#171A1C"/>
<path d="M22.0718 12.9641C21.2677 12.9641 17.0667 7.50277 17.0667 5.00513C17.0667 3.67769 17.594 2.40461 18.5326 1.46597C19.4713 0.527324 20.7443 0 22.0718 0C23.3992 0 24.6723 0.527324 25.6109 1.46597C26.5496 2.40461 27.0769 3.67769 27.0769 5.00513C27.0769 7.50277 22.8759 12.9641 22.0718 12.9641ZM22.0718 0.820513C20.9622 0.821382 19.8983 1.26254 19.1138 2.04712C18.3292 2.8317 17.888 3.89557 17.8872 5.00513C17.8872 7.05641 21.1692 11.2082 22.0718 12.0517C22.9743 11.2082 26.2564 7.05641 26.2564 5.00513C26.2555 3.89557 25.8144 2.8317 25.0298 2.04712C24.2452 1.26254 23.1813 0.821382 22.0718 0.820513Z" fill="#171A1C"/>
<path d="M24.0411 32.3283H8.28721C8.1784 32.3283 8.07405 32.2851 7.99711 32.2082C7.92018 32.1312 7.87695 32.0269 7.87695 31.9181C7.87695 31.8093 7.92018 31.7049 7.99711 31.628C8.07405 31.551 8.1784 31.5078 8.28721 31.5078H24.0411C24.1499 31.5078 24.2542 31.551 24.3312 31.628C24.4081 31.7049 24.4513 31.8093 24.4513 31.9181C24.4513 32.0269 24.4081 32.1312 24.3312 32.2082C24.2542 32.2851 24.1499 32.3283 24.0411 32.3283Z" fill="#171A1C"/>
<path d="M12.2552 32.3282C12.1464 32.3282 12.0421 32.285 11.9651 32.2081C11.8882 32.1311 11.845 32.0268 11.845 31.918V26.3385C11.845 26.2297 11.8882 26.1253 11.9651 26.0484C12.0421 25.9714 12.1464 25.9282 12.2552 25.9282C12.364 25.9282 12.4684 25.9714 12.5453 26.0484C12.6223 26.1253 12.6655 26.2297 12.6655 26.3385V31.918C12.6655 32.0268 12.6223 32.1311 12.5453 32.2081C12.4684 32.285 12.364 32.3282 12.2552 32.3282Z" fill="#171A1C"/>
<path d="M20.1517 32.3282C20.0429 32.3282 19.9386 32.285 19.8616 32.2081C19.7847 32.1311 19.7415 32.0268 19.7415 31.918V26.3385C19.7415 26.2297 19.7847 26.1253 19.8616 26.0484C19.9386 25.9714 20.0429 25.9282 20.1517 25.9282C20.2605 25.9282 20.3649 25.9714 20.4418 26.0484C20.5187 26.1253 20.562 26.2297 20.562 26.3385V31.918C20.562 32.0268 20.5187 32.1311 20.4418 32.2081C20.3649 32.285 20.2605 32.3282 20.1517 32.3282Z" fill="#171A1C"/>
<path d="M14.5229 26.6337C14.4159 26.6334 14.3133 26.591 14.2374 26.5156L0.124576 12.6817C0.0860703 12.6441 0.0554726 12.5992 0.034582 12.5496C0.0136914 12.5 0.00292969 12.4467 0.00292969 12.3929C0.00292969 12.3391 0.0136914 12.2858 0.034582 12.2362C0.0554726 12.1866 0.0860703 12.1417 0.124576 12.1041C0.162461 12.0655 0.20766 12.0348 0.257533 12.0139C0.307405 11.993 0.36095 11.9822 0.415037 11.9822C0.469124 11.9822 0.522669 11.993 0.572542 12.0139C0.622414 12.0348 0.667614 12.0655 0.705499 12.1041L14.8118 25.9281C14.8709 25.9851 14.9116 26.0585 14.9285 26.1389C14.9454 26.2193 14.9379 26.3029 14.9068 26.3789C14.8756 26.4549 14.8224 26.5198 14.754 26.5653C14.6856 26.6107 14.6051 26.6346 14.5229 26.6337Z" fill="#171A1C"/>
<path d="M0.479139 26.5418C0.425278 26.5422 0.371899 26.5317 0.322247 26.5108C0.272595 26.4899 0.227709 26.4592 0.190318 26.4204C0.152213 26.3826 0.12197 26.3376 0.101332 26.288C0.0806935 26.2384 0.0700684 26.1853 0.0700684 26.1316C0.0700684 26.0779 0.0806935 26.0247 0.101332 25.9751C0.12197 25.9256 0.152213 25.8806 0.190318 25.8428L7.08263 18.9504C7.15923 18.8738 7.26312 18.8308 7.37145 18.8308C7.47977 18.8308 7.58367 18.8738 7.66027 18.9504C7.73687 19.027 7.7799 19.1309 7.7799 19.2393C7.7799 19.3476 7.73687 19.4515 7.66027 19.5281L0.767959 26.4204C0.730569 26.4592 0.685683 26.4899 0.636031 26.5108C0.586379 26.5317 0.533 26.5422 0.479139 26.5418Z" fill="#171A1C"/>
<path d="M31.5898 9.14376H25.2718C25.163 9.14376 25.0587 9.10053 24.9817 9.02359C24.9048 8.94666 24.8616 8.84231 24.8616 8.7335C24.8616 8.62469 24.9048 8.52034 24.9817 8.4434C25.0587 8.36647 25.163 8.32324 25.2718 8.32324H31.5898C31.6986 8.32324 31.8029 8.36647 31.8799 8.4434C31.9568 8.52034 32 8.62469 32 8.7335C32 8.84231 31.9568 8.94666 31.8799 9.02359C31.8029 9.10053 31.6986 9.14376 31.5898 9.14376Z" fill="#171A1C"/>
<path d="M9.57368 9.14376H0.65635C0.547543 9.14376 0.443193 9.10053 0.366255 9.02359C0.289317 8.94666 0.246094 8.84231 0.246094 8.7335C0.246094 8.62469 0.289317 8.52034 0.366255 8.4434C0.443193 8.36647 0.547543 8.32324 0.65635 8.32324H9.57368C9.68249 8.32324 9.78684 8.36647 9.86378 8.4434C9.94072 8.52034 9.98394 8.62469 9.98394 8.7335C9.98394 8.84231 9.94072 8.94666 9.86378 9.02359C9.78684 9.10053 9.68249 9.14376 9.57368 9.14376Z" fill="#171A1C"/>
<path d="M5.79925 9.14376H5.47105C5.36224 9.14376 5.25789 9.10053 5.18095 9.02359C5.10401 8.94666 5.06079 8.84231 5.06079 8.7335C5.06079 8.62469 5.10401 8.52034 5.18095 8.4434C5.25789 8.36647 5.36224 8.32324 5.47105 8.32324H5.79925C5.90806 8.32324 6.01241 8.36647 6.08935 8.4434C6.16629 8.52034 6.20951 8.62469 6.20951 8.7335C6.20951 8.84231 6.16629 8.94666 6.08935 9.02359C6.01241 9.10053 5.90806 9.14376 5.79925 9.14376Z" fill="#171A1C"/>
<path d="M18.7898 9.14376H7.84092C7.73211 9.14376 7.62776 9.10053 7.55083 9.02359C7.47389 8.94666 7.43066 8.84231 7.43066 8.7335C7.43066 8.62469 7.47389 8.52034 7.55083 8.4434C7.62776 8.36647 7.73211 8.32324 7.84092 8.32324H18.7898C18.8987 8.32324 19.003 8.36647 19.0799 8.4434C19.1569 8.52034 19.2001 8.62469 19.2001 8.7335C19.2001 8.84231 19.1569 8.94666 19.0799 9.02359C19.003 9.10053 18.8987 9.14376 18.7898 9.14376Z" fill="#171A1C"/>
<path d="M14.5231 26.4204C14.4692 26.4208 14.4158 26.4103 14.3662 26.3894C14.3165 26.3685 14.2717 26.3378 14.2343 26.299C14.1962 26.2612 14.1659 26.2162 14.1453 26.1666C14.1246 26.117 14.114 26.0639 14.114 26.0102C14.114 25.9565 14.1246 25.9033 14.1453 25.8537C14.1659 25.8042 14.1962 25.7592 14.2343 25.7214L16.7713 23.1843C16.8092 23.1464 16.8542 23.1163 16.9038 23.0958C16.9534 23.0753 17.0065 23.0647 17.0601 23.0647C17.1137 23.0647 17.1669 23.0753 17.2164 23.0958C17.266 23.1163 17.311 23.1464 17.3489 23.1843C17.3869 23.2223 17.4169 23.2673 17.4375 23.3168C17.458 23.3664 17.4686 23.4195 17.4686 23.4732C17.4686 23.5268 17.458 23.5799 17.4375 23.6295C17.4169 23.679 17.3869 23.724 17.3489 23.762L14.8119 26.299C14.7745 26.3378 14.7296 26.3685 14.68 26.3894C14.6303 26.4103 14.5769 26.4208 14.5231 26.4204Z" fill="#171A1C"/>
<path d="M18.4484 22.4951C18.3945 22.4955 18.3411 22.4849 18.2915 22.4641C18.2418 22.4432 18.1969 22.4124 18.1596 22.3737C18.1215 22.3358 18.0912 22.2908 18.0706 22.2413C18.0499 22.1917 18.0393 22.1385 18.0393 22.0848C18.0393 22.0311 18.0499 21.978 18.0706 21.9284C18.0912 21.8788 18.1215 21.8338 18.1596 21.796L18.4221 21.5335C18.4601 21.4955 18.5051 21.4654 18.5546 21.4449C18.6042 21.4244 18.6573 21.4138 18.7109 21.4138C18.7646 21.4138 18.8177 21.4244 18.8673 21.4449C18.9168 21.4654 18.9618 21.4955 18.9998 21.5335C19.0377 21.5714 19.0678 21.6164 19.0883 21.666C19.1088 21.7155 19.1194 21.7686 19.1194 21.8223C19.1194 21.8759 19.1088 21.929 19.0883 21.9786C19.0678 22.0281 19.0377 22.0732 18.9998 22.1111L18.7372 22.3737C18.6998 22.4124 18.6549 22.4432 18.6053 22.4641C18.5556 22.4849 18.5022 22.4955 18.4484 22.4951Z" fill="#171A1C"/>
<path d="M16.0363 24.9075C15.9824 24.9079 15.929 24.8973 15.8794 24.8764C15.8297 24.8556 15.7848 24.8248 15.7474 24.786C15.7093 24.7482 15.6791 24.7032 15.6585 24.6536C15.6378 24.6041 15.6272 24.5509 15.6272 24.4972C15.6272 24.4435 15.6378 24.3904 15.6585 24.3408C15.6791 24.2912 15.7093 24.2462 15.7474 24.2084L31.137 8.81885C31.2136 8.74225 31.3175 8.69922 31.4258 8.69922C31.4794 8.69922 31.5326 8.70978 31.5821 8.73031C31.6317 8.75084 31.6767 8.78092 31.7146 8.81885C31.7526 8.85678 31.7826 8.90181 31.8032 8.95136C31.8237 9.00092 31.8343 9.05403 31.8343 9.10767C31.8343 9.16131 31.8237 9.21443 31.8032 9.26398C31.7826 9.31354 31.7526 9.35856 31.7146 9.39649L16.3251 24.786C16.2877 24.8248 16.2428 24.8556 16.1932 24.8764C16.1435 24.8973 16.0901 24.9079 16.0363 24.9075Z" fill="#171A1C"/>
<path d="M27.7464 24.3562C27.6925 24.3566 27.6391 24.3461 27.5895 24.3252C27.5398 24.3043 27.4949 24.2735 27.4575 24.2348L12.2419 9.02247C12.1653 8.94587 12.1223 8.84198 12.1223 8.73365C12.1223 8.62532 12.1653 8.52143 12.2419 8.44483C12.3185 8.36823 12.4224 8.3252 12.5308 8.3252C12.6391 8.3252 12.743 8.36823 12.8196 8.44483L28.0352 23.6571C28.0733 23.695 28.1035 23.74 28.1242 23.7895C28.1448 23.8391 28.1554 23.8923 28.1554 23.946C28.1554 23.9997 28.1448 24.0528 28.1242 24.1024C28.1035 24.152 28.0733 24.1969 28.0352 24.2348C27.9978 24.2735 27.9529 24.3043 27.9032 24.3252C27.8536 24.3461 27.8002 24.3566 27.7464 24.3562Z" fill="#171A1C"/>
<path d="M25.6001 26.5846C25.495 26.5846 25.367 26.752 25.2719 26.67C25.2338 26.6322 25.2035 26.5872 25.1829 26.5376C25.1622 26.488 25.1516 26.4349 25.1516 26.3812C25.1516 26.3275 25.1622 26.2743 25.1829 26.2247C25.2035 26.1752 25.2338 26.1302 25.2719 26.0923L31.2747 20.0862C31.3513 20.0096 31.4552 19.9666 31.5636 19.9666C31.6172 19.9666 31.6703 19.9771 31.7199 19.9976C31.7694 20.0182 31.8144 20.0483 31.8524 20.0862C31.8903 20.1241 31.9204 20.1691 31.9409 20.2187C31.9614 20.2683 31.972 20.3214 31.972 20.375C31.972 20.4286 31.9614 20.4818 31.9409 20.5313C31.9204 20.5809 31.8903 20.6259 31.8524 20.6638L25.8758 26.6601C25.797 26.7422 25.7149 26.5846 25.6001 26.5846Z" fill="#171A1C"/>
</svg>
