<svg width="32" height="27" viewBox="0 0 32 27" fill="none" xmlns="http://www.w3.org/2000/svg">
<path d="M13.3689 5.16842L13.2011 4.12451H14.7684L15.087 6.08718L13.5026 9.67118L12.3876 9.17624L12.0833 8.47936L13.3689 6.08718V5.16842Z" fill="#FF8338"/>
<path d="M9.26429 6.83797L7.20207 8.24881L5.93344 5.97325L7.185 2.94108L9.55158 1.88294L11.9153 2.55139L13.2522 4.55672L15.0869 4.52828L13.0844 1.38232L9.38376 0.241699L6.39993 1.56437L4.625 4.24668V6.68437L7.4922 11.7901L9.70233 14.2961L12.5126 11.318L14.0031 8.83761L11.9438 8.17201L10.8856 7.11103L10.5244 6.51654L10.7747 5.50108L9.85593 4.44294L8.71531 4.83548L8.54749 6.19797L9.26429 6.83797Z" fill="#FF8338"/>
<path d="M9.11358 6.77266L7.20211 8.24893L6.03589 6.12413L6.75838 3.11755L9.11358 1.94849H10.8771L13.1783 3.85995L13.3689 6.08715L12.2482 8.38546H11.9154L11.4517 7.11115L10.2826 6.68449L10.9511 5.8084L10.6922 4.8356L9.26433 4.63933L8.59589 5.2708L8.83482 6.25213L9.11358 6.77266Z" fill="#FFA670"/>
<path d="M28.7288 11.1416L28.561 10.0977H30.1283L30.4468 12.0603L28.8625 15.6443L27.7475 15.1494L27.4431 14.4525L28.7288 12.0603V11.1416Z" fill="#FF8338"/>
<path d="M24.6244 12.8114L22.565 14.2222L21.2936 11.9466L22.5451 8.91447L24.9117 7.85633L27.2754 8.52478L28.6095 10.5301L30.447 10.5017L28.4445 7.35571L24.7439 6.21509L21.76 7.53775L19.9851 10.2201V12.6578L22.8495 17.7635L25.0624 20.2666L27.8728 17.2914L29.3632 14.811L27.3039 14.1454L26.2457 13.0844L25.8845 12.4899L26.1348 11.4745L25.216 10.4163L24.0754 10.8089L23.9076 12.1714L24.6244 12.8114Z" fill="#FF8338"/>
<path d="M24.4737 12.7461L22.5651 14.2223L21.396 12.0975L22.1185 9.09094L24.4737 7.92188H26.2372L28.5384 9.83334L28.729 12.0605L27.6083 14.3589H27.2755L26.8118 13.0845L25.6428 12.6579L26.3112 11.7818L26.0495 10.809L24.6244 10.6127L23.956 11.2442L24.1949 12.2255L24.4737 12.7461Z" fill="#FFA670"/>
<path d="M31.616 23.7825H0.284424V25.5631H31.616V23.7825Z" fill="#FFA670"/>
<path d="M6.39994 9.88448L9.85025 14.1824L13.6134 9.88448L20.2922 9.67114L19.9025 12.1231L23.3244 18.3865L25.2102 20.1387L27.1644 17.9684L29.1555 15.1581L31.6159 23.6715L0.193359 23.8507L3.37345 10.0267L6.39994 9.88448Z" fill="#FFA670"/>
<path d="M17.7038 9.81616L15.9033 14.0089L14.0316 16.2332L10.9312 17.9228L2.65954 20.48L0.756602 21.4044L0.284424 23.6914V25.8787L15.7554 25.8048L16 22.5024L17.8972 19.4418L22.326 16.8533L19.985 12.7971L20.0391 9.81616H17.7038Z" fill="#FF8338"/>
<path d="M9.85018 14.6489C9.19595 14.6489 6.80093 11.2896 6.77533 11.2555C5.61195 9.6 4.21533 7.27324 4.21533 5.62916C4.21533 4.13621 4.8084 2.70441 5.86407 1.64874C6.91974 0.59307 8.35154 0 9.84449 0C11.3374 0 12.7692 0.59307 13.8249 1.64874C14.8806 2.70441 15.4736 4.13621 15.4736 5.62916C15.4736 7.27893 14.0827 9.61138 12.9136 11.2555C12.8994 11.2896 10.5044 14.6489 9.85018 14.6489ZM9.85018 0.711111C8.54629 0.712617 7.29624 1.23125 6.37426 2.15324C5.45227 3.07522 4.93364 4.32527 4.93213 5.62916C4.93213 8.18916 8.95418 13.0987 9.85018 13.878C10.7462 13.1044 14.7682 8.18916 14.7682 5.62916C14.7667 4.32527 14.2481 3.07522 13.3261 2.15324C12.4041 1.23125 11.1541 0.712617 9.85018 0.711111Z" fill="#171A1C"/>
<path d="M9.7423 9.67112C8.94063 9.67112 8.15696 9.4334 7.49039 8.98801C6.82382 8.54263 6.3043 7.90958 5.99751 7.16893C5.69072 6.42828 5.61045 5.61329 5.76685 4.82702C5.92325 4.04075 6.30929 3.31852 6.87616 2.75165C7.44303 2.18478 8.16526 1.79874 8.95153 1.64234C9.7378 1.48594 10.5528 1.56621 11.2934 1.873C12.0341 2.17978 12.6671 2.69931 13.1125 3.36588C13.5579 4.03244 13.7956 4.81611 13.7956 5.61779C13.7949 6.69257 13.3676 7.72311 12.6076 8.4831C11.8476 9.24308 10.8171 9.67037 9.7423 9.67112ZM9.7423 2.27557C9.08127 2.27557 8.43509 2.47158 7.88546 2.83883C7.33584 3.20608 6.90745 3.72806 6.65449 4.33878C6.40152 4.94949 6.33534 5.6215 6.4643 6.26982C6.59326 6.91815 6.91157 7.51368 7.37899 7.9811C7.84641 8.44851 8.44194 8.76683 9.09027 8.89579C9.73859 9.02475 10.4106 8.95856 11.0213 8.7056C11.632 8.45263 12.154 8.02425 12.5213 7.47463C12.8885 6.925 13.0845 6.27882 13.0845 5.61779C13.0838 4.73161 12.7314 3.88194 12.1048 3.25531C11.4782 2.62869 10.6285 2.27632 9.7423 2.27557Z" fill="#171A1C"/>
<path d="M9.74211 7.11118C9.44676 7.11118 9.15804 7.0236 8.91246 6.85951C8.66688 6.69542 8.47548 6.46219 8.36245 6.18932C8.24943 5.91645 8.21985 5.61619 8.27747 5.32651C8.33509 5.03683 8.47732 4.77075 8.68617 4.5619C8.89501 4.35305 9.1611 4.21083 9.45078 4.15321C9.74046 4.09559 10.0407 4.12516 10.3136 4.23819C10.5865 4.35121 10.8197 4.54262 10.9838 4.78819C11.1479 5.03377 11.2354 5.32249 11.2354 5.61785C11.2347 6.01367 11.0771 6.39307 10.7972 6.67296C10.5173 6.95285 10.1379 7.11043 9.74211 7.11118ZM9.74211 4.83562C9.5874 4.83562 9.43617 4.8815 9.30753 4.96745C9.1789 5.0534 9.07864 5.17557 9.01943 5.3185C8.96023 5.46143 8.94474 5.61871 8.97492 5.77045C9.0051 5.92219 9.0796 6.06156 9.189 6.17096C9.29839 6.28036 9.43777 6.35486 9.58951 6.38504C9.74125 6.41522 9.89852 6.39973 10.0415 6.34052C10.1844 6.28132 10.3066 6.18106 10.3925 6.05243C10.4785 5.92379 10.5243 5.77255 10.5243 5.61785C10.5243 5.41039 10.4419 5.21143 10.2952 5.06473C10.1485 4.91804 9.94957 4.83562 9.74211 4.83562Z" fill="#171A1C"/>
<path d="M7.32157 8.83771C7.28183 8.83803 7.24234 8.83129 7.20495 8.8178C7.11597 8.78682 7.04293 8.72179 7.00186 8.63699C6.96079 8.55219 6.95506 8.45455 6.98593 8.36553C7.18497 7.7939 7.55699 7.29838 8.05038 6.94773C8.54376 6.59708 9.13406 6.40869 9.73935 6.40869C10.3447 6.40869 10.9349 6.59708 11.4283 6.94773C11.9217 7.29838 12.2937 7.7939 12.4928 8.36553C12.5101 8.41006 12.5182 8.45761 12.5167 8.50535C12.5152 8.55309 12.5041 8.60004 12.484 8.64339C12.464 8.68675 12.4354 8.72562 12.4 8.75768C12.3646 8.78975 12.3231 8.81436 12.278 8.83003C12.2329 8.84571 12.1851 8.85213 12.1374 8.84892C12.0898 8.84572 12.0432 8.83294 12.0006 8.81135C11.958 8.78977 11.9202 8.75982 11.8894 8.7233C11.8586 8.68678 11.8355 8.64443 11.8215 8.59878C11.7133 8.28438 11.5349 7.99877 11.2998 7.76366C11.0647 7.52856 10.7791 7.35014 10.4647 7.24198C9.91242 7.05106 9.30702 7.08663 8.7809 7.34089C8.25478 7.59516 7.85076 8.04743 7.65722 8.59878C7.63337 8.66876 7.58814 8.72947 7.52791 8.77235C7.46768 8.81522 7.3955 8.83809 7.32157 8.83771Z" fill="#171A1C"/>
<path d="M25.2103 20.6223C24.5561 20.6223 22.161 17.263 22.1354 17.2289C20.9721 15.5734 19.5754 13.2466 19.5754 11.6025C19.5754 10.1096 20.1685 8.6778 21.2242 7.62213C22.2799 6.56646 23.7116 5.97339 25.2046 5.97339C26.6975 5.97339 28.1293 6.56646 29.185 7.62213C30.2407 8.6778 30.8337 10.1096 30.8337 11.6025C30.8337 13.2523 29.4428 15.5848 28.2738 17.2289C28.2595 17.263 25.8645 20.6223 25.2103 20.6223ZM25.2103 6.6845C23.9064 6.68601 22.6564 7.20464 21.7344 8.12662C20.8124 9.04861 20.2937 10.2987 20.2922 11.6025C20.2922 14.1625 24.3143 19.0721 25.2103 19.8514C26.1063 19.0777 30.1283 14.1625 30.1283 11.6025C30.1268 10.2987 29.6082 9.04861 28.6862 8.12662C27.7642 7.20464 26.5142 6.68601 25.2103 6.6845Z" fill="#171A1C"/>
<path d="M25.1022 15.6445C24.3005 15.6445 23.5168 15.4068 22.8503 14.9614C22.1837 14.516 21.6642 13.883 21.3574 13.1423C21.0506 12.4017 20.9703 11.5867 21.1267 10.8004C21.2831 10.0141 21.6692 9.29191 22.236 8.72504C22.8029 8.15817 23.5251 7.77213 24.3114 7.61573C25.0977 7.45933 25.9127 7.5396 26.6533 7.84639C27.394 8.15317 28.027 8.6727 28.4724 9.33927C28.9178 10.0058 29.1555 10.7895 29.1555 11.5912C29.1547 12.666 28.7275 13.6965 27.9675 14.4565C27.2075 15.2165 26.1769 15.6438 25.1022 15.6445ZM25.1022 8.24895C24.4411 8.24895 23.795 8.44497 23.2453 8.81222C22.6957 9.17947 22.2673 9.70145 22.0144 10.3122C21.7614 10.9229 21.6952 11.5949 21.8242 12.2432C21.9531 12.8915 22.2714 13.4871 22.7389 13.9545C23.2063 14.4219 23.8018 14.7402 24.4501 14.8692C25.0985 14.9981 25.7705 14.932 26.3812 14.679C26.9919 14.426 27.5139 13.9976 27.8811 13.448C28.2484 12.8984 28.4444 12.2522 28.4444 11.5912C28.4436 10.705 28.0913 9.85533 27.4646 9.2287C26.838 8.60208 25.9883 8.24971 25.1022 8.24895Z" fill="#171A1C"/>
<path d="M25.1022 13.0843C24.8069 13.0843 24.5181 12.9967 24.2726 12.8327C24.027 12.6686 23.8356 12.4353 23.7226 12.1625C23.6095 11.8896 23.58 11.5893 23.6376 11.2997C23.6952 11.01 23.8374 10.7439 24.0463 10.535C24.2551 10.3262 24.5212 10.184 24.8109 10.1264C25.1006 10.0687 25.4008 10.0983 25.6737 10.2113C25.9466 10.3244 26.1798 10.5158 26.3439 10.7613C26.508 11.0069 26.5956 11.2956 26.5956 11.591C26.5948 11.9868 26.4372 12.3662 26.1573 12.6461C25.8774 12.926 25.498 13.0836 25.1022 13.0843ZM25.1022 10.8088C24.9475 10.8088 24.7963 10.8546 24.6676 10.9406C24.539 11.0265 24.4387 11.1487 24.3795 11.2916C24.3203 11.4346 24.3048 11.5919 24.335 11.7436C24.3652 11.8953 24.4397 12.0347 24.5491 12.1441C24.6585 12.2535 24.7979 12.328 24.9496 12.3582C25.1014 12.3884 25.2586 12.3729 25.4016 12.3137C25.5445 12.2545 25.6667 12.1542 25.7526 12.0256C25.8386 11.8969 25.8844 11.7457 25.8844 11.591C25.8844 11.3835 25.802 11.1846 25.6553 11.0379C25.5086 10.8912 25.3097 10.8088 25.1022 10.8088Z" fill="#171A1C"/>
<path d="M22.6817 14.8111C22.6419 14.8114 22.6024 14.8047 22.5651 14.7912C22.4761 14.7602 22.403 14.6952 22.362 14.6104C22.3209 14.5256 22.3152 14.4279 22.346 14.3389C22.5451 13.7673 22.9171 13.2718 23.4105 12.9211C23.9039 12.5705 24.4942 12.3821 25.0995 12.3821C25.7048 12.3821 26.295 12.5705 26.7884 12.9211C27.2818 13.2718 27.6538 13.7673 27.8529 14.3389C27.88 14.4269 27.8719 14.522 27.8302 14.6042C27.7886 14.6864 27.7168 14.7492 27.6298 14.7794C27.5428 14.8096 27.4474 14.8049 27.3638 14.7663C27.2802 14.7276 27.2149 14.658 27.1816 14.5722C27.0734 14.2578 26.895 13.9722 26.6599 13.7371C26.4248 13.5019 26.1392 13.3235 25.8248 13.2154C25.2725 13.0245 24.6671 13.06 24.141 13.3143C23.6149 13.5685 23.2109 14.0208 23.0173 14.5722C22.9935 14.6421 22.9482 14.7029 22.888 14.7457C22.8278 14.7886 22.7556 14.8115 22.6817 14.8111Z" fill="#171A1C"/>
<path d="M31.1921 24.1777H0.787866C0.669164 24.1781 0.552317 24.1482 0.448319 24.091C0.34432 24.0338 0.256588 23.9511 0.193377 23.8506C0.094662 23.6941 0.061935 23.5049 0.102355 23.3244L3.19995 9.52881H5.75995C5.85425 9.52881 5.94469 9.56627 6.01137 9.63295C6.07805 9.69963 6.11551 9.79006 6.11551 9.88436C6.11551 9.97866 6.07805 10.0691 6.01137 10.1358C5.94469 10.2025 5.85425 10.2399 5.75995 10.2399H3.76884L0.796399 23.4751H31.1921L28.9536 15.0755C28.9416 15.0303 28.9387 14.9832 28.9449 14.9368C28.9512 14.8905 28.9665 14.8459 28.99 14.8054C29.0135 14.765 29.0447 14.7296 29.0819 14.7013C29.1191 14.673 29.1615 14.6522 29.2067 14.6403C29.2519 14.6283 29.299 14.6254 29.3454 14.6316C29.3917 14.6379 29.4363 14.6532 29.4767 14.6767C29.5172 14.7002 29.5525 14.7315 29.5809 14.7686C29.6092 14.8058 29.63 14.8482 29.6419 14.8934L31.872 23.2988C31.8865 23.3584 31.8942 23.4195 31.8947 23.4808C31.8932 23.6662 31.8185 23.8434 31.6869 23.9739C31.5553 24.1045 31.3775 24.1777 31.1921 24.1777Z" fill="#171A1C"/>
<path d="M20.224 10.2399H13.7245C13.6302 10.2399 13.5397 10.2025 13.473 10.1358C13.4064 10.0691 13.3689 9.97866 13.3689 9.88436C13.3689 9.79006 13.4064 9.69963 13.473 9.63295C13.5397 9.56627 13.6302 9.52881 13.7245 9.52881H20.224C20.3183 9.52881 20.4087 9.56627 20.4754 9.63295C20.5421 9.69963 20.5796 9.79006 20.5796 9.88436C20.5796 9.97866 20.5421 10.0691 20.4754 10.1358C20.4087 10.2025 20.3183 10.2399 20.224 10.2399Z" fill="#171A1C"/>
<path d="M31.5193 26.1688H0.480711C0.353219 26.1688 0.230948 26.1181 0.140797 26.028C0.0506462 25.9378 0 25.8156 0 25.6881L0 23.5377C0 23.4434 0.0374602 23.3529 0.10414 23.2863C0.170819 23.2196 0.261256 23.1821 0.355556 23.1821C0.449855 23.1821 0.540292 23.2196 0.606971 23.2863C0.673651 23.3529 0.711111 23.4434 0.711111 23.5377V25.4577H31.2889V23.6401C31.2889 23.5458 31.3264 23.4553 31.393 23.3887C31.4597 23.322 31.5501 23.2845 31.6444 23.2845C31.7387 23.2845 31.8292 23.322 31.8959 23.3887C31.9625 23.4553 32 23.5458 32 23.6401V25.6881C32 25.8156 31.9494 25.9378 31.8592 26.028C31.7691 26.1181 31.6468 26.1688 31.5193 26.1688Z" fill="#171A1C"/>
<path d="M0.853367 21.9476C0.781334 21.9496 0.710414 21.9296 0.650004 21.8903C0.589594 21.851 0.542546 21.7943 0.515094 21.7277C0.487642 21.661 0.481082 21.5876 0.496282 21.5172C0.511483 21.4468 0.547727 21.3826 0.600212 21.3332C1.39666 20.5283 3.38777 19.911 5.91079 19.1572C7.9275 18.5457 10.2144 17.8545 12.1515 16.9499C16.2134 15.0755 17.317 9.86444 17.3284 9.81324C17.3341 9.76429 17.3499 9.71707 17.3748 9.67455C17.3997 9.63204 17.4332 9.59517 17.4731 9.56629C17.513 9.5374 17.5585 9.51713 17.6067 9.50675C17.6549 9.49638 17.7047 9.49613 17.7529 9.50602C17.8012 9.51591 17.8469 9.53573 17.8871 9.56421C17.9273 9.5927 17.9612 9.62923 17.9865 9.67149C18.0118 9.71375 18.0281 9.76081 18.0343 9.8097C18.0405 9.85858 18.0364 9.90822 18.0224 9.95546C17.9769 10.183 16.8306 15.559 12.453 17.6013C10.4619 18.5286 8.15506 19.2283 6.11843 19.8484C3.88555 20.5254 1.77497 21.1654 1.10652 21.8395C1.07363 21.8735 1.0343 21.9005 0.99083 21.9191C0.947362 21.9376 0.90063 21.9473 0.853367 21.9476Z" fill="#171A1C"/>
<path d="M15.7157 26.1689C15.6214 26.1689 15.5309 26.1315 15.4642 26.0648C15.3976 25.9981 15.3601 25.9077 15.3601 25.8134V23.7483C15.3971 23.5776 16.2817 19.5812 19.2456 18.0992L22.0901 16.677C22.1319 16.6561 22.1774 16.6436 22.2241 16.6403C22.2708 16.637 22.3176 16.6429 22.362 16.6577C22.4064 16.6725 22.4474 16.6959 22.4827 16.7265C22.5181 16.7572 22.547 16.7945 22.5679 16.8363C22.5888 16.8781 22.6013 16.9237 22.6046 16.9703C22.608 17.017 22.602 17.0638 22.5873 17.1082C22.5725 17.1526 22.5491 17.1936 22.5184 17.229C22.4878 17.2643 22.4505 17.2932 22.4086 17.3142L19.5642 18.7364C17.0383 19.9993 16.1509 23.4781 16.0627 23.8564V25.8077C16.0642 25.9015 16.0286 25.9921 15.9636 26.0598C15.8986 26.1274 15.8095 26.1667 15.7157 26.1689Z" fill="#171A1C"/>
</svg>
