<svg width="32" height="35" viewBox="0 0 32 35" fill="none" xmlns="http://www.w3.org/2000/svg">
<path d="M10.8599 11.5501V0.515991H21.043V11.5501H25.7207V22.2291L31.1623 22.5876L31.5745 33.5581H0.281494L0.415526 22.5876H5.22055L5.26411 11.5501H10.8599Z" fill="#FF8338"/>
<path d="M3.93042 22.5876L4.18843 26.0423L6.88246 26.1495L7.10026 22.8289L3.93042 22.5876Z" fill="#FFA670"/>
<path d="M14.3313 22.5876L14.5893 26.0423L17.2833 26.1495L17.5011 22.8289L14.3313 22.5876Z" fill="#FFA670"/>
<path d="M24.7188 22.5876L24.9768 26.0423L27.6708 26.1495L27.8886 22.8289L24.7188 22.5876Z" fill="#FFA670"/>
<path d="M8.73877 11.5502L8.99343 15.0015L11.6875 15.1121L11.9053 11.7914L8.73877 11.5502Z" fill="#FFA670"/>
<path d="M19.1262 11.5502L19.3809 15.0015L22.0749 15.1121L22.2927 11.7914L19.1262 11.5502Z" fill="#FFA670"/>
<path d="M14.415 0.221191L14.673 3.6725L17.3671 3.78308L17.5849 0.462448L14.415 0.221191Z" fill="#FFA670"/>
<path d="M10.1663 34.178H1.05885C0.778296 34.1771 0.509487 34.0652 0.311106 33.8669C0.112724 33.6685 0.000883635 33.3997 0 33.1191L0 23.2846C0.000883635 23.004 0.112724 22.7352 0.311106 22.5368C0.509487 22.3384 0.778296 22.2266 1.05885 22.2257H10.1663C10.4468 22.2266 10.7156 22.3384 10.914 22.5368C11.1124 22.7352 11.2242 23.004 11.2251 23.2846V33.1191C11.2242 33.3997 11.1124 33.6685 10.914 33.8669C10.7156 34.0652 10.4468 34.1771 10.1663 34.178ZM1.05885 23.0634C1.00046 23.0643 0.944715 23.0878 0.903427 23.1291C0.862139 23.1704 0.838561 23.2262 0.837696 23.2846V33.1191C0.838561 33.1775 0.862139 33.2332 0.903427 33.2745C0.944715 33.3158 1.00046 33.3394 1.05885 33.3403H10.1663C10.2247 33.3394 10.2804 33.3158 10.3217 33.2745C10.363 33.2332 10.3866 33.1775 10.3874 33.1191V23.2846C10.3866 23.2262 10.363 23.1704 10.3217 23.1291C10.2804 23.0878 10.2247 23.0643 10.1663 23.0634H1.05885Z" fill="#171A1C"/>
<path d="M6.48035 26.6588H4.74464C4.46409 26.6579 4.19528 26.5461 3.9969 26.3477C3.79852 26.1493 3.68667 25.8805 3.68579 25.5999V22.2257H7.53919V25.5999C7.53831 25.8805 7.42647 26.1493 7.22809 26.3477C7.02971 26.5461 6.7609 26.6579 6.48035 26.6588ZM4.52349 23.0634V25.5999C4.52435 25.6583 4.54793 25.7141 4.58922 25.7554C4.63051 25.7967 4.68626 25.8202 4.74464 25.8211H6.48035C6.53873 25.8202 6.59448 25.7967 6.63577 25.7554C6.67706 25.7141 6.70063 25.6583 6.7015 25.5999V23.0634H4.52349Z" fill="#171A1C"/>
<path d="M3.76953 30.5826H2.09414C1.98306 30.5826 1.87652 30.5384 1.79797 30.4599C1.71942 30.3813 1.67529 30.2748 1.67529 30.1637C1.67529 30.0526 1.71942 29.9461 1.79797 29.8676C1.87652 29.789 1.98306 29.7449 2.09414 29.7449H3.76953C3.88062 29.7449 3.98715 29.789 4.0657 29.8676C4.14425 29.9461 4.18838 30.0526 4.18838 30.1637C4.18838 30.2748 4.14425 30.3813 4.0657 30.4599C3.98715 30.5384 3.88062 30.5826 3.76953 30.5826Z" fill="#171A1C"/>
<path d="M3.76953 32.2178H2.09414C1.98306 32.2178 1.87652 32.1737 1.79797 32.0951C1.71942 32.0166 1.67529 31.9101 1.67529 31.799C1.67529 31.6879 1.71942 31.5814 1.79797 31.5028C1.87652 31.4243 1.98306 31.3801 2.09414 31.3801H3.76953C3.88062 31.3801 3.98715 31.4243 4.0657 31.5028C4.14425 31.5814 4.18838 31.6879 4.18838 31.799C4.18838 31.9101 4.14425 32.0166 4.0657 32.0951C3.98715 32.1737 3.88062 32.2178 3.76953 32.2178Z" fill="#171A1C"/>
<path d="M20.5537 34.178H11.4463C11.1657 34.1771 10.8969 34.0652 10.6986 33.8669C10.5002 33.6685 10.3883 33.3997 10.3875 33.1191V23.2846C10.3883 23.004 10.5002 22.7352 10.6986 22.5368C10.8969 22.3384 11.1657 22.2266 11.4463 22.2257H20.5537C20.8343 22.2266 21.1031 22.3384 21.3015 22.5368C21.4999 22.7352 21.6117 23.004 21.6126 23.2846V33.1191C21.6117 33.3997 21.4999 33.6685 21.3015 33.8669C21.1031 34.0652 20.8343 34.1771 20.5537 34.178ZM11.4463 23.0634C11.3879 23.0643 11.3322 23.0878 11.2909 23.1291C11.2496 23.1704 11.226 23.2262 11.2251 23.2846V33.1191C11.226 33.1775 11.2496 33.2332 11.2909 33.2745C11.3322 33.3158 11.3879 33.3394 11.4463 33.3403H20.5537C20.6121 33.3394 20.6679 33.3158 20.7092 33.2745C20.7504 33.2332 20.774 33.1775 20.7749 33.1191V23.2846C20.774 23.2262 20.7504 23.1704 20.7092 23.1291C20.6679 23.0878 20.6121 23.0643 20.5537 23.0634H11.4463Z" fill="#171A1C"/>
<path d="M16.8678 26.6588H15.1321C14.8515 26.6579 14.5827 26.5461 14.3843 26.3477C14.186 26.1493 14.0741 25.8805 14.0732 25.5999V22.2257H17.9266V25.5999C17.9258 25.8805 17.8139 26.1493 17.6155 26.3477C17.4172 26.5461 17.1483 26.6579 16.8678 26.6588ZM14.9109 23.0634V25.5999C14.9118 25.6583 14.9354 25.7141 14.9767 25.7554C15.018 25.7967 15.0737 25.8202 15.1321 25.8211H16.8678C16.9262 25.8202 16.9819 25.7967 17.0232 25.7554C17.0645 25.7141 17.0881 25.6583 17.0889 25.5999V23.0634H14.9109Z" fill="#171A1C"/>
<path d="M14.157 30.5826H12.4816C12.3705 30.5826 12.264 30.5384 12.1854 30.4599C12.1069 30.3813 12.0627 30.2748 12.0627 30.1637C12.0627 30.0526 12.1069 29.9461 12.1854 29.8676C12.264 29.789 12.3705 29.7449 12.4816 29.7449H14.157C14.2681 29.7449 14.3746 29.789 14.4532 29.8676C14.5317 29.9461 14.5758 30.0526 14.5758 30.1637C14.5758 30.2748 14.5317 30.3813 14.4532 30.4599C14.3746 30.5384 14.2681 30.5826 14.157 30.5826Z" fill="#171A1C"/>
<path d="M14.157 32.2178H12.4816C12.3705 32.2178 12.264 32.1737 12.1854 32.0951C12.1069 32.0166 12.0627 31.9101 12.0627 31.799C12.0627 31.6879 12.1069 31.5814 12.1854 31.5028C12.264 31.4243 12.3705 31.3801 12.4816 31.3801H14.157C14.2681 31.3801 14.3746 31.4243 14.4532 31.5028C14.5317 31.5814 14.5758 31.6879 14.5758 31.799C14.5758 31.9101 14.5317 32.0166 14.4532 32.0951C14.3746 32.1737 14.2681 32.2178 14.157 32.2178Z" fill="#171A1C"/>
<path d="M30.9412 34.178H21.8338C21.5532 34.1771 21.2844 34.0652 21.086 33.8669C20.8876 33.6685 20.7758 33.3997 20.7749 33.1191V23.2846C20.7758 23.004 20.8876 22.7352 21.086 22.5368C21.2844 22.3384 21.5532 22.2266 21.8338 22.2257H30.9412C31.2217 22.2266 31.4905 22.3384 31.6889 22.5368C31.8873 22.7352 31.9991 23.004 32 23.2846V33.1191C31.9991 33.3997 31.8873 33.6685 31.6889 33.8669C31.4905 34.0652 31.2217 34.1771 30.9412 34.178ZM21.8338 23.0634C21.7754 23.0643 21.7196 23.0878 21.6783 23.1291C21.637 23.1704 21.6135 23.2262 21.6126 23.2846V33.1191C21.6135 33.1775 21.637 33.2332 21.6783 33.2745C21.7196 33.3158 21.7754 33.3394 21.8338 33.3403H30.9412C30.9996 33.3394 31.0553 33.3158 31.0966 33.2745C31.1379 33.2332 31.1615 33.1775 31.1623 33.1191V23.2846C31.1615 23.2262 31.1379 23.1704 31.0966 23.1291C31.0553 23.0878 30.9996 23.0643 30.9412 23.0634H21.8338Z" fill="#171A1C"/>
<path d="M27.2552 26.6588H25.5195C25.239 26.6579 24.9702 26.5461 24.7718 26.3477C24.5734 26.1493 24.4616 25.8805 24.4607 25.5999V22.2257H28.3141V25.5999C28.3132 25.8805 28.2014 26.1493 28.003 26.3477C27.8046 26.5461 27.5358 26.6579 27.2552 26.6588ZM25.2984 23.0634V25.5999C25.2993 25.6583 25.3228 25.7141 25.3641 25.7554C25.4054 25.7967 25.4612 25.8202 25.5195 25.8211H27.2552C27.3136 25.8202 27.3694 25.7967 27.4107 25.7554C27.452 25.7141 27.4755 25.6583 27.4764 25.5999V23.0634H25.2984Z" fill="#171A1C"/>
<path d="M24.5444 30.5826H22.869C22.758 30.5826 22.6514 30.5384 22.5729 30.4599C22.4943 30.3813 22.4502 30.2748 22.4502 30.1637C22.4502 30.0526 22.4943 29.9461 22.5729 29.8676C22.6514 29.789 22.758 29.7449 22.869 29.7449H24.5444C24.6555 29.7449 24.7621 29.789 24.8406 29.8676C24.9192 29.9461 24.9633 30.0526 24.9633 30.1637C24.9633 30.2748 24.9192 30.3813 24.8406 30.4599C24.7621 30.5384 24.6555 30.5826 24.5444 30.5826Z" fill="#171A1C"/>
<path d="M24.5444 32.2178H22.869C22.758 32.2178 22.6514 32.1737 22.5729 32.0951C22.4943 32.0166 22.4502 31.9101 22.4502 31.799C22.4502 31.6879 22.4943 31.5814 22.5729 31.5028C22.6514 31.4243 22.758 31.3801 22.869 31.3801H24.5444C24.6555 31.3801 24.7621 31.4243 24.8406 31.5028C24.9192 31.5814 24.9633 31.6879 24.9633 31.799C24.9633 31.9101 24.9192 32.0166 24.8406 32.0951C24.7621 32.1737 24.6555 32.2178 24.5444 32.2178Z" fill="#171A1C"/>
<path d="M14.8574 23.0668H5.75001C5.46946 23.0659 5.20065 22.954 5.00227 22.7556C4.80389 22.5573 4.69205 22.2885 4.69116 22.0079V12.1734C4.69205 11.8928 4.80389 11.624 5.00227 11.4256C5.20065 11.2272 5.46946 11.1154 5.75001 11.1145H14.8574C15.138 11.1154 15.4068 11.2272 15.6052 11.4256C15.8036 11.624 15.9154 11.8928 15.9163 12.1734V22.0079C15.9154 22.2885 15.8036 22.5573 15.6052 22.7556C15.4068 22.954 15.138 23.0659 14.8574 23.0668ZM5.75001 11.9522C5.69163 11.9531 5.63588 11.9766 5.59459 12.0179C5.5533 12.0592 5.52972 12.115 5.52886 12.1734V22.0079C5.52972 22.0663 5.5533 22.122 5.59459 22.1633C5.63588 22.2046 5.69163 22.2282 5.75001 22.2291H14.8574C14.9158 22.2282 14.9716 22.2046 15.0129 22.1633C15.0542 22.122 15.0777 22.0663 15.0786 22.0079V12.1734C15.0777 12.115 15.0542 12.0592 15.0129 12.0179C14.9716 11.9766 14.9158 11.9531 14.8574 11.9522H5.75001Z" fill="#171A1C"/>
<path d="M11.1715 15.5476H9.4358C9.15525 15.5467 8.88644 15.4349 8.68806 15.2365C8.48968 15.0381 8.37784 14.7693 8.37695 14.4887V11.1145H12.2304V14.4887C12.2295 14.7693 12.1176 15.0381 11.9193 15.2365C11.7209 15.4349 11.4521 15.5467 11.1715 15.5476ZM9.21465 11.9522V14.4887C9.21551 14.5471 9.23909 14.6029 9.28038 14.6442C9.32167 14.6855 9.37742 14.709 9.4358 14.7099H11.1715C11.2299 14.709 11.2856 14.6855 11.3269 14.6442C11.3682 14.6029 11.3918 14.5471 11.3927 14.4887V11.9522H9.21465Z" fill="#171A1C"/>
<path d="M8.4607 19.4681H6.7853C6.67422 19.4681 6.56768 19.4239 6.48913 19.3454C6.41058 19.2668 6.36646 19.1603 6.36646 19.0492C6.36646 18.9381 6.41058 18.8316 6.48913 18.753C6.56768 18.6745 6.67422 18.6304 6.7853 18.6304H8.4607C8.57178 18.6304 8.67832 18.6745 8.75687 18.753C8.83542 18.8316 8.87954 18.9381 8.87954 19.0492C8.87954 19.1603 8.83542 19.2668 8.75687 19.3454C8.67832 19.4239 8.57178 19.4681 8.4607 19.4681Z" fill="#171A1C"/>
<path d="M8.4607 21.1099H6.7853C6.67422 21.1099 6.56768 21.0658 6.48913 20.9872C6.41058 20.9087 6.36646 20.8022 6.36646 20.6911C6.36646 20.58 6.41058 20.4734 6.48913 20.3949C6.56768 20.3163 6.67422 20.2722 6.7853 20.2722H8.4607C8.57178 20.2722 8.67832 20.3163 8.75687 20.3949C8.83542 20.4734 8.87954 20.58 8.87954 20.6911C8.87954 20.8022 8.83542 20.9087 8.75687 20.9872C8.67832 21.0658 8.57178 21.1099 8.4607 21.1099Z" fill="#171A1C"/>
<path d="M25.2449 23.0668H16.1375C15.8569 23.0659 15.5881 22.954 15.3897 22.7556C15.1913 22.5573 15.0795 22.2885 15.0786 22.0079V12.1734C15.0795 11.8928 15.1913 11.624 15.3897 11.4256C15.5881 11.2272 15.8569 11.1154 16.1375 11.1145H25.2449C25.5254 11.1154 25.7943 11.2272 25.9926 11.4256C26.191 11.624 26.3029 11.8928 26.3037 12.1734V22.0079C26.3029 22.2885 26.191 22.5573 25.9926 22.7556C25.7943 22.954 25.5254 23.0659 25.2449 23.0668ZM16.1375 11.9522C16.0791 11.9531 16.0233 11.9766 15.982 12.0179C15.9408 12.0592 15.9172 12.115 15.9163 12.1734V22.0079C15.9172 22.0663 15.9408 22.122 15.982 22.1633C16.0233 22.2046 16.0791 22.2282 16.1375 22.2291H25.2449C25.3033 22.2282 25.359 22.2046 25.4003 22.1633C25.4416 22.122 25.4652 22.0663 25.466 22.0079V12.1734C25.4652 12.115 25.4416 12.0592 25.4003 12.0179C25.359 11.9766 25.3033 11.9531 25.2449 11.9522H16.1375Z" fill="#171A1C"/>
<path d="M21.559 15.5476H19.8233C19.5427 15.5467 19.2739 15.4349 19.0755 15.2365C18.8771 15.0381 18.7653 14.7693 18.7644 14.4887V11.1145H22.6178V14.4887C22.6169 14.7693 22.5051 15.0381 22.3067 15.2365C22.1083 15.4349 21.8395 15.5467 21.559 15.5476ZM19.6021 11.9522V14.4887C19.603 14.5471 19.6265 14.6029 19.6678 14.6442C19.7091 14.6855 19.7649 14.709 19.8233 14.7099H21.559C21.6173 14.709 21.6731 14.6855 21.7144 14.6442C21.7557 14.6029 21.7792 14.5471 21.7801 14.4887V11.9522H19.6021Z" fill="#171A1C"/>
<path d="M18.8481 19.4681H17.1728C17.0617 19.4681 16.9551 19.4239 16.8766 19.3454C16.798 19.2668 16.7539 19.1603 16.7539 19.0492C16.7539 18.9381 16.798 18.8316 16.8766 18.753C16.9551 18.6745 17.0617 18.6304 17.1728 18.6304H18.8481C18.9592 18.6304 19.0658 18.6745 19.1443 18.753C19.2229 18.8316 19.267 18.9381 19.267 19.0492C19.267 19.1603 19.2229 19.2668 19.1443 19.3454C19.0658 19.4239 18.9592 19.4681 18.8481 19.4681Z" fill="#171A1C"/>
<path d="M18.8481 21.1099H17.1728C17.0617 21.1099 16.9551 21.0658 16.8766 20.9872C16.798 20.9087 16.7539 20.8022 16.7539 20.6911C16.7539 20.58 16.798 20.4734 16.8766 20.3949C16.9551 20.3163 17.0617 20.2722 17.1728 20.2722H18.8481C18.9592 20.2722 19.0658 20.3163 19.1443 20.3949C19.2229 20.4734 19.267 20.58 19.267 20.6911C19.267 20.8022 19.2229 20.9087 19.1443 20.9872C19.0658 21.0658 18.9592 21.1099 18.8481 21.1099Z" fill="#171A1C"/>
<path d="M20.5537 11.9523H11.4463C11.1657 11.9514 10.8969 11.8395 10.6986 11.6411C10.5002 11.4428 10.3883 11.174 10.3875 10.8934V1.05885C10.3883 0.778296 10.5002 0.509487 10.6986 0.311106C10.8969 0.112724 11.1657 0.000883635 11.4463 0L20.5537 0C20.8343 0.000883635 21.1031 0.112724 21.3015 0.311106C21.4999 0.509487 21.6117 0.778296 21.6126 1.05885V10.8934C21.6117 11.174 21.4999 11.4428 21.3015 11.6411C21.1031 11.8395 20.8343 11.9514 20.5537 11.9523ZM11.4463 0.837696C11.3879 0.838561 11.3322 0.862139 11.2909 0.903427C11.2496 0.944715 11.226 1.00046 11.2251 1.05885V10.8934C11.226 10.9518 11.2496 11.0075 11.2909 11.0488C11.3322 11.0901 11.3879 11.1137 11.4463 11.1146H20.5537C20.6121 11.1137 20.6679 11.0901 20.7092 11.0488C20.7504 11.0075 20.774 10.9518 20.7749 10.8934V1.05885C20.774 1.00046 20.7504 0.944715 20.7092 0.903427C20.6679 0.862139 20.6121 0.838561 20.5537 0.837696H11.4463Z" fill="#171A1C"/>
<path d="M15.1321 4.43979C14.8515 4.43891 14.5827 4.32707 14.3843 4.12868C14.186 3.9303 14.0741 3.66149 14.0732 3.38094V0H17.9266V3.37424C17.9284 3.65449 17.819 3.92402 17.6224 4.12375C17.4259 4.32349 17.1581 4.43714 16.8778 4.43979H15.1321ZM14.9109 0.837696V3.38094C14.9118 3.43933 14.9354 3.49508 14.9767 3.53636C15.018 3.57765 15.0737 3.60123 15.1321 3.60209H16.8678C16.8971 3.6021 16.9262 3.59627 16.9532 3.58495C16.9803 3.57362 17.0048 3.55703 17.0254 3.53614C17.046 3.51525 17.0622 3.49047 17.0731 3.46325C17.084 3.43603 17.0894 3.40691 17.0889 3.37759V0.837696H14.9109Z" fill="#171A1C"/>
<path d="M14.157 8.35686H12.4816C12.3705 8.35686 12.264 8.31273 12.1854 8.23418C12.1069 8.15563 12.0627 8.0491 12.0627 7.93801C12.0627 7.82693 12.1069 7.72039 12.1854 7.64184C12.264 7.56329 12.3705 7.51917 12.4816 7.51917H14.157C14.2681 7.51917 14.3746 7.56329 14.4532 7.64184C14.5317 7.72039 14.5758 7.82693 14.5758 7.93801C14.5758 8.0491 14.5317 8.15563 14.4532 8.23418C14.3746 8.31273 14.2681 8.35686 14.157 8.35686Z" fill="#171A1C"/>
<path d="M14.157 9.9887H12.4816C12.3705 9.9887 12.264 9.94457 12.1854 9.86602C12.1069 9.78747 12.0627 9.68093 12.0627 9.56985C12.0627 9.45876 12.1069 9.35223 12.1854 9.27368C12.264 9.19513 12.3705 9.151 12.4816 9.151H14.157C14.2681 9.151 14.3746 9.19513 14.4532 9.27368C14.5317 9.35223 14.5758 9.45876 14.5758 9.56985C14.5758 9.68093 14.5317 9.78747 14.4532 9.86602C14.3746 9.94457 14.2681 9.9887 14.157 9.9887Z" fill="#171A1C"/>
</svg>
