<svg width="32" height="33" viewBox="0 0 32 33" fill="none" xmlns="http://www.w3.org/2000/svg">
<path d="M0.658316 32.0036L0.404053 29.0309L2.16894 27.5652L4.21801 27.3221L5.92307 25.1758L5.45193 23.0894L2.8046 19.9073L3.09252 16.6543L5.45193 13.8349L8.21518 13.5171L10.5933 14.5154L12.1189 16.5907V19.6643L9.72955 23.0894L9.38554 25.8077L10.1259 27.3707L12.7022 27.5165L14.3811 28.8851L14.7999 32.0036H0.658316Z" fill="#FF8338"/>
<path d="M14.5568 31.7605L14.7999 29.6329L13.7753 27.8082L10.1259 27.3707L9.41919 26.0807V23.0557L11.801 20.786L12.5077 17.8096L11.0607 14.5154L31.5663 14.1527V31.7605H14.5568Z" fill="#FFA670"/>
<path d="M0.871338 29.0309V0.594482H20.2216L28.5562 9.32545L28.7282 14.3958L10.5932 14.5154L7.50837 13.6143L5.58269 14.3098L3.72807 15.0539L2.98397 16.9197L2.77832 19.4923L4.37494 22.0536L5.65748 23.6502L5.50791 25.3702L4.80121 27.079L2.5091 27.4417L1.29013 28.1484L0.871338 29.0309Z" fill="#FFA670"/>
<path d="M18.3558 32.3439H0.015121V30.7772C-0.00731403 30.5341 -0.11575 28.9076 0.841478 27.8307C1.12783 27.5265 1.47658 27.2878 1.86382 27.1309C2.25106 26.9741 2.66763 26.9029 3.08498 26.9221C3.52262 26.9523 3.95844 26.8416 4.32854 26.606C4.69864 26.3705 4.98356 26.0226 5.14153 25.6134C5.51544 24.7235 5.36588 23.6017 4.99944 23.2315C4.79378 23.0296 4.56195 22.8352 4.31891 22.6333C3.26072 21.7172 1.9034 20.5655 2.27732 17.6078C2.69611 14.2725 5.62388 13.0872 7.97582 13.0872C9.97254 13.0872 12.9302 14.6613 12.9302 18.0416C12.9302 20.5879 11.2214 22.2332 10.4212 22.996L10.1745 23.2315C9.80054 23.6054 9.80053 24.114 9.87906 25.5573C9.90523 26.1443 10.3652 26.4622 10.6867 27.3895C10.7727 27.6325 10.4773 27.8569 10.2193 27.8569C9.96132 27.8569 9.87532 27.6176 9.75193 27.3895C9.41914 26.7725 8.98913 26.1743 8.94426 25.5984C8.87696 24.1028 8.83957 23.2465 9.51636 22.5734C9.59488 22.4912 9.68462 22.4089 9.7781 22.3192C10.5558 21.5751 11.9805 20.1916 11.9805 18.0416C11.9805 15.3007 9.58366 14.022 7.96086 14.022C5.9978 14.022 3.5449 14.9904 3.20463 17.7275C2.89428 20.1916 3.89264 21.0292 4.95083 21.9153C5.19761 22.1247 5.45562 22.3379 5.69866 22.5734C6.38293 23.2577 6.53998 24.7795 6.04641 25.9723C5.81412 26.5487 5.40812 27.0384 4.88478 27.3734C4.36145 27.7085 3.74677 27.8722 3.12611 27.8419C2.83821 27.8209 2.54921 27.8636 2.2797 27.967C2.01019 28.0704 1.7668 28.232 1.56688 28.4402C0.837739 29.2553 0.972349 30.6837 0.972349 30.6837V31.4091H18.3558C18.4797 31.4091 18.5986 31.4583 18.6863 31.546C18.7739 31.6337 18.8232 31.7525 18.8232 31.8765C18.8232 32.0005 18.7739 32.1193 18.6863 32.207C18.5986 32.2946 18.4797 32.3439 18.3558 32.3439Z" fill="#171A1C"/>
<path d="M14.7064 32.3438C14.6438 32.3458 14.5814 32.3352 14.5229 32.3126C14.4645 32.29 14.4112 32.2559 14.3662 32.2123C14.3212 32.1687 14.2854 32.1165 14.261 32.0588C14.2366 32.0011 14.224 31.9391 14.224 31.8764V30.0068C14.224 27.9353 12.2909 27.8568 12.074 27.8568H3.55993C3.43596 27.8568 3.31708 27.8075 3.22943 27.7199C3.14177 27.6322 3.09253 27.5134 3.09253 27.3894C3.09253 27.2654 3.14177 27.1465 3.22943 27.0589C3.31708 26.9712 3.43596 26.922 3.55993 26.922H12.089C13.1546 26.922 15.1738 27.5651 15.1738 30.0068V31.8764C15.1738 32.0004 15.1246 32.1192 15.0369 32.2069C14.9492 32.2946 14.8304 32.3438 14.7064 32.3438Z" fill="#171A1C"/>
<path d="M10.5934 4.58044H4.98462V10.1892H10.5934V4.58044Z" fill="#FF8338"/>
<path d="M11.0607 10.6566H4.5022V4.11304H11.0457L11.0607 10.6566ZM5.45195 9.7218H10.111V5.04783H5.45195V9.7218Z" fill="#171A1C"/>
<path d="M29.2892 23.2764H23.6804V28.8851H29.2892V23.2764Z" fill="#FF8338"/>
<path d="M29.7565 29.3525H23.198V22.809H29.7415L29.7565 29.3525ZM24.1477 28.4177H28.8068V23.7438H24.1477V28.4177Z" fill="#171A1C"/>
<path d="M0.871513 29.0309C0.808887 29.0329 0.746497 29.0223 0.688052 28.9997C0.629607 28.9771 0.576301 28.943 0.531302 28.8994C0.486304 28.8558 0.450532 28.8036 0.426114 28.7459C0.401695 28.6882 0.389128 28.6262 0.38916 28.5635V0H20.1357L29.1808 9.06001V13.9209C29.1808 14.0449 29.1315 14.1638 29.0439 14.2514C28.9562 14.3391 28.8373 14.3883 28.7134 14.3883C28.5894 14.3883 28.4705 14.3391 28.3829 14.2514C28.2952 14.1638 28.246 14.0449 28.246 13.9209V9.43393L19.7469 0.934793H1.33891V28.5635C1.33891 28.6249 1.32682 28.6857 1.30333 28.7424C1.27984 28.7991 1.24541 28.8506 1.20201 28.894C1.15861 28.9374 1.10709 28.9719 1.05038 28.9954C0.993671 29.0188 0.932893 29.0309 0.871513 29.0309Z" fill="#171A1C"/>
<path d="M32.0001 32.3439H18.0717C17.9478 32.3439 17.8289 32.2946 17.7412 32.207C17.6536 32.1193 17.6043 32.0004 17.6043 31.8765C17.6043 31.7525 17.6536 31.6336 17.7412 31.546C17.8289 31.4583 17.9478 31.4091 18.0717 31.4091H31.0504V14.7698H10.5223C10.3984 14.7698 10.2795 14.7205 10.1918 14.6329C10.1042 14.5452 10.0549 14.4263 10.0549 14.3024C10.0549 14.1784 10.1042 14.0595 10.1918 13.9719C10.2795 13.8842 10.3984 13.835 10.5223 13.835H32.0001V32.3439Z" fill="#171A1C"/>
<path d="M17.6904 23.0595L12.0442 19.9785C11.9902 19.949 11.9425 19.9092 11.9039 19.8613C11.8653 19.8134 11.8364 19.7584 11.8191 19.6993C11.8017 19.6403 11.7962 19.5785 11.8027 19.5173C11.8093 19.4561 11.8278 19.3968 11.8573 19.3428C11.8867 19.2888 11.9265 19.2411 11.9744 19.2025C12.0223 19.1638 12.0773 19.135 12.1364 19.1177C12.1954 19.1003 12.2573 19.0947 12.3184 19.1013C12.3796 19.1078 12.4389 19.1264 12.4929 19.1558L17.7053 21.9976L30.8822 15.1961C30.9367 15.1678 30.9962 15.1506 31.0574 15.1454C31.1185 15.1401 31.1801 15.147 31.2386 15.1656C31.2971 15.1842 31.3514 15.2141 31.3983 15.2536C31.4453 15.2932 31.484 15.3416 31.5122 15.3961C31.5405 15.4506 31.5577 15.5101 31.5629 15.5713C31.5681 15.6325 31.5613 15.6941 31.5427 15.7526C31.5241 15.8111 31.4942 15.8653 31.4546 15.9123C31.4151 15.9592 31.3667 15.9979 31.3122 16.0262L17.6904 23.0595Z" fill="#171A1C"/>
<path d="M28.7281 9.90879H21.5489C20.9995 9.91179 20.4712 9.69715 20.0795 9.31178C19.6878 8.92642 19.4647 8.40168 19.4587 7.85225V0.841298C19.4587 0.717337 19.508 0.598452 19.5956 0.510799C19.6833 0.423145 19.8022 0.373901 19.9261 0.373901C20.0501 0.373901 20.169 0.423145 20.2566 0.510799C20.3443 0.598452 20.3935 0.717337 20.3935 0.841298V7.85225C20.3994 8.15375 20.5241 8.44073 20.7405 8.6508C20.9568 8.86086 21.2474 8.97701 21.5489 8.974H28.7281C28.8521 8.974 28.971 9.02324 29.0586 9.11089C29.1463 9.19855 29.1955 9.31743 29.1955 9.44139C29.1955 9.56535 29.1463 9.68424 29.0586 9.77189C28.971 9.85955 28.8521 9.90879 28.7281 9.90879Z" fill="#171A1C"/>
</svg>
