<svg width="32" height="39" viewBox="0 0 32 39" fill="none" xmlns="http://www.w3.org/2000/svg">
<path d="M15.8118 0.790161L7.99861 4.3439L0.848877 5.00732V14.9248L2.45883 24.517L13.2088 35.3895L16.7203 37.498L24.2461 31.7935L30.1577 25.0536L31.0873 14.3079L31.3535 5.12986L22.2178 3.47765L15.8118 0.790161Z" fill="#FF8338"/>
<path d="M10.1324 16.5813L8.16748 18.4152L14.9285 25.7467L25.0699 12.5121L22.6994 10.2429L14.7087 20.3844L10.1324 16.5813Z" fill="#FFA670"/>
<path d="M16.6864 38.153C16.3817 38.1552 16.0848 38.0572 15.8413 37.8741C13.3059 35.9726 4.85468 29.4229 2.28551 25.0072C-0.355493 20.4477 -0.0597003 8.75546 0.0966473 5.28201C0.101089 5.0343 0.202904 4.79831 0.380055 4.62511C0.557205 4.45192 0.795438 4.35545 1.04318 4.3566C3.10106 4.3566 10.217 4.11152 15.5201 0.207055L15.8075 0L16.1075 0.177476C22.1839 3.76079 29.1308 4.25941 31.1168 4.33125C31.3538 4.33893 31.5784 4.43847 31.7432 4.60882C31.908 4.77916 32.0001 5.00695 32 5.24398C32 5.38343 32 19.3406 31.1549 23.9761C30.3858 28.2017 20.5275 35.6853 17.5231 37.8784C17.2813 38.0582 16.9877 38.1546 16.6864 38.153ZM1.1446 5.41301C1.03051 8.08782 0.67133 20.1139 3.21092 24.479C5.67445 28.7341 13.9947 35.1571 16.4793 37.029C16.5377 37.0713 16.608 37.094 16.68 37.094C16.7521 37.094 16.8224 37.0713 16.8808 37.029C22.6318 32.8288 29.5576 26.8453 30.1027 23.7902C30.8844 19.497 30.9478 6.85394 30.9478 5.38343C28.759 5.29046 21.9726 4.73268 15.8708 1.26768C10.424 5.10031 3.37995 5.41301 1.1446 5.41301Z" fill="#171A1C"/>
<path d="M15.0679 26.3298L7.46183 19.1885C7.35928 19.0927 7.299 18.9601 7.29425 18.8198C7.28949 18.6795 7.34066 18.5431 7.43648 18.4406C7.5323 18.338 7.66493 18.2778 7.80519 18.273C7.94546 18.2683 8.08186 18.3194 8.18441 18.4152L14.9454 24.7537L24.9305 11.7388C24.9727 11.6833 25.0254 11.6366 25.0856 11.6015C25.1458 11.5664 25.2123 11.5435 25.2813 11.534C25.3504 11.5246 25.4206 11.5289 25.4881 11.5466C25.5555 11.5644 25.6187 11.5952 25.6742 11.6374C25.7297 11.6795 25.7763 11.7322 25.8115 11.7924C25.8466 11.8526 25.8695 11.9192 25.8789 11.9882C25.8884 12.0573 25.8841 12.1275 25.8664 12.1949C25.8486 12.2623 25.8178 12.3256 25.7756 12.3811L15.0679 26.3298Z" fill="#171A1C"/>
<path d="M14.734 21.5506L9.66324 16.8095C9.61247 16.7621 9.57154 16.7051 9.54278 16.6418C9.51403 16.5785 9.49802 16.5102 9.49567 16.4408C9.49331 16.3713 9.50466 16.3021 9.52906 16.237C9.55347 16.172 9.59044 16.1123 9.63789 16.0616C9.68534 16.0108 9.74232 15.9699 9.80558 15.9411C9.86885 15.9124 9.93715 15.8963 10.0066 15.894C10.0761 15.8916 10.1453 15.903 10.2104 15.9274C10.2754 15.9518 10.335 15.9888 10.3858 16.0362L14.6114 19.9829L22.2513 9.97669C22.3365 9.86462 22.4627 9.79098 22.6022 9.77196C22.7417 9.75294 22.883 9.79011 22.995 9.87528C23.1071 9.96045 23.1808 10.0867 23.1998 10.2261C23.2188 10.3656 23.1816 10.5069 23.0965 10.619L14.734 21.5506Z" fill="#171A1C"/>
<path d="M25.07 12.512L22.4332 10.6274C22.3641 10.5936 22.3033 10.5451 22.2549 10.4854C22.2065 10.4256 22.1718 10.356 22.1531 10.2815C22.1344 10.2069 22.1322 10.1292 22.1466 10.0537C22.1611 9.97815 22.1918 9.90671 22.2368 9.84433C22.2817 9.78194 22.3397 9.73011 22.4067 9.69246C22.4737 9.6548 22.5481 9.63223 22.6248 9.62632C22.7014 9.62041 22.7785 9.6313 22.8505 9.65823C22.9225 9.68516 22.9877 9.72748 23.0417 9.78225L25.6784 11.6669C25.766 11.7557 25.8192 11.8726 25.8288 11.997C25.8384 12.1213 25.8037 12.245 25.7308 12.3462C25.658 12.4474 25.5517 12.5196 25.4307 12.5499C25.3097 12.5802 25.182 12.5668 25.07 12.512Z" fill="#171A1C"/>
<path d="M7.42398 18.4406L9.64665 16.0827C9.6941 16.0319 9.75108 15.991 9.81434 15.9622C9.87761 15.9335 9.94591 15.9175 10.0154 15.9151C10.0848 15.9127 10.1541 15.9241 10.2191 15.9485C10.2842 15.9729 10.3438 16.0099 10.3946 16.0573C10.4454 16.1048 10.4863 16.1617 10.515 16.225C10.5438 16.2883 10.5598 16.3566 10.5622 16.426C10.5645 16.4955 10.5532 16.5647 10.5288 16.6298C10.5044 16.6949 10.4674 16.7545 10.4199 16.8053L8.19304 19.1631C8.09553 19.2577 7.96533 19.3111 7.8295 19.3122C7.69366 19.3132 7.56264 19.2619 7.46364 19.1689C7.36464 19.0759 7.30529 18.9483 7.2979 18.8127C7.29052 18.677 7.33567 18.5438 7.42398 18.4406Z" fill="#171A1C"/>
</svg>
