<svg width="32" height="37" viewBox="0 0 32 37" fill="none" xmlns="http://www.w3.org/2000/svg">
<path d="M10.3299 0.262939L7.40088 3.65517L10.6326 3.56762L10.3299 0.262939Z" fill="#FF8338"/>
<path d="M7.48096 4.15485V25.9855L12.2921 21.0686L13.7438 21.3531L14.3347 22.3999L13.6453 25.2778L12.5036 26.5873V28.9911L28.8228 28.8707L28.5967 0.408813H10.5814L10.3844 3.77551H7.48096V4.15485Z" fill="#FFA670"/>
<path d="M7.43719 19.1537L7.67428 25.4165L12.0039 21.2766H13.1128L14.1998 22.2869L13.7438 25.4165L12.4343 26.3613L12.2228 28.7176L16.0491 29.086V30.4173L15.1882 32.4527L14.1998 32.9852L13.9554 35.8413H2.58594V24.377L5.05898 20.558L7.43719 19.1537Z" fill="#FF8338"/>
<path d="M9.8484 32.1644C9.75136 32.1638 9.65705 32.1322 9.5792 32.0743C9.50135 32.0163 9.44401 31.9351 9.41553 31.8423C9.38704 31.7495 9.3889 31.6501 9.42084 31.5585C9.45277 31.4668 9.51311 31.3878 9.59307 31.3328C10.2729 30.8733 10.9145 30.3598 11.5117 29.7972C11.829 29.4798 11.9457 28.3381 11.8071 26.9411C11.788 26.7663 11.8165 26.5895 11.8897 26.4296C11.9629 26.2697 12.0781 26.1326 12.223 26.0329C13.0169 25.4877 13.5666 24.654 13.7549 23.7094C13.9081 22.4583 13.6492 21.9148 13.3902 21.685C13.2282 21.54 13.0166 21.463 12.7993 21.4698L6.59843 26.9083C6.5534 26.9478 6.50103 26.9781 6.44431 26.9974C6.38759 27.0166 6.32763 27.0245 6.26784 27.0207C6.14711 27.0128 6.03445 26.9573 5.95464 26.8663C5.87483 26.7754 5.83441 26.6565 5.84227 26.5358C5.85014 26.415 5.90565 26.3024 5.99658 26.2226L12.4017 20.609L12.5221 20.5834C12.7874 20.5383 13.0594 20.5539 13.3178 20.6291C13.5762 20.7043 13.8142 20.8371 14.0139 21.0175C14.6012 21.561 14.8127 22.5166 14.6449 23.8553C14.4158 25.0403 13.7309 26.0881 12.7373 26.7733C12.728 26.7799 12.7205 26.7887 12.7154 26.7989C12.7103 26.809 12.7078 26.8203 12.7081 26.8317C12.8357 28.0974 12.8394 29.7497 12.1427 30.4391C11.5113 31.0476 10.8305 31.6027 10.1074 32.0988C10.0291 32.145 9.93923 32.1678 9.8484 32.1644Z" fill="#171A1C"/>
<path d="M14.1086 36.4504H3.28268C3.01955 36.4504 2.7672 36.3459 2.58114 36.1598C2.39507 35.9737 2.29055 35.7214 2.29055 35.4583V25.3801C2.2796 21.1927 7.07249 18.7488 7.29499 18.6467C7.34835 18.6198 7.4065 18.6038 7.46608 18.5995C7.52566 18.5953 7.5855 18.6029 7.64213 18.6219C7.69877 18.6408 7.75108 18.6709 7.79605 18.7102C7.84102 18.7495 7.87775 18.7973 7.90413 18.8509C7.95879 18.9588 7.96836 19.084 7.93074 19.1989C7.89311 19.3138 7.81138 19.4091 7.70352 19.4637C7.6561 19.4856 3.20973 21.758 3.20973 25.3801V35.4583C3.20973 35.4795 3.21818 35.4999 3.23323 35.515C3.24828 35.53 3.26869 35.5385 3.28998 35.5385H14.1086C14.2295 35.5385 14.3455 35.5865 14.431 35.672C14.5165 35.7576 14.5646 35.8735 14.5646 35.9944C14.5646 36.1154 14.5165 36.2313 14.431 36.3168C14.3455 36.4024 14.2295 36.4504 14.1086 36.4504Z" fill="#171A1C"/>
<path d="M14.1999 36.4248C14.1398 36.4253 14.0803 36.4139 14.0248 36.3911C13.9693 36.3684 13.9188 36.3348 13.8764 36.2924C13.8339 36.2499 13.8004 36.1995 13.7776 36.144C13.7549 36.0884 13.7434 36.0289 13.7439 35.9689V32.5183L14.1087 32.4454C14.167 32.4454 15.7172 32.0332 15.7172 28.9364C15.7172 28.8155 15.7653 28.6995 15.8508 28.614C15.9363 28.5285 16.0523 28.4805 16.1732 28.4805C16.2941 28.4805 16.4101 28.5285 16.4956 28.614C16.5811 28.6995 16.6291 28.8155 16.6291 28.9364C16.6328 31.9128 15.3197 32.9013 14.6558 33.1931V35.9543C14.6583 36.0155 14.6483 36.0766 14.6264 36.1339C14.6046 36.1911 14.5713 36.2433 14.5287 36.2873C14.4861 36.3313 14.4349 36.3662 14.3784 36.3898C14.3219 36.4135 14.2611 36.4254 14.1999 36.4248Z" fill="#171A1C"/>
<path d="M28.6224 29.3923H12.6205C12.4996 29.3923 12.3836 29.3443 12.2981 29.2588C12.2126 29.1733 12.1646 29.0573 12.1646 28.9364C12.1646 28.8155 12.2126 28.6995 12.2981 28.614C12.3836 28.5285 12.4996 28.4804 12.6205 28.4804H28.3707V0.912216H10.432L7.93707 3.42903V25.5332C7.93707 25.6541 7.88903 25.7701 7.80353 25.8556C7.71802 25.9411 7.60205 25.9892 7.48113 25.9892C7.3602 25.9892 7.24423 25.9411 7.15872 25.8556C7.07322 25.7701 7.02518 25.6541 7.02518 25.5332V3.3269C7.02429 3.24039 7.0406 3.15457 7.07316 3.07442C7.10572 2.99427 7.15388 2.92139 7.21485 2.86001L9.84839 0.197295C9.91101 0.132403 9.98653 0.0813503 10.0701 0.0474255C10.1536 0.0135007 10.2434 -0.00254337 10.3335 0.000327189H28.6224C28.7978 0.00129112 28.9657 0.0716581 29.0894 0.196051C29.2131 0.320443 29.2826 0.488747 29.2826 0.664182V28.7504C29.2778 28.9223 29.2062 29.0856 29.0829 29.2054C28.9596 29.3253 28.7943 29.3924 28.6224 29.3923Z" fill="#171A1C"/>
<path d="M10.4466 4.15488H7.48109C7.36017 4.15488 7.2442 4.10684 7.15869 4.02134C7.07318 3.93583 7.02515 3.81986 7.02515 3.69894C7.02515 3.57801 7.07318 3.46204 7.15869 3.37654C7.2442 3.29103 7.36017 3.24299 7.48109 3.24299H10.2788V0.474499C10.2788 0.353575 10.3268 0.237604 10.4123 0.152098C10.4978 0.0665915 10.6138 0.0185547 10.7347 0.0185547C10.8556 0.0185547 10.9716 0.0665915 11.0571 0.152098C11.1426 0.237604 11.1907 0.353575 11.1907 0.474499V3.39254C11.1952 3.49231 11.1792 3.59194 11.1436 3.68527C11.108 3.77859 11.0537 3.86362 10.9839 3.93509C10.9142 4.00656 10.8305 4.06294 10.7381 4.10075C10.6456 4.13856 10.5464 4.15698 10.4466 4.15488Z" fill="#171A1C"/>
<path d="M17.1653 9.26516H10.8405C10.7195 9.26516 10.6036 9.21712 10.5181 9.13162C10.4326 9.04611 10.3845 8.93014 10.3845 8.80922C10.3845 8.68829 10.4326 8.57232 10.5181 8.48681C10.6036 8.40131 10.7195 8.35327 10.8405 8.35327H17.1653C17.2863 8.35327 17.4022 8.40131 17.4877 8.48681C17.5732 8.57232 17.6213 8.68829 17.6213 8.80922C17.6213 8.93014 17.5732 9.04611 17.4877 9.13162C17.4022 9.21712 17.2863 9.26516 17.1653 9.26516Z" fill="#171A1C"/>
<path d="M17.3623 14.7656H11.0375C10.9166 14.7656 10.8006 14.7176 10.7151 14.6321C10.6296 14.5466 10.5815 14.4306 10.5815 14.3097C10.5815 14.1888 10.6296 14.0728 10.7151 13.9873C10.8006 13.9018 10.9166 13.8538 11.0375 13.8538H17.3623C17.4833 13.8538 17.5992 13.9018 17.6847 13.9873C17.7703 14.0728 17.8183 14.1888 17.8183 14.3097C17.8183 14.4306 17.7703 14.5466 17.6847 14.6321C17.5992 14.7176 17.4833 14.7656 17.3623 14.7656Z" fill="#171A1C"/>
<path d="M17.3623 17.5341H11.0375C10.9166 17.5341 10.8006 17.486 10.7151 17.4005C10.6296 17.315 10.5815 17.1991 10.5815 17.0781C10.5815 16.9572 10.6296 16.8412 10.7151 16.7557C10.8006 16.6702 10.9166 16.6222 11.0375 16.6222H17.3623C17.4833 16.6222 17.5992 16.6702 17.6847 16.7557C17.7703 16.8412 17.8183 16.9572 17.8183 17.0781C17.8183 17.1991 17.7703 17.315 17.6847 17.4005C17.5992 17.486 17.4833 17.5341 17.3623 17.5341Z" fill="#171A1C"/>
<path d="M15.1884 12.0373H11.0375C10.9166 12.0373 10.8006 11.9892 10.7151 11.9037C10.6296 11.8182 10.5815 11.7022 10.5815 11.5813C10.5815 11.4604 10.6296 11.3444 10.7151 11.2589C10.8006 11.1734 10.9166 11.1254 11.0375 11.1254H15.1884C15.3093 11.1254 15.4253 11.1734 15.5108 11.2589C15.5963 11.3444 15.6443 11.4604 15.6443 11.5813C15.6443 11.7022 15.5963 11.8182 15.5108 11.9037C15.4253 11.9892 15.3093 12.0373 15.1884 12.0373Z" fill="#171A1C"/>
<path d="M22.3047 10.5965C22.1756 10.5972 22.0513 10.5474 21.9582 10.4579L19.8098 8.30584C19.7674 8.26369 19.7337 8.2136 19.7107 8.15843C19.6877 8.10327 19.6757 8.04411 19.6755 7.98432C19.6754 7.92454 19.687 7.86531 19.7097 7.81002C19.7324 7.75472 19.7658 7.70444 19.808 7.66205C19.8501 7.61966 19.9002 7.58598 19.9554 7.56295C20.0105 7.53992 20.0697 7.52797 20.1295 7.5278C20.1893 7.52763 20.2485 7.53924 20.3038 7.56196C20.3591 7.58468 20.4094 7.61807 20.4518 7.66023L22.3047 9.50954L25.9523 5.88022C25.9937 5.8341 26.0442 5.79693 26.1005 5.77097C26.1568 5.74502 26.2179 5.73083 26.2799 5.72927C26.3419 5.72771 26.4035 5.73882 26.4611 5.76192C26.5187 5.78501 26.5709 5.8196 26.6146 5.86358C26.6584 5.90756 26.6927 5.96 26.7154 6.01769C26.7382 6.07538 26.7489 6.13711 26.747 6.1991C26.7451 6.26109 26.7306 6.32204 26.7043 6.37822C26.678 6.4344 26.6406 6.48463 26.5942 6.52584L22.6549 10.4543C22.5609 10.545 22.4354 10.596 22.3047 10.5965Z" fill="#171A1C"/>
<path d="M22.3047 16.9213C22.2404 16.9219 22.1765 16.9097 22.117 16.8852C22.0575 16.8608 22.0035 16.8247 21.9582 16.779L19.8098 14.6306C19.7634 14.5894 19.7259 14.5392 19.6997 14.483C19.6734 14.4268 19.6589 14.3659 19.657 14.3039C19.655 14.2419 19.6658 14.1802 19.6886 14.1225C19.7113 14.0648 19.7456 14.0123 19.7894 13.9684C19.8331 13.9244 19.8853 13.8898 19.9429 13.8667C20.0005 13.8436 20.0621 13.8325 20.1241 13.834C20.1861 13.8356 20.2472 13.8498 20.3035 13.8757C20.3598 13.9017 20.4103 13.9389 20.4517 13.985L22.3047 15.838L25.9522 12.1904C25.9937 12.1443 26.0441 12.1071 26.1005 12.0812C26.1568 12.0552 26.2178 12.041 26.2798 12.0395C26.3418 12.0379 26.4035 12.049 26.4611 12.0721C26.5186 12.0952 26.5709 12.1298 26.6146 12.1738C26.6583 12.2177 26.6926 12.2702 26.7154 12.3279C26.7382 12.3856 26.7489 12.4473 26.747 12.5093C26.7451 12.5713 26.7306 12.6322 26.7043 12.6884C26.678 12.7446 26.6406 12.7948 26.5942 12.836L22.6548 16.779C22.5608 16.8698 22.4354 16.9208 22.3047 16.9213Z" fill="#171A1C"/>
<path d="M22.3046 24.0414C22.2372 24.0428 22.1701 24.0305 22.1074 24.0055C22.0448 23.9804 21.9878 23.943 21.9399 23.8955L19.7951 21.7507C19.7172 21.6641 19.6754 21.5509 19.6784 21.4344C19.6813 21.3179 19.7287 21.207 19.8109 21.1244C19.893 21.0418 20.0037 20.9937 20.1201 20.9901C20.2366 20.9866 20.35 21.0277 20.4371 21.1051L22.2901 22.9544L25.9376 19.3069C25.9791 19.2607 26.0295 19.2236 26.0858 19.1976C26.1422 19.1717 26.2032 19.1575 26.2652 19.1559C26.3272 19.1543 26.3889 19.1655 26.4464 19.1886C26.504 19.2116 26.5562 19.2462 26.6 19.2902C26.6437 19.3342 26.678 19.3866 26.7008 19.4443C26.7235 19.502 26.7343 19.5637 26.7324 19.6257C26.7305 19.6877 26.7159 19.7487 26.6897 19.8049C26.6634 19.861 26.6259 19.9113 26.5796 19.9525L22.6548 23.8955C22.562 23.9886 22.4361 24.0411 22.3046 24.0414Z" fill="#171A1C"/>
<path d="M31.5441 36.4248H0.455944C0.33502 36.4248 0.219049 36.3768 0.133543 36.2913C0.0480369 36.2058 0 36.0898 0 35.9689C0 35.848 0.0480369 35.732 0.133543 35.6465C0.219049 35.561 0.33502 35.5129 0.455944 35.5129H31.5441C31.665 35.5129 31.7809 35.561 31.8665 35.6465C31.952 35.732 32 35.848 32 35.9689C32 36.0898 31.952 36.2058 31.8665 36.2913C31.7809 36.3768 31.665 36.4248 31.5441 36.4248Z" fill="#171A1C"/>
</svg>
