<svg width="32" height="32" viewBox="0 0 32 32" fill="none" xmlns="http://www.w3.org/2000/svg">
<path d="M7.61499 15.7981C11.006 15.7981 13.7549 13.0492 13.7549 9.6582C13.7549 6.26723 11.006 3.51831 7.61499 3.51831C4.22402 3.51831 1.4751 6.26723 1.4751 9.6582C1.4751 13.0492 4.22402 15.7981 7.61499 15.7981Z" fill="#FF8338"/>
<path d="M14.7303 15.7433H0.379883V31.0348H14.7303V15.7433Z" fill="#FF8338"/>
<path d="M14.7302 21.493L14.8158 31.0349H26.8492L26.9518 21.5615L14.7302 21.493Z" fill="#FF8338"/>
<path d="M26.9518 25.6685V21.5615L14.7302 21.4931V15.8289L9.75391 15.7434L13.1764 12.6631L13.8266 8.21394L11.7868 5.24325L11.383 4.79148L11.6157 0.602393L31.5036 0.434692V18.4813L31.6063 26.0689L26.9518 25.6685Z" fill="#FFA670"/>
<path d="M15.2299 31.6578H0V27.7219H15.2299V31.6578ZM0.855615 30.8021H14.3743V28.5775H0.855615V30.8021Z" fill="#171A1C"/>
<path d="M2.48127 31.6577C2.36781 31.6577 2.259 31.6126 2.17877 31.5324C2.09854 31.4522 2.05347 31.3434 2.05347 31.2299V29.8609C2.05347 29.7475 2.09854 29.6386 2.17877 29.5584C2.259 29.4782 2.36781 29.4331 2.48127 29.4331C2.59474 29.4331 2.70355 29.4782 2.78378 29.5584C2.86401 29.6386 2.90908 29.7475 2.90908 29.8609V31.2299C2.90908 31.3434 2.86401 31.4522 2.78378 31.5324C2.70355 31.6126 2.59474 31.6577 2.48127 31.6577Z" fill="#171A1C"/>
<path d="M4.53474 31.6577C4.42128 31.6577 4.31246 31.6126 4.23224 31.5324C4.15201 31.4522 4.10693 31.3434 4.10693 31.2299V29.8609C4.10693 29.7475 4.15201 29.6386 4.23224 29.5584C4.31246 29.4782 4.42128 29.4331 4.53474 29.4331C4.6482 29.4331 4.75702 29.4782 4.83725 29.5584C4.91748 29.6386 4.96255 29.7475 4.96255 29.8609V31.2299C4.96255 31.3434 4.91748 31.4522 4.83725 31.5324C4.75702 31.6126 4.6482 31.6577 4.53474 31.6577Z" fill="#171A1C"/>
<path d="M6.58821 31.6577C6.47475 31.6577 6.36593 31.6126 6.2857 31.5324C6.20547 31.4522 6.1604 31.3434 6.1604 31.2299V29.8609C6.1604 29.7475 6.20547 29.6386 6.2857 29.5584C6.36593 29.4782 6.47475 29.4331 6.58821 29.4331C6.70167 29.4331 6.81048 29.4782 6.89071 29.5584C6.97094 29.6386 7.01602 29.7475 7.01602 29.8609V31.2299C7.01602 31.2861 7.00495 31.3417 6.98345 31.3936C6.96195 31.4455 6.93044 31.4927 6.89071 31.5324C6.85099 31.5721 6.80383 31.6036 6.75192 31.6251C6.70002 31.6466 6.64439 31.6577 6.58821 31.6577Z" fill="#171A1C"/>
<path d="M8.64167 31.6577C8.52821 31.6577 8.4194 31.6126 8.33917 31.5324C8.25894 31.4522 8.21387 31.3434 8.21387 31.2299V29.8609C8.21387 29.7475 8.25894 29.6386 8.33917 29.5584C8.4194 29.4782 8.52821 29.4331 8.64167 29.4331C8.75514 29.4331 8.86395 29.4782 8.94418 29.5584C9.02441 29.6386 9.06948 29.7475 9.06948 29.8609V31.2299C9.06948 31.3434 9.02441 31.4522 8.94418 31.5324C8.86395 31.6126 8.75514 31.6577 8.64167 31.6577Z" fill="#171A1C"/>
<path d="M10.6951 31.6577C10.5817 31.6577 10.4729 31.6126 10.3926 31.5324C10.3124 31.4522 10.2673 31.3434 10.2673 31.2299V29.8609C10.2673 29.7475 10.3124 29.6386 10.3926 29.5584C10.4729 29.4782 10.5817 29.4331 10.6951 29.4331C10.8086 29.4331 10.9174 29.4782 10.9976 29.5584C11.0779 29.6386 11.1229 29.7475 11.1229 29.8609V31.2299C11.1229 31.3434 11.0779 31.4522 10.9976 31.5324C10.9174 31.6126 10.8086 31.6577 10.6951 31.6577Z" fill="#171A1C"/>
<path d="M12.7486 31.6577C12.6351 31.6577 12.5263 31.6126 12.4461 31.5324C12.3659 31.4522 12.3208 31.3434 12.3208 31.2299V29.8609C12.3208 29.7475 12.3659 29.6386 12.4461 29.5584C12.5263 29.4782 12.6351 29.4331 12.7486 29.4331C12.8621 29.4331 12.9709 29.4782 13.0511 29.5584C13.1313 29.6386 13.1764 29.7475 13.1764 29.8609V31.2299C13.1764 31.3434 13.1313 31.4522 13.0511 31.5324C12.9709 31.6126 12.8621 31.6577 12.7486 31.6577Z" fill="#171A1C"/>
<path d="M15.2299 28.5776H0V24.6417H15.2299V28.5776ZM0.855615 27.7219H14.3743V25.4973H0.855615V27.7219Z" fill="#171A1C"/>
<path d="M2.48127 28.5775C2.36781 28.5775 2.259 28.5324 2.17877 28.4522C2.09854 28.372 2.05347 28.2632 2.05347 28.1497V26.7807C2.05347 26.6673 2.09854 26.5584 2.17877 26.4782C2.259 26.398 2.36781 26.3529 2.48127 26.3529C2.59474 26.3529 2.70355 26.398 2.78378 26.4782C2.86401 26.5584 2.90908 26.6673 2.90908 26.7807V28.1497C2.90908 28.2632 2.86401 28.372 2.78378 28.4522C2.70355 28.5324 2.59474 28.5775 2.48127 28.5775Z" fill="#171A1C"/>
<path d="M4.53474 28.5775C4.42128 28.5775 4.31246 28.5324 4.23224 28.4522C4.15201 28.372 4.10693 28.2632 4.10693 28.1497V26.7807C4.10693 26.6673 4.15201 26.5584 4.23224 26.4782C4.31246 26.398 4.42128 26.3529 4.53474 26.3529C4.6482 26.3529 4.75702 26.398 4.83725 26.4782C4.91748 26.5584 4.96255 26.6673 4.96255 26.7807V28.1497C4.96255 28.2632 4.91748 28.372 4.83725 28.4522C4.75702 28.5324 4.6482 28.5775 4.53474 28.5775Z" fill="#171A1C"/>
<path d="M6.58821 28.5775C6.47475 28.5775 6.36593 28.5324 6.2857 28.4522C6.20547 28.372 6.1604 28.2632 6.1604 28.1497V26.7807C6.1604 26.6673 6.20547 26.5584 6.2857 26.4782C6.36593 26.398 6.47475 26.3529 6.58821 26.3529C6.70167 26.3529 6.81048 26.398 6.89071 26.4782C6.97094 26.5584 7.01602 26.6673 7.01602 26.7807V28.1497C7.01602 28.2059 7.00495 28.2615 6.98345 28.3134C6.96195 28.3653 6.93044 28.4125 6.89071 28.4522C6.85099 28.4919 6.80383 28.5234 6.75192 28.5449C6.70002 28.5664 6.64439 28.5775 6.58821 28.5775Z" fill="#171A1C"/>
<path d="M8.64167 28.5775C8.52821 28.5775 8.4194 28.5324 8.33917 28.4522C8.25894 28.372 8.21387 28.2632 8.21387 28.1497V26.7807C8.21387 26.6673 8.25894 26.5584 8.33917 26.4782C8.4194 26.398 8.52821 26.3529 8.64167 26.3529C8.75514 26.3529 8.86395 26.398 8.94418 26.4782C9.02441 26.5584 9.06948 26.6673 9.06948 26.7807V28.1497C9.06948 28.2632 9.02441 28.372 8.94418 28.4522C8.86395 28.5324 8.75514 28.5775 8.64167 28.5775Z" fill="#171A1C"/>
<path d="M10.6951 28.5775C10.5817 28.5775 10.4729 28.5324 10.3926 28.4522C10.3124 28.372 10.2673 28.2632 10.2673 28.1497V26.7807C10.2673 26.6673 10.3124 26.5584 10.3926 26.4782C10.4729 26.398 10.5817 26.3529 10.6951 26.3529C10.8086 26.3529 10.9174 26.398 10.9976 26.4782C11.0779 26.5584 11.1229 26.6673 11.1229 26.7807V28.1497C11.1229 28.2632 11.0779 28.372 10.9976 28.4522C10.9174 28.5324 10.8086 28.5775 10.6951 28.5775Z" fill="#171A1C"/>
<path d="M12.7486 28.5775C12.6351 28.5775 12.5263 28.5324 12.4461 28.4522C12.3659 28.372 12.3208 28.2632 12.3208 28.1497V26.7807C12.3208 26.6673 12.3659 26.5584 12.4461 26.4782C12.5263 26.398 12.6351 26.3529 12.7486 26.3529C12.8621 26.3529 12.9709 26.398 13.0511 26.4782C13.1313 26.5584 13.1764 26.6673 13.1764 26.7807V28.1497C13.1764 28.2632 13.1313 28.372 13.0511 28.4522C12.9709 28.5324 12.8621 28.5775 12.7486 28.5775Z" fill="#171A1C"/>
<path d="M15.2299 25.4974H0V21.5615H15.2299V25.4974ZM0.855615 24.6417H14.3743V22.4171H0.855615V24.6417Z" fill="#171A1C"/>
<path d="M2.48127 25.4973C2.36781 25.4973 2.259 25.4522 2.17877 25.372C2.09854 25.2918 2.05347 25.183 2.05347 25.0695V23.7005C2.05347 23.5871 2.09854 23.4782 2.17877 23.398C2.259 23.3178 2.36781 23.2727 2.48127 23.2727C2.59474 23.2727 2.70355 23.3178 2.78378 23.398C2.86401 23.4782 2.90908 23.5871 2.90908 23.7005V25.0695C2.90908 25.183 2.86401 25.2918 2.78378 25.372C2.70355 25.4522 2.59474 25.4973 2.48127 25.4973Z" fill="#171A1C"/>
<path d="M4.53474 25.4973C4.42128 25.4973 4.31246 25.4522 4.23224 25.372C4.15201 25.2918 4.10693 25.183 4.10693 25.0695V23.7005C4.10693 23.5871 4.15201 23.4782 4.23224 23.398C4.31246 23.3178 4.42128 23.2727 4.53474 23.2727C4.6482 23.2727 4.75702 23.3178 4.83725 23.398C4.91748 23.4782 4.96255 23.5871 4.96255 23.7005V25.0695C4.96255 25.183 4.91748 25.2918 4.83725 25.372C4.75702 25.4522 4.6482 25.4973 4.53474 25.4973Z" fill="#171A1C"/>
<path d="M6.58821 25.4973C6.47475 25.4973 6.36593 25.4522 6.2857 25.372C6.20547 25.2918 6.1604 25.183 6.1604 25.0695V23.7005C6.1604 23.5871 6.20547 23.4782 6.2857 23.398C6.36593 23.3178 6.47475 23.2727 6.58821 23.2727C6.70167 23.2727 6.81048 23.3178 6.89071 23.398C6.97094 23.4782 7.01602 23.5871 7.01602 23.7005V25.0695C7.01602 25.1257 7.00495 25.1813 6.98345 25.2332C6.96195 25.2851 6.93044 25.3323 6.89071 25.372C6.85099 25.4117 6.80383 25.4432 6.75192 25.4647C6.70002 25.4862 6.64439 25.4973 6.58821 25.4973Z" fill="#171A1C"/>
<path d="M8.64167 25.4973C8.52821 25.4973 8.4194 25.4522 8.33917 25.372C8.25894 25.2918 8.21387 25.183 8.21387 25.0695V23.7005C8.21387 23.5871 8.25894 23.4782 8.33917 23.398C8.4194 23.3178 8.52821 23.2727 8.64167 23.2727C8.75514 23.2727 8.86395 23.3178 8.94418 23.398C9.02441 23.4782 9.06948 23.5871 9.06948 23.7005V25.0695C9.06948 25.183 9.02441 25.2918 8.94418 25.372C8.86395 25.4522 8.75514 25.4973 8.64167 25.4973Z" fill="#171A1C"/>
<path d="M10.6951 25.4973C10.5817 25.4973 10.4729 25.4522 10.3926 25.372C10.3124 25.2918 10.2673 25.183 10.2673 25.0695V23.7005C10.2673 23.5871 10.3124 23.4782 10.3926 23.398C10.4729 23.3178 10.5817 23.2727 10.6951 23.2727C10.8086 23.2727 10.9174 23.3178 10.9976 23.398C11.0779 23.4782 11.1229 23.5871 11.1229 23.7005V25.0695C11.1229 25.183 11.0779 25.2918 10.9976 25.372C10.9174 25.4522 10.8086 25.4973 10.6951 25.4973Z" fill="#171A1C"/>
<path d="M12.7486 25.4973C12.6351 25.4973 12.5263 25.4522 12.4461 25.372C12.3659 25.2918 12.3208 25.183 12.3208 25.0695V23.7005C12.3208 23.5871 12.3659 23.4782 12.4461 23.398C12.5263 23.3178 12.6351 23.2727 12.7486 23.2727C12.8621 23.2727 12.9709 23.3178 13.0511 23.398C13.1313 23.4782 13.1764 23.5871 13.1764 23.7005V25.0695C13.1764 25.183 13.1313 25.2918 13.0511 25.372C12.9709 25.4522 12.8621 25.4973 12.7486 25.4973Z" fill="#171A1C"/>
<path d="M15.2299 22.4172H0V18.4813H15.2299V22.4172ZM0.855615 21.5615H14.3743V19.3369H0.855615V21.5615Z" fill="#171A1C"/>
<path d="M2.48127 22.4171C2.36781 22.4171 2.259 22.372 2.17877 22.2918C2.09854 22.2116 2.05347 22.1028 2.05347 21.9893V20.6203C2.05347 20.5069 2.09854 20.398 2.17877 20.3178C2.259 20.2376 2.36781 20.1925 2.48127 20.1925C2.59474 20.1925 2.70355 20.2376 2.78378 20.3178C2.86401 20.398 2.90908 20.5069 2.90908 20.6203V21.9893C2.90908 22.1028 2.86401 22.2116 2.78378 22.2918C2.70355 22.372 2.59474 22.4171 2.48127 22.4171Z" fill="#171A1C"/>
<path d="M4.53474 22.4171C4.42128 22.4171 4.31246 22.372 4.23224 22.2918C4.15201 22.2116 4.10693 22.1028 4.10693 21.9893V20.6203C4.10693 20.5069 4.15201 20.398 4.23224 20.3178C4.31246 20.2376 4.42128 20.1925 4.53474 20.1925C4.6482 20.1925 4.75702 20.2376 4.83725 20.3178C4.91748 20.398 4.96255 20.5069 4.96255 20.6203V21.9893C4.96255 22.1028 4.91748 22.2116 4.83725 22.2918C4.75702 22.372 4.6482 22.4171 4.53474 22.4171Z" fill="#171A1C"/>
<path d="M6.58821 22.4171C6.47475 22.4171 6.36593 22.372 6.2857 22.2918C6.20547 22.2116 6.1604 22.1028 6.1604 21.9893V20.6203C6.1604 20.5069 6.20547 20.398 6.2857 20.3178C6.36593 20.2376 6.47475 20.1925 6.58821 20.1925C6.70167 20.1925 6.81048 20.2376 6.89071 20.3178C6.97094 20.398 7.01602 20.5069 7.01602 20.6203V21.9893C7.01602 22.0455 7.00495 22.1011 6.98345 22.153C6.96195 22.2049 6.93044 22.2521 6.89071 22.2918C6.85099 22.3315 6.80383 22.363 6.75192 22.3845C6.70002 22.406 6.64439 22.4171 6.58821 22.4171Z" fill="#171A1C"/>
<path d="M8.64167 22.4171C8.52821 22.4171 8.4194 22.372 8.33917 22.2918C8.25894 22.2116 8.21387 22.1028 8.21387 21.9893V20.6203C8.21387 20.5069 8.25894 20.398 8.33917 20.3178C8.4194 20.2376 8.52821 20.1925 8.64167 20.1925C8.75514 20.1925 8.86395 20.2376 8.94418 20.3178C9.02441 20.398 9.06948 20.5069 9.06948 20.6203V21.9893C9.06948 22.1028 9.02441 22.2116 8.94418 22.2918C8.86395 22.372 8.75514 22.4171 8.64167 22.4171Z" fill="#171A1C"/>
<path d="M10.6951 22.4171C10.5817 22.4171 10.4729 22.372 10.3926 22.2918C10.3124 22.2116 10.2673 22.1028 10.2673 21.9893V20.6203C10.2673 20.5069 10.3124 20.398 10.3926 20.3178C10.4729 20.2376 10.5817 20.1925 10.6951 20.1925C10.8086 20.1925 10.9174 20.2376 10.9976 20.3178C11.0779 20.398 11.1229 20.5069 11.1229 20.6203V21.9893C11.1229 22.1028 11.0779 22.2116 10.9976 22.2918C10.9174 22.372 10.8086 22.4171 10.6951 22.4171Z" fill="#171A1C"/>
<path d="M12.7486 22.4171C12.6351 22.4171 12.5263 22.372 12.4461 22.2918C12.3659 22.2116 12.3208 22.1028 12.3208 21.9893V20.6203C12.3208 20.5069 12.3659 20.398 12.4461 20.3178C12.5263 20.2376 12.6351 20.1925 12.7486 20.1925C12.8621 20.1925 12.9709 20.2376 13.0511 20.3178C13.1313 20.398 13.1764 20.5069 13.1764 20.6203V21.9893C13.1764 22.1028 13.1313 22.2116 13.0511 22.2918C12.9709 22.372 12.8621 22.4171 12.7486 22.4171Z" fill="#171A1C"/>
<path d="M15.2299 19.337H0V15.4011H15.2299V19.337ZM0.855615 18.4813H14.3743V16.2567H0.855615V18.4813Z" fill="#171A1C"/>
<path d="M2.48127 19.3369C2.36781 19.3369 2.259 19.2918 2.17877 19.2116C2.09854 19.1314 2.05347 19.0226 2.05347 18.9091V17.5401C2.05347 17.4267 2.09854 17.3178 2.17877 17.2376C2.259 17.1574 2.36781 17.1123 2.48127 17.1123C2.59474 17.1123 2.70355 17.1574 2.78378 17.2376C2.86401 17.3178 2.90908 17.4267 2.90908 17.5401V18.9091C2.90908 19.0226 2.86401 19.1314 2.78378 19.2116C2.70355 19.2918 2.59474 19.3369 2.48127 19.3369Z" fill="#171A1C"/>
<path d="M4.53474 19.3369C4.42128 19.3369 4.31246 19.2918 4.23224 19.2116C4.15201 19.1314 4.10693 19.0226 4.10693 18.9091V17.5401C4.10693 17.4267 4.15201 17.3178 4.23224 17.2376C4.31246 17.1574 4.42128 17.1123 4.53474 17.1123C4.6482 17.1123 4.75702 17.1574 4.83725 17.2376C4.91748 17.3178 4.96255 17.4267 4.96255 17.5401V18.9091C4.96255 19.0226 4.91748 19.1314 4.83725 19.2116C4.75702 19.2918 4.6482 19.3369 4.53474 19.3369Z" fill="#171A1C"/>
<path d="M6.58821 19.3369C6.47475 19.3369 6.36593 19.2918 6.2857 19.2116C6.20547 19.1314 6.1604 19.0226 6.1604 18.9091V17.5401C6.1604 17.4267 6.20547 17.3178 6.2857 17.2376C6.36593 17.1574 6.47475 17.1123 6.58821 17.1123C6.70167 17.1123 6.81048 17.1574 6.89071 17.2376C6.97094 17.3178 7.01602 17.4267 7.01602 17.5401V18.9091C7.01602 18.9653 7.00495 19.0209 6.98345 19.0728C6.96195 19.1247 6.93044 19.1719 6.89071 19.2116C6.85099 19.2513 6.80383 19.2828 6.75192 19.3043C6.70002 19.3258 6.64439 19.3369 6.58821 19.3369Z" fill="#171A1C"/>
<path d="M8.64167 19.3369C8.52821 19.3369 8.4194 19.2918 8.33917 19.2116C8.25894 19.1314 8.21387 19.0226 8.21387 18.9091V17.5401C8.21387 17.4267 8.25894 17.3178 8.33917 17.2376C8.4194 17.1574 8.52821 17.1123 8.64167 17.1123C8.75514 17.1123 8.86395 17.1574 8.94418 17.2376C9.02441 17.3178 9.06948 17.4267 9.06948 17.5401V18.9091C9.06948 19.0226 9.02441 19.1314 8.94418 19.2116C8.86395 19.2918 8.75514 19.3369 8.64167 19.3369Z" fill="#171A1C"/>
<path d="M10.6951 19.3369C10.5817 19.3369 10.4729 19.2918 10.3926 19.2116C10.3124 19.1314 10.2673 19.0226 10.2673 18.9091V17.5401C10.2673 17.4267 10.3124 17.3178 10.3926 17.2376C10.4729 17.1574 10.5817 17.1123 10.6951 17.1123C10.8086 17.1123 10.9174 17.1574 10.9976 17.2376C11.0779 17.3178 11.1229 17.4267 11.1229 17.5401V18.9091C11.1229 19.0226 11.0779 19.1314 10.9976 19.2116C10.9174 19.2918 10.8086 19.3369 10.6951 19.3369Z" fill="#171A1C"/>
<path d="M12.7486 19.3369C12.6351 19.3369 12.5263 19.2918 12.4461 19.2116C12.3659 19.1314 12.3208 19.0226 12.3208 18.9091V17.5401C12.3208 17.4267 12.3659 17.3178 12.4461 17.2376C12.5263 17.1574 12.6351 17.1123 12.7486 17.1123C12.8621 17.1123 12.9709 17.1574 13.0511 17.2376C13.1313 17.3178 13.1764 17.4267 13.1764 17.5401V18.9091C13.1764 19.0226 13.1313 19.1314 13.0511 19.2116C12.9709 19.2918 12.8621 19.3369 12.7486 19.3369Z" fill="#171A1C"/>
<path d="M27.3796 31.6578H14.3743V27.7219H27.3796V31.6578ZM15.2299 30.8021H26.524V28.5775H15.2299V30.8021Z" fill="#171A1C"/>
<path d="M16.8555 31.6577C16.7421 31.6577 16.6333 31.6126 16.553 31.5324C16.4728 31.4522 16.4277 31.3434 16.4277 31.2299V29.8609C16.4277 29.7475 16.4728 29.6386 16.553 29.5584C16.6333 29.4782 16.7421 29.4331 16.8555 29.4331C16.969 29.4331 17.0778 29.4782 17.158 29.5584C17.2383 29.6386 17.2833 29.7475 17.2833 29.8609V31.2299C17.2833 31.3434 17.2383 31.4522 17.158 31.5324C17.0778 31.6126 16.969 31.6577 16.8555 31.6577Z" fill="#171A1C"/>
<path d="M18.909 31.6577C18.7955 31.6577 18.6867 31.6126 18.6065 31.5324C18.5263 31.4522 18.4812 31.3434 18.4812 31.2299V29.8609C18.4812 29.7475 18.5263 29.6386 18.6065 29.5584C18.6867 29.4782 18.7955 29.4331 18.909 29.4331C19.0225 29.4331 19.1313 29.4782 19.2115 29.5584C19.2917 29.6386 19.3368 29.7475 19.3368 29.8609V31.2299C19.3368 31.3434 19.2917 31.4522 19.2115 31.5324C19.1313 31.6126 19.0225 31.6577 18.909 31.6577Z" fill="#171A1C"/>
<path d="M20.9625 31.6577C20.849 31.6577 20.7402 31.6126 20.66 31.5324C20.5797 31.4522 20.5347 31.3434 20.5347 31.2299V29.8609C20.5347 29.7475 20.5797 29.6386 20.66 29.5584C20.7402 29.4782 20.849 29.4331 20.9625 29.4331C21.0759 29.4331 21.1848 29.4782 21.265 29.5584C21.3452 29.6386 21.3903 29.7475 21.3903 29.8609V31.2299C21.3903 31.3434 21.3452 31.4522 21.265 31.5324C21.1848 31.6126 21.0759 31.6577 20.9625 31.6577Z" fill="#171A1C"/>
<path d="M23.0159 31.6577C22.9025 31.6577 22.7937 31.6126 22.7134 31.5324C22.6332 31.4522 22.5881 31.3434 22.5881 31.2299V29.8609C22.5881 29.7475 22.6332 29.6386 22.7134 29.5584C22.7937 29.4782 22.9025 29.4331 23.0159 29.4331C23.1294 29.4331 23.2382 29.4782 23.3184 29.5584C23.3987 29.6386 23.4437 29.7475 23.4437 29.8609V31.2299C23.4437 31.3434 23.3987 31.4522 23.3184 31.5324C23.2382 31.6126 23.1294 31.6577 23.0159 31.6577Z" fill="#171A1C"/>
<path d="M25.0694 31.6577C24.9559 31.6577 24.8471 31.6126 24.7669 31.5324C24.6867 31.4522 24.6416 31.3434 24.6416 31.2299V29.8609C24.6416 29.7475 24.6867 29.6386 24.7669 29.5584C24.8471 29.4782 24.9559 29.4331 25.0694 29.4331C25.1829 29.4331 25.2917 29.4782 25.3719 29.5584C25.4521 29.6386 25.4972 29.7475 25.4972 29.8609V31.2299C25.4972 31.3434 25.4521 31.4522 25.3719 31.5324C25.2917 31.6126 25.1829 31.6577 25.0694 31.6577Z" fill="#171A1C"/>
<path d="M27.3796 28.5776H14.3743V24.6417H27.3796V28.5776ZM15.2299 27.7219H26.524V25.4973H15.2299V27.7219Z" fill="#171A1C"/>
<path d="M16.8555 28.5775C16.7421 28.5775 16.6333 28.5324 16.553 28.4522C16.4728 28.372 16.4277 28.2632 16.4277 28.1497V26.7807C16.4277 26.6673 16.4728 26.5584 16.553 26.4782C16.6333 26.398 16.7421 26.3529 16.8555 26.3529C16.969 26.3529 17.0778 26.398 17.158 26.4782C17.2383 26.5584 17.2833 26.6673 17.2833 26.7807V28.1497C17.2833 28.2632 17.2383 28.372 17.158 28.4522C17.0778 28.5324 16.969 28.5775 16.8555 28.5775Z" fill="#171A1C"/>
<path d="M18.909 28.5775C18.7955 28.5775 18.6867 28.5324 18.6065 28.4522C18.5263 28.372 18.4812 28.2632 18.4812 28.1497V26.7807C18.4812 26.6673 18.5263 26.5584 18.6065 26.4782C18.6867 26.398 18.7955 26.3529 18.909 26.3529C19.0225 26.3529 19.1313 26.398 19.2115 26.4782C19.2917 26.5584 19.3368 26.6673 19.3368 26.7807V28.1497C19.3368 28.2632 19.2917 28.372 19.2115 28.4522C19.1313 28.5324 19.0225 28.5775 18.909 28.5775Z" fill="#171A1C"/>
<path d="M20.9625 28.5775C20.849 28.5775 20.7402 28.5324 20.66 28.4522C20.5797 28.372 20.5347 28.2632 20.5347 28.1497V26.7807C20.5347 26.6673 20.5797 26.5584 20.66 26.4782C20.7402 26.398 20.849 26.3529 20.9625 26.3529C21.0759 26.3529 21.1848 26.398 21.265 26.4782C21.3452 26.5584 21.3903 26.6673 21.3903 26.7807V28.1497C21.3903 28.2632 21.3452 28.372 21.265 28.4522C21.1848 28.5324 21.0759 28.5775 20.9625 28.5775Z" fill="#171A1C"/>
<path d="M23.0159 28.5775C22.9025 28.5775 22.7937 28.5324 22.7134 28.4522C22.6332 28.372 22.5881 28.2632 22.5881 28.1497V26.7807C22.5881 26.6673 22.6332 26.5584 22.7134 26.4782C22.7937 26.398 22.9025 26.3529 23.0159 26.3529C23.1294 26.3529 23.2382 26.398 23.3184 26.4782C23.3987 26.5584 23.4437 26.6673 23.4437 26.7807V28.1497C23.4437 28.2632 23.3987 28.372 23.3184 28.4522C23.2382 28.5324 23.1294 28.5775 23.0159 28.5775Z" fill="#171A1C"/>
<path d="M25.0694 28.5775C24.9559 28.5775 24.8471 28.5324 24.7669 28.4522C24.6867 28.372 24.6416 28.2632 24.6416 28.1497V26.7807C24.6416 26.6673 24.6867 26.5584 24.7669 26.4782C24.8471 26.398 24.9559 26.3529 25.0694 26.3529C25.1829 26.3529 25.2917 26.398 25.3719 26.4782C25.4521 26.5584 25.4972 26.6673 25.4972 26.7807V28.1497C25.4972 28.2632 25.4521 28.372 25.3719 28.4522C25.2917 28.5324 25.1829 28.5775 25.0694 28.5775Z" fill="#171A1C"/>
<path d="M27.3796 25.1551H14.3743V21.2192H27.3796V25.1551ZM15.2299 24.2995H26.524V22.0749H15.2299V24.2995Z" fill="#171A1C"/>
<path d="M16.8555 25.155C16.7421 25.155 16.6333 25.1099 16.553 25.0297C16.4728 24.9495 16.4277 24.8407 16.4277 24.7272V23.3582C16.4277 23.2448 16.4728 23.136 16.553 23.0557C16.6333 22.9755 16.7421 22.9304 16.8555 22.9304C16.969 22.9304 17.0778 22.9755 17.158 23.0557C17.2383 23.136 17.2833 23.2448 17.2833 23.3582V24.7272C17.2833 24.8407 17.2383 24.9495 17.158 25.0297C17.0778 25.1099 16.969 25.155 16.8555 25.155Z" fill="#171A1C"/>
<path d="M18.909 25.155C18.7955 25.155 18.6867 25.1099 18.6065 25.0297C18.5263 24.9495 18.4812 24.8407 18.4812 24.7272V23.3582C18.4812 23.2448 18.5263 23.136 18.6065 23.0557C18.6867 22.9755 18.7955 22.9304 18.909 22.9304C19.0225 22.9304 19.1313 22.9755 19.2115 23.0557C19.2917 23.136 19.3368 23.2448 19.3368 23.3582V24.7272C19.3368 24.8407 19.2917 24.9495 19.2115 25.0297C19.1313 25.1099 19.0225 25.155 18.909 25.155Z" fill="#171A1C"/>
<path d="M20.9625 25.155C20.849 25.155 20.7402 25.1099 20.66 25.0297C20.5797 24.9495 20.5347 24.8407 20.5347 24.7272V23.3582C20.5347 23.2448 20.5797 23.136 20.66 23.0557C20.7402 22.9755 20.849 22.9304 20.9625 22.9304C21.0759 22.9304 21.1848 22.9755 21.265 23.0557C21.3452 23.136 21.3903 23.2448 21.3903 23.3582V24.7272C21.3903 24.8407 21.3452 24.9495 21.265 25.0297C21.1848 25.1099 21.0759 25.155 20.9625 25.155Z" fill="#171A1C"/>
<path d="M23.0159 25.155C22.9025 25.155 22.7937 25.1099 22.7134 25.0297C22.6332 24.9495 22.5881 24.8407 22.5881 24.7272V23.3582C22.5881 23.2448 22.6332 23.136 22.7134 23.0557C22.7937 22.9755 22.9025 22.9304 23.0159 22.9304C23.1294 22.9304 23.2382 22.9755 23.3184 23.0557C23.3987 23.136 23.4437 23.2448 23.4437 23.3582V24.7272C23.4437 24.8407 23.3987 24.9495 23.3184 25.0297C23.2382 25.1099 23.1294 25.155 23.0159 25.155Z" fill="#171A1C"/>
<path d="M25.0694 25.155C24.9559 25.155 24.8471 25.1099 24.7669 25.0297C24.6867 24.9495 24.6416 24.8407 24.6416 24.7272V23.3582C24.6416 23.2448 24.6867 23.136 24.7669 23.0557C24.8471 22.9755 24.9559 22.9304 25.0694 22.9304C25.1829 22.9304 25.2917 22.9755 25.3719 23.0557C25.4521 23.136 25.4972 23.2448 25.4972 23.3582V24.7272C25.4972 24.8407 25.4521 24.9495 25.3719 25.0297C25.2917 25.1099 25.1829 25.155 25.0694 25.155Z" fill="#171A1C"/>
<path d="M7.62864 16.2601C7.1767 16.2592 6.72602 16.2122 6.28361 16.1198C4.90222 15.8348 3.64875 15.114 2.70762 14.0634C1.76649 13.0128 1.18738 11.6878 1.05549 10.2835C0.92359 8.87922 1.24587 7.46964 1.97492 6.26217C2.70397 5.0547 3.80129 4.11309 5.10546 3.57584C6.40963 3.0386 7.8518 2.9341 9.2198 3.2777C10.5878 3.62131 11.8094 4.39489 12.7049 5.48464C13.6004 6.57439 14.1226 7.92277 14.1945 9.33143C14.2665 10.7401 13.8844 12.1346 13.1046 13.31C12.5888 14.0328 11.9548 14.6634 11.2291 15.1752C10.1614 15.8824 8.90926 16.2597 7.62864 16.2601ZM7.60126 3.93926C6.70866 3.94162 5.82894 4.15239 5.03217 4.55478C4.23541 4.95716 3.54361 5.54005 3.0119 6.257C2.48018 6.97396 2.12323 7.80517 1.96948 8.68444C1.81573 9.56371 1.86944 10.4667 2.12631 11.3216C2.38318 12.1764 2.83612 12.9595 3.44906 13.6084C4.062 14.2573 4.818 14.754 5.65684 15.0592C6.49568 15.3643 7.39418 15.4693 8.28077 15.3659C9.16736 15.2624 10.0176 14.9534 10.7636 14.4633C11.3883 14.0109 11.936 13.4608 12.3859 12.8342C12.9574 11.9693 13.2839 10.9656 13.3305 9.9299C13.3772 8.89421 13.1422 7.86524 12.6507 6.95242C12.1592 6.0396 11.4295 5.27706 10.5391 4.74589C9.6488 4.21472 8.63116 3.93478 7.59442 3.93584L7.60126 3.93926Z" fill="#171A1C"/>
<path d="M7.61506 6.67386C7.5016 6.67386 7.39279 6.62878 7.31256 6.54856C7.23233 6.46833 7.18726 6.35951 7.18726 6.24605V5.21931C7.18726 5.10585 7.23233 4.99704 7.31256 4.91681C7.39279 4.83658 7.5016 4.7915 7.61506 4.7915C7.72852 4.7915 7.83734 4.83658 7.91757 4.91681C7.9978 4.99704 8.04287 5.10585 8.04287 5.21931V6.24605C8.04287 6.35951 7.9978 6.46833 7.91757 6.54856C7.83734 6.62878 7.72852 6.67386 7.61506 6.67386Z" fill="#171A1C"/>
<path d="M7.61164 14.7166C7.49877 14.7157 7.39084 14.6702 7.31135 14.5901C7.23185 14.5099 7.18725 14.4016 7.18726 14.2888V13.0909C7.18726 12.9774 7.23233 12.8686 7.31256 12.7884C7.39279 12.7082 7.5016 12.6631 7.61506 12.6631C7.72852 12.6631 7.83734 12.7082 7.91757 12.7884C7.9978 12.8686 8.04287 12.9774 8.04287 13.0909V14.2888C8.04287 14.3452 8.03169 14.4011 8.00998 14.4533C7.98827 14.5054 7.95645 14.5527 7.91636 14.5925C7.87627 14.6322 7.82871 14.6637 7.77641 14.685C7.72411 14.7063 7.66811 14.717 7.61164 14.7166Z" fill="#171A1C"/>
<path d="M7.43352 13.4435C6.92677 13.4555 6.43541 13.2688 6.06454 12.9232C5.86489 12.7207 5.70948 12.479 5.60815 12.2133C5.50682 11.9476 5.46178 11.6637 5.47588 11.3797C5.47588 11.2663 5.52095 11.1574 5.60118 11.0772C5.68141 10.997 5.79022 10.9519 5.90369 10.9519C6.01715 10.9519 6.12596 10.997 6.20619 11.0772C6.28642 11.1574 6.33149 11.2663 6.33149 11.3797C6.32209 11.549 6.34762 11.7184 6.4065 11.8773C6.46538 12.0363 6.55635 12.1815 6.67374 12.3038C6.88341 12.4933 7.15786 12.595 7.44037 12.5878C7.63899 12.5853 7.83507 12.5428 8.0169 12.4628C8.19873 12.3828 8.36257 12.267 8.49865 12.1223C8.63473 11.9776 8.74026 11.807 8.80893 11.6206C8.8776 11.4342 8.90801 11.2359 8.89834 11.0375C8.89834 10.5652 8.44315 10.3735 7.47459 10.0758C6.50604 9.77801 5.35951 9.42892 5.35951 8.18314C5.35607 8.11816 5.35607 8.05304 5.35951 7.98806C5.38876 7.39875 5.65058 6.84511 6.08751 6.44859C6.52445 6.05207 7.10083 5.84506 7.69021 5.87298C9.3193 5.87298 9.74368 7.24197 9.74368 7.95726C9.74368 8.07072 9.69861 8.17954 9.61838 8.25976C9.53815 8.33999 9.42934 8.38507 9.31588 8.38507C9.20242 8.38507 9.0936 8.33999 9.01337 8.25976C8.93314 8.17954 8.88807 8.07072 8.88807 7.95726C8.89692 7.79343 8.87123 7.62956 8.81266 7.4763C8.75409 7.32303 8.66395 7.1838 8.5481 7.06762C8.43224 6.95144 8.29326 6.86092 8.14016 6.80192C7.98706 6.74293 7.82326 6.71678 7.65941 6.72517C7.47819 6.71362 7.29648 6.73823 7.12487 6.79757C6.95325 6.85692 6.79516 6.94981 6.65979 7.07084C6.52442 7.19188 6.41449 7.33863 6.33638 7.50257C6.25828 7.6665 6.21357 7.84433 6.20486 8.02571C6.20144 8.07013 6.20144 8.11476 6.20486 8.15918C6.20486 8.73074 6.68743 8.93951 7.71417 9.25437C8.6177 9.53159 9.74368 9.87726 9.74368 11.0341C9.75279 11.3446 9.69999 11.6539 9.58836 11.9438C9.47673 12.2338 9.3085 12.4986 9.09348 12.7228C8.87845 12.9471 8.62094 13.1263 8.33595 13.25C8.05096 13.3738 7.74419 13.4395 7.43352 13.4435Z" fill="#171A1C"/>
<path d="M32.0001 26.5241H26.952C26.8385 26.5241 26.7297 26.479 26.6495 26.3988C26.5692 26.3185 26.5242 26.2097 26.5242 26.0963C26.5242 25.9828 26.5692 25.874 26.6495 25.7938C26.7297 25.7135 26.8385 25.6684 26.952 25.6684H31.1445V0.855615H11.9513V4.90781C11.9513 5.02127 11.9062 5.13008 11.826 5.21031C11.7458 5.29054 11.637 5.33562 11.5235 5.33562C11.41 5.33562 11.3012 5.29054 11.221 5.21031C11.1408 5.13008 11.0957 5.02127 11.0957 4.90781V0H32.0001V26.5241Z" fill="#171A1C"/>
<path d="M22.6736 21.0481C22.6175 21.0486 22.5618 21.0376 22.51 21.0158C22.4583 20.994 22.4115 20.9619 22.3725 20.9215C22.3327 20.8821 22.3012 20.8351 22.2797 20.7835C22.2581 20.7318 22.2471 20.6763 22.2471 20.6203C22.2471 20.5643 22.2581 20.5089 22.2797 20.4572C22.3012 20.4055 22.3327 20.3586 22.3725 20.3192L29.2174 13.4742C29.2973 13.3944 29.4056 13.3495 29.5186 13.3495C29.6315 13.3495 29.7399 13.3944 29.8197 13.4742C29.8996 13.5541 29.9445 13.6625 29.9445 13.7754C29.9445 13.8884 29.8996 13.9967 29.8197 14.0766L22.9748 20.9215C22.9358 20.9619 22.889 20.994 22.8372 21.0158C22.7855 21.0376 22.7298 21.0486 22.6736 21.0481Z" fill="#171A1C"/>
<path d="M24.2138 16.5989C23.8923 16.5989 23.578 16.5035 23.3106 16.3249C23.0433 16.1463 22.8349 15.8924 22.7119 15.5953C22.5888 15.2983 22.5566 14.9714 22.6194 14.6561C22.6821 14.3407 22.8369 14.051 23.0643 13.8237C23.2916 13.5963 23.5813 13.4415 23.8967 13.3788C24.212 13.316 24.5389 13.3482 24.8359 13.4713C25.133 13.5943 25.3869 13.8027 25.5655 14.07C25.7441 14.3374 25.8395 14.6517 25.8395 14.9732C25.8395 15.4044 25.6682 15.8179 25.3633 16.1227C25.0585 16.4276 24.645 16.5989 24.2138 16.5989ZM24.2138 14.2031C24.0615 14.2031 23.9126 14.2483 23.786 14.3329C23.6594 14.4175 23.5607 14.5378 23.5024 14.6785C23.4441 14.8192 23.4288 14.9741 23.4585 15.1234C23.4883 15.2728 23.5616 15.41 23.6693 15.5177C23.777 15.6254 23.9142 15.6987 24.0636 15.7285C24.213 15.7582 24.3678 15.7429 24.5085 15.6846C24.6492 15.6264 24.7695 15.5277 24.8541 15.401C24.9387 15.2744 24.9839 15.1255 24.9839 14.9732C24.9839 14.769 24.9027 14.5731 24.7583 14.4287C24.6139 14.2843 24.418 14.2031 24.2138 14.2031Z" fill="#171A1C"/>
<path d="M28.1498 20.5348C27.8283 20.5348 27.514 20.4394 27.2467 20.2608C26.9793 20.0822 26.771 19.8283 26.6479 19.5312C26.5249 19.2342 26.4927 18.9073 26.5554 18.592C26.6181 18.2766 26.773 17.9869 27.0003 17.7596C27.2277 17.5322 27.5173 17.3774 27.8327 17.3147C28.148 17.252 28.4749 17.2842 28.772 17.4072C29.069 17.5302 29.3229 17.7386 29.5015 18.0059C29.6802 18.2733 29.7755 18.5876 29.7755 18.9091C29.7755 19.3403 29.6042 19.7538 29.2994 20.0586C28.9945 20.3635 28.581 20.5348 28.1498 20.5348ZM28.1498 18.1391C27.9975 18.1391 27.8487 18.1842 27.722 18.2688C27.5954 18.3535 27.4967 18.4737 27.4384 18.6144C27.3801 18.7551 27.3649 18.91 27.3946 19.0593C27.4243 19.2087 27.4976 19.3459 27.6053 19.4536C27.713 19.5613 27.8502 19.6347 27.9996 19.6644C28.149 19.6941 28.3038 19.6788 28.4445 19.6206C28.5852 19.5623 28.7055 19.4636 28.7901 19.3369C28.8747 19.2103 28.9199 19.0614 28.9199 18.9091C28.9199 18.7049 28.8388 18.509 28.6943 18.3646C28.5499 18.2202 28.3541 18.1391 28.1498 18.1391Z" fill="#171A1C"/>
<path d="M28.8343 9.06948H15.8289C15.7155 9.06948 15.6067 9.02441 15.5264 8.94418C15.4462 8.86395 15.4011 8.75514 15.4011 8.64167C15.4011 8.52821 15.4462 8.4194 15.5264 8.33917C15.6067 8.25894 15.7155 8.21387 15.8289 8.21387H28.8343C28.9477 8.21387 29.0566 8.25894 29.1368 8.33917C29.217 8.4194 29.2621 8.52821 29.2621 8.64167C29.2621 8.75514 29.217 8.86395 29.1368 8.94418C29.0566 9.02441 28.9477 9.06948 28.8343 9.06948Z" fill="#171A1C"/>
<path d="M28.8343 11.1229H15.8289C15.7155 11.1229 15.6067 11.0779 15.5264 10.9976C15.4462 10.9174 15.4011 10.8086 15.4011 10.6951C15.4011 10.5817 15.4462 10.4729 15.5264 10.3926C15.6067 10.3124 15.7155 10.2673 15.8289 10.2673H28.8343C28.9477 10.2673 29.0566 10.3124 29.1368 10.3926C29.217 10.4729 29.2621 10.5817 29.2621 10.6951C29.2621 10.8086 29.217 10.9174 29.1368 10.9976C29.0566 11.0779 28.9477 11.1229 28.8343 11.1229Z" fill="#171A1C"/>
<path d="M21.1337 13.173H15.8289C15.7155 13.173 15.6067 13.1279 15.5264 13.0477C15.4462 12.9675 15.4011 12.8587 15.4011 12.7452C15.4011 12.6317 15.4462 12.5229 15.5264 12.4427C15.6067 12.3625 15.7155 12.3174 15.8289 12.3174H21.1337C21.2472 12.3174 21.356 12.3625 21.4362 12.4427C21.5165 12.5229 21.5616 12.6317 21.5616 12.7452C21.5616 12.8587 21.5165 12.9675 21.4362 13.0477C21.356 13.1279 21.2472 13.173 21.1337 13.173Z" fill="#171A1C"/>
<path d="M21.1336 15.223H16.6844C16.5709 15.223 16.4621 15.178 16.3819 15.0977C16.3017 15.0175 16.2566 14.9087 16.2566 14.7952C16.2566 14.6818 16.3017 14.573 16.3819 14.4927C16.4621 14.4125 16.5709 14.3674 16.6844 14.3674H21.1336C21.2471 14.3674 21.3559 14.4125 21.4361 14.4927C21.5163 14.573 21.5614 14.6818 21.5614 14.7952C21.5614 14.9087 21.5163 15.0175 21.4361 15.0977C21.3559 15.178 21.2471 15.223 21.1336 15.223Z" fill="#171A1C"/>
<path d="M21.1336 17.2765H16.6844C16.5709 17.2765 16.4621 17.2314 16.3819 17.1512C16.3017 17.071 16.2566 16.9622 16.2566 16.8487C16.2566 16.7352 16.3017 16.6264 16.3819 16.5462C16.4621 16.466 16.5709 16.4209 16.6844 16.4209H21.1336C21.2471 16.4209 21.3559 16.466 21.4361 16.5462C21.5163 16.6264 21.5614 16.7352 21.5614 16.8487C21.5614 16.9622 21.5163 17.071 21.4361 17.1512C21.3559 17.2314 21.2471 17.2765 21.1336 17.2765Z" fill="#171A1C"/>
<path d="M29.2619 7.01603H14.032V2.05347H29.2619V7.01603ZM14.8157 6.16042H28.4782V2.90908H14.8157V6.16042Z" fill="#171A1C"/>
</svg>
