<svg width="32" height="33" viewBox="0 0 32 33" fill="none" xmlns="http://www.w3.org/2000/svg">
<path d="M0.378906 13.8901L10.1365 21.6742L12.1213 20.2158L19.8864 20.087L21.6932 21.6022L31.5266 13.8143V29.2613L31.2576 31.0681L28.5985 31.5037H1.95845L0.553148 30.5681L0.378906 13.8901Z" fill="#FF8338"/>
<path d="M28.0945 7.93933L28.2308 16.3939L31.2574 14.1173V10.3181L28.0945 7.93933Z" fill="#FF8338"/>
<path d="M3.90524 8.22351L0.719645 10.3182L0.552979 14.2235L3.79539 16.3939L3.90524 8.22351Z" fill="#FF8338"/>
<path d="M3.70068 16.2878L3.88629 0.625H28.2309L27.9355 16.5606L21.6931 21.6022L20.0415 20.0795L11.9658 20.3674L10.0757 21.7802L3.70068 16.2878Z" fill="#FFA670"/>
<path d="M30.2007 32.0075H1.79166C1.55638 32.0075 1.3234 31.9611 1.10602 31.8711C0.888649 31.7811 0.691137 31.6491 0.524766 31.4827C0.358395 31.3164 0.226422 31.1188 0.136383 30.9015C0.0463433 30.6841 5.97831e-07 30.4511 5.97831e-07 30.2158V11.3636C-0.000275833 10.9666 0.0953157 10.5754 0.278649 10.2232C0.461983 9.87104 0.727637 9.56836 1.05303 9.34088L3.6212 7.65528C3.6728 7.61676 3.73171 7.58917 3.79434 7.5742C3.85696 7.55923 3.92198 7.55719 3.98542 7.5682C4.04886 7.57921 4.10939 7.60305 4.1633 7.63825C4.21722 7.67346 4.26338 7.71929 4.29898 7.77294C4.33458 7.8266 4.35886 7.88695 4.37033 7.9503C4.38181 8.01366 4.38025 8.07869 4.36573 8.14143C4.35122 8.20416 4.32407 8.26327 4.28593 8.31515C4.24779 8.36703 4.19947 8.41059 4.14393 8.44315L1.58712 10.125C1.38904 10.2651 1.2275 10.4507 1.1161 10.6663C1.0047 10.8818 0.946699 11.121 0.946968 11.3636V30.2158C0.946968 30.4399 1.03596 30.6547 1.19437 30.8131C1.35278 30.9715 1.56764 31.0605 1.79166 31.0605H30.2007C30.3129 31.0625 30.4243 31.0422 30.5286 31.0006C30.6328 30.9591 30.7277 30.8972 30.8078 30.8185C30.8878 30.7399 30.9514 30.6461 30.9948 30.5426C31.0382 30.4391 31.0605 30.328 31.0605 30.2158V11.2992C31.0625 11.0675 31.0112 10.8384 30.9108 10.6296C30.8103 10.4207 30.6633 10.2378 30.481 10.0947L27.8977 8.09467C27.7908 8.01324 27.717 7.89592 27.6899 7.76435C27.6627 7.63278 27.684 7.49584 27.7499 7.37876C27.8274 7.28198 27.9396 7.21915 28.0626 7.2036C28.1856 7.18805 28.3099 7.22098 28.409 7.29543L31.0605 9.34845C31.3559 9.58092 31.5942 9.87793 31.757 10.2167C31.9198 10.5555 32.0029 10.9271 31.9999 11.303V30.2158C31.9999 30.4517 31.9533 30.6854 31.8628 30.9032C31.7723 31.1211 31.6397 31.3189 31.4725 31.4854C31.3053 31.6519 31.1069 31.7837 30.8886 31.8733C30.6704 31.9629 30.4366 32.0085 30.2007 32.0075Z" fill="#171A1C"/>
<path d="M3.88266 16.856C3.75709 16.856 3.63666 16.8061 3.54786 16.7173C3.45906 16.6285 3.40918 16.5081 3.40918 16.3825V0.992422C3.41018 0.729522 3.51506 0.477675 3.70096 0.291776C3.88685 0.105877 4.1387 0.000997732 4.4016 0L12.1705 0C12.2961 0 12.4165 0.0498847 12.5053 0.13868C12.5941 0.227476 12.644 0.347908 12.644 0.473484C12.644 0.599059 12.5941 0.719492 12.5053 0.808287C12.4165 0.897083 12.2961 0.946967 12.1705 0.946967H4.4016C4.38955 0.946967 4.37798 0.951756 4.36946 0.960281C4.36094 0.968805 4.35615 0.980366 4.35615 0.992422V16.3825C4.35615 16.5081 4.30626 16.6285 4.21747 16.7173C4.12867 16.8061 4.00824 16.856 3.88266 16.856Z" fill="#171A1C"/>
<path d="M28.1249 16.856C27.9993 16.856 27.8788 16.8061 27.7901 16.7173C27.7013 16.6285 27.6514 16.5081 27.6514 16.3825V0.992422C27.6514 0.980366 27.6466 0.968805 27.6381 0.960281C27.6295 0.951756 27.618 0.946967 27.6059 0.946967H11.0794C10.9539 0.946967 10.8334 0.897083 10.7446 0.808287C10.6558 0.719492 10.606 0.599059 10.606 0.473484C10.606 0.347908 10.6558 0.227476 10.7446 0.13868C10.8334 0.0498847 10.9539 0 11.0794 0L27.6059 0C27.8688 0.000997732 28.1207 0.105877 28.3066 0.291776C28.4925 0.477675 28.5973 0.729522 28.5983 0.992422V16.3825C28.5983 16.5081 28.5485 16.6285 28.4597 16.7173C28.3709 16.8061 28.2504 16.856 28.1249 16.856Z" fill="#171A1C"/>
<path d="M10.3221 22.159C10.2162 22.1585 10.1135 22.1225 10.0304 22.0567L0.181967 14.3408C0.100415 14.2593 0.0514116 14.1508 0.0441526 14.0358C0.0368937 13.9207 0.0718779 13.8069 0.142541 13.7158C0.213204 13.6247 0.314689 13.5625 0.427952 13.5409C0.541216 13.5193 0.658474 13.5397 0.757723 13.5984L10.6062 21.3143C10.8107 21.4734 10.7009 21.6628 10.5418 21.8673C10.4547 21.9885 10.4622 22.159 10.3221 22.159Z" fill="#171A1C"/>
<path d="M22.0644 21.7802C21.9659 21.7805 21.8698 21.7502 21.7895 21.6933C21.7091 21.6365 21.6484 21.556 21.6159 21.4631C21.5834 21.3701 21.5807 21.2694 21.6081 21.1748C21.6355 21.0803 21.6917 20.9966 21.7689 20.9355L30.8598 13.7386C30.9603 13.6602 31.0877 13.625 31.2142 13.6406C31.3406 13.6562 31.4557 13.7214 31.534 13.8219C31.6124 13.9224 31.6477 14.0498 31.632 14.1763C31.6164 14.3027 31.5512 14.4178 31.4507 14.4961L22.3598 21.6931C22.2736 21.7537 22.1697 21.7843 22.0644 21.7802Z" fill="#171A1C"/>
<path d="M0.473513 29.6098C0.374773 29.6095 0.278581 29.5784 0.198398 29.5208C0.118214 29.4632 0.0580502 29.3819 0.0263254 29.2884C-0.00539938 29.1949 -0.00709802 29.0938 0.0214672 28.9993C0.0500324 28.9048 0.107432 28.8216 0.185635 28.7613L12.0568 19.6969H19.9469L31.4393 28.1211C31.5266 28.2 31.5813 28.3084 31.593 28.4254C31.6047 28.5424 31.5724 28.6595 31.5025 28.7541C31.4325 28.8486 31.3299 28.9137 31.2147 28.9367C31.0994 28.9597 30.9796 28.9391 30.8787 28.8787L19.6363 20.6439H12.375L0.757603 29.5113C0.676675 29.5751 0.57659 29.6098 0.473513 29.6098Z" fill="#171A1C"/>
<path d="M19.4127 29.7348H14.8673C14.7417 29.7348 14.6213 29.6849 14.5325 29.5961C14.4437 29.5073 14.3938 29.3869 14.3938 29.2613C14.3938 29.1357 14.4437 29.0153 14.5325 28.9265C14.6213 28.8377 14.7417 28.7878 14.8673 28.7878H19.4127C19.5383 28.7878 19.6587 28.8377 19.7475 28.9265C19.8363 29.0153 19.8862 29.1357 19.8862 29.2613C19.8862 29.3869 19.8363 29.5073 19.7475 29.5961C19.6587 29.6849 19.5383 29.7348 19.4127 29.7348Z" fill="#171A1C"/>
<path d="M13.3522 29.7348H12.5946C12.469 29.7348 12.3486 29.6849 12.2598 29.5961C12.171 29.5073 12.1211 29.3869 12.1211 29.2613C12.1211 29.1357 12.171 29.0153 12.2598 28.9265C12.3486 28.8377 12.469 28.7878 12.5946 28.7878H13.3522C13.4777 28.7878 13.5982 28.8377 13.687 28.9265C13.7758 29.0153 13.8256 29.1357 13.8256 29.2613C13.8256 29.3869 13.7758 29.5073 13.687 29.5961C13.5982 29.6849 13.4777 29.7348 13.3522 29.7348Z" fill="#171A1C"/>
<path d="M15.9999 17.6022C14.6567 17.6015 13.3428 17.2094 12.2188 16.474C11.0949 15.7386 10.2095 14.6917 9.67089 13.4612C9.13231 12.2308 8.96386 10.87 9.18614 9.54536C9.40842 8.2207 10.0118 6.98949 10.9225 6.00221C11.8332 5.01493 13.0118 4.31434 14.3143 3.98609C15.6168 3.65785 16.9866 3.71615 18.2565 4.15387C19.5263 4.59159 20.6412 5.38978 21.4647 6.45087C22.2883 7.51196 22.7849 8.78999 22.8938 10.1287C22.8938 10.3409 22.9165 10.5492 22.9127 10.7575C22.913 11.2384 22.792 11.7116 22.561 12.1334C22.3299 12.5551 21.9962 12.9118 21.5908 13.1704C20.4544 13.8825 19.4203 13.8181 18.7233 12.9962C18.3628 12.5555 18.1708 12.001 18.1817 11.4318V7.6439C18.1817 7.51833 18.2316 7.39789 18.3203 7.3091C18.4091 7.2203 18.5296 7.17042 18.6552 7.17042C18.7807 7.17042 18.9012 7.2203 18.99 7.3091C19.0788 7.39789 19.1286 7.51833 19.1286 7.6439V11.4318C19.1193 11.7763 19.232 12.113 19.4468 12.3825C19.5794 12.5378 20.0074 13.0378 21.0794 12.3598C21.3523 12.1892 21.5773 11.9519 21.733 11.6702C21.8888 11.3885 21.9702 11.0718 21.9695 10.75C21.9727 10.5679 21.9664 10.3859 21.9506 10.2045C21.839 8.84444 21.2645 7.56376 20.3229 6.57602C19.3813 5.58829 18.1295 4.9532 16.7764 4.77669C15.4232 4.60018 14.0504 4.8929 12.887 5.60605C11.7235 6.31919 10.8397 7.40965 10.3829 8.69556C9.92616 9.98148 9.92404 11.3851 10.3769 12.6724C10.8298 13.9597 11.7103 15.0528 12.8716 15.7695C14.0329 16.4861 15.4048 16.783 16.7585 16.6105C18.1122 16.4381 19.3659 15.8068 20.3105 14.8219C20.3979 14.7315 20.5176 14.6795 20.6433 14.6774C20.7691 14.6752 20.8905 14.7231 20.9809 14.8106C21.0713 14.898 21.1233 15.0177 21.1254 15.1434C21.1276 15.2692 21.0797 15.3906 20.9923 15.481C20.3464 16.1533 19.5711 16.6878 18.7131 17.0523C17.8551 17.4169 16.9321 17.604 15.9999 17.6022Z" fill="#171A1C"/>
<path d="M16.0037 13.4432C14.2423 13.4432 12.8787 11.7652 12.8787 10.3182V10.1402C12.8899 9.74018 12.9802 9.3464 13.1445 8.98152C13.3087 8.61665 13.5435 8.28791 13.8355 8.01428C14.1274 7.74065 14.4707 7.52755 14.8454 7.38727C15.2201 7.24699 15.6189 7.18232 16.0188 7.19698C18.193 7.19698 19.0491 9.29925 19.0946 9.39016C19.1382 9.50607 19.1348 9.63449 19.0849 9.74786C19.035 9.86124 18.9427 9.95056 18.8277 9.99665C18.7127 10.0427 18.5842 10.0419 18.4698 9.99441C18.3555 9.94688 18.2642 9.85642 18.2158 9.74243C18.1893 9.67804 17.5453 8.14395 16.0037 8.14395C15.7271 8.13332 15.4512 8.1775 15.1918 8.27394C14.9324 8.37038 14.6946 8.51718 14.4922 8.70589C14.2897 8.8946 14.1266 9.12148 14.0122 9.37349C13.8978 9.62549 13.8344 9.89763 13.8256 10.1742V10.3068C13.8256 11.2008 14.7385 12.5 16.0037 12.5C17.1968 12.5 18.1021 11.3144 18.1817 11.0492C18.1857 10.9237 18.2394 10.8048 18.3311 10.7189C18.4227 10.6329 18.5447 10.5869 18.6703 10.5909C18.7959 10.5949 18.9147 10.6487 19.0007 10.7403C19.0866 10.8319 19.1327 10.954 19.1286 11.0795C19.1286 11.7424 17.7423 13.4432 16.0037 13.4432Z" fill="#171A1C"/>
</svg>
