<svg width="32" height="31" viewBox="0 0 32 31" fill="none" xmlns="http://www.w3.org/2000/svg">
<path d="M14.7336 11.3384L19.1486 10.487L20.5063 11.3384L20.0161 13.5346L17.62 15.0697L16.2462 15.6631L21.4642 19.0815H23.6281L31.5809 6.25905L30.6328 4.74654L23.1315 0.454102L21.0739 0.863673L14.7336 11.3384Z" fill="#FFA670"/>
<path d="M3.69151 18.1238L15.3014 24.7898L12.1151 30.269L0.282715 23.2741L3.69151 18.1238Z" fill="#FFA670"/>
<path d="M4.70068 18.4785L9.04472 11.7512L12.0181 8.5327L16.7653 7.49426L14.7336 11.3384L18.739 10.5806L20.0161 11.1804L20.5063 12.7284L19.4646 14.4409L16.001 15.6244V16.134L19.5291 18.0915L17.2555 21.152L14.9464 22.5065L14.1015 22.729L13.5694 23.761L4.70068 18.4785Z" fill="#FF8338"/>
<path d="M12.6311 18.7494C12.2493 18.7478 11.868 18.7219 11.4894 18.672C11.3834 18.6562 11.2879 18.5989 11.2241 18.5127C11.1603 18.4265 11.1334 18.3185 11.1492 18.2125C11.165 18.1064 11.2223 18.011 11.3085 17.9472C11.3947 17.8834 11.5027 17.8564 11.6088 17.8722C13.0503 18.0593 14.1307 17.8722 14.8337 17.3466C15.0638 17.1553 15.2535 16.9203 15.3919 16.6551C15.5303 16.3899 15.6146 16.0999 15.64 15.8018C15.6652 15.5814 15.7685 15.3773 15.9312 15.2265C16.0939 15.0757 16.3052 14.988 16.5268 14.9794C17.0203 14.9794 18.2845 14.8021 19.597 13.5153C20.0679 12.5478 20.1807 11.8254 19.9195 11.403C19.8097 11.2611 19.6697 11.1455 19.5095 11.0646C19.3494 10.9837 19.1733 10.9395 18.9939 10.9353L11.6281 12.5478C11.525 12.5677 11.4183 12.5465 11.3305 12.4888C11.2428 12.4312 11.181 12.3416 11.1583 12.2391C11.1357 12.1366 11.1539 12.0293 11.2091 11.94C11.2643 11.8507 11.3521 11.7864 11.454 11.7609L18.9585 10.1484C19.0036 10.1484 20.084 10.1484 20.6032 10.9966C21.0289 11.6867 20.9257 12.6833 20.2807 13.9571L20.2517 14.0152L20.2033 14.0603C18.6779 15.5761 17.1428 15.776 16.5526 15.8018C16.524 15.8039 16.4969 15.8161 16.4763 15.8361C16.4556 15.8562 16.4427 15.8828 16.4398 15.9115C16.3995 16.3178 16.2779 16.7119 16.0824 17.0703C15.8868 17.4287 15.6212 17.7442 15.3014 17.998C14.5199 18.5392 13.58 18.8036 12.6311 18.7494V18.7494Z" fill="#171A1C"/>
<path d="M12.0537 30.7914C11.9175 30.7917 11.7837 30.7549 11.6667 30.685L0.379328 23.9674C0.290259 23.9158 0.212594 23.8466 0.151034 23.7641C0.0894732 23.6815 0.0452968 23.5874 0.021178 23.4873C-0.00294085 23.3872 -0.00650065 23.2832 0.010714 23.1817C0.0279286 23.0802 0.0655598 22.9833 0.12133 22.8967L3.3076 17.9722C3.40664 17.8147 3.5638 17.7027 3.74495 17.6604C3.92609 17.6182 4.1166 17.6491 4.27509 17.7464L15.3529 24.2222C15.4335 24.2686 15.5042 24.3305 15.5608 24.4043C15.6175 24.4781 15.659 24.5624 15.6829 24.6523C15.7069 24.7422 15.7129 24.836 15.7005 24.9282C15.6882 25.0204 15.6577 25.1093 15.6109 25.1897L12.7084 30.4012C12.6605 30.4891 12.5957 30.5665 12.5176 30.6291C12.4396 30.6917 12.3498 30.7381 12.2537 30.7656C12.1883 30.7821 12.1212 30.7908 12.0537 30.7914V30.7914ZM0.821149 23.2998L12.0376 29.9691L14.8627 24.8704L3.93325 18.4914L0.821149 23.2998Z" fill="#171A1C"/>
<path d="M5.05229 19.0815C4.98331 19.082 4.91543 19.0642 4.85557 19.0299C4.80901 19.0041 4.76804 18.9693 4.73502 18.9275C4.702 18.8857 4.67759 18.8378 4.66319 18.7865C4.6488 18.7352 4.64471 18.6816 4.65116 18.6287C4.65761 18.5759 4.67447 18.5248 4.70077 18.4785C5.13614 17.7077 8.98998 10.903 9.97038 9.92585C10.0865 9.80653 10.2058 9.6743 10.3316 9.5324C11.2475 8.49719 12.6407 6.92985 17.0524 7.22655C17.1054 7.22994 17.1571 7.24372 17.2047 7.26711C17.2523 7.2905 17.2949 7.32304 17.3299 7.36286C17.3649 7.40269 17.3918 7.44903 17.4089 7.49924C17.4261 7.54944 17.4331 7.60253 17.4297 7.65547C17.4263 7.70841 17.4126 7.76016 17.3892 7.80777C17.3658 7.85539 17.3333 7.89793 17.2934 7.93296C17.2536 7.968 17.2073 7.99485 17.157 8.01198C17.1068 8.02911 17.0538 8.03618 17.0008 8.03279C12.976 7.76512 11.7957 9.09381 10.9346 10.0677C10.796 10.2193 10.667 10.3644 10.538 10.4934C9.77688 11.2578 6.57448 16.8047 5.40382 18.8784C5.36869 18.9405 5.31757 18.9922 5.25576 19.0279C5.19394 19.0636 5.12369 19.0821 5.05229 19.0815V19.0815Z" fill="#171A1C"/>
<path d="M22.9283 19.8169C22.6241 19.8177 22.3242 19.7447 22.0543 19.6041L15.8721 16.3791C15.7771 16.3295 15.7058 16.2442 15.6737 16.142C15.6417 16.0398 15.6515 15.929 15.7012 15.8341C15.7508 15.7391 15.8361 15.6678 15.9383 15.6357C16.0405 15.6037 16.1512 15.6135 16.2462 15.6631L22.4284 18.8881C22.6735 19.0155 22.9577 19.0454 23.224 18.9718C23.4902 18.8982 23.7187 18.7266 23.8636 18.4914L31.0391 6.79124C31.1138 6.66661 31.1631 6.52846 31.1842 6.38471C31.2054 6.24097 31.1979 6.09446 31.1622 5.95362C31.1266 5.81277 31.0634 5.68036 30.9764 5.56399C30.8895 5.44762 30.7803 5.34958 30.6553 5.2755L23.2186 0.966941C22.9795 0.821427 22.6935 0.773742 22.4202 0.833817C22.1468 0.893891 21.9072 1.05709 21.7512 1.28944L15.0013 11.6867C14.9432 11.7766 14.8517 11.8396 14.7471 11.862C14.6425 11.8843 14.5332 11.8642 14.4434 11.8061C14.3536 11.7479 14.2906 11.6565 14.2682 11.5518C14.2458 11.4472 14.2659 11.338 14.3241 11.2482L21.074 0.863742C21.3391 0.4553 21.7512 0.164519 22.2249 0.0516473C22.6986 -0.0612245 23.1976 0.012465 23.6185 0.257448L31.0617 4.57891C31.4932 4.83152 31.8075 5.24434 31.9361 5.72752C32.0648 6.21071 31.9974 6.72515 31.7486 7.15889L31.381 6.99119L31.726 7.20081L24.5505 18.9139C24.3797 19.1904 24.141 19.4186 23.857 19.5767C23.573 19.7348 23.2533 19.8175 22.9283 19.8169V19.8169Z" fill="#171A1C"/>
<path d="M13.8018 23.8353C13.7269 23.8353 13.6536 23.8144 13.5899 23.775C13.5262 23.7357 13.4747 23.6794 13.4412 23.6124C13.4078 23.5455 13.3936 23.4705 13.4003 23.3959C13.407 23.3214 13.4344 23.2502 13.4793 23.1903L14.0211 22.4292C14.1656 22.2459 14.3498 22.0979 14.5599 21.9962C14.7699 21.8946 15.0003 21.8419 15.2337 21.8422C15.7723 21.8422 17.2525 21.4359 19.2649 17.6852C19.3227 17.6085 19.4059 17.555 19.4997 17.5342C19.5934 17.5134 19.6915 17.5268 19.7763 17.5719C19.861 17.617 19.9269 17.6909 19.9621 17.7802C19.9972 17.8696 19.9993 17.9686 19.9679 18.0593C17.9394 21.8583 16.2689 22.6549 15.224 22.6549C15.1155 22.652 15.0079 22.6747 14.9098 22.7212C14.8118 22.7678 14.726 22.8367 14.6596 22.9226L14.1308 23.6643C14.0938 23.7173 14.0446 23.7604 13.9873 23.7902C13.93 23.82 13.8664 23.8354 13.8018 23.8353Z" fill="#171A1C"/>
<path d="M7.67425 7.0654H4.77177C4.66486 7.0654 4.56232 7.02293 4.48672 6.94733C4.41112 6.87173 4.36865 6.76919 4.36865 6.66228C4.36865 6.55536 4.41112 6.45283 4.48672 6.37723C4.56232 6.30163 4.66486 6.25916 4.77177 6.25916H7.67425C7.78116 6.25916 7.8837 6.30163 7.9593 6.37723C8.0349 6.45283 8.07737 6.55536 8.07737 6.66228C8.07737 6.76919 8.0349 6.87173 7.9593 6.94733C7.8837 7.02293 7.78116 7.0654 7.67425 7.0654V7.0654Z" fill="#171A1C"/>
<path d="M8.64173 5.13042C8.5888 5.13082 8.53635 5.12044 8.48756 5.09993C8.43878 5.07942 8.39467 5.04919 8.35793 5.0111L5.77795 2.43112C5.74068 2.39385 5.71112 2.34961 5.69095 2.30091C5.67078 2.25222 5.6604 2.20003 5.6604 2.14732C5.6604 2.09462 5.67078 2.04243 5.69095 1.99373C5.71112 1.94504 5.74068 1.90079 5.77795 1.86352C5.81522 1.82626 5.85947 1.79669 5.90816 1.77652C5.95685 1.75635 6.00904 1.74597 6.06175 1.74597C6.11446 1.74597 6.16665 1.75635 6.21534 1.77652C6.26403 1.79669 6.30828 1.82626 6.34555 1.86352L8.92553 4.4435C8.96297 4.48067 8.99269 4.52489 9.01296 4.57359C9.03324 4.6223 9.04368 4.67454 9.04368 4.7273C9.04368 4.78006 9.03324 4.8323 9.01296 4.88101C8.99269 4.92971 8.96297 4.97393 8.92553 5.0111C8.88879 5.04919 8.84468 5.07942 8.79589 5.09993C8.7471 5.12044 8.69465 5.13082 8.64173 5.13042Z" fill="#171A1C"/>
<path d="M10.8992 3.84032C10.7923 3.84032 10.6898 3.79785 10.6142 3.72225C10.5386 3.64665 10.4961 3.54411 10.4961 3.4372V0.857223C10.4961 0.750309 10.5386 0.647773 10.6142 0.572173C10.6898 0.496573 10.7923 0.454102 10.8992 0.454102C11.0061 0.454102 11.1087 0.496573 11.1843 0.572173C11.2599 0.647773 11.3023 0.750309 11.3023 0.857223V3.4372C11.3023 3.54411 11.2599 3.64665 11.1843 3.72225C11.1087 3.79785 11.0061 3.84032 10.8992 3.84032Z" fill="#171A1C"/>
</svg>
