<svg width="32" height="44" viewBox="0 0 32 44" fill="none" xmlns="http://www.w3.org/2000/svg">
<path d="M6.03895 24.8176L15.8589 30.8933L26.2391 24.8176L31.1821 27.8575L30.7743 28.8214L26.5316 30.8933L26.8858 36.8331L16.5139 43.2754H15.4347L5.02977 37.2327L5.13275 30.8933L0.910645 28.1624L6.03895 24.8176Z" fill="#FFA670"/>
<path d="M7.76109 16.1345L9.63941 19.1003L11.9502 20.7109L12.0573 25.4108L13.0253 26.4076L17.75 26.2964L18.3967 25.4108V20.9621L19.4182 19.9571L21.9968 16.7812L22.1698 16.2251L30.0538 20.2248L31.1824 21.2711L26.2395 24.8176L15.8593 30.8933L5.98575 24.3645L0.474365 20.9621L7.11439 17.1108L7.76109 16.1345Z" fill="#FF8338"/>
<path d="M12.432 25.9505L12.6462 26.2965H17.7498L18.3965 25.4109V20.6039L19.4181 19.9572L21.9225 17.6464L22.3344 12.9217L19.7394 8.62136L14.6893 7.2085L10.875 8.30006L8.77838 11.0928L7.91748 15.2696L9.37153 18.6143L11.3034 20.4432L12.0572 20.9622V25.9505H12.432Z" fill="#FFA670"/>
<path d="M17.1279 26.9802H13.3219C12.871 26.9791 12.4389 26.7996 12.1201 26.4808C11.8013 26.162 11.6218 25.7299 11.6207 25.279V21.1352C10.0988 20.3271 8.89088 19.0332 8.1891 17.4594C7.48731 15.8857 7.33197 14.1224 7.74777 12.4502C8.16357 10.778 9.12665 9.29288 10.4838 8.23109C11.8409 7.16929 13.5141 6.59183 15.2373 6.59058C17.2838 6.59276 19.2457 7.40756 20.6917 8.85586C22.1377 10.3041 22.9494 12.2674 22.9483 14.3139C22.9443 15.7175 22.5589 17.0936 21.8334 18.295C21.1079 19.4965 20.0694 20.4782 18.8291 21.1352V25.279C18.8291 25.7302 18.6499 26.1629 18.3309 26.482C18.0118 26.801 17.5791 26.9802 17.1279 26.9802ZM15.2373 7.61212C13.7166 7.60917 12.2402 8.12412 11.0512 9.0722C9.86218 10.0203 9.03146 11.345 8.69579 12.8282C8.36012 14.3114 8.5395 15.8647 9.2044 17.2323C9.8693 18.6 10.9801 19.7004 12.3539 20.3526L12.6463 20.4926V25.279C12.6474 25.4575 12.7191 25.6283 12.8456 25.7541C12.9722 25.8799 13.1434 25.9505 13.3219 25.9505H17.1279C17.306 25.9505 17.4768 25.8797 17.6027 25.7538C17.7286 25.6279 17.7994 25.4571 17.7994 25.279V20.4926L18.0959 20.3526C19.2376 19.8088 20.2023 18.9534 20.8787 17.8849C21.555 16.8164 21.9155 15.5785 21.9185 14.3139C21.9206 13.435 21.7495 12.5642 21.4147 11.7515C21.08 10.9387 20.5882 10.2 19.9677 9.57749C19.3471 8.955 18.6099 8.46101 17.7982 8.12376C16.9865 7.78652 16.1162 7.61266 15.2373 7.61212Z" fill="#171A1C"/>
<path d="M4.72083 14.6228H1.42553C1.28898 14.6228 1.15801 14.5686 1.06145 14.472C0.964892 14.3754 0.910645 14.2445 0.910645 14.1079C0.910645 13.9714 0.964892 13.8404 1.06145 13.7438C1.15801 13.6473 1.28898 13.593 1.42553 13.593H4.72083C4.85739 13.593 4.98836 13.6473 5.08492 13.7438C5.18148 13.8404 5.23572 13.9714 5.23572 14.1079C5.23572 14.2445 5.18148 14.3754 5.08492 14.472C4.98836 14.5686 4.85739 14.6228 4.72083 14.6228Z" fill="#171A1C"/>
<path d="M8.01627 7.62051C7.94874 7.62054 7.88189 7.60708 7.81964 7.58091C7.75739 7.55473 7.701 7.51638 7.65379 7.4681L5.18232 4.99663C5.0949 4.89829 5.04844 4.77021 5.05249 4.6387C5.05654 4.50718 5.11078 4.3822 5.20409 4.28943C5.29739 4.19665 5.42267 4.14311 5.55421 4.13981C5.68575 4.13651 5.81356 4.18369 5.9114 4.27166L8.38287 6.74314C8.45449 6.81538 8.5031 6.90722 8.52257 7.00706C8.54204 7.1069 8.5315 7.21027 8.49228 7.30413C8.45307 7.39799 8.38693 7.47813 8.30221 7.53443C8.21749 7.59074 8.11799 7.62069 8.01627 7.62051Z" fill="#171A1C"/>
<path d="M15.4307 4.32508C15.2941 4.32508 15.1631 4.27083 15.0666 4.17427C14.97 4.07771 14.9158 3.94675 14.9158 3.81019V0.51489C14.9158 0.378333 14.97 0.247369 15.0666 0.150808C15.1631 0.0542472 15.2941 0 15.4307 0C15.5672 0 15.6982 0.0542472 15.7947 0.150808C15.8913 0.247369 15.9456 0.378333 15.9456 0.51489V3.81019C15.9461 3.87796 15.9332 3.94516 15.9075 4.00788C15.8818 4.07059 15.8439 4.12757 15.796 4.17549C15.748 4.22342 15.6911 4.26132 15.6283 4.287C15.5656 4.31269 15.4984 4.32563 15.4307 4.32508Z" fill="#171A1C"/>
<path d="M22.845 7.2085C22.7436 7.20787 22.6447 7.17734 22.5606 7.12072C22.4765 7.0641 22.411 6.98392 22.3723 6.89022C22.3336 6.79653 22.3234 6.6935 22.343 6.59404C22.3626 6.49458 22.4111 6.40312 22.4825 6.33112L24.748 4.06561C24.8458 3.97763 24.9736 3.93045 25.1052 3.93376C25.2367 3.93706 25.362 3.9906 25.4553 4.08337C25.5486 4.17615 25.6029 4.30112 25.6069 4.43264C25.611 4.56416 25.5645 4.69223 25.4771 4.79057L23.2116 7.05609C23.1639 7.10487 23.1068 7.14351 23.0438 7.1697C22.9808 7.19589 22.9132 7.20908 22.845 7.2085Z" fill="#171A1C"/>
<path d="M29.0238 14.6228H25.7285C25.592 14.6228 25.461 14.5686 25.3644 14.472C25.2679 14.3754 25.2136 14.2445 25.2136 14.1079C25.2136 13.9714 25.2679 13.8404 25.3644 13.7438C25.461 13.6473 25.592 13.593 25.7285 13.593H29.0238C29.1604 13.593 29.2913 13.6473 29.3879 13.7438C29.4845 13.8404 29.5387 13.9714 29.5387 14.1079C29.5387 14.2445 29.4845 14.3754 29.3879 14.472C29.2913 14.5686 29.1604 14.6228 29.0238 14.6228Z" fill="#171A1C"/>
<path d="M18.3139 23.0054H12.1353C11.9987 23.0054 11.8677 22.9511 11.7712 22.8546C11.6746 22.758 11.6204 22.627 11.6204 22.4905C11.6204 22.3539 11.6746 22.223 11.7712 22.1264C11.8677 22.0298 11.9987 21.9756 12.1353 21.9756H18.3139C18.4505 21.9756 18.5815 22.0298 18.678 22.1264C18.7746 22.223 18.8288 22.3539 18.8288 22.4905C18.8288 22.627 18.7746 22.758 18.678 22.8546C18.5815 22.9511 18.4505 23.0054 18.3139 23.0054Z" fill="#171A1C"/>
<path d="M16.3574 43.6214C16.3573 43.6824 16.3415 43.7423 16.3115 43.7953C16.2815 43.8484 16.2383 43.8928 16.1861 43.9242C16.134 43.9557 16.0745 43.9732 16.0136 43.975C15.9527 43.9768 15.8924 43.9628 15.8384 43.9345L5.07514 38.1389C4.93683 38.0655 4.82117 37.9557 4.7406 37.8214C4.66004 37.6872 4.61762 37.5334 4.61792 37.3769V31.4082C4.61792 31.2717 4.67217 31.1407 4.76873 31.0442C4.86529 30.9476 4.99625 30.8934 5.13281 30.8934C5.26937 30.8934 5.40033 30.9476 5.49689 31.0442C5.59346 31.1407 5.6477 31.2717 5.6477 31.4082V37.2409C5.64878 37.2528 5.65272 37.2643 5.65917 37.2743C5.66563 37.2843 5.67441 37.2927 5.68477 37.2986L15.237 42.4269C15.2468 42.4331 15.258 42.4365 15.2696 42.4366C15.2811 42.4367 15.2925 42.4336 15.3024 42.4276C15.3122 42.4216 15.3202 42.4129 15.3254 42.4026C15.3306 42.3923 15.3328 42.3807 15.3318 42.3692V30.9963C15.3318 30.8598 15.386 30.7288 15.4826 30.6323C15.5791 30.5357 15.7101 30.4814 15.8467 30.4814C15.9832 30.4814 16.1142 30.5357 16.2107 30.6323C16.3073 30.7288 16.3615 30.8598 16.3615 30.9963L16.3574 43.6214Z" fill="#171A1C"/>
<path d="M16.061 43.9756C15.8839 43.9756 15.9168 43.7779 15.8221 43.6132C15.7882 43.5545 15.7662 43.4897 15.7573 43.4225C15.7485 43.3553 15.753 43.2871 15.7706 43.2216C15.7882 43.1562 15.8186 43.0949 15.8599 43.0412C15.9013 42.9875 15.9528 42.9425 16.0116 42.9088L26.4494 36.8784V31.4082C26.4494 31.2716 26.5037 31.1407 26.6002 31.0441C26.6968 30.9476 26.8278 30.8933 26.9643 30.8933C27.1009 30.8933 27.2318 30.9476 27.3284 31.0441C27.425 31.1407 27.4792 31.2716 27.4792 31.4082V36.9731C27.4792 37.1261 27.4388 37.2763 27.3622 37.4087C27.2855 37.541 27.1753 37.6508 27.0426 37.7269L16.5141 43.7985C16.3721 43.8785 16.2196 43.9381 16.061 43.9756Z" fill="#171A1C"/>
<path d="M21.6094 34.753C21.452 34.7539 21.2976 34.7096 21.1645 34.6254L0.408278 21.8314C0.291035 21.7608 0.192215 21.6634 0.119939 21.5471C0.00499922 21.3523 -0.0290113 21.1201 0.0251994 20.9004C0.0819242 20.687 0.219255 20.5039 0.408278 20.3897L7.76091 16.1346C7.81947 16.0959 7.88532 16.0696 7.95441 16.0573C8.02351 16.045 8.09439 16.0469 8.16271 16.063C8.23102 16.0791 8.29533 16.109 8.35168 16.1508C8.40803 16.1926 8.45523 16.2456 8.49038 16.3063C8.52554 16.3671 8.5479 16.4343 8.5561 16.504C8.5643 16.5738 8.55816 16.6444 8.53807 16.7116C8.51797 16.7789 8.48434 16.8413 8.43924 16.8951C8.39414 16.9489 8.33852 16.9928 8.2758 17.0243L1.19915 21.1435L21.6094 33.6903L30.5397 28.1048L19.0926 20.6162C19.0039 20.5327 18.9477 20.4205 18.9339 20.2995C18.9201 20.1784 18.9497 20.0565 19.0174 19.9552C19.0851 19.8539 19.1865 19.7799 19.3036 19.7463C19.4207 19.7128 19.5459 19.7218 19.6569 19.7718L31.3347 27.3922C31.4365 27.4604 31.5234 27.5487 31.59 27.6517C31.6509 27.7465 31.6923 27.8523 31.712 27.9632C31.7316 28.0741 31.7291 28.1878 31.7046 28.2977C31.6801 28.4076 31.6341 28.5116 31.5691 28.6036C31.5042 28.6956 31.4217 28.7739 31.3264 28.8339L22.0584 34.6254C21.9234 34.7086 21.768 34.7529 21.6094 34.753Z" fill="#171A1C"/>
<path d="M10.4918 34.7243C10.3161 34.7296 10.1423 34.6869 9.98923 34.6007L0.927159 28.9369C0.804198 28.8592 0.700076 28.755 0.622344 28.6321C0.488593 28.416 0.44558 28.1559 0.502665 27.9082C0.55975 27.6606 0.712312 27.4455 0.927159 27.3098L11.5875 20.4391C11.7027 20.3654 11.8425 20.3405 11.9762 20.3698C12.1098 20.3992 12.2263 20.4804 12.3001 20.5957C12.3738 20.7109 12.3987 20.8507 12.3694 20.9844C12.34 21.118 12.2588 21.2345 12.1435 21.3083L1.55739 28.1089L10.4918 33.6821L30.9185 21.5183L22.1695 16.2253C22.0572 16.1526 21.9776 16.0392 21.9475 15.9089C21.9174 15.7786 21.9392 15.6417 22.0082 15.5272C22.0772 15.4126 22.1881 15.3294 22.3174 15.2952C22.4467 15.261 22.5842 15.2784 22.7008 15.3438L31.5364 20.6986C31.6779 20.7846 31.7949 20.9055 31.876 21.0498C31.9572 21.1941 31.9999 21.3569 31.9999 21.5225C31.9999 21.688 31.9572 21.8508 31.876 21.9951C31.7949 22.1394 31.6779 22.2603 31.5364 22.3463L10.9861 34.6007C10.8362 34.6877 10.6649 34.7305 10.4918 34.7243Z" fill="#171A1C"/>
</svg>
