<svg width="164" height="63" viewBox="0 0 164 63" fill="none" xmlns="http://www.w3.org/2000/svg">
<g clip-path="url(#clip0_835_3149)">
<path d="M130.97 60.87C135.968 60.87 140.02 56.4152 140.02 50.92C140.02 45.4248 135.968 40.97 130.97 40.97C125.972 40.97 121.92 45.4248 121.92 50.92C121.92 56.4152 125.972 60.87 130.97 60.87Z" fill="#171A1C"/>
<path d="M131 61.43C125.7 61.43 121.39 56.71 121.39 50.92C121.39 45.13 125.7 40.41 131 40.41C136.3 40.41 140.6 45.13 140.6 50.92C140.6 56.71 136.27 61.43 131 61.43ZM131 41.53C126.31 41.53 122.51 45.74 122.51 50.92C122.51 56.1 126.31 60.31 131 60.31C135.69 60.31 139.48 56.1 139.48 50.92C139.48 45.74 135.66 41.53 131 41.53Z" fill="#171A1C"/>
<path d="M132.78 60.87C137.778 60.87 141.83 56.4152 141.83 50.92C141.83 45.4248 137.778 40.97 132.78 40.97C127.782 40.97 123.73 45.4248 123.73 50.92C123.73 56.4152 127.782 60.87 132.78 60.87Z" fill="#171A1C"/>
<path d="M132.78 61.43C127.49 61.43 123.18 56.71 123.18 50.92C123.18 45.13 127.49 40.41 132.78 40.41C138.07 40.41 142.39 45.13 142.39 50.92C142.39 56.71 138.08 61.43 132.78 61.43ZM132.78 41.53C128.1 41.53 124.29 45.74 124.29 50.92C124.29 56.1 128.1 60.31 132.78 60.31C137.46 60.31 141.27 56.1 141.27 50.92C141.27 45.74 137.47 41.53 132.78 41.53Z" fill="#171A1C"/>
<path d="M63.76 60.87C69.0343 60.87 73.31 56.4152 73.31 50.92C73.31 45.4248 69.0343 40.97 63.76 40.97C58.4857 40.97 54.21 45.4248 54.21 50.92C54.21 56.4152 58.4857 60.87 63.76 60.87Z" fill="#171A1C"/>
<path d="M63.76 61.43C61.6634 61.5118 59.5902 60.9647 57.8069 59.8591C56.0236 58.7536 54.6116 57.14 53.7524 55.2258C52.8932 53.3115 52.6261 51.1841 52.9853 49.1169C53.3446 47.0496 54.3137 45.1371 55.7684 43.6249C57.223 42.1127 59.0965 41.0701 61.1483 40.631C63.2 40.1918 65.3362 40.3763 67.2823 41.1606C69.2284 41.9449 70.8955 43.2932 72.0695 45.0323C73.2434 46.7714 73.8704 48.8218 73.87 50.92C73.9182 53.653 72.8813 56.2937 70.9863 58.2637C69.0913 60.2336 66.4928 61.3722 63.76 61.43ZM63.76 41.53C61.8854 41.4501 60.0299 41.9331 58.4321 42.9167C56.8344 43.9003 55.5675 45.3396 54.7946 47.0492C54.0217 48.7589 53.7781 50.6607 54.0952 52.51C54.4123 54.3593 55.2755 56.0713 56.5738 57.4259C57.872 58.7804 59.546 59.7154 61.3801 60.1106C63.2143 60.5058 65.1247 60.343 66.8656 59.6433C68.6065 58.9436 70.0982 57.7389 71.1486 56.1843C72.1991 54.6297 72.7603 52.7962 72.76 50.92C72.8083 48.4823 71.888 46.1249 70.2009 44.3647C68.5138 42.6045 66.1975 41.5851 63.76 41.53Z" fill="#171A1C"/>
<path d="M65.67 60.87C70.9443 60.87 75.22 56.4152 75.22 50.92C75.22 45.4248 70.9443 40.97 65.67 40.97C60.3957 40.97 56.12 45.4248 56.12 50.92C56.12 56.4152 60.3957 60.87 65.67 60.87Z" fill="#171A1C"/>
<path d="M65.67 61.43C63.5734 61.5118 61.5002 60.9647 59.7169 59.8591C57.9336 58.7536 56.5216 57.14 55.6624 55.2258C54.8032 53.3115 54.5361 51.1841 54.8953 49.1169C55.2546 47.0496 56.2238 45.1371 57.6784 43.6249C59.133 42.1127 61.0065 41.0701 63.0583 40.631C65.11 40.1918 67.2462 40.3763 69.1923 41.1606C71.1384 41.9449 72.8056 43.2932 73.9795 45.0323C75.1534 46.7714 75.7804 48.8218 75.78 50.92C75.8282 53.653 74.7913 56.2937 72.8963 58.2637C71.0013 60.2336 68.4028 61.3722 65.67 61.43ZM65.67 41.53C63.7954 41.4501 61.9399 41.9331 60.3421 42.9167C58.7444 43.9003 57.4775 45.3396 56.7046 47.0492C55.9317 48.7589 55.6881 50.6607 56.0052 52.51C56.3223 54.3593 57.1855 56.0713 58.4838 57.4259C59.782 58.7804 61.456 59.7154 63.2901 60.1106C65.1243 60.5058 67.0347 60.343 68.7756 59.6433C70.5165 58.9436 72.0082 57.7389 73.0586 56.1843C74.1091 54.6297 74.6703 52.7962 74.67 50.92C74.7183 48.4823 73.798 46.1249 72.1109 44.3647C70.4238 42.6045 68.1075 41.5851 65.67 41.53Z" fill="#171A1C"/>
<path d="M150.29 48.43V34.63C150.29 32.2218 149.333 29.9123 147.631 28.2095C145.928 26.5066 143.618 25.55 141.21 25.55H136.85L123 4.05C122.529 3.31964 121.882 2.71912 121.118 2.30334C120.355 1.88757 119.499 1.66982 118.63 1.67H23.92C22.5939 1.67 21.3222 2.19678 20.3845 3.13446C19.4468 4.07215 18.92 5.34392 18.92 6.67V48.43H150.29Z" fill="white"/>
<path d="M152 50.1H17.28V6.64C17.2826 4.87978 17.9831 3.1924 19.2277 1.94774C20.4724 0.703067 22.1598 0.00264779 23.92 2.81572e-06H118.6C119.748 -0.00103688 120.877 0.285869 121.885 0.834446C122.893 1.38302 123.748 2.17574 124.37 3.14L137.76 23.88H141.21C142.625 23.8761 144.026 24.1511 145.335 24.6895C146.643 25.2278 147.832 26.0189 148.834 27.0174C149.837 28.0159 150.632 29.2022 151.175 30.5085C151.718 31.8147 151.999 33.2153 152 34.63V50.1ZM20.62 46.76H148.62V34.63C148.617 32.6656 147.836 30.7823 146.447 29.3933C145.058 28.0042 143.174 27.2226 141.21 27.22H136L121.57 5C121.246 4.50111 120.801 4.09206 120.276 3.81065C119.752 3.52925 119.165 3.38457 118.57 3.39H23.92C23.0448 3.39 22.2054 3.73768 21.5865 4.35655C20.9677 4.97542 20.62 5.81479 20.62 6.69V46.76Z" fill="#171A1C"/>
<path d="M123.25 39.97H149.04C150.316 39.97 151.35 38.9358 151.35 37.66V36.06C151.35 34.7842 150.316 33.75 149.04 33.75H123.25C121.974 33.75 120.94 34.7842 120.94 36.06V37.66C120.94 38.9358 121.974 39.97 123.25 39.97Z" fill="#171A1C"/>
<path d="M148.77 40.53H123.51C122.68 40.53 121.884 40.2002 121.297 39.6132C120.71 39.0263 120.38 38.2301 120.38 37.4V36.33C120.38 35.4999 120.71 34.7037 121.297 34.1168C121.884 33.5298 122.68 33.2 123.51 33.2H148.77C149.6 33.2 150.396 33.5298 150.983 34.1168C151.57 34.7037 151.9 35.4999 151.9 36.33V37.4C151.9 38.2301 151.57 39.0263 150.983 39.6132C150.396 40.2002 149.6 40.53 148.77 40.53ZM123.51 34.31C122.98 34.31 122.471 34.5207 122.096 34.8958C121.721 35.2709 121.51 35.7796 121.51 36.31V37.4C121.51 37.9304 121.721 38.4391 122.096 38.8142C122.471 39.1893 122.98 39.4 123.51 39.4H148.77C149.3 39.4 149.809 39.1893 150.184 38.8142C150.559 38.4391 150.77 37.9304 150.77 37.4V36.33C150.77 35.7996 150.559 35.2909 150.184 34.9158C149.809 34.5407 149.3 34.33 148.77 34.33L123.51 34.31Z" fill="#171A1C"/>
<path d="M124.13 38.94C125.273 38.94 126.2 38.0132 126.2 36.87C126.2 35.7268 125.273 34.8 124.13 34.8C122.987 34.8 122.06 35.7268 122.06 36.87C122.06 38.0132 122.987 38.94 124.13 38.94Z" fill="white"/>
<path d="M124.13 39.49C123.609 39.49 123.101 39.3355 122.668 39.0461C122.235 38.7566 121.898 38.3453 121.699 37.8641C121.501 37.383 121.449 36.8537 121.551 36.3432C121.654 35.8328 121.905 35.3642 122.274 34.9968C122.643 34.6294 123.112 34.3797 123.623 34.2793C124.134 34.179 124.663 34.2325 125.143 34.4331C125.624 34.6337 126.034 34.9723 126.322 35.4061C126.609 35.8399 126.762 36.3494 126.76 36.87C126.76 37.2149 126.692 37.5564 126.56 37.8749C126.427 38.1935 126.233 38.4827 125.989 38.7262C125.745 38.9696 125.455 39.1624 125.136 39.2934C124.817 39.4245 124.475 39.4913 124.13 39.49ZM124.13 35.35C123.829 35.348 123.534 35.4355 123.283 35.6013C123.032 35.7671 122.835 36.0038 122.719 36.2814C122.602 36.5589 122.57 36.8648 122.628 37.1604C122.686 37.4559 122.829 37.7276 123.042 37.9412C123.254 38.1548 123.525 38.3006 123.82 38.36C124.115 38.4195 124.421 38.39 124.699 38.2752C124.978 38.1605 125.216 37.9657 125.383 37.7155C125.551 37.4653 125.64 37.171 125.64 36.87C125.64 36.4686 125.481 36.0835 125.198 35.7987C124.915 35.5139 124.531 35.3526 124.13 35.35Z" fill="#171A1C"/>
<path d="M154 50.31H12.79C12.3471 50.31 11.9223 50.1341 11.6091 49.8209C11.2959 49.5077 11.12 49.0829 11.12 48.64C11.12 48.1971 11.2959 47.7723 11.6091 47.4591C11.9223 47.1459 12.3471 46.97 12.79 46.97H154C154.443 46.97 154.868 47.1459 155.181 47.4591C155.494 47.7723 155.67 48.1971 155.67 48.64C155.67 49.0829 155.494 49.5077 155.181 49.8209C154.868 50.1341 154.443 50.31 154 50.31Z" fill="#171A1C"/>
<path d="M161.76 62.54H1.67C1.22709 62.54 0.802317 62.3641 0.489132 62.0509C0.175946 61.7377 0 61.3129 0 60.87C0 60.4271 0.175946 60.0023 0.489132 59.6891C0.802317 59.3759 1.22709 59.2 1.67 59.2H161.76C162.203 59.2 162.628 59.3759 162.941 59.6891C163.254 60.0023 163.43 60.4271 163.43 60.87C163.43 61.3129 163.254 61.7377 162.941 62.0509C162.628 62.3641 162.203 62.54 161.76 62.54Z" fill="#171A1C"/>
<path d="M101.31 23L92.65 9.62C92.4581 9.31332 92.1912 9.06058 91.8745 8.88562C91.5578 8.71066 91.2018 8.61924 90.84 8.62H79.06C78.4889 8.62264 77.942 8.85138 77.5391 9.25617C77.1362 9.66097 76.91 10.2089 76.91 10.78V24.37C76.9086 24.6544 76.964 24.9362 77.0728 25.199C77.1816 25.4618 77.3417 25.7002 77.5438 25.9004C77.7458 26.1006 77.9857 26.2585 78.2495 26.3649C78.5133 26.4713 78.7956 26.524 79.08 26.52L99.52 26.36C99.9106 26.3589 100.294 26.2519 100.628 26.0504C100.963 25.8489 101.237 25.5604 101.42 25.2156C101.604 24.8708 101.691 24.4827 101.671 24.0925C101.652 23.7024 101.527 23.3248 101.31 23Z" fill="#171A1C"/>
<path d="M79.06 27.08C78.7037 27.0813 78.3507 27.0121 78.0214 26.8764C77.692 26.7407 77.3927 26.5411 77.1408 26.2892C76.8889 26.0373 76.6893 25.738 76.5536 25.4086C76.4179 25.0792 76.3487 24.7262 76.35 24.37V10.79C76.35 10.0713 76.6355 9.38196 77.1437 8.87373C77.652 8.36551 78.3413 8.07999 79.06 8.07999H90.84C91.2938 8.07759 91.7408 8.19003 92.1394 8.40683C92.5381 8.62364 92.8754 8.93777 93.12 9.31999L101.78 22.74C102.041 23.1479 102.188 23.6182 102.205 24.1021C102.223 24.586 102.11 25.0657 101.88 25.4914C101.649 25.9171 101.308 26.2732 100.893 26.5226C100.478 26.7721 100.004 26.9059 99.52 26.91L79.08 27.08H79.06ZM79.06 9.18999C78.6356 9.18999 78.2287 9.35856 77.9286 9.65862C77.6286 9.95868 77.46 10.3656 77.46 10.79V24.37C77.4587 24.5805 77.4991 24.7891 77.5791 24.9839C77.659 25.1786 77.7768 25.3555 77.9257 25.5043C78.0745 25.6532 78.2514 25.771 78.4461 25.8509C78.6409 25.9308 78.8495 25.9713 79.06 25.97L99.5 25.8C99.7839 25.8057 100.064 25.7343 100.311 25.5935C100.557 25.4526 100.761 25.2475 100.9 25C101.04 24.7507 101.109 24.4675 101.099 24.1815C101.088 23.8956 100.999 23.6182 100.84 23.38L92.19 9.91999C92.0442 9.69493 91.8441 9.51012 91.6082 9.38257C91.3723 9.25501 91.1082 9.18879 90.84 9.18999H79.06Z" fill="#171A1C"/>
<path d="M126.46 7.75L101.67 8.21C101.378 8.21763 101.094 8.30197 100.845 8.45452C100.597 8.60708 100.393 8.82247 100.254 9.07899C100.115 9.33551 100.046 9.62411 100.054 9.91571C100.062 10.2073 100.147 10.4916 100.3 10.74L108.8 24.33C109.241 25.0349 109.855 25.6159 110.582 26.0182C111.31 26.4206 112.128 26.6311 112.96 26.63H138.12" fill="#171A1C"/>
<path d="M138.12 27.19H113C112.073 27.1943 111.16 26.9603 110.349 26.5102C109.538 26.0602 108.857 25.4093 108.37 24.62L99.83 11C99.6231 10.6686 99.5077 10.2884 99.4957 9.89795C99.4836 9.50751 99.5752 9.12084 99.7612 8.77733C99.9471 8.43382 100.221 8.14574 100.554 7.94244C100.888 7.73914 101.269 7.62788 101.66 7.61999L126.45 7.14999V8.26999L101.66 8.72999C101.467 8.73215 101.277 8.78618 101.112 8.88645C100.947 8.98671 100.811 9.12953 100.72 9.29999C100.622 9.4684 100.57 9.65994 100.57 9.85499C100.57 10.05 100.622 10.2416 100.72 10.41L109.27 24C109.665 24.6189 110.211 25.1271 110.856 25.477C111.502 25.8268 112.226 26.0068 112.96 26H138.12V27.19Z" fill="#171A1C"/>
<path d="M82.83 31.41H78.38C78.1025 31.3837 77.8448 31.2548 77.6572 31.0487C77.4697 30.8425 77.3657 30.5737 77.3657 30.295C77.3657 30.0163 77.4697 29.7475 77.6572 29.5413C77.8448 29.3351 78.1025 29.2063 78.38 29.18H82.83C83.1075 29.2063 83.3652 29.3351 83.5528 29.5413C83.7404 29.7475 83.8443 30.0163 83.8443 30.295C83.8443 30.5737 83.7404 30.8425 83.5528 31.0487C83.3652 31.2548 83.1075 31.3837 82.83 31.41Z" fill="#171A1C"/>
<path d="M105.64 40.37C110.96 40.37 115.3 44.75 115.56 49.2H106.18V51.42H95.72C95.72 51.42 95.72 50.78 95.72 50.57C95.7113 47.9103 96.745 45.3531 98.5993 43.4464C100.454 41.5397 102.981 40.4354 105.64 40.37Z" fill="#171A1C"/>
<path d="M38 40.37C43.32 40.37 47.66 44.75 47.92 49.2H38.36V51.42H28.06C28.06 51.42 28.06 50.78 28.06 50.57C28.0515 47.9069 29.0878 45.3468 30.9464 43.4395C32.805 41.5323 35.3376 40.4302 38 40.37Z" fill="#171A1C"/>
<path d="M36.36 60.87C41.8552 60.87 46.31 56.4152 46.31 50.92C46.31 45.4248 41.8552 40.97 36.36 40.97C30.8648 40.97 26.41 45.4248 26.41 50.92C26.41 56.4152 30.8648 60.87 36.36 60.87Z" fill="#333333"/>
<path d="M36.36 61.43C34.2813 61.43 32.2493 60.8136 30.521 59.6588C28.7926 58.5039 27.4455 56.8625 26.65 54.942C25.8546 53.0216 25.6464 50.9084 26.052 48.8696C26.4575 46.8309 27.4585 44.9582 28.9283 43.4883C30.3982 42.0185 32.2709 41.0175 34.3096 40.612C36.3484 40.2064 38.4616 40.4146 40.382 41.21C42.3025 42.0055 43.9439 43.3526 45.0988 45.081C46.2536 46.8093 46.87 48.8413 46.87 50.92C46.8647 53.7058 45.7557 56.376 43.7859 58.3459C41.816 60.3157 39.1458 61.4247 36.36 61.43ZM36.36 41.53C34.5028 41.53 32.6874 42.0807 31.1432 43.1125C29.599 44.1443 28.3955 45.6108 27.6848 47.3266C26.9741 49.0424 26.7881 50.9304 27.1504 52.7519C27.5128 54.5734 28.4071 56.2465 29.7203 57.5597C31.0335 58.873 32.7066 59.7673 34.5281 60.1296C36.3496 60.4919 38.2376 60.3059 39.9534 59.5952C41.6692 58.8845 43.1357 57.681 44.1675 56.1368C45.1993 54.5926 45.75 52.7772 45.75 50.92C45.7474 48.4304 44.7572 46.0436 42.9968 44.2832C41.2364 42.5228 38.8496 41.5327 36.36 41.53Z" fill="#171A1C"/>
<path d="M37.35 60.87C42.8452 60.87 47.3 56.4152 47.3 50.92C47.3 45.4248 42.8452 40.97 37.35 40.97C31.8548 40.97 27.4 45.4248 27.4 50.92C27.4 56.4152 31.8548 60.87 37.35 60.87Z" fill="#171A1C"/>
<path d="M37.35 61.43C35.2713 61.43 33.2393 60.8136 31.511 59.6588C29.7826 58.5039 28.4355 56.8625 27.64 54.942C26.8446 53.0216 26.6364 50.9084 27.0419 48.8696C27.4475 46.8309 28.4485 44.9582 29.9183 43.4883C31.3882 42.0185 33.2609 41.0175 35.2996 40.612C37.3383 40.2064 39.4516 40.4146 41.372 41.21C43.2925 42.0055 44.9339 43.3526 46.0887 45.081C47.2436 46.8093 47.86 48.8413 47.86 50.92C47.8574 53.7066 46.7492 56.3783 44.7788 58.3488C42.8083 60.3192 40.1366 61.4274 37.35 61.43ZM37.35 41.53C35.4933 41.532 33.6788 42.0844 32.1359 43.1174C30.5931 44.1504 29.3911 45.6176 28.6819 47.3335C27.9727 49.0495 27.7882 50.9372 28.1516 52.758C28.5151 54.5788 29.4102 56.2511 30.7238 57.5633C32.0374 58.8755 33.7106 59.7688 35.5318 60.1303C37.353 60.4918 39.2405 60.3053 40.9557 59.5943C42.6709 58.8833 44.1368 57.6797 45.1682 56.1358C46.1995 54.5918 46.75 52.7767 46.75 50.92C46.7474 48.4287 45.7558 46.0403 43.9933 44.2797C42.2307 42.519 39.8413 41.53 37.35 41.53Z" fill="#171A1C"/>
<path d="M33.87 56.11C36.1123 56.11 37.93 53.7864 37.93 50.92C37.93 48.0536 36.1123 45.73 33.87 45.73C31.6277 45.73 29.81 48.0536 29.81 50.92C29.81 53.7864 31.6277 56.11 33.87 56.11Z" fill="white"/>
<path d="M33.87 56.67C31.33 56.67 29.25 54.09 29.25 50.92C29.25 47.75 31.33 45.17 33.87 45.17C36.41 45.17 38.49 47.75 38.49 50.92C38.49 54.09 36.42 56.67 33.87 56.67ZM33.87 46.28C31.94 46.28 30.36 48.36 30.36 50.92C30.36 53.48 31.94 55.56 33.87 55.56C35.8 55.56 37.38 53.48 37.38 50.92C37.38 48.36 35.81 46.28 33.87 46.28Z" fill="#171A1C"/>
<path d="M103.65 60.87C109.145 60.87 113.6 56.4152 113.6 50.92C113.6 45.4248 109.145 40.97 103.65 40.97C98.1548 40.97 93.7 45.4248 93.7 50.92C93.7 56.4152 98.1548 60.87 103.65 60.87Z" fill="#171A1C"/>
<path d="M103.65 61.43C101.571 61.432 99.5379 60.8173 97.8082 59.6636C96.0786 58.51 94.7299 56.8692 93.9329 54.9489C93.1359 53.0287 92.9263 50.9151 93.3307 48.8757C93.7351 46.8363 94.7353 44.9627 96.2048 43.4919C97.6742 42.021 99.5469 41.019 101.586 40.6127C103.625 40.2063 105.739 40.4139 107.66 41.2091C109.581 42.0043 111.223 43.3513 112.378 45.0799C113.533 46.8085 114.15 48.8409 114.15 50.92C114.147 53.7049 113.041 56.3751 111.072 58.3452C109.104 60.3154 106.435 61.4247 103.65 61.43ZM103.65 41.53C101.791 41.5221 99.9718 42.0661 98.4224 43.093C96.8729 44.12 95.6632 45.5837 94.9463 47.2988C94.2295 49.0139 94.0378 50.9032 94.3956 52.7273C94.7534 54.5514 95.6445 56.2282 96.9561 57.5455C98.2677 58.8627 99.9408 59.761 101.763 60.1265C103.586 60.4921 105.476 60.3085 107.194 59.599C108.912 58.8895 110.381 57.686 111.415 56.1409C112.448 54.5959 113 52.7789 113 50.92C112.995 48.4381 112.009 46.0588 110.258 44.3002C108.507 42.5415 106.132 41.5458 103.65 41.53Z" fill="#171A1C"/>
<path d="M104.64 60.87C110.135 60.87 114.59 56.4152 114.59 50.92C114.59 45.4248 110.135 40.97 104.64 40.97C99.1448 40.97 94.69 45.4248 94.69 50.92C94.69 56.4152 99.1448 60.87 104.64 60.87Z" fill="#171A1C"/>
<path d="M104.64 61.43C102.561 61.43 100.529 60.8136 98.801 59.6588C97.0726 58.5039 95.7255 56.8625 94.93 54.942C94.1346 53.0216 93.9264 50.9084 94.332 48.8696C94.7375 46.8309 95.7385 44.9582 97.2083 43.4883C98.6782 42.0185 100.551 41.0175 102.59 40.612C104.628 40.2064 106.742 40.4146 108.662 41.21C110.582 42.0055 112.224 43.3526 113.379 45.081C114.534 46.8093 115.15 48.8413 115.15 50.92C115.147 53.7066 114.039 56.3783 112.069 58.3488C110.098 60.3192 107.427 61.4274 104.64 61.43ZM104.64 41.53C102.783 41.532 100.969 42.0844 99.4259 43.1174C97.8831 44.1504 96.6811 45.6176 95.9719 47.3335C95.2627 49.0495 95.0782 50.9372 95.4417 52.758C95.8051 54.5788 96.7002 56.2511 98.0138 57.5633C99.3274 58.8755 101.001 59.7688 102.822 60.1303C104.643 60.4918 106.53 60.3053 108.246 59.5943C109.961 58.8833 111.427 57.6797 112.458 56.1358C113.49 54.5918 114.04 52.7767 114.04 50.92C114.037 48.4287 113.046 46.0403 111.283 44.2797C109.521 42.519 107.131 41.53 104.64 41.53Z" fill="#171A1C"/>
<path d="M101.16 56.23C103.452 56.23 105.31 53.8526 105.31 50.92C105.31 47.9874 103.452 45.61 101.16 45.61C98.868 45.61 97.01 47.9874 97.01 50.92C97.01 53.8526 98.868 56.23 101.16 56.23Z" fill="white"/>
<path d="M101.16 56.78C98.56 56.78 96.45 54.15 96.45 50.92C96.45 47.69 98.56 45.06 101.16 45.06C103.76 45.06 105.87 47.69 105.87 50.92C105.87 54.15 103.76 56.78 101.16 56.78ZM101.16 46.17C99.16 46.17 97.56 48.3 97.56 50.92C97.56 53.54 99.18 55.67 101.16 55.67C103.14 55.67 104.76 53.54 104.76 50.92C104.76 48.3 103.14 46.17 101.16 46.17Z" fill="#171A1C"/>
<path d="M148.64 34.79C148.86 34.79 148.98 34.84 148.98 34.9V38.83C148.98 38.9 148.86 38.94 148.64 38.94C148.355 38.9598 148.07 38.9208 147.801 38.8255C147.532 38.7301 147.286 38.5805 147.077 38.3859C146.868 38.1913 146.702 37.9558 146.588 37.6942C146.475 37.4325 146.416 37.1503 146.416 36.865C146.416 36.5797 146.475 36.2975 146.588 36.0358C146.702 35.7742 146.868 35.5387 147.077 35.3441C147.286 35.1495 147.532 34.9999 147.801 34.9045C148.07 34.8092 148.355 34.7702 148.64 34.79Z" fill="white"/>
<path d="M148.64 39.49C148.282 39.5121 147.923 39.4607 147.585 39.3387C147.247 39.2168 146.938 39.0271 146.676 38.7811C146.415 38.5352 146.206 38.2383 146.064 37.9088C145.921 37.5793 145.848 37.224 145.848 36.865C145.848 36.506 145.921 36.1507 146.064 35.8212C146.206 35.4917 146.415 35.1948 146.676 34.9489C146.938 34.7029 147.247 34.5132 147.585 34.3913C147.923 34.2693 148.282 34.2179 148.64 34.24C149.49 34.24 149.53 34.79 149.53 34.9V38.83C149.53 38.94 149.49 39.49 148.64 39.49ZM148.42 35.36C148.064 35.4183 147.741 35.6011 147.507 35.8759C147.274 36.1507 147.146 36.4995 147.146 36.86C147.146 37.2205 147.274 37.5693 147.507 37.8441C147.741 38.1188 148.064 38.3017 148.42 38.36V35.36Z" fill="#171A1C"/>
<path d="M65.21 10.82C65.5875 10.82 65.9497 10.9693 66.2176 11.2353C66.4855 11.5013 66.6374 11.8625 66.64 12.24V22.81C66.6374 23.1875 66.4855 23.5487 66.2176 23.8147C65.9497 24.0807 65.5875 24.23 65.21 24.23H31.14C30.7625 24.23 30.4002 24.0807 30.1323 23.8147C29.8645 23.5487 29.7126 23.1875 29.71 22.81V12.24C29.7126 11.8625 29.8645 11.5013 30.1323 11.2353C30.4002 10.9693 30.7625 10.82 31.14 10.82H65.21ZM65.21 8.59H31.14C30.1719 8.59 29.2436 8.97455 28.5591 9.65906C27.8745 10.3436 27.49 11.272 27.49 12.24V22.81C27.49 23.778 27.8745 24.7064 28.5591 25.3909C29.2436 26.0754 30.1719 26.46 31.14 26.46H65.21C65.6893 26.46 66.164 26.3656 66.6068 26.1822C67.0496 25.9987 67.452 25.7299 67.7909 25.3909C68.1299 25.052 68.3987 24.6496 68.5822 24.2068C68.7656 23.764 68.86 23.2893 68.86 22.81V12.24C68.86 11.7607 68.7656 11.286 68.5822 10.8432C68.3987 10.4004 68.1299 9.99799 67.7909 9.65906C67.452 9.32012 67.0496 9.05127 66.6068 8.86784C66.164 8.68441 65.6893 8.59 65.21 8.59Z" fill="#171A1C"/>
<path d="M96 48.47H95.92C95.8469 48.4616 95.7762 48.4383 95.7124 48.4016C95.6486 48.3648 95.593 48.3155 95.549 48.2565C95.505 48.1975 95.4735 48.1301 95.4565 48.0585C95.4395 47.9868 95.4372 47.9125 95.45 47.84C95.6081 46.8706 96.0145 45.9586 96.6296 45.1928C97.2447 44.427 98.0475 43.8335 98.96 43.47C99.0784 43.4649 99.1955 43.4975 99.2942 43.5631C99.393 43.6287 99.4683 43.724 99.5095 43.8352C99.5506 43.9463 99.5554 44.0677 99.5231 44.1818C99.4909 44.2959 99.4233 44.3968 99.33 44.47C98.5957 44.7641 97.9505 45.2442 97.4578 45.8631C96.9652 46.482 96.642 47.2184 96.52 48C96.4981 48.1251 96.435 48.2392 96.3408 48.3244C96.2466 48.4095 96.1266 48.4608 96 48.47Z" fill="white"/>
<path d="M28.31 48.47H28.18C28.1089 48.4546 28.0415 48.4253 27.9818 48.3837C27.9221 48.3421 27.8713 48.2891 27.8322 48.2277C27.7931 48.1663 27.7666 48.0978 27.7543 48.0261C27.7419 47.9544 27.7438 47.8809 27.76 47.81C27.9957 46.8849 28.4275 46.0212 29.0262 45.2776C29.6249 44.5339 30.3765 43.9277 31.23 43.5C31.2963 43.4701 31.3678 43.4536 31.4405 43.4514C31.5132 43.4493 31.5855 43.4617 31.6534 43.4877C31.7213 43.5137 31.7834 43.553 31.836 43.6031C31.8886 43.6533 31.9308 43.7134 31.96 43.78C31.9899 43.8463 32.0064 43.9178 32.0086 43.9905C32.0107 44.0632 31.9984 44.1355 31.9723 44.2034C31.9463 44.2713 31.907 44.3334 31.8569 44.386C31.8067 44.4386 31.7466 44.4808 31.68 44.51C30.9922 44.8638 30.3854 45.3568 29.8982 45.9576C29.411 46.5584 29.0541 47.2539 28.85 48C28.829 48.1291 28.7636 48.2467 28.6649 48.3326C28.5663 48.4184 28.4407 48.467 28.31 48.47Z" fill="white"/>
</g>
<defs>
<clipPath id="clip0_835_3149">
<rect width="163.43" height="62.54" fill="white"/>
</clipPath>
</defs>
</svg>
