<svg width="167" height="77" viewBox="0 0 167 77" fill="none" xmlns="http://www.w3.org/2000/svg">
<g clip-path="url(#clip0_835_3198)">
<path d="M134.32 74.71C139.688 74.71 144.04 69.9239 144.04 64.02C144.04 58.1161 139.688 53.33 134.32 53.33C128.952 53.33 124.6 58.1161 124.6 64.02C124.6 69.9239 128.952 74.71 134.32 74.71Z" fill="#171A1C"/>
<path d="M134.32 75.27C128.66 75.27 124.05 70.27 124.05 64.02C124.05 57.77 128.66 52.78 134.32 52.78C139.98 52.78 144.6 57.78 144.6 64.02C144.6 70.26 140 75.27 134.32 75.27ZM134.32 53.89C129.32 53.89 125.16 58.43 125.16 64.02C125.16 69.61 129.27 74.16 134.32 74.16C139.37 74.16 143.48 69.61 143.48 64.02C143.48 58.43 139.37 53.89 134.32 53.89Z" fill="#171A1C"/>
<path d="M136.27 74.71C141.638 74.71 145.99 69.9239 145.99 64.02C145.99 58.1161 141.638 53.33 136.27 53.33C130.902 53.33 126.55 58.1161 126.55 64.02C126.55 69.9239 130.902 74.71 136.27 74.71Z" fill="#171A1C"/>
<path d="M136.27 75.27C130.6 75.27 125.99 70.27 125.99 64.02C125.99 57.77 130.6 52.78 136.27 52.78C141.94 52.78 146.54 57.78 146.54 64.02C146.54 70.26 141.93 75.27 136.27 75.27ZM136.27 53.89C131.21 53.89 127.1 58.43 127.1 64.02C127.1 69.61 131.21 74.16 136.27 74.16C141.33 74.16 145.43 69.61 145.43 64.02C145.43 58.43 141.32 53.89 136.27 53.89Z" fill="#171A1C"/>
<path d="M62.11 74.71C67.7764 74.71 72.37 69.9239 72.37 64.02C72.37 58.1161 67.7764 53.33 62.11 53.33C56.4436 53.33 51.85 58.1161 51.85 64.02C51.85 69.9239 56.4436 74.71 62.11 74.71Z" fill="#171A1C"/>
<path d="M62.11 75.27C59.8695 75.3557 57.6545 74.7699 55.7492 73.5879C53.8439 72.4059 52.3353 70.6815 51.417 68.636C50.4986 66.5906 50.2124 64.3174 50.5951 62.1081C50.9778 59.8989 52.0119 57.8543 53.5647 56.2369C55.1175 54.6195 57.1182 53.503 59.3101 53.0307C61.5019 52.5583 63.7849 52.7517 65.8661 53.586C67.9472 54.4203 69.7316 55.8574 70.9903 57.713C72.2489 59.5685 72.9244 61.7579 72.93 64C72.9863 66.9284 71.8787 69.7595 69.8503 71.8723C67.8219 73.985 65.0382 75.207 62.11 75.27ZM62.11 53.89C60.0871 53.8041 58.0848 54.3258 56.361 55.3879C54.6372 56.45 53.2709 58.0038 52.4379 59.8492C51.6049 61.6946 51.3435 63.7472 51.6872 65.7425C52.031 67.7378 52.9642 69.5845 54.3667 71.0448C55.7692 72.5051 57.5768 73.5121 59.5566 73.9361C61.5364 74.36 63.5979 74.1816 65.4754 73.4238C67.3529 72.6659 68.9606 71.3634 70.0914 69.6838C71.2221 68.0043 71.8242 66.0247 71.82 64C71.8683 61.3731 70.8735 58.8341 69.0535 56.9391C67.2335 55.0442 64.7367 53.9478 62.11 53.89Z" fill="#171A1C"/>
<path d="M64.17 74.71C69.8364 74.71 74.43 69.9239 74.43 64.02C74.43 58.1161 69.8364 53.33 64.17 53.33C58.5036 53.33 53.91 58.1161 53.91 64.02C53.91 69.9239 58.5036 74.71 64.17 74.71Z" fill="#171A1C"/>
<path d="M64.17 75.27C61.9298 75.3537 59.7157 74.7662 57.8117 73.5829C55.9077 72.3996 54.4007 70.6744 53.4839 68.6287C52.5671 66.583 52.2823 64.3101 52.6662 62.1014C53.0501 59.8928 54.085 57.8492 55.6383 56.2328C57.1916 54.6164 59.1924 53.5009 61.384 53.0295C63.5756 52.558 65.8581 52.752 67.9386 53.5867C70.0192 54.4213 71.803 55.8585 73.0611 57.7139C74.3193 59.5693 74.9945 61.7583 75 64C75.0292 65.4512 74.7722 66.8939 74.2437 68.2457C73.7151 69.5976 72.9255 70.832 71.9197 71.8786C70.914 72.9252 69.712 73.7633 68.3823 74.3453C67.0525 74.9272 65.6212 75.2414 64.17 75.27ZM64.17 53.89C62.1471 53.8041 60.1448 54.3258 58.421 55.3879C56.6973 56.45 55.3309 58.0038 54.4979 59.8492C53.6649 61.6946 53.4035 63.7472 53.7472 65.7425C54.091 67.7378 55.0242 69.5845 56.4267 71.0448C57.8293 72.5051 59.6368 73.5121 61.6166 73.9361C63.5965 74.36 65.6579 74.1816 67.5354 73.4238C69.4129 72.6659 71.0206 71.3634 72.1514 69.6838C73.2821 68.0043 73.8842 66.0247 73.88 64C73.9283 61.3731 72.9335 58.8341 71.1135 56.9391C69.2935 55.0442 66.7967 53.9478 64.17 53.89Z" fill="#171A1C"/>
<path d="M19 1.67H120.61C122.024 1.67 123.379 2.23155 124.379 3.23112C125.378 4.23069 125.94 5.58639 125.94 7V60.82H13.7V7C13.7 5.59158 14.2574 4.2404 15.2505 3.24169C16.2436 2.24298 17.5916 1.67793 19 1.67Z" fill="white"/>
<path d="M127.61 62.48H12V7.6C12.0013 6.59979 12.1998 5.60966 12.5841 4.68622C12.9683 3.76278 13.5309 2.92415 14.2395 2.2183C14.9482 1.51244 15.789 0.953204 16.7139 0.572568C17.6389 0.191933 18.6298 -0.00263373 19.63 -4.2168e-06H120C122.015 0.00264166 123.946 0.804203 125.371 2.22891C126.796 3.65361 127.597 5.58516 127.6 7.6L127.61 62.48ZM15.37 59.15H124.27V7.6C124.27 7.03972 124.159 6.48495 123.945 5.96745C123.73 5.44995 123.415 4.97989 123.019 4.58418C122.622 4.18847 122.151 3.87489 121.633 3.66139C121.115 3.4479 120.56 3.33868 120 3.34H19.63C18.5002 3.34 17.4166 3.78882 16.6177 4.58772C15.8188 5.38663 15.37 6.47017 15.37 7.6V59.15Z" fill="#171A1C"/>
<path d="M86.38 1.66999H120.61C122.024 1.66999 123.379 2.23154 124.379 3.23111C125.378 4.23068 125.94 5.58638 125.94 6.99999V60.82H81V6.99999C81 6.29582 81.1395 5.59862 81.4105 4.94867C81.6814 4.29872 82.0785 3.70892 82.5788 3.21332C83.079 2.71773 83.6725 2.32617 84.3249 2.06127C84.9774 1.79637 85.6759 1.66338 86.38 1.66999Z" fill="white"/>
<path d="M127.61 62.48H79.38V7.59999C79.3813 6.60063 79.5795 5.61132 79.9631 4.68853C80.3468 3.76574 80.9084 2.92756 81.616 2.22184C82.3236 1.51611 83.1632 0.956664 84.087 0.575439C85.0108 0.194215 86.0006 -0.00132276 87 -8.67926e-06H120C122.015 0.0026372 123.946 0.804199 125.371 2.2289C126.796 3.65361 127.597 5.58516 127.6 7.59999L127.61 62.48ZM82.71 59.15H124.27V7.59999C124.27 7.03972 124.159 6.48495 123.945 5.96745C123.73 5.44995 123.415 4.97988 123.019 4.58418C122.622 4.18847 122.151 3.87489 121.633 3.66139C121.115 3.44789 120.56 3.33868 120 3.33999H87C86.4384 3.33736 85.8818 3.44553 85.3621 3.65832C84.8424 3.8711 84.3697 4.18431 83.9713 4.58002C83.5728 4.97573 83.2562 5.44616 83.0398 5.96437C82.8234 6.48259 82.7113 7.0384 82.71 7.59999V59.15Z" fill="#171A1C"/>
<path d="M155.07 46.52V61.35H88.8V16.45C88.8 15.7487 88.9381 15.0543 89.2065 14.4065C89.4748 13.7586 89.8682 13.1699 90.3641 12.6741C91.3655 11.6726 92.7237 11.11 94.14 11.11H130.65C131.583 11.1104 132.502 11.3449 133.321 11.7921C134.141 12.2394 134.835 12.885 135.34 13.67L150.26 36.76C150.26 36.76 155.07 41.66 155.07 46.52Z" fill="white"/>
<path d="M156.74 63H87.13V16.45C87.13 14.5935 87.8675 12.813 89.1803 11.5002C90.493 10.1875 92.2735 9.45 94.13 9.45H130.64C131.852 9.44765 133.045 9.75056 134.11 10.3308C135.174 10.911 136.075 11.7499 136.73 12.77L151.56 35.77C152.38 36.64 156.73 41.49 156.73 46.56L156.74 63ZM90.46 59.68H153.4V46.52C153.4 42.42 149.11 37.98 149.07 37.93L148.86 37.67L133.94 14.57C133.585 14.0202 133.098 13.5682 132.523 13.2554C131.948 12.9427 131.304 12.7792 130.65 12.78H94.14C93.1657 12.78 92.2312 13.1663 91.5414 13.8543C90.8515 14.5423 90.4626 15.4757 90.46 16.45V59.68Z" fill="#171A1C"/>
<path d="M152.9 52.27L125.84 52.27C125.227 52.27 124.64 52.0266 124.207 51.5934C123.773 51.1602 123.53 50.5726 123.53 49.96V47.85C123.53 47.2373 123.773 46.6498 124.207 46.2166C124.64 45.7834 125.227 45.54 125.84 45.54H153.9C154.247 45.54 154.581 45.678 154.826 45.9237C155.072 46.1694 155.21 46.5026 155.21 46.85V49.95C155.21 50.5626 154.967 51.1502 154.533 51.5834C154.1 52.0166 153.513 52.26 152.9 52.26V52.27Z" fill="#171A1C"/>
<path d="M152.65 52.82H126.11C125.283 52.8147 124.492 52.4826 123.91 51.8962C123.327 51.3098 123 50.5167 123 49.69V48.15C122.997 47.739 123.076 47.3314 123.231 46.9507C123.385 46.5699 123.614 46.2234 123.903 45.9309C124.191 45.6384 124.535 45.4056 124.914 45.2459C125.292 45.0862 125.699 45.0026 126.11 45H153.76C154.29 45 154.799 45.2107 155.174 45.5858C155.549 45.9609 155.76 46.4696 155.76 47V49.65C155.765 50.0627 155.689 50.4724 155.535 50.8555C155.382 51.2385 155.154 51.5874 154.865 51.8821C154.575 52.1767 154.231 52.4112 153.851 52.5722C153.471 52.7332 153.063 52.8174 152.65 52.82ZM126.11 46.14C125.58 46.14 125.071 46.3507 124.696 46.7258C124.321 47.1009 124.11 47.6096 124.11 48.14V49.68C124.11 50.2104 124.321 50.7191 124.696 51.0942C125.071 51.4693 125.58 51.68 126.11 51.68H152.65C153.18 51.68 153.689 51.4693 154.064 51.0942C154.439 50.7191 154.65 50.2104 154.65 49.68V47C154.65 46.7613 154.555 46.5324 154.386 46.3636C154.218 46.1948 153.989 46.1 153.75 46.1L126.11 46.14Z" fill="#171A1C"/>
<path d="M126.97 51.15C128.202 51.15 129.2 50.1516 129.2 48.92C129.2 47.6884 128.202 46.69 126.97 46.69C125.738 46.69 124.74 47.6884 124.74 48.92C124.74 50.1516 125.738 51.15 126.97 51.15Z" fill="white"/>
<path d="M127 51.71C126.448 51.712 125.907 51.55 125.447 51.2447C124.987 50.9393 124.628 50.5042 124.415 49.9946C124.203 49.485 124.146 48.9237 124.252 48.3818C124.359 47.84 124.624 47.3419 125.014 46.9507C125.403 46.5595 125.901 46.2928 126.442 46.1844C126.983 46.0759 127.545 46.1306 128.055 46.3414C128.566 46.5523 129.002 46.9099 129.309 47.3689C129.616 47.8279 129.78 48.3678 129.78 48.92C129.78 49.6582 129.487 50.3663 128.966 50.8893C128.445 51.4122 127.738 51.7073 127 51.71ZM127 47.25C126.67 47.25 126.347 47.3479 126.072 47.5314C125.798 47.7149 125.584 47.9758 125.457 48.2809C125.331 48.5861 125.298 48.9218 125.362 49.2458C125.427 49.5697 125.586 49.8673 125.819 50.1009C126.053 50.3344 126.35 50.4935 126.674 50.5579C126.998 50.6223 127.334 50.5893 127.639 50.4629C127.944 50.3365 128.205 50.1224 128.389 49.8478C128.572 49.5732 128.67 49.2503 128.67 48.92C128.667 48.4779 128.491 48.0546 128.178 47.742C127.865 47.4294 127.442 47.2526 127 47.25Z" fill="#171A1C"/>
<path d="M158.43 62.48H7.22999C7.00049 62.4978 6.76979 62.4679 6.55237 62.3923C6.33495 62.3167 6.13551 62.197 5.96657 62.0407C5.79762 61.8843 5.66283 61.6947 5.57064 61.4838C5.47845 61.2729 5.43086 61.0452 5.43086 60.815C5.43086 60.5848 5.47845 60.3571 5.57064 60.1462C5.66283 59.9352 5.79762 59.7457 5.96657 59.5893C6.13551 59.433 6.33495 59.3132 6.55237 59.2376C6.76979 59.162 7.00049 59.1322 7.22999 59.15H158.43C158.66 59.1322 158.89 59.162 159.108 59.2376C159.325 59.3132 159.524 59.433 159.693 59.5893C159.862 59.7457 159.997 59.9352 160.089 60.1462C160.182 60.3571 160.229 60.5848 160.229 60.815C160.229 61.0452 160.182 61.2729 160.089 61.4838C159.997 61.6947 159.862 61.8843 159.693 62.0407C159.524 62.197 159.325 62.3167 159.108 62.3923C158.89 62.4679 158.66 62.4978 158.43 62.48Z" fill="#171A1C"/>
<path d="M165.1 76.93H1.67C1.4405 76.9478 1.2098 76.918 0.992376 76.8424C0.774956 76.7668 0.575514 76.647 0.40657 76.4907C0.237626 76.3343 0.102829 76.1447 0.0106406 75.9338C-0.0815473 75.7229 -0.129135 75.4952 -0.129135 75.265C-0.129135 75.0348 -0.0815473 74.8071 0.0106406 74.5962C0.102829 74.3853 0.237626 74.1957 0.40657 74.0393C0.575514 73.883 0.774956 73.7632 0.992376 73.6876C1.2098 73.612 1.4405 73.5822 1.67 73.6H165.1C165.33 73.5822 165.56 73.612 165.778 73.6876C165.995 73.7632 166.194 73.883 166.363 74.0393C166.532 74.1957 166.667 74.3853 166.759 74.5962C166.852 74.8071 166.899 75.0348 166.899 75.265C166.899 75.4952 166.852 75.7229 166.759 75.9338C166.667 76.1447 166.532 76.3343 166.363 76.4907C166.194 76.647 165.995 76.7668 165.778 76.8424C165.56 76.918 165.33 76.9478 165.1 76.93Z" fill="#171A1C"/>
<path d="M113.14 34.07L103.84 19.65C103.631 19.3252 103.344 19.058 103.005 18.8729C102.666 18.6877 102.286 18.5904 101.9 18.59H96.72C96.4158 18.59 96.1146 18.6501 95.8337 18.7668C95.5528 18.8835 95.2977 19.0545 95.083 19.2701C94.8684 19.4857 94.6985 19.7415 94.583 20.0229C94.4675 20.3043 94.4087 20.6058 94.41 20.91V35.5C94.4086 35.8054 94.4681 36.108 94.585 36.3902C94.7019 36.6724 94.8738 36.9285 95.0907 37.1435C95.3076 37.3586 95.5651 37.5282 95.8483 37.6427C96.1315 37.7571 96.4346 37.814 96.74 37.81L111.22 37.63C111.633 37.626 112.037 37.5113 112.391 37.2979C112.745 37.0845 113.035 36.7802 113.231 36.4166C113.427 36.0531 113.522 35.6437 113.506 35.2309C113.49 34.8182 113.364 34.4173 113.14 34.07Z" fill="#171A1C"/>
<path d="M96.72 38.37C95.9588 38.37 95.2288 38.0676 94.6906 37.5294C94.1524 36.9912 93.85 36.2612 93.85 35.5V20.91C93.8447 20.5297 93.915 20.1522 94.0569 19.7994C94.1987 19.4466 94.4093 19.1254 94.6763 18.8547C94.9434 18.5839 95.2615 18.3689 95.6124 18.2222C95.9632 18.0755 96.3397 18 96.72 18H101.9C102.379 17.9989 102.851 18.1183 103.272 18.3472C103.693 18.5761 104.05 18.9072 104.31 19.31L113.61 33.73C113.887 34.1618 114.043 34.66 114.063 35.1727C114.082 35.6854 113.963 36.1939 113.719 36.6452C113.475 37.0965 113.115 37.4742 112.675 37.7388C112.236 38.0035 111.733 38.1455 111.22 38.15L96.75 38.33L96.72 38.37ZM96.72 19.15C96.2602 19.1604 95.8227 19.3505 95.5013 19.6794C95.1798 20.0084 94.9999 20.4501 95 20.91V35.5C95.0008 35.9691 95.1879 36.4187 95.52 36.75C95.8607 37.0665 96.3051 37.2478 96.77 37.26L111.25 37.08C111.564 37.0792 111.873 36.9932 112.142 36.8312C112.411 36.6692 112.632 36.4372 112.78 36.16C112.934 35.884 113.009 35.5709 112.996 35.2552C112.984 34.9394 112.885 34.6331 112.71 34.37L103.38 20C103.219 19.7543 102.999 19.5526 102.741 19.4129C102.483 19.2733 102.194 19.2001 101.9 19.2L96.72 19.15Z" fill="#171A1C"/>
<path d="M139.09 17.55L112.46 18C112.141 18.0046 111.829 18.095 111.556 18.2617C111.284 18.4284 111.062 18.6653 110.912 18.9475C110.763 19.2297 110.692 19.5469 110.708 19.8657C110.723 20.1846 110.824 20.4935 111 20.76L120.13 35.36C120.604 36.1175 121.263 36.7417 122.045 37.1739C122.827 37.606 123.706 37.8318 124.6 37.83H151.6" fill="#171A1C"/>
<path d="M151.62 38.39H124.62C123.631 38.3941 122.657 38.1443 121.792 37.6646C120.928 37.1849 120.2 36.4912 119.68 35.65L110.55 21.05C110.333 20.7007 110.212 20.3001 110.2 19.8889C110.187 19.4777 110.284 19.0706 110.48 18.709C110.676 18.3474 110.965 18.0441 111.316 17.83C111.667 17.6159 112.069 17.4986 112.48 17.49L139.11 16.99V18.1L112.48 18.6C112.273 18.6127 112.072 18.6781 111.897 18.7901C111.722 18.9021 111.578 19.057 111.48 19.24C111.37 19.4244 111.312 19.6352 111.312 19.85C111.312 20.0648 111.37 20.2756 111.48 20.46L120.61 35.06C121.032 35.7407 121.621 36.3022 122.321 36.6908C123.021 37.0794 123.809 37.2822 124.61 37.28H151.61L151.62 38.39Z" fill="#171A1C"/>
<path d="M100.62 43.58H92.83C92.5356 43.58 92.2533 43.4631 92.0451 43.2549C91.8369 43.0467 91.72 42.7644 91.72 42.47C91.72 42.1756 91.8369 41.8933 92.0451 41.6851C92.2533 41.4769 92.5356 41.36 92.83 41.36H100.62C100.914 41.36 101.197 41.4769 101.405 41.6851C101.613 41.8933 101.73 42.1756 101.73 42.47C101.73 42.7644 101.613 43.0467 101.405 43.2549C101.197 43.4631 100.914 43.58 100.62 43.58Z" fill="#171A1C"/>
<path d="M107.1 52.84C112.82 52.84 117.48 58.03 117.76 62.48H107.29V63.59H96.45C96.45 63.59 96.45 63.47 96.45 63.24C96.4564 61.8549 96.738 60.4849 97.2786 59.2096C97.8192 57.9344 98.6079 56.7793 99.5989 55.8116C100.59 54.8439 101.763 54.0828 103.051 53.5727C104.339 53.0625 105.715 52.8135 107.1 52.84Z" fill="#171A1C"/>
<path d="M34.41 52.84C40.13 52.84 44.79 58.03 45.08 62.48H36.13V63.59H23.76C23.76 63.59 23.76 63.47 23.76 63.24C23.7664 61.8549 24.048 60.4849 24.5886 59.2096C25.1292 57.9344 25.9179 56.7793 26.9089 55.8116C27.8999 54.8439 29.0733 54.0828 30.3611 53.5727C31.6488 53.0625 33.0251 52.8135 34.41 52.84Z" fill="#171A1C"/>
<path d="M32.68 74.71C38.5839 74.71 43.37 69.9239 43.37 64.02C43.37 58.1161 38.5839 53.33 32.68 53.33C26.7761 53.33 21.99 58.1161 21.99 64.02C21.99 69.9239 26.7761 74.71 32.68 74.71Z" fill="#333333"/>
<path d="M32.68 75.27C30.4554 75.272 28.2801 74.6143 26.4292 73.3803C24.5783 72.1462 23.1348 70.3911 22.2812 68.3367C21.4276 66.2824 21.2022 64.0211 21.6335 61.8387C22.0648 59.6563 23.1335 57.6508 24.7045 56.0757C26.2754 54.5005 28.2781 53.4265 30.4593 52.9893C32.6406 52.5522 34.9024 52.7715 36.959 53.6197C39.0156 54.4678 40.7746 55.9066 42.0136 57.7542C43.2526 59.6019 43.916 61.7754 43.92 64C43.92 66.9838 42.7368 69.8458 40.6297 71.9585C38.5227 74.0712 35.6638 75.262 32.68 75.27ZM32.68 53.89C30.6728 53.888 28.7102 54.4818 27.0407 55.5961C25.3712 56.7105 24.07 58.2952 23.3019 60.1496C22.5338 62.004 22.3333 64.0447 22.7259 66.0131C23.1184 67.9816 24.0864 69.7892 25.5071 71.2071C26.9278 72.625 28.7373 73.5894 30.7066 73.9781C32.6758 74.3667 34.716 74.1622 36.5689 73.3904C38.4218 72.6187 40.004 71.3143 41.115 69.6427C42.226 67.971 42.8159 66.0072 42.81 64C42.8021 61.3176 41.7316 58.7477 39.833 56.8528C37.9344 54.958 35.3624 53.8926 32.68 53.89Z" fill="#171A1C"/>
<path d="M33.75 74.71C39.6539 74.71 44.44 69.9239 44.44 64.02C44.44 58.1161 39.6539 53.33 33.75 53.33C27.8461 53.33 23.06 58.1161 23.06 64.02C23.06 69.9239 27.8461 74.71 33.75 74.71Z" fill="#171A1C"/>
<path d="M33.75 75.27C31.5258 75.27 29.3515 74.6107 27.5019 73.3754C25.6523 72.1401 24.2104 70.3843 23.3583 68.3298C22.5062 66.2753 22.2823 64.0143 22.7147 61.8326C23.1472 59.6508 24.2167 57.6462 25.788 56.0721C27.3593 54.498 29.362 53.4249 31.543 52.9886C33.724 52.5523 35.9853 52.7722 38.0413 53.6206C40.0974 54.469 41.8558 55.9079 43.0943 57.7553C44.3329 59.6027 44.996 61.7758 45 64C45.0013 65.4787 44.7114 66.9431 44.1467 68.3098C43.5821 69.6764 42.7538 70.9184 41.7091 71.9649C40.6644 73.0115 39.4239 73.842 38.0583 74.4091C36.6926 74.9761 35.2287 75.2687 33.75 75.27ZM33.75 53.89C31.7428 53.888 29.7802 54.4818 28.1107 55.5961C26.4412 56.7105 25.14 58.2952 24.3719 60.1496C23.6038 62.004 23.4033 64.0447 23.7959 66.0131C24.1884 67.9816 25.1564 69.7892 26.5771 71.2071C27.9978 72.625 29.8073 73.5894 31.7766 73.9781C33.7458 74.3667 35.786 74.1622 37.6389 73.3905C39.4918 72.6187 41.074 71.3143 42.185 69.6427C43.296 67.971 43.8859 66.0072 43.88 64C43.8721 61.3176 42.8016 58.7477 40.903 56.8528C39.0044 54.958 36.4324 53.8926 33.75 53.89Z" fill="#171A1C"/>
<path d="M30 69.6C32.408 69.6 34.36 67.1017 34.36 64.02C34.36 60.9383 32.408 58.44 30 58.44C27.592 58.44 25.64 60.9383 25.64 64.02C25.64 67.1017 27.592 69.6 30 69.6Z" fill="white"/>
<path d="M30 70.16C27.29 70.16 25.08 67.4 25.08 64.02C25.08 60.64 27.29 57.89 30 57.89C32.71 57.89 34.92 60.64 34.92 64.02C34.92 67.4 32.72 70.16 30 70.16ZM30 59C27.9 59 26.19 61.25 26.19 64C26.19 66.75 27.9 69 30 69C32.1 69 33.81 66.75 33.81 64C33.81 61.25 32.1 59 30 59Z" fill="#171A1C"/>
<path d="M104.96 74.71C110.864 74.71 115.65 69.9239 115.65 64.02C115.65 58.1161 110.864 53.33 104.96 53.33C99.0561 53.33 94.27 58.1161 94.27 64.02C94.27 69.9239 99.0561 74.71 104.96 74.71Z" fill="#171A1C"/>
<path d="M105 75.27C102.774 75.2779 100.596 74.6253 98.7411 73.3949C96.8862 72.1644 95.438 70.4114 94.5798 68.3576C93.7216 66.3038 93.4919 64.0416 93.9199 61.8572C94.3478 59.6728 95.4141 57.6645 96.9839 56.0864C98.5536 54.5082 100.556 53.4312 102.738 52.9916C104.92 52.552 107.184 52.7696 109.242 53.6169C111.3 54.4641 113.061 55.9029 114.302 57.7512C115.542 59.5994 116.206 61.7741 116.21 64C116.213 66.9794 115.034 69.8385 112.933 71.9508C110.832 74.0632 107.979 75.2568 105 75.27ZM105 53.89C102.992 53.8821 101.026 54.4708 99.3526 55.5815C97.6791 56.6922 96.3733 58.2749 95.6005 60.1287C94.8278 61.9826 94.623 64.0242 95.0122 65.9946C95.4014 67.9651 96.3669 69.7755 97.7864 71.1964C99.2059 72.6173 101.015 73.5847 102.985 73.9758C104.956 74.3669 106.997 74.1642 108.852 73.3933C110.707 72.6224 112.291 71.3181 113.403 69.6458C114.515 67.9735 115.106 66.0085 115.1 64C115.092 61.3228 114.026 58.7574 112.134 56.8634C110.242 54.9694 107.677 53.9005 105 53.89Z" fill="#171A1C"/>
<path d="M106.03 74.71C111.934 74.71 116.72 69.9239 116.72 64.02C116.72 58.1161 111.934 53.33 106.03 53.33C100.126 53.33 95.34 58.1161 95.34 64.02C95.34 69.9239 100.126 74.71 106.03 74.71Z" fill="#171A1C"/>
<path d="M106 75.27C103.777 75.2641 101.606 74.5997 99.7601 73.3609C97.9144 72.122 96.4772 70.3641 95.6297 68.3091C94.7822 66.254 94.5625 63.994 94.9984 61.8142C95.4342 59.6345 96.5061 57.6327 98.0786 56.0616C99.6511 54.4904 101.654 53.4204 103.834 52.9865C106.014 52.5525 108.274 52.7742 110.328 53.6235C112.383 54.4728 114.139 55.9117 115.376 57.7584C116.614 59.6052 117.276 61.7771 117.28 64C117.281 65.4812 116.99 66.9481 116.424 68.3167C115.857 69.6853 115.026 70.9287 113.978 71.9756C112.931 73.0225 111.687 73.8524 110.317 74.4177C108.948 74.983 107.481 75.2726 106 75.27ZM106 53.89C103.995 53.8959 102.036 54.4964 100.372 55.6156C98.7074 56.7347 97.4124 58.3222 96.6505 60.1773C95.8885 62.0324 95.6937 64.0718 96.0908 66.0376C96.4879 68.0034 97.4589 69.8073 98.8812 71.2212C100.304 72.6351 102.113 73.5955 104.081 73.9809C106.049 74.3664 108.088 74.1595 109.938 73.3866C111.789 72.6136 113.368 71.3093 114.478 69.6385C115.587 67.9677 116.176 66.0055 116.17 64C116.166 62.6684 115.9 61.3506 115.387 60.1219C114.873 58.8931 114.123 57.7775 113.179 56.8387C112.234 55.8999 111.114 55.1563 109.883 54.6504C108.651 54.1444 107.332 53.8861 106 53.89Z" fill="#171A1C"/>
<path d="M102.29 69.72C104.753 69.72 106.75 67.168 106.75 64.02C106.75 60.872 104.753 58.32 102.29 58.32C99.8268 58.32 97.83 60.872 97.83 64.02C97.83 67.168 99.8268 69.72 102.29 69.72Z" fill="white"/>
<path d="M102.29 70.28C99.52 70.28 97.29 67.47 97.29 64.02C97.29 60.57 99.54 57.77 102.29 57.77C105.04 57.77 107.29 60.57 107.29 64.02C107.29 67.47 105.06 70.28 102.29 70.28ZM102.29 58.88C100.14 58.88 98.39 61.19 98.39 64.02C98.39 66.85 100.14 69.17 102.29 69.17C104.44 69.17 106.2 66.86 106.2 64.02C106.2 61.18 104.44 58.88 102.29 58.88Z" fill="#171A1C"/>
<path d="M153.16 46.86C153.38 46.86 153.43 46.86 153.43 46.97V50.87C153.43 50.94 153.38 50.98 153.16 50.98C152.614 50.98 152.09 50.763 151.703 50.3766C151.317 49.9903 151.1 49.4663 151.1 48.92C151.1 48.3737 151.317 47.8497 151.703 47.4634C152.09 47.077 152.614 46.86 153.16 46.86Z" fill="white"/>
<path d="M153.16 51.53C152.468 51.53 151.804 51.255 151.314 50.7655C150.825 50.2761 150.55 49.6122 150.55 48.92C150.55 48.2278 150.825 47.5639 151.314 47.0744C151.804 46.585 152.468 46.31 153.16 46.31C153.94 46.31 153.98 46.86 153.98 46.97V50.87C154 51 153.94 51.53 153.16 51.53ZM152.87 47.45C152.531 47.5189 152.226 47.7028 152.007 47.9707C151.788 48.2386 151.669 48.574 151.669 48.92C151.669 49.266 151.788 49.6014 152.007 49.8693C152.226 50.1372 152.531 50.3211 152.87 50.39V47.45Z" fill="#171A1C"/>
<path d="M96.71 61.35H96.63C96.4846 61.3277 96.3538 61.2492 96.2659 61.1313C96.178 61.0134 96.1399 60.8657 96.16 60.72C96.3286 59.6852 96.7627 58.7119 97.42 57.8951C98.0773 57.0783 98.9352 56.446 99.91 56.06C99.9809 56.0259 100.058 56.0071 100.137 56.0049C100.216 56.0026 100.294 56.017 100.367 56.0471C100.439 56.0771 100.505 56.1222 100.559 56.1793C100.613 56.2364 100.655 56.3043 100.681 56.3785C100.707 56.4528 100.717 56.5317 100.711 56.6101C100.705 56.6886 100.682 56.7648 100.644 56.8338C100.606 56.9028 100.554 56.9631 100.491 57.0107C100.429 57.0583 100.357 57.0921 100.28 57.11C99.5029 57.4348 98.8204 57.9507 98.296 58.6098C97.7715 59.2689 97.422 60.0498 97.28 60.88C97.2582 61.0142 97.1884 61.1358 97.0835 61.2223C96.9786 61.3088 96.8459 61.3542 96.71 61.35Z" fill="white"/>
<path d="M24 61.35H23.88C23.8089 61.3346 23.7415 61.3053 23.6818 61.2637C23.6221 61.2221 23.5712 61.1691 23.5322 61.1077C23.4931 61.0463 23.4666 60.9778 23.4542 60.9061C23.4418 60.8344 23.4438 60.7609 23.46 60.69C23.7113 59.703 24.1717 58.7815 24.81 57.9878C25.4484 57.1942 26.2498 56.547 27.16 56.09C27.2953 56.0291 27.4492 56.0245 27.5879 56.077C27.7266 56.1294 27.8389 56.2348 27.9 56.37C27.9299 56.4363 27.9464 56.5078 27.9485 56.5805C27.9507 56.6532 27.9383 56.7255 27.9123 56.7934C27.8863 56.8613 27.847 56.9234 27.7968 56.976C27.7467 57.0286 27.6866 57.0708 27.62 57.1C26.8661 57.487 26.2028 58.0293 25.6736 58.6911C25.1445 59.353 24.7615 60.1194 24.55 60.94C24.5153 61.0588 24.4428 61.163 24.3436 61.237C24.2444 61.311 24.1238 61.3506 24 61.35Z" fill="white"/>
</g>
<defs>
<clipPath id="clip0_835_3198">
<rect width="166.77" height="76.93" fill="white"/>
</clipPath>
</defs>
</svg>
