<svg width="186" height="87" viewBox="0 0 186 87" fill="none" xmlns="http://www.w3.org/2000/svg">
<g clip-path="url(#clip0_835_3252)">
<path d="M153.91 84.17C159.195 84.17 163.48 79.4556 163.48 73.64C163.48 67.8244 159.195 63.11 153.91 63.11C148.625 63.11 144.34 67.8244 144.34 73.64C144.34 79.4556 148.625 84.17 153.91 84.17Z" fill="#171A1C"/>
<path d="M153.91 84.72C148.33 84.72 143.79 79.72 143.79 73.64C143.79 67.56 148.33 62.56 153.91 62.56C159.49 62.56 164 67.53 164 73.64C164 79.75 159.49 84.72 153.91 84.72ZM153.91 63.72C148.91 63.72 144.91 68.19 144.91 73.72C144.91 79.25 148.91 83.72 153.91 83.72C158.91 83.72 162.91 79.24 162.91 73.72C162.91 68.2 158.88 63.67 153.91 63.67V63.72Z" fill="#171A1C"/>
<path d="M155.83 84.17C161.115 84.17 165.4 79.4556 165.4 73.64C165.4 67.8244 161.115 63.11 155.83 63.11C150.545 63.11 146.26 67.8244 146.26 73.64C146.26 79.4556 150.545 84.17 155.83 84.17Z" fill="#171A1C"/>
<path d="M155.83 84.72C150.24 84.72 145.7 79.72 145.7 73.64C145.7 67.56 150.24 62.56 155.83 62.56C161.42 62.56 166 67.53 166 73.64C166 79.75 161.41 84.72 155.83 84.72ZM155.83 63.72C150.83 63.72 146.83 68.19 146.83 73.72C146.83 79.25 150.88 83.72 155.83 83.72C160.78 83.72 164.83 79.24 164.83 73.72C164.83 68.2 160.79 63.67 155.83 63.67V63.72Z" fill="#171A1C"/>
<path d="M63.31 84.17C68.8936 84.17 73.42 79.4556 73.42 73.64C73.42 67.8244 68.8936 63.11 63.31 63.11C57.7264 63.11 53.2 67.8244 53.2 73.64C53.2 79.4556 57.7264 84.17 63.31 84.17Z" fill="#171A1C"/>
<path d="M63.31 84.72C61.1009 84.7997 58.9183 84.2174 57.0425 83.0479C55.1667 81.8783 53.6832 80.1749 52.7825 78.1562C51.8817 76.1375 51.6048 73.8956 51.9873 71.7184C52.3697 69.5412 53.3941 67.528 54.929 65.9371C56.4638 64.3463 58.4391 63.2504 60.6012 62.7902C62.7633 62.33 65.0136 62.5264 67.0633 63.3543C69.113 64.1822 70.8685 65.6037 72.1045 67.4364C73.3405 69.2692 74.0006 71.4294 74 73.64C74.0508 76.5266 72.9534 79.3153 70.9488 81.393C68.9442 83.4707 66.1966 84.6674 63.31 84.72ZM63.31 63.72C61.3158 63.6322 59.3409 64.1432 57.6396 65.1872C55.9383 66.2313 54.5883 67.7607 53.7635 69.5784C52.9388 71.3962 52.6769 73.4192 53.0116 75.3871C53.3463 77.355 54.2623 79.1777 55.6417 80.6206C57.0211 82.0634 58.8007 83.0605 60.7516 83.4834C62.7024 83.9062 64.7352 83.7356 66.5882 82.9934C68.4412 82.2512 70.0297 80.9714 71.1493 79.3187C72.2688 77.666 72.8681 75.7161 72.87 73.72C72.9059 72.4314 72.6867 71.1485 72.225 69.945C71.7634 68.7414 71.0683 67.641 70.1799 66.707C69.2914 65.773 68.2271 65.0239 67.0481 64.5027C65.8691 63.9815 64.5987 63.6985 63.31 63.67V63.72Z" fill="#171A1C"/>
<path d="M65.34 84.17C70.9236 84.17 75.45 79.4556 75.45 73.64C75.45 67.8244 70.9236 63.11 65.34 63.11C59.7564 63.11 55.23 67.8244 55.23 73.64C55.23 79.4556 59.7564 84.17 65.34 84.17Z" fill="#171A1C"/>
<path d="M65.34 84.72C63.1299 84.8058 60.9446 84.2287 59.065 83.063C57.1853 81.8972 55.6972 80.1961 54.7918 78.1781C53.8864 76.1601 53.605 73.9175 53.984 71.7384C54.3629 69.5594 55.3847 67.5433 56.9182 65.9495C58.4516 64.3556 60.4267 63.2566 62.5895 62.7938C64.7523 62.331 67.0041 62.5255 69.0556 63.3523C71.107 64.1791 72.8644 65.6004 74.1018 67.4336C75.3393 69.2669 76.0003 71.4282 76 73.64C76.0483 76.5208 74.954 79.3035 72.9564 81.3798C70.9589 83.456 68.2205 84.657 65.34 84.72ZM65.34 63.72C63.3455 63.6302 61.3697 64.1394 59.6671 65.1822C57.9645 66.225 56.613 67.7535 55.7867 69.5711C54.9604 71.3886 54.697 73.4119 55.0305 75.3804C55.364 77.3489 56.2792 79.1725 57.6581 80.6164C59.037 82.0602 60.8166 83.0583 62.7676 83.4821C64.7187 83.9058 66.752 83.7358 68.6056 82.994C70.4592 82.2521 72.0483 80.9724 73.1683 79.3196C74.2884 77.6668 74.888 75.7166 74.89 73.72C74.9259 72.4323 74.7071 71.1501 74.246 69.9472C73.785 68.7443 73.0908 67.6443 72.2034 66.7105C71.316 65.7766 70.2529 65.0273 69.075 64.5055C67.8972 63.9837 66.6279 63.6998 65.34 63.67V63.72Z" fill="#171A1C"/>
<path d="M140.45 70.29H14.65V7.87C14.6527 6.22474 15.3081 4.64777 16.4724 3.48533C17.6367 2.32289 19.2147 1.67 20.86 1.67H141.23C142.874 1.67264 144.449 2.3267 145.611 3.48886C146.773 4.65101 147.427 6.22647 147.43 7.87L140.45 70.29Z" fill="white"/>
<path d="M141.94 72H13V7.87C13.0026 5.78529 13.8313 3.78657 15.3045 2.31152C16.7776 0.836464 18.7753 0.00528948 20.86 0L141.23 0C143.316 0.00264609 145.317 0.832654 146.792 2.30799C148.267 3.78333 149.097 5.78356 149.1 7.87V8.06L141.94 72ZM16.32 68.62H139L145.8 7.79C145.779 6.60249 145.293 5.47071 144.445 4.6384C143.598 3.80608 142.458 3.33981 141.27 3.34H20.86C19.6576 3.34 18.5044 3.81694 17.6533 4.6662C16.8021 5.51545 16.3226 6.66765 16.32 7.87V68.62Z" fill="#171A1C"/>
<path d="M104.77 1.66999H142.1C143.514 1.66999 144.869 2.23154 145.869 3.23111C146.868 4.23068 147.43 5.58639 147.43 6.99999V70.29H99.43V6.99999C99.43 6.2992 99.5682 5.6053 99.8367 4.95798C100.105 4.31066 100.499 3.72264 100.995 3.22757C101.491 2.73251 102.079 2.34011 102.727 2.07284C103.375 1.80557 104.069 1.66868 104.77 1.66999Z" fill="white"/>
<path d="M149.1 72H97.77V7.6C97.7726 5.58517 98.5742 3.65361 99.9989 2.22891C101.424 0.804208 103.355 0.00264588 105.37 0L141.5 0C143.515 0.00264588 145.446 0.804208 146.871 2.22891C148.296 3.65361 149.097 5.58517 149.1 7.6V72ZM101.1 68.67H145.75V7.6C145.75 6.47018 145.301 5.38663 144.502 4.58773C143.703 3.78882 142.62 3.34 141.49 3.34H105.37C104.24 3.34 103.157 3.78882 102.358 4.58773C101.559 5.38663 101.11 6.47018 101.11 7.6L101.1 68.67Z" fill="#171A1C"/>
<path d="M174.34 56.4V71H109.08V26.8C109.08 26.1084 109.216 25.4236 109.481 24.7848C109.746 24.1459 110.135 23.5656 110.624 23.0771C111.114 22.5885 111.695 22.2013 112.334 21.9375C112.973 21.6738 113.658 21.5387 114.35 21.54H150.29C151.21 21.5386 152.116 21.7676 152.924 22.206C153.733 22.6444 154.419 23.2784 154.92 24.05L169.6 46.8C169.6 46.8 174.34 51.62 174.34 56.4Z" fill="white"/>
<path d="M176 72.67H107.4V26.8C107.403 24.9611 108.135 23.1985 109.436 21.8991C110.737 20.5998 112.501 19.87 114.34 19.87H150.28C151.475 19.8711 152.65 20.172 153.698 20.745C154.746 21.3181 155.634 22.145 156.28 23.15L170.88 45.76C171.69 46.62 175.97 51.41 175.97 56.4L176 72.67ZM110.74 69.34H172.66V56.4C172.66 53.04 169.59 49.17 168.4 47.96L168.19 47.7L153.52 25C153.173 24.4591 152.695 24.0144 152.13 23.7069C151.566 23.3993 150.933 23.2387 150.29 23.24H114.35C113.395 23.24 112.48 23.6193 111.804 24.2944C111.129 24.9695 110.75 25.8852 110.75 26.84L110.74 69.34Z" fill="#171A1C"/>
<path d="M172.18 62.06H145.61C144.997 62.06 144.41 61.8166 143.977 61.3834C143.543 60.9502 143.3 60.3626 143.3 59.75V57.75C143.3 57.1373 143.543 56.5498 143.977 56.1166C144.41 55.6834 144.997 55.44 145.61 55.44H173.18C173.352 55.44 173.522 55.4739 173.681 55.5397C173.84 55.6055 173.985 55.702 174.106 55.8237C174.228 55.9453 174.324 56.0897 174.39 56.2487C174.456 56.4076 174.49 56.578 174.49 56.75V59.75C174.49 60.3626 174.247 60.9502 173.813 61.3834C173.38 61.8166 172.793 62.06 172.18 62.06Z" fill="#171A1C"/>
<path d="M171.92 62.61H145.86C145.032 62.61 144.237 62.2816 143.65 61.6968C143.064 61.112 142.733 60.3184 142.73 59.49V58.05C142.733 57.2207 143.063 56.4261 143.65 55.8397C144.236 55.2533 145.031 54.9226 145.86 54.92H173C173.53 54.92 174.039 55.1307 174.414 55.5058C174.789 55.8809 175 56.3896 175 56.92V59.47C175.005 60.2941 174.684 61.0867 174.107 61.675C173.53 62.2633 172.744 62.5995 171.92 62.61ZM145.86 56C145.33 56 144.821 56.2107 144.446 56.5858C144.071 56.9609 143.86 57.4696 143.86 58V59.44C143.86 59.9704 144.071 60.4791 144.446 60.8542C144.821 61.2293 145.33 61.44 145.86 61.44H171.92C172.45 61.44 172.959 61.2293 173.334 60.8542C173.709 60.4791 173.92 59.9704 173.92 59.44V56.94C173.92 56.7013 173.825 56.4724 173.656 56.3036C173.488 56.1348 173.259 56.04 173.02 56.04L145.86 56Z" fill="#171A1C"/>
<path d="M146.67 60.96C147.88 60.96 148.86 59.9795 148.86 58.77C148.86 57.5605 147.88 56.58 146.67 56.58C145.46 56.58 144.48 57.5605 144.48 58.77C144.48 59.9795 145.46 60.96 146.67 60.96Z" fill="white"/>
<path d="M146.67 61.52C146.126 61.52 145.594 61.3587 145.142 61.0565C144.69 60.7544 144.337 60.3249 144.129 59.8224C143.921 59.3199 143.867 58.767 143.973 58.2335C144.079 57.7001 144.341 57.2101 144.725 56.8255C145.11 56.4409 145.6 56.179 146.133 56.0728C146.667 55.9667 147.22 56.0212 147.722 56.2293C148.225 56.4375 148.654 56.79 148.957 57.2422C149.259 57.6944 149.42 58.2261 149.42 58.77C149.42 59.4994 149.13 60.1988 148.615 60.7145C148.099 61.2303 147.399 61.52 146.67 61.52ZM146.67 57.13C146.345 57.128 146.027 57.2225 145.756 57.4015C145.485 57.5805 145.273 57.836 145.148 58.1354C145.022 58.4349 144.988 58.765 145.05 59.0838C145.112 59.4026 145.268 59.6957 145.497 59.9261C145.726 60.1564 146.018 60.3136 146.336 60.3777C146.655 60.4418 146.985 60.4099 147.285 60.2861C147.586 60.1623 147.842 59.9521 148.023 59.6822C148.204 59.4123 148.3 59.0948 148.3 58.77C148.3 58.3368 148.129 57.9211 147.823 57.6139C147.518 57.3066 147.103 57.1326 146.67 57.13Z" fill="#171A1C"/>
<path d="M178.44 73.88H9.45C9.00709 73.88 8.58232 73.7041 8.26913 73.3909C7.95594 73.0777 7.78 72.6529 7.78 72.21C7.78 71.7671 7.95594 71.3423 8.26913 71.0291C8.58232 70.716 9.00709 70.54 9.45 70.54H178.45C178.893 70.54 179.318 70.716 179.631 71.0291C179.944 71.3423 180.12 71.7671 180.12 72.21C180.12 72.6529 179.944 73.0777 179.631 73.3909C179.318 73.7041 178.893 73.88 178.45 73.88H178.44Z" fill="#171A1C"/>
<path d="M184 86.11H1.67C1.22709 86.11 0.802317 85.934 0.489132 85.6209C0.175946 85.3077 0 84.8829 0 84.44C0 83.9971 0.175946 83.5723 0.489132 83.2591C0.802317 82.9459 1.22709 82.77 1.67 82.77H184C184.443 82.77 184.868 82.9459 185.181 83.2591C185.494 83.5723 185.67 83.9971 185.67 84.44C185.67 84.8829 185.494 85.3077 185.181 85.6209C184.868 85.934 184.443 86.11 184 86.11Z" fill="#171A1C"/>
<path d="M133.05 44.14L123.9 30C123.701 29.6716 123.423 29.3985 123.091 29.2062C122.759 29.014 122.384 28.9086 122 28.9H116.9C116.295 28.9 115.715 29.1402 115.288 29.5678C114.86 29.9954 114.62 30.5753 114.62 31.18V45.55C114.619 45.8506 114.677 46.1485 114.792 46.4264C114.907 46.7043 115.075 46.9566 115.288 47.1687C115.501 47.3808 115.754 47.5485 116.033 47.662C116.311 47.7756 116.609 47.8326 116.91 47.83L131.17 47.65C131.577 47.6462 131.976 47.5329 132.324 47.3221C132.672 47.1113 132.957 46.8108 133.15 46.4519C133.342 46.093 133.434 45.689 133.417 45.2823C133.399 44.8755 133.272 44.481 133.05 44.14Z" fill="#171A1C"/>
<path d="M116.89 48.39C116.138 48.3874 115.417 48.0873 114.885 47.5553C114.353 47.0232 114.053 46.3024 114.05 45.55V31.18C114.053 30.4285 114.353 29.7087 114.885 29.1783C115.418 28.6478 116.139 28.35 116.89 28.35H122C122.473 28.35 122.938 28.4679 123.354 28.6932C123.769 28.9184 124.122 29.2439 124.38 29.64L133.53 43.84C133.803 44.2669 133.957 44.759 133.976 45.2654C133.994 45.7717 133.877 46.2739 133.636 46.7197C133.396 47.1655 133.04 47.5389 132.606 47.8009C132.173 48.063 131.677 48.2042 131.17 48.21L116.92 48.39H116.89ZM116.89 29.46C116.433 29.46 115.994 29.6409 115.67 29.9632C115.346 30.2854 115.163 30.7229 115.16 31.18V45.55C115.162 46.011 115.345 46.4526 115.67 46.78C116.004 47.0911 116.443 47.2659 116.9 47.27L131.15 47.1C131.46 47.0966 131.763 47.0104 132.029 46.8504C132.294 46.6904 132.512 46.4624 132.66 46.19C132.806 45.9188 132.877 45.6133 132.864 45.3054C132.852 44.9976 132.757 44.6987 132.59 44.44L123.43 30.25C123.276 30.0074 123.064 29.8077 122.812 29.6696C122.56 29.5314 122.277 29.4593 121.99 29.46H116.89Z" fill="#171A1C"/>
<path d="M158.61 27.87L132.39 28.36C132.086 28.3698 131.79 28.4585 131.531 28.6175C131.272 28.7765 131.059 29.0002 130.912 29.2666C130.766 29.5331 130.692 29.833 130.696 30.137C130.701 30.4409 130.785 30.7384 130.94 31L139.94 45.37C140.408 46.1172 141.058 46.7332 141.83 47.16C142.601 47.5868 143.468 47.8105 144.35 47.81H170.96" fill="#171A1C"/>
<path d="M170.94 48.4H144.33C143.353 48.4057 142.392 48.1604 141.537 47.6876C140.683 47.2148 139.964 46.5304 139.45 45.7L130.45 31.33C130.233 30.9846 130.112 30.5874 130.099 30.1795C130.087 29.7716 130.184 29.3679 130.38 29.01C130.573 28.647 130.861 28.3435 131.213 28.1321C131.566 27.9206 131.969 27.8093 132.38 27.81L158.6 27.32V28.43L132.38 28.92C132.174 28.9278 131.973 28.9891 131.798 29.0978C131.623 29.2065 131.479 29.3589 131.38 29.54C131.272 29.7214 131.214 29.9287 131.214 30.14C131.214 30.3513 131.272 30.5586 131.38 30.74L140.38 45.11C140.796 45.7793 141.377 46.3309 142.066 46.7125C142.756 47.0941 143.532 47.2929 144.32 47.29H170.93L170.94 48.4Z" fill="#171A1C"/>
<path d="M120.63 53.87H114C113.723 53.8437 113.465 53.7149 113.277 53.5087C113.09 53.3025 112.986 53.0337 112.986 52.755C112.986 52.4763 113.09 52.2075 113.277 52.0013C113.465 51.7952 113.723 51.6663 114 51.64H120.67C120.948 51.6663 121.205 51.7952 121.393 52.0013C121.58 52.2075 121.684 52.4763 121.684 52.755C121.684 53.0337 121.58 53.3025 121.393 53.5087C121.205 53.7149 120.948 53.8437 120.67 53.87H120.63Z" fill="#171A1C"/>
<path d="M122.05 63C124.345 63.0875 126.527 64.0184 128.178 65.6144C129.83 67.2104 130.834 69.3594 131 71.65H122.87V72.77H113.16C113.145 72.5402 113.145 72.3098 113.16 72.08C113.159 69.7044 114.09 67.4232 115.752 65.7257C117.414 64.0283 119.675 63.0497 122.05 63Z" fill="#171A1C"/>
<path d="M30.76 63C35.54 63 39.44 67.24 39.68 71.68H32.8V72.8H21.8C21.8 72.8 21.8 72.3 21.8 72.11C21.7945 69.7181 22.732 67.4204 24.4092 65.715C26.0865 64.0097 28.3683 63.0342 30.76 63Z" fill="#171A1C"/>
<path d="M34.33 84.17C40.1456 84.17 44.86 79.4556 44.86 73.64C44.86 67.8244 40.1456 63.11 34.33 63.11C28.5144 63.11 23.8 67.8244 23.8 73.64C23.8 79.4556 28.5144 84.17 34.33 84.17Z" fill="#333333"/>
<path d="M34.33 84.72C32.1386 84.72 29.9964 84.0702 28.1743 82.8527C26.3522 81.6352 24.932 79.9047 24.0934 77.8801C23.2548 75.8555 23.0354 73.6277 23.4629 71.4784C23.8904 69.3291 24.9457 67.3548 26.4953 65.8053C28.0448 64.2557 30.0191 63.2004 32.1684 62.7729C34.3177 62.3454 36.5455 62.5648 38.5701 63.4034C40.5947 64.242 42.3252 65.6622 43.5427 67.4843C44.7602 69.3064 45.41 71.4486 45.41 73.64C45.4074 76.5778 44.2391 79.3945 42.1618 81.4718C40.0845 83.5491 37.2678 84.7174 34.33 84.72ZM34.33 63.72C32.3522 63.72 30.4188 64.3065 28.7743 65.4053C27.1298 66.5041 25.8481 68.0659 25.0912 69.8932C24.3343 71.7204 24.1363 73.7311 24.5221 75.6709C24.908 77.6107 25.8604 79.3925 27.2589 80.7911C28.6575 82.1896 30.4393 83.142 32.3791 83.5279C34.3189 83.9137 36.3296 83.7157 38.1568 82.9588C39.9841 82.2019 41.5459 80.9202 42.6447 79.2757C43.7435 77.6312 44.33 75.6978 44.33 73.72C44.3366 72.4026 44.0828 71.0968 43.5832 69.8778C43.0836 68.6588 42.348 67.5505 41.4188 66.6166C40.4896 65.6827 39.3849 64.9416 38.1684 64.436C36.9519 63.9303 35.6474 63.67 34.33 63.67V63.72Z" fill="#171A1C"/>
<path d="M35.38 84.17C41.1956 84.17 45.91 79.4556 45.91 73.64C45.91 67.8244 41.1956 63.11 35.38 63.11C29.5644 63.11 24.85 67.8244 24.85 73.64C24.85 79.4556 29.5644 84.17 35.38 84.17Z" fill="#171A1C"/>
<path d="M35.38 84.72C33.1886 84.72 31.0464 84.0702 29.2243 82.8527C27.4022 81.6352 25.982 79.9047 25.1434 77.8801C24.3048 75.8555 24.0854 73.6277 24.5129 71.4784C24.9404 69.3291 25.9957 67.3548 27.5453 65.8053C29.0948 64.2557 31.0691 63.2004 33.2184 62.7729C35.3677 62.3454 37.5955 62.5648 39.6201 63.4034C41.6447 64.242 43.3752 65.6622 44.5927 67.4843C45.8102 69.3064 46.46 71.4486 46.46 73.64C46.4574 76.5778 45.2891 79.3945 43.2118 81.4718C41.1345 83.5491 38.3178 84.7174 35.38 84.72ZM35.38 63.72C33.4022 63.72 31.4688 64.3065 29.8243 65.4053C28.1798 66.5041 26.8981 68.0659 26.1412 69.8932C25.3843 71.7204 25.1863 73.7311 25.5721 75.6709C25.958 77.6107 26.9104 79.3925 28.3089 80.7911C29.7075 82.1896 31.4893 83.142 33.4291 83.5279C35.3689 83.9137 37.3796 83.7157 39.2068 82.9588C41.0341 82.2019 42.5959 80.9202 43.6947 79.2757C44.7935 77.6312 45.38 75.6978 45.38 73.72C45.3866 72.4026 45.1328 71.0968 44.6332 69.8778C44.1336 68.6588 43.398 67.5505 42.4688 66.6166C41.5396 65.6827 40.4349 64.9416 39.2184 64.436C38.0019 63.9303 36.6974 63.67 35.38 63.67V63.72Z" fill="#171A1C"/>
<path d="M31.7 79.13C34.0748 79.13 36 76.672 36 73.64C36 70.6079 34.0748 68.15 31.7 68.15C29.3252 68.15 27.4 70.6079 27.4 73.64C27.4 76.672 29.3252 79.13 31.7 79.13Z" fill="white"/>
<path d="M31.7 79.68C29.02 79.68 26.84 76.97 26.84 73.68C26.84 70.39 29.02 67.68 31.7 67.68C34.38 67.68 36.55 70.39 36.55 73.68C36.55 76.97 34.37 79.68 31.7 79.68ZM31.7 68.68C29.63 68.68 27.95 70.9 27.95 73.62C27.95 76.34 29.63 78.55 31.7 78.55C33.77 78.55 35.44 76.34 35.44 73.62C35.44 70.9 33.76 68.7 31.7 68.7V68.68Z" fill="#171A1C"/>
<path d="M125 84.17C130.816 84.17 135.53 79.4556 135.53 73.64C135.53 67.8244 130.816 63.11 125 63.11C119.184 63.11 114.47 67.8244 114.47 73.64C114.47 79.4556 119.184 84.17 125 84.17Z" fill="#171A1C"/>
<path d="M125 84.72C122.809 84.72 120.666 84.0702 118.844 82.8527C117.022 81.6352 115.602 79.9047 114.763 77.8801C113.925 75.8555 113.705 73.6277 114.133 71.4784C114.56 69.3291 115.616 67.3548 117.165 65.8053C118.715 64.2557 120.689 63.2004 122.838 62.7729C124.988 62.3454 127.216 62.5648 129.24 63.4034C131.265 64.242 132.995 65.6622 134.213 67.4843C135.43 69.3064 136.08 71.4486 136.08 73.64C136.077 76.5778 134.909 79.3945 132.832 81.4718C130.754 83.5491 127.938 84.7174 125 84.72ZM125 63.72C123.022 63.72 121.089 64.3065 119.444 65.4053C117.8 66.5041 116.518 68.0659 115.761 69.8932C115.004 71.7204 114.806 73.7311 115.192 75.6709C115.578 77.6107 116.53 79.3925 117.929 80.7911C119.327 82.1896 121.109 83.142 123.049 83.5279C124.989 83.9137 127 83.7157 128.827 82.9588C130.654 82.2019 132.216 80.9202 133.315 79.2757C134.414 77.6312 135 75.6978 135 73.72C135.007 72.4026 134.753 71.0968 134.253 69.8778C133.754 68.6588 133.018 67.5505 132.089 66.6166C131.16 65.6827 130.055 64.9416 128.838 64.436C127.622 63.9303 126.317 63.67 125 63.67V63.72Z" fill="#171A1C"/>
<path d="M126.06 84.17C131.876 84.17 136.59 79.4556 136.59 73.64C136.59 67.8244 131.876 63.11 126.06 63.11C120.244 63.11 115.53 67.8244 115.53 73.64C115.53 79.4556 120.244 84.17 126.06 84.17Z" fill="#171A1C"/>
<path d="M126.06 84.72C123.869 84.72 121.726 84.0702 119.904 82.8527C118.082 81.6352 116.662 79.9047 115.823 77.8801C114.985 75.8555 114.765 73.6277 115.193 71.4784C115.62 69.3291 116.676 67.3548 118.225 65.8053C119.775 64.2557 121.749 63.2004 123.898 62.7729C126.048 62.3454 128.276 62.5648 130.3 63.4034C132.325 64.242 134.055 65.6622 135.273 67.4843C136.49 69.3064 137.14 71.4486 137.14 73.64C137.137 76.5778 135.969 79.3945 133.892 81.4718C131.814 83.5491 128.998 84.7174 126.06 84.72ZM126.06 63.72C124.082 63.72 122.149 64.3065 120.504 65.4053C118.86 66.5041 117.578 68.0659 116.821 69.8932C116.064 71.7204 115.866 73.7311 116.252 75.6709C116.638 77.6107 117.59 79.3925 118.989 80.7911C120.387 82.1896 122.169 83.142 124.109 83.5279C126.049 83.9137 128.06 83.7157 129.887 82.9588C131.714 82.2019 133.276 80.9202 134.375 79.2757C135.474 77.6312 136.06 75.6978 136.06 73.72C136.067 72.4026 135.813 71.0968 135.313 69.8778C134.814 68.6588 134.078 67.5505 133.149 66.6166C132.22 65.6827 131.115 64.9416 129.898 64.436C128.682 63.9303 127.377 63.67 126.06 63.67V63.72Z" fill="#171A1C"/>
<path d="M122.37 79.25C124.795 79.25 126.76 76.7383 126.76 73.64C126.76 70.5417 124.795 68.03 122.37 68.03C119.945 68.03 117.98 70.5417 117.98 73.64C117.98 76.7383 119.945 79.25 122.37 79.25Z" fill="white"/>
<path d="M122.37 79.81C119.64 79.81 117.37 77.04 117.37 73.64C117.37 70.24 119.59 67.47 122.37 67.47C125.15 67.47 127.32 70.23 127.32 73.64C127.32 77.05 125.1 79.81 122.37 79.81ZM122.37 68.58C120.26 68.58 118.53 70.85 118.53 73.64C118.53 76.43 120.26 78.64 122.37 78.64C124.48 78.64 126.21 76.38 126.21 73.64C126.21 70.9 124.49 68.58 122.37 68.58Z" fill="#171A1C"/>
<path d="M172.27 56.74C172.48 56.74 172.33 56.74 172.33 56.84V60.69C172.33 60.75 172.48 60.79 172.27 60.79C171.74 60.79 171.231 60.5793 170.856 60.2042C170.481 59.8291 170.27 59.3204 170.27 58.79C170.27 58.2596 170.481 57.7509 170.856 57.3758C171.231 57.0007 171.74 56.79 172.27 56.79V56.74Z" fill="white"/>
<path d="M172.27 61.35C171.586 61.35 170.93 61.0782 170.446 60.5943C169.962 60.1105 169.69 59.4543 169.69 58.77C169.69 58.0857 169.962 57.4295 170.446 56.9457C170.93 56.4618 171.586 56.19 172.27 56.19C172.397 56.1761 172.525 56.2024 172.636 56.2652C172.748 56.328 172.836 56.4241 172.89 56.54L173.03 56.88L172.88 57.04V60.49L173.01 60.62L172.89 60.99C172.839 61.1088 172.751 61.2079 172.64 61.2728C172.528 61.3377 172.398 61.3647 172.27 61.35ZM171.77 57.35C171.484 57.4517 171.237 57.6395 171.062 57.8874C170.887 58.1354 170.793 58.4315 170.793 58.735C170.793 59.0385 170.887 59.3346 171.062 59.5826C171.237 59.8306 171.484 60.0183 171.77 60.12V57.35Z" fill="#171A1C"/>
<path d="M116.88 71H116.8C116.655 70.9777 116.524 70.8992 116.436 70.7813C116.348 70.6634 116.31 70.5157 116.33 70.37C116.498 69.3494 116.927 68.3895 117.575 67.5835C118.223 66.7775 119.069 66.1528 120.03 65.77C120.148 65.7649 120.265 65.7975 120.364 65.8631C120.463 65.9287 120.538 66.024 120.579 66.1351C120.621 66.2463 120.625 66.3677 120.593 66.4818C120.561 66.5959 120.493 66.6968 120.4 66.77C119.627 67.0807 118.945 67.5835 118.42 68.2309C117.895 68.8784 117.544 69.649 117.4 70.47C117.393 70.6066 117.336 70.7359 117.24 70.8336C117.145 70.9312 117.016 70.9904 116.88 71Z" fill="white"/>
<path d="M25.81 71H25.68C25.5374 70.9644 25.4145 70.8743 25.3378 70.7489C25.2611 70.6236 25.2368 70.4731 25.27 70.33C25.5169 69.3583 25.9697 68.451 26.5977 67.6694C27.2257 66.8879 28.0143 66.2504 28.91 65.8C29.0426 65.739 29.194 65.7332 29.3309 65.7838C29.4678 65.8344 29.579 65.9374 29.64 66.07C29.701 66.2026 29.7068 66.354 29.6562 66.4909C29.6056 66.6278 29.5026 66.739 29.37 66.8C28.6366 67.187 27.9913 67.7218 27.475 68.3706C26.9586 69.0195 26.5824 69.7684 26.37 70.57C26.342 70.696 26.2705 70.8081 26.1681 70.8867C26.0657 70.9653 25.939 71.0054 25.81 71Z" fill="white"/>
</g>
<defs>
<clipPath id="clip0_835_3252">
<rect width="185.67" height="86.11" fill="white"/>
</clipPath>
</defs>
</svg>
