<svg width="377" height="286" viewBox="0 0 377 286" fill="none" xmlns="http://www.w3.org/2000/svg">
    <path d="M347.627 84.1801H293.167V129.571H347.627V84.1801Z" fill="#FFA670" />
    <path
        d="M348.746 129.338H292.048V82.8418H348.746V129.338ZM295.201 127.45H345.604V85.3979H295.201V127.45Z"
        fill="#171A1C" />
    <path d="M325.731 84.7118H315.659V98.7368H325.731V84.7118Z" fill="white" stroke="#171A1C"
        stroke-width="2" stroke-miterlimit="10" />
    <path d="M318.363 38.299H263.904V83.69H318.363V38.299Z" fill="#FFA670" />
    <path
        d="M319.56 83.8424H262.823V37.1183H319.56V83.8424ZM265.978 81.9449H316.415V39.6869H265.978V81.9449Z"
        fill="#171A1C" />
    <path d="M296.468 38.8307H286.396V52.8557H296.468V38.8307Z" fill="white" stroke="#171A1C"
        stroke-width="2" stroke-miterlimit="10" />
    <path d="M274.438 72.076V77.6835" stroke="#171A1C" stroke-width="2" stroke-miterlimit="10"
        stroke-linecap="round" />
    <path d="M272.027 67.2695H276.849" stroke="#171A1C" stroke-width="2" stroke-miterlimit="10"
        stroke-linecap="round" />
    <path
        d="M277.308 67.2809C277.308 69.6726 276.045 71.5952 274.496 71.5952C272.946 71.5952 271.695 69.6726 271.695 67.2809"
        stroke="#171A1C" stroke-width="2" stroke-miterlimit="10" stroke-linecap="round" />
    <path d="M271.695 78.3016H277.308" stroke="#171A1C" stroke-width="2" stroke-miterlimit="10"
        stroke-linecap="round" />
    <path d="M320.905 129.402H266.445V174.793H320.905V129.402Z" fill="#FFA670" />
    <path
        d="M322.024 174.56H265.326V128.064H322.024V174.56ZM268.479 172.672H318.882V130.62H268.479V172.672Z"
        fill="#171A1C" />
    <path d="M299.009 129.933H288.937V143.958H299.009V129.933Z" fill="white" stroke="#171A1C"
        stroke-width="2" stroke-miterlimit="10" />
    <path d="M320.943 174.615H266.484V220.006H320.943V174.615Z" fill="#FFA670" />
    <path
        d="M322.063 219.772H265.365V173.276H322.063V219.772ZM268.518 217.884H318.92V175.832H268.518V217.884Z"
        fill="#171A1C" />
    <path d="M299.048 175.146H288.976V189.171H299.048V175.146Z" fill="white" stroke="#171A1C"
        stroke-width="2" stroke-miterlimit="10" />
    <path d="M375.462 164.775H320.394V274.91H375.462V164.775Z" fill="#FFA670" />
    <path
        d="M376.335 274.998H347.986H319.637V163.421H376.335V274.998ZM322.79 271.441H347.991H373.192V165.977H322.79V271.441Z"
        fill="#171A1C" />
    <path d="M353.32 165.291H343.248V179.316H353.32V165.291Z" fill="white" stroke="#171A1C"
        stroke-width="2" stroke-miterlimit="10" />
    <path d="M257.2 174.638H198.552V273.81H257.2V174.638Z" fill="#FFA670" />
    <path
        d="M258.406 275.023H197.347V173.436H258.406V275.023ZM199.757 272.62H256.007V175.839H199.757V272.62Z"
        fill="#171A1C" />
    <path d="M320.394 218.174H216.933V274.076H320.394V218.174Z" fill="#FFA670" />
    <path
        d="M322.063 274.911H215.265V216.506H322.063V274.911ZM217.641 272.371H319.64V219.046H217.687L217.641 272.371Z"
        fill="#171A1C" />
    <path d="M233.702 176.034H222.854V193.726H233.702V176.034Z" fill="white" stroke="#171A1C"
        stroke-width="2" stroke-miterlimit="10" />
    <path d="M203.982 260.203L207.047 257.136L210.158 260.238" stroke="#171A1C" stroke-width="2"
        stroke-miterlimit="10" stroke-linecap="round" />
    <path d="M207.07 261.085V268.02" stroke="#171A1C" stroke-width="2" stroke-miterlimit="10"
        stroke-linecap="round" />
    <path d="M226.045 263.144V268.752" stroke="#171A1C" stroke-width="2" stroke-miterlimit="10"
        stroke-linecap="round" />
    <path d="M223.635 258.338H228.456" stroke="#171A1C" stroke-width="2" stroke-miterlimit="10"
        stroke-linecap="round" />
    <path
        d="M228.915 258.348C228.915 260.74 227.652 262.663 226.103 262.663C224.553 262.663 223.302 260.74 223.302 258.348"
        stroke="#171A1C" stroke-width="2" stroke-miterlimit="10" stroke-linecap="round" />
    <path d="M223.302 269.37H228.915" stroke="#171A1C" stroke-width="2" stroke-miterlimit="10"
        stroke-linecap="round" />
    <path d="M365.449 128.898H321.228V163.107H365.449V128.898Z" fill="white" />
    <path
        d="M366.304 165.713H320.394V128.064H366.304V165.713ZM322.947 164.184H363.76V130.133H322.947V164.184Z"
        fill="#171A1C" />
    <path d="M347.668 129.578H339.513V140.934H347.668V129.578Z" fill="white" stroke="#171A1C"
        stroke-width="2" stroke-miterlimit="10" />
    <path d="M267.829 128.898H223.608V163.107H267.829V128.898Z" fill="white" />
    <path
        d="M268.684 165.713H222.774V128.064H268.684V165.713ZM225.327 164.184H266.14V130.133H225.327V164.184Z"
        fill="#171A1C" />
    <path d="M250.048 129.578H241.893V140.934H250.048V129.578Z" fill="white" stroke="#171A1C"
        stroke-width="2" stroke-miterlimit="10" />
    <path d="M318.725 1.24084H274.504V37.1183H318.725V1.24084Z" fill="#FF8338" />
    <path
        d="M319.58 38.0563H273.67V0.406494H319.58V38.0563ZM276.223 36.5273H317.036V2.47627H276.223V36.5273Z"
        fill="#171A1C" />
    <path d="M300.944 1.92078H292.789V13.2775H300.944V1.92078Z" fill="white" stroke="#171A1C"
        stroke-width="2" stroke-miterlimit="10" />
    <path d="M293.465 83.7039H239.006V128.261H266.235H293.465V83.7039Z" fill="white" />
    <path
        d="M294.584 128.862H237.886V82.3652H294.584V128.862ZM241.039 126.973H291.442V84.9214H241.039V126.973Z"
        fill="#171A1C" />
    <path d="M271.569 84.2355H261.497V98.2606H271.569V84.2355Z" fill="white" stroke="#171A1C"
        stroke-width="2" stroke-miterlimit="10" />
    <path d="M246.534 115.704L249.599 113.653L252.71 115.727" stroke="#171A1C" stroke-width="2"
        stroke-miterlimit="10" stroke-linecap="round" />
    <path d="M249.622 116.294V120.933" stroke="#171A1C" stroke-width="2" stroke-miterlimit="10"
        stroke-linecap="round" />
    <g clip-path="url(#clip0_835_3400)">
        <path
            d="M48.4203 196.793H41.2571C37.8145 196.793 35.0238 199.573 35.0238 203.001C35.0238 206.43 37.8145 209.21 41.2571 209.21H48.4203C51.8629 209.21 54.6536 206.43 54.6536 203.001C54.6536 199.573 51.8629 196.793 48.4203 196.793Z"
            fill="#FF8338" />
        <path
            d="M48.4318 210.297H41.2571C40.2717 210.336 39.2885 210.176 38.3666 209.827C37.4447 209.478 36.603 208.947 35.892 208.265C35.181 207.584 34.6153 206.767 34.2289 205.862C33.8425 204.957 33.6433 203.984 33.6433 203.001C33.6433 202.018 33.8425 201.045 34.2289 200.141C34.6153 199.236 35.181 198.419 35.892 197.737C36.603 197.056 37.4447 196.525 38.3666 196.176C39.2885 195.827 40.2717 195.667 41.2571 195.706H48.4318C49.4172 195.667 50.4003 195.827 51.3223 196.176C52.2442 196.525 53.0859 197.056 53.7969 197.737C54.5079 198.419 55.0736 199.236 55.46 200.141C55.8464 201.045 56.0455 202.018 56.0455 203.001C56.0455 203.984 55.8464 204.957 55.46 205.862C55.0736 206.767 54.5079 207.584 53.7969 208.265C53.0859 208.947 52.2442 209.478 51.3223 209.827C50.4003 210.176 49.4172 210.336 48.4318 210.297V210.297ZM41.2571 197.88C39.9367 197.942 38.691 198.509 37.7786 199.463C36.8662 200.416 36.3572 201.684 36.3572 203.001C36.3572 204.319 36.8662 205.586 37.7786 206.54C38.691 207.494 39.9367 208.06 41.2571 208.122H48.4318C49.7522 208.06 50.9979 207.494 51.9102 206.54C52.8226 205.586 53.3316 204.319 53.3316 203.001C53.3316 201.684 52.8226 200.416 51.9102 199.463C50.9979 198.509 49.7522 197.942 48.4318 197.88H41.2571Z"
            fill="#171A1C" />
        <path
            d="M53.7812 283.926C64.4069 283.926 73.0207 274.479 73.0207 262.824C73.0207 251.169 64.4069 241.722 53.7812 241.722C43.1555 241.722 34.5416 251.169 34.5416 262.824C34.5416 274.479 43.1555 283.926 53.7812 283.926Z"
            fill="#171A1C" />
        <path
            d="M53.7812 284.476C42.8642 284.476 33.9906 274.76 33.9906 262.824C33.9906 250.888 42.8642 241.172 53.7812 241.172C64.6981 241.172 73.5717 250.888 73.5717 262.824C73.5717 274.76 64.6866 284.476 53.7812 284.476ZM53.7812 242.259C43.4497 242.259 35.0812 251.483 35.0812 262.858C35.0812 274.233 43.4726 283.457 53.7812 283.457C64.0897 283.457 72.4812 274.233 72.4812 262.858C72.4812 251.483 64.0897 242.259 53.7812 242.259Z"
            fill="#171A1C" />
        <path
            d="M49.9241 283.926C60.5498 283.926 69.1636 274.479 69.1636 262.824C69.1636 251.169 60.5498 241.722 49.9241 241.722C39.2984 241.722 30.6845 251.169 30.6845 262.824C30.6845 274.479 39.2984 283.926 49.9241 283.926Z"
            fill="#171A1C" />
        <path
            d="M49.9241 284.476C39.0186 284.476 30.1335 274.76 30.1335 262.824C30.1335 250.888 39.0301 241.172 49.9241 241.172C60.8181 241.172 69.7261 250.888 69.7261 262.824C69.7261 274.76 60.841 284.476 49.9241 284.476ZM49.9241 242.259C39.5926 242.259 31.2356 251.483 31.2356 262.858C31.2356 274.233 39.6155 283.457 49.9241 283.457C60.2326 283.457 68.6241 274.233 68.6241 262.858C68.6241 251.483 60.2441 242.259 49.9241 242.259Z"
            fill="#171A1C" />
        <path
            d="M196.781 283.926C208.009 283.926 217.111 274.479 217.111 262.824C217.111 251.169 208.009 241.722 196.781 241.722C185.553 241.722 176.451 251.169 176.451 262.824C176.451 274.479 185.553 283.926 196.781 283.926Z"
            fill="#171A1C" />
        <path
            d="M196.781 284.476C185.301 284.476 175.911 274.76 175.911 262.824C175.911 250.888 185.267 241.172 196.781 241.172C208.294 241.172 217.65 250.888 217.65 262.824C217.65 274.76 208.294 284.476 196.781 284.476ZM196.781 242.259C185.875 242.259 177.001 251.483 177.001 262.858C177.001 274.233 185.875 283.457 196.781 283.457C207.686 283.457 216.56 274.233 216.56 262.858C216.56 251.483 207.686 242.259 196.781 242.259Z"
            fill="#171A1C" />
        <path
            d="M192.717 283.926C203.945 283.926 213.047 274.479 213.047 262.824C213.047 251.169 203.945 241.722 192.717 241.722C181.489 241.722 172.387 251.169 172.387 262.824C172.387 274.479 181.489 283.926 192.717 283.926Z"
            fill="#171A1C" />
        <path
            d="M192.717 284.476C181.237 284.476 171.836 274.76 171.836 262.824C171.836 250.888 181.203 241.172 192.717 241.172C204.231 241.172 213.586 250.888 213.586 262.824C213.586 274.76 204.231 284.476 192.717 284.476ZM192.717 242.259C181.811 242.259 172.938 251.483 172.938 262.858C172.938 274.233 181.811 283.457 192.717 283.457C203.622 283.457 212.496 274.233 212.496 262.858C212.496 251.483 203.622 242.259 192.717 242.259Z"
            fill="#171A1C" />
        <path
            d="M12.1567 257.548V228.218C12.1719 223.119 14.2137 218.233 17.8349 214.632C21.4561 211.031 26.3615 209.007 31.4766 209.004H40.7405L70.2771 163.411C71.2869 161.869 72.6679 160.604 74.294 159.731C75.9202 158.857 77.7398 158.403 79.587 158.41H281.017C283.81 158.416 286.487 159.523 288.466 161.489C290.444 163.454 291.563 166.12 291.578 168.904V257.548H12.1567Z"
            fill="#FF8338" />
        <path
            d="M292.726 258.635H11.0662V228.218C11.0874 222.832 13.2461 217.674 17.0705 213.87C20.8949 210.066 26.0742 207.925 31.4766 207.916H40.178L69.3588 162.816C70.4585 161.109 71.9721 159.705 73.7598 158.735C75.5475 157.765 77.5516 157.26 79.587 157.266H281.017C282.552 157.263 284.073 157.562 285.493 158.145C286.913 158.729 288.203 159.585 289.291 160.666C290.378 161.747 291.241 163.031 291.831 164.444C292.42 165.858 292.724 167.374 292.726 168.904V258.635ZM13.2588 256.45H290.499V168.904C290.496 166.398 289.496 163.996 287.718 162.224C285.941 160.452 283.531 159.455 281.017 159.452H79.587C77.9149 159.45 76.2694 159.868 74.8026 160.668C73.3359 161.468 72.0952 162.624 71.1955 164.029L41.326 210.102H31.4766C26.6548 210.108 22.0314 212.017 18.6175 215.412C15.2036 218.807 13.277 223.411 13.2588 228.218V256.45Z"
            fill="#171A1C" />
        <path
            d="M72.4927 226.421H14.1082C12.6437 226.421 11.4565 227.605 11.4565 229.065V236.972C11.4565 238.432 12.6437 239.616 14.1082 239.616H72.4927C73.9572 239.616 75.1444 238.432 75.1444 236.972V229.065C75.1444 227.605 73.9572 226.421 72.4927 226.421Z"
            fill="#171A1C" />
        <path
            d="M72.6074 240.154H13.982C13.578 240.154 13.1779 240.074 12.8046 239.92C12.4314 239.766 12.0922 239.54 11.8066 239.255C11.5209 238.971 11.2943 238.633 11.1397 238.26C10.985 237.888 10.9055 237.49 10.9055 237.087V228.939C10.9205 228.135 11.2513 227.37 11.8266 226.807C12.4019 226.244 13.1759 225.929 13.982 225.929H72.6074C73.4234 225.929 74.2059 226.252 74.7828 226.827C75.3598 227.403 75.6839 228.183 75.6839 228.996V237.144C75.6689 237.947 75.3381 238.713 74.7628 239.276C74.1875 239.839 73.4135 240.154 72.6074 240.154ZM13.982 226.959C13.4562 226.962 12.9528 227.172 12.581 227.542C12.2092 227.913 11.999 228.415 11.996 228.939V237.087C11.999 237.611 12.2092 238.113 12.581 238.483C12.9528 238.854 13.4562 239.064 13.982 239.067H72.6074C72.8697 239.068 73.1298 239.018 73.3727 238.919C73.6156 238.821 73.8367 238.675 74.0232 238.491C74.2098 238.308 74.3581 238.089 74.4599 237.848C74.5617 237.607 74.6148 237.348 74.6163 237.087V228.939C74.6133 228.415 74.4031 227.913 74.0313 227.542C73.6596 227.172 73.1562 226.962 72.6304 226.959H13.982Z"
            fill="#171A1C" />
        <path
            d="M68.3486 237.407C70.7831 237.407 72.7567 235.44 72.7567 233.013C72.7567 230.586 70.7831 228.618 68.3486 228.618C65.914 228.618 63.9405 230.586 63.9405 233.013C63.9405 235.44 65.914 237.407 68.3486 237.407Z"
            fill="white" />
        <path
            d="M68.3486 237.956C67.3678 237.956 66.409 237.667 65.5934 237.123C64.7779 236.58 64.1423 235.808 63.767 234.905C63.3916 234.001 63.2934 233.007 63.4848 232.048C63.6761 231.089 64.1484 230.208 64.842 229.517C65.5355 228.826 66.4191 228.355 67.3811 228.164C68.3431 227.973 69.3402 228.071 70.2463 228.445C71.1525 228.819 71.927 229.453 72.4719 230.266C73.0168 231.079 73.3077 232.035 73.3077 233.013C73.3047 234.323 72.7812 235.579 71.8519 236.505C70.9225 237.432 69.6629 237.953 68.3486 237.956V237.956ZM68.3486 229.156C67.583 229.154 66.8339 229.378 66.1962 229.801C65.5585 230.223 65.0609 230.824 64.7663 231.529C64.4718 232.233 64.3935 233.009 64.5415 233.758C64.6894 234.507 65.057 235.195 65.5975 235.736C66.1381 236.276 66.8274 236.645 67.5781 236.794C68.3289 236.944 69.1073 236.868 69.8149 236.577C70.5224 236.285 71.1273 235.791 71.5529 235.156C71.9785 234.522 72.2057 233.776 72.2057 233.013C72.2057 231.992 71.7997 231.013 71.0766 230.29C70.3536 229.567 69.3726 229.159 68.3486 229.156V229.156Z"
            fill="#171A1C" />
        <path
            d="M305.146 261.302H7.11725C6.42177 261.257 5.7695 260.95 5.29289 260.443C4.81627 259.936 4.55104 259.267 4.55104 258.573C4.55104 257.878 4.81627 257.209 5.29289 256.702C5.7695 256.195 6.42177 255.888 7.11725 255.843H305.146C305.842 255.888 306.494 256.195 306.971 256.702C307.447 257.209 307.713 257.878 307.713 258.573C307.713 259.267 307.447 259.936 306.971 260.443C306.494 260.95 305.842 261.257 305.146 261.302V261.302Z"
            fill="#171A1C" />
        <path
            d="M116.895 203.682L135.262 175.221C135.678 174.579 136.25 174.051 136.923 173.685C137.597 173.319 138.352 173.127 139.119 173.127H164.19C165.408 173.127 166.576 173.609 167.437 174.468C168.298 175.326 168.782 176.491 168.782 177.705V206.475C168.782 207.689 168.298 208.853 167.437 209.711C166.576 210.57 165.408 211.052 164.19 211.052L120.695 210.697C119.881 210.682 119.087 210.452 118.392 210.03C117.697 209.608 117.127 209.009 116.741 208.295C116.354 207.582 116.165 206.779 116.192 205.968C116.219 205.157 116.462 204.369 116.895 203.682V203.682Z"
            fill="#171A1C" />
        <path
            d="M164.236 211.624L120.752 211.27C119.834 211.262 118.935 211.008 118.148 210.536C117.362 210.064 116.717 209.39 116.281 208.585C115.845 207.779 115.633 206.872 115.669 205.957C115.704 205.043 115.985 204.154 116.482 203.385L134.849 174.924C135.319 174.213 135.961 173.631 136.715 173.231C137.469 172.832 138.311 172.627 139.165 172.635H164.236C165.595 172.635 166.899 173.173 167.861 174.129C168.823 175.086 169.365 176.384 169.368 177.739V206.475C169.362 207.829 168.819 209.127 167.858 210.085C166.897 211.043 165.595 211.584 164.236 211.59V211.624ZM139.165 173.677C138.482 173.667 137.807 173.831 137.204 174.154C136.602 174.476 136.091 174.946 135.721 175.519L117.354 203.98C116.965 204.586 116.745 205.285 116.718 206.004C116.691 206.723 116.858 207.437 117.201 208.07C117.545 208.703 118.052 209.233 118.67 209.605C119.289 209.976 119.996 210.176 120.718 210.182L164.202 210.537C165.271 210.54 166.3 210.13 167.072 209.393C167.443 209.015 167.736 208.568 167.933 208.077C168.13 207.586 168.227 207.061 168.22 206.532V177.693C168.22 176.628 167.795 175.606 167.04 174.853C166.284 174.1 165.259 173.677 164.19 173.677H139.165Z"
            fill="#171A1C" />
        <path
            d="M65.5017 171.067L118.238 172.051C118.86 172.063 119.467 172.238 119.998 172.56C120.529 172.881 120.965 173.338 121.262 173.882C121.558 174.427 121.704 175.04 121.685 175.659C121.666 176.278 121.483 176.882 121.154 177.407L103.085 206.223C102.145 207.72 100.838 208.955 99.2883 209.812C97.7383 210.668 95.9955 211.119 94.2232 211.121L40.5454 209.679"
            fill="#171A1C" />
        <path
            d="M94.2232 211.659L40.5339 210.228V209.084L94.2462 210.571C95.9166 210.581 97.5618 210.166 99.0263 209.365C100.491 208.564 101.726 207.404 102.615 205.994L120.695 177.178C120.985 176.733 121.15 176.218 121.172 175.687C121.194 175.156 121.072 174.629 120.82 174.161C120.568 173.693 120.194 173.302 119.738 173.027C119.281 172.753 118.76 172.605 118.227 172.601L65.4902 171.628V170.484L118.227 171.468C118.957 171.463 119.675 171.655 120.306 172.022C120.936 172.39 121.455 172.92 121.809 173.558C122.163 174.195 122.337 174.915 122.315 175.643C122.293 176.371 122.074 177.079 121.682 177.693L103.545 206.475C102.565 208.061 101.194 209.371 99.5619 210.278C97.93 211.186 96.0919 211.661 94.2232 211.659V211.659Z"
            fill="#171A1C" />
        <path
            d="M167.956 223.48H155.191C154.67 223.508 154.149 223.431 153.66 223.252C153.171 223.073 152.723 222.796 152.345 222.439C151.966 222.082 151.665 221.652 151.459 221.174C151.253 220.697 151.147 220.183 151.147 219.664C151.147 219.144 151.253 218.63 151.459 218.153C151.665 217.675 151.966 217.245 152.345 216.888C152.723 216.531 153.171 216.254 153.66 216.075C154.149 215.896 154.67 215.819 155.191 215.847H167.956C168.476 215.819 168.997 215.896 169.486 216.075C169.975 216.254 170.423 216.531 170.801 216.888C171.18 217.245 171.481 217.675 171.687 218.153C171.893 218.63 172 219.144 172 219.664C172 220.183 171.893 220.697 171.687 221.174C171.481 221.652 171.18 222.082 170.801 222.439C170.423 222.796 169.975 223.073 169.486 223.252C168.997 223.431 168.476 223.508 167.956 223.48V223.48Z"
            fill="#171A1C" />
        <path
            d="M105.611 241.321C100.245 241.284 95.0688 243.293 91.1417 246.938C87.2146 250.583 84.8343 255.586 84.4887 260.924H104.096V264.701H126.676C126.676 264.701 126.745 263.385 126.745 262.938C126.745 251.277 117.262 241.321 105.611 241.321Z"
            fill="#171A1C" />
        <path
            d="M249.529 241.321C244.169 241.292 239.001 243.306 235.081 246.95C231.162 250.594 228.786 255.592 228.441 260.924H247.956V264.701H270.674C270.674 264.701 270.743 263.385 270.743 262.938C270.697 251.277 261.215 241.321 249.529 241.321Z"
            fill="#171A1C" />
        <path
            d="M255.085 283.926C266.775 283.926 276.253 274.479 276.253 262.824C276.253 251.169 266.775 241.722 255.085 241.722C243.394 241.722 233.917 251.169 233.917 262.824C233.917 274.479 243.394 283.926 255.085 283.926Z"
            fill="#333333" />
        <path
            d="M255.085 284.476C250.789 284.478 246.588 283.21 243.015 280.832C239.442 278.455 236.656 275.074 235.011 271.118C233.365 267.162 232.933 262.808 233.77 258.607C234.607 254.406 236.674 250.547 239.711 247.518C242.748 244.489 246.618 242.425 250.832 241.589C255.045 240.753 259.413 241.181 263.382 242.819C267.351 244.458 270.744 247.233 273.131 250.794C275.518 254.355 276.792 258.541 276.792 262.824C276.786 268.563 274.498 274.064 270.428 278.123C266.359 282.182 260.841 284.467 255.085 284.476V284.476ZM255.085 242.259C250.998 242.259 247.003 243.468 243.605 245.731C240.207 247.994 237.558 251.211 235.995 254.975C234.431 258.739 234.021 262.881 234.819 266.877C235.616 270.873 237.584 274.543 240.474 277.424C243.363 280.305 247.045 282.267 251.053 283.061C255.062 283.856 259.216 283.448 262.992 281.889C266.768 280.33 269.995 277.69 272.265 274.302C274.536 270.915 275.748 266.932 275.748 262.858C275.748 257.395 273.571 252.156 269.696 248.293C265.821 244.43 260.565 242.259 255.085 242.259V242.259Z"
            fill="#171A1C" />
        <path
            d="M252.961 283.926C264.652 283.926 274.129 274.479 274.129 262.824C274.129 251.169 264.652 241.722 252.961 241.722C241.27 241.722 231.793 251.169 231.793 262.824C231.793 274.479 241.27 283.926 252.961 283.926Z"
            fill="#171A1C" />
        <path
            d="M252.961 284.476C248.665 284.476 244.466 283.206 240.894 280.827C237.323 278.448 234.539 275.066 232.895 271.11C231.251 267.153 230.821 262.8 231.659 258.6C232.497 254.4 234.566 250.542 237.603 247.514C240.641 244.486 244.511 242.424 248.724 241.588C252.937 240.753 257.304 241.182 261.272 242.82C265.241 244.459 268.633 247.234 271.02 250.795C273.406 254.356 274.68 258.542 274.68 262.824C274.674 268.565 272.384 274.068 268.312 278.127C264.24 282.187 258.719 284.47 252.961 284.476V284.476ZM252.961 242.259C248.874 242.259 244.879 243.468 241.481 245.731C238.083 247.994 235.435 251.211 233.871 254.975C232.307 258.739 231.898 262.881 232.695 266.877C233.492 270.873 235.46 274.543 238.35 277.424C241.24 280.305 244.922 282.267 248.93 283.061C252.938 283.856 257.093 283.448 260.868 281.889C264.644 280.33 267.871 277.69 270.142 274.302C272.412 270.915 273.624 266.932 273.624 262.858C273.624 257.395 271.447 252.156 267.572 248.293C263.697 244.43 258.441 242.259 252.961 242.259V242.259Z"
            fill="#171A1C" />
        <path
            d="M260.377 274.954C265.639 274.954 269.905 269.523 269.905 262.824C269.905 256.124 265.639 250.693 260.377 250.693C255.115 250.693 250.849 256.124 250.849 262.824C250.849 269.523 255.115 274.954 260.377 274.954Z"
            fill="white" />
        <path
            d="M260.377 275.504C254.821 275.504 250.298 269.782 250.298 262.824C250.298 255.866 254.821 250.144 260.377 250.144C265.933 250.144 270.444 255.866 270.444 262.824C270.444 269.782 265.933 275.504 260.377 275.504ZM260.377 251.231C255.418 251.231 251.4 256.427 251.4 262.824C251.4 269.221 255.418 274.405 260.377 274.405C265.336 274.405 269.354 269.21 269.354 262.824C269.354 256.438 265.324 251.231 260.377 251.231V251.231Z"
            fill="#171A1C" />
        <path
            d="M111.925 283.926C123.615 283.926 133.093 274.479 133.093 262.824C133.093 251.169 123.615 241.722 111.925 241.722C100.234 241.722 90.7564 251.169 90.7564 262.824C90.7564 274.479 100.234 283.926 111.925 283.926Z"
            fill="#171A1C" />
        <path
            d="M111.925 284.476C107.629 284.476 103.43 283.206 99.858 280.827C96.2863 278.448 93.5026 275.066 91.8587 271.11C90.2148 267.153 89.7847 262.8 90.6227 258.6C91.4608 254.4 93.5293 250.542 96.5668 247.514C99.6043 244.486 103.474 242.424 107.687 241.588C111.9 240.753 116.267 241.182 120.236 242.82C124.205 244.459 127.597 247.234 129.983 250.795C132.37 254.356 133.644 258.542 133.644 262.824C133.638 268.565 131.347 274.068 127.276 278.127C123.204 282.187 117.683 284.47 111.925 284.476ZM111.925 242.259C107.838 242.259 103.843 243.468 100.445 245.731C97.0468 247.994 94.3983 251.211 92.8344 254.975C91.2705 258.739 90.8613 262.881 91.6586 266.877C92.4558 270.873 94.4238 274.543 97.3136 277.424C100.203 280.305 103.885 282.267 107.893 283.061C111.902 283.856 116.056 283.448 119.832 281.889C123.608 280.33 126.835 277.69 129.105 274.302C131.376 270.915 132.588 266.932 132.588 262.858C132.588 257.395 130.411 252.156 126.535 248.293C122.66 244.43 117.405 242.259 111.925 242.259V242.259Z"
            fill="#171A1C" />
        <path
            d="M109.801 283.926C121.492 283.926 130.969 274.479 130.969 262.824C130.969 251.169 121.492 241.722 109.801 241.722C98.11 241.722 88.6328 251.169 88.6328 262.824C88.6328 274.479 98.11 283.926 109.801 283.926Z"
            fill="#171A1C" />
        <path
            d="M109.801 284.476C105.505 284.476 101.306 283.206 97.7343 280.827C94.1627 278.448 91.3789 275.066 89.735 271.11C88.0911 267.153 87.661 262.8 88.4991 258.6C89.3371 254.4 91.4056 250.542 94.4431 247.514C97.4806 244.486 101.351 242.424 105.564 241.588C109.777 240.753 114.144 241.182 118.112 242.82C122.081 244.459 125.473 247.234 127.86 250.795C130.246 254.356 131.52 258.542 131.52 262.824C131.514 268.565 129.224 274.068 125.152 278.127C121.08 282.187 115.559 284.47 109.801 284.476ZM109.801 242.259C105.714 242.259 101.719 243.468 98.3211 245.731C94.9231 247.994 92.2747 251.211 90.7107 254.975C89.1468 258.739 88.7376 262.881 89.5349 266.877C90.3322 270.873 92.3001 274.543 95.1899 277.424C98.0797 280.305 101.761 282.267 105.77 283.061C109.778 283.856 113.933 283.448 117.708 281.889C121.484 280.33 124.711 277.69 126.981 274.302C129.252 270.915 130.464 266.932 130.464 262.858C130.464 257.395 128.287 252.156 124.412 248.293C120.537 244.43 115.281 242.259 109.801 242.259V242.259Z"
            fill="#171A1C" />
        <path
            d="M117.217 274.954C122.479 274.954 126.744 269.523 126.744 262.824C126.744 256.124 122.479 250.693 117.217 250.693C111.954 250.693 107.689 256.124 107.689 262.824C107.689 269.523 111.954 274.954 117.217 274.954Z"
            fill="white" />
        <path
            d="M117.217 275.504C111.661 275.504 107.138 269.782 107.138 262.824C107.138 255.866 111.661 250.144 117.217 250.144C122.773 250.144 127.284 255.866 127.284 262.824C127.284 269.782 122.83 275.504 117.217 275.504ZM117.217 251.231C112.257 251.231 108.24 256.427 108.24 262.824C108.24 269.221 112.257 274.405 117.217 274.405C122.176 274.405 126.193 269.21 126.193 262.824C126.193 256.438 122.164 251.231 117.217 251.231V251.231Z"
            fill="#171A1C" />
        <path
            d="M14.4985 228.618C14.0049 228.662 13.5143 228.735 13.0292 228.836V237.19C13.5143 237.291 14.0049 237.363 14.4985 237.407C15.6676 237.407 16.7889 236.944 17.6155 236.12C18.4422 235.296 18.9066 234.178 18.9066 233.013C18.9066 231.847 18.4422 230.73 17.6155 229.906C16.7889 229.081 15.6676 228.618 14.4985 228.618V228.618Z"
            fill="white" />
        <path
            d="M14.4985 237.957C14.2544 237.959 14.0111 237.928 13.7753 237.865C13.6031 237.865 13.3621 237.785 12.9488 237.728L12.4781 237.659V228.367L12.9488 228.298C13.3621 228.298 13.5917 228.195 13.7753 228.161C14.0111 228.098 14.2544 228.067 14.4985 228.069C15.8138 228.069 17.0751 228.59 18.0052 229.517C18.9352 230.444 19.4576 231.702 19.4576 233.013C19.4576 234.324 18.9352 235.581 18.0052 236.509C17.0751 237.436 15.8138 237.957 14.4985 237.957V237.957ZM13.5802 236.721L13.9934 236.801C14.1611 236.822 14.3308 236.822 14.4985 236.801C15.0235 236.829 15.5488 236.751 16.0424 236.57C16.536 236.39 16.9874 236.111 17.3692 235.75C17.7509 235.39 18.055 234.956 18.2628 234.474C18.4706 233.993 18.5778 233.474 18.5778 232.95C18.5778 232.426 18.4706 231.907 18.2628 231.426C18.055 230.944 17.7509 230.51 17.3692 230.15C16.9874 229.789 16.536 229.51 16.0424 229.33C15.5488 229.149 15.0235 229.07 14.4985 229.099C14.328 229.101 14.1583 229.124 13.9934 229.168L13.5802 229.248V236.721Z"
            fill="#171A1C" />
        <path
            d="M270.364 212.025H189.514C188.898 212.026 188.288 211.907 187.718 211.673C187.149 211.439 186.631 211.095 186.195 210.661C185.759 210.228 185.413 209.712 185.177 209.145C184.94 208.578 184.819 207.97 184.819 207.356V176.629C184.819 175.391 185.312 174.203 186.191 173.328C187.069 172.452 188.26 171.96 189.503 171.96H270.352C271.594 171.96 272.786 172.452 273.664 173.328C274.542 174.203 275.036 175.391 275.036 176.629V207.356C275.036 208.592 274.544 209.778 273.668 210.653C272.792 211.529 271.604 212.022 270.364 212.025V212.025ZM189.514 174.134C188.852 174.137 188.219 174.401 187.752 174.869C187.285 175.337 187.023 175.969 187.023 176.629V207.356C187.023 208.014 187.285 208.646 187.753 209.112C188.22 209.577 188.853 209.839 189.514 209.839H270.364C271.025 209.839 271.66 209.578 272.129 209.112C272.598 208.647 272.863 208.015 272.866 207.356V176.629C272.863 175.968 272.599 175.336 272.13 174.868C271.661 174.401 271.027 174.137 270.364 174.134H189.514Z"
            fill="#171A1C" />
        <path
            d="M101.605 259.894C101.46 259.89 101.317 259.857 101.186 259.796C101.054 259.736 100.936 259.65 100.839 259.543C100.741 259.436 100.666 259.311 100.618 259.175C100.57 259.039 100.551 258.894 100.56 258.75C100.56 258.395 100.996 250.018 108.596 247.157C108.867 247.068 109.163 247.083 109.424 247.199C109.685 247.316 109.893 247.525 110.007 247.787C110.1 248.059 110.087 248.356 109.97 248.619C109.853 248.882 109.641 249.092 109.376 249.206C103.177 251.495 102.798 258.773 102.798 258.842C102.775 259.137 102.637 259.412 102.415 259.608C102.192 259.805 101.902 259.907 101.605 259.894V259.894Z"
            fill="white" />
        <path
            d="M245.557 260.981H245.465C244.882 260.955 244.334 260.699 243.94 260.27C243.546 259.841 243.339 259.274 243.364 258.693C243.364 258.315 243.846 249.24 252.054 246.105C252.598 245.898 253.201 245.915 253.732 246.153C254.262 246.39 254.677 246.827 254.884 247.369C255.091 247.911 255.073 248.512 254.836 249.041C254.598 249.57 254.159 249.984 253.615 250.19C248.082 252.284 247.749 258.784 247.738 258.853C247.726 259.422 247.491 259.963 247.083 260.361C246.675 260.759 246.127 260.982 245.557 260.981V260.981Z"
            fill="white" />
        <path
            d="M149.887 209.908C149.887 209.908 151.976 228.218 154.559 227.588C157.142 226.959 160.769 219.395 160.081 214.897C159.392 210.4 150.851 206.715 149.887 209.908Z"
            fill="#FFA670" />
        <path
            d="M154.433 228.71C154.07 228.707 153.717 228.591 153.423 228.378C150.874 226.616 149.244 213.902 148.831 210.068V209.85L148.888 209.633C149.313 208.248 150.587 207.527 152.401 207.653C155.512 207.882 160.62 210.823 161.217 214.76C161.963 219.658 158.233 227.84 154.881 228.676C154.734 228.709 154.583 228.721 154.433 228.71V228.71ZM150.989 210.091C151.816 217.129 153.377 225.071 154.525 226.455C156.419 225.506 159.576 218.948 158.99 215.012C158.577 212.345 154.582 209.919 152.183 209.759C151.747 209.782 151.219 209.805 151.001 210.091H150.989Z"
            fill="#171A1C" />
        <path
            d="M128.696 192.09C130.087 190.997 131.846 190.481 133.609 190.648C136.617 190.945 141.3 191.563 143.941 192.73C147.924 194.539 156.143 198.395 158.324 202.732C160.506 207.07 160.138 214.909 160.138 214.909L150.381 214.828C150.24 213.977 150.16 213.116 150.14 212.254C150.122 211.806 150.149 211.357 150.22 210.915C150.235 210.828 150.231 210.739 150.208 210.654C150.185 210.569 150.143 210.489 150.087 210.422C150.03 210.354 149.959 210.3 149.879 210.263C149.799 210.225 149.711 210.206 149.623 210.205H125C125 210.205 119.191 203.453 120.029 201.405C120.637 199.929 125.229 194.836 128.696 192.09Z"
            fill="#FF8338" />
        <path
            d="M161.125 216.007L149.439 215.904L149.29 215.012C149.141 214.103 149.053 213.185 149.026 212.265C149.026 211.922 149.026 211.59 149.026 211.292H124.449L124.127 210.915C122.245 208.729 117.986 203.385 118.973 200.981C119.719 199.173 124.598 193.875 127.984 191.197C129.606 189.916 131.665 189.317 133.724 189.526C137.168 189.858 141.76 190.499 144.342 191.701C149.703 194.127 157.073 197.857 159.266 202.206C161.562 206.784 161.217 214.588 161.194 214.92L161.125 216.007ZM151.322 213.718L159.002 213.787C159.002 211.556 158.852 206.326 157.291 203.202C155.202 199.036 146.34 195.019 143.424 193.703C140.228 192.579 136.889 191.908 133.506 191.712C132.023 191.566 130.541 192.001 129.373 192.925V192.925C125.929 195.649 121.533 200.604 121.028 201.828C120.821 202.629 122.91 206.04 125.493 209.118H149.6C149.845 209.118 150.087 209.172 150.309 209.274C150.531 209.377 150.728 209.527 150.886 209.713C151.048 209.897 151.168 210.115 151.235 210.35C151.303 210.586 151.317 210.833 151.276 211.075C151.227 211.454 151.204 211.837 151.207 212.219C151.23 212.769 151.276 213.341 151.322 213.741V213.718Z"
            fill="#171A1C" />
        <path
            d="M150.208 197.514C150.208 197.514 151.862 190.648 153.503 189.801C155.145 188.954 158.095 185.292 156.591 184.262C155.087 183.232 155.546 177.728 153.48 177.773C151.414 177.819 143.493 180.154 142.999 181.859C142.506 183.564 140.485 189.961 141.599 191.941C140.175 194.149 140.141 195.374 140.864 196.095C141.587 196.816 146.638 200.455 150.208 197.514Z"
            fill="#FFA670" />
        <path
            d="M147.017 200.283C144.328 200.131 141.766 199.088 139.739 197.319C138.408 196.061 138.431 194.207 139.739 191.792C139.269 189.789 139.9 186.688 141.071 182.523C141.197 182.099 141.289 181.744 141.358 181.493C142.184 178.174 152.229 176.194 153.388 176.171H153.457C155.914 176.171 156.499 178.883 156.901 180.875C157.023 181.601 157.227 182.311 157.509 182.992C157.86 183.258 158.14 183.605 158.324 184.005C158.508 184.404 158.591 184.842 158.565 185.281C158.428 187.466 155.856 190.35 154.192 191.231C153.652 191.701 152.47 194.836 151.735 197.88L151.609 198.418L151.184 198.761C150.016 199.739 148.542 200.277 147.017 200.283V200.283ZM142.047 195.031C142.047 195.031 146.03 198.201 148.762 196.576C149.485 193.703 150.874 189.377 152.734 188.393C153.857 187.645 154.748 186.598 155.305 185.372C154.446 184.258 153.931 182.917 153.824 181.516C153.691 180.808 153.503 180.112 153.262 179.433C151.092 179.65 145.582 181.447 144.606 182.431C144.538 182.683 144.457 183.003 144.354 183.369C142.816 188.862 142.816 190.625 143.091 191.14L143.539 191.987L143.034 192.822C142.001 194.436 142.104 194.985 142.104 194.985L142.047 195.031Z"
            fill="#171A1C" />
        <path
            d="M145.881 194.79C145.271 194.959 144.625 194.94 144.027 194.736C143.429 194.532 142.906 194.152 142.529 193.646C141.14 191.758 140.531 188.851 141.013 188.199C141.228 187.81 141.522 187.471 141.877 187.203C142.232 186.936 142.639 186.746 143.073 186.647C143.506 186.547 143.956 186.541 144.392 186.627C144.829 186.713 145.242 186.89 145.605 187.146C147.255 188.136 148.62 189.536 149.566 191.208C150.858 190.196 151.788 188.796 152.217 187.215C153.113 184.354 154.421 182.111 153.905 181.493C153.388 180.875 149.462 182.145 148.395 182.763C147.327 183.381 144.136 181.424 142.908 180.394C141.679 179.364 142.127 179.192 141.76 177.888C141.392 176.583 144.193 175.599 145.02 174.203C145.846 172.807 147.499 173.459 149.451 173.963C151.402 174.466 150.748 168.904 153.802 170.667C156.855 172.429 159.805 174.1 159.381 174.947C158.956 175.794 161.47 175.942 161.527 177.968C161.585 179.994 162.078 182.992 159.518 185.544C158.326 186.874 156.857 187.929 155.214 188.634L156.361 185.773C156.361 185.773 155.937 183.736 155.133 183.804C154.33 183.873 153.182 188.325 153.182 188.325C152.502 190.067 151.435 191.632 150.059 192.902C148.801 193.793 147.382 194.434 145.881 194.79Z"
            fill="#171A1C" />
        <path
            d="M145.066 195.443C144.481 195.44 143.906 195.298 143.388 195.027C142.871 194.756 142.426 194.365 142.093 193.886C140.658 191.929 139.865 188.737 140.577 187.798C140.829 187.348 141.172 186.957 141.586 186.648C141.999 186.34 142.473 186.122 142.977 186.009C143.481 185.895 144.003 185.889 144.509 185.99C145.015 186.092 145.494 186.298 145.915 186.597C147.468 187.515 148.781 188.785 149.749 190.304C150.674 189.391 151.357 188.262 151.735 187.02C152.068 185.979 152.435 185.04 152.768 184.216C153.115 183.464 153.369 182.672 153.526 181.859C151.851 182.002 150.219 182.46 148.716 183.209C147.155 184.125 143.436 181.493 142.598 180.783C142.272 180.574 141.999 180.292 141.8 179.961C141.601 179.63 141.481 179.257 141.45 178.872C141.419 178.585 141.362 178.301 141.277 178.025C140.945 176.881 142.024 176.08 143.08 175.29C143.678 174.919 144.206 174.447 144.641 173.894C145.594 172.292 147.385 172.75 149.118 173.253L149.68 173.402C150.002 173.482 150.208 173.081 150.61 172.074C151.012 171.067 151.356 170.152 152.275 169.786C152.596 169.701 152.931 169.687 153.258 169.744C153.585 169.802 153.896 169.929 154.169 170.117L154.766 170.461C158.52 172.624 160.506 173.825 160 175.038C160.137 175.154 160.283 175.257 160.437 175.347C160.924 175.578 161.341 175.934 161.646 176.379C161.95 176.823 162.131 177.34 162.17 177.876C162.17 178.094 162.17 178.334 162.17 178.574C162.273 180.623 162.411 183.415 159.966 185.853C158.699 187.257 157.129 188.357 155.374 189.068L154.226 189.412L155.799 185.647C155.703 185.166 155.507 184.71 155.225 184.308C154.567 185.605 154.095 186.988 153.824 188.416C153.125 190.286 151.992 191.964 150.518 193.314C149.175 194.266 147.658 194.946 146.053 195.317V195.317C145.73 195.4 145.399 195.442 145.066 195.443V195.443ZM143.677 187.02C143.216 187.063 142.773 187.216 142.385 187.467C141.997 187.719 141.676 188.06 141.45 188.462C141.209 188.885 141.633 191.426 142.976 193.257C143.283 193.682 143.711 194.003 144.206 194.179C144.7 194.355 145.236 194.377 145.743 194.241C147.193 193.905 148.564 193.295 149.784 192.444C151.091 191.23 152.104 189.735 152.745 188.073C153.974 183.312 154.869 183.232 155.156 183.209C156.361 183.083 156.855 185.017 156.97 185.601V185.773L156.293 187.421C157.324 186.765 158.279 185.998 159.139 185.132C161.24 183.038 161.114 180.623 161.011 178.689C161.011 178.437 161.011 178.197 161.011 177.968C161.011 177.098 160.368 176.709 159.782 176.32C159.197 175.931 158.531 175.519 158.91 174.695C158.807 174.146 156.006 172.532 154.157 171.468L153.549 171.124C153.411 171.017 153.251 170.94 153.081 170.899C152.911 170.857 152.734 170.852 152.562 170.884C152.126 171.033 151.827 171.8 151.552 172.486C151.173 173.47 150.645 174.775 149.336 174.466L148.762 174.317C147.029 173.848 146.007 173.619 145.513 174.466C145.02 175.138 144.409 175.715 143.711 176.171C142.999 176.698 142.184 177.316 142.299 177.716C142.405 178.044 142.478 178.381 142.517 178.723C142.517 179.204 142.598 179.375 143.298 179.948C144.813 181.218 147.545 182.626 148.154 182.236C148.762 181.847 153.411 179.948 154.364 181.092C154.904 181.733 154.479 182.809 153.767 184.594C153.446 185.406 153.09 186.322 152.768 187.318C152.312 189.024 151.304 190.533 149.899 191.609L149.393 191.941L149.106 191.403C148.213 189.823 146.924 188.502 145.364 187.569C144.858 187.245 144.277 187.056 143.677 187.02Z"
            fill="#171A1C" />
        <path
            d="M159.782 183.266L154.33 181.298C154.33 181.298 149.175 176.377 146.983 176.377C144.79 176.377 143.103 176.377 142.77 177.293C142.437 178.208 142.701 173.86 146.294 173.139C148.751 169.522 154.33 168.561 158.749 171.731C163.169 174.901 161.975 180.142 161.768 181.676C161.562 183.209 161.171 184.193 159.782 183.266Z"
            fill="white" />
        <path
            d="M160.712 184.731C160.21 184.709 159.725 184.546 159.312 184.262L153.767 182.214L153.595 182.065C151.299 179.776 148.073 177.384 146.983 177.487C145.907 177.395 144.824 177.488 143.78 177.762C143.692 178.011 143.521 178.222 143.295 178.36C143.069 178.498 142.803 178.553 142.54 178.517C142.273 178.469 142.031 178.327 141.859 178.117C141.687 177.908 141.594 177.644 141.599 177.373C141.67 176.198 142.094 175.072 142.814 174.14C143.534 173.207 144.519 172.512 145.64 172.143C147.014 170.388 149.003 169.215 151.207 168.859C152.634 168.628 154.093 168.684 155.498 169.022C156.904 169.36 158.227 169.973 159.392 170.827C163.984 174.146 163.203 179.433 162.916 181.424V181.79C162.767 182.935 162.491 184.079 161.493 184.571C161.247 184.68 160.981 184.735 160.712 184.731V184.731ZM154.972 180.325L160.425 182.374L160.551 182.442C160.639 182.139 160.701 181.829 160.735 181.516L160.793 181.104C161.057 179.318 161.676 175.13 158.152 172.601C157.224 171.904 156.163 171.402 155.034 171.126C153.906 170.851 152.732 170.808 151.586 170.999C150.71 171.134 149.87 171.444 149.117 171.91C148.363 172.376 147.712 172.988 147.201 173.711L146.948 174.088L146.501 174.18C145.752 174.315 145.081 174.723 144.618 175.324C145.318 175.324 146.11 175.324 146.914 175.324C149.325 175.256 153.469 178.941 154.972 180.314V180.325Z"
            fill="#171A1C" />
        <path
            d="M153.595 198.521C153.595 198.521 147.706 202.858 146.822 204.46C146.331 205.377 145.708 206.217 144.974 206.955L133.162 203.099C133.162 203.099 137.753 191.769 138.075 191.128C138.396 190.487 134.849 190.236 134.849 190.236C134.849 190.236 129.052 201.485 128.478 203.579C128.048 205.781 127.779 208.011 127.674 210.251L148.51 209.908C149.231 208.175 150.152 206.531 151.253 205.01C152.828 203.288 154.495 201.653 156.247 200.112L153.595 198.521Z"
            fill="white" />
        <path
            d="M126.572 211.35V210.205C126.68 207.899 126.96 205.604 127.41 203.339C127.996 201.199 133.265 190.945 133.862 189.789L134.195 189.149H134.918C138.362 189.389 138.821 190.087 139.005 190.419C139.098 190.595 139.147 190.792 139.147 190.991C139.147 191.19 139.098 191.387 139.005 191.563C138.786 192.021 136.376 197.926 134.562 202.378L144.641 205.696C145.104 205.151 145.512 204.56 145.858 203.934C146.811 202.206 151.919 198.384 152.929 197.64L153.526 197.205L158.118 199.963L156.97 200.936C155.259 202.438 153.631 204.031 152.091 205.708C151.054 207.147 150.191 208.702 149.52 210.343L149.233 211.052L126.572 211.35ZM135.538 191.392C133.242 195.889 129.959 202.481 129.591 203.865C129.225 205.604 128.991 207.367 128.891 209.141L147.798 208.843C148.479 207.245 149.346 205.731 150.381 204.335C151.642 202.909 152.987 201.56 154.41 200.295L153.629 199.826C151.333 201.588 148.246 204.106 147.763 204.987C147.211 206.006 146.51 206.94 145.686 207.756L145.215 208.191L131.727 203.762L132.163 202.687C132.806 201.096 135.607 194.15 136.755 191.575C136.399 191.506 135.974 191.437 135.538 191.392V191.392Z"
            fill="#171A1C" />
        <path
            d="M139.728 176.583C139.728 176.583 142.953 175.942 144.561 176.904C146.035 177.922 147.415 179.071 148.682 180.337L156.66 181.618C156.66 181.618 154.077 176 149.164 174.146C146.26 173.058 145.295 173.345 145.295 173.345C145.295 173.345 139.326 175.141 139.728 176.583Z"
            fill="white" />
        <path
            d="M158.497 183.049L148.165 181.378L147.913 181.126C146.711 179.919 145.405 178.82 144.01 177.842C143.114 177.293 141.048 177.441 139.957 177.647L138.901 177.865L138.626 176.881C138.167 175.244 140.29 173.711 144.928 172.303C145.238 172.212 146.489 171.994 149.52 173.127C154.8 175.107 157.555 180.92 157.624 181.138L158.497 183.049ZM149.233 179.341L154.582 180.199C153.216 177.996 151.216 176.253 148.842 175.199C147.827 174.713 146.719 174.452 145.594 174.432C144.733 174.695 143.849 175.015 143.08 175.336C143.824 175.393 144.548 175.607 145.203 175.965C146.647 176.965 147.996 178.095 149.233 179.341V179.341Z"
            fill="#171A1C" />
        <path
            d="M128.283 209.599C128.283 209.599 151.173 230.015 154.559 227.6C157.946 225.185 157.624 222.301 155.523 220.528C153.423 218.754 141.989 211.533 139.728 210.732C137.466 209.931 132.151 206.394 128.283 209.599Z"
            fill="#FF8338" />
        <path
            d="M153.997 228.813C148.992 228.813 135.572 217.564 127.594 210.411L126.641 209.576L127.617 208.763C131.325 205.685 135.974 207.825 138.752 209.095C139.292 209.347 139.751 209.564 140.13 209.702C142.644 210.594 154.203 217.964 156.27 219.692C156.892 220.177 157.394 220.8 157.734 221.51C158.075 222.221 158.246 223.001 158.233 223.789C158.14 224.753 157.819 225.681 157.296 226.496C156.773 227.312 156.063 227.992 155.225 228.481C154.864 228.725 154.432 228.841 153.997 228.813V228.813ZM130.108 209.759C140.198 218.639 151.919 227.428 153.962 226.696C154.507 226.382 154.974 225.949 155.328 225.43C155.682 224.911 155.914 224.318 156.006 223.697C155.998 223.255 155.891 222.819 155.692 222.423C155.493 222.027 155.208 221.68 154.858 221.409C152.803 219.669 141.484 212.54 139.395 211.796C138.835 211.577 138.287 211.329 137.753 211.052C135.675 210.102 132.61 208.695 130.108 209.759Z"
            fill="#171A1C" />
        <path
            d="M133.104 196.793H125.941C122.498 196.793 119.708 199.573 119.708 203.001C119.708 206.43 122.498 209.21 125.941 209.21H133.104C136.547 209.21 139.337 206.43 139.337 203.001C139.337 199.573 136.547 196.793 133.104 196.793Z"
            fill="#FF8338" />
        <path
            d="M133.161 210.297H125.929C124.039 210.222 122.25 209.421 120.939 208.061C119.628 206.701 118.895 204.888 118.895 203.001C118.895 201.115 119.628 199.302 120.939 197.942C122.25 196.582 124.039 195.781 125.929 195.706H133.161C134.147 195.667 135.13 195.827 136.052 196.176C136.974 196.525 137.816 197.056 138.527 197.737C139.238 198.419 139.803 199.236 140.19 200.141C140.576 201.045 140.775 202.018 140.775 203.001C140.775 203.984 140.576 204.957 140.19 205.862C139.803 206.767 139.238 207.584 138.527 208.265C137.816 208.947 136.974 209.478 136.052 209.827C135.13 210.176 134.147 210.336 133.161 210.297V210.297ZM125.929 197.88C124.609 197.942 123.363 198.509 122.451 199.463C121.539 200.416 121.03 201.684 121.03 203.001C121.03 204.319 121.539 205.586 122.451 206.54C123.363 207.494 124.609 208.06 125.929 208.122H133.161C133.857 208.155 134.551 208.047 135.203 207.804C135.855 207.562 136.45 207.19 136.954 206.711C137.457 206.232 137.858 205.657 138.132 205.019C138.406 204.381 138.547 203.695 138.547 203.001C138.547 202.308 138.406 201.621 138.132 200.984C137.858 200.346 137.457 199.77 136.954 199.292C136.45 198.813 135.855 198.441 135.203 198.198C134.551 197.956 133.857 197.847 133.161 197.88H125.929Z"
            fill="#171A1C" />
        <path
            d="M121.246 201.897C121.246 201.897 117.159 203.957 117.102 205.33C117.044 206.703 118.25 209.576 119.294 208.763C120.339 207.951 122.245 206.932 122.738 205.754C123.232 204.575 122.428 201.748 121.246 201.897Z"
            fill="#FF8338" />
        <path
            d="M118.938 210.091C118.655 210.093 118.375 210.027 118.123 209.896C116.769 209.187 115.954 206.692 116.011 205.319C116.08 203.534 119.007 201.794 120.752 200.913L120.901 200.833H121.085C121.441 200.786 121.803 200.839 122.131 200.984C122.459 201.129 122.741 201.362 122.945 201.657C123.401 202.317 123.709 203.068 123.845 203.859C123.982 204.649 123.945 205.46 123.737 206.234C123.027 207.457 121.995 208.462 120.752 209.141C120.454 209.336 120.178 209.53 119.96 209.702C119.671 209.939 119.313 210.076 118.938 210.091ZM121.303 203.122C120.12 203.679 119.074 204.487 118.238 205.49C118.294 206.306 118.559 207.094 119.007 207.779L119.558 207.39C120.39 206.9 121.113 206.246 121.682 205.468C121.816 204.665 121.683 203.841 121.303 203.122Z"
            fill="#171A1C" />
        <path
            d="M134.195 196.942C134.853 197.307 135.4 197.841 135.78 198.49C136.159 199.138 136.357 199.876 136.353 200.627C136.353 203.305 136.353 206.463 136.353 206.463C136.353 206.463 136.204 208.637 134.78 209.141"
            fill="#9FA8DA" />
        <path
            d="M135.331 210.686L134.183 207.596C134.477 207.241 134.642 206.797 134.654 206.337C134.654 206.337 134.711 203.247 134.654 200.615C134.673 200.157 134.567 199.701 134.347 199.298C134.126 198.895 133.8 198.559 133.403 198.327L134.849 195.385C135.78 195.883 136.558 196.622 137.102 197.525C137.645 198.427 137.934 199.46 137.937 200.512C137.994 203.19 137.937 206.234 137.937 206.406C137.971 206.898 137.753 209.908 135.331 210.686Z"
            fill="#171A1C" />
        <path d="M91.3075 172.978L48.7417 208.351H64.1242L107.046 172.978H91.3075Z" fill="white" />
        <path
            d="M64.7096 209.988H44.2188L90.6876 171.342H111.615L64.7096 209.988ZM53.2302 206.715H63.4813L102.443 174.672H91.8929L53.2302 206.715Z"
            fill="#171A1C" />
        <path d="M85.2693 172.978L42.715 208.351H46.3769L89.31 172.978H85.2693Z" fill="white" />
        <path d="M46.9739 209.988H38.1806L84.6838 171.342H93.8789L46.9739 209.988Z" fill="#171A1C" />
    </g>
    <defs>
        <clipPath id="clip0_835_3400">
            <rect width="342.087" height="128.491" fill="white" transform="translate(0 157.266)" />
        </clipPath>
    </defs>
</svg>