<svg width="24" height="24" viewBox="0 0 24 24" fill="none" xmlns="http://www.w3.org/2000/svg">
<path d="M12 0C5.36842 0 0 5.36842 0 12C0 18.6316 5.36842 24 12 24C18.6316 24 24 18.6316 24 12C24 5.36842 18.6316 0 12 0ZM17.8421 17.0526C17.8421 17.4 17.6842 17.7789 17.3053 17.7789H14.3684V13.3579H15.8842L16.1053 11.4632H14.3684V10.3263C14.3684 9.82104 14.4947 9.56842 15.221 9.56842H16.2632V7.92631C15.9474 7.89473 15.4421 7.86315 14.8105 7.86315C13.4842 7.86315 12.4737 8.68419 12.4737 10.1684V11.4632H10.8947V13.3579H12.4737V17.7789H7.01052C6.66315 17.7789 6.47368 17.4 6.47368 17.0526V6.72631C6.47368 6.37894 6.66315 6.09473 7.01052 6.09473H17.3368C17.6842 6.09473 17.8737 6.37894 17.8737 6.72631V17.0526H17.8421Z" fill="#9CA3AF"/>
</svg>
